<svg xmlns="http://www.w3.org/2000/svg" xmlns:xlink="http://www.w3.org/1999/xlink" width="1030" height="582" viewBox="0 0 1030 582">
  <defs>
    <clipPath id="clip-path">
      <rect id="Rectángulo_39256" data-name="Rectángulo 39256" width="67" height="78" transform="translate(513 7684)" fill="#fff" stroke="#707070" stroke-width="1"/>
    </clipPath>
  </defs>
  <g id="Grupo_850457" data-name="Grupo 850457" transform="translate(-285 -7590)">
    <path id="Trazado_588628" data-name="Trazado 588628" d="M20,0h990a20,20,0,0,1,20,20V504a20,20,0,0,1-20,20H20A20,20,0,0,1,0,504V20A20,20,0,0,1,20,0Z" transform="translate(285 7590)" fill="#f3f9ff"/>
    <path id="Trazado_588626" data-name="Trazado 588626" d="M0,0H1030V44H0Z" transform="translate(285 8128)" fill="#f3f9ff"/>
    <path id="Trazado_588627" data-name="Trazado 588627" d="M8.8,0H7.485L2.475-7.67V0H1.155V-9.953H2.475L7.5-2.249v-7.7H8.8Zm1.8-3.767a4.369,4.369,0,0,1,.427-1.955,3.187,3.187,0,0,1,1.189-1.34,3.238,3.238,0,0,1,1.74-.472A3.119,3.119,0,0,1,16.4-6.487a4.024,4.024,0,0,1,.933,2.782v.089a4.407,4.407,0,0,1-.414,1.938A3.14,3.14,0,0,1,15.74-.342a3.275,3.275,0,0,1-1.767.479A3.111,3.111,0,0,1,11.536-.909,4,4,0,0,1,10.6-3.678Zm1.271.15a3.164,3.164,0,0,0,.571,1.976A1.827,1.827,0,0,0,13.973-.9,1.816,1.816,0,0,0,15.5-1.651a3.46,3.46,0,0,0,.567-2.116,3.159,3.159,0,0,0-.578-1.972,1.836,1.836,0,0,0-1.535-.755,1.816,1.816,0,0,0-1.511.745A3.434,3.434,0,0,0,11.874-3.616Zm8.764-5.571V-7.4h1.381v.978H20.638v4.593a1.027,1.027,0,0,0,.185.667.777.777,0,0,0,.629.222,3.062,3.062,0,0,0,.6-.082V0a3.688,3.688,0,0,1-.971.136A1.575,1.575,0,0,1,19.8-.376a2.2,2.2,0,0,1-.431-1.456V-6.419H18.026V-7.4h1.347V-9.187ZM28.062,0a2.657,2.657,0,0,1-.178-.779,2.822,2.822,0,0,1-2.105.916,2.611,2.611,0,0,1-1.794-.619,2,2,0,0,1-.7-1.569,2.091,2.091,0,0,1,.878-1.794,4.142,4.142,0,0,1,2.471-.639h1.23v-.581a1.42,1.42,0,0,0-.4-1.056A1.593,1.593,0,0,0,26.3-6.515a1.844,1.844,0,0,0-1.135.342,1.007,1.007,0,0,0-.458.827H23.434a1.745,1.745,0,0,1,.393-1.07,2.683,2.683,0,0,1,1.066-.817,3.588,3.588,0,0,1,1.48-.3,2.924,2.924,0,0,1,2,.639,2.306,2.306,0,0,1,.752,1.76v3.4a4.162,4.162,0,0,0,.26,1.62V0Zm-2.1-.964a2.223,2.223,0,0,0,1.128-.308,1.861,1.861,0,0,0,.772-.8V-3.589h-.991q-2.324,0-2.324,1.36a1.151,1.151,0,0,0,.4.93A1.524,1.524,0,0,0,25.963-.964Zm5.175.3a.792.792,0,0,1,.195-.547.742.742,0,0,1,.584-.219.765.765,0,0,1,.591.219.776.776,0,0,1,.2.547.734.734,0,0,1-.2.526.778.778,0,0,1-.591.212.755.755,0,0,1-.584-.212A.748.748,0,0,1,31.138-.663ZM41.392-4.437a6.172,6.172,0,0,1-2.458-1.193,2.279,2.279,0,0,1-.769-1.747,2.408,2.408,0,0,1,.94-1.945,3.736,3.736,0,0,1,2.444-.769,4.078,4.078,0,0,1,1.829.4A3.007,3.007,0,0,1,44.622-8.6a2.8,2.8,0,0,1,.441,1.524H43.743A1.82,1.82,0,0,0,43.169-8.5a2.335,2.335,0,0,0-1.62-.518,2.391,2.391,0,0,0-1.514.428A1.428,1.428,0,0,0,39.491-7.4a1.285,1.285,0,0,0,.516,1.031,5.062,5.062,0,0,0,1.757.77,8.151,8.151,0,0,1,1.941.77,2.946,2.946,0,0,1,1.039.981,2.5,2.5,0,0,1,.338,1.319A2.326,2.326,0,0,1,44.14-.591a4.022,4.022,0,0,1-2.522.728A4.678,4.678,0,0,1,39.7-.256a3.221,3.221,0,0,1-1.371-1.077,2.627,2.627,0,0,1-.482-1.552H39.17a1.714,1.714,0,0,0,.667,1.425,2.806,2.806,0,0,0,1.781.523A2.58,2.58,0,0,0,43.21-1.36a1.377,1.377,0,0,0,.554-1.155,1.351,1.351,0,0,0-.513-1.131A5.911,5.911,0,0,0,41.392-4.437Zm11-.164H48.077v3.527h5.011V0H46.765V-9.953H53.02V-8.88H48.077v3.206h4.313ZM62.371,0H61.052L56.041-7.67V0H54.722V-9.953h1.319l5.024,7.7v-7.7h1.306ZM70.2-2.6h-4.17L65.092,0H63.738l3.8-9.953h1.148L72.5,0H71.148ZM66.425-3.678h3.384l-1.7-4.655Zm10.63-.362a10.569,10.569,0,0,1,.414-2.967A8.618,8.618,0,0,1,78.7-9.591a5.249,5.249,0,0,1,1.7-1.641l.26.834A5.444,5.444,0,0,0,79.027-8.06a10.135,10.135,0,0,0-.7,3.521l-.007.581a10.188,10.188,0,0,0,.964,4.58A5.47,5.47,0,0,0,80.664,2.44l-.26.772a5.418,5.418,0,0,1-1.736-1.7A9.5,9.5,0,0,1,77.055-4.04ZM88.279,0H81.758V-.909L85.2-4.737a8.185,8.185,0,0,0,1.056-1.412,2.356,2.356,0,0,0,.291-1.125,1.786,1.786,0,0,0-.472-1.278,1.649,1.649,0,0,0-1.258-.5,1.953,1.953,0,0,0-1.466.537,2.05,2.05,0,0,0-.523,1.494H81.566a2.936,2.936,0,0,1,.885-2.222,3.282,3.282,0,0,1,2.369-.848,3.153,3.153,0,0,1,2.194.728,2.483,2.483,0,0,1,.807,1.938q0,1.47-1.873,3.5L83.282-1.032h5ZM95.86-4.245a5.784,5.784,0,0,1-.759,3.3A2.7,2.7,0,0,1,92.729.137,2.718,2.718,0,0,1,90.371-.919a5.49,5.49,0,0,1-.793-3.155V-5.763a5.655,5.655,0,0,1,.759-3.261,2.719,2.719,0,0,1,2.379-1.066,2.744,2.744,0,0,1,2.365,1.029,5.458,5.458,0,0,1,.779,3.175ZM94.6-5.975a4.634,4.634,0,0,0-.451-2.341,1.553,1.553,0,0,0-1.429-.735,1.532,1.532,0,0,0-1.415.731,4.525,4.525,0,0,0-.458,2.249v2.023a4.708,4.708,0,0,0,.468,2.382A1.55,1.55,0,0,0,92.729-.9a1.529,1.529,0,0,0,1.391-.725A4.538,4.538,0,0,0,94.6-3.9ZM104,0H97.48V-.909l3.445-3.828a8.185,8.185,0,0,0,1.056-1.412,2.356,2.356,0,0,0,.291-1.125,1.786,1.786,0,0,0-.472-1.278,1.649,1.649,0,0,0-1.258-.5,1.953,1.953,0,0,0-1.466.537,2.05,2.05,0,0,0-.523,1.494H97.289a2.936,2.936,0,0,1,.885-2.222,3.282,3.282,0,0,1,2.369-.848,3.153,3.153,0,0,1,2.194.728,2.483,2.483,0,0,1,.807,1.938q0,1.47-1.873,3.5L99-1.032h5Zm7.861,0h-6.521V-.909l3.445-3.828a8.185,8.185,0,0,0,1.056-1.412,2.356,2.356,0,0,0,.291-1.125,1.786,1.786,0,0,0-.472-1.278,1.649,1.649,0,0,0-1.258-.5,1.953,1.953,0,0,0-1.466.537,2.05,2.05,0,0,0-.523,1.494H105.15a2.936,2.936,0,0,1,.885-2.222,3.282,3.282,0,0,1,2.369-.848,3.153,3.153,0,0,1,2.194.728,2.483,2.483,0,0,1,.807,1.938q0,1.47-1.873,3.5l-2.666,2.892h5Zm4.389-3.972a10.574,10.574,0,0,1-.4,2.922,8.641,8.641,0,0,1-1.224,2.581A5.361,5.361,0,0,1,112.9,3.213l-.267-.772a5.5,5.5,0,0,0,1.692-2.505,10.839,10.839,0,0,0,.653-3.77v-.219a11.253,11.253,0,0,0-.3-2.669,9.009,9.009,0,0,0-.837-2.211,5.108,5.108,0,0,0-1.207-1.524l.267-.772a5.34,5.34,0,0,1,1.719,1.668,8.66,8.66,0,0,1,1.224,2.577A10.818,10.818,0,0,1,116.252-3.972Zm1.976,3.309a.792.792,0,0,1,.195-.547.742.742,0,0,1,.584-.219.765.765,0,0,1,.591.219.776.776,0,0,1,.2.547.734.734,0,0,1-.2.526.778.778,0,0,1-.591.212.755.755,0,0,1-.584-.212A.748.748,0,0,1,118.228-.663Z" transform="translate(1164 8156)" fill="#12263f"/>
    <path id="Trazado_588629" data-name="Trazado 588629" d="M.967,0V-12.8H5.089a6.064,6.064,0,0,1,3.05.769,5.406,5.406,0,0,1,2.114,2.171,6.554,6.554,0,0,1,.769,3.142v.589a6.592,6.592,0,0,1-.743,3.151A5.429,5.429,0,0,1,8.187-.8a5.93,5.93,0,0,1-3.01.8ZM4.052-10.415v8.042H5.124a2.4,2.4,0,0,0,2.039-.945,4.63,4.63,0,0,0,.712-2.808V-6.68a4.592,4.592,0,0,0-.712-2.795,2.442,2.442,0,0,0-2.074-.94ZM17.068.176a4.889,4.889,0,0,1-3.542-1.305,4.507,4.507,0,0,1-1.354-3.4v-.246a5.84,5.84,0,0,1,.541-2.575,3.955,3.955,0,0,1,1.578-1.727,4.763,4.763,0,0,1,2.461-.611,4.117,4.117,0,0,1,3.164,1.244,4.887,4.887,0,0,1,1.16,3.467v1.151H15.188a2.135,2.135,0,0,0,.694,1.257,2.066,2.066,0,0,0,1.389.457,2.662,2.662,0,0,0,2.2-.984l1.354,1.6A3.784,3.784,0,0,1,19.252-.277,5.3,5.3,0,0,1,17.068.176ZM16.734-7.4q-1.3,0-1.547,1.723h2.988v-.229a1.467,1.467,0,0,0-.36-1.1A1.434,1.434,0,0,0,16.734-7.4ZM27.246-2.672a.684.684,0,0,0-.4-.606,6.016,6.016,0,0,0-1.5-.475A6.853,6.853,0,0,1,23.52-4.4a3.062,3.062,0,0,1-1.1-.971,2.319,2.319,0,0,1-.378-1.31,2.628,2.628,0,0,1,1.081-2.158,4.453,4.453,0,0,1,2.83-.848,4.934,4.934,0,0,1,3.023.853A2.666,2.666,0,0,1,30.12-6.592H27.149q0-1.143-1.2-1.143a1.194,1.194,0,0,0-.782.259.8.8,0,0,0-.316.646.737.737,0,0,0,.387.642,3.654,3.654,0,0,0,1.235.4,10.671,10.671,0,0,1,1.49.378A2.706,2.706,0,0,1,30.1-2.76,2.491,2.491,0,0,1,28.947-.642a5.068,5.068,0,0,1-2.993.817,5.172,5.172,0,0,1-2.18-.439,3.645,3.645,0,0,1-1.494-1.2,2.707,2.707,0,0,1-.536-1.591h2.769a1.145,1.145,0,0,0,.439.962,1.808,1.808,0,0,0,1.081.3,1.422,1.422,0,0,0,.91-.246A.787.787,0,0,0,27.246-2.672Zm8.262.563a1.317,1.317,0,0,0,.967-.338,1.241,1.241,0,0,0,.334-.945h2.777A3.288,3.288,0,0,1,38.465-.826a4.168,4.168,0,0,1-2.887,1,4.22,4.22,0,0,1-3.27-1.3,5.125,5.125,0,0,1-1.2-3.6v-.123A5.792,5.792,0,0,1,31.645-7.4a3.872,3.872,0,0,1,1.534-1.7,4.573,4.573,0,0,1,2.373-.593A4.116,4.116,0,0,1,38.5-8.657a3.647,3.647,0,0,1,1.09,2.786H36.809A1.626,1.626,0,0,0,36.448-7a1.244,1.244,0,0,0-.967-.4q-1.151,0-1.345,1.468a10.357,10.357,0,0,0-.062,1.283,4.068,4.068,0,0,0,.343,1.986A1.187,1.187,0,0,0,35.508-2.109Zm11.083-4.72-.976-.07a1.752,1.752,0,0,0-1.793.879V0H40.86V-9.51h2.777l.1,1.222a2.294,2.294,0,0,1,2.083-1.4,2.888,2.888,0,0,1,.826.105ZM50.783,0H47.813V-9.51h2.971ZM47.637-11.962A1.322,1.322,0,0,1,48.094-13a1.724,1.724,0,0,1,1.187-.4,1.724,1.724,0,0,1,1.187.4,1.322,1.322,0,0,1,.457,1.037,1.322,1.322,0,0,1-.457,1.037,1.724,1.724,0,0,1-1.187.4,1.724,1.724,0,0,1-1.187-.4A1.322,1.322,0,0,1,47.637-11.962Zm13.8,7.277a5.735,5.735,0,0,1-1,3.538A3.2,3.2,0,0,1,57.744.176a2.742,2.742,0,0,1-2.153-.958V3.656H52.629V-9.51H55.4l.088.879a2.742,2.742,0,0,1,2.241-1.055,3.224,3.224,0,0,1,2.733,1.3,5.805,5.805,0,0,1,.976,3.564Zm-2.962-.185Q58.474-7.4,57-7.4a1.394,1.394,0,0,0-1.406.756V-2.9a1.439,1.439,0,0,0,1.424.791q1.415,0,1.459-2.443Zm8.288,2.76a1.317,1.317,0,0,0,.967-.338,1.241,1.241,0,0,0,.334-.945H70.84A3.288,3.288,0,0,1,69.719-.826a4.168,4.168,0,0,1-2.887,1,4.22,4.22,0,0,1-3.27-1.3,5.125,5.125,0,0,1-1.2-3.6v-.123A5.792,5.792,0,0,1,62.9-7.4a3.872,3.872,0,0,1,1.534-1.7,4.573,4.573,0,0,1,2.373-.593A4.116,4.116,0,0,1,69.75-8.657a3.647,3.647,0,0,1,1.09,2.786H68.063A1.626,1.626,0,0,0,67.7-7a1.244,1.244,0,0,0-.967-.4q-1.151,0-1.345,1.468a10.357,10.357,0,0,0-.062,1.283,4.068,4.068,0,0,0,.343,1.986A1.187,1.187,0,0,0,66.762-2.109ZM75.217,0H72.246V-9.51h2.971ZM72.07-11.962A1.322,1.322,0,0,1,72.527-13a1.724,1.724,0,0,1,1.187-.4A1.724,1.724,0,0,1,74.9-13a1.322,1.322,0,0,1,.457,1.037,1.322,1.322,0,0,1-.457,1.037,1.724,1.724,0,0,1-1.187.4,1.724,1.724,0,0,1-1.187-.4A1.322,1.322,0,0,1,72.07-11.962Zm4.6,7.119a5.613,5.613,0,0,1,.554-2.536,3.96,3.96,0,0,1,1.591-1.709,4.791,4.791,0,0,1,2.435-.6,4.373,4.373,0,0,1,3.366,1.323,5.076,5.076,0,0,1,1.23,3.6v.105a4.925,4.925,0,0,1-1.235,3.529A4.384,4.384,0,0,1,81.264.176,4.434,4.434,0,0,1,78-1.042a4.761,4.761,0,0,1-1.327-3.3Zm2.962.185a3.538,3.538,0,0,0,.413,1.934,1.376,1.376,0,0,0,1.222.615q1.582,0,1.617-2.435v-.3q0-2.558-1.635-2.558-1.485,0-1.608,2.206ZM81.65-13.5h3.129l-2.443,2.76-2.417,0Zm8.218,3.99.1,1.116a3.225,3.225,0,0,1,2.716-1.292A2.713,2.713,0,0,1,94.9-8.8a4.226,4.226,0,0,1,.76,2.672V0H92.689V-6a1.6,1.6,0,0,0-.29-1.059A1.342,1.342,0,0,0,91.345-7.4a1.413,1.413,0,0,0-1.292.686V0H87.091V-9.51Zm11.566,4.685a6.421,6.421,0,0,1,.475-2.549,3.821,3.821,0,0,1,1.362-1.709,3.591,3.591,0,0,1,2.065-.6,2.855,2.855,0,0,1,2.32,1l.105-.826h2.689V-.36a4.009,4.009,0,0,1-.584,2.184,3.75,3.75,0,0,1-1.692,1.424,6.219,6.219,0,0,1-2.566.5,5.365,5.365,0,0,1-2.026-.4,3.657,3.657,0,0,1-1.5-1.028L103.324.58a2.716,2.716,0,0,0,2.18.976,1.764,1.764,0,0,0,1.969-2.021v-.3a2.781,2.781,0,0,1-2.153.94,3.437,3.437,0,0,1-2.812-1.332,5.517,5.517,0,0,1-1.072-3.564Zm2.971.185a3.383,3.383,0,0,0,.439,1.85,1.386,1.386,0,0,0,1.23.681,1.573,1.573,0,0,0,1.4-.642v-4a1.534,1.534,0,0,0-1.38-.65,1.4,1.4,0,0,0-1.239.708A3.858,3.858,0,0,0,104.405-4.641ZM116.736.176a4.889,4.889,0,0,1-3.542-1.305,4.507,4.507,0,0,1-1.354-3.4v-.246a5.84,5.84,0,0,1,.541-2.575,3.955,3.955,0,0,1,1.578-1.727,4.763,4.763,0,0,1,2.461-.611,4.117,4.117,0,0,1,3.164,1.244,4.887,4.887,0,0,1,1.16,3.467v1.151h-5.889a2.135,2.135,0,0,0,.694,1.257,2.066,2.066,0,0,0,1.389.457,2.662,2.662,0,0,0,2.2-.984l1.354,1.6A3.784,3.784,0,0,1,118.92-.277,5.3,5.3,0,0,1,116.736.176ZM116.4-7.4q-1.3,0-1.547,1.723h2.988v-.229a1.467,1.467,0,0,0-.36-1.1A1.434,1.434,0,0,0,116.4-7.4Zm8.253-2.109.1,1.116a3.225,3.225,0,0,1,2.716-1.292,2.713,2.713,0,0,1,2.219.888,4.226,4.226,0,0,1,.76,2.672V0h-2.971V-6a1.6,1.6,0,0,0-.29-1.059,1.342,1.342,0,0,0-1.055-.338,1.413,1.413,0,0,0-1.292.686V0h-2.962V-9.51ZM136.688.176a4.889,4.889,0,0,1-3.542-1.305,4.507,4.507,0,0,1-1.354-3.4v-.246a5.84,5.84,0,0,1,.541-2.575,3.955,3.955,0,0,1,1.578-1.727,4.763,4.763,0,0,1,2.461-.611,4.117,4.117,0,0,1,3.164,1.244,4.887,4.887,0,0,1,1.16,3.467v1.151h-5.889a2.135,2.135,0,0,0,.694,1.257,2.066,2.066,0,0,0,1.389.457,2.662,2.662,0,0,0,2.2-.984l1.354,1.6a3.784,3.784,0,0,1-1.569,1.217A5.3,5.3,0,0,1,136.688.176ZM136.354-7.4q-1.3,0-1.547,1.723h2.988v-.229a1.467,1.467,0,0,0-.36-1.1A1.434,1.434,0,0,0,136.354-7.4Zm11.285.571-.976-.07a1.752,1.752,0,0,0-1.793.879V0h-2.962V-9.51h2.777l.1,1.222a2.294,2.294,0,0,1,2.083-1.4,2.888,2.888,0,0,1,.826.105ZM153.8,0a3.344,3.344,0,0,1-.281-.853A2.754,2.754,0,0,1,151.233.176a3.374,3.374,0,0,1-2.285-.813,2.588,2.588,0,0,1-.94-2.043,2.66,2.66,0,0,1,1.143-2.338,5.821,5.821,0,0,1,3.322-.791h.914v-.5q0-1.316-1.134-1.316A.927.927,0,0,0,151.2-6.587h-2.962a2.655,2.655,0,0,1,1.173-2.239,4.931,4.931,0,0,1,2.993-.86,4.323,4.323,0,0,1,2.874.888,3.086,3.086,0,0,1,1.081,2.435v4.21a4.311,4.311,0,0,0,.4,2V0Zm-1.854-1.934a1.652,1.652,0,0,0,.918-.237,1.487,1.487,0,0,0,.523-.536V-4.228h-.861q-1.547,0-1.547,1.389a.848.848,0,0,0,.272.655A.986.986,0,0,0,151.945-1.934ZM161.121,0H158.15V-13.5h2.971Zm5.933-4.825a5.809,5.809,0,0,1,.976-3.56,3.211,3.211,0,0,1,2.725-1.3,2.731,2.731,0,0,1,2.145,1V-13.5h2.971V0h-2.663l-.149-1.02a2.8,2.8,0,0,1-2.32,1.2,3.205,3.205,0,0,1-2.689-1.3A5.993,5.993,0,0,1,167.054-4.825Zm2.962.185q0,2.531,1.477,2.531a1.458,1.458,0,0,0,1.406-.826V-6.557A1.419,1.419,0,0,0,171.51-7.4q-1.371,0-1.485,2.215ZM182.153.176a4.889,4.889,0,0,1-3.542-1.305,4.507,4.507,0,0,1-1.354-3.4v-.246a5.84,5.84,0,0,1,.541-2.575,3.955,3.955,0,0,1,1.578-1.727,4.763,4.763,0,0,1,2.461-.611A4.117,4.117,0,0,1,185-8.442a4.887,4.887,0,0,1,1.16,3.467v1.151h-5.889a2.135,2.135,0,0,0,.694,1.257,2.066,2.066,0,0,0,1.389.457,2.662,2.662,0,0,0,2.2-.984l1.354,1.6a3.784,3.784,0,0,1-1.569,1.217A5.3,5.3,0,0,1,182.153.176ZM181.819-7.4q-1.3,0-1.547,1.723h2.988v-.229a1.467,1.467,0,0,0-.36-1.1A1.434,1.434,0,0,0,181.819-7.4ZM190.477,0h-2.971V-13.5h2.971ZM200.8-2.109a1.317,1.317,0,0,0,.967-.338,1.241,1.241,0,0,0,.334-.945h2.777a3.288,3.288,0,0,1-1.121,2.566,4.168,4.168,0,0,1-2.887,1,4.22,4.22,0,0,1-3.27-1.3,5.125,5.125,0,0,1-1.2-3.6v-.123a5.792,5.792,0,0,1,.532-2.544,3.872,3.872,0,0,1,1.534-1.7,4.573,4.573,0,0,1,2.373-.593,4.116,4.116,0,0,1,2.944,1.028,3.647,3.647,0,0,1,1.09,2.786H202.1A1.626,1.626,0,0,0,201.744-7a1.244,1.244,0,0,0-.967-.4q-1.151,0-1.345,1.468a10.357,10.357,0,0,0-.062,1.283,4.068,4.068,0,0,0,.343,1.986A1.187,1.187,0,0,0,200.8-2.109Zm4.957-2.733a5.613,5.613,0,0,1,.554-2.536,3.96,3.96,0,0,1,1.591-1.709,4.791,4.791,0,0,1,2.435-.6,4.373,4.373,0,0,1,3.366,1.323,5.076,5.076,0,0,1,1.23,3.6v.105A4.925,4.925,0,0,1,213.7-1.129,4.384,4.384,0,0,1,210.357.176,4.434,4.434,0,0,1,207.1-1.042a4.761,4.761,0,0,1-1.327-3.3Zm2.962.185a3.538,3.538,0,0,0,.413,1.934,1.376,1.376,0,0,0,1.222.615q1.582,0,1.617-2.435v-.3q0-2.558-1.635-2.558-1.485,0-1.608,2.206ZM219.428-9.51V.325a3.452,3.452,0,0,1-.967,2.6,3.714,3.714,0,0,1-2.672.914,6.308,6.308,0,0,1-1.4-.149V1.45a5.667,5.667,0,0,0,.835.079,1.084,1.084,0,0,0,1.23-1.222V-9.51Zm-3.19-2.452A1.322,1.322,0,0,1,216.694-13a1.724,1.724,0,0,1,1.187-.4,1.724,1.724,0,0,1,1.187.4,1.322,1.322,0,0,1,.457,1.037,1.322,1.322,0,0,1-.457,1.037,1.724,1.724,0,0,1-1.187.4,1.724,1.724,0,0,1-1.187-.4A1.322,1.322,0,0,1,216.237-11.962ZM226.767-1.028a3.054,3.054,0,0,1-2.54,1.2,3,3,0,0,1-2.369-.91,3.826,3.826,0,0,1-.8-2.615V-9.51h2.962v6.179A1.065,1.065,0,0,0,225.2-2.109a1.548,1.548,0,0,0,1.45-.729V-9.51h2.979V0h-2.777Zm7.207-8.481.1,1.116a3.225,3.225,0,0,1,2.716-1.292,2.713,2.713,0,0,1,2.219.888,4.226,4.226,0,0,1,.76,2.672V0h-2.971V-6a1.6,1.6,0,0,0-.29-1.059A1.342,1.342,0,0,0,235.45-7.4a1.413,1.413,0,0,0-1.292.686V0H231.2V-9.51Zm10.881-2.364V-9.51h1.564v2.057h-1.564V-3.1a1.111,1.111,0,0,0,.193.747,1.037,1.037,0,0,0,.765.211,4.345,4.345,0,0,0,.738-.053V-.079a5.466,5.466,0,0,1-1.67.255,3.1,3.1,0,0,1-2.259-.721,2.954,2.954,0,0,1-.729-2.188v-4.72H240.68V-9.51h1.213v-2.364Zm2.092,7.031a5.613,5.613,0,0,1,.554-2.536,3.96,3.96,0,0,1,1.591-1.709,4.791,4.791,0,0,1,2.435-.6,4.373,4.373,0,0,1,3.366,1.323,5.076,5.076,0,0,1,1.23,3.6v.105a4.925,4.925,0,0,1-1.235,3.529A4.384,4.384,0,0,1,251.543.176a4.434,4.434,0,0,1-3.261-1.217,4.761,4.761,0,0,1-1.327-3.3Zm2.962.185a3.538,3.538,0,0,0,.413,1.934,1.376,1.376,0,0,0,1.222.615q1.582,0,1.617-2.435v-.3q0-2.558-1.635-2.558-1.485,0-1.608,2.206Zm11.628-.167a5.809,5.809,0,0,1,.976-3.56,3.211,3.211,0,0,1,2.725-1.3,2.731,2.731,0,0,1,2.145,1V-13.5h2.971V0h-2.663l-.149-1.02a2.8,2.8,0,0,1-2.32,1.2,3.205,3.205,0,0,1-2.689-1.3A5.993,5.993,0,0,1,261.536-4.825Zm2.962.185q0,2.531,1.477,2.531a1.458,1.458,0,0,0,1.406-.826V-6.557a1.419,1.419,0,0,0-1.389-.844q-1.371,0-1.485,2.215ZM276.636.176a4.889,4.889,0,0,1-3.542-1.305,4.507,4.507,0,0,1-1.354-3.4v-.246a5.84,5.84,0,0,1,.541-2.575,3.955,3.955,0,0,1,1.578-1.727,4.763,4.763,0,0,1,2.461-.611,4.117,4.117,0,0,1,3.164,1.244,4.887,4.887,0,0,1,1.16,3.467v1.151h-5.889a2.135,2.135,0,0,0,.694,1.257,2.066,2.066,0,0,0,1.389.457,2.662,2.662,0,0,0,2.2-.984l1.354,1.6A3.784,3.784,0,0,1,278.82-.277,5.3,5.3,0,0,1,276.636.176ZM276.3-7.4q-1.3,0-1.547,1.723h2.988v-.229a1.467,1.467,0,0,0-.36-1.1A1.434,1.434,0,0,0,276.3-7.4ZM294.39-5.432h-4.852v3.059h5.73V0h-8.815V-12.8h8.833v2.382h-5.748v2.7h4.852Zm6.979,2.76a.684.684,0,0,0-.4-.606,6.016,6.016,0,0,0-1.5-.475,6.853,6.853,0,0,1-1.828-.646,3.062,3.062,0,0,1-1.1-.971,2.319,2.319,0,0,1-.378-1.31,2.628,2.628,0,0,1,1.081-2.158,4.453,4.453,0,0,1,2.83-.848,4.934,4.934,0,0,1,3.023.853,2.666,2.666,0,0,1,1.143,2.241h-2.971q0-1.143-1.2-1.143a1.194,1.194,0,0,0-.782.259.8.8,0,0,0-.316.646.737.737,0,0,0,.387.642,3.654,3.654,0,0,0,1.235.4,10.671,10.671,0,0,1,1.49.378,2.706,2.706,0,0,1,2.145,2.646,2.491,2.491,0,0,1-1.156,2.118,5.068,5.068,0,0,1-2.993.817,5.172,5.172,0,0,1-2.18-.439,3.645,3.645,0,0,1-1.494-1.2,2.707,2.707,0,0,1-.536-1.591h2.769a1.145,1.145,0,0,0,.439.962,1.808,1.808,0,0,0,1.081.3,1.422,1.422,0,0,0,.91-.246A.787.787,0,0,0,301.368-2.672Zm7.69-9.2V-9.51h1.564v2.057h-1.564V-3.1a1.111,1.111,0,0,0,.193.747,1.037,1.037,0,0,0,.765.211,4.345,4.345,0,0,0,.738-.053V-.079a5.466,5.466,0,0,1-1.67.255,3.1,3.1,0,0,1-2.259-.721,2.954,2.954,0,0,1-.729-2.188v-4.72h-1.213V-9.51H306.1v-2.364ZM317.145,0a3.344,3.344,0,0,1-.281-.853A2.754,2.754,0,0,1,314.578.176a3.374,3.374,0,0,1-2.285-.813,2.588,2.588,0,0,1-.94-2.043A2.66,2.66,0,0,1,312.5-5.019a5.821,5.821,0,0,1,3.322-.791h.914v-.5q0-1.316-1.134-1.316a.927.927,0,0,0-1.055,1.042h-2.962a2.655,2.655,0,0,1,1.173-2.239,4.931,4.931,0,0,1,2.993-.86,4.323,4.323,0,0,1,2.874.888A3.086,3.086,0,0,1,319.7-6.363v4.21a4.311,4.311,0,0,0,.4,2V0ZM315.29-1.934a1.652,1.652,0,0,0,.918-.237,1.487,1.487,0,0,0,.523-.536V-4.228h-.861q-1.547,0-1.547,1.389a.848.848,0,0,0,.272.655A.986.986,0,0,0,315.29-1.934Zm8.771-7.576.1,1.116a3.225,3.225,0,0,1,2.716-1.292,2.713,2.713,0,0,1,2.219.888,4.226,4.226,0,0,1,.76,2.672V0h-2.971V-6a1.6,1.6,0,0,0-.29-1.059,1.342,1.342,0,0,0-1.055-.338,1.413,1.413,0,0,0-1.292.686V0h-2.962V-9.51Zm7.058,4.685a5.809,5.809,0,0,1,.976-3.56,3.211,3.211,0,0,1,2.725-1.3,2.731,2.731,0,0,1,2.145,1V-13.5h2.971V0h-2.663l-.149-1.02a2.8,2.8,0,0,1-2.32,1.2,3.205,3.205,0,0,1-2.689-1.3A5.993,5.993,0,0,1,331.119-4.825Zm2.962.185q0,2.531,1.477,2.531a1.458,1.458,0,0,0,1.406-.826V-6.557a1.419,1.419,0,0,0-1.389-.844q-1.371,0-1.485,2.215ZM346.975,0a3.344,3.344,0,0,1-.281-.853A2.754,2.754,0,0,1,344.408.176a3.374,3.374,0,0,1-2.285-.813,2.588,2.588,0,0,1-.94-2.043,2.66,2.66,0,0,1,1.143-2.338,5.821,5.821,0,0,1,3.322-.791h.914v-.5q0-1.316-1.134-1.316a.927.927,0,0,0-1.055,1.042h-2.962a2.655,2.655,0,0,1,1.173-2.239,4.931,4.931,0,0,1,2.993-.86,4.323,4.323,0,0,1,2.874.888,3.086,3.086,0,0,1,1.081,2.435v4.21a4.311,4.311,0,0,0,.4,2V0ZM345.12-1.934a1.652,1.652,0,0,0,.918-.237,1.487,1.487,0,0,0,.523-.536V-4.228H345.7q-1.547,0-1.547,1.389a.848.848,0,0,0,.272.655A.986.986,0,0,0,345.12-1.934Zm11.8-4.9-.976-.07a1.752,1.752,0,0,0-1.793.879V0h-2.962V-9.51h2.777l.1,1.222a2.294,2.294,0,0,1,2.083-1.4,2.888,2.888,0,0,1,.826.105Zm5.669,7a4.889,4.889,0,0,1-3.542-1.305,4.507,4.507,0,0,1-1.354-3.4v-.246a5.84,5.84,0,0,1,.541-2.575,3.955,3.955,0,0,1,1.578-1.727,4.763,4.763,0,0,1,2.461-.611,4.117,4.117,0,0,1,3.164,1.244,4.887,4.887,0,0,1,1.16,3.467v1.151h-5.889a2.135,2.135,0,0,0,.694,1.257,2.066,2.066,0,0,0,1.389.457,2.662,2.662,0,0,0,2.2-.984l1.354,1.6a3.784,3.784,0,0,1-1.569,1.217A5.3,5.3,0,0,1,362.593.176ZM362.259-7.4q-1.3,0-1.547,1.723H363.7v-.229a1.467,1.467,0,0,0-.36-1.1A1.434,1.434,0,0,0,362.259-7.4Zm10.512,4.729a.684.684,0,0,0-.4-.606,6.016,6.016,0,0,0-1.5-.475,6.853,6.853,0,0,1-1.828-.646,3.062,3.062,0,0,1-1.1-.971,2.319,2.319,0,0,1-.378-1.31,2.628,2.628,0,0,1,1.081-2.158,4.453,4.453,0,0,1,2.83-.848,4.934,4.934,0,0,1,3.023.853,2.666,2.666,0,0,1,1.143,2.241h-2.971q0-1.143-1.2-1.143a1.194,1.194,0,0,0-.782.259.8.8,0,0,0-.316.646.737.737,0,0,0,.387.642,3.654,3.654,0,0,0,1.235.4,10.671,10.671,0,0,1,1.49.378,2.706,2.706,0,0,1,2.145,2.646,2.491,2.491,0,0,1-1.156,2.118,5.068,5.068,0,0,1-2.993.817,5.172,5.172,0,0,1-2.18-.439,3.645,3.645,0,0,1-1.494-1.2,2.707,2.707,0,0,1-.536-1.591h2.769a1.145,1.145,0,0,0,.439.962,1.808,1.808,0,0,0,1.081.3,1.422,1.422,0,0,0,.91-.246A.787.787,0,0,0,372.771-2.672Zm19.336,1.09a4.96,4.96,0,0,1-2.083,1.274,8.984,8.984,0,0,1-3.006.483A5.36,5.36,0,0,1,383-1.362a6.226,6.226,0,0,1-1.608-4.28l-.009-1.107a7.637,7.637,0,0,1,.668-3.3,4.96,4.96,0,0,1,1.912-2.171,5.407,5.407,0,0,1,2.878-.76,5.669,5.669,0,0,1,3.713,1.094A4.637,4.637,0,0,1,392.1-8.622h-2.971a2.426,2.426,0,0,0-.686-1.529,2.212,2.212,0,0,0-1.494-.457,2.013,2.013,0,0,0-1.793.984,5.256,5.256,0,0,0-.642,2.813v.773a5.145,5.145,0,0,0,.655,2.878,2.316,2.316,0,0,0,2.061.962,2.592,2.592,0,0,0,1.793-.536V-4.72h-2.145V-6.838h5.229Zm6.548-2.944h-1.67V0H393.9V-12.8h5.036a5.621,5.621,0,0,1,3.56,1.01,3.421,3.421,0,0,1,1.283,2.853,4.155,4.155,0,0,1-.541,2.213A3.837,3.837,0,0,1,401.546-5.3l2.672,5.167V0h-3.3ZM396.984-6.9h1.951a1.751,1.751,0,0,0,1.323-.463,1.788,1.788,0,0,0,.444-1.291,1.809,1.809,0,0,0-.448-1.3,1.735,1.735,0,0,0-1.318-.471h-1.951ZM408.929,0h-3.076V-12.8h3.076Z" transform="translate(595 7643)" fill="#12263f"/>
    <g id="Grupo_850169" data-name="Grupo 850169">
      <text id="Estándares_Universales." data-name="Estándares Universales." transform="translate(390 7746)" fill="#12263f" font-size="16" font-family="Roboto-Italic, Roboto" font-style="italic"><tspan x="0" y="17">Estándares </tspan><tspan x="0" y="41">Universales.</tspan></text>
      <text id="Estándares_temáticos." data-name="Estándares temáticos." transform="translate(390 7972)" fill="#12263f" font-size="16" font-family="Roboto-Italic, Roboto" font-style="italic"><tspan x="0" y="17">Estándares </tspan><tspan x="0" y="41">temáticos.</tspan></text>
      <text id="Punto_de_partida_de_uso_de_los_Estándares_GRI." data-name="Punto de partida de uso de los Estándares GRI." transform="translate(600 7693)" fill="#12263f" font-size="16" font-family="Roboto-Italic, Roboto" font-style="italic"><tspan x="0" y="17">Punto de partida de uso de </tspan><tspan x="0" y="41">los Estándares GRI.</tspan></text>
      <text id="Para_aportar_información_contextual_sobre_una_organización." data-name="Para aportar información contextual sobre una organización." transform="translate(600 7808)" fill="#12263f" font-size="16" font-family="Roboto-Italic, Roboto" font-style="italic"><tspan x="0" y="17">Para aportar información </tspan><tspan x="0" y="41">contextual sobre una </tspan><tspan x="0" y="65">organización.</tspan></text>
      <text id="Seleccione_de_entre_estos_para_aportar_contenidos_específicos_sobre_cada_tema_material." data-name="Seleccione de entre estos para aportar contenidos específicos sobre cada tema material." transform="translate(770 7989)" fill="#12263f" font-size="16" font-family="Roboto-Italic, Roboto" font-style="italic"><tspan x="0" y="17">Seleccione de entre estos para aportar contenidos específicos </tspan><tspan x="0" y="41">sobre cada tema material.</tspan></text>
      <text id="Para_informar_del_enfique_de_gestión_de_cada_tema_material." data-name="Para informar del enfique de gestión de cada tema material." transform="translate(915 7808)" fill="#12263f" font-size="16" font-family="Roboto-Italic, Roboto" font-style="italic"><tspan x="0" y="17">Para informar del enfique de gestión de </tspan><tspan x="0" y="41">cada tema material.</tspan></text>
      <g id="Enmascarar_grupo_79" data-name="Enmascarar grupo 79" clip-path="url(#clip-path)">
        <g id="Rectángulo_39255" data-name="Rectángulo 39255" transform="translate(513 7684)" fill="#fff" stroke="#707070" stroke-width="1">
          <rect width="67" height="78" stroke="none"/>
          <rect x="0.5" y="0.5" width="66" height="77" fill="none"/>
        </g>
        <ellipse id="Elipse_4781" data-name="Elipse 4781" cx="47" cy="40" rx="47" ry="40" transform="translate(495 7711)" fill="#12263f"/>
      </g>
      <g id="Enmascarar_grupo_80" data-name="Enmascarar grupo 80" transform="translate(0 122)" clip-path="url(#clip-path)">
        <g id="Rectángulo_39257" data-name="Rectángulo 39257" transform="translate(513 7684)" fill="#fff" stroke="#707070" stroke-width="1">
          <rect width="67" height="78" stroke="none"/>
          <rect x="0.5" y="0.5" width="66" height="77" fill="none"/>
        </g>
        <ellipse id="Elipse_4782" data-name="Elipse 4782" cx="47" cy="40" rx="47" ry="40" transform="translate(495 7711)" fill="#093c71"/>
      </g>
      <g id="Enmascarar_grupo_81" data-name="Enmascarar grupo 81" transform="translate(315 122)" clip-path="url(#clip-path)">
        <g id="Rectángulo_39259" data-name="Rectángulo 39259" transform="translate(513 7684)" fill="#fff" stroke="#707070" stroke-width="1">
          <rect width="67" height="78" stroke="none"/>
          <rect x="0.5" y="0.5" width="66" height="77" fill="none"/>
        </g>
        <ellipse id="Elipse_4783" data-name="Elipse 4783" cx="47" cy="40" rx="47" ry="40" transform="translate(495 7711)" fill="#014a97"/>
      </g>
      <g id="Enmascarar_grupo_82" data-name="Enmascarar grupo 82" transform="translate(171 288)" clip-path="url(#clip-path)">
        <g id="Rectángulo_39261" data-name="Rectángulo 39261" transform="translate(513 7684)" fill="#fff" stroke="#707070" stroke-width="1">
          <rect width="67" height="78" stroke="none"/>
          <rect x="0.5" y="0.5" width="66" height="77" fill="none"/>
        </g>
        <path id="Trazado_586789" data-name="Trazado 586789" d="M47,0C72.957,0,94,17.909,94,40S72.957,80,47,80,0,62.091,0,40,21.043,0,47,0Z" transform="translate(495 7711)" fill="#ff6b01"/>
      </g>
      <g id="Enmascarar_grupo_83" data-name="Enmascarar grupo 83" transform="translate(86 288)" clip-path="url(#clip-path)">
        <g id="Rectángulo_39263" data-name="Rectángulo 39263" transform="translate(513 7684)" fill="#fff" stroke="#707070" stroke-width="1">
          <rect width="67" height="78" stroke="none"/>
          <rect x="0.5" y="0.5" width="66" height="77" fill="none"/>
        </g>
        <path id="Trazado_586788" data-name="Trazado 586788" d="M47,0C72.957,0,94,17.909,94,40S72.957,80,47,80,0,62.091,0,40,21.043,0,47,0Z" transform="translate(495 7711)" fill="#00956b"/>
      </g>
      <g id="Enmascarar_grupo_84" data-name="Enmascarar grupo 84" transform="translate(0 288)" clip-path="url(#clip-path)">
        <g id="Rectángulo_39265" data-name="Rectángulo 39265" transform="translate(513 7684)" fill="#fff" stroke="#707070" stroke-width="1">
          <rect width="67" height="78" stroke="none"/>
          <rect x="0.5" y="0.5" width="66" height="77" fill="none"/>
        </g>
        <ellipse id="Elipse_4786" data-name="Elipse 4786" cx="47" cy="40" rx="47" ry="40" transform="translate(495 7711)" fill="#722082"/>
      </g>
      <text id="GRI" transform="translate(522 7736)" fill="#fff" font-size="16" font-family="Roboto-Italic, Roboto" font-style="italic"><tspan x="0" y="0">GRI</tspan></text>
      <text id="GRI-2" data-name="GRI" transform="translate(522 7858)" fill="#fff" font-size="17" font-family="Roboto-Italic, Roboto" font-style="italic"><tspan x="0" y="0">GRI</tspan></text>
      <text id="GRI-3" data-name="GRI" transform="translate(837 7858)" fill="#fff" font-size="17" font-family="Roboto-Italic, Roboto" font-style="italic"><tspan x="0" y="0">GRI</tspan></text>
      <text id="GRI-4" data-name="GRI" transform="translate(693 8024)" fill="#fff" font-size="17" font-family="Roboto-Italic, Roboto" font-style="italic"><tspan x="0" y="0">GRI</tspan></text>
      <text id="GRI-5" data-name="GRI" transform="translate(608 8024)" fill="#fff" font-size="17" font-family="Roboto-Italic, Roboto" font-style="italic"><tspan x="0" y="0">GRI</tspan></text>
      <text id="GRI-6" data-name="GRI" transform="translate(522 8024)" fill="#fff" font-size="17" font-family="Roboto-Italic, Roboto" font-style="italic"><tspan x="0" y="0">GRI</tspan></text>
      <text id="_101" data-name="101" transform="translate(522 7753)" fill="#fff" font-size="16" font-family="Roboto-Italic, Roboto" font-style="italic"><tspan x="0" y="0">101</tspan></text>
      <text id="_102" data-name="102" transform="translate(522 7875)" fill="#fff" font-size="17" font-family="Roboto-Italic, Roboto" font-style="italic"><tspan x="0" y="0">102</tspan></text>
      <text id="_103" data-name="103" transform="translate(837 7875)" fill="#fff" font-size="17" font-family="Roboto-Italic, Roboto" font-style="italic"><tspan x="0" y="0">103</tspan></text>
      <text id="_400" data-name="400" transform="translate(693 8041)" fill="#fff" font-size="17" font-family="Roboto-Italic, Roboto" font-style="italic"><tspan x="0" y="0">400</tspan></text>
      <text id="_300" data-name="300" transform="translate(608 8041)" fill="#fff" font-size="17" font-family="Roboto-Italic, Roboto" font-style="italic"><tspan x="0" y="0">300</tspan></text>
      <text id="_200" data-name="200" transform="translate(522 8041)" fill="#fff" font-size="17" font-family="Roboto-Italic, Roboto" font-style="italic"><tspan x="0" y="0">200</tspan></text>
      <text id="Fundamentos" transform="translate(517 7696)" fill="#12263f" font-size="7" font-family="Roboto-Italic, Roboto" font-style="italic"><tspan x="0" y="0">Fundamentos</tspan></text>
      <text id="Contenidos_Generales" data-name="Contenidos 
Generales" transform="translate(517 7818)" fill="#12263f" font-size="8" font-family="Roboto-Italic, Roboto" font-style="italic"><tspan x="0" y="0">Contenidos </tspan><tspan x="0" y="10">Generales</tspan></text>
      <text id="Enfoque_de_Gestión" data-name="Enfoque
de Gestión" transform="translate(832 7818)" fill="#12263f" font-size="8" font-family="Roboto-Italic, Roboto" font-style="italic"><tspan x="0" y="0">Enfoque</tspan><tspan x="0" y="10">de Gestión</tspan></text>
      <text id="Sociales" transform="translate(688 7984)" fill="#12263f" font-size="8" font-family="Roboto-Italic, Roboto" font-style="italic"><tspan x="0" y="0">Sociales</tspan></text>
      <text id="Ambientales" transform="translate(603 7984)" fill="#12263f" font-size="8" font-family="Roboto-Italic, Roboto" font-style="italic"><tspan x="0" y="0">Ambientales</tspan></text>
      <text id="Económicos" transform="translate(517 7984)" fill="#12263f" font-size="8" font-family="Roboto-Italic, Roboto" font-style="italic"><tspan x="0" y="0">Económicos</tspan></text>
      <path id="Trazado_586790" data-name="Trazado 586790" d="M-8006-3769.333h537.5l20.476,20,21.5-20H-7146" transform="translate(8376 11700)" fill="none" stroke="#12263f" stroke-width="2" stroke-dasharray="6"/>
      <path id="Trazado_586791" data-name="Trazado 586791" d="M-8006-3769.333h459.375l17.5,20,18.375-20H-7271" transform="translate(8501 11545.333)" fill="none" stroke="#12263f" stroke-width="2" stroke-dasharray="6"/>
      <path id="Trazado_586792" data-name="Trazado 586792" d="M-7881-3993.333h-61.667v34.667" transform="translate(8376 11700)" fill="none" stroke="#12263f" stroke-width="3" stroke-dasharray="6"/>
      <path id="Trazado_586793" data-name="Trazado 586793" d="M-7942.667-3894v51.333H-7881" transform="translate(8376 11700)" fill="none" stroke="#12263f" stroke-width="3" stroke-dasharray="6"/>
    </g>
  </g>
</svg>
