<svg xmlns="http://www.w3.org/2000/svg" xmlns:xlink="http://www.w3.org/1999/xlink" width="190" height="201" viewBox="0 0 190 201">
  <defs>
    <clipPath id="clip-path">
      <rect id="Rect치ngulo_39297" data-name="Rect치ngulo 39297" width="100.24" height="103.5" fill="none"/>
    </clipPath>
  </defs>
  <g id="Grupo_850457" data-name="Grupo 850457" transform="translate(-180 -4648)">
    <rect id="Rect치ngulo_39176" data-name="Rect치ngulo 39176" width="190" height="201" rx="20" transform="translate(180 4648)" fill="#9fbe37"/>
    <g id="Grupo_850226" data-name="Grupo 850226" transform="translate(225 4697)">
      <g id="Grupo_850225" data-name="Grupo 850225" transform="translate(0 0)" clip-path="url(#clip-path)">
        <path id="Trazado_586936" data-name="Trazado 586936" d="M89.571,103.5l1.063-1.063V84.093h8.632c.357-.357.642-.642.974-.976V42.971c-3.178-3.18-6.37-6.372-9.61-9.612V22.314L68.323,0H10.635c-.252.263-.577.6-.929.965V33.214L0,42.922V83.1l1.146,1.005H9.659v18.271c.419.455.738.8,1.032,1.121Z" transform="translate(0 0)"/>
        <path id="Trazado_586937" data-name="Trazado 586937" d="M1.479,55.927H95.164V20.551c-1.741-.3-86.379-.426-93.685-.127Z" transform="translate(1.817 24.885)" fill="#fed211"/>
        <path id="Trazado_586938" data-name="Trazado 586938" d="M59.145,1.437H5.837V40.2h4.7V29.986l1.112-1.061h62.7l.969,1.4v9.855h4.754V22.491H60.219l-1.074-1.074Z" transform="translate(7.172 1.766)" fill="#fefefe"/>
        <path id="Trazado_586939" data-name="Trazado 586939" d="M80.106,37.745H75.377v10.2c-.408.421-.738.758-1.059,1.088h-62.7l-1.052-1.1V37.747H5.835V53.691c1.752.31,66.361.439,74.271.134Z" transform="translate(7.169 46.377)" fill="#fefefe"/>
        <path id="Trazado_586940" data-name="Trazado 586940" d="M9.449,37.755v7.963H67.506c-.02.018.038-.02.074-.074a.331.331,0,0,0,.067-.174c0-2.552,0-5.1,0-7.716Z" transform="translate(11.61 46.389)" fill="#e6ebec"/>
        <path id="Trazado_586941" data-name="Trazado 586941" d="M67.641,23.2V15.248H9.515c-.172,2.579-.022,5.235-.089,7.956Z" transform="translate(11.582 18.735)" fill="#e6ebec"/>
        <path id="Trazado_586942" data-name="Trazado 586942" d="M31.237,2.517V17.839H46.374C45.458,16.484,34.582,5.468,31.237,2.517" transform="translate(38.38 3.093)" fill="#aeb5ba"/>
        <path id="Trazado_586943" data-name="Trazado 586943" d="M6.476,21.071V17.064L2.558,20.982c.025-.176.009-.089.013-.087a27.776,27.776,0,0,0,3.9.176" transform="translate(3.143 20.966)" fill="#7b8185"/>
        <path id="Trazado_586944" data-name="Trazado 586944" d="M40.667,16.966v4.1h4.07c-.662-.713-1.293-1.313-1.9-1.926-.655-.662-1.317-1.319-2.169-2.171" transform="translate(49.967 20.846)" fill="#7b8185"/>
        <path id="Trazado_586945" data-name="Trazado 586945" d="M26.694,36.166c2.1,1.333,2.229,1.565,2.229,4.1A3.6,3.6,0,0,1,26.229,42.6H21.466a3.463,3.463,0,0,1-2.322-3.154H16a5.623,5.623,0,0,0,1.391,4,6.411,6.411,0,0,0,5.663,2.436c.938-.06,1.885-.016,2.828-.009A6.548,6.548,0,0,0,32.186,39.6a6.984,6.984,0,0,0-4.945-6.561,3.492,3.492,0,0,0-1.163-.1c-1.547-.022-3.1-.009-4.411-.009a3.479,3.479,0,0,1-2.418-4.174,3.551,3.551,0,0,1,2.661-2.267h4.765a3.466,3.466,0,0,1,2.32,3.156h3.149a5.643,5.643,0,0,0-1.391-4,6.415,6.415,0,0,0-5.665-2.436c-.938.06-1.883.016-2.826.009a6.544,6.544,0,0,0-6.307,6.272A6.981,6.981,0,0,0,20.9,36.054a3.5,3.5,0,0,0,1.166.1c1.547.022,3.093.009,4.631.009" transform="translate(19.6 28.497)"/>
        <path id="Trazado_586946" data-name="Trazado 586946" d="M40.868,34.47c0-1.01-.013-2.017,0-3.027a8.625,8.625,0,0,0-1.453-4.651c-.874-1.471-2.454-1.972-3.555-3.089-1.531-.165-3.078-.916-4.582-.285-.577.243-1.206-.038-1.658.372-.713.649-1.765.943-2.325,1.609a9.661,9.661,0,0,0-2.244,3.691c-.664,2.505-.187,5.012-.354,7.511-.047.669.067,1.355-.029,2.015-.1.7.666,1.123.444,1.856-.2.642.637.776.791,1.275.582,1.885,2.255,2.795,3.764,3.546a7.146,7.146,0,0,0,4.716.477,13.165,13.165,0,0,0,3.831-1.948c.646-.381.958-1.315,1.442-1.986A6.387,6.387,0,0,0,40.871,37.9c-.013-1.143,0-2.287,0-3.43" transform="translate(30.3 28.468)"/>
        <path id="Trazado_586947" data-name="Trazado 586947" d="M13.092,45.843h3.1V23.3c-.949-.194-1.995.011-3.1-.111Z" transform="translate(16.086 28.491)"/>
        <path id="Trazado_586948" data-name="Trazado 586948" d="M35.447,6.74V3.629H8.032c-.107.965-.018,2.008-.056,3.111Z" transform="translate(9.8 4.459)"/>
        <path id="Trazado_586949" data-name="Trazado 586949" d="M22.507,9.643V6.534H8.032c-.107.963-.016,2.006-.056,3.109Z" transform="translate(9.8 8.028)"/>
        <path id="Trazado_586950" data-name="Trazado 586950" d="M8.051,12.607h3.122c.114-1.021.02-2.059.06-3.165H8.056a15.631,15.631,0,0,0,0,3.165" transform="translate(9.796 11.601)"/>
        <path id="Trazado_586951" data-name="Trazado 586951" d="M10.9,9.44v3.1h3.158c.1-.952.011-1.992.053-3.1Z" transform="translate(13.391 11.599)"/>
        <path id="Trazado_586952" data-name="Trazado 586952" d="M16.966,9.409H13.843c-.114,1.021-.02,2.059-.06,3.165h3.178a15.631,15.631,0,0,0,0-3.165" transform="translate(16.935 11.561)"/>
        <path id="Trazado_586953" data-name="Trazado 586953" d="M35.266,38.4c.871-1.914.6-3.778.586-5.607s.3-3.7-.455-5.463c-.742-.735-1.5-1.487-2.2-2.173a5.042,5.042,0,0,0-4.455.038l-2.215,2.275a32.151,32.151,0,0,0-.007,10.45c.856.854,1.609,1.609,2.536,2.534,3.548.6,3.548.6,6.207-2.055" transform="translate(32.067 30.3)" fill="#fed211"/>
      </g>
    </g>
  </g>
</svg>
