<svg xmlns="http://www.w3.org/2000/svg" xmlns:xlink="http://www.w3.org/1999/xlink" width="1030" height="582" viewBox="0 0 1030 582">
  <defs>
    <clipPath id="clip-path">
      <rect id="Rectángulo_39256" data-name="Rectángulo 39256" width="67" height="78" transform="translate(513 7684)" fill="#fff" stroke="#707070" stroke-width="1"/>
    </clipPath>
  </defs>
  <g id="Grupo_850459" data-name="Grupo 850459" transform="translate(-285 -7590)">
    <rect id="Rectángulo_39196" data-name="Rectángulo 39196" width="1030" height="524" rx="20" transform="translate(285 7590)" fill="#f3f9ff"/>
    <g id="Grupo_850458" data-name="Grupo 850458">
      <rect id="Rectángulo_39276" data-name="Rectángulo 39276" width="1030" height="44" transform="translate(285 8128)" fill="#f3f9ff"/>
      <text id="Nota._GRI_101:_Fundamentos." data-name="Nota. GRI 101: Fundamentos." transform="translate(1110 8156)" fill="#12263f" font-size="14" font-family="Roboto-Regular, Roboto"><tspan x="0" y="0">Nota. GRI 101: Fundamentos.</tspan></text>
    </g>
    <text id="Descripción_general_del_conjunto_de_Estandares_GRI" data-name="Descripción general del conjunto de Estandares GRI" transform="translate(595 7643)" fill="#12263f" font-size="18" font-family="Roboto-Black, Roboto" font-weight="800"><tspan x="0" y="0">Descripción general del conjunto de Estandares GRI</tspan></text>
    <g id="Grupo_850169" data-name="Grupo 850169">
      <text id="Estándares_Universales." data-name="Estándares Universales." transform="translate(390 7746)" fill="#12263f" font-size="16" font-family="Roboto-Italic, Roboto" font-style="italic"><tspan x="0" y="17">Estándares </tspan><tspan x="0" y="41">Universales.</tspan></text>
      <text id="Estándares_temáticos." data-name="Estándares temáticos." transform="translate(390 7972)" fill="#12263f" font-size="16" font-family="Roboto-Italic, Roboto" font-style="italic"><tspan x="0" y="17">Estándares </tspan><tspan x="0" y="41">temáticos.</tspan></text>
      <text id="Punto_de_partida_de_uso_de_los_Estándares_GRI." data-name="Punto de partida de uso de los Estándares GRI." transform="translate(600 7693)" fill="#12263f" font-size="16" font-family="Roboto-Italic, Roboto" font-style="italic"><tspan x="0" y="17">Punto de partida de uso de </tspan><tspan x="0" y="41">los Estándares GRI.</tspan></text>
      <text id="Para_aportar_información_contextual_sobre_una_organización." data-name="Para aportar información contextual sobre una organización." transform="translate(600 7808)" fill="#12263f" font-size="16" font-family="Roboto-Italic, Roboto" font-style="italic"><tspan x="0" y="17">Para aportar información </tspan><tspan x="0" y="41">contextual sobre una </tspan><tspan x="0" y="65">organización.</tspan></text>
      <text id="Seleccione_de_entre_estos_para_aportar_contenidos_específicos_sobre_cada_tema_material." data-name="Seleccione de entre estos para aportar contenidos específicos sobre cada tema material." transform="translate(770 7989)" fill="#12263f" font-size="16" font-family="Roboto-Italic, Roboto" font-style="italic"><tspan x="0" y="17">Seleccione de entre estos para aportar contenidos específicos </tspan><tspan x="0" y="41">sobre cada tema material.</tspan></text>
      <text id="Para_informar_del_enfoque_de_gestión_de_cada_tema_material." data-name="Para informar del enfoque de gestión de cada tema material." transform="translate(915 7808)" fill="#12263f" font-size="16" font-family="Roboto-Italic, Roboto" font-style="italic"><tspan x="0" y="17">Para informar del enfoque de gestión de </tspan><tspan x="0" y="41">cada tema material.</tspan></text>
      <g id="Enmascarar_grupo_79" data-name="Enmascarar grupo 79" clip-path="url(#clip-path)">
        <g id="Rectángulo_39255" data-name="Rectángulo 39255" transform="translate(513 7684)" fill="#fff" stroke="#707070" stroke-width="1">
          <rect width="67" height="78" stroke="none"/>
          <rect x="0.5" y="0.5" width="66" height="77" fill="none"/>
        </g>
        <ellipse id="Elipse_4781" data-name="Elipse 4781" cx="47" cy="40" rx="47" ry="40" transform="translate(495 7711)" fill="#12263f"/>
      </g>
      <g id="Enmascarar_grupo_80" data-name="Enmascarar grupo 80" transform="translate(0 122)" clip-path="url(#clip-path)">
        <g id="Rectángulo_39257" data-name="Rectángulo 39257" transform="translate(513 7684)" fill="#fff" stroke="#707070" stroke-width="1">
          <rect width="67" height="78" stroke="none"/>
          <rect x="0.5" y="0.5" width="66" height="77" fill="none"/>
        </g>
        <ellipse id="Elipse_4782" data-name="Elipse 4782" cx="47" cy="40" rx="47" ry="40" transform="translate(495 7711)" fill="#093c71"/>
      </g>
      <g id="Enmascarar_grupo_81" data-name="Enmascarar grupo 81" transform="translate(315 122)" clip-path="url(#clip-path)">
        <g id="Rectángulo_39259" data-name="Rectángulo 39259" transform="translate(513 7684)" fill="#fff" stroke="#707070" stroke-width="1">
          <rect width="67" height="78" stroke="none"/>
          <rect x="0.5" y="0.5" width="66" height="77" fill="none"/>
        </g>
        <ellipse id="Elipse_4783" data-name="Elipse 4783" cx="47" cy="40" rx="47" ry="40" transform="translate(495 7711)" fill="#014a97"/>
      </g>
      <g id="Enmascarar_grupo_82" data-name="Enmascarar grupo 82" transform="translate(171 288)" clip-path="url(#clip-path)">
        <g id="Rectángulo_39261" data-name="Rectángulo 39261" transform="translate(513 7684)" fill="#fff" stroke="#707070" stroke-width="1">
          <rect width="67" height="78" stroke="none"/>
          <rect x="0.5" y="0.5" width="66" height="77" fill="none"/>
        </g>
        <path id="Trazado_586789" data-name="Trazado 586789" d="M47,0C72.957,0,94,17.909,94,40S72.957,80,47,80,0,62.091,0,40,21.043,0,47,0Z" transform="translate(495 7711)" fill="#ff6b01"/>
      </g>
      <g id="Enmascarar_grupo_83" data-name="Enmascarar grupo 83" transform="translate(86 288)" clip-path="url(#clip-path)">
        <g id="Rectángulo_39263" data-name="Rectángulo 39263" transform="translate(513 7684)" fill="#fff" stroke="#707070" stroke-width="1">
          <rect width="67" height="78" stroke="none"/>
          <rect x="0.5" y="0.5" width="66" height="77" fill="none"/>
        </g>
        <path id="Trazado_586788" data-name="Trazado 586788" d="M47,0C72.957,0,94,17.909,94,40S72.957,80,47,80,0,62.091,0,40,21.043,0,47,0Z" transform="translate(495 7711)" fill="#00956b"/>
      </g>
      <g id="Enmascarar_grupo_84" data-name="Enmascarar grupo 84" transform="translate(0 288)" clip-path="url(#clip-path)">
        <g id="Rectángulo_39265" data-name="Rectángulo 39265" transform="translate(513 7684)" fill="#fff" stroke="#707070" stroke-width="1">
          <rect width="67" height="78" stroke="none"/>
          <rect x="0.5" y="0.5" width="66" height="77" fill="none"/>
        </g>
        <ellipse id="Elipse_4786" data-name="Elipse 4786" cx="47" cy="40" rx="47" ry="40" transform="translate(495 7711)" fill="#722082"/>
      </g>
      <text id="GRI" transform="translate(522 7736)" fill="#fff" font-size="16" font-family="Roboto-Italic, Roboto" font-style="italic"><tspan x="0" y="0">GRI</tspan></text>
      <text id="GRI-2" data-name="GRI" transform="translate(522 7858)" fill="#fff" font-size="17" font-family="Roboto-Italic, Roboto" font-style="italic"><tspan x="0" y="0">GRI</tspan></text>
      <text id="GRI-3" data-name="GRI" transform="translate(837 7858)" fill="#fff" font-size="17" font-family="Roboto-Italic, Roboto" font-style="italic"><tspan x="0" y="0">GRI</tspan></text>
      <text id="GRI-4" data-name="GRI" transform="translate(693 8024)" fill="#fff" font-size="17" font-family="Roboto-Italic, Roboto" font-style="italic"><tspan x="0" y="0">GRI</tspan></text>
      <text id="GRI-5" data-name="GRI" transform="translate(608 8024)" fill="#fff" font-size="17" font-family="Roboto-Italic, Roboto" font-style="italic"><tspan x="0" y="0">GRI</tspan></text>
      <text id="GRI-6" data-name="GRI" transform="translate(522 8024)" fill="#fff" font-size="17" font-family="Roboto-Italic, Roboto" font-style="italic"><tspan x="0" y="0">GRI</tspan></text>
      <text id="_101" data-name="101" transform="translate(522 7753)" fill="#fff" font-size="16" font-family="Roboto-Italic, Roboto" font-style="italic"><tspan x="0" y="0">101</tspan></text>
      <text id="_102" data-name="102" transform="translate(522 7875)" fill="#fff" font-size="17" font-family="Roboto-Italic, Roboto" font-style="italic"><tspan x="0" y="0">102</tspan></text>
      <text id="_103" data-name="103" transform="translate(837 7875)" fill="#fff" font-size="17" font-family="Roboto-Italic, Roboto" font-style="italic"><tspan x="0" y="0">103</tspan></text>
      <text id="_400" data-name="400" transform="translate(693 8041)" fill="#fff" font-size="17" font-family="Roboto-Italic, Roboto" font-style="italic"><tspan x="0" y="0">400</tspan></text>
      <text id="_300" data-name="300" transform="translate(608 8041)" fill="#fff" font-size="17" font-family="Roboto-Italic, Roboto" font-style="italic"><tspan x="0" y="0">300</tspan></text>
      <text id="_200" data-name="200" transform="translate(522 8041)" fill="#fff" font-size="17" font-family="Roboto-Italic, Roboto" font-style="italic"><tspan x="0" y="0">200</tspan></text>
      <text id="Fundamentos" transform="translate(517 7696)" fill="#12263f" font-size="7" font-family="Roboto-Italic, Roboto" font-style="italic"><tspan x="0" y="0">Fundamentos</tspan></text>
      <text id="Contenidos_Generales" data-name="Contenidos 
Generales" transform="translate(517 7818)" fill="#12263f" font-size="8" font-family="Roboto-Italic, Roboto" font-style="italic"><tspan x="0" y="0">Contenidos </tspan><tspan x="0" y="10">Generales</tspan></text>
      <text id="Enfoque_de_Gestión" data-name="Enfoque
de Gestión" transform="translate(832 7818)" fill="#12263f" font-size="8" font-family="Roboto-Italic, Roboto" font-style="italic"><tspan x="0" y="0">Enfoque</tspan><tspan x="0" y="10">de Gestión</tspan></text>
      <text id="Sociales" transform="translate(688 7984)" fill="#12263f" font-size="8" font-family="Roboto-Italic, Roboto" font-style="italic"><tspan x="0" y="0">Sociales</tspan></text>
      <text id="Ambientales" transform="translate(603 7984)" fill="#12263f" font-size="8" font-family="Roboto-Italic, Roboto" font-style="italic"><tspan x="0" y="0">Ambientales</tspan></text>
      <text id="Económicos" transform="translate(517 7984)" fill="#12263f" font-size="8" font-family="Roboto-Italic, Roboto" font-style="italic"><tspan x="0" y="0">Económicos</tspan></text>
      <path id="Trazado_586790" data-name="Trazado 586790" d="M-8006-3769.333h537.5l20.476,20,21.5-20H-7146" transform="translate(8376 11700)" fill="none" stroke="#12263f" stroke-width="2" stroke-dasharray="6"/>
      <path id="Trazado_586791" data-name="Trazado 586791" d="M-8006-3769.333h459.375l17.5,20,18.375-20H-7271" transform="translate(8501 11545.333)" fill="none" stroke="#12263f" stroke-width="2" stroke-dasharray="6"/>
      <path id="Trazado_586792" data-name="Trazado 586792" d="M-7881-3993.333h-61.667v34.667" transform="translate(8376 11700)" fill="none" stroke="#12263f" stroke-width="3" stroke-dasharray="6"/>
      <path id="Trazado_586793" data-name="Trazado 586793" d="M-7942.667-3894v51.333H-7881" transform="translate(8376 11700)" fill="none" stroke="#12263f" stroke-width="3" stroke-dasharray="6"/>
    </g>
  </g>
</svg>
