<svg xmlns="http://www.w3.org/2000/svg" xmlns:xlink="http://www.w3.org/1999/xlink" width="85" height="85" viewBox="0 0 85 85">
  <defs>
    <clipPath id="clip-path">
      <rect id="Rect치ngulo_39230" data-name="Rect치ngulo 39230" width="52" height="52" fill="none"/>
    </clipPath>
  </defs>
  <g id="Grupo_850459" data-name="Grupo 850459" transform="translate(-915 -3100)">
    <circle id="Elipse_4772" data-name="Elipse 4772" cx="42.5" cy="42.5" r="42.5" transform="translate(915 3100)" fill="#4acfd9"/>
    <g id="Grupo_850142" data-name="Grupo 850142" transform="translate(932 3117)">
      <g id="Grupo_850141" data-name="Grupo 850141" transform="translate(0 0)" clip-path="url(#clip-path)">
        <path id="Trazado_586527" data-name="Trazado 586527" d="M5.228,35.421c-.075.3-.384.326-.567.489a8.235,8.235,0,0,0-1.52,1.876A17.033,17.033,0,0,1,2.249,39.5c-.267.339.042.784-.343,1.02a9.692,9.692,0,0,0-.2,3.45A6.689,6.689,0,0,0,2.383,46.3c.425.7.757,1.434,1.223,2.12,1.05,1.547,2.641,2.253,4.182,3.073.859.07,1.646.459,2.526.5a9.56,9.56,0,0,0,3.486-.469,10.081,10.081,0,0,0,2.507-1.284,7,7,0,0,0,2.12-2.147,11.431,11.431,0,0,0,1.312-2.81,11.683,11.683,0,0,0,.392-2.872A10.479,10.479,0,0,0,18.2,37.123,6.627,6.627,0,0,0,16.632,35.6c-.045-.029-.052-.116-.077-.175a1.36,1.36,0,0,0-.458-.515c-.155-.1-.3-.224-.474-.326.18.042.274.189.418.258a1.942,1.942,0,0,0,.723.374,2.8,2.8,0,0,0,1.057-.735c.48-.5.983-.987,1.476-1.479a2.331,2.331,0,0,0,.773-1.068c-.153-.485-.609-.8-.975-1.206-.216-.82.664-1.336.612-2.166h1.546l.547-.669V24.005l-.512-.511H19.735c.036-.836-.843-1.368-.644-2.23.371-.4.847-.7.97-1.338a17.919,17.919,0,0,0-2.242-2.411,2.609,2.609,0,0,0-1.054-.737c-.249.115-.547.127-.747.348a1.65,1.65,0,0,1-.4.3c.111-.125.256-.175.349-.284.2-.188.469-.305.589-.576.075-.3.384-.326.567-.489a8.26,8.26,0,0,0,1.52-1.877c.335-.549.519-1.2.888-1.717.216-.3.074-.6.2-.865a8.473,8.473,0,0,0,.389-3.608A22.789,22.789,0,0,0,19.4,5.7c-.425-.7-.75-1.437-1.225-2.119-1.209-1.734-3-2.51-4.822-3.3A14.7,14.7,0,0,0,11.259.021c-.667.1-1.377-.217-2.01.21-1.332-.071-2.3.847-3.462,1.257A16.812,16.812,0,0,0,3.673,3.494c-.578.817-.95,1.714-1.461,2.544-.184.3-.088.582-.188.868A8.036,8.036,0,0,0,1.96,11.55a8.56,8.56,0,0,0,1.078,2.484A5.276,5.276,0,0,0,5,16.251c.1.049.252.142.226.318.12.272.39.388.59.577A1.3,1.3,0,0,0,6.2,17.4c-.236-.039-.31-.2-.436-.277-.2-.222-.5-.232-.746-.347a2.807,2.807,0,0,0-1.057.735c-.48.5-.983.987-1.476,1.48a2.324,2.324,0,0,0-.773,1.069,3.655,3.655,0,0,0,.973,1.194c.219.83-.661,1.346-.609,2.177H.531L0,24.082V28l.5.495H2.048c-.036.836.843,1.368.644,2.23A3.628,3.628,0,0,0,1.687,32a17.341,17.341,0,0,0,2.277,2.471,2.609,2.609,0,0,0,1.054.737c.249-.115.547-.127.747-.347a1.628,1.628,0,0,1,.4-.3c-.111.125-.256.174-.349.283-.2.189-.47.305-.589.576" transform="translate(0 0)"/>
        <path id="Trazado_586528" data-name="Trazado 586528" d="M33.977,17.739v4.543l-1.221-1.22H32l-.51.667V22.7H26.2l-.573.536v5.666l.521.523h5.3v1.13l.678.527h.592l1.267-1.266v5.407c-.217.159-.5.058-.769.061-1.223.014-2.445-.013-3.668.012A6.073,6.073,0,0,0,27,35.495l-1.11,1.158a5.461,5.461,0,0,0-.265,2.454q0,4.605,0,9.211a4.949,4.949,0,0,0,.355,2.521l.922.921a5,5,0,0,0,2.4.292q6.185.007,12.369,0a6.791,6.791,0,0,0,2.781-.263l.976-.974a5.539,5.539,0,0,0,.33-2.612q.005-3.926,0-7.851v-.84h7.857l.53-.661v-20.6l-5.611-5.611H40.951A8.43,8.43,0,1,0,25.01,7.327a7.766,7.766,0,0,0-.232,2.317,11.346,11.346,0,0,0,.423,2.236,10.367,10.367,0,0,0,.94,2.019,6.968,6.968,0,0,0,1.468,1.7,6.541,6.541,0,0,0,1.9,1.238,9.529,9.529,0,0,0,2.126.706c.785.173,1.556.056,2.342.2" transform="translate(-2.151 -0.084)"/>
        <path id="Trazado_586529" data-name="Trazado 586529" d="M5.705,38.8c.159-.216.563-.063.629-.419a.24.24,0,0,0-.21-.209c-.159.215-.563.063-.629.418a.178.178,0,0,1,.21.21" transform="translate(-0.477 -3.377)" fill="#f2f4f5"/>
        <path id="Trazado_586530" data-name="Trazado 586530" d="M6.334,18.6c-.066-.355-.47-.2-.629-.419a.178.178,0,0,1-.21.21c.066.355.47.2.629.419a.242.242,0,0,0,.21-.21" transform="translate(-0.477 -1.608)" fill="#f2f4f5"/>
        <path id="Trazado_586531" data-name="Trazado 586531" d="M18.069,18.177c-.159.216-.563.063-.629.419a.24.24,0,0,0,.21.209c.159-.215.563-.063.629-.418a.178.178,0,0,1-.21-.21" transform="translate(-1.514 -1.608)" fill="#f2f4f5"/>
        <path id="Trazado_586532" data-name="Trazado 586532" d="M18.292,38.588c-.066-.355-.47-.2-.629-.419-.053.046-.071.094-.053.14s.035.069.053.069a.514.514,0,0,0,.419.419.178.178,0,0,1,.21-.21" transform="translate(-1.528 -3.377)" fill="#f1f3f4"/>
        <path id="Trazado_586533" data-name="Trazado 586533" d="M18.809,26.824a23.035,23.035,0,0,0-1.686-3.757,3.272,3.272,0,0,1,1.02-1.37l-1.155-1.155a3.417,3.417,0,0,1-1.367,1.025A22.047,22.047,0,0,0,11.9,19.906V18.429H10.249v1.395c-1.218.695-2.651.912-3.736,1.746a3.277,3.277,0,0,1-1.4-1.027L3.958,21.7a3.4,3.4,0,0,1,1.025,1.365A21.962,21.962,0,0,0,3.32,26.779H1.842v1.648h1.4c.695,1.217.914,2.648,1.749,3.731a3.287,3.287,0,0,1-1.028,1.4l1.155,1.153a3.414,3.414,0,0,1,1.367-1.023,22.118,22.118,0,0,0,3.721,1.66v1.477h1.651V35.427c1.218-.694,2.651-.912,3.737-1.746a3.258,3.258,0,0,1,1.4,1.028l1.157-1.155a3.411,3.411,0,0,1-1.026-1.365,21.913,21.913,0,0,0,1.663-3.716H20.26V26.824Z" transform="translate(-0.16 -1.631)" fill="#686868"/>
        <path id="Trazado_586534" data-name="Trazado 586534" d="M5.206,50.858a5.846,5.846,0,0,1,2.815-2.4c.182-.312-.131-.534-.244-.693a2.354,2.354,0,0,1-.535-.932,5.317,5.317,0,0,1-.232-1.9,4.806,4.806,0,0,1,1.754-2.949,4.31,4.31,0,0,1,3.242-.762,3.85,3.85,0,0,1,2.5,1.507,4.014,4.014,0,0,1,.888,2.764,3.6,3.6,0,0,1-.717,2.222.911.911,0,0,0-.321.716,5.864,5.864,0,0,1,2.817,2.418c1.563-2.344,1.991-4.378,1.285-6.7a7.548,7.548,0,0,0-4.664-5.011c.032-.012-.013-.005-.015.007-.029.2-.053.4-.092.721l-.605.479H9.207l-.45-.45c-.183-.233.05-.545-.128-.754a7.6,7.6,0,0,0-4.761,5.323c-.648,2.348.084,4.411,1.338,6.4" transform="translate(-0.315 -3.462)" fill="#d4873e"/>
        <path id="Trazado_586535" data-name="Trazado 586535" d="M14.335,10.751A5.975,5.975,0,0,1,17.4,13.628,7.115,7.115,0,0,0,18.729,8.5a7.692,7.692,0,0,0-6.876-6.63A7.373,7.373,0,0,0,6.709,3.345a7.562,7.562,0,0,0-2.63,3.5,6.694,6.694,0,0,0-.392,3.585A6.856,6.856,0,0,0,5,13.6a5.882,5.882,0,0,1,3.053-2.816.835.835,0,0,0-.314-.711c-.537-.429-.524-1.085-.673-1.617A1.767,1.767,0,0,1,7.217,6.78a3.738,3.738,0,0,1,3-3.162,3.668,3.668,0,0,1,3.175.531,6.157,6.157,0,0,1,1.288,1.213,4.189,4.189,0,0,1,.657,1.623,1.81,1.81,0,0,1-.141,1.675c.164.869-.669,1.329-.859,2.091" transform="translate(-0.312 -0.162)" fill="#d4873e"/>
        <path id="Trazado_586536" data-name="Trazado 586536" d="M15.665,14.777c0-.17.026-.332-.143-.463a5.141,5.141,0,0,0-3.374-1.425c-.486.017-.973,0-1.46,0a4.428,4.428,0,0,0-3.855,2.431c-.237.479-.237.479.022.921a2.53,2.53,0,0,0,2.518,0h4.2c1.289.466,2.228-.191,2.1-1.467" transform="translate(-0.578 -1.14)" fill="#f8d165"/>
        <path id="Trazado_586537" data-name="Trazado 586537" d="M15.263,51.833c-.384-.645-1.11-.747-1.708-1.03a2.7,2.7,0,0,0-1.37-.237c-.554.044-1.119-.032-1.671.019A4.766,4.766,0,0,0,7.447,52c-.229.234-.257.624-.57.745-.038.511.125.787.625.763a18.2,18.2,0,0,0,6.442.222,1.411,1.411,0,0,0,1.32-1.9" transform="translate(-0.597 -4.473)" fill="#f8d165"/>
        <path id="Trazado_586538" data-name="Trazado 586538" d="M9.527,44.456a2.7,2.7,0,0,0-.079,2.475l1.01,1.023a2.65,2.65,0,0,0,2.349.037l1.183-1.182a3.445,3.445,0,0,0,.2-1.605c-.323-.145-.094-.518-.295-.716a5.129,5.129,0,0,0-1.057-1,2.078,2.078,0,0,0-.829-.268,3.214,3.214,0,0,0-1.279.2c-.589.22-.851.783-1.206,1.033" transform="translate(-0.797 -3.824)" fill="#fae0c9"/>
        <path id="Trazado_586539" data-name="Trazado 586539" d="M10.4,5.881,9.377,6.9c.073.416-.228.749-.234,1.169s.33.743.259,1.159l1.111,1.11c.415-.067.737.255,1.163.251s.753-.3,1.167-.24l1.029-1.027A2.709,2.709,0,0,0,13.88,6.8l-1.015-.98a2.693,2.693,0,0,0-2.463.066" transform="translate(-0.794 -0.491)" fill="#fae0c9"/>
        <path id="Trazado_586540" data-name="Trazado 586540" d="M15.323,51.957a1.591,1.591,0,0,1-1.7,1.674c-2.021.006-4.043,0-6.063,0A4.848,4.848,0,0,0,9.69,54.646a3.112,3.112,0,0,0,.95.248c.383-.019.767-.011,1.15,0a6.188,6.188,0,0,0,2.666-.634c.561-.252,1.1-.538,1.707-.834a1.839,1.839,0,0,0-.838-1.467" transform="translate(-0.657 -4.597)" fill="#edad42"/>
        <path id="Trazado_586541" data-name="Trazado 586541" d="M16.322,14.96a1.7,1.7,0,0,1-2.1,1.467c.029.229.248.311.4.518.01.185.023.418.039.73.782-.473,1.694-.642,2.287-1.363.011-.562-.038-1.083-.629-1.352" transform="translate(-1.235 -1.324)" fill="#ebaa41"/>
        <path id="Trazado_586542" data-name="Trazado 586542" d="M9.391,16.569H6.874c.056.421.474.448.733.6.41.233.871.384,1.278.649.179-.213.043-.465.089-.7.1-.208.377-.287.416-.548" transform="translate(-0.597 -1.466)" fill="#e9a940"/>
        <path id="Trazado_586543" data-name="Trazado 586543" d="M17.551,38.32v-.21c-.055-.3-.363-.391-.5-.6h-.74a1.271,1.271,0,0,0,0,.3c.442.1.741.549,1.236.515" transform="translate(-1.416 -3.319)" fill="#cbcdce"/>
        <path id="Trazado_586544" data-name="Trazado 586544" d="M6.394,18.637a.178.178,0,0,0-.21.21c.055.3.363.391.5.6h.692c.1-.154.107-.341-.027-.366-.364-.067-.616-.346-.955-.446" transform="translate(-0.537 -1.649)" fill="#cbcdce"/>
        <path id="Trazado_586545" data-name="Trazado 586545" d="M17.543,18.847a.178.178,0,0,0-.21-.21,5.636,5.636,0,0,0-1.115.613c.238.354.5.171.752.235a1.623,1.623,0,0,0,.573-.639" transform="translate(-1.408 -1.649)" fill="#cccdce"/>
        <path id="Trazado_586546" data-name="Trazado 586546" d="M6.184,38.108a.178.178,0,0,0,.21.21A5.637,5.637,0,0,0,7.509,37.7c-.238-.354-.5-.171-.752-.235a1.623,1.623,0,0,0-.573.639" transform="translate(-0.537 -3.315)" fill="#cbcccd"/>
        <path id="Trazado_586547" data-name="Trazado 586547" d="M46.583,38.019c-.106.355.338.625.235,1.055H53.5V20.721h-4.46c-.195-.208-.363-.385-.578-.614V19.016H40.131V17.369c1.337-.083,2.719-.026,4.1-.036s2.785,0,4.213,0V15.706H40.961a9.613,9.613,0,0,1-4.207,2.931V25.3l1.652,1.651v.783l-1.667,1.6v7.17c.278.194.484.108.727-.1.742-.634,1.541-1.207,2.252-1.871.328-.3.734-.476,1.047-.791a2.436,2.436,0,0,1,.937-.77c.234-.077.393-.379.565-.56h.657l.523.52v3.62c.639.15,1.358-.151,1.977.244l1.159,1.221" transform="translate(-3.19 -1.39)" fill="#e1e6f5"/>
        <path id="Trazado_586548" data-name="Trazado 586548" d="M42.649,40.157H41.5L40.94,39.6V36.957l-3.895,3.2H28.069c-.177.176-.351.348-.523.521V52.306a1.891,1.891,0,0,0,1.383.353q6.169.011,12.338,0a2.064,2.064,0,0,0,1.4-.331,1.077,1.077,0,0,0,.08-1.258,2.209,2.209,0,0,0-1.688-.357c-3.381-.015-6.764,0-10.145-.018-.486,0-1.15.161-1.244-.639a1.824,1.824,0,0,1,1.452-.327c3.312-.012,6.624,0,9.936-.01a2.64,2.64,0,0,0,1.62-.28,1.585,1.585,0,0,0,.035-1.771,2.384,2.384,0,0,0-1.6-.307c-3.414-.012-6.83.008-10.244-.02-.447,0-1.1.191-1.18-.612.4-.472.915-.348,1.379-.35,3.345-.015,6.69,0,10.035-.013a2.446,2.446,0,0,0,1.61-.3c.557-1.2.223-2.462.273-3.7a3.04,3.04,0,0,0-.337-2.21" transform="translate(-2.392 -3.27)" fill="#789fd3"/>
        <path id="Trazado_586549" data-name="Trazado 586549" d="M38.367,5.084a7.35,7.35,0,0,0-2.372-1.7,5.943,5.943,0,0,0-3.524-.576,7.251,7.251,0,0,0-2.723,1,6.629,6.629,0,0,0-2.423,2.606,4.86,4.86,0,0,0-.666,2.113,3.56,3.56,0,0,0,.171,2.317,5.507,5.507,0,0,0,1.259,2.828,2.051,2.051,0,0,0,2.035.088c.424-.586-.112-.878-.4-1.225A11.3,11.3,0,0,1,27.777,10.3a7.442,7.442,0,0,1,1.973-2.113c.9-.031,1.145.915,2.03.988,1.509-.857,2.439-2.572,3.953-3.532.759.131,1.066.743,1.547,1.121.336.264.617.733,1.159.365a2.188,2.188,0,0,0-.072-2.05" transform="translate(-2.305 -0.244)" fill="#559a2d"/>
        <path id="Trazado_586550" data-name="Trazado 586550" d="M42.649,48.008v1.675a1.294,1.294,0,0,0,0,1.676v1.148a.5.5,0,0,1-.072.074.174.174,0,0,1-.089.034q-7.471,0-14.941,0v.734l.525.519H43.826l.479-.636V40.976l-.5-.509H42.649v5.866a1.293,1.293,0,0,0,0,1.675" transform="translate(-2.392 -3.58)" fill="#5e87c9"/>
        <path id="Trazado_586551" data-name="Trazado 586551" d="M38.514,5.309V7.144c0,.142-.014.274-.21.26a4.178,4.178,0,0,0-.138,1.411c.07.9.051,1.8.036,2.7-.026,1.477-.612,2.042-2.124,2.07-.868.015-1.736.008-2.6-.017-.714-.1-1.006.673-1.443.757-.818.112-1.018-.81-1.7-.64.015.2-.118.21-.26.21H28.236a6.334,6.334,0,0,0,3.786,2.3,4.306,4.306,0,0,0,2.647.008,2.506,2.506,0,0,1,.64-.008,16.885,16.885,0,0,0,1.823-.85,6.254,6.254,0,0,0,2-1.954,7.4,7.4,0,0,0,1.046-4.668,6.322,6.322,0,0,0-1.138-2.75c-.164-.219-.185-.582-.523-.669" transform="translate(-2.452 -0.47)" fill="#4d8b28"/>
        <path id="Trazado_586552" data-name="Trazado 586552" d="M35.632,28.324c-.678-.677-1.272-1.262-1.853-1.86a.6.6,0,0,1-.131-.252c-.48.006-.558.292-.756.424H27.56c-.034.536-.009,1.082-.014,1.625s0,1.108,0,1.7h5.4l.406.535c.828-.652,1.46-1.425,2.276-2.169" transform="translate(-2.391 -2.319)" fill="#d13f34"/>
        <path id="Trazado_586553" data-name="Trazado 586553" d="M51.465,16.943v2.121h2.11c-.343-.37-.67-.679-.986-1-.34-.344-.682-.683-1.124-1.124" transform="translate(-4.468 -1.499)" fill="#acb0c7"/>
        <path id="Trazado_586554" data-name="Trazado 586554" d="M11.412,33.814a5.822,5.822,0,0,0,5.824-5.934,5.655,5.655,0,0,0-1.813-4.171,5.641,5.641,0,0,0-4.15-1.618A5.859,5.859,0,0,0,5.5,28.071a5.824,5.824,0,0,0,5.912,5.744" transform="translate(-0.477 -1.955)"/>
        <path id="Trazado_586555" data-name="Trazado 586555" d="M40.43,26.717v1.608H52.121c.1-.495,0-1.037.054-1.608Z" transform="translate(-3.51 -2.364)"/>
        <path id="Trazado_586556" data-name="Trazado 586556" d="M40.45,24.659H52.123V23.1c-.872-.148-8.388-.2-11.673-.067Z" transform="translate(-3.512 -2.031)"/>
        <path id="Trazado_586557" data-name="Trazado 586557" d="M40.432,30.392V32h11.7c.055-.5.008-1.039.028-1.611Z" transform="translate(-3.51 -2.689)"/>
        <path id="Trazado_586558" data-name="Trazado 586558" d="M42.808,52.254V50.579h-13.4c-.061.53-.012,1.069-.035,1.675Z" transform="translate(-2.551 -4.475)"/>
        <path id="Trazado_586559" data-name="Trazado 586559" d="M42.807,48.577V46.9H29.426c-.1.529,0,1.07-.065,1.675Z" transform="translate(-2.549 -4.15)"/>
        <rect id="Rect치ngulo_39229" data-name="Rect치ngulo 39229" width="10.028" height="1.602" transform="translate(28.531 39.437)"/>
        <path id="Trazado_586560" data-name="Trazado 586560" d="M38.245,8.682a1.008,1.008,0,0,0,0-1.257,25.233,25.233,0,0,1-2-1.867h-.652L31.816,9.33c-.362-.08-.51-.381-.734-.581s-.447-.441-.687-.679h-.567l-2.274,2.271v.524c.868.978,1.914,1.8,2.719,2.844.468.235.728.7,1.16,1.032h.609c.415-.27.67-.79,1.168-1.032a2.265,2.265,0,0,0,1.128-.882c1.286-1.4,2.85-2.533,3.907-4.145" transform="translate(-2.392 -0.492)"/>
        <path id="Trazado_586561" data-name="Trazado 586561" d="M38.782,8.985a3.494,3.494,0,0,0-.983.886c-1.238,1.213-2.46,2.442-3.681,3.673-.138.139-.354.228-.371.468,0,.286.222.206.373.207,1.147.005,2.293,0,3.439,0a2.477,2.477,0,0,0,1.433-1.528c0-.984,0-2.16,0-3.337,0-.15.08-.369-.206-.372" transform="translate(-2.93 -0.795)" fill="#549a2d"/>
        <path id="Trazado_586562" data-name="Trazado 586562" d="M11.583,32.3a4.186,4.186,0,1,0-.16-8.371,4.186,4.186,0,0,0,.16,8.371" transform="translate(-0.637 -2.117)" fill="#f7f9fa"/>
        <path id="Trazado_586563" data-name="Trazado 586563" d="M36.52,8.4c.056-.281-.057-.329-.125-.4a1.119,1.119,0,0,0-.156-.127L32.513,11.6h-.939L30.34,10.353c-.285-.015-.365.2-.552.386.594.8,1.389,1.411,2.038,2.129.065,0,.1,0,.134,0s.077,0,.1-.017c1.5-1.495,3-2.991,4.464-4.448" transform="translate(-2.586 -0.697)" fill="#dadfee"/>
      </g>
    </g>
  </g>
</svg>
