<svg xmlns="http://www.w3.org/2000/svg" xmlns:xlink="http://www.w3.org/1999/xlink" width="1030" height="613" viewBox="0 0 1030 613">
  <defs>
    <filter id="Rectángulo_39253" x="28" y="217" width="100" height="84" filterUnits="userSpaceOnUse">
      <feOffset dy="3" input="SourceAlpha"/>
      <feGaussianBlur stdDeviation="3" result="blur"/>
      <feFlood flood-opacity="0.161"/>
      <feComposite operator="in" in2="blur"/>
      <feComposite in="SourceGraphic"/>
    </filter>
    <filter id="Rectángulo_39249" x="687" y="58" width="313" height="174" filterUnits="userSpaceOnUse">
      <feOffset dy="3" input="SourceAlpha"/>
      <feGaussianBlur stdDeviation="3" result="blur-2"/>
      <feFlood flood-opacity="0.161"/>
      <feComposite operator="in" in2="blur-2"/>
      <feComposite in="SourceGraphic"/>
    </filter>
    <filter id="Rectángulo_39252" x="267" y="58" width="418" height="174" filterUnits="userSpaceOnUse">
      <feOffset dy="3" input="SourceAlpha"/>
      <feGaussianBlur stdDeviation="3" result="blur-3"/>
      <feFlood flood-opacity="0.161"/>
      <feComposite operator="in" in2="blur-3"/>
      <feComposite in="SourceGraphic"/>
    </filter>
    <filter id="Rectángulo_39250" x="687" y="255" width="313" height="233" filterUnits="userSpaceOnUse">
      <feOffset dy="3" input="SourceAlpha"/>
      <feGaussianBlur stdDeviation="3" result="blur-4"/>
      <feFlood flood-opacity="0.161"/>
      <feComposite operator="in" in2="blur-4"/>
      <feComposite in="SourceGraphic"/>
    </filter>
    <filter id="Rectángulo_39251" x="267" y="255" width="418" height="233" filterUnits="userSpaceOnUse">
      <feOffset dy="3" input="SourceAlpha"/>
      <feGaussianBlur stdDeviation="3" result="blur-5"/>
      <feFlood flood-opacity="0.161"/>
      <feComposite operator="in" in2="blur-5"/>
      <feComposite in="SourceGraphic"/>
    </filter>
  </defs>
  <g id="Grupo_850458" data-name="Grupo 850458" transform="translate(-285 -6751)">
    <path id="Trazado_588626" data-name="Trazado 588626" d="M20,0h990a20,20,0,0,1,20,20V534a20,20,0,0,1-20,20H20A20,20,0,0,1,0,534V20A20,20,0,0,1,20,0Z" transform="translate(285 6751)" fill="#f3f9ff"/>
    <path id="Trazado_588628" data-name="Trazado 588628" d="M0,0H1030V44H0Z" transform="translate(285 7320)" fill="#f3f9ff"/>
    <path id="Trazado_588629" data-name="Trazado 588629" d="M8.8,0H7.485L2.475-7.67V0H1.155V-9.953H2.475L7.5-2.249v-7.7H8.8Zm1.8-3.767a4.369,4.369,0,0,1,.427-1.955,3.187,3.187,0,0,1,1.189-1.34,3.238,3.238,0,0,1,1.74-.472A3.119,3.119,0,0,1,16.4-6.487a4.024,4.024,0,0,1,.933,2.782v.089a4.407,4.407,0,0,1-.414,1.938A3.14,3.14,0,0,1,15.74-.342a3.275,3.275,0,0,1-1.767.479A3.111,3.111,0,0,1,11.536-.909,4,4,0,0,1,10.6-3.678Zm1.271.15a3.164,3.164,0,0,0,.571,1.976A1.827,1.827,0,0,0,13.973-.9,1.816,1.816,0,0,0,15.5-1.651a3.46,3.46,0,0,0,.567-2.116,3.159,3.159,0,0,0-.578-1.972,1.836,1.836,0,0,0-1.535-.755,1.816,1.816,0,0,0-1.511.745A3.434,3.434,0,0,0,11.874-3.616Zm8.764-5.571V-7.4h1.381v.978H20.638v4.593a1.027,1.027,0,0,0,.185.667.777.777,0,0,0,.629.222,3.062,3.062,0,0,0,.6-.082V0a3.688,3.688,0,0,1-.971.136A1.575,1.575,0,0,1,19.8-.376a2.2,2.2,0,0,1-.431-1.456V-6.419H18.026V-7.4h1.347V-9.187ZM28.062,0a2.657,2.657,0,0,1-.178-.779,2.822,2.822,0,0,1-2.105.916,2.611,2.611,0,0,1-1.794-.619,2,2,0,0,1-.7-1.569,2.091,2.091,0,0,1,.878-1.794,4.142,4.142,0,0,1,2.471-.639h1.23v-.581a1.42,1.42,0,0,0-.4-1.056A1.593,1.593,0,0,0,26.3-6.515a1.844,1.844,0,0,0-1.135.342,1.007,1.007,0,0,0-.458.827H23.434a1.745,1.745,0,0,1,.393-1.07,2.683,2.683,0,0,1,1.066-.817,3.588,3.588,0,0,1,1.48-.3,2.924,2.924,0,0,1,2,.639,2.306,2.306,0,0,1,.752,1.76v3.4a4.162,4.162,0,0,0,.26,1.62V0Zm-2.1-.964a2.223,2.223,0,0,0,1.128-.308,1.861,1.861,0,0,0,.772-.8V-3.589h-.991q-2.324,0-2.324,1.36a1.151,1.151,0,0,0,.4.93A1.524,1.524,0,0,0,25.963-.964Zm5.175.3a.792.792,0,0,1,.195-.547.742.742,0,0,1,.584-.219.765.765,0,0,1,.591.219.776.776,0,0,1,.2.547.734.734,0,0,1-.2.526.778.778,0,0,1-.591.212.755.755,0,0,1-.584-.212A.748.748,0,0,1,31.138-.663ZM41.392-4.437a6.172,6.172,0,0,1-2.458-1.193,2.279,2.279,0,0,1-.769-1.747,2.408,2.408,0,0,1,.94-1.945,3.736,3.736,0,0,1,2.444-.769,4.078,4.078,0,0,1,1.829.4A3.007,3.007,0,0,1,44.622-8.6a2.8,2.8,0,0,1,.441,1.524H43.743A1.82,1.82,0,0,0,43.169-8.5a2.335,2.335,0,0,0-1.62-.518,2.391,2.391,0,0,0-1.514.428A1.428,1.428,0,0,0,39.491-7.4a1.285,1.285,0,0,0,.516,1.031,5.062,5.062,0,0,0,1.757.77,8.151,8.151,0,0,1,1.941.77,2.946,2.946,0,0,1,1.039.981,2.5,2.5,0,0,1,.338,1.319A2.326,2.326,0,0,1,44.14-.591a4.022,4.022,0,0,1-2.522.728A4.678,4.678,0,0,1,39.7-.256a3.221,3.221,0,0,1-1.371-1.077,2.627,2.627,0,0,1-.482-1.552H39.17a1.714,1.714,0,0,0,.667,1.425,2.806,2.806,0,0,0,1.781.523A2.58,2.58,0,0,0,43.21-1.36a1.377,1.377,0,0,0,.554-1.155,1.351,1.351,0,0,0-.513-1.131A5.911,5.911,0,0,0,41.392-4.437Zm11-.164H48.077v3.527h5.011V0H46.765V-9.953H53.02V-8.88H48.077v3.206h4.313ZM62.371,0H61.052L56.041-7.67V0H54.722V-9.953h1.319l5.024,7.7v-7.7h1.306ZM70.2-2.6h-4.17L65.092,0H63.738l3.8-9.953h1.148L72.5,0H71.148ZM66.425-3.678h3.384l-1.7-4.655Zm10.63-.362a10.569,10.569,0,0,1,.414-2.967A8.618,8.618,0,0,1,78.7-9.591a5.249,5.249,0,0,1,1.7-1.641l.26.834A5.444,5.444,0,0,0,79.027-8.06a10.135,10.135,0,0,0-.7,3.521l-.007.581a10.188,10.188,0,0,0,.964,4.58A5.47,5.47,0,0,0,80.664,2.44l-.26.772a5.418,5.418,0,0,1-1.736-1.7A9.5,9.5,0,0,1,77.055-4.04ZM88.279,0H81.758V-.909L85.2-4.737a8.185,8.185,0,0,0,1.056-1.412,2.356,2.356,0,0,0,.291-1.125,1.786,1.786,0,0,0-.472-1.278,1.649,1.649,0,0,0-1.258-.5,1.953,1.953,0,0,0-1.466.537,2.05,2.05,0,0,0-.523,1.494H81.566a2.936,2.936,0,0,1,.885-2.222,3.282,3.282,0,0,1,2.369-.848,3.153,3.153,0,0,1,2.194.728,2.483,2.483,0,0,1,.807,1.938q0,1.47-1.873,3.5L83.282-1.032h5ZM95.86-4.245a5.784,5.784,0,0,1-.759,3.3A2.7,2.7,0,0,1,92.729.137,2.718,2.718,0,0,1,90.371-.919a5.49,5.49,0,0,1-.793-3.155V-5.763a5.655,5.655,0,0,1,.759-3.261,2.719,2.719,0,0,1,2.379-1.066,2.744,2.744,0,0,1,2.365,1.029,5.458,5.458,0,0,1,.779,3.175ZM94.6-5.975a4.634,4.634,0,0,0-.451-2.341,1.553,1.553,0,0,0-1.429-.735,1.532,1.532,0,0,0-1.415.731,4.525,4.525,0,0,0-.458,2.249v2.023a4.708,4.708,0,0,0,.468,2.382A1.55,1.55,0,0,0,92.729-.9a1.529,1.529,0,0,0,1.391-.725A4.538,4.538,0,0,0,94.6-3.9ZM104,0H97.48V-.909l3.445-3.828a8.185,8.185,0,0,0,1.056-1.412,2.356,2.356,0,0,0,.291-1.125,1.786,1.786,0,0,0-.472-1.278,1.649,1.649,0,0,0-1.258-.5,1.953,1.953,0,0,0-1.466.537,2.05,2.05,0,0,0-.523,1.494H97.289a2.936,2.936,0,0,1,.885-2.222,3.282,3.282,0,0,1,2.369-.848,3.153,3.153,0,0,1,2.194.728,2.483,2.483,0,0,1,.807,1.938q0,1.47-1.873,3.5L99-1.032h5Zm7.861,0h-6.521V-.909l3.445-3.828a8.185,8.185,0,0,0,1.056-1.412,2.356,2.356,0,0,0,.291-1.125,1.786,1.786,0,0,0-.472-1.278,1.649,1.649,0,0,0-1.258-.5,1.953,1.953,0,0,0-1.466.537,2.05,2.05,0,0,0-.523,1.494H105.15a2.936,2.936,0,0,1,.885-2.222,3.282,3.282,0,0,1,2.369-.848,3.153,3.153,0,0,1,2.194.728,2.483,2.483,0,0,1,.807,1.938q0,1.47-1.873,3.5l-2.666,2.892h5Zm4.389-3.972a10.574,10.574,0,0,1-.4,2.922,8.641,8.641,0,0,1-1.224,2.581A5.361,5.361,0,0,1,112.9,3.213l-.267-.772a5.5,5.5,0,0,0,1.692-2.505,10.839,10.839,0,0,0,.653-3.77v-.219a11.253,11.253,0,0,0-.3-2.669,9.009,9.009,0,0,0-.837-2.211,5.108,5.108,0,0,0-1.207-1.524l.267-.772a5.34,5.34,0,0,1,1.719,1.668,8.66,8.66,0,0,1,1.224,2.577A10.818,10.818,0,0,1,116.252-3.972Zm1.976,3.309a.792.792,0,0,1,.195-.547.742.742,0,0,1,.584-.219.765.765,0,0,1,.591.219.776.776,0,0,1,.2.547.734.734,0,0,1-.2.526.778.778,0,0,1-.591.212.755.755,0,0,1-.584-.212A.748.748,0,0,1,118.228-.663Z" transform="translate(1164 7348)" fill="#12263f"/>
    <g id="Grupo_850365" data-name="Grupo 850365" transform="translate(0 -14)">
      <g transform="matrix(1, 0, 0, 1, 285, 6765)" filter="url(#Rectángulo_39253)">
        <rect id="Rectángulo_39253-2" data-name="Rectángulo 39253" width="82" height="66" rx="20" transform="translate(37 223)" fill="#fff"/>
      </g>
      <text id="GRI" transform="translate(349 7028)" fill="#12263f" font-size="18" font-family="Roboto-Black, Roboto" font-weight="800"><tspan x="0" y="0">GRI</tspan></text>
    </g>
    <path id="Trazado_586787" data-name="Trazado 586787" d="M-7816.333-4814.667h-105v244h105" transform="translate(8462.334 11700.166)" fill="none" stroke="#12263f" stroke-width="3" stroke-dasharray="6"/>
    <g id="Grupo_850168" data-name="Grupo 850168" transform="translate(66)">
      <g id="Grupo_850167" data-name="Grupo 850167">
        <g transform="matrix(1, 0, 0, 1, 219, 6751)" filter="url(#Rectángulo_39249)">
          <rect id="Rectángulo_39249-2" data-name="Rectángulo 39249" width="295" height="156" rx="20" transform="translate(696 64)" fill="#fff"/>
        </g>
        <g transform="matrix(1, 0, 0, 1, 219, 6751)" filter="url(#Rectángulo_39252)">
          <rect id="Rectángulo_39252-2" data-name="Rectángulo 39252" width="400" height="156" rx="20" transform="translate(276 64)" fill="#fff"/>
        </g>
        <g transform="matrix(1, 0, 0, 1, 219, 6751)" filter="url(#Rectángulo_39250)">
          <g id="Rectángulo_39250-2" data-name="Rectángulo 39250" transform="translate(696 261)" fill="#fff" stroke="#707070" stroke-width="1" stroke-dasharray="6">
            <rect width="295" height="215" rx="20" stroke="none"/>
            <rect x="0.5" y="0.5" width="294" height="214" rx="19.5" fill="none"/>
          </g>
        </g>
        <g transform="matrix(1, 0, 0, 1, 219, 6751)" filter="url(#Rectángulo_39251)">
          <rect id="Rectángulo_39251-2" data-name="Rectángulo 39251" width="400" height="215" rx="20" transform="translate(276 261)" fill="#fff"/>
        </g>
        <text id="Los_primeros_son_considerados_universales_son_de_obligatorio_reporte_por_las_compañías_que_comuniquen_información_no_financiera_bajo_estas_directrices." data-name="Los primeros son considerados universales, son de obligatorio reporte por las compañías que comuniquen información no financiera bajo estas directrices." transform="translate(941 6836)" fill="#12263f" font-size="16" font-family="Roboto-Regular, Roboto"><tspan x="0" y="17">Los primeros son considerados </tspan><tspan x="0" y="41">universales, son de obligatorio </tspan><tspan x="0" y="65">reporte por las compañías que </tspan><tspan x="0" y="89">comuniquen información no </tspan><tspan x="0" y="113">financiera bajo estas directrices.</tspan></text>
        <text id="_38_estándares_divididos_en_ejes_temáticos." data-name="38 estándares, divididos en ejes temáticos." transform="translate(596 6871)" fill="#12263f" font-size="16" font-family="Roboto-Regular, Roboto"><tspan x="0" y="17">38 estándares, divididos en </tspan><tspan x="0" y="41">ejes temáticos.</tspan></text>
        <text id="De_estos_tres_últimos_ejes_cada_organización_debe_elegir_para_sus_reportes_aquellos_que_se_relacionen_con_sus_asuntos_materiales_o_los_temas_priorizados_en_su_análisis_de_mmaterialidad." data-name="De estos tres últimos ejes, cada organización debe elegir para sus reportes aquellos que se relacionen con sus asuntos materiales o los temas priorizados en su análisis de mmaterialidad." transform="translate(941 7037)" fill="#12263f" font-size="16" font-family="Roboto-Regular, Roboto"><tspan x="0" y="17">De estos tres últimos ejes, cada </tspan><tspan x="0" y="41">organización debe elegir para sus </tspan><tspan x="0" y="65">reportes aquellos que se </tspan><tspan x="0" y="89">relacionen con sus asuntos </tspan><tspan x="0" y="113">materiales o los temas </tspan><tspan x="0" y="137">priorizados en su análisis de </tspan><tspan x="0" y="161">mmaterialidad.</tspan></text>
        <text id="Los_ejes_se_identifican:_101_-_Fundamentos._102_-_Contenidos_generales._103_-_Enfoque_de_gestión._200_-_Asuntos_económicos._300_-_Temáticas_ambientales._400_-_Reportes_de_gestión_sobre_asuntos_sociales" data-name="Los ejes se identifican:
101 - Fundamentos.
102 - Contenidos generales.
103 - Enfoque de gestión.
200 - Asuntos económicos.
300 - Temáticas ambientales.
400 - Reportes de gestión sobre asuntos sociales" transform="translate(521 7037)" fill="#12263f" font-size="16" font-family="Roboto-Regular, Roboto"><tspan x="0" y="17">Los ejes se identifican:</tspan><tspan x="0" y="41">101 - Fundamentos.</tspan><tspan x="0" y="65">102 - Contenidos generales.</tspan><tspan x="0" y="89">103 - Enfoque de gestión.</tspan><tspan x="0" y="113">200 - Asuntos económicos.</tspan><tspan x="0" y="137">300 - Temáticas ambientales.</tspan><tspan x="0" y="161">400 - Reportes de gestión sobre asuntos sociales</tspan></text>
      </g>
    </g>
    <path id="Icon_awesome-arrow-right" data-name="Icon awesome-arrow-right" d="M13.395,4.7l1.561-1.561a1.681,1.681,0,0,1,2.384,0L31.008,16.8a1.681,1.681,0,0,1,0,2.384L17.339,32.857a1.681,1.681,0,0,1-2.384,0L13.395,31.3a1.689,1.689,0,0,1,.028-2.412L21.9,20.813H1.688A1.683,1.683,0,0,1,0,19.125v-2.25a1.683,1.683,0,0,1,1.688-1.687H21.9L13.423,7.116A1.677,1.677,0,0,1,13.395,4.7Z" transform="translate(961 6867.333)"/>
    <path id="Icon_awesome-arrow-right-2" data-name="Icon awesome-arrow-right" d="M13.395,4.7l1.561-1.561a1.681,1.681,0,0,1,2.384,0L31.008,16.8a1.681,1.681,0,0,1,0,2.384L17.339,32.857a1.681,1.681,0,0,1-2.384,0L13.395,31.3a1.689,1.689,0,0,1,.028-2.412L21.9,20.813H1.688A1.683,1.683,0,0,1,0,19.125v-2.25a1.683,1.683,0,0,1,1.688-1.687H21.9L13.423,7.116A1.677,1.677,0,0,1,13.395,4.7Z" transform="translate(961 7111.333)"/>
    <path id="Icon_awesome-arrow-right-3" data-name="Icon awesome-arrow-right" d="M13.395,4.7l1.561-1.561a1.681,1.681,0,0,1,2.384,0L31.008,16.8a1.681,1.681,0,0,1,0,2.384L17.339,32.857a1.681,1.681,0,0,1-2.384,0L13.395,31.3a1.689,1.689,0,0,1,.028-2.412L21.9,20.813H1.688A1.683,1.683,0,0,1,0,19.125v-2.25a1.683,1.683,0,0,1,1.688-1.687H21.9L13.423,7.116A1.677,1.677,0,0,1,13.395,4.7Z" transform="translate(500.497 6989.353)"/>
    <path id="Trazado_588627" data-name="Trazado 588627" d="M9.688-3.609A4.185,4.185,0,0,1,8.355-.824a4.365,4.365,0,0,1-2.98.98,4.008,4.008,0,0,1-3.23-1.445A5.815,5.815,0,0,1,.93-5.156V-6.25A6.481,6.481,0,0,1,1.5-9.039,4.231,4.231,0,0,1,3.1-10.887a4.47,4.47,0,0,1,2.406-.645A4.11,4.11,0,0,1,8.414-10.52a4.235,4.235,0,0,1,1.273,2.8H8.18a3.268,3.268,0,0,0-.848-1.975A2.565,2.565,0,0,0,5.508-10.3,2.684,2.684,0,0,0,3.254-9.241a4.882,4.882,0,0,0-.816,3.026v1.1a5.018,5.018,0,0,0,.773,2.948A2.5,2.5,0,0,0,5.375-1.07a2.887,2.887,0,0,0,1.918-.566A3.143,3.143,0,0,0,8.18-3.609ZM16.727-.836A3.07,3.07,0,0,1,14.25.156a2.628,2.628,0,0,1-2.059-.785,3.4,3.4,0,0,1-.715-2.324v-5.5h1.445v5.461q0,1.922,1.563,1.922a2.163,2.163,0,0,0,2.2-1.234V-8.453h1.445V0H16.758Zm7.109.992a3.693,3.693,0,0,1-2.8-1.129,4.19,4.19,0,0,1-1.078-3.02v-.266a5.073,5.073,0,0,1,.48-2.246,3.748,3.748,0,0,1,1.344-1.547,3.378,3.378,0,0,1,1.871-.559,3.166,3.166,0,0,1,2.563,1.086,4.7,4.7,0,0,1,.914,3.109v.6H21.406a3,3,0,0,0,.73,2.02,2.3,2.3,0,0,0,1.777.77,2.517,2.517,0,0,0,1.3-.312,3.259,3.259,0,0,0,.93-.828l.883.688A3.55,3.55,0,0,1,23.836.156Zm-.18-7.578a1.928,1.928,0,0,0-1.469.637A3.1,3.1,0,0,0,21.453-5h4.234v-.109a2.753,2.753,0,0,0-.594-1.707A1.815,1.815,0,0,0,23.656-7.422Zm6.516-1.031.047,1.063A3.08,3.08,0,0,1,32.75-8.609q2.68,0,2.7,3.023V0H34.008V-5.594a1.946,1.946,0,0,0-.418-1.352,1.675,1.675,0,0,0-1.277-.437,2.086,2.086,0,0,0-1.234.375,2.546,2.546,0,0,0-.828.984V0H28.8V-8.453ZM39.594-10.5v2.047h1.578v1.117H39.594v5.249a1.173,1.173,0,0,0,.211.763.888.888,0,0,0,.719.254,3.5,3.5,0,0,0,.688-.094V0A4.215,4.215,0,0,1,40.1.156,1.8,1.8,0,0,1,38.641-.43a2.517,2.517,0,0,1-.492-1.664V-7.336H36.609V-8.453h1.539V-10.5ZM48.078,0a3.036,3.036,0,0,1-.2-.891A3.225,3.225,0,0,1,45.469.156a2.984,2.984,0,0,1-2.051-.707,2.287,2.287,0,0,1-.8-1.793,2.39,2.39,0,0,1,1-2.051,4.733,4.733,0,0,1,2.824-.73h1.406v-.664A1.623,1.623,0,0,0,47.4-7a1.821,1.821,0,0,0-1.336-.449,2.107,2.107,0,0,0-1.3.391,1.151,1.151,0,0,0-.523.945H42.789a2,2,0,0,1,.449-1.223,3.066,3.066,0,0,1,1.219-.934,4.1,4.1,0,0,1,1.691-.344,3.342,3.342,0,0,1,2.289.73A2.635,2.635,0,0,1,49.3-5.867v3.891a4.757,4.757,0,0,0,.3,1.852V0Zm-2.4-1.1a2.54,2.54,0,0,0,1.289-.352,2.127,2.127,0,0,0,.883-.914V-4.1H46.719q-2.656,0-2.656,1.555a1.316,1.316,0,0,0,.453,1.063A1.742,1.742,0,0,0,45.68-1.1Zm13.234.078a2.082,2.082,0,0,0,1.352-.469,1.649,1.649,0,0,0,.641-1.172h1.367a2.621,2.621,0,0,1-.5,1.383,3.293,3.293,0,0,1-1.23,1.047,3.55,3.55,0,0,1-1.629.391A3.482,3.482,0,0,1,56.168-1a4.59,4.59,0,0,1-1.02-3.152v-.242a5.089,5.089,0,0,1,.453-2.2,3.451,3.451,0,0,1,1.3-1.492,3.7,3.7,0,0,1,2-.531,3.39,3.39,0,0,1,2.363.852,3.043,3.043,0,0,1,1,2.211H60.906a1.992,1.992,0,0,0-.621-1.348,1.932,1.932,0,0,0-1.379-.527,2.023,2.023,0,0,0-1.707.793,3.724,3.724,0,0,0-.605,2.293v.273a3.65,3.65,0,0,0,.6,2.25A2.033,2.033,0,0,0,58.914-1.023Zm4.6-3.281A4.993,4.993,0,0,1,64-6.539,3.643,3.643,0,0,1,65.363-8.07a3.7,3.7,0,0,1,1.988-.539,3.565,3.565,0,0,1,2.793,1.2,4.6,4.6,0,0,1,1.066,3.18v.1a5.036,5.036,0,0,1-.473,2.215A3.589,3.589,0,0,1,69.387-.391a3.743,3.743,0,0,1-2.02.547,3.556,3.556,0,0,1-2.785-1.2A4.575,4.575,0,0,1,63.516-4.2Zm1.453.172a3.616,3.616,0,0,0,.652,2.258,2.088,2.088,0,0,0,1.746.852,2.075,2.075,0,0,0,1.75-.863A3.955,3.955,0,0,0,69.766-4.3a3.61,3.61,0,0,0-.66-2.254,2.1,2.1,0,0,0-1.754-.863,2.075,2.075,0,0,0-1.727.852A3.925,3.925,0,0,0,64.969-4.133Zm9.422-4.32.047,1.063a3.08,3.08,0,0,1,2.531-1.219q2.68,0,2.7,3.023V0H78.227V-5.594a1.946,1.946,0,0,0-.418-1.352,1.675,1.675,0,0,0-1.277-.437,2.086,2.086,0,0,0-1.234.375,2.546,2.546,0,0,0-.828.984V0H73.023V-8.453ZM81.8-.758a.905.905,0,0,1,.223-.625.848.848,0,0,1,.668-.25.874.874,0,0,1,.676.25.887.887,0,0,1,.23.625.839.839,0,0,1-.23.6A.89.89,0,0,1,82.7.086a.863.863,0,0,1-.668-.242A.855.855,0,0,1,81.8-.758Zm.008-6.9a.905.905,0,0,1,.223-.625.848.848,0,0,1,.668-.25.874.874,0,0,1,.676.25.887.887,0,0,1,.23.625.839.839,0,0,1-.23.6.89.89,0,0,1-.676.242.863.863,0,0,1-.668-.242A.855.855,0,0,1,81.813-7.656Z" transform="translate(409 7012)" fill="#12263f"/>
  </g>
</svg>
