<svg xmlns="http://www.w3.org/2000/svg" xmlns:xlink="http://www.w3.org/1999/xlink" width="133" height="133" viewBox="0 0 133 133">
  <defs>
    <clipPath id="clip-path">
      <rect id="Rectángulo_39233" data-name="Rectángulo 39233" width="70" height="70" fill="none"/>
    </clipPath>
  </defs>
  <g id="Grupo_850458" data-name="Grupo 850458" transform="translate(-730 -4095)">
    <circle id="Elipse_4775" data-name="Elipse 4775" cx="66.5" cy="66.5" r="66.5" transform="translate(730 4095)" fill="#4acfd9"/>
    <g id="Grupo_850149" data-name="Grupo 850149" transform="translate(762 4127)">
      <g id="Grupo_850148" data-name="Grupo 850148" clip-path="url(#clip-path)">
        <path id="Trazado_586624" data-name="Trazado 586624" d="M49.984,30.861c.5-.2.261-.431.025-.66.206-.447.6-.438,1.018-.437,2.172.009,4.346,0,6.63,0l.658-.879c-.04.171,0,.088,0,0,0-7.005.018-14.009-.006-21.014a6.912,6.912,0,0,0-2.28-5.342A8.925,8.925,0,0,0,54.49,1.251,8.164,8.164,0,0,0,50.434.008C46.457-.006,42.479,0,38.5,0,28.33,0,18.156-.01,7.983.015a7.271,7.271,0,0,0-5.32,2.171A11.018,11.018,0,0,0,1.384,3.568a7.559,7.559,0,0,0-1.373,4.5Q.015,28.8,0,49.546C0,51.5,1.6,54.76,3.489,55.779a6.9,6.9,0,0,0,3.482,1.3c.6.458,1.307.262,1.966.265,3.927.017,7.855.008,11.757.008l.417-.409v-.682c.566-.969.06-1.445-.839-1.7a6.183,6.183,0,0,0-1.657-.106c-3.424,0-6.848.018-10.27-.009A5.262,5.262,0,0,1,2.86,50.01a11.524,11.524,0,0,1-.229-2.441q-.007-7.851,0-15.7a1.664,1.664,0,0,1,.58-1.632c2.085-.221,4.351.029,6.6-.121,1.147-.211,1.465-.972,1.37-2.006-.049-.543-.177-1.077-.2-1.624a4.2,4.2,0,0,1,4.062-4.315,4.113,4.113,0,0,1,4.265,4.088,12.534,12.534,0,0,1-.163,1.762c-.184,1.55.272,2.08,1.885,2.132,1.57.05,3.141,0,4.711.02a2.959,2.959,0,0,1,1.756.3A24.382,24.382,0,0,1,27.532,36c-4.931.573-8.035,2.9-8.1,8.1A8.647,8.647,0,0,0,20.9,47.845a4.665,4.665,0,0,0,2.854,2.033,1.471,1.471,0,0,0,1.064-.92,1.662,1.662,0,0,0,.24-1.171,2.86,2.86,0,0,0-.979-1.119,4.079,4.079,0,0,1,3.03-7.208,1.97,1.97,0,0,1,.414.027c2.52.622,3.241-.332,3.167-2.925-.058-2.029-.089-4.067.055-6.2a17.83,17.83,0,0,1,4.777-.108c.532,3.857,1.96,6.894,6.008,7.7a1.449,1.449,0,0,0,.833-1.289,1.383,1.383,0,0,0-.824-1.8,4.488,4.488,0,0,1-2.435-5.149c.3-1.86-.3-2.488-2.243-2.538-1.431-.036-2.864,0-4.3-.014a2.7,2.7,0,0,1-1.739-.35c-.1-1.407-.552-2.9.2-4.376a18.742,18.742,0,0,1,2.423-.558,7.413,7.413,0,0,0,5.48-7.192,7.434,7.434,0,0,0-6.193-6.916,5.092,5.092,0,0,1-1.954-.49,14.907,14.907,0,0,1,.065-4.317,2.74,2.74,0,0,1,1.84-.381c5.357-.008,10.713-.027,16.068.008,1.963.014,3.853.282,5.321,1.838a6.107,6.107,0,0,1,1.468,3.169,21.781,21.781,0,0,1,.088,4.619q.007,6.336,0,12.674a4.089,4.089,0,0,1-.214,1.891,2.677,2.677,0,0,1-1.845.334c-1.339.024-2.678-.015-4.017.018-.869.021-1.868-.077-2.268.92a2.753,2.753,0,0,0,.577,2.982,5.172,5.172,0,0,0,2.122-.187" transform="translate(0 0)"/>
        <path id="Trazado_586625" data-name="Trazado 586625" d="M14.82,45.375c0,.409.018.819,0,1.225a6.312,6.312,0,0,0,2.137,5.133,5.837,5.837,0,0,0,2.783,1.639,12.211,12.211,0,0,0,2.87.218,6.187,6.187,0,0,0,2.661-.8,27.518,27.518,0,0,1,1.184,2.934,12.561,12.561,0,0,1,.876,2.512c.026.368.467.519.767.878a57.271,57.271,0,0,0,6.239-2.208c2.029-.769,4.087-1.474,6.138-2.208a6.172,6.172,0,0,0,3.67,3.211c.065-.379.486-.632.381-1.07.789-.522.524-1.039,0-1.562-.341-.343-.881-.534-.915-1.116a4.14,4.14,0,0,1,2.315-1.016c.938,1.436,1.745,3.075,3.6,3.694.721,0,1.221.593,1.925.676.81.1,1.561.581,2.451.365.158-.331.017-.694.066-1.042.61-.984.032-1.434-.83-1.689a8.293,8.293,0,0,1-2.188-.829,4.6,4.6,0,0,1-2.331-3.395,5.683,5.683,0,0,0-2.071-3.569,19.6,19.6,0,0,1-2.46-2.394c-.492-.682-.769-1.421-.008-2.071.723-.617,1.4-.232,1.966.3,2.2,2.079,4.32,4.238,6.494,6.346a3.236,3.236,0,0,0,1.705,1.178,2.375,2.375,0,0,0,1.719-1.55c-.068-.835-.721-1.262-1.222-1.773a1.771,1.771,0,0,1-.658-1.7,9.15,9.15,0,0,0-.826-5.7c-.437-1.1-.9-2.189-1.264-3.378,1.793,1.146,3.484,2.326,5.191,3.484a4.715,4.715,0,0,1,2.251,4.261c-.054,3.319,0,6.64-.022,9.959a12.692,12.692,0,0,0,.383,3.619h2.093c.254-.312.12-.687.12-1.03q.016-7.017,0-14.035a4.934,4.934,0,0,0-1.394-3.381,21.6,21.6,0,0,0-3.876-2.976c-1.671-1.16-3.39-2.253-5.084-3.381a6.436,6.436,0,0,0-.544-.344,4.5,4.5,0,0,1-1.359-1.02,5.979,5.979,0,0,1-.535-1.407c-.76-1.694-1.273-3.477-2.025-5.172a23.726,23.726,0,0,1-.947-2.47,2.218,2.218,0,0,0-1.405-1.641l-4.479,1.9a7.484,7.484,0,0,0-3.981,1.55A1.358,1.358,0,0,0,35.906,26c.143.623.438,1.193.64,1.8a4.182,4.182,0,0,1-2.781,5.542,4.3,4.3,0,0,1-5.352-3.248c-.1-.4-.134-.808-.246-1.2A1.476,1.476,0,0,0,26.183,27.7a64.684,64.684,0,0,0-7.889,2.929,1.779,1.779,0,0,0-.858,2.446c.578,1.773,1.3,3.493,1.963,5.233.092.437.427.81.332,1.433-2.442,1.11-4.719,2.509-4.912,5.631" transform="translate(7.958 10.882)"/>
        <path id="Trazado_586626" data-name="Trazado 586626" d="M33.571,34.356v-.987c1.227-.954,2.823-1.237,4.163-2.017,0-.135-.058-.331.009-.393.672-.623.543-1.427.546-2.193.264-.425.93.212,1.112-.418H37.237c-.04-1.07-.773-2.13-.029-3.26h8.3V23.87q0-9.054-.014-18.109c0-.294.274-.731-.263-.9A1.337,1.337,0,0,0,44.88,6.13,3.653,3.653,0,0,1,43.5,9.224c-5.421,5.53-12.126,9-19.289,11.739a20.889,20.889,0,0,1-3.7,1.242c-.478-.922.192-2.035-.546-2.867-.274-.021-.277.167-.277.352v5.345h7.87l.821.8a11.116,11.116,0,0,0-.341,3.913,5.535,5.535,0,0,0,3.542,3.308c.189.44-.112.708-.234,1.023a2.235,2.235,0,0,0,2.222.273" transform="translate(10.584 2.512)" fill="#d55245"/>
        <path id="Trazado_586627" data-name="Trazado 586627" d="M22,46.121a.218.218,0,0,0,.275-.215,5.6,5.6,0,0,1,2.437-3.868,6.115,6.115,0,0,1,2.8-1.174c.249-.755-.6-1.168-.512-1.842-1.116-.027-2.18-.669-3.332-.274-.128.262-.255.526-.407.835a6.3,6.3,0,0,1-3.965-4.229c-.235-.375.212-.934-.346-1.248a2.565,2.565,0,0,0-1.6.284A52.021,52.021,0,0,1,3.891,37.407,3.658,3.658,0,0,1,2.3,37.313C2.145,31.739,2.138,26.165,2.21,20.5a47.311,47.311,0,0,1,5.3-.191c.626-.036,1.425.22,1.717-.681H1.455v2.238c0,5.537.008,11.075-.006,16.612A7.223,7.223,0,0,0,2,41.123a5.147,5.147,0,0,0,2.38,2.822c.452.243.893.508,1.407.8H19.9l.432.415v.958Z" transform="translate(0.779 10.136)" fill="#fea619"/>
        <path id="Trazado_586628" data-name="Trazado 586628" d="M49.9,52.922c0-4.685-.035-9.369.018-14.054a4.488,4.488,0,0,0-2.089-3.913c-2.034-1.4-4.124-2.734-6.155-4.145-.057-.039-.175.008-.3.017.36.97.72,1.93,1.073,2.892.364.989.792,1.951,1.095,2.967a5.106,5.106,0,0,1,.255,3.357,4.207,4.207,0,0,0,0,.954.53.53,0,0,1-.347.59l2.426,2.387-1.6,1.575c-.266-.023-.411-.347-.627-.56q-3.542-3.462-7.066-6.941a3.856,3.856,0,0,0-.693-.666A1.681,1.681,0,0,0,33.246,38.6a4.015,4.015,0,0,0-.008.754c.753.926,1.307,1.98,2.446,2.455.043.784.995.69,1.25,1.242a5.93,5.93,0,0,0,1.284,1.527,5.546,5.546,0,0,0,5.455,5.909c.131.129.261.258.392.385v.957h5.4c.443.247-.209.919.432,1.092" transform="translate(17.857 15.897)" fill="#fdc8a2"/>
        <path id="Trazado_586629" data-name="Trazado 586629" d="M39.765,46.144c-.1-.585-.735-.564-1.073-.9A10.263,10.263,0,0,1,36.34,41.8c-1.024.641-2.314.743-3.381,1.581A7.184,7.184,0,0,0,35,45.108c.2.453-.106.72-.228,1.036Z" transform="translate(17.715 21.582)" fill="#f8bb90"/>
        <path id="Trazado_586630" data-name="Trazado 586630" d="M9.114,22.421c0,.376-.3.268-.5.268-1.848.008-3.695,0-5.543,0H1.663V40.75c.913-.179,1.828.246,2.678-.294a.886.886,0,0,1,.546-.008,8.921,8.921,0,0,0,2.518-.282c.819-.086,1.622-.4,2.408-.487a19.364,19.364,0,0,0,4.068-.919A20.923,20.923,0,0,0,18.2,37.173c.194-.115.583.177.632-.279.1-.506-.1-1.007.229-1.551a4.93,4.93,0,0,0,.283-1.5,4.668,4.668,0,0,1,1.079-1.88,6.363,6.363,0,0,1,3.163-2.311,5.352,5.352,0,0,1,1.911-.408c.507.024,1.016,0,1.662,0,0-2.244,0-4.491,0-6.782H19.012l-.435-.432c-.214-1.113.363-2.158.277-3.283a4.526,4.526,0,0,0-1.642-3.278,3.246,3.246,0,0,0-2.234-.958c-.271,0-.323-.321-.641-.277-.389.415-.958.227-1.364.262a7.91,7.91,0,0,0-2.156,1.44A4.141,4.141,0,0,0,9.812,20.2c.157.635.032,1.23.152,1.821l-.85.4" transform="translate(0.894 7.348)" fill="#fcb52f"/>
        <path id="Trazado_586631" data-name="Trazado 586631" d="M6.692,1.671A3.849,3.849,0,0,0,3.631,2.905c-.217.232-.446.456-.683.67A3.72,3.72,0,0,0,1.695,6.587,12.917,12.917,0,0,0,1.57,9.96c-.032,3.269-.017,6.54,0,9.809,0,.441-.132.908.149,1.321a1.683,1.683,0,0,0,1.594-.006A73.1,73.1,0,0,0,25.7,9.956a2.981,2.981,0,0,0,1.416-2.869c-.151-1.8.145-3.616-.154-5.416a1.556,1.556,0,0,0-.939-.13q-9.193,0-18.387,0a1.556,1.556,0,0,0-.939.13" transform="translate(0.817 0.79)" fill="#87b237"/>
        <path id="Trazado_586632" data-name="Trazado 586632" d="M19.949,21.112v3.547c1.568-.569,3.027-1.142,4.52-1.616a19.131,19.131,0,0,0,1.791-.682c2.229-.964,4.451-1.958,6.585-3.13a50.709,50.709,0,0,0,6.136-3.859,28.643,28.643,0,0,0,3.2-2.6c1-1.007,2.023-1.992,3.03-2.981V6.639A3.775,3.775,0,0,0,43.94,3.61a8.152,8.152,0,0,1-.684-.675A4.687,4.687,0,0,0,40.58,1.7a21.981,21.981,0,0,0-5.16-.238c-4.668-.035-9.337-.012-14-.012H20.087l-.361.355V7.547a1.814,1.814,0,0,1,1.91-.118c.323.17.816.029,1.184.029.989.693,2.168.955,3.044,1.81S27,11.292,27.707,12.261c.14.4-.186.923.266,1.357.14.133.089.541.015.791a14.7,14.7,0,0,1-.826,2.935,8.583,8.583,0,0,1-2.211,2.5,4.416,4.416,0,0,1-2.349.954c-.464.044-.787.4-1.27.331a9.787,9.787,0,0,0-1.384-.014" transform="translate(10.602 0.738)" fill="#e7594a"/>
        <path id="Trazado_586633" data-name="Trazado 586633" d="M27,1.623V8.387A71.66,71.66,0,0,1,1.734,21.109V6.539c-.383,0-.272.291-.274.488-.009,1.183,0,2.365,0,3.547V26.426h6c-.069-.547-.375-1.1.055-1.745.254-.379.1-.986.291-1.507a5.966,5.966,0,0,1,1.307-2.2,7.08,7.08,0,0,1,2.432-1.81,7.349,7.349,0,0,1,2.1-.573c.689-.045,1.461-.3,2.1.238,2,.064,3.192,1.433,4.39,2.72a8.45,8.45,0,0,1,1,1.853c-.063.931.558,1.886.271,2.888a1.055,1.055,0,0,0,.121.135.225.225,0,0,0,.117.049c1.843,0,3.687,0,5.576,0V19.009l.695-.679c.778-.261,1.414.271,2.139.232.69-.036,1.384-.008,2.068-.008,2.44-1.413,2.581-1.806,3.092-3.337a3.829,3.829,0,0,0-.24-3.087,4.692,4.692,0,0,0-6.545-2.035c-.369-.2-.826-.271-1.161-.705,0-2.335,0-4.738-.009-7.14,0-.22.2-.578-.269-.626" transform="translate(0.778 0.838)" fill="#7fa734"/>
        <path id="Trazado_586634" data-name="Trazado 586634" d="M16.684,38.731c.572.152,1.147.293,1.713.461A1.865,1.865,0,0,0,20.016,39a40.424,40.424,0,0,1-2.312-6.6,4.1,4.1,0,0,1,1.659-1.083c1.823-.585,3.573-1.389,5.39-2a6.11,6.11,0,0,1,2.623-.693c.224.223.454.447.716.708-.271.782.289,1.507.248,2.3-.009.171.137.218.2.328,1.381,2.236,3.309,3.254,6.073,2.368,1.122-.845,2.222-1.591,2.671-3.124.487-1.659-.258-2.9-.795-4.264-.031-.077-.066-.155-.1-.232l-.484-.256c-.306-.068-.327.2-.512.226-.317-.438-.807-.173-1.224-.243v.952c-1.39.214-3.236-.992-4.463-2.657a8.222,8.222,0,0,1-1.39-5.07H22.544v8.813c-.248.185-.535.4-1,.748-.484.182-1.109-.4-1.842-.341-.684.058-1.378.014-2.006.014-1.787.952-3.2,2.044-3.256,4.265a4.625,4.625,0,0,0,2.809,4.475l-.561,1.09" transform="translate(7.758 10.154)" fill="#f7f9fa"/>
        <path id="Trazado_586635" data-name="Trazado 586635" d="M4.884,1.735H25.15c0-.376-.3-.267-.5-.268-1.155-.009-2.311,0-3.465,0-5.177,0-10.353,0-15.529.014-.254,0-.678-.273-.775.259" transform="translate(2.625 0.726)" fill="#7fa734"/>
        <path id="Trazado_586636" data-name="Trazado 586636" d="M46.71,32.133c0-.227.091-.512-.015-.672a17.293,17.293,0,0,1-.853-2.108c-.849-1.709-1.228-3.587-2.125-5.278a6.052,6.052,0,0,1-.423-1.151l-5.147,2.229c-.072.271.077.516.165.807a6.8,6.8,0,0,1-1.679,7.22,6.007,6.007,0,0,1-2.866,1.779,6.837,6.837,0,0,1-1.165.168c-.506.038-1.016,0-1.525.011a5.112,5.112,0,0,1-3.9-1.606,8.639,8.639,0,0,1-1.291-1.38,3.951,3.951,0,0,1-.844-1.98c0-.144-.194-.284-.323-.458l-5.16,1.935c-.271.635.115,1.237.341,1.8.549,1.369,1.127,2.725,1.551,4.141a3.5,3.5,0,0,0,.272.569,3.97,3.97,0,0,1,.52,2.6c-.781.887-1.822.619-2.794.657-2.686,1.431-3.212,2.512-2.977,5.9.364.073.08.652.532.658.454.4.967.2,1.45.106,8.707-1.779,16.779-4.932,23.677-10.614a31.738,31.738,0,0,0,4.183-4.34,1.471,1.471,0,0,0,.394-.992" transform="translate(8.827 11.835)" fill="#4397d0"/>
        <path id="Trazado_586637" data-name="Trazado 586637" d="M46.511,29a41.015,41.015,0,0,1-4.559,4.864,43.979,43.979,0,0,1-5.427,3.87,32.865,32.865,0,0,1-3.355,1.9,55.939,55.939,0,0,1-7.589,3.028c-1.109.317-2.188.743-3.309,1.014s-2.254.585-3.382.823a6.9,6.9,0,0,1-2.083.343c0,.091-.037.2,0,.268a4.485,4.485,0,0,0,5.879,1.738,4.191,4.191,0,0,0,1.67-1.105c.593-.25.807.258,1.233.182.9,2.036,1.713,4.114,2.462,6.349,1.862-.534,3.661-1.312,5.495-1.98s3.679-1.362,5.516-2.052,3.691-1.334,5.6-2.077c-1.428-1.406-2.735-2.744-4.105-4.017a3.366,3.366,0,0,1-.919-2.473,4.277,4.277,0,0,1,.767-2.25,3.224,3.224,0,0,1,1.859-1.384c.078-.024.132-.123.221-.211.481,0,.99.032,1.493-.006a3.306,3.306,0,0,1,2.611,1.049c1.227,1.174,2.425,2.374,3.727,3.656a5.228,5.228,0,0,0-.155-2.173c-.758-2.147-1.581-4.268-2.425-6.383-.375-.94-.66-1.915-1-2.87-.018-.052-.151-.067-.229-.1" transform="translate(9.025 14.971)" fill="#3e8ec8"/>
      </g>
    </g>
  </g>
</svg>
