<svg id="Grupo_850403" data-name="Grupo 850403" xmlns="http://www.w3.org/2000/svg" xmlns:xlink="http://www.w3.org/1999/xlink" width="85" height="84.901" viewBox="0 0 85 84.901">
  <defs>
    <clipPath id="clip-path">
      <rect id="Rectángulo_39430" data-name="Rectángulo 39430" width="85" height="84.901" fill="none"/>
    </clipPath>
  </defs>
  <g id="Grupo_850402" data-name="Grupo 850402" clip-path="url(#clip-path)">
    <path id="Trazado_588292" data-name="Trazado 588292" d="M10.352,38.775c-.918-.165-.883.761-1.321,1.169v6.9A58.427,58.427,0,0,0,0,58.339a10.349,10.349,0,0,0,1.664,3.046c.928,1.274,1.908,2.511,2.8,3.812a1.106,1.106,0,0,0,.233.234c1.126.879,1.778,2.177,2.8,3.149,1.042.987,1.983,2.084,3.062,3.026a60.312,60.312,0,0,0,8.571,6.513,47.414,47.414,0,0,0,5.293,2.791c1.544.676,3.243.981,4.664,1.942,1.642.011,3.089.856,4.715,1.058,1.508.188,3.036.4,4.525.667a26.7,26.7,0,0,0,6.992.181c1.9-.153,3.912-.042,5.724-.912,2.026.036,3.789-1.065,5.746-1.326,2.462-1.249,5.246-1.841,7.436-3.644,1.655-.557,2.927-1.745,4.391-2.613.64-.379.986-1.15,1.794-1.25a61.062,61.062,0,0,0,7.547-6.931,41.433,41.433,0,0,0,4.757-5.96c.345-.608.919-1.167,1.346-1.772A14.842,14.842,0,0,0,85,58.573,9.484,9.484,0,0,0,83.352,55.6c-.916-1.282-1.906-2.512-2.8-3.814a1.5,1.5,0,0,0-.232-.235C78.751,50.111,77.693,48.2,76,46.986V39.945c-.439-.407-.4-1.334-1.322-1.169-1.8-.256-1.663,1.074-1.794,2.185-.042.765.042,1.535-.013,2.426a57.846,57.846,0,0,0-6.993-5.019,2.633,2.633,0,0,1-1.356-2.45c-.045-2.643.114-5.289-.085-7.931-.251-.971-.975-1.412-2.2-1.622,2.223-2.948,4.276-5.745,6.579-8.708,2.184,2.908,4.244,5.595,6.262,8.4-.658.729-1.779.855-2,1.921a13.042,13.042,0,0,0-.147,2.631,21.269,21.269,0,0,0,.057,3.3c.137.894.28,1.969,1.7,1.551.882.122.96-.674,1.325-1.3,0,.1,0,.042,0-.011,0-1.491,0-2.982,0-4.581,1.01-.163,2.045-.008,3.206-.1l.616-.821a1.626,1.626,0,0,0-.373-1.813c-1.457-1.946-3.017-3.818-4.426-5.8-1.431-2.009-3.055-3.873-4.371-5.968a9.49,9.49,0,0,0-1.418-1.448H68.094L57.366,27.963l.491,1.124c1.178.747,2.522.235,3.826.472v6.913c-2.063-.8-4.018-1.682-6.053-2.3q-3.017-.923-6.125-1.588V25.059c-.317-.351-.563-.665-1.024-.534-1.357-.4-1.6.6-1.751,1.508a16.6,16.6,0,0,0-.06,3.577c-.064.64.155,1.323-.37,2.066-2.48-.012-5.051-.012-7.46,0-.617-.616-.424-1.205-.5-1.735-.016-4.63-.032-9.26.01-13.889.015-1.583-.267-2.866-2.318-3.319,2.148-2.843,4.128-5.573,6.416-8.471,2.412,2.719,4.263,5.528,6.512,8.415-2.3.58-2.337,2.182-2.272,3.848a22.127,22.127,0,0,0,.1,3.3c.165.867.422,1.8,1.7,1.389l1.024-.492V15.947h3.482l.8-1.262v-.442L43.088,0H41.944L31.24,14.234V15.1l.99.825h3.251V32.391c-.341.555-1.12.646-1.714.7a26.176,26.176,0,0,0-4.94,1.313,29.9,29.9,0,0,0-5.12,2.039c-.076.039-.2-.026-.366-.051V29.572c1.211-.313,2.631.3,3.8-.461l.446-.89a.679.679,0,0,0-.057-.272c-.775-1.117-1.511-2.265-2.353-3.329-.822-1.04-1.639-2.1-2.4-3.167-.721-1.016-1.505-2-2.212-3.031a28.908,28.908,0,0,0-2.422-3.146c-.471-.517-.629-1.264-1.411-1.661h-.942a9.519,9.519,0,0,0-1.418,1.454c-1.114,1.728-2.459,3.28-3.643,4.95C9.3,22.032,7.68,23.9,6.365,25.993a4.4,4.4,0,0,1-.683.712,2.346,2.346,0,0,0-.625,2l1.012.79H8.976v4.747c.493.457.457,1.384,1.376,1.219,1.278.41,1.581-.533,1.668-1.389a33.45,33.45,0,0,0,.021-5.611c-.081-1.2-.944-1.79-2.274-2.186,2.186-2.97,4.252-5.7,6.458-8.606,2.283,2.908,4.305,5.707,6.5,8.6-.943.348-1.874.617-2.116,1.654-.225,2.581-.08,5.167-.09,7.751a2.946,2.946,0,0,1-1.569,2.833,56.774,56.774,0,0,0-6.7,4.783,11.661,11.661,0,0,1-.106-2.327c-.129-1.114,0-2.441-1.793-2.186"/>
    <path id="Trazado_588293" data-name="Trazado 588293" d="M91.624,34.194V29.761c.373-.342.582-.984,1.326-.87V25.577c-.7.147-.893-.522-1.321-.82v-6.28c.211-.505.83-.448,1.178-.888h1.6L87.087,7.825a31.954,31.954,0,0,0-3.91,4.9,35.334,35.334,0,0,0-3.488,4.858H81.04l1.3.775V34.194a2.022,2.022,0,0,0,1.354.514q3.288.1,6.575,0a2.022,2.022,0,0,0,1.354-.514" transform="translate(-44.469 -4.367)" fill="#9acf69"/>
    <path id="Trazado_588294" data-name="Trazado 588294" d="M21.6,60.115c.66-.139.857.486,1.326.777v1.543a.931.931,0,0,0,.936-.139c2.659-1.843,5.329-3.672,8.071-5.3.324-2.691-.161-5.274.277-7.818.091-.479.581-.626.852-1.041H34.9l-7.42-9.9-7.333,9.77c.8.376,1.726-.144,2.314.6a2.807,2.807,0,0,1,.46,2.086q0,2.644,0,5.282c-.434.3-.626.971-1.326.823Z" transform="translate(-11.244 -21.34)" fill="#9acf69"/>
    <path id="Trazado_588295" data-name="Trazado 588295" d="M152.186,56.818c-.7.148-.892-.521-1.326-.823,0-1.813,0-3.63,0-5.447,0-.633-.132-1.295.4-1.834a2.71,2.71,0,0,1,2.392-.418,24.791,24.791,0,0,0-2.422-3.5c-.725-1.1-1.633-2.079-2.43-3.134-.818-1.083-1.6-2.194-2.469-3.394-2.517,3.2-4.929,6.519-7.435,9.883h1.823c.271.415.761.562.852,1.041.422,2.5-.012,5.023.241,7.61a17.088,17.088,0,0,0,3.343,2.254c1.332.879,2.621,1.813,3.931,2.72.526.364,1.013.887,1.768.673V60.99c.388-.339.606-.971,1.326-.858Z" transform="translate(-77.511 -21.356)" fill="#9acf69"/>
    <path id="Trazado_588296" data-name="Trazado 588296" d="M81.147,96.2a.872.872,0,0,0-.226-.739c-1.966-1.937-3.778-4.055-5.9-5.8-2.411-1.987-4.772-4.1-7.67-5.426-.914-.986-2.217-1.325-3.352-1.912a11.055,11.055,0,0,0-3.569-1.367c-1.695-1.185-3.813-1.165-5.637-1.983a5.8,5.8,0,0,1-2.5-.377,28.687,28.687,0,0,0-5.5-.279c-.327,0-.455-.245-.693-.35-.419.023-.682.43-1.188.366a16.178,16.178,0,0,0-2.48-.023,4.06,4.06,0,0,0-2.033.294c-.526.289-1.306-.264-1.838.349-1.18-.07-2.238.5-3.366.652a10.252,10.252,0,0,0-2.657.8,63.106,63.106,0,0,0-6.283,2.838c-1.849,1.06-3.637,2.182-5.384,3.4-1.252.873-2.336,1.96-3.66,2.732a4.028,4.028,0,0,0-.709.692c-1.483,1.482-3.006,2.928-4.439,4.458a41.531,41.531,0,0,0-3.911,4.821c-.592.859-1.31,1.643-1.9,2.667.754,1.084,1.52,2.228,2.329,3.342a67.636,67.636,0,0,0,7.975,8.608,38.739,38.739,0,0,0,3.981,3.142c.928.688,1.846,1.394,2.822,2.009a4.119,4.119,0,0,0,2.087.951,14.9,14.9,0,0,0,5.841,1.659,47.145,47.145,0,0,0,32.874-7.111,43.8,43.8,0,0,0,5.689-4.251,2.529,2.529,0,0,0,1.062-1.459c-.995-1.019-2.387-.2-3.429-.794a.849.849,0,0,1-.214-1.294c1.623-.3,3.347-.738,4.866.722.649.145,1.037-.3,1.417-.678a60.074,60.074,0,0,0,7.4-9.3c.265-.4.6-.834.2-1.352" transform="translate(-3.489 -43.51)" fill="#f5f8f8"/>
    <path id="Trazado_588297" data-name="Trazado 588297" d="M105.38,119.227a1.111,1.111,0,0,1-.218.743q-1.427,1.96-2.755,3.991c-.407.626-1.24.914-1.361,1.753-1.632,1.5-2.734,3.52-4.618,4.781a8.362,8.362,0,0,1-3.324.517,2.417,2.417,0,0,0-1.98.477c-.026.328.2.331.428.331,1.151,0,2.3,0,3.888,0a16.335,16.335,0,0,0-2.694,2.157c-1.709,1.283-3.443,2.534-5.257,3.678-1.008.636-2.072,1.158-3.09,1.766a21.285,21.285,0,0,1-3.054,1.421,53.019,53.019,0,0,1-5.322,1.957,39.169,39.169,0,0,1-3.907.98,17.143,17.143,0,0,0-2.17.359c-.749.237-1.511.088-2.191.3-1.827.583-3.675.176-5.507.291a12.068,12.068,0,0,1-2.647-.014c-2.021-.327-4.108-.19-6.078-.911a13.252,13.252,0,0,0-2.007-.317,7.035,7.035,0,0,0-1.837-.406.687.687,0,0,0,.477.615c1.838.766,3.6,1.7,5.461,2.425,1.44.561,2.935.9,4.372,1.444a5.592,5.592,0,0,0,2.118.445c.637-.027,1.042.509,1.692.4a1.987,1.987,0,0,1,1.7.275c.2.162.642.026.973.026,2.487,0,4.975.063,7.458-.026,1.248-.045,2.493-.4,3.728-.538,1.63-.184,3.108-.857,4.7-1.1a19.238,19.238,0,0,0,3.024-1.106,20.346,20.346,0,0,0,4.177-1.9c1.948-1.185,3.929-2.311,5.805-3.638a64.786,64.786,0,0,0,9.26-8.388,36.788,36.788,0,0,0,3.956-4.99c.432-.647,1.272-1.028,1.225-2.292-1.249-1.7-2.408-3.944-4.43-5.519" transform="translate(-27.722 -66.533)" fill="#f0f3f5"/>
    <path id="Trazado_588298" data-name="Trazado 588298" d="M35.708,62.988c-.457,0-.324.354-.327.594-.011,1.159,0,2.318,0,3.477v3.376a72.968,72.968,0,0,0-8.952,5.81v3.422c2.89-2.8,6.181-4.741,9.284-6.793Z" transform="translate(-14.745 -35.149)" fill="#7cbc3b"/>
    <path id="Trazado_588299" data-name="Trazado 588299" d="M154.237,76.244c-1.422-1.08-2.874-2.141-4.36-3.1a19.2,19.2,0,0,0-4.592-2.632c0-2.31,0-4.619,0-6.928,0-.239.13-.589-.327-.594v9.885c3.1,2.052,6.393,3.994,9.284,6.793Z" transform="translate(-80.889 -35.149)" fill="#7cbc3b"/>
    <path id="Trazado_588300" data-name="Trazado 588300" d="M94.972,67.487H85.688v2.545a40.657,40.657,0,0,1,9.284,0Z" transform="translate(-47.817 -37.66)" fill="#7cbd3b"/>
    <path id="Trazado_588301" data-name="Trazado 588301" d="M55.6,109.756c-.293,1.631.457,3.408.663,5.25.771,1.1.9,2.49,1.763,3.586a27.7,27.7,0,0,0,2.968,3.885,19.674,19.674,0,0,0,7.942,4.4,6.694,6.694,0,0,0,2.015.364c.892-.025,1.745.443,2.679.311a31.181,31.181,0,0,0,3.784-.478,19.826,19.826,0,0,0,6.562-2.919,17.89,17.89,0,0,0,4.8-5.245,19.332,19.332,0,0,0,2.35-6.16,16.144,16.144,0,0,0,.217-5.332,13.591,13.591,0,0,0-2.452-7.078c-.276-1.253-1.321-2.011-2.035-2.949a13.093,13.093,0,0,0-4.078-3.286,14.569,14.569,0,0,0-3.892-1.8,10.721,10.721,0,0,0-2.582-.557c-1.127.022-2.188-.526-3.342-.339-1.9.309-3.9.334-5.662,1.127a29.226,29.226,0,0,0-4.973,2.831,15.531,15.531,0,0,0-3.516,3.7,14.461,14.461,0,0,0-2.6,5.54c-.15.73-.385,1.495-.568,2.231a13.241,13.241,0,0,0-.048,2.908" transform="translate(-30.987 -50.991)"/>
    <path id="Trazado_588302" data-name="Trazado 588302" d="M36.779,129.748H28.816c-.531.233-.446.861-.805,1.136L28.669,132h8.118a1.592,1.592,0,0,0-.008-2.25" transform="translate(-15.631 -72.404)" fill="#010101"/>
    <path id="Trazado_588303" data-name="Trazado 588303" d="M143.965,129.851a1.584,1.584,0,0,0-.046,2.228h8.036c.5-.207.393-.844.754-1.119l-.658-1.108Z" transform="translate(-80.069 -72.461)" fill="#010101"/>
    <path id="Trazado_588304" data-name="Trazado 588304" d="M37.407,117.851c-.628.369-.466.9-.493,1.464l1.145.771h4.027a1.984,1.984,0,0,0,.661-1.206,2.085,2.085,0,0,0-.654-1.028Z" transform="translate(-20.599 -65.765)" fill="#020202"/>
    <path id="Trazado_588305" data-name="Trazado 588305" d="M147.541,117.783H142.9c-.565.2-.426.79-.792,1.065a2.392,2.392,0,0,0,.725,1.181h4.394l.765-.766a1.552,1.552,0,0,0-.453-1.48" transform="translate(-79.302 -65.727)" fill="#020202"/>
    <path id="Trazado_588306" data-name="Trazado 588306" d="M42.041,144.015c.543-.269.371-.886.852-1.056-.416-.33-.316-.952-.855-1.193H37.7l-.747.767c-.23.647.328.959.354,1.483Z" transform="translate(-20.589 -79.11)" fill="#010101"/>
    <path id="Trazado_588307" data-name="Trazado 588307" d="M142.68,144.051h4.831l.474-.994c.149-.7-.52-.89-.819-1.319h-4.281c-.515.2-.452.819-.817,1.106l.612,1.208" transform="translate(-79.279 -79.094)" fill="#010101"/>
    <path id="Trazado_588308" data-name="Trazado 588308" d="M77.246,97.355c-5.214.017-8.941,1.678-11.991,4.9A15.125,15.125,0,0,0,61.042,112.9,14.31,14.31,0,0,0,63,120.337a15.286,15.286,0,0,0,5.2,5.541,15.764,15.764,0,0,0,9.457,2.354A15.354,15.354,0,0,0,87.9,123.361a15.062,15.062,0,0,0,4.216-10.643,14.316,14.316,0,0,0-1.957-7.44,15.4,15.4,0,0,0-5.2-5.542c-2.588-1.543-5.36-2.582-7.7-2.38" transform="translate(-34.063 -54.313)" fill="#cae1fe"/>
    <path id="Trazado_588309" data-name="Trazado 588309" d="M86.552,112.479l-.777,1.306v2.327H81.353l-.815.815v2.444H76.077l-.854.958v9.26l.947.759H92.987l.781-.919V113.307l-.822-.828Z" transform="translate(-41.977 -62.767)"/>
    <path id="Trazado_588310" data-name="Trazado 588310" d="M107.932,117.744h-2.568v12.864h2.908v-6.494c0-1.047.057-2.1-.015-3.139s.327-2.168-.324-3.231" transform="translate(-58.797 -65.705)" fill="#98cc67"/>
    <path id="Trazado_588311" data-name="Trazado 588311" d="M93.19,135.214h2.652v-9.206c-.837-.1-1.69-.018-2.652-.053v9.26Z" transform="translate(-52.003 -70.286)" fill="#e17f85"/>
    <path id="Trazado_588312" data-name="Trazado 588312" d="M80.552,139.452H83.43v-5.906H80.967l-.415.415Z" transform="translate(-44.951 -74.523)" fill="#f8d979"/>
  </g>
</svg>
