<svg id="Grupo_850409" data-name="Grupo 850409" xmlns="http://www.w3.org/2000/svg" xmlns:xlink="http://www.w3.org/1999/xlink" width="84.995" height="85.079" viewBox="0 0 84.995 85.079">
  <defs>
    <clipPath id="clip-path">
      <rect id="Rectángulo_39433" data-name="Rectángulo 39433" width="84.995" height="85.079" fill="none"/>
    </clipPath>
  </defs>
  <g id="Grupo_850408" data-name="Grupo 850408" clip-path="url(#clip-path)">
    <path id="Trazado_588372" data-name="Trazado 588372" d="M73.115,8.387,70.443,13.77H65.921c-.6-.672-.407-1.548-.6-2.323a23.6,23.6,0,0,0-1.8-4.223c-.351-.756-1.1-1.135-1.448-1.8a6.317,6.317,0,0,0-1.535-1.6,16.743,16.743,0,0,0-3.372-2.252A15.507,15.507,0,0,0,54.033.461,11.077,11.077,0,0,0,48.882.175a10.9,10.9,0,0,0-4.257,1.273c-1.1.707-2.472.988-3.307,2.069-.752-.39-.389-1.3-1.036-1.718A7.568,7.568,0,0,1,39.066.62,9.334,9.334,0,0,0,34.812.109Q28.819.1,22.824.109a9.858,9.858,0,0,0-4.263.464c-.547.689-1.549,1.217-1.94,2.273-3.308,0-6.62.044-9.929-.029-.861-.019-1.568.58-2.42.39-.989.75-2.166,1.231-2.911,2.328A7.873,7.873,0,0,0,0,10.115Q.016,44.108,0,78.1A6.964,6.964,0,0,0,2.11,83.219a7.025,7.025,0,0,0,4.54,1.847c14.785,0,29.571.044,44.356-.035,2.872-.015,4.736-1.381,6.057-4.143a5.3,5.3,0,0,0,.512-2.358c-.032-1.424-.009-2.849-.009-4.313a3.66,3.66,0,0,1,1.5-.108c6.337-.008,12.674.031,19.01-.022a6.535,6.535,0,0,0,6.25-3.877,8.468,8.468,0,0,0,.591-2.142,5.382,5.382,0,0,0-.127-2.294,7.968,7.968,0,0,0-1.173-2.611,6.027,6.027,0,0,0-3.67-2.464,9.641,9.641,0,0,0-2.61-.3q-8.992-.008-17.983,0H57.617V28.633c.236-.511.973-.334,1.292-1.035.925,1.2,1.656,2.277,2.521,3.234.885.98,1.546,2.1,2.506,3.019a12.524,12.524,0,0,0-3.6,10.025,11.959,11.959,0,0,0,2.472,6.151,12.955,12.955,0,0,0,5.615,4.19,13.379,13.379,0,0,0,5.874.692,17.724,17.724,0,0,0,5.429-2.152,18.389,18.389,0,0,0,3.3-3.585,13.349,13.349,0,0,0,1.928-5.534,12.653,12.653,0,0,0-.973-5.754,11.777,11.777,0,0,0-4.524-5.529,12.307,12.307,0,0,0-6.482-2.129,14.382,14.382,0,0,0-6.921,1.9l-4.775-5.954c.689-.966,1.347-1.956,2.074-2.892a17.153,17.153,0,0,0,1.631-3.1,4.181,4.181,0,0,0,.431-1.861,4.34,4.34,0,0,1,.507-1.731h4.507l2.688,5.4H84.4l-1.612-3.335c-.414-.856-.771-1.746-1.26-2.557a1.536,1.536,0,0,1-.011-1.8c.979-1.751,1.81-3.584,2.7-5.383a.49.49,0,0,0-.031-.523Z" transform="translate(0 0)"/>
    <path id="Trazado_588373" data-name="Trazado 588373" d="M18.157,90.038h41V87.326h-3.3c-1.2,0-2.4.018-3.6-.005-1.154-.022-2.094-.74-3.148-1.087-2.2-.726-4.325-1.678-6.537-2.407a4.508,4.508,0,0,1-2.54-2.607,3.078,3.078,0,0,1,.7-2.659c.72-.671,1.321-1.524,2.458-1.512,2.439-1.146,5.047-1.861,7.517-2.938a5,5,0,0,1,2.2-.512c2.049.072,4.1.024,6.231.024V43.639a4.232,4.232,0,0,0-1.707-.544,12.49,12.49,0,0,1-4-1.488,1.6,1.6,0,0,0-.8-.188c-.969.512-1.284,1.6-2.121,2.39a19.368,19.368,0,0,1,5.15,7.982,16,16,0,0,1,.763,7.2A18.087,18.087,0,0,1,55.1,64.076a18.307,18.307,0,0,1-4.76,6.584c-6.78,5.547-15.8,6.178-23.024.242A17.5,17.5,0,0,1,23.5,47.846c5.135-8.295,15.846-11.107,24.862-5.669l1.931-2.6c-3.177-3.551-5.217-7.55-4.753-12.544H37.915c-1.827,0-3.653.007-5.48,0a8.175,8.175,0,0,1-4.091-.564c-.465-.625-1.463-1.085-1.8-2.145H18.157Z" transform="translate(-9.871 -13.221)" fill="#efcfb3"/>
    <path id="Trazado_588374" data-name="Trazado 588374" d="M19.66,14.972V12.231c-3.345,0-6.645.01-9.945-.009-.568,0-.952.579-1.49.355L6.48,14.321A8.152,8.152,0,0,0,6,18.242q-.007,33.049,0,66.1a4.22,4.22,0,0,0,.1,1.5,4.534,4.534,0,0,0,4.3,3.153q21.578-.055,43.156,0a8.493,8.493,0,0,0,2.446-.535l1.647-1.722c.768-1.851.284-3.878.434-5.928H55.338c0,.655-.053,1.381.01,2.1a2.937,2.937,0,0,1-2.07,3.325c-13.791,0-27.775-.007-41.758.01a2.86,2.86,0,0,1-2.778-2.035c0-21.9,0-43.934.012-65.967a3.04,3.04,0,0,1,.283-1.769,2.53,2.53,0,0,1,2.306-1.5c2.737,0,5.474,0,8.316,0" transform="translate(-3.254 -6.645)" fill="#fee9a6"/>
    <path id="Trazado_588375" data-name="Trazado 588375" d="M108.661,17.069c-1.542-8.51-8.512-11.7-13.931-10.82-6.274,1.019-9.8,5.265-10.664,11.014a11.682,11.682,0,0,0,.87,5.782,12.847,12.847,0,0,0,4.312,5.54,11.261,11.261,0,0,0,4.155,1.9,11.613,11.613,0,0,0,6.935-.329,12.953,12.953,0,0,0,5.577-3.9c1.556-1.792,2.192-3.988,2.823-6.362-.969-.053-1.918-.02-2.863-.026-.962-.006-1.924,0-2.927,0a5.136,5.136,0,0,1-2.026,3.815,6.876,6.876,0,0,1-11.375-5.653,6.57,6.57,0,0,1,6.337-6.367c3.831-.324,6.923,2.674,7.047,5.4Z" transform="translate(-45.655 -3.321)" fill="#e5e8ec"/>
    <path id="Trazado_588376" data-name="Trazado 588376" d="M49.084,71.494h5.5V85.11h3.713a2.974,2.974,0,0,0,.784-1.4,15.479,15.479,0,0,0,.993-4.2,12.8,12.8,0,0,0-.086-3.54,18.9,18.9,0,0,0-2.3-5.892,11,11,0,0,0-2.207-2.672A15.559,15.559,0,0,0,44.36,63.252a16.156,16.156,0,0,0-8.092,2.791,14.381,14.381,0,0,0-3.883,4.016,11.14,11.14,0,0,0-1.7,3.392,15.337,15.337,0,0,0-.725,6.038,10.37,10.37,0,0,0,.479,2.54c.418,1.022.456,2.217,1.3,3.109h3.659V76.991h5.5V68.778h8.179Z" transform="translate(-16.246 -34.38)" fill="#e5e8ec"/>
    <path id="Trazado_588377" data-name="Trazado 588377" d="M147.577,91.506c5.457-.185,9.768-4.076,9.73-9.684a9.447,9.447,0,0,0-9.7-9.5,9.223,9.223,0,0,0-6.7,2.845,9.584,9.584,0,0,0-1.513,11.518,7.881,7.881,0,0,0,3.587,3.585,8.749,8.749,0,0,0,4.6,1.232" transform="translate(-75.092 -39.32)" fill="#e5e8ec"/>
    <path id="Trazado_588378" data-name="Trazado 588378" d="M61.249,10.225V7.151l-.791-.791H42.865l-.785.818V13.7l.892.793H59.086c.653-1.49,1.019-3.083,2.162-4.265" transform="translate(-22.877 -3.458)" fill="#b3dc7e"/>
    <path id="Trazado_588379" data-name="Trazado 588379" d="M37.818,117.345a14.932,14.932,0,0,0,22.835.264.667.667,0,0,0-.058-.146c-.031-.046-.08-.112-.121-.113-7.461,0-14.921,0-22.656,0" transform="translate(-20.56 -63.796)" fill="#e5e8ec"/>
    <path id="Trazado_588380" data-name="Trazado 588380" d="M116.882,64.945c-.789.581-1.88-.1-2.629.826V95.677h2.629Z" transform="translate(-62.115 -35.308)" fill="#fee9a6"/>
    <path id="Trazado_588381" data-name="Trazado 588381" d="M123.539,150.434H96.25v2.552c1.445.247,21.4.336,27.289.11Z" transform="translate(-52.327 -81.785)" fill="#4fc0e8"/>
    <path id="Trazado_588382" data-name="Trazado 588382" d="M96.183,138.488v2.629h27.34c.093-.811.013-1.694.047-2.629Z" transform="translate(-52.291 -75.29)" fill="#b3dc7f"/>
    <path id="Trazado_588383" data-name="Trazado 588383" d="M168.2,138.686c-1.861-.732-3.836-.2-5.848-.429v8.295c1.978-.153,3.984.29,5.995-.44l1.755-1.755c-.083-.673.423-1.192.444-1.88s-.513-1.228-.383-1.936l-1.963-1.854" transform="translate(-88.264 -75.165)" fill="#a9b1bc"/>
    <path id="Trazado_588384" data-name="Trazado 588384" d="M104.88,29.767V27.008h5.212c-.434-1.15-1.4-1.617-1.879-2.257a4.475,4.475,0,0,0-4.128.133c-2.26,1.73-2.268,3.182-1.637,5.266.771.755,1.213,1.838,2.508,2.047a6.492,6.492,0,0,0,3.146-.032l2.174-2.179a7.592,7.592,0,0,0-2.69-.211c-.854-.037-1.712-.008-2.7-.008" transform="translate(-55.502 -13.217)" fill="#fd816d"/>
    <path id="Trazado_588385" data-name="Trazado 588385" d="M60.137,81.442V95.025h2.7c.041-2.191.013-4.448.018-6.7.005-2.273,0-4.546,0-6.878Z" transform="translate(-32.694 -44.277)" fill="#fbd670"/>
    <path id="Trazado_588386" data-name="Trazado 588386" d="M80.2,146.56v-6.842c-2.644.994-5.2,1.952-7.748,2.916a3.435,3.435,0,0,0-.454.225,1.374,1.374,0,0,0,1.333,1.324c1.218.111,2.153.892,3.317,1.134a18.594,18.594,0,0,1,3.2,1.314c.081.033.206-.039.348-.07" transform="translate(-39.143 -75.959)" fill="#a9b1bb"/>
    <path id="Trazado_588387" data-name="Trazado 588387" d="M74.843,87.385H72.21V98.213c.81.275,1.7-.026,2.633.158Z" transform="translate(-39.258 -47.508)" fill="#fbd670"/>
    <path id="Trazado_588388" data-name="Trazado 588388" d="M48.192,104.752h2.626v-5.4c-.808-.132-1.692,0-2.626-.075Z" transform="translate(-26.2 -53.972)" fill="#fbd670"/>
    <path id="Trazado_588389" data-name="Trazado 588389" d="M161.4,36.4c.175,1.028.921,1.724,1.133,2.651h5.077c-.167-1-.893-1.707-1.1-2.651Z" transform="translate(-87.748 -19.788)" fill="#cd9d75"/>
    <path id="Trazado_588390" data-name="Trazado 588390" d="M161.178,26.9h5.106l1.3-2.543c-1.769-.246-3.441-.051-5.1-.134l-1.3,2.677" transform="translate(-87.626 -13.17)" fill="#cd9d75"/>
    <path id="Trazado_588391" data-name="Trazado 588391" d="M40.445,159.134V156.5H24.07c-.091.815-.013,1.7-.047,2.632Z" transform="translate(-13.06 -85.084)"/>
    <path id="Trazado_588392" data-name="Trazado 588392" d="M40.444,147.123v-2.634H24.07c-.09.816-.014,1.7-.047,2.634Z" transform="translate(-13.06 -78.553)"/>
    <path id="Trazado_588393" data-name="Trazado 588393" d="M36.12,48.4v2.627H52.5c.093-.81.012-1.691.047-2.627Z" transform="translate(-19.637 -26.314)"/>
    <path id="Trazado_588394" data-name="Trazado 588394" d="M52.459,39.017V36.391H36.083c-.093.808-.012,1.69-.047,2.626Z" transform="translate(-19.591 -19.784)"/>
    <path id="Trazado_588395" data-name="Trazado 588395" d="M26.793,48.34H24.166V51c.809.146,1.693-.006,2.627.083Z" transform="translate(-13.138 -26.281)"/>
    <path id="Trazado_588396" data-name="Trazado 588396" d="M26.721,36.266H24.075c-.1.863-.016,1.743-.051,2.681h2.693a13.311,13.311,0,0,0,0-2.681" transform="translate(-13.061 -19.716)"/>
    <path id="Trazado_588397" data-name="Trazado 588397" d="M148.607,78.31h-1.755a5.061,5.061,0,0,0-2.621,2.764v8.319a6.137,6.137,0,0,0,2.539,2.618h1.888c2.021-1.008,3.9-1.98,5.808-2.883,1.472-.7,2.957-1.337,3.44-3.11v-1.7c-.113-.185-.283-.3-.36-.54a3.35,3.35,0,0,0-1.922-2.051c-2.292-1.08-4.559-2.214-7.017-3.414" transform="translate(-78.413 -42.574)"/>
    <path id="Trazado_588398" data-name="Trazado 588398" d="M150.208,84.857v7.215a.989.989,0,0,0,1.437.286q2.7-1.5,5.514-2.767a8.813,8.813,0,0,0,1.375-1.026,3.745,3.745,0,0,0-1.324-1.193c-1.831-.941-3.7-1.8-5.514-2.771a1,1,0,0,0-1.488.256" transform="translate(-81.662 -45.875)" fill="#fd816d"/>
  </g>
</svg>
