<svg id="Grupo_850407" data-name="Grupo 850407" xmlns="http://www.w3.org/2000/svg" xmlns:xlink="http://www.w3.org/1999/xlink" width="84" height="84.167" viewBox="0 0 84 84.167">
  <defs>
    <clipPath id="clip-path">
      <rect id="Rectángulo_39432" data-name="Rectángulo 39432" width="84" height="84.167" fill="none"/>
    </clipPath>
  </defs>
  <g id="Grupo_850406" data-name="Grupo 850406" clip-path="url(#clip-path)">
    <path id="Trazado_588329" data-name="Trazado 588329" d="M20.954,49.816l-3.072-8.76a2.419,2.419,0,0,1,1.629-.667l1.675-1.678a5.6,5.6,0,0,0,.3-4.043L19.623,32.8a13.3,13.3,0,0,0,4.1-5.757,11.885,11.885,0,0,0,.624-5.312,15.252,15.252,0,0,0-1-3.474,11.017,11.017,0,0,0-3.813-4.832,11.786,11.786,0,0,0-8.259-2.487,11.659,11.659,0,0,0-6.526,2.588,11.283,11.283,0,0,0-3.531,4.446A13.988,13.988,0,0,0,0,23.235a14.108,14.108,0,0,0,1.351,5.377c.732,1.8,2.265,2.906,3.393,4.193l-1.833,1.83c.085.53.34,1.006-.234,1.169.247,2.757-.312,5.505.406,8.2l1.791,1.794c1.031.1,2.045.909,3.114.074.326.3.143.719.144,1.083.014,4.745.029,9.489,0,14.234A9.869,9.869,0,0,0,9.75,66.278a9.445,9.445,0,0,0,4.95,3.807c-2.1,1.484-3.958,3.108-6.054,4.392a4.986,4.986,0,0,0-5.135-.837A5.4,5.4,0,0,0,.025,78.271a5.252,5.252,0,0,0,3.006,5.317,4.824,4.824,0,0,0,2.3.579c20.695-.019,41.39.023,62.084-.057a15.142,15.142,0,0,0,8.331-2.73,17.935,17.935,0,0,0,3.182-2.53,17.484,17.484,0,0,0,4.076-6.785,7.462,7.462,0,0,0,.576-2.458c-.019-.583.544-.94.39-1.561a6.552,6.552,0,0,1-.024-1.519A17.982,17.982,0,0,0,80.5,56.092a17.071,17.071,0,0,0-8.843-6.38,12.135,12.135,0,0,0-5.7-.781c-3.807-4.883-8.507-8.215-14.781-9.27-.261-.187.137-.679-.242-.978-.356-.282-.02-.749-.248-1.2a10.245,10.245,0,0,0,4.19-3.047,12.689,12.689,0,0,0,1.956-4.44A5.536,5.536,0,0,0,61.7,26.94a5.639,5.639,0,0,0-.342-5.668c.59-.382-.1-1.284.584-1.691a8.814,8.814,0,0,1,.324-2.231,10.835,10.835,0,0,0-.031-3.206,26.49,26.49,0,0,0-.765-3.23,17.09,17.09,0,0,0-1.634-3.549,16.126,16.126,0,0,0-7.531-6.182A16.94,16.94,0,0,0,49.254.341,24.7,24.7,0,0,0,45.319.092a20.077,20.077,0,0,0-4.053.03,17.445,17.445,0,0,0-7.7,3.065,18.188,18.188,0,0,0-3.859,4,14.441,14.441,0,0,0-1.927,4.1,14.107,14.107,0,0,0-.638,6.149,15.083,15.083,0,0,0,.9,3.867,5.444,5.444,0,0,0-.572,5.306,5.326,5.326,0,0,0,4.294,3.278c.408.061.754.1.956.388.746,3.377,2.548,5.8,5.668,6.98.532,1.017-.1,1.636-.422,2.353a28.612,28.612,0,0,0-9.266,3.45c-2.96,1.727-5.307,4.21-7.746,6.752" transform="translate(0 0)"/>
    <path id="Trazado_588330" data-name="Trazado 588330" d="M162.927,30.274H144.092V32.8c1.417.24,13.551.316,18.835.106Z" transform="translate(-79.036 -16.606)"/>
    <path id="Trazado_588331" data-name="Trazado 588331" d="M162.872,20.926V18.318H143.992c-.089.81-.014,1.684-.047,2.608Z" transform="translate(-78.955 -10.048)"/>
    <path id="Trazado_588332" data-name="Trazado 588332" d="M172.744,44.954v-2.6H161.981c-.09.8-.012,1.675-.046,2.6Z" transform="translate(-88.823 -23.231)"/>
    <path id="Trazado_588333" data-name="Trazado 588333" d="M149.317,42.23H144c-.1.854-.017,1.725-.052,2.652h5.365a12.808,12.808,0,0,0,.008-2.652" transform="translate(-78.955 -23.164)"/>
    <path id="Trazado_588334" data-name="Trazado 588334" d="M152.606,54.243h-2.614c-.095.855-.016,1.725-.051,2.653H152.6a13.174,13.174,0,0,0,0-2.653" transform="translate(-82.245 -29.753)"/>
    <path id="Trazado_588335" data-name="Trazado 588335" d="M164.6,54.243h-2.614c-.095.855-.016,1.725-.051,2.653H164.6a13.175,13.175,0,0,0,0-2.653" transform="translate(-88.823 -29.753)"/>
    <path id="Trazado_588336" data-name="Trazado 588336" d="M176.593,54.243H173.98c-.095.855-.016,1.725-.051,2.653h2.661a13.174,13.174,0,0,0,0-2.653" transform="translate(-95.402 -29.753)"/>
    <path id="Trazado_588337" data-name="Trazado 588337" d="M83.04,26.665c0,.169-.07.433.011.493.907.677,1.115,2.047,2.57,2.253a9.886,9.886,0,0,1-1.685,2.27c-1.686-.607-2.326-2.265-3.576-3.458l-1.9,1.817a8.922,8.922,0,0,0-.5,4.114c-.008,2.987.042,5.975-.03,8.961-.021.849.567,1.546.39,2.387a10.9,10.9,0,0,0,2.293,2.875,7.546,7.546,0,0,0,4.515,1.345c1.744-.023,3.489,0,5.233-.007a6.994,6.994,0,0,0,4.475-1.826A6.688,6.688,0,0,0,96.909,43c.021-4.051.006-8.1.006-12.12.35-.255.695-.106,1.015-.15.732-1.586-.568-2.306-1.41-3.163a3.1,3.1,0,0,0-2.534-1.024c-.639.542-.134,1,.125,1.459.354.635,1.005,1.052,1.3,1.712a1.3,1.3,0,0,1-.867,1.259,6.789,6.789,0,0,1-2.657-2.827c-.391-.6-.551-1.368-1.248-1.754a2.8,2.8,0,0,0-1.984.007c-.744.539-.279,1.063.025,1.585.365.627.987,1.064,1.3,1.717a1.288,1.288,0,0,1-.815,1.265c-1.333-.554-2.007-1.782-2.756-2.938-.386-.6-.546-1.37-1.3-1.685a2.035,2.035,0,0,0-2.07.317" transform="translate(-42.748 -14.379)" fill="#efcfb3"/>
    <path id="Trazado_588338" data-name="Trazado 588338" d="M56.6,110.663a5.765,5.765,0,0,1,2.745,5.9l4.965,2.485a13.909,13.909,0,0,0,1.138-3.511c.524-1.821.966-3.667,1.457-5.5.409-1.523.814-3.048,1.272-4.557a8.7,8.7,0,0,1,.694-2.31c-.611-.783-.677-1.833-1.26-2.8l-3.491,2.1-2.448-5.98c-3.281.125-10.131,5.089-12.708,9.483.424,1.718,1.356,3.25,1.726,5.112a4.977,4.977,0,0,1,3.242-1.107v-2.693H56.6Z" transform="translate(-26.855 -52.921)" fill="#b3dc7e"/>
    <path id="Trazado_588339" data-name="Trazado 588339" d="M76.5,15.669h2.369c.517-1.087-.555-2.2.027-3.273a.894.894,0,0,1,1.2-.065c.907.987.108,2.841,1.819,3.338h2.369c.516-1.087-.555-2.2.027-3.273a.893.893,0,0,1,1.2-.065c.908.987.108,2.841,1.82,3.338.338-.025.508.293.842.372a4.567,4.567,0,0,1,3.219,3.7h1.54c.3.393.11.856.145,1.284s.008.886.008,1.5c.855-.387,1.454.419,2.228.242a11.974,11.974,0,0,0,.492-4.057A10.54,10.54,0,0,0,95,14.8a19.734,19.734,0,0,0-1.913-3.457C91.6,9.2,89.473,8.068,87.265,7a9.08,9.08,0,0,0-1.819-.52c-2.036-.486-4.085-.217-6.125-.3a12.513,12.513,0,0,0-7.25,2.075,10.037,10.037,0,0,0-3.2,2.934,16.873,16.873,0,0,0-2.23,4.341,10.665,10.665,0,0,0-.3,6.205,4.886,4.886,0,0,1,.009,1.019c.861.168,1.489-.585,2.362-.212-.164-3.592.835-6.4,4.439-7.754a5.932,5.932,0,0,1-.269-3.151c.756-.086,1.628-.008,2.629-.045a8.3,8.3,0,0,0,.651,3.811c.062.169.127.306.341.268" transform="translate(-36.208 -3.382)" fill="#b17846"/>
    <path id="Trazado_588340" data-name="Trazado 588340" d="M120.26,158.056c1.652,2.753,4.424,4.217,7.282,5.569,4.339.886,4.365,1.018,9.422,0,2.905-1.3,5.658-2.8,7.478-5.658l-11.9-6.89a1.568,1.568,0,0,0-1.189.411,13.012,13.012,0,0,1-2.432,1.457c-2.017,1.011-3.823,2.407-5.933,3.245-.763.871-1.976,1.036-2.724,1.865" transform="translate(-65.964 -82.862)" fill="#fbd670"/>
    <path id="Trazado_588341" data-name="Trazado 588341" d="M150.071,128.461l11.837,6.841c.34-.08.511-.334.653-.754a17.461,17.461,0,0,0,1-6.858c-.02-.292-.931-3.842-1.067-4.124a19.179,19.179,0,0,0-2.885-4.543,11.6,11.6,0,0,0-3.442-2.673,14.254,14.254,0,0,0-3.749-1.573,4.875,4.875,0,0,0-1.279-.117c-.414.037-.555-.669-1.067-.234Z" transform="translate(-82.316 -62.686)" fill="#fe816e"/>
    <path id="Trazado_588342" data-name="Trazado 588342" d="M113.987,131.265c1,1.022,2.164,1.961,2.433,3.634,1.514-.839,2.938-1.611,4.344-2.414,1-.574,1.976-1.2,2.975-1.785,1.225-.712,2.464-1.4,3.7-2.1V114.519a14.189,14.189,0,0,0-9.353,4.458,14.983,14.983,0,0,0-4.1,12.288" transform="translate(-62.466 -62.815)" fill="#69d5f3"/>
    <path id="Trazado_588343" data-name="Trazado 588343" d="M30.786,122.546l4.389-3.323c-.292-1.191-.706-2.452-.062-3.756l-5.582-15.8a5.337,5.337,0,0,1-2.424,3.49c-.83.177-1.867.854-2.991.095-.29.332-.125.743-.126,1.115-.014,3.835-.023,7.671,0,11.507a6.222,6.222,0,0,0,1.73,4.189,7.953,7.953,0,0,0,3.612,2.315c.573.186,1.088,0,1.455.168" transform="translate(-13.134 -54.67)" fill="#b3dc7e"/>
    <path id="Trazado_588344" data-name="Trazado 588344" d="M25.009,39.072a9.528,9.528,0,0,0-2.957-6.219,9.193,9.193,0,0,0-6.693-2.618,9.177,9.177,0,0,0-6.6,2.846,9.037,9.037,0,0,0-2.688,6.845,9.213,9.213,0,0,0,3,6.714,9.074,9.074,0,0,0,6.717,2.551c5.116-.186,9.159-4.066,9.231-10.119" transform="translate(-3.325 -16.582)" fill="#fbd66f"/>
    <path id="Trazado_588345" data-name="Trazado 588345" d="M109.662,102.427a4.384,4.384,0,0,0-.625-.615c-.9-.531-1.82-1.038-2.749-1.562-.749.75-.533,1.944-1.294,2.577l2.581,9.53c.969-1.186,1.494-2.5,2.288-3.63a16.807,16.807,0,0,1,2.94-3.144,23.711,23.711,0,0,1,3.622-2.237,12.9,12.9,0,0,1,3.934-1.276,19.984,19.984,0,0,0-8.143-5.906l-2.554,6.264" transform="translate(-57.59 -52.746)" fill="#b3dc7e"/>
    <path id="Trazado_588346" data-name="Trazado 588346" d="M93.393,114.214a24.232,24.232,0,0,0-1.735,5.229c-.45,1.78-1,3.534-1.49,5.3s-.954,3.54-1.437,5.338l4.517,2.234c1.308-.866,2.428-1.945,4.078-1.794.469-2.375-.481-4.493-.993-6.665-.361-1.531-.873-3.025-1.272-4.547a33.43,33.43,0,0,0-1.667-5.1" transform="translate(-48.67 -62.648)" fill="#e5e8ec"/>
    <path id="Trazado_588347" data-name="Trazado 588347" d="M54.142,163.08h5.306V149.02a16.508,16.508,0,0,1-2.672.564,6.951,6.951,0,0,1-2.634-.683Z" transform="translate(-29.697 -81.674)" fill="#fee9a6"/>
    <path id="Trazado_588348" data-name="Trazado 588348" d="M77.486,162.465v-12l-5.306-2.646v14.642Z" transform="translate(-39.592 -81.083)" fill="#fee9a6"/>
    <path id="Trazado_588349" data-name="Trazado 588349" d="M36.094,155.275v8.979h5.3V151.073c-1.7,1.547-3.711,2.6-5.3,4.2" transform="translate(-19.798 -82.865)" fill="#fee9a6"/>
    <path id="Trazado_588350" data-name="Trazado 588350" d="M90.056,156.742V167.36h5.3v-3.492a5.454,5.454,0,0,1-2.6-5.757l-2.709-1.369" transform="translate(-49.397 -85.975)" fill="#fee9a6"/>
    <path id="Trazado_588351" data-name="Trazado 588351" d="M26.8,88.26V78.3c-.861-.1-1.735-.02-2.657-.053V88.284l.784.819h1.032l.842-.843" transform="translate(-13.241 -42.922)" fill="#959ea9"/>
    <path id="Trazado_588352" data-name="Trazado 588352" d="M8.023,168.369a2.841,2.841,0,0,0-2.043,3.315,2.93,2.93,0,0,0,2.172,2.08H9.511a3.015,3.015,0,0,0,1.818-1.839,2.877,2.877,0,0,0-1.972-3.555Z" transform="translate(-3.256 -92.352)" fill="#fc806c"/>
    <path id="Trazado_588353" data-name="Trazado 588353" d="M107.3,159.859a3,3,0,0,0-2.08-3.631c-2.207-.347-3.7,1.347-3.276,3.612,1.236,2.575,4.212,2.48,5.356.019" transform="translate(-55.877 -85.668)" fill="#fc806c"/>
    <path id="Trazado_588354" data-name="Trazado 588354" d="M59.461,134.318a2.835,2.835,0,0,0-3.309-2.046,2.929,2.929,0,0,0-2.076,2.175v1.362a3.013,3.013,0,0,0,1.836,1.82,2.871,2.871,0,0,0,3.549-1.975Z" transform="translate(-29.661 -72.529)" fill="#fc806c"/>
    <path id="Trazado_588355" data-name="Trazado 588355" d="M91.141,84.394c-.219.656-.662,1.209-.264,2.031.911.472,1.928,1.01,2.955,1.526a1.328,1.328,0,0,0,1.249-.007c1.024-.525,2.043-1.058,2.957-1.533.386-.822-.073-1.369-.283-2.018Z" transform="translate(-49.759 -46.291)" fill="#eeceb2"/>
    <path id="Trazado_588356" data-name="Trazado 588356" d="M12.941,86.461h.979l.8-.951V79.1l-.9-.516.169-.217H12.8l-.771,1.322v5.935l.908.832" transform="translate(-6.6 -42.987)" fill="#eeceb3"/>
    <path id="Trazado_588357" data-name="Trazado 588357" d="M111.611,171.423c-1.07.7-2.09,1.491-3.518,1.312v2.651h8.125c-1.914-1.022-3.181-2.6-4.606-3.963" transform="translate(-59.29 -94.027)" fill="#fde8a6"/>
    <path id="Trazado_588358" data-name="Trazado 588358" d="M22.811,166.791a5.39,5.39,0,0,1-.294,4.747c1.092.066,2.174,0,3.322.038v-7.264a20.736,20.736,0,0,1-3.027,2.478" transform="translate(-12.351 -90.127)" fill="#fde8a6"/>
    <path id="Trazado_588359" data-name="Trazado 588359" d="M66,50.2c0,2.417.756,3.384,2.665,3.414V48.332c-1.378-.185-2.045.729-2.665,1.869" transform="translate(-36.204 -26.498)" fill="#ebccb0"/>
    <path id="Trazado_588360" data-name="Trazado 588360" d="M128.751,50.222c-.582-1.194-1.264-2.026-2.649-1.976v5.34c1.907-.051,2.649-1.005,2.649-3.364" transform="translate(-69.168 -26.462)" fill="#ebccb0"/>
    <path id="Trazado_588361" data-name="Trazado 588361" d="M108.457,96.647a5.8,5.8,0,0,0,1.149-2.948,2.689,2.689,0,0,1-1.377-.454l-2.872,1.487,3.1,1.915" transform="translate(-57.789 -51.146)" fill="#9bcd65"/>
    <path id="Trazado_588362" data-name="Trazado 588362" d="M84.594,93.132c-.38.439-.9.358-1.4.527a5.725,5.725,0,0,0,1.144,2.907l2.981-1.787c-.775-.862-1.9-.974-2.727-1.647" transform="translate(-45.634 -51.084)" fill="#9acd64"/>
    <path id="Trazado_588363" data-name="Trazado 588363" d="M98.746,100.964c-.354-.715-1.061-.585-1.313-1.082-.561.337-1.108.454-1.5.956a5.092,5.092,0,0,0,1.347,2.975c1.1-.789,1-2.016,1.462-2.849" transform="translate(-52.623 -54.786)" fill="#c5cad2"/>
    <path id="Trazado_588364" data-name="Trazado 588364" d="M36.021,79.38v.757l1.233.881h.655l.8-.962v-.944l-.987-.763h-.9l-.8,1.03" transform="translate(-19.758 -42.976)" fill="#e6c8ad"/>
    <path id="Trazado_588365" data-name="Trazado 588365" d="M100.766,60.352h-2.54a2.953,2.953,0,0,1-2.243,2.707H90.077V65.73c2.053,0,4.116.055,6.174-.018a5.491,5.491,0,0,0,4.263-3.466c.171-.591.647-1.166.253-1.894" transform="translate(-49.408 -33.104)" fill="#010100"/>
    <path id="Trazado_588366" data-name="Trazado 588366" d="M96.694,22.319c-.888-.753-.74-1.878-1-2.851a4.823,4.823,0,0,1-.015-1.177H93.047a6.934,6.934,0,0,0,.6,4.028,8.614,8.614,0,0,0,3.876,5.074c.731-.522,1.008-1.381,1.54-1.968a.587.587,0,0,0-.381-.583c-1.05-.389-1.3-1.484-1.982-2.193-.056-.059-.007-.218-.007-.33" transform="translate(-50.987 -10.033)" fill="#020101"/>
    <path id="Trazado_588367" data-name="Trazado 588367" d="M108.688,22.319c-.888-.753-.741-1.878-1-2.851a4.822,4.822,0,0,1-.015-1.177h-2.631a6.934,6.934,0,0,0,.6,4.028,8.614,8.614,0,0,0,3.876,5.074c.731-.522,1.008-1.381,1.54-1.968a.587.587,0,0,0-.381-.583c-1.05-.389-1.3-1.484-1.982-2.193-.056-.059-.007-.218-.007-.33" transform="translate(-57.566 -10.033)" fill="#020101"/>
    <path id="Trazado_588368" data-name="Trazado 588368" d="M86.719,43.761v-.7l-1.193-.833h-.675l-.826.859v1.043l.936.781h.975l.782-1.151" transform="translate(-46.089 -23.163)" fill="#090706"/>
    <path id="Trazado_588369" data-name="Trazado 588369" d="M109.861,42.23h-1.025l-.822.887v1.016l.942.779h.95l.8-.928v-.956l-1.041-.6.195-.2" transform="translate(-59.247 -23.164)" fill="#090706"/>
    <path id="Trazado_588370" data-name="Trazado 588370" d="M25.584,43.091a6.656,6.656,0,0,0-6.735-6.845A6.769,6.769,0,0,0,18.7,49.783a6.652,6.652,0,0,0,6.887-6.692" transform="translate(-6.614 -19.881)"/>
    <path id="Trazado_588371" data-name="Trazado 588371" d="M24.005,42.547c-.671.109-1.192-.4-1.876-.41s-1.2.569-1.852.356l-1.7,1.7a4.4,4.4,0,0,0-.009,4.093l1.665,1.593a4.206,4.206,0,0,0,3.951-.116l1.648-1.65c-.118-.672.37-1.211.378-1.891s-.524-1.2-.417-1.876l-1.793-1.8" transform="translate(-9.913 -23.113)" fill="#68d5f3"/>
  </g>
</svg>
