<svg id="Grupo_850447" data-name="Grupo 850447" xmlns="http://www.w3.org/2000/svg" xmlns:xlink="http://www.w3.org/1999/xlink" width="118.331" height="126.21" viewBox="0 0 118.331 126.21">
  <defs>
    <clipPath id="clip-path">
      <rect id="Rect치ngulo_39453" data-name="Rect치ngulo 39453" width="118.331" height="126.21" fill="none"/>
    </clipPath>
  </defs>
  <g id="Grupo_850446" data-name="Grupo 850446" clip-path="url(#clip-path)">
    <path id="Trazado_588513" data-name="Trazado 588513" d="M105.474,20.212c1.042.219,1.328-.777,1.972-1.225q0-7.5,0-15.018c0-2.383-.158-2.655-2.214-3.968H24.775a10.5,10.5,0,0,1-.733.835,4.317,4.317,0,0,0-1.4,3.376c.045,10.348.024,20.7.024,31.285q-2.655,0-5.324,0c-4.046-.005-6.24,2.243-7.517,5.547a6.576,6.576,0,0,0,.2,5.2c.78,1.8,1.788,3.46,3.884,4.063.426.123.731.573,1.3.586v4.638c-.328.276-.557.791-1.174.674a10.387,10.387,0,0,0-1.25,5.153c.089,3.858.027,7.72.027,11.58,0,2.586.471,3.688,2.4,5.64v4.178a15.45,15.45,0,0,0-4.2,3.068C9.8,87.117,9.688,88.766,9.4,90.326A5.467,5.467,0,0,0,10.7,94.676,10.939,10.939,0,0,0,14.641,98.1c1.206-.441,2.38.615,3.759.52s2.76-.02,4.2-.02v6.306H6.75l-2.3,2.39c.338.883-.762,1.488-.546,2.459a11.333,11.333,0,0,1,.035,2.426c-.539.439-1.134.124-1.739.239L0,114.7v9.71l1.71,1.8H104.926a3.6,3.6,0,0,0,2.52-2.533V75.062a7.252,7.252,0,0,1,2.591-.11c3.668.112,6.081-1.761,7.731-4.828a2.6,2.6,0,0,1,.521-.849,29.112,29.112,0,0,1,.018-3.118c.321-3.013-2.682-6.231-5.813-7.038a21.18,21.18,0,0,0-5.009-.457V25.868c-.423-.225-.522-.749-1.026-.726a2.145,2.145,0,0,0-2.157-.064c-1.285,1.057-1.1,2.6-1.1,4.048-.033,8.275-.006,16.549-.024,24.824a6.671,6.671,0,0,1-.531,3.573c-2.183.651-4.565.217-6.9.326a22,22,0,0,0-3.917.219,2.974,2.974,0,0,0-2.6,2.275c.523,2.374,1.174,2.944,3.9,3,4.808.1,9.619.021,14.429.035.815,0,1.631-.014,2.444.061,2.227.207,3.625,1.321,3.931,3.614-.843,2.654-1.484,3.137-4.725,3.149-10.83.038-21.659.016-32.489.011a5.022,5.022,0,0,1-2.523-.458,9.289,9.289,0,0,1-.1-5.809c1.235-.8,2.516-.431,3.712-.61a40.583,40.583,0,0,0,4.164,0c1.626-.086,2.843-.708,3.168-2.468a2.785,2.785,0,0,0-3.109-2.806c-4.376.009-8.641-.284-13.078,1.232a19.377,19.377,0,0,1-13.481-.385c-3.269-1.324-6.533-1.55-9.73.158-2.424,1.295-4.917.814-7.484.641-.715-1.59-1.336-3.093-2.07-4.542a3.407,3.407,0,0,1,1.058-4.594,9.4,9.4,0,0,0,3.739-4.755c1.5-5.244-1.56-9.906-7.239-11-1.921-.281-3.917.194-6.177-.637-.284-9.61-.146-19.265-.1-28.827,2.115-.946,3.948-.443,5.7-.671,5.334.2,10.667.073,16,.079q24.738.032,49.476.016a9.461,9.461,0,0,1,3.892.37c.831.886.609,2,.628,3.037.055,2.954-.083,5.912.074,8.861.077,1.457.14,3.078,2.244,3.167"/>
    <path id="Trazado_588514" data-name="Trazado 588514" d="M106.532,62.7c-.245-1.364,1.128-1.315,1.808-2.038H120.8V27.976l.764-.772h1.728c.054-.668-.573-.369-.985-.725V22.274c-.713-.136-.932-.865-1.544-1.264V6.005H49.85a3.787,3.787,0,0,0-.809,2.75c-.03,8.572-.046,17.144.009,25.715.009,1.338.15,2.661,1.785,3.087,3.061.573,5.214,2.27,6.5,5.723.056.28-.486,1.257.539,2.053-.919.777-.557,1.869-.639,2.812a11.636,11.636,0,0,1-5.4,4.917v4.47l1.954,1.834v3.254h8.214a7.119,7.119,0,0,1,2.341-1.891,32.916,32.916,0,0,0,3.92-.035c1.25-.151,2.308.532,3.542.54l1.325,1.416H86.126c1.126-1.582,2.908-1.969,4.9-1.934,2.954.051,5.909.013,8.855.013a1.1,1.1,0,0,0,1.03.533q.347.719.692,1.439a4.133,4.133,0,0,0,4.929,0" transform="translate(-16.83 -2.062)" fill="#fef2dd"/>
    <path id="Trazado_588515" data-name="Trazado 588515" d="M59.7,143.171c.3.066.633-.135.919.169.62.657,1.272,1.284,2,2.01v4.491c.426.23.565.62,1.026.747,2.733.754,3.445,1.714,3.449,4.489,0,1.718,0,3.437,0,5.252h53.677V113.181H88.13l-2.03-2.03H73.224l-1.716,1.892H63.973c-.707-.511-1.911-.621-1.986-1.909H53.927v2.887c-.722.947-.8,2.189-2.108,2.187v4.567c1.021,1.076,2.675,1.258,3.626,2.554a7.058,7.058,0,0,1,1.764,3.7c.043.77.9,1.269.437,2.225-.7,1.428-.829,3.1-1.942,4.374a9.748,9.748,0,0,1-3.433,2.435c-.777.35-1.741.03-2.424.693-1.237,1.921-.925,3.868-.231,5.905,3.417.678,6.8-.194,10.089.5" transform="translate(-16.828 -38.161)" fill="#fef2dd"/>
    <path id="Trazado_588516" data-name="Trazado 588516" d="M51.02,181.394c.487.038.492-.3.492-.636,0-1.709,0-3.419,0-5.034l-.686-.685h-22.7c-.487-.7-1.482-.985-1.261-2.026a4.133,4.133,0,0,0-4.929,0c-.257,1-.239,1.013-1.234,1.972H14.546c-1.388,2.078-.806,4.187-.444,5.984a2.3,2.3,0,0,0,1.976.659q16.756.013,33.513,0a2.281,2.281,0,0,0,1.429-.238" transform="translate(-4.693 -59.128)" fill="#873e2e"/>
    <path id="Trazado_588517" data-name="Trazado 588517" d="M47.869,37.558c.055-.673-.58-.367-.986-.724V6.005H40.728c-.366,2.106-.487,23.7-.168,31.553Z" transform="translate(-13.864 -2.062)" fill="#fee4c1"/>
    <path id="Trazado_588518" data-name="Trazado 588518" d="M130.013,92.35h-4.929c-.462.594-.467,1.468-1.364,1.972h-5.536c-1.737,3.525-.577,5.688,3.25,5.724,10.153.1,20.309.053,30.463.018,1.242,0,2.487-.077,3.253-1.3a4.471,4.471,0,0,0-4.522-4.433q-9.7-.02-19.393,0c-.45-.647-1.445-.931-1.223-1.972" transform="translate(-40.311 -31.711)" fill="#c96e59"/>
    <path id="Trazado_588519" data-name="Trazado 588519" d="M34.808,105.616H44.9a1.147,1.147,0,0,0,.175-.168.4.4,0,0,0,.08-.211c0-5.242,0-10.483,0-15.89H34.808c-1.188,2.374-1.188,13.895,0,16.269" transform="translate(-11.646 -30.679)" fill="#c96e59"/>
    <path id="Trazado_588520" data-name="Trazado 588520" d="M152.981,99.791c-.529.087-.877.525-1.512.523-11.593-.041-23.185-.03-34.873-.03-1.089-1.552-.365-3.306-.582-4.93h-4.9c-.065,1.344-.023,2.71-.03,4.071-.008,1.384,0,2.766,0,4.31h2.477c11.725,0,23.45-.02,35.175.025a3.773,3.773,0,0,0,3.491-1.588,4.208,4.208,0,0,0,.753-2.382" transform="translate(-38.142 -32.742)" fill="#ba5d4c"/>
    <path id="Trazado_588521" data-name="Trazado 588521" d="M30.606,67.8c3.758,0,7.519-.074,11.276.028,2.259.06,4.046-.469,4.959-2.954.414-1.981-.49-3.641-2.282-4.961H43.421c-4.051-.536-8.118-.154-12.177-.2a2.2,2.2,0,0,0-2.124,2.035c-.463,2.227-.507,4.4,1.487,6.049" transform="translate(-9.908 -20.474)" fill="#c96d58"/>
    <path id="Trazado_588522" data-name="Trazado 588522" d="M31.071,139.884H44.061c.588-.368.914-1.125,1.725-1.161.011-.737.63-1.062.953-1.433a4.909,4.909,0,0,0-1.934-5.133c-.309-.263-.617-.1-.918-.161-4.153-.547-8.323-.112-12.482-.224a2.213,2.213,0,0,0-2.1,1.432,5.358,5.358,0,0,0,1.769,6.68" transform="translate(-9.881 -45.227)" fill="#c96d59"/>
    <path id="Trazado_588523" data-name="Trazado 588523" d="M31.923,105.616V89.347H25.771a1.146,1.146,0,0,0-.173.169.41.41,0,0,0-.079.211c0,5.241,0,10.481,0,15.888Z" transform="translate(-8.762 -30.679)" fill="#ba5d4c"/>
    <path id="Trazado_588524" data-name="Trazado 588524" d="M24.41,170.733h4.929l.986-1.479c3.665-.557,7.352-.139,11.028-.243,2.528-.072,5.061.033,7.662-.056a7.727,7.727,0,0,0,.191-3.395c-9.37.016-18.534-.033-27.567.037a2.246,2.246,0,0,0-.373,2.979c.665.686,1.554.183,2.159.678a1.215,1.215,0,0,1,.986,1.479" transform="translate(-7.163 -56.849)" fill="#c76c58"/>
    <path id="Trazado_588525" data-name="Trazado 588525" d="M48.119,182.851H11.645v-6.409H5.364a13.624,13.624,0,0,0-.12,3.064c-.029,1.055-.007,2.11-.007,3.1l.661.661c.28.227.7.07,1.089.07q19.636.015,39.27-.026c.592,0,1.477.6,1.861-.458" transform="translate(-1.791 -60.586)" fill="#6b3225"/>
    <path id="Trazado_588526" data-name="Trazado 588526" d="M28.122,139.762c-1.737-1.7-1.571-3.863-1.429-6.076.372-.484.447-1.252,1.234-1.812h13.01c.038-.488-.3-.492-.636-.492-5.335,0-10.671-.077-16,.043a4.209,4.209,0,0,0-4.021,2.7c-.294,2.384,0,4.567,2.948,5.635Z" transform="translate(-6.932 -45.104)" fill="#ba5c4b"/>
    <path id="Trazado_588527" data-name="Trazado 588527" d="M27.632,67.666c0-.082.03-.181-.005-.244A9.487,9.487,0,0,1,26.7,61.6c.322-.492.429-1.237,1.231-1.822H40.447c-.087-.824-.733-.475-1.127-.477-5.244-.024-10.492-.016-15.738-.017-1.419.506-2.274,1.709-3.286,2.648-.319,2.5,0,4.671,2.925,5.734Z" transform="translate(-6.935 -20.338)" fill="#b95c4b"/>
    <path id="Trazado_588528" data-name="Trazado 588528" d="M20.376,169.167c-.332-1.046-1.287-.175-1.9-.649v-2.69H45.922v2.69c-.489.376-1.164.139-1.783.142-5.245.024-10.49.005-15.735.029-.394,0-1.039-.347-1.127.477H46.433c.144-1.246.028-2.515.077-3.862H12.054c-.136,1.162-.017,2.431-.072,3.862Z" transform="translate(-4.114 -56.762)" fill="#b45949"/>
    <path id="Trazado_588529" data-name="Trazado 588529" d="M56.793,156.572c-.007-.677-.525-.485-.881-.486-2.938-.012-5.877-.007-8.977-.007v-5.916h-6.4c0,1.022-.008,2.055-.01,3.089,0,1.055,0,2.11,0,3.321Z" transform="translate(-13.916 -51.562)" fill="#fbe2bf"/>
    <path id="Trazado_588530" data-name="Trazado 588530" d="M86.059,98.355c-.477-.037-.492.292-.492.626,0,1.21,0,2.42,0,3.573.414.36.648.754,1.248.749,3.8-.035,7.609-.018,11.568-.018V100.82c-2.658-1.5-5.545-.564-8.322-.729-1.617-.1-3.056-.25-4-1.736" transform="translate(-29.381 -33.772)" fill="#663024"/>
    <path id="Trazado_588531" data-name="Trazado 588531" d="M86.317,98.357v2.2a1.169,1.169,0,0,0,.16.176.385.385,0,0,0,.2.088q5.979.007,11.958,0v-2.2a1.2,1.2,0,0,0-.16-.176.385.385,0,0,0-.2-.088q-5.979-.007-11.958,0" transform="translate(-29.639 -33.773)" fill="#873f2e"/>
    <path id="Trazado_588532" data-name="Trazado 588532" d="M42.865,123.581a.378.378,0,0,0,.484-.389c.022-.97.009-1.941.009-3.063H34.978c-.755,1.657-.755,1.657.01,3.594a38.32,38.32,0,0,0,7.876-.142" transform="translate(-11.817 -41.25)" fill="#833d2c"/>
    <path id="Trazado_588533" data-name="Trazado 588533" d="M34.927,81.535h8.26a26.287,26.287,0,0,0,.156-3.451H34.927a2.573,2.573,0,0,0,0,3.451" transform="translate(-11.765 -26.812)" fill="#863e2d"/>
    <path id="Trazado_588534" data-name="Trazado 588534" d="M40.866,123.581H32.98V120.13H28.594v3.944c3.961,0,7.925,0,11.888-.009a.376.376,0,0,0,.384-.484" transform="translate(-9.818 -41.25)" fill="#693124"/>
    <path id="Trazado_588535" data-name="Trazado 588535" d="M78.583,103.734V95.353H76.119c-1.385,2.743-.728,5.512-.362,8.193a3.076,3.076,0,0,0,2.827.188" transform="translate(-25.848 -32.742)" fill="#c76c57"/>
    <path id="Trazado_588536" data-name="Trazado 588536" d="M56.784,98.356c-.473-.037-.492.288-.492.622,0,1.207,0,2.414,0,3.568l.69.69h7.2V100.82c-1.775-1.387-3.961-.286-6.212-1.114-.349-.152-.666-.854-1.181-1.351" transform="translate(-19.329 -33.772)" fill="#642f23"/>
    <rect id="Rect치ngulo_39452" data-name="Rect치ngulo 39452" width="7.394" height="2.465" transform="translate(37.455 64.584)" fill="#863e2d"/>
    <path id="Trazado_588537" data-name="Trazado 588537" d="M32.936,81.535V78.084H28.617a26.767,26.767,0,0,0-.153,3.451Z" transform="translate(-9.774 -26.812)" fill="#6c3226"/>
    <path id="Trazado_588538" data-name="Trazado 588538" d="M78.25,103.734H75.786V95.353H74.569a1.2,1.2,0,0,0-.173.163.39.39,0,0,0-.085.206c0,2.756,0,5.512,0,8.505,1.187,0,2.374.012,3.562-.01a.376.376,0,0,0,.382-.483" transform="translate(-25.515 -32.742)" fill="#b75b4b"/>
    <path id="Trazado_588539" data-name="Trazado 588539" d="M108.3,37.081a18.792,18.792,0,0,0-4.936-13.213c-.663-.741-1.512-1.251-2.087-2.03a7.365,7.365,0,0,0-2.453-1.848,14.847,14.847,0,0,0-6.687-2.265c-1.169-.055-2.26-.638-3.489-.492A21.837,21.837,0,0,0,75.881,22.7c-2.86,2.642-4.221,6.055-5.52,9.543a6.533,6.533,0,0,0-.079,1.448c-.079.688.317,1.485-.45,2.036-.082.058-.03.307-.035.468a1.976,1.976,0,0,0,.448,1.558c.244.276.013.948.052,1.437a7.376,7.376,0,0,0,.138,1.66,21.209,21.209,0,0,0,3.283,6.772c2.676,3.572,4.954,5.574,9.36,7.091a16.817,16.817,0,0,0,7.949.95,21.843,21.843,0,0,0,9.707-3.917,19.2,19.2,0,0,0,6.3-8.474c.918-2.127,1.576-4.454,1.268-6.189" transform="translate(-23.963 -5.91)"/>
    <path id="Trazado_588540" data-name="Trazado 588540" d="M86.834,150.159l-1.151,1.171v1.718a6.692,6.692,0,0,0,3.565,1.062q15.378-.022,30.754.006a3.835,3.835,0,0,0,3.018-1.2v-2.068a4.384,4.384,0,0,0-2.959-.7q-16.608.023-33.227.009" transform="translate(-29.421 -51.558)" fill="#040303"/>
    <path id="Trazado_588541" data-name="Trazado 588541" d="M123,125.891c-.085-.9.412-1.948-.706-2.69H86.322c-1.014.543-.752,1.408-.737,2.158l1.194,1.25q16.672,0,33.281.013a4.637,4.637,0,0,0,2.945-.731" transform="translate(-29.373 -42.304)"/>
    <path id="Trazado_588542" data-name="Trazado 588542" d="M86.79,163.675,85.594,165v1.434l1.323,1.162c.073,0,.311.024.549.024,5.895,0,11.789-.02,17.684.022a5.814,5.814,0,0,0,2.976-.638c.288-.321-.1-1.044.588-1.039.154-.756-.689-1-.536-1.621-.94-.789-2.065-.669-3.168-.668-6.058,0-12.116,0-18.22,0" transform="translate(-29.391 -56.199)" fill="#050504"/>
    <path id="Trazado_588543" data-name="Trazado 588543" d="M111.566,136.645c-.569.64-1.534,1.053-1.217,2.267l1.295,1.13h19.185l.631-.63v-2.028c-.443-.876-1.214-.739-1.938-.739H111.566" transform="translate(-37.87 -46.918)"/>
    <path id="Trazado_588544" data-name="Trazado 588544" d="M85.7,139.474l.629.63H98.2l1.311-1.76c.142-.584-.718-.973-1.269-1.615H86.3l-.6.6Z" transform="translate(-29.427 -46.949)" fill="#010101"/>
    <path id="Trazado_588545" data-name="Trazado 588545" d="M135,167.643l1.182-1.311v-1.461l-1.37-1.134h-9.795l-.735,1.313-.328-.256v1.685l1.639,1.164Z" transform="translate(-42.563 -56.223)" fill="#060605"/>
    <path id="Trazado_588546" data-name="Trazado 588546" d="M94.067,53.833c3.4.565,6.273-.985,9.027-2.535a14,14,0,0,0,3.674-3.576,14.8,14.8,0,0,0,2.106-4.283c.484-1.315.4-2.733.915-4.049a1.7,1.7,0,0,0-.218-1.833c-.282-.276-.211-.585-.223-.9-.192-4.746-4.466-11.264-10.031-12.41-1.6-1.144-3.435-1-5.25-.986-5.776,1.374-10.818,10.9-9.313,18.218a20.179,20.179,0,0,0,3.841,8.425,10.241,10.241,0,0,0,5.472,3.923" transform="translate(-29.01 -7.984)" fill="#4fc023"/>
    <path id="Trazado_588547" data-name="Trazado 588547" d="M91.072,53.84c-1.2-1.2-2.788-1.9-3.957-3.179a19.744,19.744,0,0,1-4.5-8.48,14.994,14.994,0,0,1-.343-5.7,18.6,18.6,0,0,1,2.759-7.439c1.508-2.479,3.82-4.059,6.038-5.765a14.556,14.556,0,0,0-11.216,5.038,15.29,15.29,0,0,0,.622,21.466A13.1,13.1,0,0,0,91.072,53.84" transform="translate(-26.015 -7.991)" fill="#47a820"/>
    <path id="Trazado_588548" data-name="Trazado 588548" d="M104.563,40.177V39.033l-.717-.717h-1.9l-7.7,7.7L89.273,41.04a6.387,6.387,0,0,0-2.913.9V44c1.716,1.716,3.511,3.5,5.288,5.3a3.829,3.829,0,0,0,2.425,1.376l10.49-10.492" transform="translate(-29.654 -13.157)" fill="#000100"/>
  </g>
</svg>
