<svg id="Grupo_850451" data-name="Grupo 850451" xmlns="http://www.w3.org/2000/svg" xmlns:xlink="http://www.w3.org/1999/xlink" width="137.476" height="137.605" viewBox="0 0 137.476 137.605">
  <defs>
    <clipPath id="clip-path">
      <rect id="Rectángulo_39455" data-name="Rectángulo 39455" width="137.476" height="137.605" fill="none"/>
    </clipPath>
  </defs>
  <g id="Grupo_850450" data-name="Grupo 850450" clip-path="url(#clip-path)">
    <path id="Trazado_588583" data-name="Trazado 588583" d="M80.774,123.487l2.544-2.544c1.15-2.325.891-4.5.892-6.649q.01-15.786,0-31.574V79.945h4.431c0,2.641-.009,5.291,0,7.941.016,3.954,3.216,6.092,7.065,4.747a4.015,4.015,0,0,1,1.045-.011l10.636-12.743c6.578,0,13.4.021,20.222-.013,2.055-.01,4.163.422,6.15-.529l2.826-2.881c1.1-2.282.78-4.645.782-6.97q.015-20.911-.01-41.821c0-2.054.474-4.169-.5-6.183l-3.317-3.091c-1.717-.83-3.982-.56-6.212-.56q-26.715-.01-53.431,0H71.043c-.5-4.715.5-9.478-.675-14.129L67.611.958C65.206-.221,62.842.1,60.518.1Q35.325.085,10.132.112c-2.144,0-4.347-.469-6.451.5L.656,3.83C-.233,5.657.04,7.923.039,10.155q-.009,21.05,0,42.1c0,2.143-.347,4.332,1.027,6.774l2.341,2.342c1.925,1.025,4.01.769,6.055.774,5.443.013,10.887,0,16.327,0,.536,1.708,2.357,2.429,3.084,3.858-.222.826-.772.563-1.171.565-4.245.016-8.49.01-12.735.01a24.706,24.706,0,0,1-3.593-.038c-1.239-.183-2.195.687-3.356.636L5.291,69.912c-1.093,2.364-.819,4.634-.82,6.873q-.014,18,.01,36.005c.007,2.606-.415,5.257.721,7.991l2.571,2.555c2.411,1.183,4.775.852,7.1.859,6.552.018,13.1.007,19.594.007l10.546,12.677c1.623.111,2.992,1.206,4.563.477a6.962,6.962,0,0,0,2.543-1.8,3.822,3.822,0,0,0,1.09-2.882c-.027-2.759-.009-5.517-.009-8.471H55.97c5.814,0,11.628.023,17.442-.011,2.42-.014,4.882.355,7.363-.7" transform="translate(0 0)"/>
    <path id="Trazado_588584" data-name="Trazado 588584" d="M68.092,7.512,66.674,6.155H7.4L6.113,7.693v50.3l1.279,1.28H28.981c2.038,1.947,3.59,4.36,5.479,6.461,2.061,2.291,3.746,4.937,6.284,6.861l.791-.937V59.394H66.605l1.487-1.44Z" transform="translate(-1.601 -1.612)" fill="#efcfb3"/>
    <path id="Trazado_588585" data-name="Trazado 588585" d="M115.119,83.36V95.828l.733.734c2.5-1.656,4.02-4.255,5.961-6.427,1.958-2.192,3.587-4.683,5.755-6.756h26.061l1.329-1.55V31.477l-1.647-1.251H92.965v2.4c0,8.858.032,17.716-.021,26.574-.015,2.418.55,4.9-.526,7.251l-2.542,2.516c-2.031,1.312-3.843,1.072-5.685,1.094V82.05L85.5,83.36Z" transform="translate(-22.043 -7.914)" fill="#fee9a6"/>
    <path id="Trazado_588586" data-name="Trazado 588586" d="M82.947,105.069c-4.227,0-8.271.01-12.316,0-2.058-.007-4.145.257-6.177-.692L61.4,101.311c.368-.836-.788-1.437-.632-2.4a17,17,0,0,0,.027-2.588H47.66c-.464.492-1.1.874-.578,1.692-1.046.951-1.729,2.18-3.221,2.472a6.148,6.148,0,0,1-4.333-.571c-1.491-.817-2.051-2.581-3.371-3.7H13.411l-1.327,1.459v45.972l1.6,1.269h25.73c2.031,1.954,3.591,4.362,5.482,6.465,2.06,2.291,3.744,4.936,6.255,6.84l.816-.868V145.018H81.456l1.49-1.431Z" transform="translate(-3.164 -25.191)" fill="#e5e8ec"/>
    <path id="Trazado_588587" data-name="Trazado 588587" d="M73.392,88.345V84.223c-4.361-.076-8.729-.006-13.193-.042v4.171a76.308,76.308,0,0,0,13.193-.007" transform="translate(-15.762 -22.041)" fill="#f7f9fa"/>
    <path id="Trazado_588588" data-name="Trazado 588588" d="M40.262,58.677c2.44-2.554,5.1-4.618,7.573-6.878,3.328-3.039,6.861-5.857,10.048-9.061a13.756,13.756,0,0,0,3.864-6.146,14.921,14.921,0,0,0-1.734-12.632,13.173,13.173,0,0,0-7.405-5.338,12.657,12.657,0,0,0-11.624,2.24c-.279.206-.428.62-1.135.5C38.4,19.5,35.953,18.814,33.7,18.2a11,11,0,0,0-6.379.427c-4.274,1.488-6.9,4.659-8.725,8.595a16.869,16.869,0,0,0-.544,7.216,24.22,24.22,0,0,0,2.193,6,8.529,8.529,0,0,0,1.293,1.405c2.835,3.237,6.313,5.784,9.393,8.764,2.894,2.8,6.088,5.291,9.33,8.07" transform="translate(-4.681 -4.688)"/>
    <path id="Trazado_588589" data-name="Trazado 588589" d="M102.079,77.413c.656.3.467,1.105.96,1.552A4.618,4.618,0,0,0,106.3,80.48c3.5-.047,7-.015,10.126-.015,1.572-.654,2.672-1.359,3.1-2.85a36.733,36.733,0,0,0,6.023,2.127,23.433,23.433,0,0,0,4.706.752c3.874-.091,7.753-.117,11.626-.007a8.969,8.969,0,0,0,8.951-8.854c-.106-4.521,0-9.046-.03-13.57a8.266,8.266,0,0,0-4.829-7.636,7.14,7.14,0,0,0-3.743-1c-1.289.064-2.583.014-4.07.014.012-1.017-.509-2.059.413-3a8.925,8.925,0,0,0-2.029-7.156,9.048,9.048,0,0,0-7.292-3.19c-.941.013-1.56,1.014-2.537.591-1.208,1.3-2.533,2.434-3.23,4.213-.312.8-.106,1.58-.484,2.291a25.307,25.307,0,0,1-4.738,6.937c-1.9-.957-3.9-.672-5.871-.687-1.845-.015-3.692.034-5.536-.013-2.057-.052-3.619.63-4.4,2.663-.061.157-.252.264-.382.391Z" transform="translate(-26.727 -9.451)"/>
    <path id="Trazado_588590" data-name="Trazado 588590" d="M57.809,119.324a14.188,14.188,0,0,0-.428-5.351,8.941,8.941,0,0,0-7.514-5.751,8.476,8.476,0,0,0-8.709,4.837,6.885,6.885,0,0,0-.99,3.74c.058.825.01,1.658.081,2.69,0,1.079.977,2.223.567,3.578.157-1.317-.419-2.522-.567-3.578-.228-.267-.5-.306-.525-.4a8.532,8.532,0,0,0-10.145-6.382,8.889,8.889,0,0,0-5.131,14.4,4.049,4.049,0,0,1,.307.628c-5.864,3.655-7.52,9.179-6.545,15.934h4.247c1.211-1.434.67-3.178.822-4.79.52-5.51,5.373-8.846,10.572-6.954.242,2.843-.68,5.7-.793,8.6-.043,1.1-.4,2.2.475,3.146h4.431a6.131,6.131,0,0,0,1.284-4.126,32.548,32.548,0,0,1,.763-5.46,9.226,9.226,0,0,1,18.058,0,32.471,32.471,0,0,1,.763,5.46,6.135,6.135,0,0,0,1.284,4.126h4.431c1.358-2.513-.045-5.028-.019-7.544.015-1.355-.66-2.691-.247-4.07,4.49-2.295,9.854,1.09,10.5,6.548.2,1.7-.418,3.542.843,5.065h4.137c1.3-7.493-1.028-12.382-6.358-15.832.133-1.523,1.49-2.423,1.859-3.932a8.859,8.859,0,0,0-9.227-11.272c-3.193.146-7.335,3.137-7.586,6.221-.024.288-.2.5-.638.475-.093,1.289-.647,2.319-.609,3.424-.12-1.214.573-2.29.609-3.424" transform="translate(-4.699 -28.326)"/>
    <path id="Trazado_588591" data-name="Trazado 588591" d="M67.184,149.951c.415-1.391-.65-2.545-.6-3.92.042-1.205.347-2.445-.435-3.686-.417-.663.124-1.866-.166-2.684a10.394,10.394,0,0,0-6.649-6.879c-4.671-1.539-8.716.037-11.623,4.159a6.684,6.684,0,0,0-1.552,4.341c.073,1.272-.785,2.332-.611,3.649a4.753,4.753,0,0,1-.473,3.387c-.252.39-.041,1.081-.041,1.634Z" transform="translate(-11.769 -34.614)" fill="#fbd670"/>
    <path id="Trazado_588592" data-name="Trazado 588592" d="M35.131,151.516c-.353-1.467.421-2.784.571-4.188a17.534,17.534,0,0,1,.4-3.96c.427-1.31.381-2.921.747-4.36a16.628,16.628,0,0,0-4.231-.828,8.926,8.926,0,0,0-8.563,8.64c.008,1.565,0,3.13,0,4.695Z" transform="translate(-6.298 -36.179)" fill="#b3dc7e"/>
    <path id="Trazado_588593" data-name="Trazado 588593" d="M91.541,151.516c0-1.565-.007-3.13,0-4.695a8.927,8.927,0,0,0-8.564-8.64,16.6,16.6,0,0,0-4.225.827,91.468,91.468,0,0,1,1.711,12.508Z" transform="translate(-20.62 -36.179)" fill="#b3dc7e"/>
    <path id="Trazado_588594" data-name="Trazado 588594" d="M41.555,54.19c2.682-1.521,4.282-3.672,6.292-5.341,3.123-2.592,6.448-5,9.058-8.1,3.591-4.263,3.554-9.1.361-13.489-2.136-2.939-6.632-3.792-9.957-2.3a8.794,8.794,0,0,0-3.473,2.331c-.566.7-1.267,1.292-2.037,2.062-1-.971-1.841-1.928-2.821-2.714-2.674-2.146-4.737-3.346-8.97-1.961a8.185,8.185,0,0,0-5.395,5.611,10.377,10.377,0,0,0,2.619,11.183c2.294,2.34,4.9,4.336,7.291,6.57,1.366,1.275,2.87,2.463,4.173,3.824.885.923,2.2,1.171,2.859,2.322" transform="translate(-6.279 -6.306)" fill="#fe816e"/>
    <path id="Trazado_588595" data-name="Trazado 588595" d="M149.54,77.571a5.054,5.054,0,0,0,3.13-3.46c0-4.107-.093-8.709.037-13.3.072-2.51-.7-4.319-3.514-5.43H138.944c-.08-.546.491-.687.463-1.19a7.833,7.833,0,0,1,.461-3.388,25.44,25.44,0,0,0,.534-3.083,4.453,4.453,0,0,0-5.172-5.58c-.991.845-1.191,2.057-1.585,3.213a20.5,20.5,0,0,1-5.831,9.195c-.624.54-1.209,1.122-1.721,1.6v18a22.082,22.082,0,0,0,7.583,2.925c5.248,1.147,10.546.114,15.864.5" transform="translate(-33.014 -11.013)" fill="#efcfb3"/>
    <path id="Trazado_588596" data-name="Trazado 588596" d="M116.885,60.243H108.2V82.284a39.332,39.332,0,0,0,4.216.064c1.461.026,2.922.006,4.469.006Z" transform="translate(-28.329 -15.773)" fill="#b3dc7f"/>
    <path id="Trazado_588597" data-name="Trazado 588597" d="M38.969,123.671c-1.14-2.927-3.1-3.767-5.775-3.419a4.836,4.836,0,0,0-3.005,2.981c-.5,2.611.252,4.681,3.39,5.9a4.539,4.539,0,0,0,5.389-5.464" transform="translate(-7.867 -31.466)" fill="#edcdb2"/>
    <path id="Trazado_588598" data-name="Trazado 588598" d="M77.974,125.568c1.14,2.927,3.1,3.767,5.775,3.419a4.838,4.838,0,0,0,3.005-2.981c.5-2.611-.252-4.681-3.39-5.9a4.539,4.539,0,0,0-5.389,5.464" transform="translate(-20.396 -31.423)" fill="#edcdb2"/>
    <path id="Trazado_588599" data-name="Trazado 588599" d="M62.994,117.767c-1.164-3.063-3.148-3.863-5.813-3.519a4.912,4.912,0,0,0-3,3c-.448,2.6.281,4.684,3.341,5.877a4.534,4.534,0,0,0,5.471-5.355" transform="translate(-14.155 -29.893)" fill="#edcdb2"/>
    <path id="Trazado_588600" data-name="Trazado 588600" d="M47.665,123.1v4.461l-1.122.819c.251.424.71.438.783.329.582-.867,1.7-.966,2.452-1.837-.487-.486-.3-1.454-1.068-1.773-.93-.388.029-1.688-1.045-2" transform="translate(-12.186 -32.232)" fill="#d4d6da"/>
    <path id="Trazado_588601" data-name="Trazado 588601" d="M71.08,123.137c.1,1.651-1.514,2.313-1.826,3.813.53.752,1.781.825,2.533,1.741-.767-1.839-.383-3.682-.707-5.554" transform="translate(-18.132 -32.24)" fill="#d4d7da"/>
  </g>
</svg>
