<svg id="Grupo_850453" data-name="Grupo 850453" xmlns="http://www.w3.org/2000/svg" xmlns:xlink="http://www.w3.org/1999/xlink" width="129.855" height="129.77" viewBox="0 0 129.855 129.77">
  <defs>
    <clipPath id="clip-path">
      <rect id="Rect치ngulo_39457" data-name="Rect치ngulo 39457" width="129.855" height="129.77" fill="none"/>
    </clipPath>
  </defs>
  <g id="Grupo_850452" data-name="Grupo 850452" clip-path="url(#clip-path)">
    <path id="Trazado_588602" data-name="Trazado 588602" d="M43.342,0c-.431.431-.861.864-1.383,1.389v23.72H7.78l-1.2,1.2a2.508,2.508,0,0,0-.116.473c-.26,5.07,1.64,9.486,4.2,13.686a8.951,8.951,0,0,0,1.408,1.511c3.378,3.386,6.761,6.766,10.089,10.1.029.847-.624,1.109-1.024,1.515-2.754,2.793-5.563,5.531-8.3,8.339A41.6,41.6,0,0,0,4.183,74.812c-1.322,3.126-2.793,6.26-2.951,9.761C.113,86,.9,87.79.307,89.416c-.565,1.535-.2,3.446-.1,5.185.075,1.331-.278,2.65.387,4.02.559,1.153-.306,2.709.636,3.917-.381,1.233.449,2.274.573,3.439a13.018,13.018,0,0,0,1,2.971A53.244,53.244,0,0,0,6.675,117.3c1.252,2.155,2.887,3.994,4.223,6.065a9.326,9.326,0,0,0,3.627,3.122c2.229,1.089,4.372,2.406,6.94,2.852a23.162,23.162,0,0,0,3.982.431q50.33.006,100.659,0h2.5l1.249-1.25V1.313L128.624,0H43.342" transform="translate(0 0)"/>
    <path id="Trazado_588603" data-name="Trazado 588603" d="M139.581,6.007H66.414V26.824h17.4l1.351,1.609c.4,5-1.611,9.546-4.193,13.91a8.592,8.592,0,0,1-1.445,1.495c-3.374,3.378-6.751,6.755-10.055,10.06.016.873.659,1.134,1.061,1.542,2.691,2.729,5.44,5.4,8.111,8.148a42.261,42.261,0,0,1,8.688,12.86A42.918,42.918,0,0,1,90.5,86.4c.406,2.453.365,4.971,1.2,7.463h6.762l1.363,1.364v25.9a3.553,3.553,0,0,0,4.336.1c.873-1.233.7-2.662.7-4.038.022-8.7,0-17.409.023-26.113,0-1.367-.214-2.8.957-4.393a63.23,63.23,0,0,1,13.062,0c1.183,1.586.969,3.02.974,4.386.026,8.7,0,17.409.023,26.113,0,1.377-.167,2.806.705,4.044a3.948,3.948,0,0,0,4.447.043c.96-1.3.741-2.831.743-4.293.021-14.129,0-28.256.025-42.384,0-1.452-.246-2.979.792-4.41,2.265-.912,4.731-.344,7.132-.509,1.974-.137,4.026.4,5.893-.675a3.078,3.078,0,0,0,.742-2.177c.026-5.312.283-10.627-.135-15.929-.955-2.075-2.8-3.2-4.382-4.33-1.666.01-2.432,1.041-3.281,1.884-4.392,4.359-8.75,8.752-13.138,13.115a5.934,5.934,0,0,1-2.989,2.1c-3.2-1.376-4.779-5.189-7.926-6.653a4.485,4.485,0,0,0-3.047,1.8c-3.1,3.064-6.157,6.168-9.256,9.231-.789.78-1.47,1.764-3.2,1.873a79.4,79.4,0,0,1-9.542-9.682c7.467-7.507,14.737-14.81,22.142-22.115,3.752,1.539,5.329,5.349,9.064,7.192a71.991,71.991,0,0,0,9.537-9.422c-.1-2.37-2.413-3.032-2.52-4.83.709-1.556,2.038-1.326,3.216-1.337,4.1-.041,8.191.015,12.286-.033,1.2-.015,2.526.077,3-1.491.5-6.679.189-13.359.184-20.037a3.1,3.1,0,0,0-.8-2.147" transform="translate(-20.129 -1.821)" fill="#f1f1f1"/>
    <path id="Trazado_588604" data-name="Trazado 588604" d="M47.285,78.11H27.867c-3.389,3.4-6.937,6.761-10.248,10.339a40.1,40.1,0,0,0-7.974,12.117A41.477,41.477,0,0,0,7.2,108.2c-.414,2.12-.739,4.252-.946,6.384a26.875,26.875,0,0,0,.011,6.527A52.833,52.833,0,0,0,9.048,132.5a35.182,35.182,0,0,0,8.705,13.4,26.888,26.888,0,0,0,5.874,2.878,14.347,14.347,0,0,0,4.767.48c6.538.006,13.078.082,19.615-.022,5.357-.085,9.475-2.554,12.63-6.878a61.639,61.639,0,0,0,4.218-6.888,33.064,33.064,0,0,0,1.864-4.726,23.2,23.2,0,0,0,1.312-4.983c.25-1.944.818-3.881.922-5.86a29.626,29.626,0,0,0-.029-6.008A49.123,49.123,0,0,0,66.071,102a51.644,51.644,0,0,0-5.012-9.414,28.9,28.9,0,0,0-3.394-4.112c-3.473-3.432-6.912-6.9-10.38-10.369" transform="translate(-1.836 -23.674)" fill="#f3a83c"/>
    <path id="Trazado_588605" data-name="Trazado 588605" d="M144.579,49.962V68.8a10.951,10.951,0,0,1,1.272,5.752c-.04,14.352-.015,28.7-.031,43.056,0,1.372.192,2.8-.909,4.472-4.846.123-9.971,1.3-14.978-.953h-4.184a8.617,8.617,0,0,1-5.4,1.345c-2.064-.1-4.142-.1-6.206,0a8.43,8.43,0,0,1-5.137-1.346h-4.185c.233,1.105-.824,1.408-1.295,2.085H89.422c-.505-.281-.7-1-1.422-1.054-1.553,1.636-2.269,4.071-5.094,4.894,2.96.521,53.767.682,67.848.295V6.008h-6.174V29.031a9.357,9.357,0,0,1,1.328,5.416q-.141,5.046,0,10.1a9.357,9.357,0,0,1-1.328,5.416" transform="translate(-25.127 -1.821)" fill="#e1e6f5"/>
    <path id="Trazado_588606" data-name="Trazado 588606" d="M49.96,63.079c3.324-3.325,6.628-6.557,9.843-9.875a21.105,21.105,0,0,0,4.156-6.115c.712-1.588.729-3.288,1.645-4.9H15.125c.862,1.981,1.013,4,2.02,5.834a23.12,23.12,0,0,0,3.595,5.032c3.21,3.323,6.515,6.553,9.853,9.891h2.243c.339-.247-.084-.346-.151-.53-.758-2.063-1.884-4.025-1.76-6.334-1.116-1-.125-2.442-.8-3.6-.618-1.068-.149-2.363-.242-3.553a1.6,1.6,0,0,1,.164-.51h3.954c.2,1.659.121,3.325.479,4.988a40.317,40.317,0,0,0,1.157,5.035c.537,1.519,1.149,3.011,1.736,4.541h5.794c.707-.934.83-2.178,1.36-3.244a7.381,7.381,0,0,0,1.04-3.755c1.241-.944.189-2.39.807-3.6.534-1.045.24-2.514.318-3.908h4.115a28.445,28.445,0,0,1-.443,5.027c-.344,1.6-.567,3.255-.95,4.859a14.744,14.744,0,0,1-1.69,4.49c.74.429,1.543-.049,2.233.222" transform="translate(-4.584 -12.788)" fill="#f5b840"/>
    <path id="Trazado_588607" data-name="Trazado 588607" d="M96.341,154.923v4.1a33.771,33.771,0,0,0,4.05.075c1.38.026,2.76.006,4.229.006V138.24h-3.888c-.3,1.184-.937,2.307-.729,3.6.226,3.848-.431,7.636-.469,11.062-1.043,1.329-2.4,1.169-3.193,2.02" transform="translate(-29.199 -41.898)" fill="#5e86c9"/>
    <path id="Trazado_588608" data-name="Trazado 588608" d="M96.331,156.49h2.892l1.293-1.361c0-3.536,0-7.164-.008-10.792,0-.377.2-.922-.516-.928.089,2.188-.927,4.149-1.3,6.245a24.321,24.321,0,0,1-2.355,6.32,1.3,1.3,0,0,0-.009.517" transform="translate(-29.189 -43.465)" fill="#769dd0"/>
    <path id="Trazado_588609" data-name="Trazado 588609" d="M146.847,59.959c1.1.239,1.4-.813,2.077-1.285V40.314c-.678-.472-.978-1.524-2.077-1.285H129.324l-1.3,1.307v2.036l2.892,2.888-9.464,9.467c.346,0,.256.01.171,0a.424.424,0,0,1-.224-.082q-3.612-3.6-7.229-7.226h-1.533L90.387,69.69v1.358l9.838,9.842H101.6l13.653-13.657,7.5,7.714.336-.337h1.531l17.779-17.785,3.13,3.133Z" transform="translate(-27.395 -11.818)"/>
    <path id="Trazado_588610" data-name="Trazado 588610" d="M150.384,148.418c.3,1.047.3,1.047,1.3,2.084h14.176l1.234-1.427V97.369c-.654-.456-.957-1.512-2.061-1.277H151.664l-1.28,1.427Z" transform="translate(-45.579 -29.114)"/>
    <path id="Trazado_588611" data-name="Trazado 588611" d="M120.345,155.732c-.24,1.1.811,1.4,1.282,2.076H135.8c.472-.68,1.522-.978,1.282-2.076V121.415l-1.492-1.225H121.613l-1.268,1.268Z" transform="translate(-36.464 -36.428)"/>
    <rect id="Rect치ngulo_39456" data-name="Rect치ngulo 39456" width="25.005" height="4.002" transform="translate(50.455 16.837)"/>
    <path id="Trazado_588612" data-name="Trazado 588612" d="M97.366,16.153V12.134H72.394c-.231,1.241.009,2.593-.131,4.019Z" transform="translate(-21.902 -3.678)"/>
    <path id="Trazado_588613" data-name="Trazado 588613" d="M118.58,28.129V24.089c-1.319-.147-2.662-.025-4.093-.079v4.114a20.321,20.321,0,0,0,4.093.006" transform="translate(-34.699 -7.277)"/>
    <path id="Trazado_588614" data-name="Trazado 588614" d="M114.486,16.15h4V12.065c-1.229-.135-2.572-.015-4-.068Z" transform="translate(-34.699 -3.636)"/>
    <path id="Trazado_588615" data-name="Trazado 588615" d="M65.582,123.958a25.356,25.356,0,0,0-8.523-18.391,24.138,24.138,0,0,0-17.713-6.428A24.33,24.33,0,0,0,21.689,107.6,24.846,24.846,0,0,0,24,143.152a24,24,0,0,0,17.555,6.162,24.532,24.532,0,0,0,17.622-8.548,25.488,25.488,0,0,0,6.4-16.808" transform="translate(-4.63 -30.039)"/>
    <path id="Trazado_588616" data-name="Trazado 588616" d="M136.969,45.181l1.618.756v2l-13.894,13.88h-1.571l-7.205-7.309c-.2,0-.286,0-.372,0s-.2-.017-.247.029c-5.847,5.839-11.689,11.684-17.619,17.615.578,1.206,1.719,1.9,2.56,2.844.806.9,1.657,1.768,2.381,2.535.309,0,.4.007.482,0s.186-.007.235-.056q6.745-6.734,13.516-13.512h1.936l7.127,7.129L143.5,53.5h2.234l1.119,1.47c.206-3.542.055-6.624.123-9.787Z" transform="translate(-29.605 -13.694)" fill="#6bc03b"/>
    <path id="Trazado_588617" data-name="Trazado 588617" d="M156.389,143.974v4.1a33.8,33.8,0,0,0,4.051.075c1.379.026,2.759.006,4.228.006V102.113h-4.094c-1.08,1.249-.846,2.777-.85,4.23-.021,10.587,0,21.174-.017,31.76a9.664,9.664,0,0,1-.466,4.08c-.748.955-2.075.936-2.852,1.792" transform="translate(-47.399 -30.949)" fill="#3b5891"/>
    <path id="Trazado_588618" data-name="Trazado 588618" d="M156.389,143.974h2.888l1.3-1.369V102.113h-3.91a1.272,1.272,0,0,0-.185.177.426.426,0,0,0-.086.223q-.005,20.731,0,41.461" transform="translate(-47.399 -30.949)" fill="#4c6cb4"/>
    <path id="Trazado_588619" data-name="Trazado 588619" d="M126.365,151.256V155.4c1.331.086,2.689.023,4.041.035,1.379.012,2.759,0,4.233,0v-29.3h-4.09c-.96,1.082-.825,2.419-.83,3.706-.022,5.283,0,10.565-.016,15.847a8.41,8.41,0,0,1-.483,3.814c-.74.952-2.077.9-2.856,1.749" transform="translate(-38.299 -38.231)" fill="#4c6cb4"/>
    <path id="Trazado_588620" data-name="Trazado 588620" d="M126.365,151.256h2.894l1.291-1.407v-23.71h-3.9a1.225,1.225,0,0,0-.187.172.418.418,0,0,0-.092.22q-.005,12.363,0,24.725" transform="translate(-38.299 -38.231)" fill="#5e86c9"/>
    <path id="Trazado_588621" data-name="Trazado 588621" d="M58.919,113.964c0-.261.113-.643-.017-.767a39.584,39.584,0,0,0-4.11-3.944,28.186,28.186,0,0,0-7.148-3.565,15,15,0,0,0-3.413-.589,16.774,16.774,0,0,0-4.434.015,26.106,26.106,0,0,0-8.421,3.029,17.193,17.193,0,0,0-5.545,4.772c-1.959,2.759-3.919,5.665-4.051,9.286-.845,1.511-.537,3.163-.5,4.754a20.91,20.91,0,0,0,3.613,10.788c2.754,4.354,6.928,6.761,11.609,8.486a9.748,9.748,0,0,0,2.542.176c6.734,1.081,12.1-1.677,16.453-6.407,6.859-7.458,8.1-17.987,3.425-26.035" transform="translate(-6.423 -31.811)" fill="#fbe696"/>
    <path id="Trazado_588622" data-name="Trazado 588622" d="M66.68,117.874c.061,1.412,1.416,2.466,1.1,3.981,1.226,4.338,1.061,5.278.541,9.564a21,21,0,0,1-2.682,7.789c-1.42,2.566-2.987,4.943-5.581,6.55-1.036.643-1.988,1.411-3.059,2.057a16.778,16.778,0,0,1-10.2,2.5c.061.148.108.419.185.428a20.265,20.265,0,0,0,9.667-1c5.014-1.961,9.109-4.986,11.679-10.055a22.661,22.661,0,0,0,2.491-11.979,16.5,16.5,0,0,0-1.054-4.76,38.19,38.19,0,0,0-2.473-4.7c-.109-.2-.287-.457-.617-.374" transform="translate(-14.185 -35.721)" fill="#f6d065"/>
    <path id="Trazado_588623" data-name="Trazado 588623" d="M49.69,115.324v-4.086H45.578v3.929c-3.832.789-5.354,2.184-6.07,4.976-.912,3.556-.42,6.967,3.266,9.237.832-.2,1.532.983,2.634.546v6.294c-1.142.253-1.211-.954-2.014-1.094v-2.967H39.276A9.72,9.72,0,0,0,40,137.289l2.643,2.6c.938-.271,1.623.965,2.8.47v4.163h4.205V140.5c1.093.174,1.859-.729,2.819-.58l2.829-2.728a11.357,11.357,0,0,0,.086-7.852l-2.95-2.948c-.857.369-1.47-1.095-2.607-.41V119.54c1.043-.077,1.374.852,1.99,1.328V123.6h4.037a6.678,6.678,0,0,0-6.156-8.277" transform="translate(-11.854 -33.714)"/>
    <path id="Trazado_588624" data-name="Trazado 588624" d="M54.308,144.458c1.2-.141,1.451-.907,2.047-1.306v-3.784l-1.477-1.36c-.295.189-.551.275-.552.365-.023,1.981-.017,3.962-.017,6.085" transform="translate(-16.46 -41.828)" fill="#f5e092"/>
    <path id="Trazado_588625" data-name="Trazado 588625" d="M47.125,129.438c.1-.154.259-.291.26-.431.017-1.9.011-3.807.011-5.837-1.151-.13-1.472.84-2.085,1.279v3.686c.627.4.88,1.331,1.814,1.3" transform="translate(-13.733 -37.327)" fill="#f5e092"/>
  </g>
</svg>
