<svg xmlns="http://www.w3.org/2000/svg" xmlns:xlink="http://www.w3.org/1999/xlink" width="1320" height="507" viewBox="0 0 1320 507">
  <defs>
    <linearGradient id="linear-gradient" x1="1.098" y1="0.882" x2="0.5" y2="1" gradientUnits="objectBoundingBox">
      <stop offset="0" stop-color="#02b58a"/>
      <stop offset="1" stop-color="#213e63"/>
    </linearGradient>
    <clipPath id="clip-path">
      <path id="Trazado_588190" data-name="Trazado 588190" d="M20,0H1300a20,20,0,0,1,20,20V487a20,20,0,0,1-20,20H20A20,20,0,0,1,0,487V20A20,20,0,0,1,20,0Z" transform="translate(144.333 71)" fill="#fff" stroke="#707070" stroke-width="1" opacity="0.52"/>
    </clipPath>
    <clipPath id="clip-path-2">
      <rect id="Rectángulo_39378" data-name="Rectángulo 39378" width="1320" height="507" fill="url(#linear-gradient)"/>
    </clipPath>
    <clipPath id="clip-path-3">
      <rect id="Rectángulo_39380" data-name="Rectángulo 39380" width="1432.083" height="637.494" fill="none"/>
    </clipPath>
  </defs>
  <g id="Enmascarar_grupo_88" data-name="Enmascarar grupo 88" transform="translate(-144.333 -71)" clip-path="url(#clip-path)">
    <g id="Grupo_849617" data-name="Grupo 849617" transform="translate(13664.283 13216.765)">
      <path id="Trazado_585904" data-name="Trazado 585904" d="M208.248,230.028c5.678,3.881,12.483,5.629,18.488,7.171a1.314,1.314,0,0,0,1.249-.333,1.464,1.464,0,0,0,.438-1.277,29.848,29.848,0,0,0-9.6-18.248,26.9,26.9,0,0,0-18.7-6.752,1.309,1.309,0,0,0-.52.128,1.416,1.416,0,0,0-.27-.033,1.35,1.35,0,0,0-1.071.507,1.484,1.484,0,0,0-.329.925c-.072,6.65,3.884,13.511,10.32,17.912" transform="translate(-12539.251 -13355.69)" fill="#507533"/>
      <g id="Grupo_849599" data-name="Grupo 849599">
        <path id="Trazado_585905" data-name="Trazado 585905" d="M206.556,229.02a.43.43,0,0,0,.476.333.452.452,0,0,0,.362-.516c-.3-2.207-.679-4.4-1.053-6.587-.281-1.507-.558-3.014-.844-4.521.125.1.243.194.371.294l2.549,2.039c.572.457,1.154.931,1.738,1.413.449,1.786.881,3.575,1.36,5.352.519,1.963,1.049,3.922,1.632,5.867a.429.429,0,0,0,.492.308.455.455,0,0,0,.336-.537c-.376-2-.806-3.988-1.248-5.972-.261-1.193-.541-2.38-.824-3.567q.988.829,1.982,1.668c.776.651,1.544,1.307,2.306,1.959.442,1.52.863,3.046,1.329,4.557.433,1.426.878,2.847,1.348,4.26a.471.471,0,0,0,.032.189l.177.44a.445.445,0,0,0,.52.279.481.481,0,0,0,.334-.577l-.012-.055c-.368-1.648-.776-3.283-1.195-4.916-.217-.861-.448-1.717-.681-2.573.411.36.837.725,1.235,1.077,1.7,1.507,3.3,2.913,4.659,4.116l4.508,4.063a.377.377,0,0,0,.532-.022.436.436,0,0,0,0-.59s-1.683-1.786-4.315-4.33c-1.323-1.265-2.864-2.745-4.557-4.279-.461-.416-.95-.848-1.428-1.275.326.02.65.045.975.069.981.059,1.961.136,2.942.183,1.964.1,3.928.188,5.9.207a.4.4,0,0,0,.392-.36.412.412,0,0,0-.336-.47c-1.951-.283-3.906-.491-5.862-.7-.977-.1-1.958-.177-2.936-.268-.949-.078-1.9-.177-2.846-.238q-1.074-.941-2.163-1.886c-.871-.734-1.747-1.46-2.617-2.171l1.822-.233c1.062-.142,2.127-.263,3.187-.424,2.123-.305,4.245-.618,6.359-1a.412.412,0,0,0,.327-.434.4.4,0,0,0-.414-.393c-2.142.125-4.275.319-6.409.521-1.068.092-2.132.225-3.2.336l-3.2.355-.037.008q-.687-.552-1.361-1.083c-.9-.7-1.759-1.385-2.606-2-.323-.235-.629-.463-.936-.69,1.408-.38,2.818-.753,4.218-1.172,1.755-.5,3.5-1.025,5.245-1.592a.419.419,0,0,0,.271-.474.4.4,0,0,0-.457-.335c-1.79.352-3.57.75-5.345,1.166-1.78.394-3.542.869-5.313,1.3a.559.559,0,0,0-.087.041c-1.466-1.045-2.715-1.878-3.6-2.445s-4.476-3.161-4.476-3.161a.413.413,0,0,0-.572.128.471.471,0,0,0,.106.632l.01.008s3.559,2.621,4.408,3.249c.86.6,2.048,1.535,3.493,2.621.1.075.206.161.306.238.38,2.027.8,4.044,1.205,6.064.47,2.171.937,4.341,1.479,6.495" transform="translate(-12540.413 -13356.283)" fill="#9fbe37"/>
      </g>
    </g>
    <g id="Grupo_850249" data-name="Grupo 850249" transform="translate(144.333 70)" clip-path="url(#clip-path-2)">
      <rect id="Rectángulo_39377" data-name="Rectángulo 39377" width="1098.264" height="1396.854" transform="translate(-219.306 380.65) rotate(-60.052)" fill="url(#linear-gradient)"/>
    </g>
    <g id="Grupo_850254" data-name="Grupo 850254" transform="translate(88.333 5)">
      <g id="Grupo_850253" data-name="Grupo 850253" opacity="0.5" clip-path="url(#clip-path-3)">
        <g id="Grupo_850252" data-name="Grupo 850252" opacity="0.25">
          <g id="Grupo_850251" data-name="Grupo 850251" opacity="0.5">
            <g id="Grupo_850250" data-name="Grupo 850250" clip-path="url(#clip-path-3)">
              <path id="Trazado_588059" data-name="Trazado 588059" d="M1.03,392.644c12.231-39.052,69.27-70.938,136.155-84.592,18.45-3.767,37.951-6.349,57.593-5.993,40.593.736,76.63,13.638,113.033,23.66,23.205,6.389,48.728,11.691,74.907,11.994,9.99.115,24.393.008,33.385-2.805,9.266-2.9,11.517-9.28,17.795-13.672,14.936-10.447,47.23-5.92,65.62-14.494,8.84-4.122,12.825-10.548,16.431-16.643,9.1-15.377,18.692-31.189,37.8-43.4,24.879-15.9,69.622-21.414,105.181-15.5a461.253,461.253,0,0,1,51.278,11.5c18.074,5.18,35.451,11.445,55.086,14.38,27.7,4.143,57.9,1.147,83.33-6.241,75.628-21.973,106.6-81.227,87.573-125.253-3.546-8.2-8.645-16.172-12.945-24.265-8.842-16.643-14.314-33.972-13.2-51.317S919.08,15.263,935.5.5" transform="translate(0.168 0.082)" fill="none" stroke="#fff" stroke-miterlimit="10" stroke-width="1.359" stroke-dasharray="2.719 4.078 2.719 4.078"/>
              <path id="Trazado_588060" data-name="Trazado 588060" d="M854.8,500.706c-4.886-20.937-17.748-41.488-39.873-58.641s-53.816-30.749-90.22-36.708c-31.126-5.1-66.292-4.956-92.352-15.71-22.362-9.228-33.586-25.549-31.034-40.974s17.8-29.734,38.921-39.825c19.635-9.379,44-15.368,63.066-25.106,31.136-15.906,44.755-41.671,34.053-64.425" transform="translate(97.996 35.764)" fill="none" stroke="#fff" stroke-miterlimit="10" stroke-width="1.359" stroke-dasharray="2.719 4.078 2.719 4.078"/>
              <path id="Trazado_588061" data-name="Trazado 588061" d="M698.692,271.779c22.929,16.821,47.861,34.485,83.58,41.61,16.875,3.366,35.066,4.109,52.994,4.144,56.06.108,114.695-7.2,156.558-27.946,16.319-8.087,30.339-18.252,50.568-22.853,15.075-3.428,31.937-3.337,48.165-2.583,23.34,1.084,47.639,3.716,65.7,12.01,18.94,8.7,28.267,22.327,45.346,32.144,29.585,17,82.685,19.067,116.23,4.516" transform="translate(113.933 43.004)" fill="none" stroke="#fff" stroke-miterlimit="10" stroke-width="1.359" stroke-dasharray="2.719 4.078 2.719 4.078"/>
              <path id="Trazado_588062" data-name="Trazado 588062" d="M508.628,235.3c-4.643-15.349-18.242-29.818-38.246-40.7-20.294-11.036-46.557-18.281-66.281-29.634-32.07-18.461-42.939-46.431-34-71.619s35.821-47.633,69.62-65.114" transform="translate(59.86 4.604)" fill="none" stroke="#fff" stroke-miterlimit="10" stroke-width="1.359" stroke-dasharray="2.719 4.078 2.719 4.078"/>
              <path id="Trazado_588063" data-name="Trazado 588063" d="M332.232,290.24c12.2,8.283,8.143,20.938-1.905,30.071s-25.025,16.312-35.449,25.313c-14.534,12.549-19.326,28.467-12.933,42.967,10.712,24.3,50.2,43.025,55.445,67.875,2.021,9.584-1.35,19.291-6.476,28.509-8.808,15.839-23.558,31.22-47.23,41.291" transform="translate(45.523 47.328)" fill="none" stroke="#fff" stroke-miterlimit="10" stroke-width="1.359" stroke-dasharray="2.719 4.078 2.719 4.078"/>
              <path id="Trazado_588064" data-name="Trazado 588064" d="M757.1,395.269c36.845-8.973,81.215-10.968,116.474-.2,8.5,2.594,16.272,5.855,24.586,8.626,8.39,2.8,17.295,5.085,26.3,7.21,27.01,6.371,57.349,11.346,85.354,6.482,26.756-4.646,47.623-17.708,75.27-20.279,28.86-2.683,56.424,6.709,80.826,15.693" transform="translate(123.458 63.228)" fill="none" stroke="#fff" stroke-miterlimit="10" stroke-width="1.359" stroke-dasharray="2.719 4.078 2.719 4.078"/>
              <path id="Trazado_588065" data-name="Trazado 588065" d="M801.856,174.827c58.88,10.86,127.332,3.9,175.505-17.844,12.9-5.823,24.333-12.579,36.526-18.857a358.056,358.056,0,0,1,110.1-35.627c41.378-6.241,87.089-5.123,125.332,5.658" transform="translate(130.755 16.093)" fill="none" stroke="#fff" stroke-miterlimit="10" stroke-width="1.359" stroke-dasharray="2.719 4.078 2.719 4.078"/>
              <path id="Trazado_588066" data-name="Trazado 588066" d="M96.324,314.907c39.39-24.869,108.8-37,161.019-21.041,43.55,13.31,72.889,45.047,127.035,47.283,12.418.513,25.575-.657,35.476-4.859,17.025-7.227,21.225-21.787,40.082-27.432,12.529-3.752,27.947-2.4,41.659-4.507,15.67-2.412,28.147-9.289,36.134-17.168,19.332-19.068,27.327-39.4,59.269-54.382,22.251-10.434,55.261-15.509,80.981-7.937,17.418,5.128,30.111,15.442,49.485,17.446,6.4.662,13.088.334,19.365,1.3,14.67,2.252,23.468,11.45,22.2,19.888s-10.646,15.927-22.074,21.518-24.959,9.643-37.737,14.241c-42.116,15.151-78.091,30.461-78.308,60.149-.042,5.776.616,11.624,3.755,17.128,11.735,20.584,70.591,35.582,106.343,37.94,7.124.47,14.341.159,21.5.433,36.526,1.4,67.767,19.508,71.424,39.777s-18.708,40.763-51.576,49.737c-15.986,4.365-33.857,6.243-49.913,10.529-19.2,5.124-35.376,13.578-55.506,17.439-8.282,1.589-17.048,2.356-25.162,4.2-17.409,3.946-30.059,12.352-41.888,20.48-17.374,11.941-35.1,24.222-58.813,32.1-34.027,11.3-76.131,12.075-115.459,9.375s-78-8.543-117.6-9.348C252.883,587.865,184.26,599.939,124.4,585.6,66.662,571.772,9.925,526.065,17.2,490.12c2.987-14.75,17.146-28.065,20.372-43,4.994-23.125.836-46.39,8.361-69.457C53.362,354.9,68.525,332.457,96.324,314.907Z" transform="translate(2.702 36.076)" fill="none" stroke="#fff" stroke-miterlimit="10" stroke-width="2.719"/>
              <path id="Trazado_588067" data-name="Trazado 588067" d="M930.673,81.188C961.8,61.451,1005.652,51.4,1052.891,48.994c43.835-2.237,93.684-10.24,135.4,2.064,43.738,12.9,59.2,42.438,62.292,69.1,3.246,28.009-2.485,56.06-6.9,84.023-7.613,48.235-11.3,96.914-.155,144.952,9.9,42.662,31.431,85.883,15.347,128-6,15.72-19.426,32.2-46.368,39.259-11.849,3.1-25.2,4.065-38.278,4.985-69.42,4.88-145.252,15.4-200.744-14.873-26.422-14.414-39.876-34.01-57.707-51.8s-43.965-35.383-80.907-39.518c-43.164-4.831-89.2,10.111-130.921,2.469C683.13,413.84,666.3,404.3,660.4,392.952s-.7-24.165,13.447-33.185c19.328-12.317,52.663-17.151,68.735-30.74,19.726-16.678,6.995-41.262,31.853-55.845,17.4-10.207,46.383-11.3,69.171-17.8a117.893,117.893,0,0,0,46.673-26c10.641-9.423,19.389-19.848,20.03-30.85.763-13.118-9.952-25.543-15.434-38.337C883.143,132.813,896.806,102.66,930.673,81.188Z" transform="translate(107.298 7.235)" fill="none" stroke="#fff" stroke-miterlimit="10" stroke-width="2.719"/>
              <path id="Trazado_588068" data-name="Trazado 588068" d="M142.341,265.941c33.26-2.494,66.132,5.47,95.061,14.937S294,301.642,326.181,306.935s71.278,3.09,93-11.143c19.4-12.713,20.92-32,41.931-43.9,28.558-16.172,84.6-13.935,102.614-34.272,4.3-4.853,5.65-10.447,10.72-15.064,4.367-3.979,11.211-6.947,18.51-9.236,28.176-8.838,65.331-7.925,92,2.261,17,6.495,29.536,16.217,47.079,22.253,32.426,11.156,77.683,6.759,105.46-7.772s38.824-37.268,33.984-58.308c-4.914-21.359-24.412-43.344-10.226-63.378,2.617-3.7,6.39-7.316,6.343-11.289-.041-3.4-2.91-6.585-6.063-9.5-24.778-22.909-72.749-37.425-120.776-36.548-39.076.712-75.356,10.654-112.528,17.4-77.664,14.087-163.294,14.214-241.092.355C342.291,40.8,300.466,28.409,257.2,18.072c-34.1-8.148-69.884-15.109-106.978-15.814s-76,5.577-101.486,20.589C11.289,44.9,11.252,79.251,21,109.1s26.987,60.2,16.017,89.917c-5.828,15.789-19.351,30.342-28.042,45.718s-12.133,32.862,1.649,47.04c14.253,14.662,43.837,17.558,62.3,4.771C94.155,281.849,103.539,268.851,142.341,265.941Z" transform="translate(0.222 0.359)" fill="none" stroke="#fff" stroke-miterlimit="10" stroke-width="2.719"/>
              <path id="Trazado_588069" data-name="Trazado 588069" d="M62.938,512.669c-4.916-20.456,7.13-40.857,11.076-61.378C80.877,415.6,64.376,376.388,98,345.757c27.753-25.285,88.878-37.422,139.132-27.625,34.444,6.714,61.193,21.831,92.792,31.994s75.776,14.3,101.768.042c12.409-6.806,19.048-17.035,34.457-21.56,14.437-4.239,32.193-2.14,48.015-4.375,31.913-4.509,46.925-24.319,58.314-41.507s29.3-36.754,61.947-39.124a117.378,117.378,0,0,1,28.716,1.933c8.293,1.468,16.735,3.66,21.519,7.705,7.344,6.208,3.505,14.852-4.748,20.7s-20.056,9.723-30.7,14.217c-35.512,15-59.64,38.824-60.038,63.633s24.716,49.792,64.839,60.613c32.588,8.79,75.083,9.366,96.5,25.614,19.831,15.045,9.815,37.913-15.3,50.276-35.868,17.659-90.934,16.874-131.029,31.449-41.658,15.144-63.106,45.383-109.513,55.377C439.2,587.06,379.511,564.265,320.035,563.674c-32.33-.321-63.565,5.986-95.531,8.7C150.647,578.634,73.543,556.8,62.938,512.669Z" transform="translate(10.074 39.686)" fill="none" stroke="#fff" stroke-miterlimit="10" stroke-width="2.039"/>
              <path id="Trazado_588070" data-name="Trazado 588070" d="M58.827,142.634c-5.271-13.362-11.839-26.688-12.762-40.36C44.9,85.036,53.014,67.635,69.1,52.886a100.252,100.252,0,0,1,54.334-24.868c36.207-4.9,71.486,7.877,103.859,18.145C354.4,86.48,513.6,93.976,651.079,66.117c23.923-4.848,47.8-10.777,73.241-11.363S777.84,60.5,787.44,73.618c8.026,10.97,1.428,23.358,1.5,35.2.091,15.414,11.645,30.093,14.879,45.4s-5.706,33.653-31.639,39.074c-23.779,4.972-49.85-3.252-68.4-12.9s-35.227-21.48-59.278-26.025c-24.544-4.639-53.863.066-70.195,11.265-11.24,7.706-16.243,17.687-26.529,25.8-12.338,9.726-32.353,16.317-53.613,17.655-25.6,1.613-54.441-3.652-75.567,4.55-30.326,11.774-19.779,41.759-50.217,53.443-13.3,5.1-31.219,5.023-46.6,2.274s-29-7.832-42.966-12.347c-28.062-9.067-58.856-16.089-91.174-17.726-31.126-1.577-60.389,2.451-86.64,11.731-20.734,7.33-38.606,11.961-52.979-3.651-14.121-15.336,8.749-29.47,15.145-44.163C71.812,183.32,66.589,162.311,58.827,142.634Z" transform="translate(7.092 4.393)" fill="none" stroke="#fff" stroke-miterlimit="10" stroke-width="2.039"/>
              <path id="Trazado_588071" data-name="Trazado 588071" d="M963.911,449.716c-16.678-20.6-34.8-43.385-72.63-53.1-44.371-11.4-96.495-.154-145.72-.058-10.613.021-22.055-.673-29.973-4.453-17.208-8.216-5.537-23.927,11.949-31.971s40.6-13.728,49.955-25c14.257-17.175-8.289-41.809,18.83-53.756,15.375-6.773,37.865-4.726,57.568-6.288,38.739-3.069,68.6-21.545,78.952-41.744s4.509-41.761-5.149-62.059c-6.029-12.673-13.588-25.632-10.092-38.574,7.469-27.657,62.649-44.7,114.457-48.32,29.182-2.038,59.686-1.089,86.674,5.19s50.05,18.364,58.1,33.5c4.809,9.043,4.182,18.632,3.026,28.014-4.17,33.814-14.719,67.48-13.246,101.359,1.778,40.91,21.015,80.959,31.512,121.493,6.471,24.99,9.5,50.889-4.014,75.06s-46.37,46.5-91.712,53.453C1033.24,513.066,987.76,479.167,963.911,449.716Z" transform="translate(115.311 13.603)" fill="none" stroke="#fff" stroke-miterlimit="10" stroke-width="2.039"/>
              <path id="Trazado_588072" data-name="Trazado 588072" d="M80.431,133.237c-5.464-14.842-10.008-30.12-5.749-45.084s18.738-29.762,42.944-36.7c32.2-9.23,71.747-2.509,103.4,7.294s61.361,22.776,96.911,26.647c17.948,1.955,36.508,1.627,54.354,3.908,14.627,1.87,24.731,4.872,40.226,3.966,35.3-2.063,73.792,5.454,93.158,22.008s13.2,42.011-17.183,52.226c-32.127,10.8-79.222,3.141-106.28,17.617-25.772,13.788-14.6,45.57-61.79,47.64-21.113.927-38.7-8.132-55.547-15.269-18.225-7.719-39.194-13.872-61.88-15.627-21.782-1.684-44.8,1.1-61.88,9.02-15.171,7.034-27.429,16.113-45.753,4.91-16.131-9.863-4.645-23.307-3.685-34.934C93.009,164.721,86.209,148.93,80.431,133.237Z" transform="translate(11.904 7.674)" fill="none" stroke="#fff" stroke-miterlimit="10" stroke-width="1.359"/>
              <path id="Trazado_588073" data-name="Trazado 588073" d="M156.936,185.1c-14.708,6.449-32.066,11.4-42.625-1.255-12.165-14.583-1.26-34.066-5.357-49.679-3.624-13.81-14.6-27.332-11.338-41.17,3.512-14.935,26.024-28.2,52.936-29.823,16-.968,31.946,1.878,46.7,5.452,29.5,7.145,56.314,17.273,84.886,25.5s60.084,14.651,92.183,13.451c13.867-.518,27.483-2.449,41.364-2.854s28.745.955,39.134,6.093c12.2,6.032,15.416,16.961,7.323,24.844-10.023,9.762-32.179,12.993-52.091,14.9s-41.961,4.024-54.475,12.852c-9.77,6.891-11.2,16.206-15.5,24.652S325.563,205.5,309.822,206.1c-15.156.571-26.891-6.745-37.99-12.513A152.768,152.768,0,0,0,216.7,177.469C195.956,175.46,173.47,177.848,156.936,185.1Z" transform="translate(15.82 10.27)" fill="none" stroke="#fff" stroke-miterlimit="10" stroke-width="1.359"/>
              <path id="Trazado_588074" data-name="Trazado 588074" d="M123.864,110.886c-3.248-7.461-7.123-15.808-.087-22.411,8.582-8.055,29.614-9.12,45.185-5.566s27.8,10.42,41.754,15.653c30.528,11.448,68.451,14.776,105.162,16.307q33.943,1.415,68.024,1.117c4.979-.043,10.3-.063,14.471,1.455,7.323,2.668,7.253,9.148,1.706,12.914s-14.658,5.286-23.358,5.814-17.59.276-26.1,1.408c-16.5,2.2-30.177,9.947-33.832,19.163-3.275,8.259-.285,18.6-12.512,23.628-9.7,3.988-23.9,1.847-33.422-2.274s-16.388-9.883-25.743-14.122c-13.273-6.014-31.485-8.344-48.243-6.654-14.439,1.455-29.59,11.024-44.308,8.281C124.724,160.411,129.308,123.388,123.864,110.886Z" transform="translate(19.54 13.205)" fill="none" stroke="#fff" stroke-miterlimit="10" stroke-width="1.359"/>
              <path id="Trazado_588075" data-name="Trazado 588075" d="M185.561,142.973c-4.429,1.685-8.3,3.981-13.439,4.838-7.94,1.324-16.678-1.362-21.185-5.233s-5.632-8.646-6.043-13.253-.248-9.3-2.594-13.723c-1.086-2.049-2.7-4.016-3.429-6.114-1.567-4.527,1.575-9.552,8.264-12.272s16.693-2.767,23.083.166c8.4,3.854,8.658,10.954,14.526,16.054,5.065,4.4,14.612,7.082,23.987,6.732,9.181-.343,17.744-3.333,26.933-3.052,24.73.757,25.309,19.359,4.282,23.924C221.984,144.942,204.083,135.923,185.561,142.973Z" transform="translate(22.58 15.521)" fill="none" stroke="#fff" stroke-miterlimit="10" stroke-width="1.359"/>
              <path id="Trazado_588076" data-name="Trazado 588076" d="M244.488,138.635c1.422-2.2,3.9-4.164,5.265-6.379,1.679-2.726,1.726-5.88,5.023-8.1,3.468-2.339,9.477-2.9,14.928-2.9s11.089.4,16.21-.643c2.912-.591,5.675-1.643,8.773-1.578,4.485.1,7.854,2.724,7.661,5.22s-3.151,4.7-6.749,6.2a95.541,95.541,0,0,1-11.9,3.478c-2.666.7-5.368,1.52-7.088,2.853a6.207,6.207,0,0,0-2.392,4.6c-.67,6.983,11.577,20.758-11.875,20.366C243.637,161.433,239.558,146.278,244.488,138.635Z" transform="translate(39.554 19.41)" fill="none" stroke="#fff" stroke-miterlimit="10" stroke-width="1.359"/>
              <path id="Trazado_588077" data-name="Trazado 588077" d="M497.621,131.593c14.607,1.511,28.925-2.545,42.957-5.262,30.232-5.853,68.614-4.38,88.072,9.762,5.358,3.894,8.915,8.48,14.286,12.368a36.057,36.057,0,0,0,22.234,6.76,32.138,32.138,0,0,0,14.212-4.09c11.627-6.649,12.384-17.116,9.5-26.253s-8.7-18.153-7.619-27.411c.457-3.917,2.151-7.82,1.452-11.727-1.439-8.04-13.44-14.78-27.429-16.951s-29.313-.266-41.839,3.822c-10.764,3.511-19.823,8.552-31.033,11.6-31.1,8.461-71.066-3.493-100.2,6.634C454.617,100.437,466.384,128.361,497.621,131.593Z" transform="translate(76.104 11.069)" fill="none" stroke="#fff" stroke-miterlimit="10" stroke-width="1.359"/>
              <path id="Trazado_588078" data-name="Trazado 588078" d="M555.72,95.446a8.438,8.438,0,0,1,4.121.641,2.031,2.031,0,0,1,1.013,2.145c-1.014,9.917-30.111,12.656-42.026,16.731-11.773,4.027-18.7,4.5-26-3.492-4.485-4.908-6.411-12.851,4.268-15.578,9.7-2.477,20.708,3.466,30.251,3.683C537.443,99.805,545.775,95.71,555.72,95.446Z" transform="translate(79.779 15.538)" fill="none" stroke="#fff" stroke-miterlimit="10" stroke-width="1.359"/>
              <path id="Trazado_588079" data-name="Trazado 588079" d="M592.549,106.055c-4.928-.641-10.033-1.288-14.091-2.969s-6.788-4.722-5.034-7.366c1.818-2.74,7.492-4.007,12.68-4.458s10.724-.448,15.239-1.939c5.38-1.777,8.7-5.5,14.829-6.194,7.227-.821,13.5,3.238,15.1,7.245,2.98,7.452,2.056,13.475,7.263,20.577,2,2.729,15.433,20.519,3.967,22.233a23.266,23.266,0,0,1-14.827-3.024C612.763,120.9,620.264,109.663,592.549,106.055Z" transform="translate(93.418 13.538)" fill="none" stroke="#fff" stroke-miterlimit="10" stroke-width="1.359"/>
              <path id="Trazado_588080" data-name="Trazado 588080" d="M88.75,486.512c-1.561-22.924,9.491-45.569,10.555-68.5.994-21.435-6.592-43.593,5.754-63.9,13.9-22.873,57.522-40.36,100.273-36.213,30.064,2.915,54.074,14.994,80.088,23.873a353.386,353.386,0,0,0,76.249,16.418c24.686,2.617,52.8,2.444,71.784-6.717,9.118-4.4,16.328-9.959,24.6-14.819a40.157,40.157,0,0,1,9.886-4.593c14.958-4.137,34.541,3.885,49.02-.749,5.5-1.76,8.842-4.984,12.06-8.024,6.081-5.746,20.162-12.675,32.647-7.7,14.249,5.68,4.252,21.5,2.045,28.918-7.5,25.182,15.582,52.312,55.334,65.053,13.215,4.236,27.84,6.953,41.193,11.05s25.9,10.015,30.648,18.08c6.674,11.35-4.265,24.06-20.836,31.65s-37.747,11.172-58.322,14.574-41.754,6.976-58.342,14.555c-31.353,14.322-42.472,41.141-79.731,50.067-18.175,4.355-39.162,3.337-58.2.328s-36.956-7.884-55.813-11.222a294.332,294.332,0,0,0-73.217-4c-42.618,3.308-93.873,19.464-137.43,10.407C109.3,536.792,90.207,507.949,88.75,486.512Z" transform="translate(14.448 51.182)" fill="none" stroke="#fff" stroke-miterlimit="10" stroke-width="2.039"/>
              <path id="Trazado_588081" data-name="Trazado 588081" d="M538.893,267.534a39.894,39.894,0,0,1,14.193-6.824c5.83-1.36,13.366-1.022,17.483,1.646,3.98,2.581,3.64,6.589.758,9.587s-7.812,5.2-12.71,7.233c-9.084,3.771-19.132,7.437-26.294,12.406-4.165,2.89-8.828,12.568-14.4,12.22C497.433,302.525,533.888,271.056,538.893,267.534Z" transform="translate(83.445 42.386)" fill="none" stroke="#fff" stroke-miterlimit="10" stroke-width="1.359"/>
              <path id="Trazado_588082" data-name="Trazado 588082" d="M296.182,519.7c-22.6,2.495-43.965,7.633-66.224,10.943s-46.6,4.689-67.859-.254c-27.845-6.475-45.066-22.82-50.22-39.365s-.2-33.49,4.944-50.036,10.484-33.422,6.079-50.033c-2.6-9.814-8.594-19.58-6.342-29.42,3.54-15.471,30.034-28.24,58.061-27.985,22.572.207,42.794,7.687,59.736,15.986s32.437,17.831,52.395,23.7c18.238,5.362,39.009,7.3,59.414,8.987,16.215,1.338,32.7,2.561,48.949,1.334s32.468-5.213,42.263-12.526c6.169-4.607,9.424-10.206,14.7-15.145a36.29,36.29,0,0,1,24.063-9.636c13.012-.17,27.622,6.414,37.4,1.633,5.84-2.856,9.337-9.37,16.517-7.709a7.486,7.486,0,0,1,4.744,3.414c8.466,12.85-4.97,27.738,3.19,40.649,3.772,5.966,11.818,10.812,20.673,14.777,18.374,8.228,40.789,13.349,58.83,21.8s31.561,22.3,23.125,34.554c-5.065,7.358-17.067,12.6-29.815,16.034-19.971,5.372-42.352,7.1-63.837,10.173s-43.439,7.979-56.968,17.76c-20.318,14.689-30.626,42.7-74.192,33.153C374.7,523.479,342.508,514.585,296.182,519.7Z" transform="translate(17.889 54.39)" fill="none" stroke="#fff" stroke-miterlimit="10" stroke-width="1.359"/>
              <path id="Trazado_588083" data-name="Trazado 588083" d="M139.779,447.055c6.251-15.266,13.808-30.911,9.309-46.368-2.421-8.318-8.286-16.277-9.812-24.662s2.526-17.912,15.307-22.434c12.634-4.47,29.786-2.544,42.33,2.005s21.888,11.286,32.413,17.211C266.976,394,320.889,404.83,374.39,406.085c15.532.364,31.616-.086,45.667-3.787,17.536-4.617,30.006-13.894,37.15-23.929,5.226-7.341,11.723-16.876,25.913-16.794,12.491.072,19.708,8.179,20.307,15.121s-2.294,14.257,2.673,20.634c9.106,11.691,37.875,13.332,54.744,21.949,16.557,8.458,18.609,24.264,4.407,33.957-13.881,9.474-37.612,11.9-59.12,14.387-16.5,1.911-43.128,5.348-51.767,14.641-8.779,9.444-1.774,21.687-22.851,27.757-15.96,4.6-34.964-.127-51.651-3.838-32.011-7.119-72.345-11.379-105.7-4.379-13.472,2.827-23.98,9.489-37.352,13.105-17.065,4.614-36.111,7.459-54.45,3.3C128.266,505.927,128.779,473.921,139.779,447.055Z" transform="translate(21.832 57.245)" fill="none" stroke="#fff" stroke-miterlimit="10" stroke-width="1.359"/>
              <path id="Trazado_588084" data-name="Trazado 588084" d="M279.78,450.315a36.39,36.39,0,0,0-4.935,2.3c-10.659,6.065-11.827,15.414-18.309,23.093-11.845,14.031-41.946,23.745-69.732,20.479-12.269-1.441-24.129-5.966-29.722-12.32-5.778-6.565-.44-14.365,3.432-20.932,8.348-14.158,20.86-27.917,21.981-42.8a35.238,35.238,0,0,0-3.809-18.352c-2.562-5.135-7.877-9.906-7.462-15.4.279-3.678,3.222-7.425,8.728-9.465,15.113-5.6,27.926,5.184,34.516,11.155a97.668,97.668,0,0,0,55.707,24.512c11.065,1.123,22.424.459,33.667.262,17.52-.307,40.7.741,44.471,12.781,1.824,5.821-5.464,11.538-14.624,14.527s-19.938,3.915-30.314,5.174C295.12,446.33,286.641,447.678,279.78,450.315Z" transform="translate(25.2 61.207)" fill="none" stroke="#fff" stroke-miterlimit="10" stroke-width="1.359"/>
              <path id="Trazado_588085" data-name="Trazado 588085" d="M353.473,479.709c13.41,2.413,28.822,5.043,40.853.958,10.859-3.687,14.4-11.357,21.269-17.316,6.905-5.992,17.872-10.5,30.2-12.4,10.166-1.575,20.97-1.42,31.217-2.823s20.685-5.033,22.955-10.767c2.233-5.637-4.1-11.195-11.106-15.453s-15.3-8.257-18.419-13.763c-2.369-4.184-1.668-9.107-6.735-12.467-5.68-3.765-16.525-3.786-24.362-1.517s-13.5,6.256-19.368,9.93-12.654,7.295-21.274,8.374c-9.537,1.194-20.036-.908-29.048,1.2-12.5,2.927-15.22,11.89-16.931,19.377-.526,2.305-1.2,4.715-3.714,6.571a22.586,22.586,0,0,1-6.556,2.908c-21.583,6.646-51.884,4.857-67.222,15.606-13.3,9.32,6.264,16.445,21.8,16.889C317,475.589,334.043,476.212,353.473,479.709Z" transform="translate(44.161 64.023)" fill="none" stroke="#fff" stroke-miterlimit="10" stroke-width="1.359"/>
              <path id="Trazado_588086" data-name="Trazado 588086" d="M249.826,451.418a52.9,52.9,0,0,1-13.381,17.322,57.733,57.733,0,0,1-21.185,12.042,79.049,79.049,0,0,1-28.668,3.062c-10.806-.882-16.113-4.956-17.372-10.95-1.547-7.365,3.447-14.651,9.281-21.317s12.686-13.2,15.279-20.477c2.342-6.566,1.069-13.336.849-20.028-.108-3.3,1.164-7.459,6.9-8.312,6.486-.965,13.1,3.776,17.3,6.048,6.221,3.361,11.064,7.114,18.229,9.974,5.365,2.142,11.669,3.933,18.253,3.658,6.075-.255,11.449-2.219,17.31-3.144,5.2-.821,11.034-.77,15.754.7s7.994,4.523,7.1,7.49c-.855,2.836-5.23,5.04-10.1,6-8.373,1.655-18.249-.131-25.649,3.176-6,2.681-7.118,7.4-8.614,11.6Q250.545,449.851,249.826,451.418Z" transform="translate(27.548 65.656)" fill="none" stroke="#fff" stroke-miterlimit="10" stroke-width="1.359"/>
              <path id="Trazado_588087" data-name="Trazado 588087" d="M182.964,464.472c-.378-4.235,3.664-8.169,7.879-11.7s8.871-7.121,9.985-11.315c.47-1.767.287-3.587,1.084-5.318,1.32-2.869,5.473-5.28,10.57-6.137s10.954-.127,14.908,1.856a11.558,11.558,0,0,1,6.76,9.9c.732,8.96-5.536,17.971-16.536,24.493-4.655,2.761-12.235,6.88-19.51,6.973C190.334,473.324,183.326,468.526,182.964,464.472Z" transform="translate(29.831 70.061)" fill="none" stroke="#fff" stroke-miterlimit="10" stroke-width="1.359"/>
              <path id="Trazado_588088" data-name="Trazado 588088" d="M288.887,421.568a3.522,3.522,0,0,1-1.1-2.453c.087-1.427,1.635-2.715,3.536-3.674a24.827,24.827,0,0,1,13.868-2.044c9.526,1.36,13.246,8.525,5.086,12.09C303.75,428.34,292.177,425.24,288.887,421.568Z" transform="translate(46.927 67.373)" fill="none" stroke="#fff" stroke-miterlimit="10" stroke-width="1.359"/>
              <path id="Trazado_588089" data-name="Trazado 588089" d="M342.924,463.457c10.9.055,21.432,4.738,31.82,2.9,9.753-1.721,13.51-8.057,18.768-12.941,7.6-7.062,20.961-12.118,35.558-13.46,7.96-.73,17.162-.658,22.531-4.01,3.679-2.3,4.4-5.586,4.783-8.657.457-3.688.641-7.486-1.534-10.978s-7.185-6.659-13.722-7.323c-7.776-.79-15.169,2.009-21.155,4.88s-12.24,6.136-20.109,6.553c-7.234.383-14.683-1.762-21.606-.534A16.065,16.065,0,0,0,365.471,430.1c-1.681,4.25-2.524,8.888-7.641,12.177-4.852,3.119-12.565,4.33-19.926,4.819-11.625.771-35.977.488-34.017,10.442C305.973,468.141,331.236,463.4,342.924,463.457Z" transform="translate(49.535 66.671)" fill="none" stroke="#fff" stroke-miterlimit="10" stroke-width="1.359"/>
              <path id="Trazado_588090" data-name="Trazado 588090" d="M392.129,433.738c4.429-1.154,9.517-1.079,14.4-1.189,5.93-.133,12.006-.6,17.19-2.206s9.338-4.563,9.463-7.865a3.668,3.668,0,0,0-1.247-2.909c-2.793-2.579-9.514-2.74-14.656-1.8a38.886,38.886,0,0,0-12.21,4.245c-2.361,1.355-4.389,2.967-7.388,3.849-3.161.929-6.911.9-10.416,1.3-5.569.622-10.7,2.382-14.21,4.867-3.709,2.63-5.651,9.118,3.511,8.886C382.353,440.763,386.832,435.117,392.129,433.738Z" transform="translate(60.329 68.038)" fill="none" stroke="#fff" stroke-miterlimit="10" stroke-width="1.359"/>
              <path id="Trazado_588091" data-name="Trazado 588091" d="M973.374,415.38c-11.841-14.887-29.382-29.458-56.433-36.7-44.676-11.957-97.682-.478-147.608.471-4.667.088-9.59.049-13.639-1.194-9.766-3-8.516-11.22-1.183-15.791s18.371-6.818,27.768-10.136c16.583-5.852,28.352-15.469,31.749-25.939,2.608-8.039.819-16.97,9.545-23.663,11.155-8.557,33.585-9.389,52.427-12.083,34.3-4.9,63.074-18.556,79.793-35.31s22.031-36.341,18.948-55.26c-4.325-26.537-24.4-53.3-11.688-79.056,3.833-7.765,11.042-15.384,23.206-20.092,13.548-5.244,31.2-6.19,47.919-6.375,20.727-.229,43.107.759,59.012,7.87,16.653,7.446,22.131,19.756,24.981,31.263,9.264,37.4,1.052,75.3-1.2,113.006a359.728,359.728,0,0,0,5.876,89.407c6.208,32.37,16.861,64.692,14.523,97.209-1.495,20.778-23.022,65.213-79.4,55.365C1005.068,479.136,992.068,438.882,973.374,415.38Z" transform="translate(122.086 15.365)" fill="none" stroke="#fff" stroke-miterlimit="10" stroke-width="2.039"/>
              <path id="Trazado_588092" data-name="Trazado 588092" d="M983.984,389.564c-18.449-17.523-49.661-32.843-87.156-34.357-18.6-.751-37.068,1.928-54.732,5.133-9.764,1.771-21.73,3.5-29.407-.177-8-3.833-5.357-11.025.827-15.72s15.174-8.361,19.677-13.576c4.293-4.973,4.192-11.036,10.589-15.314,10.432-6.976,30.578-5.211,46.959-6.954,46.688-4.969,76.352-40.406,90.559-61.8,17.792-26.79,22.266-56.188,11.4-84.063-3.26-8.366-7.834-16.7-7.747-25.243s5.762-17.631,18.927-22.475c17.527-6.448,43.016-3.054,58.037,5,21.811,11.7,24.364,28.1,27.11,43.451,3.48,19.442,1.071,37.564-1.946,57.018-4.192,27.031,2.1,53.731,1.362,80.539-.756,27.391-1.519,56.852,7.7,83.857,5.386,15.77,15.473,31.43,12.96,47.405-2.832,18-40.83,46.007-73.92,25.575-13.7-8.458-17.839-21.838-24.064-32.195C1003.694,413.312,995.943,400.922,983.984,389.564Z" transform="translate(131.709 18.205)" fill="none" stroke="#fff" stroke-miterlimit="10" stroke-width="1.359"/>
              <path id="Trazado_588093" data-name="Trazado 588093" d="M1049.327,420.8a22.225,22.225,0,0,1-9.879-6.828c-14.927-16.643-15.669-36.254-29.257-53.249-20.606-25.771-72.4-42.683-122.883-40.126-6.888.348-13.858,1.02-20.667.345s-13.623-3.077-15.359-6.8c-2.5-5.352,6.731-10.483,16.416-11.728s19.762.055,29.7.227c18.5.321,37.135-3.486,50.869-10.392,12.994-6.534,21.282-15.428,32.626-22.852s28.136-13.683,45.336-11.848c14.127,1.508,24.848,8.188,30.89,15.451,10.983,13.2,9.678,28.38,9.963,42.928.45,23.024,5.53,45.962,14.85,68.392,3.31,7.966,7.309,14.365,3.11,22.383C1080.993,414.426,1066.755,426.537,1049.327,420.8Z" transform="translate(138.748 41.944)" fill="none" stroke="#fff" stroke-miterlimit="10" stroke-width="1.359"/>
              <path id="Trazado_588094" data-name="Trazado 588094" d="M1003.683,265.614c-12.322-7.941-14.93-19.3-12.968-29.733s7.887-20.521,10.5-30.912c3.036-12.052,1.536-24.451-4.371-36.169-3.336-6.616-8.111-13.281-6.811-20.114s11.571-13.8,23.8-12.854c10.021.771,16.478,6.2,20.907,11.256,15.165,17.329,22.392,36.785,20.818,56.04-1.056,12.9-5.883,26.255,1.754,38.456,5.813,9.284,15.48,21.582-2.432,29.174C1040.27,276.953,1014.616,272.661,1003.683,265.614Z" transform="translate(161.405 22.136)" fill="none" stroke="#fff" stroke-miterlimit="10" stroke-width="1.359"/>
              <path id="Trazado_588095" data-name="Trazado 588095" d="M994.6,327.513c-7.423-2.716-15.94-4.527-22.648-7.766-9.175-4.431-14.089-11.449-12.72-18.166s8.981-12.944,19.707-16.119a37.343,37.343,0,0,0,6.923-2.353c3.376-1.843,4.575-4.99,8.972-5.962,4.067-.9,8.617.659,11.329,2.57,6.759,4.765,6.86,11.412,5.821,17.454s-2.844,12.349,1.043,18.021c2.274,3.317,6.34,6.146,9.4,9.263,5.3,5.4,7.5,11.72,6.215,17.829a6.617,6.617,0,0,1-4.781,5.336C1013.347,350.928,1003.42,330.739,994.6,327.513Z" transform="translate(156.381 45.151)" fill="none" stroke="#fff" stroke-miterlimit="10" stroke-width="1.359"/>
              <path id="Trazado_588096" data-name="Trazado 588096" d="M1019.119,213.3a15.841,15.841,0,0,1,7.391-3.551,19.1,19.1,0,0,1,17.256,6.318c5.49,6.841,9.474,39.412-17.254,34.122C1006.434,246.213,1010.294,220.607,1019.119,213.3Z" transform="translate(165.012 34.16)" fill="none" stroke="#fff" stroke-miterlimit="10" stroke-width="1.359"/>
            </g>
          </g>
        </g>
      </g>
    </g>
    <g id="Grupo_850257" data-name="Grupo 850257" transform="translate(12805.734 13555.544)">
      <path id="Trazado_588098" data-name="Trazado 588098" d="M240.968,75.018c10.8.3,21.481-3.3,30.9-6.489a2.283,2.283,0,0,0,1.45-1.557,2.378,2.378,0,0,0-.4-2.135,43.657,43.657,0,0,0-27.4-16.5,42.618,42.618,0,0,0-30.87,7.252,2.256,2.256,0,0,0-.61.635,2.277,2.277,0,0,0-1.464,1.83,2.41,2.41,0,0,0,.273,1.557c5.1,9.162,15.87,15.063,28.118,15.408" transform="translate(-12510.331 -13490.639)" fill="#9fbe37"/>
      <path id="Trazado_588099" data-name="Trazado 588099" d="M262.55,75.1a.823.823,0,0,0,.007-1.114l-.06-.066c-1.837-1.98-3.72-3.9-5.615-5.816-.994-1.013-2.005-2.006-3.02-3q3.341.507,6.678,1.028,7.671,1.214,15.333,2.554l.009,0a.647.647,0,0,0,.726-.516.686.686,0,0,0-.476-.823c-5.062-1.282-10.155-2.34-15.269-3.313-2.357-.451-4.72-.856-7.088-1.244.47-.263.937-.527,1.408-.786l4.274-2.4c2.832-1.64,5.66-3.285,8.438-5.039a.708.708,0,0,0,.262-.861.633.633,0,0,0-.849-.355c-2.963,1.368-5.873,2.844-8.781,4.324l-4.334,2.28c-1.4.751-2.814,1.471-4.2,2.246-1.509-.233-3.017-.473-4.529-.7-1.806-.243-3.617-.452-5.428-.667l2.388-1.988c1.376-1.161,2.773-2.293,4.133-3.477,2.733-2.348,5.459-4.7,8.119-7.152a.716.716,0,0,0,.11-.9.622.622,0,0,0-.9-.178c-2.9,2.111-5.741,4.315-8.573,6.528-1.425,1.1-2.81,2.243-4.217,3.362l-4.2,3.387c-.019.016-.037.036-.056.053-2.3-.246-4.594-.477-6.9-.667-1-.075-1.993-.136-2.991-.2,1.669-1.806,3.35-3.6,4.977-5.456,2.058-2.293,4.1-4.606,6.085-6.977a.716.716,0,0,0,0-.909.619.619,0,0,0-.91-.055c-2.229,2.111-4.405,4.279-6.564,6.467-2.182,2.161-4.274,4.42-6.413,6.626a1.057,1.057,0,0,0-.1.149c-3.227-.152-13.5-.956-16.732-.909a.749.749,0,0,0-.031,1.49h.007c3.44.216,13.921,1.21,17.352,1.509,2.148,2.49,4.345,4.933,6.525,7.392,2.4,2.62,4.793,5.243,7.278,7.775a.673.673,0,0,0,.934.036.779.779,0,0,0,.1-1.05c-2.192-2.823-4.476-5.556-6.757-8.29q-2.4-2.784-4.793-5.564c.619.061,1.238.1,1.856.169q3.839.411,7.671.862c2.06,2.1,4.1,4.216,6.191,6.277,2.3,2.283,4.616,4.554,6.994,6.755a.674.674,0,0,0,.937-.014.78.78,0,0,0,.043-1.055c-2.133-2.468-4.329-4.867-6.538-7.251-1.316-1.432-2.655-2.839-4-4.243,1.369.177,2.737.34,4.1.532,1.609.21,3.215.449,4.822.681,1.83,1.728,3.639,3.484,5.5,5.177q2.619,2.409,5.3,4.744a.7.7,0,0,0,.2.25l.6.457a.709.709,0,0,0,.953-.078" transform="translate(-12513.14 -13491.657)" fill="#507533"/>
    </g>
    <g id="Grupo_850258" data-name="Grupo 850258" transform="translate(12091.746 13495.041)">
      <path id="Trazado_588100" data-name="Trazado 588100" d="M577.086,52.452c-7.632,4.039-13.811,10.755-19.262,16.682a1.922,1.922,0,0,0-.467,1.656,1.77,1.77,0,0,0,1.022,1.329,32.964,32.964,0,0,0,24.841.712,35.942,35.942,0,0,0,18.973-17.2,1.915,1.915,0,0,0,.2-.684,2.085,2.085,0,0,0,.209-.29,1.958,1.958,0,0,0,.174-1.562,1.8,1.8,0,0,0-.734-.977c-6.746-4.376-16.309-4.247-24.961.333" transform="translate(-12369.15 -13447.023)" fill="#507533"/>
      <path id="Trazado_588101" data-name="Trazado 588101" d="M580.5,49.939a.533.533,0,0,0-.647.333.587.587,0,0,0,.293.751c2.449,1.075,4.93,2.056,7.409,3.038,1.721.649,3.44,1.3,5.162,1.945l-.538.239-3.729,1.621c-.837.363-1.7.728-2.568,1.092-2.114-.635-4.221-1.293-6.344-1.889-2.341-.67-4.685-1.322-7.05-1.9a.536.536,0,0,0-.632.368.584.584,0,0,0,.33.732c2.288.859,4.6,1.646,6.908,2.418,1.386.47,2.782.912,4.175,1.352q-1.483.606-2.983,1.208-1.75.711-3.49,1.393c-1.837-.473-3.669-.972-5.515-1.412-1.736-.421-3.474-.825-5.221-1.2a.509.509,0,0,0-.214-.085l-.564-.081a.57.57,0,0,0-.62.419.614.614,0,0,0,.374.761l.063.02c1.921.64,3.856,1.225,5.793,1.8,1.02.307,2.044.593,3.069.875-.633.244-1.282.5-1.9.731l-7.212,2.711-7.06,2.574a.535.535,0,0,0-.321.628.492.492,0,0,0,.6.38s2.911-.786,7.21-2.177c2.147-.709,4.654-1.529,7.313-2.492.724-.261,1.481-.546,2.225-.822-.231.362-.466.72-.7,1.08-.694,1.092-1.406,2.172-2.086,3.274-1.366,2.2-2.729,4.4-4.018,6.662a.55.55,0,0,0,.115.685.478.478,0,0,0,.7-.085c1.547-2.067,3.023-4.186,4.495-6.309.738-1.061,1.445-2.143,2.169-3.213.693-1.044,1.406-2.072,2.082-3.127,1.1-.419,2.211-.842,3.322-1.277,1.313-.529,2.62-1.069,3.907-1.612l-.938,2.249c-.541,1.318-1.1,2.623-1.625,3.949-1.058,2.645-2.108,5.291-3.084,7.975a.544.544,0,0,0,.233.657.482.482,0,0,0,.669-.224c1.255-2.549,2.434-5.135,3.605-7.725.594-1.291,1.145-2.6,1.719-3.9l1.7-3.911c.006-.014.01-.031.016-.049q1.008-.437,1.984-.87c1.3-.581,2.552-1.133,3.721-1.715.449-.221.881-.427,1.31-.634-.52,1.869-1.052,3.734-1.525,5.62-.619,2.348-1.217,4.7-1.762,7.074a.536.536,0,0,0,.311.618.488.488,0,0,0,.636-.311c.8-2.29,1.538-4.6,2.26-6.913.747-2.307,1.4-4.643,2.1-6.964a.879.879,0,0,0,.015-.127c2.015-1.014,3.672-1.916,4.822-2.571s6.12-3.118,6.12-3.118a.594.594,0,0,0,.237-.743.527.527,0,0,0-.714-.285l-.015.006s-4.977,2.412-6.166,2.983c-1.173.6-2.891,1.371-4.933,2.335-.142.066-.3.133-.442.2-2.315-.87-4.647-1.689-6.973-2.526-2.519-.859-5.039-1.722-7.589-2.488" transform="translate(-12369.087 -13446.768)" fill="#9fbe37"/>
    </g>
    <g id="Grupo_850260" data-name="Grupo 850260" transform="translate(12827.086 13590.338)">
      <path id="Trazado_588102" data-name="Trazado 588102" d="M208.248,230.028c5.678,3.881,12.483,5.629,18.488,7.171a1.314,1.314,0,0,0,1.249-.333,1.464,1.464,0,0,0,.438-1.277,29.848,29.848,0,0,0-9.6-18.248,26.9,26.9,0,0,0-18.7-6.752,1.309,1.309,0,0,0-.52.128,1.416,1.416,0,0,0-.27-.033,1.35,1.35,0,0,0-1.071.507,1.484,1.484,0,0,0-.329.925c-.072,6.65,3.884,13.511,10.32,17.912" transform="translate(-12539.251 -13355.69)" fill="#507533"/>
      <g id="Grupo_850259" data-name="Grupo 850259">
        <path id="Trazado_588103" data-name="Trazado 588103" d="M206.556,229.02a.43.43,0,0,0,.476.333.452.452,0,0,0,.362-.516c-.3-2.207-.679-4.4-1.053-6.587-.281-1.507-.558-3.014-.844-4.521.125.1.243.194.371.294l2.549,2.039c.572.457,1.154.931,1.738,1.413.449,1.786.881,3.575,1.36,5.352.519,1.963,1.049,3.922,1.632,5.867a.429.429,0,0,0,.492.308.455.455,0,0,0,.336-.537c-.376-2-.806-3.988-1.248-5.972-.261-1.193-.541-2.38-.824-3.567q.988.829,1.982,1.668c.776.651,1.544,1.307,2.306,1.959.442,1.52.863,3.046,1.329,4.557.433,1.426.878,2.847,1.348,4.26a.471.471,0,0,0,.032.189l.177.44a.445.445,0,0,0,.52.279.481.481,0,0,0,.334-.577l-.012-.055c-.368-1.648-.776-3.283-1.195-4.916-.217-.861-.448-1.717-.681-2.573.411.36.837.725,1.235,1.077,1.7,1.507,3.3,2.913,4.659,4.116l4.508,4.063a.377.377,0,0,0,.532-.022.436.436,0,0,0,0-.59s-1.683-1.786-4.315-4.33c-1.323-1.265-2.864-2.745-4.557-4.279-.461-.416-.95-.848-1.428-1.275.326.02.65.045.975.069.981.059,1.961.136,2.942.183,1.964.1,3.928.188,5.9.207a.4.4,0,0,0,.392-.36.412.412,0,0,0-.336-.47c-1.951-.283-3.906-.491-5.862-.7-.977-.1-1.958-.177-2.936-.268-.949-.078-1.9-.177-2.846-.238q-1.074-.941-2.163-1.886c-.871-.734-1.747-1.46-2.617-2.171l1.822-.233c1.062-.142,2.127-.263,3.187-.424,2.123-.305,4.245-.618,6.359-1a.412.412,0,0,0,.327-.434.4.4,0,0,0-.414-.393c-2.142.125-4.275.319-6.409.521-1.068.092-2.132.225-3.2.336l-3.2.355-.037.008q-.687-.552-1.361-1.083c-.9-.7-1.759-1.385-2.606-2-.323-.235-.629-.463-.936-.69,1.408-.38,2.818-.753,4.218-1.172,1.755-.5,3.5-1.025,5.245-1.592a.419.419,0,0,0,.271-.474.4.4,0,0,0-.457-.335c-1.79.352-3.57.75-5.345,1.166-1.78.394-3.542.869-5.313,1.3a.559.559,0,0,0-.087.041c-1.466-1.045-2.715-1.878-3.6-2.445s-4.476-3.161-4.476-3.161a.413.413,0,0,0-.572.128.471.471,0,0,0,.106.632l.01.008s3.559,2.621,4.408,3.249c.86.6,2.048,1.535,3.493,2.621.1.075.206.161.306.238.38,2.027.8,4.044,1.205,6.064.47,2.171.937,4.341,1.479,6.495" transform="translate(-12540.413 -13356.283)" fill="#9fbe37"/>
      </g>
    </g>
    <g id="Grupo_850262" data-name="Grupo 850262" transform="translate(12716.086 13699.209)">
      <path id="Trazado_588104" data-name="Trazado 588104" d="M215.827,244.318c9.848,6.731,21.65,9.763,32.065,12.437a2.279,2.279,0,0,0,2.167-.578,2.539,2.539,0,0,0,.759-2.215,51.767,51.767,0,0,0-16.652-31.649,46.66,46.66,0,0,0-32.441-11.71,2.27,2.27,0,0,0-.9.223,2.459,2.459,0,0,0-.468-.057,2.342,2.342,0,0,0-1.858.879,2.574,2.574,0,0,0-.57,1.6c-.125,11.533,6.736,23.433,17.9,31.065" transform="translate(-12536.595 -13354.484)" fill="#507533"/>
      <g id="Grupo_850261" data-name="Grupo 850261" transform="translate(-12344.942 -13146.765)">
        <path id="Trazado_588105" data-name="Trazado 588105" d="M214.7,243.34a.745.745,0,0,0,.825.578.784.784,0,0,0,.629-.9c-.524-3.827-1.178-7.625-1.827-11.425-.488-2.614-.968-5.228-1.464-7.842.217.171.422.337.644.51l4.421,3.537c.991.793,2,1.615,3.015,2.451.779,3.1,1.528,6.2,2.358,9.283.9,3.4,1.819,6.8,2.831,10.176a.744.744,0,0,0,.853.535.789.789,0,0,0,.583-.931c-.652-3.472-1.4-6.916-2.164-10.358-.452-2.068-.938-4.129-1.428-6.186q1.713,1.437,3.437,2.893c1.347,1.129,2.678,2.267,4,3.4.767,2.636,1.5,5.282,2.3,7.9.751,2.473,1.523,4.937,2.338,7.388a.817.817,0,0,0,.056.328l.307.763a.773.773,0,0,0,.9.483.834.834,0,0,0,.58-1l-.021-.1c-.639-2.858-1.347-5.695-2.072-8.526-.376-1.493-.777-2.978-1.181-4.462.713.624,1.451,1.257,2.141,1.867,2.956,2.614,5.716,5.051,8.08,7.139,4.691,4.229,7.819,7.046,7.819,7.046a.655.655,0,0,0,.922-.038.757.757,0,0,0,0-1.023s-2.918-3.1-7.484-7.511c-2.295-2.193-4.967-4.761-7.9-7.421-.8-.722-1.648-1.471-2.476-2.212.565.035,1.127.079,1.691.119,1.7.1,3.4.236,5.1.318,3.406.166,6.812.326,10.226.358a.7.7,0,0,0,.68-.624.715.715,0,0,0-.583-.814c-3.383-.491-6.774-.852-10.167-1.208-1.694-.179-3.4-.307-5.092-.464-1.646-.136-3.289-.307-4.937-.413q-1.863-1.633-3.751-3.271c-1.51-1.273-3.03-2.532-4.538-3.765l3.161-.4c1.842-.247,3.69-.456,5.527-.736,3.682-.529,7.362-1.072,11.028-1.734a.715.715,0,0,0,.567-.752.7.7,0,0,0-.718-.681c-3.715.217-7.415.554-11.115.9-1.852.16-3.7.391-5.545.584l-5.542.616-.064.014q-1.192-.957-2.361-1.878c-1.556-1.216-3.051-2.4-4.52-3.461-.56-.407-1.091-.8-1.623-1.2,2.443-.66,4.888-1.306,7.316-2.033,3.043-.874,6.079-1.778,9.1-2.76a.727.727,0,0,0,.47-.822.685.685,0,0,0-.792-.581c-3.1.611-6.191,1.3-9.27,2.022-3.087.684-6.143,1.506-9.214,2.253a.971.971,0,0,0-.151.071c-2.542-1.813-4.709-3.257-6.245-4.24s-7.763-5.483-7.763-5.483a.716.716,0,0,0-.991.223.817.817,0,0,0,.184,1.1l.018.014s6.173,4.546,7.645,5.635c1.492,1.048,3.552,2.663,6.058,4.546.171.13.358.28.532.413.659,3.515,1.387,7.014,2.09,10.518.815,3.765,1.625,7.53,2.565,11.264" transform="translate(-195.471 -209.519)" fill="#9fbe37"/>
      </g>
    </g>
    <g id="Grupo_850264" data-name="Grupo 850264" transform="translate(13165.314 13451.107)">
      <path id="Trazado_588106" data-name="Trazado 588106" d="M212.5,238.052c8.019,5.482,17.63,7.951,26.112,10.128a1.856,1.856,0,0,0,1.764-.471,2.067,2.067,0,0,0,.618-1.8,42.155,42.155,0,0,0-13.56-25.772A38,38,0,0,0,201.02,210.6a1.848,1.848,0,0,0-.734.181,2,2,0,0,0-.381-.046,1.907,1.907,0,0,0-1.513.716,2.1,2.1,0,0,0-.464,1.306c-.1,9.392,5.485,19.082,14.576,25.3" transform="translate(-12537.759 -13355.014)" fill="#507533"/>
      <g id="Grupo_850263" data-name="Grupo 850263" transform="translate(-12344.942 -13146.765)">
        <path id="Trazado_588107" data-name="Trazado 588107" d="M211.127,237.061a.607.607,0,0,0,.672.471.639.639,0,0,0,.512-.729c-.427-3.117-.959-6.209-1.488-9.3-.4-2.129-.789-4.257-1.192-6.386.177.139.343.274.524.416l3.6,2.88c.807.645,1.629,1.315,2.455,2,.635,2.522,1.244,5.048,1.921,7.559.732,2.772,1.481,5.539,2.306,8.287a.606.606,0,0,0,.695.435.643.643,0,0,0,.474-.758c-.531-2.827-1.138-5.632-1.762-8.435-.368-1.684-.764-3.362-1.163-5.037q1.4,1.17,2.8,2.356c1.1.919,2.181,1.846,3.256,2.767.624,2.146,1.219,4.3,1.877,6.436.612,2.014,1.24,4.021,1.9,6.017a.665.665,0,0,0,.046.267l.25.621a.629.629,0,0,0,.735.393.679.679,0,0,0,.472-.816l-.017-.077c-.52-2.327-1.1-4.637-1.687-6.943-.306-1.216-.633-2.425-.961-3.634.581.508,1.182,1.023,1.744,1.521,2.407,2.129,4.655,4.113,6.579,5.813l6.367,5.738a.533.533,0,0,0,.751-.031.616.616,0,0,0,0-.833s-2.376-2.522-6.095-6.116c-1.869-1.786-4.045-3.877-6.436-6.043-.651-.588-1.342-1.2-2.016-1.8.46.029.918.064,1.377.1,1.386.084,2.77.192,4.155.259,2.774.135,5.547.265,8.327.292a.566.566,0,0,0,.553-.508.582.582,0,0,0-.474-.663c-2.755-.4-5.516-.694-8.279-.984-1.38-.146-2.765-.25-4.147-.378-1.34-.111-2.678-.25-4.02-.336q-1.517-1.329-3.055-2.663c-1.23-1.037-2.468-2.062-3.7-3.066l2.574-.329c1.5-.2,3-.371,4.5-.6,3-.431,5.995-.873,8.981-1.412a.582.582,0,0,0,.462-.612.566.566,0,0,0-.585-.555c-3.025.177-6.038.451-9.051.736-1.509.13-3.011.318-4.515.475l-4.513.5-.052.011q-.971-.779-1.923-1.53c-1.267-.99-2.484-1.956-3.681-2.818-.456-.332-.888-.654-1.321-.975,1.989-.537,3.981-1.063,5.957-1.656,2.478-.712,4.95-1.448,7.408-2.248a.592.592,0,0,0,.383-.67.558.558,0,0,0-.645-.473c-2.528.5-5.042,1.059-7.549,1.647-2.514.557-5,1.227-7.5,1.835a.788.788,0,0,0-.123.057c-2.07-1.477-3.835-2.652-5.085-3.453s-6.321-4.465-6.321-4.465a.583.583,0,0,0-.807.181.665.665,0,0,0,.15.893l.015.011s5.027,3.7,6.226,4.589c1.215.853,2.892,2.168,4.934,3.7.139.106.291.228.433.336.537,2.862,1.13,5.712,1.7,8.565.664,3.066,1.323,6.131,2.089,9.173" transform="translate(-195.471 -209.519)" fill="#9fbe37"/>
      </g>
    </g>
    <g id="Grupo_850266" data-name="Grupo 850266" transform="translate(14200.5 12720.684)">
      <g id="Grupo_850265" data-name="Grupo 850265" transform="translate(-1437.461 858.141)">
        <path id="Trazado_588108" data-name="Trazado 588108" d="M40.086,75.677c5.678,3.881,12.483,5.629,18.488,7.173a1.319,1.319,0,0,0,1.249-.335,1.464,1.464,0,0,0,.438-1.277,29.848,29.848,0,0,0-9.6-18.248,26.9,26.9,0,0,0-18.7-6.752,1.307,1.307,0,0,0-.52.128,1.549,1.549,0,0,0-.27-.033,1.35,1.35,0,0,0-1.071.507,1.488,1.488,0,0,0-.329.925c-.072,6.65,3.882,13.511,10.32,17.912" transform="translate(-12618.842 -13442.903)" fill="#507533"/>
        <path id="Trazado_588109" data-name="Trazado 588109" d="M38.394,74.668A.43.43,0,0,0,38.87,75a.452.452,0,0,0,.362-.516c-.3-2.207-.679-4.4-1.053-6.587-.281-1.507-.558-3.014-.844-4.521.125.1.243.194.371.294l2.549,2.039c.572.457,1.154.931,1.738,1.413.449,1.786.881,3.575,1.36,5.352.519,1.963,1.049,3.922,1.632,5.867a.429.429,0,0,0,.492.308.455.455,0,0,0,.336-.537c-.376-2-.806-3.988-1.248-5.972-.261-1.193-.541-2.38-.824-3.567q.988.829,1.982,1.668c.776.651,1.544,1.307,2.306,1.959.442,1.52.863,3.046,1.329,4.557.433,1.426.878,2.847,1.348,4.26a.471.471,0,0,0,.032.189l.177.44a.445.445,0,0,0,.52.279.481.481,0,0,0,.334-.577l-.012-.055c-.368-1.648-.776-3.283-1.195-4.916-.217-.861-.448-1.717-.682-2.573.413.36.838.725,1.238,1.077,1.7,1.507,3.294,2.913,4.657,4.118l4.508,4.061a.377.377,0,0,0,.532-.022.434.434,0,0,0,0-.588S59.134,80.665,56.5,78.12c-1.323-1.265-2.864-2.745-4.557-4.279-.461-.416-.95-.848-1.428-1.276.326.02.651.045.975.069.981.059,1.961.136,2.942.183,1.964.1,3.928.188,5.9.207a.4.4,0,0,0,.392-.36.412.412,0,0,0-.336-.47c-1.951-.283-3.906-.491-5.862-.7-.977-.1-1.958-.177-2.936-.268-.949-.078-1.9-.177-2.846-.238q-1.074-.941-2.163-1.886c-.871-.734-1.747-1.46-2.617-2.171l1.822-.233c1.062-.142,2.127-.263,3.187-.424,2.123-.305,4.245-.618,6.359-1a.412.412,0,0,0,.327-.434.4.4,0,0,0-.414-.393c-2.142.125-4.276.319-6.409.521-1.068.094-2.132.225-3.2.336l-3.2.355-.037.008q-.687-.552-1.361-1.083c-.9-.7-1.759-1.385-2.606-2-.323-.235-.629-.463-.936-.69,1.408-.38,2.818-.753,4.218-1.172,1.755-.5,3.5-1.025,5.245-1.592a.42.42,0,0,0,.271-.474.4.4,0,0,0-.457-.335c-1.79.352-3.57.75-5.345,1.166-1.78.394-3.542.869-5.313,1.3a.559.559,0,0,0-.087.041c-1.466-1.045-2.715-1.878-3.6-2.445s-4.476-3.161-4.476-3.161a.413.413,0,0,0-.572.128.473.473,0,0,0,.106.632L27.5,56s3.559,2.621,4.408,3.249c.86.6,2.048,1.535,3.493,2.621.1.075.206.161.306.238.38,2.027.8,4.044,1.205,6.064.47,2.171.937,4.341,1.479,6.495" transform="translate(-12620.004 -13443.496)" fill="#9fbe37"/>
      </g>
    </g>
    <g id="Grupo_850267" data-name="Grupo 850267" transform="translate(12822.797 13553.985)">
      <path id="Trazado_588110" data-name="Trazado 588110" d="M374.423,17.178c-7.632,4.039-13.811,10.755-19.262,16.682a1.922,1.922,0,0,0-.467,1.656,1.77,1.77,0,0,0,1.022,1.329,32.971,32.971,0,0,0,24.841.714,35.952,35.952,0,0,0,18.973-17.2,1.917,1.917,0,0,0,.2-.684,2.082,2.082,0,0,0,.209-.29,1.957,1.957,0,0,0,.174-1.562,1.8,1.8,0,0,0-.734-.977c-6.746-4.376-16.309-4.247-24.961.333" transform="translate(-12439.069 -13465.954)" fill="#507533"/>
      <path id="Trazado_588111" data-name="Trazado 588111" d="M377.838,14.665a.533.533,0,0,0-.647.333.587.587,0,0,0,.293.751c2.449,1.075,4.93,2.056,7.409,3.038,1.721.649,3.44,1.3,5.162,1.945l-.538.239-3.729,1.621c-.835.363-1.7.728-2.568,1.092-2.114-.635-4.221-1.293-6.344-1.889-2.341-.67-4.685-1.322-7.048-1.9a.537.537,0,0,0-.633.368.584.584,0,0,0,.33.732c2.288.859,4.6,1.646,6.908,2.418,1.386.47,2.782.912,4.175,1.352q-1.483.606-2.983,1.208-1.75.711-3.49,1.393c-1.837-.473-3.668-.972-5.515-1.41-1.736-.423-3.474-.826-5.221-1.2a.508.508,0,0,0-.214-.085l-.564-.081a.57.57,0,0,0-.62.419.614.614,0,0,0,.374.761l.063.02c1.921.64,3.856,1.225,5.793,1.8,1.019.307,2.043.593,3.069.875-.634.244-1.282.5-1.9.731L362.19,31.9l-7.06,2.574a.535.535,0,0,0-.321.628.492.492,0,0,0,.6.38s2.911-.786,7.21-2.177c2.147-.709,4.654-1.529,7.315-2.492.722-.261,1.479-.546,2.223-.822-.231.362-.466.72-.7,1.08-.694,1.092-1.406,2.172-2.086,3.274-1.366,2.2-2.729,4.4-4.018,6.662a.549.549,0,0,0,.115.685.478.478,0,0,0,.7-.085c1.547-2.067,3.023-4.186,4.5-6.309.737-1.061,1.445-2.143,2.169-3.213.692-1.044,1.406-2.072,2.082-3.127,1.1-.419,2.211-.842,3.322-1.277,1.313-.529,2.621-1.069,3.907-1.612l-.939,2.249c-.541,1.318-1.1,2.623-1.625,3.949-1.058,2.645-2.108,5.291-3.084,7.975a.544.544,0,0,0,.233.657.482.482,0,0,0,.669-.224c1.255-2.549,2.434-5.135,3.605-7.725.594-1.291,1.145-2.6,1.719-3.9l1.7-3.911c.006-.014.01-.031.016-.049q1.008-.437,1.984-.87c1.3-.581,2.553-1.133,3.722-1.715.449-.221.88-.426,1.31-.634-.52,1.87-1.052,3.734-1.525,5.62-.619,2.348-1.217,4.7-1.761,7.074a.533.533,0,0,0,.309.618.488.488,0,0,0,.636-.311c.8-2.29,1.538-4.6,2.259-6.913.748-2.307,1.4-4.643,2.1-6.964a.871.871,0,0,0,.015-.127c2.016-1.014,3.672-1.916,4.822-2.571s6.12-3.118,6.12-3.118a.594.594,0,0,0,.237-.743.527.527,0,0,0-.715-.285l-.015.006s-4.977,2.412-6.166,2.983c-1.173.6-2.891,1.371-4.933,2.335-.141.066-.3.135-.442.2-2.315-.87-4.647-1.689-6.973-2.526-2.519-.859-5.039-1.722-7.589-2.488" transform="translate(-12439.007 -13465.698)" fill="#9fbe37"/>
    </g>
    <g id="Grupo_850268" data-name="Grupo 850268" transform="translate(12896.438 13507.936)">
      <path id="Trazado_588112" data-name="Trazado 588112" d="M507.494,298.642c-8.688.542-17.024,4.213-24.38,7.454a1.86,1.86,0,0,0-1.061,1.355,1.9,1.9,0,0,0,.457,1.684,33.935,33.935,0,0,0,47.355,3.185,1.843,1.843,0,0,0,.449-.556,1.749,1.749,0,0,0,.3-.183,1.909,1.909,0,0,0,.753-1.391,1.942,1.942,0,0,0-.318-1.23c-4.682-6.98-13.708-10.933-23.558-10.318" transform="translate(-12404.796 -13305.961)" fill="#9fbe37"/>
      <path id="Trazado_588113" data-name="Trazado 588113" d="M492.606,301.118a.661.661,0,0,0,.066.9l.053.049c1.6,1.454,3.237,2.862,4.879,4.258.863.74,1.739,1.463,2.617,2.183q-2.712-.162-5.425-.34c-4.158-.277-8.318-.6-12.468-.933l-.007,0a.529.529,0,0,0-.551.468.548.548,0,0,0,.436.626c4.146.659,8.3,1.138,12.467,1.548,1.92.191,3.842.343,5.768.482-.359.246-.719.491-1.08.734l-3.275,2.238c-2.167,1.523-4.33,3.049-6.446,4.659a.573.573,0,0,0-.155.709.5.5,0,0,0,.7.224c2.29-1.313,4.53-2.709,6.768-4.108l3.333-2.146c1.074-.7,2.163-1.385,3.225-2.108,1.227.078,2.453.16,3.68.23,1.464.064,2.932.1,4.4.141l-1.79,1.768c-1.028,1.031-2.077,2.042-3.091,3.091-2.042,2.083-4.078,4.172-6.055,6.331a.576.576,0,0,0-.03.732.5.5,0,0,0,.729.078c2.2-1.906,4.33-3.881,6.46-5.863,1.071-.983,2.11-2,3.166-3l3.15-3.022.043-.047c1.858.03,3.717.049,5.576.034.8-.014,1.609-.036,2.413-.059-1.224,1.571-2.457,3.135-3.642,4.741-1.506,1.989-2.992,3.994-4.433,6.041a.574.574,0,0,0,.059.729.5.5,0,0,0,.732-.022c1.653-1.856,3.26-3.753,4.852-5.667,1.612-1.894,3.144-3.858,4.719-5.783a1.178,1.178,0,0,0,.069-.127c2.6-.114,10.9-.214,13.485-.487a.593.593,0,0,0,.51-.613.582.582,0,0,0-.58-.585h-.007c-2.773.077-11.247.042-14.021.052-1.884-1.842-3.806-3.642-5.714-5.457-2.092-1.928-4.183-3.858-6.341-5.709a.541.541,0,0,0-.751.038.628.628,0,0,0-.009.851c1.94,2.1,3.949,4.132,5.955,6.162q2.1,2.059,4.206,4.114c-.5,0-1,.006-1.5,0q-3.107-.049-6.213-.133c-1.787-1.534-3.559-3.086-5.372-4.587-1.993-1.667-4-3.319-6.048-4.913a.544.544,0,0,0-.751.078.629.629,0,0,0,.034.85c1.871,1.826,3.788,3.592,5.713,5.345,1.149,1.053,2.315,2.085,3.483,3.113-1.109-.041-2.217-.074-3.327-.128-1.3-.05-2.609-.127-3.913-.2-1.581-1.254-3.145-2.531-4.747-3.755q-2.256-1.742-4.557-3.421a.6.6,0,0,0-.178-.186l-.511-.324a.575.575,0,0,0-.76.133" transform="translate(-12404.912 -13306.32)" fill="#507533"/>
    </g>
    <g id="Grupo_850269" data-name="Grupo 850269" transform="translate(13005.115 13524.639)">
      <path id="Trazado_588114" data-name="Trazado 588114" d="M243.2,275.767c-10.045,7.388-17.517,18.256-24.109,27.845a2.786,2.786,0,0,0-.342,2.449,2.48,2.48,0,0,0,1.706,1.665,47.356,47.356,0,0,0,35.369-4.388,52.8,52.8,0,0,0,23.6-28.52,2.331,2.331,0,0,1,.4-1.47,2.8,2.8,0,0,0-.055-2.252,2.5,2.5,0,0,0-1.227-1.227c-10.412-4.74-23.95-2.479-35.338,5.9" transform="translate(-12529.461 -13323.563)" fill="#9fbe37"/>
      <path id="Trazado_588115" data-name="Trazado 588115" d="M226.819,291.06a.887.887,0,0,0,.694,1.022l.1.017c2.92.5,5.849.922,8.778,1.321,1.544.219,3.091.407,4.638.59q-3.364,1.906-6.737,3.8-7.761,4.336-15.592,8.55l-.01.006a.794.794,0,0,0-.337.986.713.713,0,0,0,.952.413c5.425-2.424,10.736-5.072,16.012-7.813,2.434-1.261,4.844-2.57,7.247-3.9-.262.573-.523,1.147-.79,1.717L239.382,303c-1.551,3.506-3.1,7.014-4.527,10.584a.8.8,0,0,0,.3.97.705.705,0,0,0,1-.277c1.843-3.351,3.57-6.762,5.292-10.176l2.521-5.155c.8-1.679,1.641-3.338,2.419-5.032,1.523-.858,3.05-1.709,4.569-2.578,1.8-1.06,3.586-2.154,5.372-3.243L255.4,291.6c-.526,2.036-1.089,4.06-1.582,6.105-1.018,4.08-2.023,8.165-2.911,12.286a.784.784,0,0,0,.469.9.716.716,0,0,0,.928-.473c1.322-3.986,2.525-8.01,3.717-12.038.61-2.008,1.152-4.039,1.731-6.058l1.7-6.068c.007-.027.012-.058.019-.089,2.25-1.4,4.491-2.823,6.709-4.284.956-.64,1.9-1.291,2.854-1.942-.387,2.833-.793,5.664-1.109,8.508-.436,3.553-.841,7.111-1.164,10.681a.77.77,0,0,0,.573.831.729.729,0,0,0,.863-.595c.707-3.509,1.329-7.03,1.921-10.558.632-3.52,1.12-7.065,1.684-10.6a1.192,1.192,0,0,0,0-.2c3.038-2.15,12.918-8.708,15.835-11.043a.881.881,0,0,0,.189-1.13.767.767,0,0,0-1.1-.252l-.007.006c-3.274,2.244-13.459,8.773-16.776,10.936-3.527-.747-7.066-1.416-10.6-2.113-3.834-.689-7.667-1.382-11.529-1.928a.8.8,0,0,0-.875.629.851.851,0,0,0,.575,1.027c3.775,1.019,7.576,1.892,11.375,2.769,2.624.559,5.246,1.125,7.872,1.673-.6.385-1.2.784-1.8,1.164q-3.759,2.35-7.54,4.658c-3.2-.452-6.39-.939-9.594-1.333-3.536-.452-7.075-.88-10.627-1.2a.8.8,0,0,0-.847.678.844.844,0,0,0,.625.992c3.5.739,7.008,1.368,10.524,1.975,2.1.374,4.208.706,6.315,1.033-1.357.811-2.708,1.632-4.077,2.426-1.6.952-3.215,1.872-4.827,2.8-2.757-.279-5.51-.595-8.271-.82q-3.9-.34-7.817-.568a.739.739,0,0,0-.34-.085l-.835.008a.855.855,0,0,0-.821.748" transform="translate(-12529.612 -13324.68)" fill="#507533"/>
    </g>
    <g id="Grupo_850270" data-name="Grupo 850270" transform="translate(12804.266 13482.258)">
      <path id="Trazado_588116" data-name="Trazado 588116" d="M23.969,285.149c-5.227-7.155-12.639-12.273-19.179-16.788a1.65,1.65,0,0,0-1.621-.16,1.766,1.766,0,0,0-1.027,1.324,39.026,39.026,0,0,0,4.22,26.015,35.714,35.714,0,0,0,19.6,16.384,1.637,1.637,0,0,0,.672.078,1.82,1.82,0,0,0,.308.16,1.647,1.647,0,0,0,1.475-.125,1.787,1.787,0,0,0,.759-.955c2.714-7.886.717-17.823-5.21-25.934" transform="translate(-12632.228 -13323.206)" fill="#507533"/>
      <path id="Trazado_588117" data-name="Trazado 588117" d="M27.436,288.241a.57.57,0,0,0-.435-.609.543.543,0,0,0-.635.452c-.513,2.762-.931,5.539-1.351,8.315-.261,1.92-.527,3.839-.781,5.759-.11-.172-.214-.338-.327-.513-.709-1.135-1.456-2.33-2.229-3.567-.5-.8-1-1.625-1.512-2.46.171-2.326.364-4.65.5-6.979.158-2.568.3-5.14.374-7.716a.565.565,0,0,0-.464-.585.545.545,0,0,0-.611.487c-.343,2.553-.617,5.11-.875,7.67-.162,1.537-.3,3.075-.429,4.615q-.851-1.427-1.7-2.872-1-1.683-1.97-3.362c.075-2.006.177-4.013.22-6.021.047-1.891.08-3.781.078-5.673a.617.617,0,0,0,.037-.239l-.037-.6a.591.591,0,0,0-.508-.565.578.578,0,0,0-.628.538l-.007.07c-.214,2.127-.374,4.257-.522,6.387-.083,1.122-.146,2.244-.2,3.368-.349-.612-.712-1.236-1.046-1.834-1.434-2.553-2.773-4.936-3.919-6.98-2.259-4.108-3.763-6.847-3.763-6.847a.484.484,0,0,0-.642-.211.539.539,0,0,0-.233.7s1.3,2.878,3.425,7.082c1.076,2.1,2.325,4.546,3.736,7.129.383.7.794,1.435,1.195,2.155-.379-.169-.757-.343-1.134-.515-1.145-.51-2.281-1.039-3.431-1.532C5.3,282.3,3,281.313.665,280.411a.484.484,0,0,0-.61.255.543.543,0,0,0,.215.709c2.211,1.207,4.458,2.327,6.706,3.443,1.123.56,2.26,1.085,3.39,1.629,1.1.516,2.189,1.056,3.3,1.554.6,1.067,1.211,2.138,1.831,3.21.745,1.263,1.5,2.518,2.256,3.753l-2.262-.537c-1.322-.3-2.637-.634-3.963-.917-2.649-.582-5.3-1.157-7.968-1.645a.494.494,0,0,0-.56.371.531.531,0,0,0,.337.653c2.6.806,5.217,1.526,7.838,2.238,1.308.366,2.627.682,3.94,1.025l3.945,1,.047.008q.6.962,1.193,1.9c.79,1.236,1.547,2.437,2.313,3.538.292.426.567.834.843,1.241-1.827-.175-3.654-.361-5.487-.487-2.288-.183-4.579-.343-6.876-.444a.5.5,0,0,0-.51.444.52.52,0,0,0,.413.6c2.27.38,4.547.7,6.824,1,2.276.326,4.561.546,6.842.823a.763.763,0,0,0,.119-.009c1.332,1.9,2.49,3.448,3.321,4.518s4.08,5.761,4.08,5.761a.519.519,0,0,0,.732.1.6.6,0,0,0,.122-.8l-.009-.013s-3.2-4.711-3.963-5.836c-.787-1.1-1.833-2.744-3.123-4.681-.09-.133-.183-.283-.273-.419.349-2.582.647-5.172.962-7.759.3-2.794.6-5.586.807-8.393" transform="translate(-12632.929 -13323.116)" fill="#9fbe37"/>
    </g>
    <g id="Elipse_4800" data-name="Elipse 4800" transform="translate(1072.333 250)" fill="none" stroke="#fff" stroke-width="3" stroke-dasharray="6">
      <circle cx="9.5" cy="9.5" r="9.5" stroke="none"/>
      <circle cx="9.5" cy="9.5" r="8" fill="none"/>
    </g>
  </g>
</svg>
