<svg xmlns="http://www.w3.org/2000/svg" xmlns:xlink="http://www.w3.org/1999/xlink" width="179.941" height="184.141" viewBox="0 0 179.941 184.141">
  <defs>
    <clipPath id="clip-path">
      <rect id="Rectángulo_39418" data-name="Rectángulo 39418" width="74.396" height="74.601" fill="none"/>
    </clipPath>
    <clipPath id="clip-path-2">
      <rect id="Rectángulo_39419" data-name="Rectángulo 39419" width="63.059" height="63.135" fill="none"/>
    </clipPath>
    <clipPath id="clip-path-3">
      <rect id="Rectángulo_39420" data-name="Rectángulo 39420" width="66.327" height="66.458" fill="none"/>
    </clipPath>
  </defs>
  <g id="Grupo_850457" data-name="Grupo 850457" transform="translate(-1210 20)">
    <g id="Elipse_4798" data-name="Elipse 4798" transform="translate(1225.667 -20)" fill="none" stroke="#fff" stroke-width="3" stroke-dasharray="6">
      <circle cx="74" cy="74" r="74" stroke="none"/>
      <circle cx="74" cy="74" r="72.5" fill="none"/>
    </g>
    <g id="Grupo_850358" data-name="Grupo 850358" transform="translate(1315.545 -12.11)" clip-path="url(#clip-path)">
      <path id="Trazado_588150" data-name="Trazado 588150" d="M4.855,33.679c-1.583-.886-3.307-1.415-4.648-2.53-.21-.956.352-1.661.558-2.442a31.552,31.552,0,0,1,1.026-3.069c.386-1.013.669-2.063.949-3.1.171-.628.571-1.135.7-1.8a18.314,18.314,0,0,1,5.361.516,30.148,30.148,0,0,1,4.23-5.923c-.65-1.737-1.809-3.149-2.2-5,2.958-2.133,5.869-4.235,8.776-6.333,1.726.858,2.668,2.444,4.114,3.6a39.542,39.542,0,0,1,7.056-2.406c-.213-.783.376-1.483.282-2.276s.677-1.41.256-2.112c.313-.327.545-.573.767-.8H42.307l.754.755c-.259.749.368,1.425.256,2.178-.114.775.684,1.4.177,2.2,2.488.824,4.959,1.246,7.143,2.5,1.41-1.135,2.388-2.68,4.051-3.6,3.033,1.85,5.822,4.122,8.68,6.158a1.81,1.81,0,0,1-.2,1.431c-.625,1.143-1.167,2.333-1.758,3.54.124.645.659,1.047,1.086,1.542a22.977,22.977,0,0,1,3.1,4.51c1.48-.225,2.963-.449,4.492-.679.137.265.519.125.935.217C72.186,24.1,73.21,27.559,74.4,30.975a4.854,4.854,0,0,1-.764.655c-1.32.679-2.654,1.33-4.036,2.019a21.822,21.822,0,0,1,0,7.3c.752.386,1.55.788,2.34,1.2a5.551,5.551,0,0,1,2.289,1.438,5.133,5.133,0,0,1-.619,2.524c-.708,2.043-1.4,4.088-1.978,6.169-.163.584-.6,1.018-.674,1.607a17.63,17.63,0,0,1-5.329-.532,35.6,35.6,0,0,1-4.261,5.978c.69,1.695,1.783,3.08,2.183,4.879-1.441,1.123-2.9,2.152-4.345,3.2S56.249,69.48,54.78,70.6c-1.708-.809-2.667-2.447-4.1-3.58a24.1,24.1,0,0,1-6.721,2.151l-.257.257c-.249,1.482-.495,2.94-.767,4.564-.125.1-.386.314-.741.606H32.051c-.148-.194-.355-.459-.637-.822-.215-1.3-.457-2.76-.713-4.3a4.788,4.788,0,0,0-2.076-.651,29.431,29.431,0,0,1-4.9-1.8c-1.377,1.06-2.366,2.664-4.02,3.587-3.067-1.933-5.871-4.189-8.71-6.206a2.1,2.1,0,0,1,.241-1.473c.612-1.151,1.187-2.323,1.8-3.543-1.46-1.988-3.227-3.776-4.282-6.073-.43.057-.734.4-1.21.332-.988-.135-1.92.42-2.918.326-.387.519-.7-.529-1.107.143C2.123,50.607,1.286,47.1,0,43.72c1.439-1.415,3.284-1.81,4.819-2.8a.767.767,0,0,0-.309-.865c.194-2.12-.29-4.288.345-6.379" transform="translate(0 0)" fill="#252525"/>
      <path id="Trazado_588151" data-name="Trazado 588151" d="M4.017,50.706c-.788-2.349-1.53-4.565-2.289-6.828.094-.532.7-.516,1.058-.752a21.071,21.071,0,0,1,2.064-.982,2.89,2.89,0,0,0,1.132-.822C6.4,40.113,5.716,39.1,5.785,38a25.048,25.048,0,0,0,0-3.2c-.068-1.1.614-2.115.2-3.344-1.112-1.138-2.919-1.386-4.275-2.471.754-2.252,1.508-4.5,2.289-6.833,1.685-.028,3.23.725,4.876.532a4.651,4.651,0,0,0,.83-1.086,20.607,20.607,0,0,1,3.9-5.381,3.224,3.224,0,0,0,.832-1.115,1.274,1.274,0,0,0,.026-1.079c-.624-1.25-1.272-2.488-1.947-3.8C14.23,9.319,15.6,7.832,17.361,6.9a2.234,2.234,0,0,0,.619-.612c.223-.288.518-.181.795-.205q1.595,1.6,3.193,3.2a3.866,3.866,0,0,0,2.064-.624A40.942,40.942,0,0,1,29,6.921C29.9,6.629,30.995,6.888,31.67,6c.249-1.5.5-3,.755-4.544h7.493c-.217.795.347,1.491.287,2.289-.057.76.523,1.425.27,2.169a2.8,2.8,0,0,0,1.783.78,22.013,22.013,0,0,1,3.513.993c1.348.4,2.585,1.034,3.878,1.553a1.67,1.67,0,0,0,.5.055L53.38,6.063c.277.024.575-.039.721.078,1.791,1.47,3.717,2.756,5.584,4.1-.563,1.164-1.058,2.364-1.71,3.471a1.643,1.643,0,0,0,.22,2.019,12.708,12.708,0,0,0,.917.935,19.99,19.99,0,0,1,3.307,4.749,2.856,2.856,0,0,0,1.029,1.268c1.524.143,3.084-.451,4.775-.627.793,2.353,1.553,4.611,2.328,6.911-1.306,1.057-3.085,1.346-4.383,2.566-.1,1.589.34,3.165.331,4.782s-.34,3.216-.363,4.879c1.234,1.26,3.077,1.537,4.435,2.639-.9,2.278-1.441,4.66-2.379,6.784-.7.252-1.066-.361-1.64-.26a2.32,2.32,0,0,1-1.5-.223,3.886,3.886,0,0,0-1.587-.044,2.665,2.665,0,0,0-.952,1.161,20.344,20.344,0,0,1-3.7,5.171,4.327,4.327,0,0,0-.611.624,1.673,1.673,0,0,0-.226,2.019c.646,1.076,1.119,2.257,1.7,3.46l-5.751,4.183h-.391l-3.2-3.2a3.8,3.8,0,0,0-1.666.464c-.671.246-1.312.573-1.99.827a13.245,13.245,0,0,0-1.907.681,10.4,10.4,0,0,1-2.082.585c-.689.21-1.491.047-2.159.775.192.7-.373,1.4-.311,2.2.057.762-.523,1.426-.236,2.27H32.421c-.251-1.513-.5-3.014-.754-4.538a2.39,2.39,0,0,0-1.6-.664,16.637,16.637,0,0,1-3.525-.977c-1.311-.466-2.6-1-3.878-1.547a2.629,2.629,0,0,0-.685-.075l-3.207,3.207c-.22-.063-.488.119-.679-.107a18.713,18.713,0,0,0-2.782-2.121,11.908,11.908,0,0,0-2.787-1.88c.593-1.189,1.112-2.361,1.75-3.463A1.716,1.716,0,0,0,14.01,57a12.143,12.143,0,0,0-.922-.933,22.73,22.73,0,0,1-3.216-4.642A3.138,3.138,0,0,0,8.813,50.1c-1.553-.124-3.072.474-4.8.611" transform="translate(1.073 0.914)" fill="#b2b2b2"/>
      <path id="Trazado_588152" data-name="Trazado 588152" d="M29.734,61.761c-.153-.2-.3-.4-.389-.519A34.977,34.977,0,0,1,23.1,59.516a25.256,25.256,0,0,1-6.158-3.4,22.256,22.256,0,0,1-4.709-4.528c-.822-1.117-1.649-2.232-2.423-3.386a19.255,19.255,0,0,1-1.824-3.616,19.433,19.433,0,0,1-.965-2.66c-.252-1.058-.462-2.133-.786-3.173a28.5,28.5,0,0,1-.322-3.08,7.109,7.109,0,0,1-.22-2.652,58.385,58.385,0,0,1,1.073-6.535,29.776,29.776,0,0,1,2.424-6.145,28.712,28.712,0,0,1,2.911-4.35,26.936,26.936,0,0,1,2.74-2.918c1.576-1.412,4.87-4.041,8.121-5,1.517-.982,3.308-1.192,4.992-1.659a5.783,5.783,0,0,1,2.473-.379c1.249.207,2.437-.484,3.667-.28a61.562,61.562,0,0,1,6.7,1.05A33.526,33.526,0,0,1,47.2,9.282,23.416,23.416,0,0,1,51.195,12a29.061,29.061,0,0,1,2.638,2.4,26.991,26.991,0,0,1,5.342,7.986,18.356,18.356,0,0,1,1.6,5.166c.617.521.143,1.317.524,1.978a3.914,3.914,0,0,1,.049,2.006c-.046.627.335,1.133.337,1.775,0,1.478-.549,2.909-.326,4.4-.663,2.2-1.053,4.464-1.928,6.635a29.578,29.578,0,0,1-3.421,6.146,22.881,22.881,0,0,1-4.529,4.7,30.948,30.948,0,0,1-5.9,3.754,27.516,27.516,0,0,1-5.625,1.915,14.111,14.111,0,0,1-4.429.536c-.558-.052-.918.449-1.488.332-.467-.1-1.026.119-1.441-.052a6.715,6.715,0,0,0-1.933-.277c-.352-.039-.495.234-.938.365" transform="translate(3.54 3.588)" fill="#9f9f9f"/>
      <path id="Trazado_588153" data-name="Trazado 588153" d="M32.8,7.252a10.53,10.53,0,0,1,4.272.29,23.664,23.664,0,0,1,5.449,1.589,29.733,29.733,0,0,1,6.543,3.934,20.4,20.4,0,0,1,2.519,2.314,27.591,27.591,0,0,1,3.367,4.57A27.874,27.874,0,0,1,57.4,25.494c.173.516-.046,1.148.451,1.558-.1.905.5,1.732.291,2.649.51,1.389.228,2.831.285,4.251a5.035,5.035,0,0,1-.249,1.931,15.514,15.514,0,0,0-.254,1.921,19.175,19.175,0,0,0-.394,1.9,6.441,6.441,0,0,1-.558,1.654A19.389,19.389,0,0,1,55.1,45.4c-.567.814-1.014,1.723-1.62,2.527a20.179,20.179,0,0,1-4.241,4.507c-.824.593-1.594,1.267-2.454,1.833a21.751,21.751,0,0,1-7.647,3.372c-1.081.264-2.188.365-3.25.614a14.743,14.743,0,0,1-4.407.2,27.371,27.371,0,0,1-8.4-1.854,32.4,32.4,0,0,1-5.676-3.175,16.981,16.981,0,0,1-3.8-3.487,26.229,26.229,0,0,1-3.881-5.816,20.454,20.454,0,0,1-2.032-6.3c-.617-.6-.112-1.436-.461-2.144a5.959,5.959,0,0,1-.117-2.423,12.082,12.082,0,0,1,.013-2.328A35.2,35.2,0,0,1,9.016,23.12a30.112,30.112,0,0,1,3.2-5.659,17.665,17.665,0,0,1,3.367-3.71,26.6,26.6,0,0,1,6.413-4.215A17.033,17.033,0,0,1,27.82,7.772c.7-.646,1.615-.148,2.432-.458A7.49,7.49,0,0,1,32.8,7.252" transform="translate(4.426 4.468)" fill="#252525"/>
      <path id="Trazado_588154" data-name="Trazado 588154" d="M35.3,55.084c.2-1.356-.236-2.522.317-3.572,2.276-.036,5.918-1.7,7.506-2.952a12.285,12.285,0,0,0,3.645-4.612,16.613,16.613,0,0,0,1.18-4.188c.226-1.337.134-2.651.249-3.968a17.866,17.866,0,0,0-.291-2.651,24.8,24.8,0,0,0-.539-2.537,21.5,21.5,0,0,0-2.408-6.592A30.267,30.267,0,0,0,41.674,19.1a39.667,39.667,0,0,0-3.75-3.966,44.5,44.5,0,0,0-5.086-3.9,1.6,1.6,0,0,0-1.936-.007q-1.646,1.143-3.266,2.322a26.961,26.961,0,0,0-3.789,3.51A31.37,31.37,0,0,0,19.559,22.7a26.327,26.327,0,0,0-2.618,5.627,10.013,10.013,0,0,0-.834,3.3c-.513.677-.036,1.55-.348,2.183a5.887,5.887,0,0,0-.22,2.385,9.194,9.194,0,0,0,.007,2.327,18.712,18.712,0,0,0,1.718,6.135A13.113,13.113,0,0,0,25,50.869c.472.148.917.4,1.4.5a12.77,12.77,0,0,0,1.656.127c.653,1.027.107,2.216.335,3.281-.575.521-1-.075-1.462-.151a19.025,19.025,0,0,1-5.718-2.011,25.436,25.436,0,0,1-4.793-3.256,25.271,25.271,0,0,1-2.8-2.939A19.34,19.34,0,0,1,10,40.061c-.179-.56-.44-1.1-.573-1.654-.265-1.115-.427-2.27-.664-3.383a19.787,19.787,0,0,1-.213-3.973,3.21,3.21,0,0,1,.233-1.941c.29-.475-.218-1.234.329-1.752A6.914,6.914,0,0,1,9.7,24.542a26.591,26.591,0,0,1,2.183-4.64A22.4,22.4,0,0,1,22.5,10.522a29.437,29.437,0,0,1,4.245-1.381A26.029,26.029,0,0,1,34.1,8.624a12.874,12.874,0,0,1,3.391.594,11.061,11.061,0,0,1,2.079.586c1.148.64,2.421.97,3.543,1.68a29.533,29.533,0,0,1,3.632,2.494,18.68,18.68,0,0,1,1.825,1.56,24.122,24.122,0,0,1,4.7,7.087,19.513,19.513,0,0,1,1.374,4.546c.14,1.034.456,2.064.524,3.116.07,1.112-.033,2.237.036,3.349.034.55-.319.962-.324,1.483,0,.454.208.977-.28,1.337.174,1.065-.4,1.973-.661,2.937a14.459,14.459,0,0,1-1.1,2.6,17.793,17.793,0,0,1-3.523,5.239c-.386.363-.6.855-1.091,1.151a8.194,8.194,0,0,0-1.255,1.208,19.3,19.3,0,0,1-3.245,2.371,18.282,18.282,0,0,1-5.078,2.17c-1.052.272-2.092.591-3.351.949" transform="translate(5.345 5.393)" fill="#f7f9fa"/>
      <path id="Trazado_588155" data-name="Trazado 588155" d="M17.282,18.563,24.6,23.182v9.686c-3.38-2.081-6.753-4.157-10.179-6.263a27.312,27.312,0,0,1,2.862-8.041" transform="translate(9.058 11.66)" fill="#5bb134"/>
      <path id="Trazado_588156" data-name="Trazado 588156" d="M25.025,32.853V23.166c2.4-1.521,4.827-3.049,7.247-4.58,1.4,2.118,1.872,3.807,2.922,8.009L25.025,32.853" transform="translate(15.719 11.674)" fill="#86cb46"/>
      <path id="Trazado_588157" data-name="Trazado 588157" d="M14.259,25.085l10.467,6.421v7.432c-.244.2-.262-.179-.405-.179-1.9,0-3.463-.969-5.09-1.755-.08-.039-.2-.037-.247-.1a35.271,35.271,0,0,1-2.717-2.932,8.463,8.463,0,0,1-1.425-3.487c-.55-.428-.08-1.112-.384-1.581-.381-.584-.14-1.208-.189-1.81-.046-.567-.01-1.138-.01-2.012" transform="translate(8.943 15.756)" fill="#86cb46"/>
      <path id="Trazado_588158" data-name="Trazado 588158" d="M35.489,25.109a31.414,31.414,0,0,1-.213,4,26.033,26.033,0,0,1-.979,3.535,6.6,6.6,0,0,1-1.241,1.949,20.884,20.884,0,0,1-2.048,2.058A8.506,8.506,0,0,1,28.273,38.1a5.376,5.376,0,0,1-2.792.651c-.093-.015-.217.163-.331.254a.37.37,0,0,1-.09-.062.2.2,0,0,1-.06-.119c0-2.418,0-4.836,0-7.322,3.442-2.058,6.823-4.245,10.492-6.392" transform="translate(15.701 15.771)" fill="#5bb134"/>
      <path id="Trazado_588159" data-name="Trazado 588159" d="M23.035,15.4h.537a27.3,27.3,0,0,0,.321,3.595,50.2,50.2,0,0,1,.291,5.851c.581,1.532.265,3.124.275,4.686.039,6.651.016,13.3.016,19.954v1.447H22.144V49.5c0-7.574.021-15.148-.031-22.722,0-.918.409-1.734.337-2.647a8.382,8.382,0,0,1,.033-2.753c.282-1.045.041-2.1.285-3.085a15.872,15.872,0,0,0,.267-2.893" transform="translate(13.89 9.671)" fill="#549a2c"/>
      <path id="Trazado_588160" data-name="Trazado 588160" d="M23.956,12.36A28.6,28.6,0,0,1,31.8,20.4c-2.043,1.386-4.137,2.685-6.236,3.991-.448-.676-.046-1.35-.407-2.009a4.035,4.035,0,0,1-.054-2.141c.07-.684-.485-1.226-.317-1.92.16-.663-.234-1.276-.259-1.913-.029-.707-.27-1.386-.274-2.06s-.449-1.232-.3-1.986" transform="translate(15.028 7.763)" fill="#5bb134"/>
      <path id="Trazado_588161" data-name="Trazado 588161" d="M16.931,20.393A31.853,31.853,0,0,1,24.7,12.371c.35.418-.187.77-.143,1.11.13.974-.493,1.833-.321,2.791.1.578-.357,1.034-.317,1.626a2.18,2.18,0,0,1-.234,1.646c-.186.247-.008.754-.037,1.138-.046.614.2,1.278-.137,1.828-.353.578.086,1.234-.335,1.85-2.123-1.226-4.183-2.555-6.239-3.968" transform="translate(10.635 7.77)" fill="#86cb46"/>
    </g>
    <g id="Grupo_850360" data-name="Grupo 850360" transform="translate(1276.327 121.083) rotate(-47)">
      <g id="Grupo_850359" data-name="Grupo 850359" clip-path="url(#clip-path-2)">
        <path id="Trazado_588162" data-name="Trazado 588162" d="M33.267,5.678c0-.2-.058-.416.193-.545-.243-1.028-1.2-1.356-1.9-1.905a13.829,13.829,0,0,0-3.274-1.891A15.819,15.819,0,0,0,24.557.2,19.455,19.455,0,0,0,21.7.026a2.833,2.833,0,0,0-1.639.2c-.405.239-1.041-.174-1.48.278-.977-.153-1.78.556-2.727.549-1.486.761-3.108,1.223-4.553,2.083C9.569,4.165,7.89,5.258,6.255,6.431c-.865.621-1.531,1.413-2.3,2.079.8,2.9,6,9.952,8.631,11.6.052.3-.2.42-.363.586A21.052,21.052,0,0,0,9.527,23.65c-.608.958-2.244,2.885-2.643,4.576-.079.332-.418.624-.465,1.036-.056.5-.5.847-.5,1.4a2.487,2.487,0,0,1-.332,1.324c-.326.469.15,1.088-.383,1.453-.019.013,0,.079,0,.12.017.96-.179,1.916-.2,2.855a20.207,20.207,0,0,0,.463,4.594,32.4,32.4,0,0,0,1.318,4.129,17.05,17.05,0,0,0,2.429,4.277,18.092,18.092,0,0,0,3.561,3.719,35,35,0,0,0,4.368,2.854c.508.28,1.16.213,1.473.7.465.033.505-.482.865-.488.688-.915.166-1.437-.626-1.817a15.006,15.006,0,0,1-3.311-2,13.06,13.06,0,0,0-1.452-6.86,2.562,2.562,0,0,1,.3-2.248c.558-1.186,1.161-2.354,1.612-3.59.835-2.288.354-3.929-1.968-4.615-3.018-.892-3.589-3.587-4.966-5.72a.861.861,0,0,1,.019-.833A17.609,17.609,0,0,1,14.3,21.993a19.19,19.19,0,0,0,6.459,2.539c.031.661-.45.867-.708,1.2-1.47,1.908-2.292,3.953-1.572,6.411a5.651,5.651,0,0,0,6.207,4.288,31.2,31.2,0,0,0,3.541-.4,1.908,1.908,0,0,1,1.357.07c.644,1.251.484,2.758.609,4.191.132,1.506.04,3.033.028,4.552a8.369,8.369,0,0,0,.393,2.542,3.419,3.419,0,0,0,4.92,2.35c.343-.137.671-.307,1.006-.462A9.571,9.571,0,0,0,40,46.035a6.581,6.581,0,0,0,1.139-5.026c-.105-.567-.128-1.141-.178-1.712-.261-2.958,1.147-5.041,4.089-6.009a2.07,2.07,0,0,1,.4,1.369,19.138,19.138,0,0,1-16.329,21,9.509,9.509,0,0,1-2.441.175,16.933,16.933,0,0,0-2.312.043c-.615.081-1.233.224-1.2,1.066.14.493.14.493.667,1.039,1.08-.442,2.136.414,3.347.066,1.118-.322,2.383-.089,3.544-.38a24.667,24.667,0,0,0,3.158-.989,14.512,14.512,0,0,0,3-1.417c.916-.634,1.865-1.233,2.795-1.86a17.122,17.122,0,0,0,2.648-2.481A18.2,18.2,0,0,0,44.361,48.2a19.812,19.812,0,0,0,1.62-2.9,27.137,27.137,0,0,0,1.036-2.771,10.159,10.159,0,0,0,.5-2.862c.012-1.049.31-2.048.315-3.1.006-1.015-.26-1.978-.329-2.975a13.016,13.016,0,0,0-.65-2.912c-.3-.951-.668-1.862-1.032-2.779-.354-.889-.908-1.678-1.34-2.527a18.6,18.6,0,0,0-1.788-2.45,15.085,15.085,0,0,0-2.158-2.189c-.755-.677-1.579-1.277-2.422-1.948a19.38,19.38,0,0,0,2.482-2.107c.616.5,1.224.936,1.767,1.443.838.785,1.635,1.615,2.442,2.433a25.09,25.09,0,0,1,2.7,3.682c1,1.463,1.4,3.2,2.257,4.731.114,1.2.731,2.287.748,3.511A13.7,13.7,0,0,1,50.77,34.1,2.069,2.069,0,0,0,51,35.722c-.117.784.238,1.609-.233,2.37-.092.148,0,.4-.016.608-.037.563.185,1.192-.112,1.671s.142,1.082-.379,1.45a14.651,14.651,0,0,1-1.638,5.232,19.557,19.557,0,0,1-2.977,4.815q-.95,1.092-1.938,2.143a23.3,23.3,0,0,1-6.958,4.9,18.48,18.48,0,0,1-5.195,1.722c-.5.449-1.173.074-1.7.348a3.816,3.816,0,0,1-1.788.133c-1.188.037-2.38-.016-3.569.021a13.892,13.892,0,0,1-2.117-.234c-.7-.084-1.351-.346-2.023-.465a22.782,22.782,0,0,1-6.733-2.777,23.277,23.277,0,0,1-2.2-1.521,24.946,24.946,0,0,1-3.542-3.321,19.3,19.3,0,0,1-2.182-3.032,22.649,22.649,0,0,1-2.849-6.206c-.258-.923-.454-1.876-.637-2.828a38.911,38.911,0,0,1-.2-5.94,3.554,3.554,0,0,1,.2-1.764.857.857,0,0,0-.4-1.226H.61a2.163,2.163,0,0,0-.337,1.36c.151.772-.347,1.46-.264,2.242.079.73.012,1.475.019,2.215a5.56,5.56,0,0,0,.216,1.877c.2.578-.159,1.283.275,1.86A14.921,14.921,0,0,0,1.506,45.4a26.389,26.389,0,0,0,2.28,4.847,17.894,17.894,0,0,0,1.585,2.3c1.6,1.968,1.649,2.361,3.7,4.005a28.485,28.485,0,0,0,2.7,2.14,35.029,35.029,0,0,0,4.759,2.473c1.382.586,2.847.841,4.232,1.371.474.181,1.047-.1,1.469.316,1.015-.187,1.965.315,2.976.26s2.069.11,3.071-.045a22.782,22.782,0,0,0,3.483-.492c1.052-.337,2.134-.546,3.184-.916a27.535,27.535,0,0,0,5.845-2.816,23.5,23.5,0,0,0,5.271-4.508,30.212,30.212,0,0,0,4.222-6.5c.67-1.418,1.076-2.922,1.669-4.361a5.333,5.333,0,0,0,.227-1.37,6.453,6.453,0,0,0,.292-2.233c.505-1.67.11-3.385.259-5.071a5.393,5.393,0,0,0-.264-1.5c-.081-.46.231-.988-.24-1.378-.013-1.659-.806-3.112-1.214-4.666-.1-.393-.4-.646-.415-1.05a34.277,34.277,0,0,0,5.05-2.141,16.637,16.637,0,0,0,5.722-5.176,9.886,9.886,0,0,0,1.475-4.208,8.881,8.881,0,0,0,.213-1.752,4.1,4.1,0,0,0-.217-1.633c-.2-.491.172-1.125-.274-1.612A24.92,24.92,0,0,0,60.331,3.1c-.187-.405-.344-.92-.893-1.088-1.255-.163-2.367.466-3.528.862a11.924,11.924,0,0,0-1.677.7,31.5,31.5,0,0,0-4.3,2.736,11.171,11.171,0,0,0-2.646,2.972A9.852,9.852,0,0,0,45.783,13.1a17.907,17.907,0,0,0-.2,2.86,2.56,2.56,0,0,0,.214,1.514c.145.23.024.628.024.912-.274.2-.414.065-.563-.085a22.417,22.417,0,0,0-2.768-2.529c-.065-.048-.106-.146-.176-.168-1.14-.369-1.578-1.345-2.067-2.307a35.912,35.912,0,0,0-2.24-3.51A15.864,15.864,0,0,0,36.356,7.9h-.627c-.994.46-.843,1.184-.4,1.918.589.974,1.383,1.808,1.973,2.782a3.575,3.575,0,0,1,.627,1.253c-1.637-.251-3.221-.549-4.8-.862a4.983,4.983,0,0,1-4.09-2.489c-1.709-2.553-3.591-4.988-5.412-7.463-.107-.21-.366-.341-.321-.709a10.827,10.827,0,0,1,4.985,1.434,21.593,21.593,0,0,1,2.982,1.946c.642.485,1.344.867,1.994-.03" transform="translate(0 0)"/>
        <path id="Trazado_588163" data-name="Trazado 588163" d="M28.072,27.651c-.614-.044-1.059.406-1.619.559a2.964,2.964,0,0,1-3.806-1.924,8.723,8.723,0,0,1-.492-3.125c.04-.82-.05-1.647.019-2.462.147-1.747-.267-3.457-.289-5.194a1.691,1.691,0,0,0-.539-1.366c-.846-.237-1.622.4-2.464.2-.441.439-1,.172-1.5.248-.42.063-.9-.189-1.262.235a.369.369,0,0,1-.353,0c-.584-.413-1.247-.163-1.875-.253-.112-.181-.321-.186-.494-.269a5.24,5.24,0,0,1-3.07-4.1,6.284,6.284,0,0,1,1.036-4.921,21.047,21.047,0,0,1,1.925-2.158.847.847,0,0,0-.694-.378,7.6,7.6,0,0,1-3.128-.758A11.442,11.442,0,0,1,5.938,0,20.377,20.377,0,0,0,0,7.754a12.222,12.222,0,0,1,1.511,2.518c.335.76.885,1.417,1.228,2.2a1.958,1.958,0,0,0,1.323.9,10.768,10.768,0,0,1,1.7.651A3.189,3.189,0,0,1,7.632,15.87c.276,1.6-.675,3.048-1.3,4.576-.3.737-.707,1.421-.989,2.179a2.154,2.154,0,0,0,.1,1.91,12.34,12.34,0,0,1,1.037,2.533,2.666,2.666,0,0,1,.175.662,4.636,4.636,0,0,0,.2,1.391,1.3,1.3,0,0,1-.179,1.38c-.123.127-.019.473-.019.721a11.891,11.891,0,0,1,1.666.992,7.943,7.943,0,0,0,1.819.974,1.489,1.489,0,0,1,1.132,1.023.625.625,0,0,0-.187.586c.153.041.2-.1.35-.2a17.165,17.165,0,0,0,3.344.939c.061-.35.42-.454.6-.74h3.089c3.8-.834,6.625-3.162,9.146-5.953.287-.317.617-.677.457-1.193" transform="translate(8.396 21.401)" fill="#96c8e7"/>
        <path id="Trazado_588164" data-name="Trazado 588164" d="M10.961,3.71a1.71,1.71,0,0,1-1.256.24C6.888,1.641,3.941-.093,0,0,.291.3.438.545.651.639c.3.13.056.607.461.608A33.538,33.538,0,0,1,9.9,10.431a6.068,6.068,0,0,0,.814.919c.641-.061,1.208.4,1.861.261.315.394.757.235,1.134.215s.6.4,1.009.27c.549-.179,1.011.557,1.595.13a33.683,33.683,0,0,0-3.368-4.961V6.552c.094-.227.439-.31.477-.624a9.594,9.594,0,0,1-1.488-1.363c-.332-.277-.548-.687-.975-.855" transform="translate(22.305 1.968)" fill="#07b028"/>
        <path id="Trazado_588165" data-name="Trazado 588165" d="M13.6,0c-.694.006-1.19.5-1.777.758A20.242,20.242,0,0,1,6.5,2.489a4.977,4.977,0,0,1-1.254.22.886.886,0,0,0-.611.275A26.419,26.419,0,0,0,1.244,5.821a4.417,4.417,0,0,0-.686,5.2A3.16,3.16,0,0,0,3.39,12.842c1.221.062,2.381-.366,3.589-.274.577-.586,1.439.1,2.025-.455.447.329,1.081.092,1.5.463a2.9,2.9,0,0,1,.876,1.348,9.848,9.848,0,0,1,.5,2.748c-.008,1.64.04,3.283-.017,4.922a21.108,21.108,0,0,0,.329,3.688c.2.286.3.788.887,1.063h1.316A9.211,9.211,0,0,0,17.578,23.7a7.206,7.206,0,0,0,1.181-2.577c.105-.32-.195-.609-.213-.882a19.981,19.981,0,0,1-.247-4.569,4.3,4.3,0,0,1,1.349-2.881c.226-.179.436-.379.349-.717a1.213,1.213,0,0,0,.189-1.052A20.158,20.158,0,0,0,14.241.331,1.13,1.13,0,0,0,13.6,0" transform="translate(20.41 21.45)" fill="#b9ea6c"/>
        <path id="Trazado_588166" data-name="Trazado 588166" d="M9.6,16.577A11.7,11.7,0,0,1,6.819,19.7a16.748,16.748,0,0,1-4.725,3.049,9.977,9.977,0,0,1-2.006.778c-.039.007-.059.131-.087.2a12.019,12.019,0,0,0,2.727-.258,10.564,10.564,0,0,0,2.542-.673,15.81,15.81,0,0,0,5.638-2.726,29.034,29.034,0,0,0,4.185-4.137,20.739,20.739,0,0,0,2.365-3.956,26.065,26.065,0,0,0,1.3-4.514A24.905,24.905,0,0,0,18.945,3a2.447,2.447,0,0,0-.161-1.531c-.254-.405.072-.951-.207-1.467-1.856,1.092-3.822,2-4.753,4.14-.145.388.166.873-.27,1.241-.081.068-.065.34,0,.474.358.764.059,1.618.284,2.349a8.658,8.658,0,0,1,.2,1.759,5.3,5.3,0,0,1-1.11,3.348,7.517,7.517,0,0,1-1.7,2.01q-.811.63-1.623,1.255" transform="translate(26.865 32.475)" fill="#60b5fe"/>
        <path id="Trazado_588167" data-name="Trazado 588167" d="M6.42,19.478a7.56,7.56,0,0,0-.783-3.672c-.173-.421-.487-.783-.657-1.205A3.009,3.009,0,0,1,4.9,12.442,17.353,17.353,0,0,1,6.144,9.509,22.907,22.907,0,0,0,7.419,6.387L6.352,5.38A11.038,11.038,0,0,1,3.74,4.406,6.148,6.148,0,0,1,2.509,2.9,26.757,26.757,0,0,0,.9,0,1.044,1.044,0,0,0,.525.532a19.429,19.429,0,0,0,.137,9.519A18.247,18.247,0,0,0,6.42,19.478" transform="translate(6.875 31.584)" fill="#b9ea6b"/>
        <path id="Trazado_588168" data-name="Trazado 588168" d="M7.129,0,0,5.231A16.829,16.829,0,0,0,4.913,8.726L14.7,1.55,7.129,0" transform="translate(12.775 12.575)" fill="#49ca5c"/>
        <path id="Trazado_588169" data-name="Trazado 588169" d="M0,1.448a3.224,3.224,0,0,0,.872.987A19.851,19.851,0,0,1,5.238,9.218c.522,1.17.667,2.417,1.152,3.574a2.037,2.037,0,0,1,.012.731c.856-.264,1.318-1.08,2.083-1.483s1.509-.891,2.281-1.352C10.347,7.72,6.827,2.448,2.37,0A15.105,15.105,0,0,0,0,1.448" transform="translate(34.005 20.003)" fill="#95d529"/>
        <path id="Trazado_588170" data-name="Trazado 588170" d="M5.3,8.76A19.227,19.227,0,0,0,8.952,9.6a10.1,10.1,0,0,0,3.436.494A40.507,40.507,0,0,0,9.911,6.636c-.79-1.1-1.485-2.284-2.364-3.308A34.83,34.83,0,0,0,5,0C3.282.455,1.541.608,0,1.548L5.3,8.76" transform="translate(15.058 1.947)" fill="#49ca5c"/>
        <path id="Trazado_588171" data-name="Trazado 588171" d="M14.108.76A26.337,26.337,0,0,1,10.131,0C6.83,2.505,3.368,4.906,0,7.519a7.338,7.338,0,0,0,3.274.388,28.08,28.08,0,0,0,9.9-5.682c.443-.361,1.048-.709.934-1.464" transform="translate(19.897 14.53)" fill="#49ca5b"/>
        <path id="Trazado_588172" data-name="Trazado 588172" d="M4.741,6.835c-1-2.431-1.9-4.6-2.822-6.835A8.844,8.844,0,0,0,.5,2.865c-.285.8-.01,1.642-.435,2.4-.25.444.318.856.246,1.367A3.355,3.355,0,0,0,.357,8.083c.207.662.249,1.358.493,2A14.7,14.7,0,0,1,1.5,11.9a10.441,10.441,0,0,0,.632,1.437,1.22,1.22,0,0,0,.585-.867c.306-1.07.884-2.017,1.254-3.049.322-.9.947-1.723.765-2.589" transform="translate(47.256 9.826)" fill="#49ca5b"/>
        <path id="Trazado_588173" data-name="Trazado 588173" d="M1.244,6.642a4.668,4.668,0,0,0-.72,1.6A10.108,10.108,0,0,1,0,9.332,2.22,2.22,0,0,0,1.2,9,30.022,30.022,0,0,0,5.138,6.9,10.488,10.488,0,0,0,9.174,2.285,3,3,0,0,0,9.6.989C9.588.641,9.9.434,9.87,0A13.552,13.552,0,0,0,7.337.918c-.806.332-1.6.693-2.4,1.042a1.685,1.685,0,0,0-.651.719A13.474,13.474,0,0,1,1.244,6.642" transform="translate(51.229 14.562)" fill="#07b028"/>
        <path id="Trazado_588174" data-name="Trazado 588174" d="M0,0A24.034,24.034,0,0,0,4.457,6.408l5.953-4.366L0,0" transform="translate(6.984 10.089)" fill="#49ca5b"/>
        <path id="Trazado_588175" data-name="Trazado 588175" d="M10.834,0a10.549,10.549,0,0,1-2.7,2.463A27.438,27.438,0,0,1,4.875,4.624,27.166,27.166,0,0,1,.708,6.672C.464,6.758.1,6.788,0,7.146c.531,0,1.061.018,1.592,0a14.734,14.734,0,0,0,4.8-1.12A33.4,33.4,0,0,0,10.4,4.169a18.667,18.667,0,0,0,3.752-2.463c.27-.25.742-.162.823-.65L14.647.762A8.62,8.62,0,0,1,12.191.276C11.769.12,11.238.352,10.834,0" transform="translate(23.172 15.29)" fill="#07b028"/>
        <path id="Trazado_588176" data-name="Trazado 588176" d="M6.1,0A38.838,38.838,0,0,0,0,3.847l.482.04c.5.068,1.119.43,1.75.577s1.339.013,1.9.446c1.111-.045,2.129.528,3.24.493.41.34,1,.066,1.347.29.486.316.944.109,1.4.2a1.164,1.164,0,0,0,.243-.044C9.011,3.817,7.534,1.941,6.1,0" transform="translate(7.175 4.219)" fill="#49ca5b"/>
        <path id="Trazado_588177" data-name="Trazado 588177" d="M4.405,0A4.752,4.752,0,0,0,2.476.984,11.63,11.63,0,0,0,0,2.811Q1.274,5.925,2.566,9.078c.531-1.046.933-2.17,1.4-3.267.441-1.043.866-2.1,1.352-3.13a1.7,1.7,0,0,0,.074-.463A2.61,2.61,0,0,0,4.405,0" transform="translate(50.53 5.432)" fill="#49ca5b"/>
        <path id="Trazado_588178" data-name="Trazado 588178" d="M.361,9.085a18.58,18.58,0,0,1,2.42-1A4.381,4.381,0,0,0,4.006,7.5c.238-.173.461-.086.778-.186C4.908,4.714,3.891,2.374,3,0c-.274.122-.342.352-.464.6C1.748,2.2,1.269,3.94.4,5.513c-.126.229-.153.584-.289.862.163.9-.5,1.866.246,2.71" transform="translate(56.298 5.219)" fill="#07b028"/>
        <path id="Trazado_588179" data-name="Trazado 588179" d="M9.6,10.117c.128-.461-.322-.6-.494-.9A32.916,32.916,0,0,0,6.683,5.793a29.9,29.9,0,0,0-3.077-3.25A18.421,18.421,0,0,0,.243.017c-.06-.037-.161,0-.243,0l6.886,9.51,2.717.594" transform="translate(23.417 3.201)" fill="#48ca5b"/>
        <path id="Trazado_588180" data-name="Trazado 588180" d="M.02,4.682c.029.07.056.14.1.236A13.373,13.373,0,0,0,3.022,1.542C3.3,1.052,3.485.515,3.713,0,2.97.173,2.308.569,1.619.759.914,1.894.752,3.229.027,4.319c-.056.084-.008.24-.008.363" transform="translate(52.453 16.523)" fill="#47c759"/>
        <path id="Trazado_588181" data-name="Trazado 588181" d="M0,.9a15.093,15.093,0,0,1,.784,2.13c.006.039.131.059.2.088.4,0,.146-.528.47-.593C1.51,1.582,2.318.93,2.337,0A4.776,4.776,0,0,0,0,.9" transform="translate(54.935 4.53)" fill="#08ac28"/>
        <path id="Trazado_588182" data-name="Trazado 588182" d="M1.61,2.712V.307C1.61.14,1.595-.016,1.365,0,.939,1.027.513,2.054,0,3.293l1.61-.582" transform="translate(55.048 11.592)" fill="#46c358"/>
      </g>
    </g>
    <g id="Grupo_850362" data-name="Grupo 850362" transform="translate(1210 11.091)">
      <g id="Grupo_850361" data-name="Grupo 850361" transform="translate(0 0)" clip-path="url(#clip-path-3)">
        <path id="Trazado_588183" data-name="Trazado 588183" d="M10.752,8.84c-2.354,0-4.642.009-6.929-.006a1.96,1.96,0,0,0-1.585.5c-.317.24.028.729-.391.9.791,1.878,2.554,2.9,3.831,4.481a25.539,25.539,0,0,0-2.533,4.384A33.058,33.058,0,0,0,1.3,24.035C.95,25.206.77,26.414.5,27.6c-.183.8-.071,1.607-.256,2.358C-.207,31.78.149,33.614,0,35.433c-.041.519.328.922.288,1.452a2.791,2.791,0,0,0,.193,1.468,6.27,6.27,0,0,1,.257,1.694,28.928,28.928,0,0,0,.994,3.62,30.54,30.54,0,0,0,2.5,5.837,23.186,23.186,0,0,0,1.913,2.968,18.738,18.738,0,0,0,2.663,3.186c0,2.375,0,4.751,0,7.128,0,1.066.185,1.3,1.228,1.654.073.025.124.118.163.156,1.884-.789,2.9-2.572,4.46-3.83a29.209,29.209,0,0,0,4.742,2.674,39.121,39.121,0,0,0,5.658,1.978c1.565.346,3.133.6,4.721.829a25.577,25.577,0,0,0,5.078.153,35.486,35.486,0,0,0,5-.666c1.521-.306,2.953-.817,4.421-1.244a23.565,23.565,0,0,0,4.6-2.024A30.654,30.654,0,0,0,53.761,59.2a19.431,19.431,0,0,0,1.783-1.577h7.479c1.009-.223,1.388-.7,1.247-1.826-.6-1.489-2.417-2.474-3.623-4.044a30.46,30.46,0,0,0,2.676-4.769,31.77,31.77,0,0,0,1.943-5.68c.45-.439.052-1.108.367-1.528.359-.48.012-1.033.359-1.557.259-.39-.078-1.129.076-1.645a14.083,14.083,0,0,0,.213-4.052,4.9,4.9,0,0,0-.175-2.255c-.3-.662.121-1.481-.3-2.213-.233-.406.092-.947-.238-1.465A4.521,4.521,0,0,1,65.3,25.16a27.673,27.673,0,0,0-1.183-3.8,38.087,38.087,0,0,0-1.8-3.922,27.955,27.955,0,0,0-2.208-3.491,16.825,16.825,0,0,0-2.583-3.118V3.134c-.252-.333-.26-.758-.516-.893-.323-.267-.717.018-.884-.352-.061-.051-.1.032-.186.062a4.941,4.941,0,0,0-1.892,1.381c-.777.811-1.583,1.594-2.392,2.4a21.2,21.2,0,0,0-4.915-2.81,26.382,26.382,0,0,0-5.562-1.9A24.26,24.26,0,0,1,38.81.511c-.788-.247-1.6-.076-2.352-.263C34.68-.194,32.893.157,31.121,0c-.568-.049-1.012.323-1.578.3a2.468,2.468,0,0,0-1.472.185,4.8,4.8,0,0,1-1.684.26A22.151,22.151,0,0,0,22.073,1.94a25.907,25.907,0,0,0-5.433,2.5,32.591,32.591,0,0,0-4.046,2.771c-.618.51-1.221,1.028-1.841,1.624" transform="translate(0 0)"/>
        <path id="Trazado_588184" data-name="Trazado 588184" d="M44.627,48.794V38.639a2.3,2.3,0,0,1,1.57-.932c1.663,1.01,2.809,2.588,4.283,3.9.233-.75.647-1.408.942-2.137s.217-1.54.716-2.167c-.131-.851.455-1.629.259-2.486-.13-.565.366-1,.28-1.583a10.4,10.4,0,0,0-.25-2.105c-.214-.607.169-1.351-.289-1.957a13.639,13.639,0,0,0-1.431-4.726,16.875,16.875,0,0,0-1.778-3.019c-.131-.181-.089-.409-.282-.573-2.994,0-6.01,0-9.028,0-1.32,0-1.583-.21-1.994-1.571.993-1.675,2.616-2.82,3.879-4.292a16.623,16.623,0,0,0-3.013-1.22c-.713-.152-1.448-.286-2.128-.493-.723-.221-1.471.011-2.093-.247a3.641,3.641,0,0,0-1.976-.189c-1.138.163-2.286.22-3.42.463a19.089,19.089,0,0,0-3.582,1.055A15.3,15.3,0,0,0,21.2,16.685c-.085.073-.259-.047-.371.167v9.985a2.626,2.626,0,0,1-1.436,1.058,7.089,7.089,0,0,1-2.319-1.828c-.7-.7-1.389-1.408-2.073-2.1a13.367,13.367,0,0,0-1.631,4.27,6.585,6.585,0,0,0-.346,2.206c.092.924-.383,1.8-.254,2.747a25.654,25.654,0,0,0,1.561,7.138,18.957,18.957,0,0,0,2.327,4.094c.046.058.04.155.07.278H26.856a2.4,2.4,0,0,1,.961,1.564c-.961,1.694-2.6,2.839-3.866,4.291A12.552,12.552,0,0,0,28.258,52.2a9.863,9.863,0,0,0,2.47.352c.771-.017,1.553.215,2.35.251.616.028,1.1-.371,1.708-.305a7.206,7.206,0,0,0,1.711-.187c.574-.078,1.116-.291,1.691-.363a8.193,8.193,0,0,0,1.6-.5c.634-.224,1.152-.753,1.881-.77.66-.7,1.642-.917,2.326-1.568a1.924,1.924,0,0,1,.635-.317" transform="translate(0.44 0.441)" fill="#f7f9fa"/>
        <path id="Trazado_588185" data-name="Trazado 588185" d="M14.222,8.709H19.3a1.881,1.881,0,0,1,1.465,2.131c-.051,1.023-.011,2.049-.011,3.2.711-.312,1.19-.755,1.784-.989A29.13,29.13,0,0,1,27.4,11.325a34.264,34.264,0,0,1,3.539-.545,8.859,8.859,0,0,1,2.223-.188,50.57,50.57,0,0,1,5.673.955,28.156,28.156,0,0,1,4.78,1.912,2.167,2.167,0,0,1,1.5,1.768c-.528,1.355-1.918,2.1-2.811,3.245a113.281,113.281,0,0,0,12.071.114V6.549l-1.9,1.906c-.514.054-.841-.035-1.013.289C50,8.1,48.786,7.062,47.412,6.3a15.127,15.127,0,0,0-2.6-1.21,11.121,11.121,0,0,0-2.688-1.006c-.386-.467-1.006-.2-1.488-.486a4.653,4.653,0,0,0-1.419-.329c-1.09-.212-2.2-.325-3.276-.533a21.148,21.148,0,0,0-5.463-.149,11.46,11.46,0,0,0-4.211.719,8.626,8.626,0,0,0-3.291.808,26.952,26.952,0,0,0-5.349,2.409c-1.106.706-2.192,1.442-3.4,2.186" transform="translate(0.491 0.086)" fill="#99cc68"/>
        <path id="Trazado_588186" data-name="Trazado 588186" d="M20.306,49.6c.594-1.411,1.969-2.163,2.9-3.371H11.058V58.24c.129-.082-.1.077.076.1.028,0,.066-.026.09-.05L13.183,56.3c.295-.07.6.14.725-.221a7.773,7.773,0,0,1,2.1,1.139,23,23,0,0,0,4.089,2.3,30.245,30.245,0,0,0,4.736,1.689c.874.188,1.747.388,2.622.567a15.752,15.752,0,0,1,2.213.264,7.521,7.521,0,0,0,2.37.2c.774.05,1.558-.051,2.327.027.86.088,1.628-.331,2.484-.305a8.981,8.981,0,0,0,2.26-.43,6.492,6.492,0,0,0,1.67-.351,7.576,7.576,0,0,1,1.5-.436c.99-.324,1.947-.741,2.9-1.124a22.873,22.873,0,0,0,2.766-1.466c1.089-.623,2.048-1.447,3.184-1.98a.329.329,0,0,0-.051-.09.18.18,0,0,0-.1-.059c-1.682,0-3.364,0-5.01,0a1.818,1.818,0,0,1-1.3-2.131c.047-1.019.01-2.042.01-3.215a12.988,12.988,0,0,1-1.495.922c-.912.4-1.9.683-2.766,1.121-.928.468-1.981.409-2.846.953-.809-.142-1.532.433-2.346.276-.849-.163-1.616.393-2.482.268a44.229,44.229,0,0,1-6.061-.981,22.363,22.363,0,0,1-4.667-1.877c-.711-.391-1.47-.694-1.719-1.767" transform="translate(0.381 1.594)" fill="#ea5463"/>
        <path id="Trazado_588187" data-name="Trazado 588187" d="M55.956,14.249v5.095a1.876,1.876,0,0,1-2.13,1.471c-1.02-.052-2.044-.011-3.042-.011-.151.545.326.628.461.91.657,1.369,1.083,2.839,1.818,4.173a12.046,12.046,0,0,0,.563,2.76,22.385,22.385,0,0,0,.262,2.479,5.063,5.063,0,0,1,.177,2.365c-.326,1.8-.431,3.633-.938,5.429a32.511,32.511,0,0,1-1.907,4.792,3.23,3.23,0,0,1-.773,1.1,4.139,4.139,0,0,1-.862.442c-1.5-.561-2.209-1.994-3.378-2.843a116.189,116.189,0,0,0-.1,12.077H58.12L56.2,52.566c-.044-.5.04-.831-.275-1a40.6,40.6,0,0,1,2.441-4.051,26.312,26.312,0,0,0,1.685-3.708c.415-1.088.744-2.2,1.079-3.318.2-.665.246-1.35.439-2.013.228-.785.179-1.675.343-2.465a19.735,19.735,0,0,0,.148-5.474,11.385,11.385,0,0,0-.715-4.22,8.6,8.6,0,0,0-.808-3.3,27.327,27.327,0,0,0-2.4-5.362c-.7-1.107-1.442-2.191-2.181-3.412" transform="translate(1.587 0.492)" fill="#fccc56"/>
        <path id="Trazado_588188" data-name="Trazado 588188" d="M15.088,20.394c.337-.113.452.4.788.283l2.562,2.568c.187-1.061.242-8.686.087-12.146H6.461l1.988,1.992c.161.321-.174.79.229.933-.49,1.445-1.566,2.538-2.261,3.865a20.317,20.317,0,0,0-1.316,2.7c-.328.942-.74,1.856-1.1,2.787-.19.5-.072,1.041-.422,1.519a1.889,1.889,0,0,0-.289,1.427c-.523.447-.088,1.122-.41,1.65-.3.486.025,1.109-.121,1.632a15.982,15.982,0,0,0-.191,5.339,12.57,12.57,0,0,0,.722,4.349,8.323,8.323,0,0,0,.812,3.295,29.287,29.287,0,0,0,2.406,5.363,33.117,33.117,0,0,1,2.122,3.417,15.184,15.184,0,0,0,.093-2.709c.02-.905.005-1.811.005-2.462a1.782,1.782,0,0,1,2.1-1.417c1.019.041,2.041.009,3.223.009-.372-.592-.679-1.015-.92-1.473-.6-1.132-.953-2.369-1.469-3.54a16.42,16.42,0,0,1-.614-2.6c-.23-.905-.126-1.856-.31-2.734a5.75,5.75,0,0,1-.179-1.977,43.063,43.063,0,0,1,.928-5.7A25.115,25.115,0,0,1,13.4,21.979c.366-.7.737-1.471,1.684-1.585" transform="translate(0.084 0.383)" fill="#4fbfe7"/>
        <path id="Trazado_588189" data-name="Trazado 588189" d="M33.534,43.128V41.737A6.326,6.326,0,0,0,37.292,39a4.739,4.739,0,0,0-.071-5,5.594,5.594,0,0,0-3.837-2.56,10.716,10.716,0,0,0-2.229-.223,4.105,4.105,0,0,1-2.018-2.038V28.124a4.859,4.859,0,0,1,1.37-1.786c2.287-.829,3.825.027,5.22,1.489h.812l.875-.979v-.94a6.368,6.368,0,0,0-3.841-2.28V22.183c-.267-.668-.559-1.2-1.322-1.324a2.4,2.4,0,0,0-1.292.914v1.5c-.358.527-.922.446-1.35.667a5.7,5.7,0,0,0-3.022,3.856,4.4,4.4,0,0,0,1.2,4.013,5.886,5.886,0,0,0,2.854,1.867,5.208,5.208,0,0,0,1.232.127,5.833,5.833,0,0,1,2.529.775c.493.266.361.978.954,1.081,0,.366-.005.664,0,.962a2.2,2.2,0,0,1-1.408,2.13c-1.849.934-2.668.5-4.146-.521-.208-.144-.382-.5-.559-.492-.313.014-.381-.377-.669-.293-.38-.125-.554.353-.906.307a2.142,2.142,0,0,0-.316,1.663,7.366,7.366,0,0,0,3.58,2.276c.094.549-.1,1.24.271,1.846.245.4.756.323.947.706.543-.306,1.1-.429,1.388-1.111" transform="translate(0.913 0.72)"/>
      </g>
    </g>
  </g>
</svg>
