<svg xmlns="http://www.w3.org/2000/svg" xmlns:xlink="http://www.w3.org/1999/xlink" width="100" height="100" viewBox="0 0 100 100">
  <defs>
    <clipPath id="clip-path">
      <rect id="Rect치ngulo_39424" data-name="Rect치ngulo 39424" width="57.021" height="63.465" fill="none"/>
    </clipPath>
  </defs>
  <g id="Grupo_850458" data-name="Grupo 850458" transform="translate(-294 -2653)">
    <rect id="Rect치ngulo_39425" data-name="Rect치ngulo 39425" width="100" height="100" rx="20" transform="translate(294 2653)" fill="#ffb840"/>
    <g id="Grupo_850373" data-name="Grupo 850373" transform="translate(312.979 2671.268)">
      <g id="Grupo_850372" data-name="Grupo 850372" clip-path="url(#clip-path)">
        <path id="Trazado_588192" data-name="Trazado 588192" d="M55.338,2.992H52.862a7.055,7.055,0,0,1-3.477.627q-13.548-.027-27.1-.006a3.8,3.8,0,0,0-2.045.283,3.889,3.889,0,0,0,.793,4.862,2.391,2.391,0,0,1-.054,3.914,3.356,3.356,0,0,0-.076,5.192c1.574,1.356,1.512,3.026-.158,4.226a3.434,3.434,0,0,0-.091,4.789,2.815,2.815,0,0,1,1.322,1.852A2.341,2.341,0,0,1,21,31.108a3.338,3.338,0,0,0-.075,5.218,2.4,2.4,0,0,1,.091,3.99,4.035,4.035,0,0,0-1.086,4.22,1.944,1.944,0,0,0,.846.863,2.432,2.432,0,0,1,.2,4.148,4.119,4.119,0,0,0-1.029,4.244c.22.546.733.758,1.145,1.09a2.4,2.4,0,0,1,.13,3.681,4.075,4.075,0,0,0-1.05,5.036c1.468.571,3.256-.085,4.706.883h2.476c.319-.138.524-.451.861-.562.846-.292,1.835.207,2.609-.454.046-.613-.39-.894-.755-1.22a16.772,16.772,0,0,1-5.763-11.052A17.523,17.523,0,1,1,55.56,59.868a13.015,13.015,0,0,1-2.36,2.524,1.264,1.264,0,0,0-.6,1c.343.463.818.421,1.26.424q3.4.022,6.8,0c.532,0,1.1.015,1.368-.614a6.33,6.33,0,0,0,.157-1.969q0-27.445,0-54.889a3.693,3.693,0,0,0-.467-2.485c-1.7-.52-3.532-.035-5.3-.307a9.715,9.715,0,0,1-1.08-.56" transform="translate(-13.198 -2.004)" fill="#c46e37"/>
        <path id="Trazado_588193" data-name="Trazado 588193" d="M38.627,61.805a.611.611,0,0,0-.5.744c-.11.524.39.668.613.988H75.358c.391-.147.344-.615.672-.872V57.888c1.27-.191,2.548.21,3.9-.423l.818-.954a7.738,7.738,0,0,0,.213-2.972c.013-2.561,0-5.122.01-7.682a1.874,1.874,0,0,0-.5-1.53,1.922,1.922,0,0,0,.5-1.528c-.015-3.1,0-6.2-.01-9.293a2.066,2.066,0,0,0-.213-1.155,1.237,1.237,0,0,1,0-1.078,2.791,2.791,0,0,0,.21-1.65c.019-2.932,0-5.865.015-8.8a1.887,1.887,0,0,0-.493-1.533,2.2,2.2,0,0,0,.5-1.526q-.033-4.584,0-9.169a2.79,2.79,0,0,0-.99-2.449c-1.319-.614-2.632-.269-3.943-.413v-4.7L75.485.108H66.7c-.2.285-.7.429-.588.953a.611.611,0,0,0,.5.744c1.92.3,3.855,0,5.821.161a7.973,7.973,0,0,1,.994.735,4.556,4.556,0,0,1,.2,1.79q0,27.288-.008,54.575c0,.749.232,1.6-.586,2.142a1.363,1.363,0,0,1-1.067.489c-2.64-.025-5.28-.021-7.92,0a3.417,3.417,0,0,1-1.171-.323,2.218,2.218,0,0,0-1.75.056,16.14,16.14,0,0,0,7.1-8.739,15.69,15.69,0,0,0-.129-11.275,16.646,16.646,0,0,0-32.21,4.329c-.713,6.561,3.376,13.3,7.849,15.479-1.648.146-3.35.573-5.1.585" transform="translate(-23.97 -0.072)"/>
        <path id="Trazado_588194" data-name="Trazado 588194" d="M11.687,62.477c.045-.267-.425-.319-.228-.619-1.429-.643-2.907-.247-4.461-.414-.038-.592-.008-1.238-.014-1.882s0-1.311,0-1.967c.659-.152,1.077-.668,1.643-.867l.565-1.163v-1.82a3.6,3.6,0,0,0-2.183-1.76V48.429A3.79,3.79,0,0,0,9.2,46.45c.334-2.6-.821-3.391-2.161-3.585V39.242a.712.712,0,0,1,.807-.3A4.347,4.347,0,0,0,9.21,37.027c0-.375,0-1.035,0-1.7-.765-1.2-1.07-1.436-2.185-1.66V29.828a2.733,2.733,0,0,0,2.183-1.784V26.31A4.658,4.658,0,0,0,7.9,24.585c-.3-.076-.676.037-.881-.433V20.588c.851.106,1.377-.477,1.847-1.064a1.379,1.379,0,0,0,.358-.965c-.042-.531-.01-1.068-.01-1.517a3.822,3.822,0,0,0-2.2-2.006V11.493a3.571,3.571,0,0,0,2.182-1.8V7.862L8.628,6.8A8.1,8.1,0,0,0,7,5.872V1.981H8.232q13.988,0,27.975,0a7.813,7.813,0,0,0,3.127-.3l.33-.687c.11-.524-.39-.668-.613-.988H5.663c-.4.143-.347.612-.674.868V5.923H2.181A3.483,3.483,0,0,0,.05,8.177a3.142,3.142,0,0,0,1.116,2.739,1.686,1.686,0,0,0,1.285.491c.82-.014,1.64,0,2.505,0v3.7c-.63.032-1.317.026-2,.011A2.794,2.794,0,0,0,.321,19.113,2.449,2.449,0,0,0,1.6,20.337a4.013,4.013,0,0,0,1.778.491c.526-.021,1.054,0,1.6,0v3.428H2.213c-.45.434-1.121.413-1.412.927a11.882,11.882,0,0,0-.742,1.55C-.162,27.3.311,27.8.3,28.379l1.281,1.271c1.146.525,2.25.28,3.372.368v3.4c-1.037.183-2.193-.174-3.419.437L.358,35.123c-.064.457-.516,1-.289,1.592a4.466,4.466,0,0,0,.713,1.443A7.523,7.523,0,0,0,2.247,39.2H4.976v3.442c-.53,0-1.055.007-1.58,0A3.285,3.285,0,0,0,.459,44.152,2.42,2.42,0,0,0,.25,46.493a2.769,2.769,0,0,0,2.811,1.85c.615.012,1.229,0,1.892,0v3.7H2.072a3.65,3.65,0,0,0-2.02,2.226v1.06c.466.9.833,1.807,2.157,2.2H4.975V62.5l.555.931h5.577l.58-.58v-.372" transform="translate(0 -0.001)"/>
        <path id="Trazado_588195" data-name="Trazado 588195" d="M45.2,41.794h2.476a5.59,5.59,0,0,1,2.861-.581q9.1.023,18.19,0a3.92,3.92,0,0,0,2.161-.325c.617-1.1.713-11.733.117-13.223a2.316,2.316,0,0,0-1.737-.42q-12.436-.014-24.872,0a2.6,2.6,0,0,0-1.656.351c-.594,1.19-.63,11.887-.022,13.266.759.4,1.7.472,2.483.928" transform="translate(-28.309 -18.243)" fill="#eef2f4"/>
        <path id="Trazado_588196" data-name="Trazado 588196" d="M42.647,38.676c.11-.524-.39-.668-.613-.989H40.3c-.192-1.015-.251-9.429-.091-13.1H68.278c.165.97.219,10.056.068,13.064H45.762c-.249.359-.749.5-.64,1.027,0,.124-.043.272.01.366a2.075,2.075,0,0,0,.361.378H69.23c.124,0,.248-.008.371,0,.253.02.322-.221.505-.339V23.139l-.743-.553H39.031l-.564.565V39.078l.3.3h3.291c.152-.234.519-.344.587-.7" transform="translate(-25.761 -15.125)"/>
        <path id="Trazado_588197" data-name="Trazado 588197" d="M36.208,120.984c.7,0,1.4-.007,2.1,0,1.284.015,2.523-.45,3.823-.29a16.529,16.529,0,0,1-7.3-8.442,14.749,14.749,0,0,1-1.013-7.564,17.1,17.1,0,0,1,.632-2.947,25.484,25.484,0,0,1,1.161-2.865,12.148,12.148,0,0,1,1.607-2.544c.691-.865,1.558-1.588,2.337-2.384a11.45,11.45,0,0,1,2.489-1.755,11.777,11.777,0,0,1,2.715-1.212,16.338,16.338,0,0,1,3.03-.765,12.149,12.149,0,0,1,3.11-.2c.809.136,1.627.2,2.434.37a19.928,19.928,0,0,1,5.039,1.871,19.439,19.439,0,0,1,4.516,4.019A15.112,15.112,0,0,1,64.9,99.527a10.969,10.969,0,0,1,.76,2.035,16.334,16.334,0,0,1,.747,5.509,15.954,15.954,0,0,1-1.228,5.433,17.5,17.5,0,0,1-2.909,4.627,15.573,15.573,0,0,1-4.256,3.462c.16.3.434.128.644.135,1.822.06,3.628.35,5.463.274,1.851-.078,3.709-.008,5.564-.03.227,0,.6.248.691-.236a.15.15,0,0,0-.248,0H60.765a17.819,17.819,0,0,0,6.618-9.768,17.117,17.117,0,0,0-.125-9.56c-1.188-3.879-2.677-6.042-6.112-9.1a15.1,15.1,0,0,0-5.666-3.02A17.978,17.978,0,0,0,32.9,101.341a17.772,17.772,0,0,0-.6,7.278,15.551,15.551,0,0,0,2.162,6.518,16.643,16.643,0,0,0,4.834,5.474,3.627,3.627,0,0,1-1.408.12c-.411.024-.825,0-1.237.009-.179.005-.44-.1-.444.244" transform="translate(-21.55 -59.251)" fill="#a85e2c"/>
        <path id="Trazado_588198" data-name="Trazado 588198" d="M135.013,64.959h1.361c.211-1.248.3-51.764.1-59.421-2.445-.576-4.934-.247-7.4-.332,0,.342.265.243.444.244,1.444.007,2.888,0,4.331,0h1.167Z" transform="translate(-86.436 -3.474)" fill="#a95e2c"/>
        <path id="Trazado_588199" data-name="Trazado 588199" d="M69.068,105.4c0-.124.051-.285-.008-.366a16.114,16.114,0,0,0-6.711-5.251c-.6-.268-1.256-.327-1.873-.554a20.093,20.093,0,0,0-5.207-.264,17.8,17.8,0,0,0-3.233.853A22.421,22.421,0,0,0,49.1,101.4a14.425,14.425,0,0,0-5.486,6.89,9.086,9.086,0,0,0-.792,4.259c.043.658.01,1.322.007,1.983a12.091,12.091,0,0,0,.99,4.3,15,15,0,0,0,4.053,5.633,4.631,4.631,0,0,0,.9.522,9.269,9.269,0,0,0,4.865,1.35,1.534,1.534,0,0,0,1.346-.4c-.083-.654-.676-.643-1.1-.782A12.235,12.235,0,0,1,52.459,102.1a12.227,12.227,0,0,1,16.523,8.02c.134.475.1,1.1.779,1.252.9-1.471.258-2.934-.056-4.383a6.255,6.255,0,0,0-.637-1.592" transform="translate(-28.661 -66.225)" fill="#fa626e"/>
        <path id="Trazado_588200" data-name="Trazado 588200" d="M81.15,118.584c.053.384-.166.829.248,1.135a14.687,14.687,0,0,1,.45,4.728c0,.037-.132.059-.2.088a.975.975,0,0,0-.229.916,12.284,12.284,0,0,1-13.453,13.282c-.327-.034-.659-.093-.925.183a.185.185,0,0,1-.194.241c-.909-.1-1.859.26-2.731-.241a13.316,13.316,0,0,1-3.265-.744c-.04.157.084.242.178.293a16.21,16.21,0,0,0,3.49,1.726,9,9,0,0,1,2.181.695c.156.089.4.013.61.013.824,0,1.653-.059,2.47.013a11.312,11.312,0,0,0,4.611-.818,13.743,13.743,0,0,0,3.51-1.98,14.206,14.206,0,0,0,3.352-3.435,10.817,10.817,0,0,0,1.64-3.4A7.371,7.371,0,0,0,83.355,130a14.44,14.44,0,0,0,.281-2.99,10.378,10.378,0,0,1-.01-1.483,10.693,10.693,0,0,0-1.238-4.931c-.255-.512-.5-1.03-.743-1.548a.69.69,0,0,0-.5-.464" transform="translate(-40.743 -79.413)" fill="#f94954"/>
        <path id="Trazado_588201" data-name="Trazado 588201" d="M159.7,147.259h1.854a106.24,106.24,0,0,0,.085-10.661H159.7a1.915,1.915,0,0,0-.408,1.385q-.027,3.946,0,7.892a1.913,1.913,0,0,0,.408,1.384" transform="translate(-106.663 -91.477)" fill="#62d7f8"/>
        <path id="Trazado_588202" data-name="Trazado 588202" d="M159.7,71.449h1.854a106.24,106.24,0,0,0,.085-10.661H159.7a1.915,1.915,0,0,0-.408,1.385q-.027,3.946,0,7.892a1.913,1.913,0,0,0,.408,1.384" transform="translate(-106.663 -40.709)" fill="#fbe15c"/>
        <path id="Trazado_588203" data-name="Trazado 588203" d="M161.67,109.481q0-5.114,0-10.229c0-.035-.028-.07-.076-.184h-1.9a1.762,1.762,0,0,0-.4,1.255c-.024,2.66-.035,5.32.007,7.98a1.629,1.629,0,0,0,.426,1.217,4.035,4.035,0,0,0,1.952-.038" transform="translate(-106.656 -66.344)" fill="#7ecf61"/>
        <path id="Trazado_588204" data-name="Trazado 588204" d="M161.67,33.671q0-5.114,0-10.229c0-.035-.028-.07-.076-.184h-1.9a1.762,1.762,0,0,0-.4,1.255c-.024,2.66-.035,5.32.007,7.98a1.63,1.63,0,0,0,.426,1.217,4.035,4.035,0,0,0,1.952-.038" transform="translate(-106.656 -15.575)" fill="#fa636e"/>
        <path id="Trazado_588205" data-name="Trazado 588205" d="M160.51,109.481h-1.846a.575.575,0,0,1-.089-.081.2.2,0,0,1-.044-.1q0-5.114,0-10.229h-.953c-.08,1.743-.025,3.492-.035,5.24-.01,1.766,0,3.531,0,5.391.47.01.947.029,1.424.027s.974-.019,1.46-.044c.032,0,.058-.131.087-.2" transform="translate(-105.496 -66.344)" fill="#51bd26"/>
        <path id="Trazado_588206" data-name="Trazado 588206" d="M160.51,33.671h-1.846a.576.576,0,0,1-.089-.081.2.2,0,0,1-.044-.1q0-5.114,0-10.229h-.953c-.08,1.743-.025,3.492-.035,5.24-.01,1.766,0,3.531,0,5.391.47.01.947.029,1.424.027s.974-.018,1.46-.044c.032,0,.058-.131.087-.2" transform="translate(-105.496 -15.575)" fill="#f94954"/>
        <path id="Trazado_588207" data-name="Trazado 588207" d="M158.457,147.259V136.6h-.865c-.178,1.041-.228,7.011-.087,10.6.3.148.636.018.952.063" transform="translate(-105.423 -91.477)" fill="#00bdf6"/>
        <path id="Trazado_588208" data-name="Trazado 588208" d="M158.457,71.449V60.788h-.865c-.178,1.041-.228,7.011-.087,10.6.3.148.636.018.952.063" transform="translate(-105.423 -40.709)" fill="#fad207"/>
        <path id="Trazado_588209" data-name="Trazado 588209" d="M10.879,162.869H6.753l-.6.727v.648l.842.609c.853,0,1.919-.021,2.984.009a1.926,1.926,0,0,0,1.538-.54c.2-.225.033-.525.1-.842l-.728-.611" transform="translate(-4.117 -109.07)" fill="#c6c6c6"/>
        <path id="Trazado_588210" data-name="Trazado 588210" d="M6.219,135.443v1.035a1.925,1.925,0,0,0,1.634.608c.7-.032,1.4-.005,2.094-.008.472,0,.966.1,1.336-.409.086-.216.49-.438.246-1.053l-.661-.365a22.689,22.689,0,0,0-4.373-.073c-.1.012-.175.165-.276.265" transform="translate(-4.165 -90.469)" fill="#c6c6c6"/>
        <path id="Trazado_588211" data-name="Trazado 588211" d="M6.569,52.941H11.1l.476-.728c.257-.315-.193-.544-.166-.944-1.336-.551-2.724-.206-4.076-.281-.4-.022-.706.279-1.011.48-.11.97-.11.97.247,1.474" transform="translate(-4.191 -34.119)" fill="#c6c6c6"/>
        <path id="Trazado_588212" data-name="Trazado 588212" d="M11.03,25.267l.614-.615v-.728c-.15-.378-.613-.332-.846-.628H6.787l-.558.747V24.7l.892.568Z" transform="translate(-4.171 -15.601)" fill="#c6c6c6"/>
        <path id="Trazado_588213" data-name="Trazado 588213" d="M11.375,109.072c-.052-.419.544-.607.306-1.069l-.7-.6H6.553l-.317.317v1.05l.3.3Z" transform="translate(-4.176 -71.926)" fill="#c9c9c9"/>
        <path id="Trazado_588214" data-name="Trazado 588214" d="M6.544,79.676l-.3.3v1.056l.317.317h4.532l.48-.723c.255-.324-.217-.545-.164-.949Z" transform="translate(-4.182 -53.357)" fill="#c9c9c9"/>
        <path id="Trazado_588215" data-name="Trazado 588215" d="M77.672,34.109c-.1.125-.069.3-.227.4s-.086.3-.114.488c.063.322.419.444.6.719H91.868l.542-.782v-.6a1.874,1.874,0,0,0-1.475-.6c-2.387.02-4.774.008-7.161.008q-2.346,0-4.692,0c-.473,0-.968-.108-1.411.36" transform="translate(-51.787 -22.594)" fill="#040404"/>
        <path id="Trazado_588216" data-name="Trazado 588216" d="M91.705,47.56l.59-.706a.882.882,0,0,0-.35-1.006H77.8l-.653.868c-.081.312.4.521.687.844H91.705" transform="translate(-51.655 -30.703)"/>
        <path id="Trazado_588217" data-name="Trazado 588217" d="M62.209,58.78c.247-.28.739-.481.578-1.1l-.633-.568H50.027l-.317.317V58.48l.3.3Z" transform="translate(-33.29 -38.246)"/>
        <path id="Trazado_588218" data-name="Trazado 588218" d="M50.18,35.7h5.765l.314-.314V34.35a1.968,1.968,0,0,0-1.634-.61c-1.355.028-2.712.009-4.068.008-.292.186-.664.241-.9.571-.128.239-.035.525-.048.8l.575.576" transform="translate(-33.205 -22.594)" fill="#050505"/>
        <path id="Trazado_588219" data-name="Trazado 588219" d="M50.018,45.757c-.577.419-.347.908-.408,1.327.425.5,1,.407,1.551.407,1.6,0,3.206,0,4.766,0l.339-.339V46.095a.863.863,0,0,0-.834-.347c-1.814.02-3.63.009-5.414.009" transform="translate(-33.223 -30.636)" fill="#010101"/>
        <path id="Trazado_588220" data-name="Trazado 588220" d="M58.479,129.3c.756.027,1.467.3,2.249.272a15.73,15.73,0,0,0,4.365-.839,11.517,11.517,0,0,0,4.129-2.6,13.839,13.839,0,0,0,2.757-3.579,6.972,6.972,0,0,0,.83-2.123,18.41,18.41,0,0,0,.537-3.88c-.026-.56-.437-1.048-.26-1.631a6.9,6.9,0,0,0-.629-2.462,12.4,12.4,0,0,0-7.889-7.465,6.426,6.426,0,0,0-2.64-.488c-.443.055-.777-.314-1.259-.275-.557.045-1.045.423-1.626.279s-1.065.237-1.623.289a10.675,10.675,0,0,0-1.522.478,4.908,4.908,0,0,0-1.424.726,14.108,14.108,0,0,0-3.788,3.4,14.7,14.7,0,0,0-1.959,3.775,4.475,4.475,0,0,0-.394,1.815c.045.569-.309,1.045-.271,1.631a14.208,14.208,0,0,0,1.193,5.328,11.956,11.956,0,0,0,2.2,3.421,11.791,11.791,0,0,0,3.964,2.97,12.219,12.219,0,0,0,3.063.96" transform="translate(-32.185 -69.798)"/>
        <path id="Trazado_588221" data-name="Trazado 588221" d="M65.869,110.328c-.283.37-.3.893-.725,1.216H64.37c-.426-.325-.443-.851-.731-1.217a10.988,10.988,0,0,0-9.533,9.565l.927.423c.048.328.4.574.289,1.081l-.7.6h-.409c-.039.081-.1.152-.1.218a8.969,8.969,0,0,0,.877,3.227,10.374,10.374,0,0,0,8.7,6.167l.385-.863.656-.323c.313-.092.312.5.68.159.029.455.431.646.346,1.036a10.5,10.5,0,0,0,9.634-9.528c-.16-.2-.384-.064-.46-.082l-.662-.547c-.3-.555.211-.733.141-1.107l1.034-.472a10.85,10.85,0,0,0-3.2-6.4,10.707,10.707,0,0,0-6.373-3.146" transform="translate(-36.234 -73.884)" fill="#eef2f4"/>
        <path id="Trazado_588222" data-name="Trazado 588222" d="M82.387,125.379a2.158,2.158,0,0,0-.467,1.766l.813.814h1.289l.459-.46h4.227l.582-.675v-.777l-.9-.551H84.4v-6.285l-.582-.583c-.251-.142-.539-.041-.815-.06l-.614.614q0,3.1,0,6.2" transform="translate(-54.855 -79.392)" fill="#020202"/>
      </g>
    </g>
  </g>
</svg>
