<svg xmlns="http://www.w3.org/2000/svg" xmlns:xlink="http://www.w3.org/1999/xlink" width="115" height="115" viewBox="0 0 115 115">
  <defs>
    <clipPath id="clip-path">
      <rect id="Rect치ngulo_39441" data-name="Rect치ngulo 39441" width="65.6" height="65.648" fill="none"/>
    </clipPath>
  </defs>
  <g id="Grupo_850458" data-name="Grupo 850458" transform="translate(-396 -1970)">
    <circle id="Elipse_4805" data-name="Elipse 4805" cx="57.5" cy="57.5" r="57.5" transform="translate(396 1970)" fill="#4acfd9"/>
    <g id="Grupo_850417" data-name="Grupo 850417" transform="translate(421 1995)">
      <g id="Grupo_850416" data-name="Grupo 850416" clip-path="url(#clip-path)">
        <path id="Trazado_588472" data-name="Trazado 588472" d="M30.578,68.547H33.5c.287.059,0,.562.412.513.4-.282.43-.836.863-1.153a4.322,4.322,0,0,1,1.967-.229c4.267-.007,8.535,0,12.8-.008a3.5,3.5,0,0,0,2.009-.336,2.715,2.715,0,0,0,.432-2.054c-.046-5.276.54-3.879-3.089-7.555-3.689-3.736-7.42-7.431-11.127-11.15a4.3,4.3,0,0,1-1.213-1.5,1.019,1.019,0,0,1,.1-.841c1.873-2.66,5.554-5.148,9.356-2.527a17.44,17.44,0,0,1,2.327,2,2.877,2.877,0,0,0,1.641,1.06,3.043,3.043,0,0,0,1.932-2.427,5.188,5.188,0,0,0,.074-1.149q.008-16.27,0-32.541a3,3,0,0,0-.353-1.855,2.3,2.3,0,0,0-1.694-.416q-15.682-.016-31.364,0a2.455,2.455,0,0,0-1.559.339,2.728,2.728,0,0,0-.41,1.872c-.016,2.007.013,4.014-.013,6.021-.023,1.715-.3,1.987-2.045,2.008-1.963.024-3.926,0-5.889.011a3.154,3.154,0,0,0-1.863.337,2.181,2.181,0,0,0-.433,1.682q-.016,23.51,0,47.018a2.629,2.629,0,0,0,.335,1.581,3.044,3.044,0,0,0,2.106.425c4.352.012,8.7,0,13.058.009a4.327,4.327,0,0,1,1.967.229c.434.316.463.871.864,1.153.347.028.193-.3.372-.513h2.958c.393-.185.53-.678,1-.815.795-.3,1.052.512,1.566.815" transform="translate(-4.183 -4.194)" fill="#edf9fe"/>
        <path id="Trazado_588473" data-name="Trazado 588473" d="M20.5,64.865V63.712l-.637-.637H2.715c-.2-1.091-.287-45.915-.091-50.2H11.9c.171-.215.326-.345.567-.316a2.916,2.916,0,0,0,.373-1.134c-.043-1.451-.016-2.9-.016-4.356V2.646H47.358V38.593a7.567,7.567,0,0,1-1.664,1.883c-1.613-1.566-3.086-3.4-5.335-4.263-.451-.126-.951.046-1.415-.287a1.049,1.049,0,0,0-.871,0c-.538.239-1.131.138-1.651.344a4.759,4.759,0,0,0-1.566.826c-.7.67-1.541,1.143-2.191,1.87-.847.947-.885.913-.889,2.2l15.6,15.609v6.264H30.4l-.679.68q0,.577,0,1.154c.073.369.463.474.6.766H49.047a2.421,2.421,0,0,0,.9-2.042,40.4,40.4,0,0,1,.171-4.144l.329.544h1.2A30.469,30.469,0,0,0,54.3,57.269a5.334,5.334,0,0,0,1.3-3.424c-.012-.384-.005-.768,0-1.153a5.337,5.337,0,0,0-1.338-3.423,43.168,43.168,0,0,0-3.009-3.238,38.016,38.016,0,0,1,5.229-4.293,42.333,42.333,0,0,1,5.618-3.473A6.21,6.21,0,0,0,65.226,34.6a6.394,6.394,0,0,0-10.9-6.256,4.976,4.976,0,0,0-.988,1.506,24.389,24.389,0,0,1-2.573,4.308c-.212.321-.276.785-.812.992V33.879q0-14.988-.009-29.975a7.586,7.586,0,0,0-.23-3.241L48.981.019h-.4Q30.4.019,12.225,0a2.979,2.979,0,0,0-2.3.977Q5.429,5.531.88,10.036A2.719,2.719,0,0,0,0,12.115Q.031,37.927.008,63.739a2.708,2.708,0,0,0,.348,1.569,3,3,0,0,0,1.341.34c6.058-.022,12.116-.014,18.172-.014.185-.283.564-.4.635-.769" transform="translate(0 0)"/>
        <path id="Trazado_588474" data-name="Trazado 588474" d="M72.335,186.045c.12-.357-.318-.554-.256-.894a1.407,1.407,0,0,0-2,.062c-.044.188-.392.434-.306.832-.132.36.328.551.251.891a1.41,1.41,0,0,0,2-.059c.044-.188.392-.434.306-.832" transform="translate(-45.94 -121.692)" fill="#060606"/>
        <path id="Trazado_588475" data-name="Trazado 588475" d="M15.306,47.788c.022.166-.113.319-.287.46v5.118a3.207,3.207,0,0,0,.015.765c.045.18.349.264.227.518a2.65,2.65,0,0,0,1.659.4q18.438-.014,36.877-.007A2.416,2.416,0,0,0,54.71,53c.024-1.2-.031-2.394.024-3.587.023-.482-.27-.846-.289-1.3-.015-.362-.436-.486-.625-.757H16.94a2.034,2.034,0,0,0-1.634.435" transform="translate(-9.881 -31.186)"/>
        <path id="Trazado_588476" data-name="Trazado 588476" d="M55.2,142.556c-2.074,0-4.075,0-6.076,0-.488,0-1-.124-1.418.312a1.388,1.388,0,0,0-.112,1.843c.413.465,1,.408,1.569.407,2,0,3.995,0,5.983,0a6.22,6.22,0,0,0,7.225,5.068c3.33-.588,5.564-2.976,5.387-6.944a6.092,6.092,0,0,0-1.654-3.783,6.354,6.354,0,0,0-10.9,3.1" transform="translate(-31.148 -90.506)"/>
        <path id="Trazado_588477" data-name="Trazado 588477" d="M15.372,94.634a4.114,4.114,0,0,0,1.276.334q18.608-.032,37.179-.017l.659-.66V93.025l-.636-.637q-18.419,0-36.839,0c-.53,0-1.084-.114-1.55.3a1.473,1.473,0,0,0-.089,1.947" transform="translate(-9.912 -60.842)"/>
        <path id="Trazado_588478" data-name="Trazado 588478" d="M15.492,79.734a.455.455,0,0,1,.444.271H53.9l.592-.877V78.044l-.765-.572H15.944a.548.548,0,0,1-.506.253,1.509,1.509,0,0,0,.054,2.009" transform="translate(-9.933 -51.026)"/>
        <path id="Trazado_588479" data-name="Trazado 588479" d="M38.462,109.619a1.378,1.378,0,0,0,.053-1.8,2.151,2.151,0,0,0-1.428-.413q-10.162.021-20.324,0a2.855,2.855,0,0,0-1.426.331c-.337.6-.607,1.231.051,1.889a1.98,1.98,0,0,0,1.422.357q10.1-.013,20.2-.008c.488,0,1,.116,1.456-.353" transform="translate(-9.87 -70.74)"/>
        <path id="Trazado_588480" data-name="Trazado 588480" d="M33.384,124.593a1.338,1.338,0,0,0,.054-1.778,2.4,2.4,0,0,0-1.57-.4q-7.475.024-14.949,0a2.96,2.96,0,0,0-1.54.328,1.569,1.569,0,0,0,.031,1.949,2.279,2.279,0,0,0,1.461.3q7.539-.012,15.077-.007c.488,0,1.007.136,1.436-.395" transform="translate(-9.915 -80.629)"/>
        <path id="Trazado_588481" data-name="Trazado 588481" d="M71.972,22.583l-.625.655v1.293l.7.6h3.568l.559-.789V23.188l-.811-.6Z" transform="translate(-46.992 -14.874)" fill="#010101"/>
        <path id="Trazado_588482" data-name="Trazado 588482" d="M93.829,24.562l.638.634H98.08l.595-.719V23.225l-.862-.558H94.456l-.627.608Z" transform="translate(-61.8 -14.929)" fill="#010101"/>
        <path id="Trazado_588483" data-name="Trazado 588483" d="M117.2,25.176h3.421l.629-.653V23.231l-.687-.6h-3.578l-.564.775v1.168l.779.6" transform="translate(-76.682 -14.904)" fill="#010101"/>
        <path id="Trazado_588484" data-name="Trazado 588484" d="M77.664,122.777c-.392,1-.392,1-.059,1.869.99.5.99.5,1.971.1.407-.983.407-.983.051-1.9a1.777,1.777,0,0,0-1.962-.072" transform="translate(-50.954 -80.695)" fill="#060606"/>
        <path id="Trazado_588485" data-name="Trazado 588485" d="M102.021,114.82,118.3,131.109a5.642,5.642,0,0,0,1.918-2.735,6.244,6.244,0,0,0-.389-2.912c-3.842-3.845-7.85-7.854-11.855-11.866a2.3,2.3,0,0,0-1.509-.7c-.495-.044-.968-.53-1.459.009-1.463-.119-2.006,1.177-2.982,1.917" transform="translate(-67.195 -74.197)" fill="#fe7a78"/>
        <path id="Trazado_588486" data-name="Trazado 588486" d="M150.317,84.153c-.141.3-.5.356-.717.42a3.052,3.052,0,0,0-1.957,1.856,41.194,41.194,0,0,1-2.336,4.144,19.677,19.677,0,0,1-1.542,2.174c-1.321,1.685-2.64,3.373-4.033,4.852l1.77,1.771c1.046-.673,2.022-1.794,3.2-2.667,1.3-.963,2.646-1.853,3.941-2.818a32.2,32.2,0,0,1,3.929-2.246,4.224,4.224,0,0,0,2.4-2.671,7.437,7.437,0,0,0,.09-1.841c-.509-.58-.566-1.367-1.095-1.9s-1.335-.554-1.866-1.078h-1.781" transform="translate(-92.034 -55.427)" fill="#fed98e"/>
        <path id="Trazado_588487" data-name="Trazado 588487" d="M19.126,13.507l-5.6,5.605h5.6Z" transform="translate(-8.908 -8.896)" fill="#edf9fe"/>
        <rect id="Rect치ngulo_39440" data-name="Rect치ngulo 39440" width="23.514" height="2.476" transform="translate(18.736 18.774)" fill="#9ac4fe"/>
        <path id="Trazado_588488" data-name="Trazado 588488" d="M31.092,57.3V55a.612.612,0,0,0-.088-.09.212.212,0,0,0-.11-.041c-2.721,0-5.442,0-8.209,0v2.438a66.809,66.809,0,0,0,8.407,0" transform="translate(-14.941 -36.139)" fill="#858fa5"/>
        <path id="Trazado_588489" data-name="Trazado 588489" d="M78.084,150.024a3.852,3.852,0,0,0,4.2,2.577c2.011-.659,3.179-1.838,3.218-3.876s-1.22-3.122-3.254-3.842a3.7,3.7,0,0,0-4.131,2.514,22.854,22.854,0,0,0,3.069.054,2.685,2.685,0,0,1,1.435.343c.326.586.612,1.215-.051,1.876a2.084,2.084,0,0,1-1.548.358c-.968-.013-1.937,0-2.938,0" transform="translate(-51.43 -95.411)" fill="#fd7a78"/>
      </g>
    </g>
  </g>
</svg>
