<svg xmlns="http://www.w3.org/2000/svg" xmlns:xlink="http://www.w3.org/1999/xlink" width="468" height="191.809" viewBox="0 0 468 191.809">
  <defs>
    <clipPath id="clip-path">
      <rect id="Rectángulo_39446" data-name="Rectángulo 39446" width="192.275" height="191.809" fill="none"/>
    </clipPath>
  </defs>
  <g id="Grupo_850460" data-name="Grupo 850460" transform="translate(-877 -4660)">
    <path id="Trazado_588634" data-name="Trazado 588634" d="M.967,0V-12.8H5.089a6.064,6.064,0,0,1,3.05.769,5.406,5.406,0,0,1,2.114,2.171,6.554,6.554,0,0,1,.769,3.142v.589a6.592,6.592,0,0,1-.743,3.151A5.429,5.429,0,0,1,8.187-.8a5.93,5.93,0,0,1-3.01.8ZM4.052-10.415v8.042H5.124a2.4,2.4,0,0,0,2.039-.945,4.63,4.63,0,0,0,.712-2.808V-6.68a4.592,4.592,0,0,0-.712-2.795,2.442,2.442,0,0,0-2.074-.94ZM17.068.176a4.889,4.889,0,0,1-3.542-1.305,4.507,4.507,0,0,1-1.354-3.4v-.246a5.84,5.84,0,0,1,.541-2.575,3.955,3.955,0,0,1,1.578-1.727,4.763,4.763,0,0,1,2.461-.611,4.117,4.117,0,0,1,3.164,1.244,4.887,4.887,0,0,1,1.16,3.467v1.151H15.188a2.135,2.135,0,0,0,.694,1.257,2.066,2.066,0,0,0,1.389.457,2.662,2.662,0,0,0,2.2-.984l1.354,1.6A3.784,3.784,0,0,1,19.252-.277,5.3,5.3,0,0,1,17.068.176ZM16.734-7.4q-1.3,0-1.547,1.723h2.988v-.229a1.467,1.467,0,0,0-.36-1.1A1.434,1.434,0,0,0,16.734-7.4ZM31.1-4.676a5.8,5.8,0,0,1-.967,3.595A3.238,3.238,0,0,1,27.4.176,2.81,2.81,0,0,1,25.066-.976L24.943,0H22.289V-13.5h2.962v4.755a2.711,2.711,0,0,1,2.136-.94,3.239,3.239,0,0,1,2.742,1.274A5.826,5.826,0,0,1,31.1-4.825Zm-2.971-.189a3.866,3.866,0,0,0-.365-1.952A1.229,1.229,0,0,0,26.64-7.4a1.418,1.418,0,0,0-1.389.763v3.773a1.426,1.426,0,0,0,1.406.755,1.258,1.258,0,0,0,1.327-1.018A7.309,7.309,0,0,0,28.125-4.865ZM35.525,0H32.555V-9.51h2.971ZM32.379-11.962A1.322,1.322,0,0,1,32.836-13a1.724,1.724,0,0,1,1.187-.4,1.724,1.724,0,0,1,1.187.4,1.322,1.322,0,0,1,.457,1.037,1.322,1.322,0,0,1-.457,1.037,1.724,1.724,0,0,1-1.187.4,1.724,1.724,0,0,1-1.187-.4A1.322,1.322,0,0,1,32.379-11.962ZM40.474,0H37.5V-13.5h2.971Zm4.948,0H42.451V-9.51h2.971ZM42.275-11.962A1.322,1.322,0,0,1,42.732-13a1.724,1.724,0,0,1,1.187-.4,1.724,1.724,0,0,1,1.187.4,1.322,1.322,0,0,1,.457,1.037,1.322,1.322,0,0,1-.457,1.037,1.724,1.724,0,0,1-1.187.4,1.724,1.724,0,0,1-1.187-.4A1.322,1.322,0,0,1,42.275-11.962Zm4.6,7.137a5.809,5.809,0,0,1,.976-3.56,3.211,3.211,0,0,1,2.725-1.3,2.731,2.731,0,0,1,2.145,1V-13.5h2.971V0H53.024l-.149-1.02a2.8,2.8,0,0,1-2.32,1.2,3.205,3.205,0,0,1-2.689-1.3A5.993,5.993,0,0,1,46.872-4.825Zm2.962.185q0,2.531,1.477,2.531a1.458,1.458,0,0,0,1.406-.826V-6.557A1.419,1.419,0,0,0,51.328-7.4q-1.371,0-1.485,2.215ZM62.728,0a3.344,3.344,0,0,1-.281-.853A2.754,2.754,0,0,1,60.161.176a3.374,3.374,0,0,1-2.285-.813,2.588,2.588,0,0,1-.94-2.043,2.66,2.66,0,0,1,1.143-2.338A5.821,5.821,0,0,1,61.4-5.81h.914v-.5q0-1.316-1.134-1.316a.927.927,0,0,0-1.055,1.042H57.164a2.655,2.655,0,0,1,1.173-2.239,4.931,4.931,0,0,1,2.993-.86A4.323,4.323,0,0,1,64.2-8.8a3.086,3.086,0,0,1,1.081,2.435v4.21a4.311,4.311,0,0,0,.4,2V0ZM60.873-1.934a1.652,1.652,0,0,0,.918-.237,1.487,1.487,0,0,0,.523-.536V-4.228h-.861q-1.547,0-1.547,1.389a.848.848,0,0,0,.272.655A.986.986,0,0,0,60.873-1.934Zm5.678-2.892a5.809,5.809,0,0,1,.976-3.56,3.211,3.211,0,0,1,2.725-1.3,2.731,2.731,0,0,1,2.145,1V-13.5h2.971V0H72.7l-.149-1.02a2.8,2.8,0,0,1-2.32,1.2,3.205,3.205,0,0,1-2.689-1.3A5.993,5.993,0,0,1,66.551-4.825Zm2.962.185q0,2.531,1.477,2.531A1.458,1.458,0,0,0,72.4-2.936V-6.557A1.419,1.419,0,0,0,71.007-7.4q-1.371,0-1.485,2.215ZM81.65.176a4.889,4.889,0,0,1-3.542-1.305,4.507,4.507,0,0,1-1.354-3.4v-.246A5.84,5.84,0,0,1,77.3-7.348a3.955,3.955,0,0,1,1.578-1.727,4.763,4.763,0,0,1,2.461-.611A4.117,4.117,0,0,1,84.5-8.442a4.887,4.887,0,0,1,1.16,3.467v1.151H79.77a2.135,2.135,0,0,0,.694,1.257,2.066,2.066,0,0,0,1.389.457,2.662,2.662,0,0,0,2.2-.984l1.354,1.6A3.784,3.784,0,0,1,83.834-.277,5.3,5.3,0,0,1,81.65.176ZM81.316-7.4q-1.3,0-1.547,1.723h2.988v-.229a1.467,1.467,0,0,0-.36-1.1A1.434,1.434,0,0,0,81.316-7.4ZM91.828-2.672a.684.684,0,0,0-.4-.606,6.016,6.016,0,0,0-1.5-.475A6.853,6.853,0,0,1,88.1-4.4,3.062,3.062,0,0,1,87-5.37a2.319,2.319,0,0,1-.378-1.31,2.628,2.628,0,0,1,1.081-2.158,4.453,4.453,0,0,1,2.83-.848,4.934,4.934,0,0,1,3.023.853A2.666,2.666,0,0,1,94.7-6.592H91.731q0-1.143-1.2-1.143a1.194,1.194,0,0,0-.782.259.8.8,0,0,0-.316.646.737.737,0,0,0,.387.642,3.654,3.654,0,0,0,1.235.4,10.671,10.671,0,0,1,1.49.378A2.706,2.706,0,0,1,94.685-2.76,2.491,2.491,0,0,1,93.529-.642a5.068,5.068,0,0,1-2.993.817,5.172,5.172,0,0,1-2.18-.439,3.645,3.645,0,0,1-1.494-1.2,2.707,2.707,0,0,1-.536-1.591h2.769a1.145,1.145,0,0,0,.439.962,1.808,1.808,0,0,0,1.081.3,1.422,1.422,0,0,0,.91-.246A.787.787,0,0,0,91.828-2.672Z" transform="translate(877 4689)" fill="#12263f"/>
    <path id="Trazado_588635" data-name="Trazado 588635" d="M9.026-5.1H4.052V0H.967V-12.8H9.527v2.382H4.052v2.944H9.026Zm1.09.255a5.613,5.613,0,0,1,.554-2.536,3.96,3.96,0,0,1,1.591-1.709,4.791,4.791,0,0,1,2.435-.6,4.373,4.373,0,0,1,3.366,1.323,5.076,5.076,0,0,1,1.23,3.6v.105a4.925,4.925,0,0,1-1.235,3.529A4.384,4.384,0,0,1,14.713.176a4.434,4.434,0,0,1-3.261-1.217,4.761,4.761,0,0,1-1.327-3.3Zm2.962.185a3.538,3.538,0,0,0,.413,1.934,1.376,1.376,0,0,0,1.222.615q1.582,0,1.617-2.435v-.3Q16.33-7.4,14.7-7.4q-1.485,0-1.608,2.206ZM26.35-6.829l-.976-.07a1.752,1.752,0,0,0-1.793.879V0H20.619V-9.51H23.4l.1,1.222a2.294,2.294,0,0,1,2.083-1.4,2.888,2.888,0,0,1,.826.105Zm4.957-5.045V-9.51h1.564v2.057H31.307V-3.1a1.111,1.111,0,0,0,.193.747,1.037,1.037,0,0,0,.765.211A4.345,4.345,0,0,0,33-2.2V-.079a5.466,5.466,0,0,1-1.67.255,3.1,3.1,0,0,1-2.259-.721,2.954,2.954,0,0,1-.729-2.188v-4.72H27.132V-9.51h1.213v-2.364ZM39.393,0a3.344,3.344,0,0,1-.281-.853A2.754,2.754,0,0,1,36.826.176a3.374,3.374,0,0,1-2.285-.813,2.588,2.588,0,0,1-.94-2.043,2.66,2.66,0,0,1,1.143-2.338,5.821,5.821,0,0,1,3.322-.791h.914v-.5q0-1.316-1.134-1.316a.927.927,0,0,0-1.055,1.042H33.829A2.655,2.655,0,0,1,35-8.825,4.931,4.931,0,0,1,38-9.686a4.323,4.323,0,0,1,2.874.888A3.086,3.086,0,0,1,41.95-6.363v4.21a4.311,4.311,0,0,0,.4,2V0ZM37.538-1.934a1.652,1.652,0,0,0,.918-.237,1.487,1.487,0,0,0,.523-.536V-4.228h-.861q-1.547,0-1.547,1.389a.848.848,0,0,0,.272.655A.986.986,0,0,0,37.538-1.934ZM46.714,0H43.743V-13.5h2.971Zm6.425.176A4.889,4.889,0,0,1,49.6-1.129a4.507,4.507,0,0,1-1.354-3.4v-.246a5.84,5.84,0,0,1,.541-2.575,3.955,3.955,0,0,1,1.578-1.727,4.763,4.763,0,0,1,2.461-.611,4.117,4.117,0,0,1,3.164,1.244,4.887,4.887,0,0,1,1.16,3.467v1.151H51.258a2.135,2.135,0,0,0,.694,1.257,2.066,2.066,0,0,0,1.389.457,2.662,2.662,0,0,0,2.2-.984l1.354,1.6A3.784,3.784,0,0,1,55.323-.277,5.3,5.3,0,0,1,53.139.176ZM52.8-7.4q-1.3,0-1.547,1.723h2.988v-.229a1.467,1.467,0,0,0-.36-1.1A1.434,1.434,0,0,0,52.8-7.4Zm9.026,5.115h4.333V0H58.087V-1.652l4.219-5.572H58.271V-9.51h7.8v1.6ZM72.958,0a3.344,3.344,0,0,1-.281-.853A2.754,2.754,0,0,1,70.392.176a3.374,3.374,0,0,1-2.285-.813,2.588,2.588,0,0,1-.94-2.043,2.66,2.66,0,0,1,1.143-2.338,5.821,5.821,0,0,1,3.322-.791h.914v-.5q0-1.316-1.134-1.316a.927.927,0,0,0-1.055,1.042H67.395a2.655,2.655,0,0,1,1.173-2.239,4.931,4.931,0,0,1,2.993-.86,4.323,4.323,0,0,1,2.874.888,3.086,3.086,0,0,1,1.081,2.435v4.21a4.311,4.311,0,0,0,.4,2V0ZM71.1-1.934a1.652,1.652,0,0,0,.918-.237,1.487,1.487,0,0,0,.523-.536V-4.228h-.861q-1.547,0-1.547,1.389a.848.848,0,0,0,.272.655A.986.986,0,0,0,71.1-1.934Zm11.03-.738a.684.684,0,0,0-.4-.606,6.016,6.016,0,0,0-1.5-.475A6.853,6.853,0,0,1,78.407-4.4a3.062,3.062,0,0,1-1.1-.971,2.319,2.319,0,0,1-.378-1.31,2.628,2.628,0,0,1,1.081-2.158,4.453,4.453,0,0,1,2.83-.848,4.934,4.934,0,0,1,3.023.853,2.666,2.666,0,0,1,1.143,2.241H82.037q0-1.143-1.2-1.143a1.194,1.194,0,0,0-.782.259.8.8,0,0,0-.316.646.737.737,0,0,0,.387.642,3.654,3.654,0,0,0,1.235.4,10.671,10.671,0,0,1,1.49.378A2.706,2.706,0,0,1,84.99-2.76,2.491,2.491,0,0,1,83.834-.642a5.068,5.068,0,0,1-2.993.817,5.172,5.172,0,0,1-2.18-.439,3.645,3.645,0,0,1-1.494-1.2,2.707,2.707,0,0,1-.536-1.591H79.4a1.145,1.145,0,0,0,.439.962,1.808,1.808,0,0,0,1.081.3,1.422,1.422,0,0,0,.91-.246A.787.787,0,0,0,82.134-2.672Z" transform="translate(877 4813)" fill="#12263f"/>
    <path id="Trazado_588633" data-name="Trazado 588633" d="M8.235-2.391H4.008L3.27,0h-3.3L4.667-12.8h2.9L12.3,0H8.982ZM4.746-4.772H7.5L6.117-9.211ZM15.891-9.51l.1,1.116A3.27,3.27,0,0,1,18.7-9.686a2.407,2.407,0,0,1,2.435,1.433,3.165,3.165,0,0,1,2.795-1.433q2.892,0,2.971,3.5V0H23.933V-6a1.813,1.813,0,0,0-.246-1.063,1.048,1.048,0,0,0-.9-.334,1.4,1.4,0,0,0-1.31.782l.009.123V0H18.519V-5.985a1.906,1.906,0,0,0-.237-1.081,1.045,1.045,0,0,0-.905-.334,1.42,1.42,0,0,0-1.3.782V0H13.113V-9.51ZM33.2.176a4.889,4.889,0,0,1-3.542-1.305,4.507,4.507,0,0,1-1.354-3.4v-.246a5.84,5.84,0,0,1,.541-2.575,3.955,3.955,0,0,1,1.578-1.727,4.763,4.763,0,0,1,2.461-.611,4.117,4.117,0,0,1,3.164,1.244A4.887,4.887,0,0,1,37.2-4.975v1.151H31.315a2.135,2.135,0,0,0,.694,1.257,2.066,2.066,0,0,0,1.389.457,2.662,2.662,0,0,0,2.2-.984l1.354,1.6A3.784,3.784,0,0,1,35.38-.277,5.3,5.3,0,0,1,33.2.176ZM32.862-7.4q-1.3,0-1.547,1.723H34.3v-.229a1.467,1.467,0,0,0-.36-1.1A1.434,1.434,0,0,0,32.862-7.4ZM41.115-9.51l.1,1.116a3.225,3.225,0,0,1,2.716-1.292,2.713,2.713,0,0,1,2.219.888,4.226,4.226,0,0,1,.76,2.672V0H43.937V-6a1.6,1.6,0,0,0-.29-1.059A1.342,1.342,0,0,0,42.592-7.4a1.413,1.413,0,0,0-1.292.686V0H38.338V-9.51ZM53.9,0a3.344,3.344,0,0,1-.281-.853A2.754,2.754,0,0,1,51.337.176a3.374,3.374,0,0,1-2.285-.813,2.588,2.588,0,0,1-.94-2.043,2.66,2.66,0,0,1,1.143-2.338,5.821,5.821,0,0,1,3.322-.791h.914v-.5q0-1.316-1.134-1.316A.927.927,0,0,0,51.3-6.587H48.34a2.655,2.655,0,0,1,1.173-2.239,4.931,4.931,0,0,1,2.993-.86A4.323,4.323,0,0,1,55.38-8.8a3.086,3.086,0,0,1,1.081,2.435v4.21a4.311,4.311,0,0,0,.4,2V0ZM52.049-1.934a1.652,1.652,0,0,0,.918-.237,1.487,1.487,0,0,0,.523-.536V-4.228h-.861q-1.547,0-1.547,1.389a.848.848,0,0,0,.272.655A.986.986,0,0,0,52.049-1.934Zm9.545-.352h4.333V0H57.85V-1.652l4.219-5.572H58.034V-9.51h7.8v1.6ZM72.721,0a3.344,3.344,0,0,1-.281-.853A2.754,2.754,0,0,1,70.154.176a3.374,3.374,0,0,1-2.285-.813,2.588,2.588,0,0,1-.94-2.043,2.66,2.66,0,0,1,1.143-2.338,5.821,5.821,0,0,1,3.322-.791h.914v-.5q0-1.316-1.134-1.316a.927.927,0,0,0-1.055,1.042H67.157a2.655,2.655,0,0,1,1.173-2.239,4.931,4.931,0,0,1,2.993-.86A4.323,4.323,0,0,1,74.2-8.8a3.086,3.086,0,0,1,1.081,2.435v4.21a4.311,4.311,0,0,0,.4,2V0ZM70.866-1.934a1.652,1.652,0,0,0,.918-.237,1.487,1.487,0,0,0,.523-.536V-4.228h-.861q-1.547,0-1.547,1.389a.848.848,0,0,0,.272.655A.986.986,0,0,0,70.866-1.934ZM81.9-2.672a.684.684,0,0,0-.4-.606A6.016,6.016,0,0,0,80-3.753,6.853,6.853,0,0,1,78.17-4.4a3.062,3.062,0,0,1-1.1-.971,2.319,2.319,0,0,1-.378-1.31,2.628,2.628,0,0,1,1.081-2.158,4.453,4.453,0,0,1,2.83-.848,4.934,4.934,0,0,1,3.023.853,2.666,2.666,0,0,1,1.143,2.241H81.8q0-1.143-1.2-1.143a1.194,1.194,0,0,0-.782.259.8.8,0,0,0-.316.646.737.737,0,0,0,.387.642,3.654,3.654,0,0,0,1.235.4,10.671,10.671,0,0,1,1.49.378A2.706,2.706,0,0,1,84.753-2.76,2.491,2.491,0,0,1,83.6-.642,5.068,5.068,0,0,1,80.6.176a5.172,5.172,0,0,1-2.18-.439,3.645,3.645,0,0,1-1.494-1.2,2.707,2.707,0,0,1-.536-1.591h2.769a1.145,1.145,0,0,0,.439.962,1.808,1.808,0,0,0,1.081.3,1.422,1.422,0,0,0,.91-.246A.787.787,0,0,0,81.9-2.672Z" transform="translate(1220 4689)" fill="#12263f"/>
    <path id="Trazado_588632" data-name="Trazado 588632" d="M11.8-6.135a7.546,7.546,0,0,1-.694,3.313A5.132,5.132,0,0,1,9.136-.6,5.494,5.494,0,0,1,6.223.176a5.572,5.572,0,0,1-2.9-.751A5.123,5.123,0,0,1,1.349-2.725,7.329,7.329,0,0,1,.606-5.933v-.721A7.58,7.58,0,0,1,1.3-9.971,5.119,5.119,0,0,1,3.274-12.19a5.533,5.533,0,0,1,2.931-.782,5.479,5.479,0,0,1,2.9.773A5.211,5.211,0,0,1,11.087-10,7.362,7.362,0,0,1,11.8-6.724ZM8.666-6.671a5.381,5.381,0,0,0-.637-2.9,2.044,2.044,0,0,0-1.824-.989q-2.32,0-2.452,3.48l-.009.94a5.535,5.535,0,0,0,.624,2.892A2.041,2.041,0,0,0,6.223-2.232a2.016,2.016,0,0,0,1.8-.993,5.383,5.383,0,0,0,.642-2.856ZM22.087-4.685a5.735,5.735,0,0,1-1,3.538A3.2,3.2,0,0,1,18.4.176a2.742,2.742,0,0,1-2.153-.958V3.656H13.28V-9.51h2.769l.088.879a2.742,2.742,0,0,1,2.241-1.055,3.224,3.224,0,0,1,2.733,1.3,5.805,5.805,0,0,1,.976,3.564Zm-2.962-.185q0-2.531-1.477-2.531a1.394,1.394,0,0,0-1.406.756V-2.9a1.439,1.439,0,0,0,1.424.791q1.415,0,1.459-2.443Zm3.894.026a5.613,5.613,0,0,1,.554-2.536,3.96,3.96,0,0,1,1.591-1.709,4.791,4.791,0,0,1,2.435-.6,4.373,4.373,0,0,1,3.366,1.323,5.076,5.076,0,0,1,1.23,3.6v.105a4.925,4.925,0,0,1-1.235,3.529A4.384,4.384,0,0,1,27.615.176a4.434,4.434,0,0,1-3.261-1.217,4.761,4.761,0,0,1-1.327-3.3Zm2.962.185a3.538,3.538,0,0,0,.413,1.934,1.376,1.376,0,0,0,1.222.615q1.582,0,1.617-2.435v-.3Q29.232-7.4,27.6-7.4q-1.485,0-1.608,2.206ZM39.252-6.829l-.976-.07a1.752,1.752,0,0,0-1.793.879V0H33.521V-9.51H36.3l.1,1.222a2.294,2.294,0,0,1,2.083-1.4,2.888,2.888,0,0,1,.826.105Zm4.957-5.045V-9.51h1.564v2.057H44.209V-3.1a1.111,1.111,0,0,0,.193.747,1.037,1.037,0,0,0,.765.211,4.345,4.345,0,0,0,.738-.053V-.079a5.466,5.466,0,0,1-1.67.255,3.1,3.1,0,0,1-2.259-.721,2.954,2.954,0,0,1-.729-2.188v-4.72H40.034V-9.51h1.213v-2.364ZM52.6-1.028a3.054,3.054,0,0,1-2.54,1.2,3,3,0,0,1-2.369-.91,3.826,3.826,0,0,1-.8-2.615V-9.51h2.962v6.179a1.065,1.065,0,0,0,1.187,1.222,1.548,1.548,0,0,0,1.45-.729V-9.51h2.979V0H52.69ZM59.81-9.51l.1,1.116a3.225,3.225,0,0,1,2.716-1.292,2.713,2.713,0,0,1,2.219.888,4.226,4.226,0,0,1,.76,2.672V0H62.631V-6a1.6,1.6,0,0,0-.29-1.059A1.342,1.342,0,0,0,61.286-7.4a1.413,1.413,0,0,0-1.292.686V0H57.032V-9.51ZM70.365,0H67.395V-9.51h2.971ZM67.219-11.962A1.322,1.322,0,0,1,67.676-13a1.724,1.724,0,0,1,1.187-.4,1.724,1.724,0,0,1,1.187.4,1.322,1.322,0,0,1,.457,1.037,1.322,1.322,0,0,1-.457,1.037,1.724,1.724,0,0,1-1.187.4,1.724,1.724,0,0,1-1.187-.4A1.322,1.322,0,0,1,67.219-11.962Zm4.6,7.137a5.809,5.809,0,0,1,.976-3.56,3.211,3.211,0,0,1,2.725-1.3,2.731,2.731,0,0,1,2.145,1V-13.5h2.971V0H77.968l-.149-1.02A2.8,2.8,0,0,1,75.5.176a3.205,3.205,0,0,1-2.689-1.3A5.993,5.993,0,0,1,71.815-4.825Zm2.962.185q0,2.531,1.477,2.531a1.458,1.458,0,0,0,1.406-.826V-6.557A1.419,1.419,0,0,0,76.271-7.4q-1.371,0-1.485,2.215ZM87.671,0a3.344,3.344,0,0,1-.281-.853A2.754,2.754,0,0,1,85.1.176a3.374,3.374,0,0,1-2.285-.813,2.588,2.588,0,0,1-.94-2.043,2.66,2.66,0,0,1,1.143-2.338,5.821,5.821,0,0,1,3.322-.791h.914v-.5q0-1.316-1.134-1.316a.927.927,0,0,0-1.055,1.042H82.107a2.655,2.655,0,0,1,1.173-2.239,4.931,4.931,0,0,1,2.993-.86,4.323,4.323,0,0,1,2.874.888,3.086,3.086,0,0,1,1.081,2.435v4.21a4.311,4.311,0,0,0,.4,2V0ZM85.816-1.934a1.652,1.652,0,0,0,.918-.237,1.487,1.487,0,0,0,.523-.536V-4.228H86.4q-1.547,0-1.547,1.389a.848.848,0,0,0,.272.655A.986.986,0,0,0,85.816-1.934Zm5.678-2.892a5.809,5.809,0,0,1,.976-3.56,3.211,3.211,0,0,1,2.725-1.3,2.731,2.731,0,0,1,2.145,1V-13.5h2.971V0H97.646L97.5-1.02a2.8,2.8,0,0,1-2.32,1.2,3.205,3.205,0,0,1-2.689-1.3A5.993,5.993,0,0,1,91.494-4.825Zm2.962.185q0,2.531,1.477,2.531a1.458,1.458,0,0,0,1.406-.826V-6.557A1.419,1.419,0,0,0,95.95-7.4q-1.371,0-1.485,2.215ZM106.594.176a4.889,4.889,0,0,1-3.542-1.305,4.507,4.507,0,0,1-1.354-3.4v-.246a5.84,5.84,0,0,1,.541-2.575,3.955,3.955,0,0,1,1.578-1.727,4.763,4.763,0,0,1,2.461-.611,4.117,4.117,0,0,1,3.164,1.244,4.887,4.887,0,0,1,1.16,3.467v1.151h-5.889a2.135,2.135,0,0,0,.694,1.257,2.066,2.066,0,0,0,1.389.457,2.662,2.662,0,0,0,2.2-.984l1.354,1.6a3.784,3.784,0,0,1-1.569,1.217A5.3,5.3,0,0,1,106.594.176ZM106.26-7.4q-1.3,0-1.547,1.723H107.7v-.229a1.467,1.467,0,0,0-.36-1.1A1.434,1.434,0,0,0,106.26-7.4Zm10.512,4.729a.684.684,0,0,0-.4-.606,6.016,6.016,0,0,0-1.5-.475,6.853,6.853,0,0,1-1.828-.646,3.062,3.062,0,0,1-1.1-.971,2.319,2.319,0,0,1-.378-1.31,2.628,2.628,0,0,1,1.081-2.158,4.453,4.453,0,0,1,2.83-.848,4.934,4.934,0,0,1,3.023.853,2.666,2.666,0,0,1,1.143,2.241h-2.971q0-1.143-1.2-1.143a1.194,1.194,0,0,0-.782.259.8.8,0,0,0-.316.646.737.737,0,0,0,.387.642,3.654,3.654,0,0,0,1.235.4,10.671,10.671,0,0,1,1.49.378,2.706,2.706,0,0,1,2.145,2.646,2.491,2.491,0,0,1-1.156,2.118,5.068,5.068,0,0,1-2.993.817,5.172,5.172,0,0,1-2.18-.439,3.645,3.645,0,0,1-1.494-1.2,2.707,2.707,0,0,1-.536-1.591h2.769a1.145,1.145,0,0,0,.439.962,1.808,1.808,0,0,0,1.081.3,1.422,1.422,0,0,0,.91-.246A.787.787,0,0,0,116.771-2.672Z" transform="translate(1220 4813)" fill="#12263f"/>
    <path id="Trazado_588498" data-name="Trazado 588498" d="M-1113-6882h468" transform="translate(1990 11703)" fill="none" stroke="#12263f" stroke-width="3" stroke-dasharray="5"/>
    <path id="Trazado_588499" data-name="Trazado 588499" d="M-1113-6882h458" transform="translate(1990 11580)" fill="none" stroke="#12263f" stroke-width="3" stroke-dasharray="5"/>
    <g id="Grupo_850435" data-name="Grupo 850435" transform="translate(1000 4660)">
      <g id="Grupo_850434" data-name="Grupo 850434" clip-path="url(#clip-path)">
        <path id="Trazado_588493" data-name="Trazado 588493" d="M91.672,191.763l4.614-2.369c2.527,2.165,5.642,2.425,8.977,2.414,26.52-.081,53.039-.045,79.585-.045.784-.461,1.558-.995,2.4-1.4a8.284,8.284,0,0,0,4.941-8c.046-27.454.026-54.909.026-82.1l-2.328-4.417c1.867-2.6,2.4-5.613,2.39-8.973-.113-26.581-.062-53.162-.062-79.007a10.941,10.941,0,0,0-7.92-7.836C157.483.038,129.844.06,102.205,0,99.858-.006,98.259,1.369,96.2,2.344L91.711.038C64.4.038,36.767.013,9.128.072A8.457,8.457,0,0,0,1.552,4.627c-.464.806-.884,1.636-1.5,2.789v4.451C.048,36.828.087,61.789,0,86.75c-.012,3.33.279,6.429,2.417,9.006-.784,1.527-1.47,2.868-2.37,4.624v4.352q0,38.377-.019,76.755a9.683,9.683,0,0,0,6.058,9.592,8.453,8.453,0,0,0,3.847.677q40.9.014,81.738.007"/>
        <path id="Trazado_588494" data-name="Trazado 588494" d="M7.1,7.076a6.852,6.852,0,0,0-1.071,4.106q.048,38.377.028,76.757c0,1.31-.306,2.7.947,3.772a6.17,6.17,0,0,0,4.176,1.222c8.983-.057,17.966-.027,27.049-.027V84.951c-8.183-6.025-7.853-20.032-.436-25.586,5.014-6.231,18.68-6.9,24.61,1.015,5.917,4.9,6.822,18.429-1.475,24.576V92.8h32a8.479,8.479,0,0,0,.185-3.17c.019-9.111.1-18.223-.037-27.332-.054-3.469.773-6.159,4.574-7.583H108.06a10.549,10.549,0,0,1,4.139,2.9c2.018,2,4.344,3.329,7.345,3.1,1.244-.095,2.5-.016,3.636-.016,6.587-2.666,9.328-7.431,7.958-14.8-.9-1.471-1.631-3.641-3.515-5.122a11.618,11.618,0,0,0-10.441-2.2,9.352,9.352,0,0,0-5.693,3.44c-.746,1.028-1.981,1.33-3.1,2.2-2.4,0-5.02-.121-7.627.029-3.457.2-6.2-.688-7.636-4.607,0-9.13.006-18.737-.007-28.345,0-1.429.407-2.951-1.026-4.123C90.9,6.1,89.278,6.006,87.555,6.008q-38.093.048-76.183.026c-1.438,0-2.938-.3-4.272,1.042" fill="#fed681"/>
        <path id="Trazado_588495" data-name="Trazado 588495" d="M131.322,106.849V99H99.132V102.2q0,14.229,0,28.457c0,4.154-2.268,6.415-6.41,6.431-3,.012-6,0-8.3,0a9.137,9.137,0,0,1-4.368-2.932c-2.993-3.032-6.8-3.663-10.67-2.85a10.4,10.4,0,0,0-7.813,6.607,6.01,6.01,0,0,0-.745,2.7c.1,1.616.028,3.244.028,4.879,1.1,1.51,1.683,3.292,2.973,4.773,4.37,5.016,13.219,3.9,16.464.043a7.79,7.79,0,0,1,3.385-2.735c2.993,0,5.986.051,8.978-.014,2.788-.061,4.907.848,5.964,3.6.081.213.341.357.518.534q0,14.415,0,28.831c0,1.432-.4,2.951,1.043,4.117.24.588,1.228.287,1.566,1.127q39.764,0,79.543.013c1.34,0,2.657.054,3.771-.922,1.064-1.3,1.172-2.919,1.17-4.641q-.051-38-.028-76.008c0-1.433.318-2.934-.923-4.157a6.738,6.738,0,0,0-3.851-1.2c-8.756.091-17.513.043-26.269.049-.352,0-.7.068-1.138.113V106.9c5.16,3.823,6.522,9.5,5.891,15.843-.486,4.877-3.488,8.377-7.089,11.265-5.232,4.2-16.458,5.489-23.851-3.337-4.473-5.34-5.909-17.528,2.35-23.818" fill="#c2e578"/>
        <path id="Trazado_588496" data-name="Trazado 588496" d="M60.849,69.092c-2.777-7-7.675-9.342-14.719-8.186-1.587.939-3.739,1.7-5.235,3.562a11.489,11.489,0,0,0-2.219,10.415A10.01,10.01,0,0,0,42.092,80.6a5.44,5.44,0,0,1,2.243,2.844c0,2.732-.146,5.474.037,8.194.229,3.407-.957,5.844-4.54,7.261-9.223,0-18.851,0-28.479,0-1.44,0-2.929-.242-4.15.915-1.065,1.287-1.177,2.9-1.175,4.627q.053,38,.03,76.008c0,1.431-.336,2.937.915,4.153a6.815,6.815,0,0,0,4.6,1.2q38.092-.056,76.183-.033c1.432,0,2.948.358,4.464-1.464a5.07,5.07,0,0,0,.937-2.505c-.057-9.338-.03-18.677-.03-28.121H85.153c-6.066,8.183-20.091,7.805-25.632.442-6.279-5.024-6.906-18.674.994-24.555,4.924-5.927,18.491-6.806,24.645,1.467h7.852v-31.9c-.945-.494-2.075-.209-3.154-.212-9.132-.027-18.266-.109-27.4.032-3.473.053-6.182-.748-7.615-4.583V83.888a10.479,10.479,0,0,1,2.9-4,10.088,10.088,0,0,0,3.087-7.329c.07-1.245.012-2.5.012-3.464" fill="#00d1fe"/>
        <path id="Trazado_588497" data-name="Trazado 588497" d="M100.011,7.608c.02.168-.356.626-.867,1.028v29.4c1.245.462,2.61.118,3.926.187,1.247.066,2.5.014,4.027.014,3.924-5.314,9.649-6.638,16-5.957,4.7.505,8.118,3.355,11.037,6.819,4.3,5.106,5.818,16.644-3.208,24.082-5.295,4.363-17.424,5.925-23.814-2.365h-7.9V92.774h34.018c.458,1.031,1.556.759,2.162,1.432a6.2,6.2,0,0,1,2.047,4.416c-.072,3.234-.02,6.471-.02,9.555-.89,1.024-1.2,2.234-2.177,3.037-3.29,2.7-4.3,6.4-3.759,10.378a10.017,10.017,0,0,0,5.276,8.012c.827.43,1.644.877,2.638,1.409,7.287.745,10.659-.507,14.548-7.908-.226-2.257.333-4.755-.678-7.282a9.936,9.936,0,0,0-2.126-3.618c-1.2-1.191-2.568-2.257-3.213-4.688,0-2.476-.033-5.718.01-8.959a5.654,5.654,0,0,1,5.686-5.641q13.7-.048,27.4.007a7,7,0,0,0,4.245-1.042,8.6,8.6,0,0,0,.987-3.88q-.084-39.684-.04-79.356a1.669,1.669,0,0,1-.813-1.565,10.446,10.446,0,0,0-2.2-1.011,12.976,12.976,0,0,0-2.618-.04q-37.9,0-75.809,0c-1.557,0-3.2-.408-4.757,1.573" fill="#fe6464"/>
      </g>
    </g>
  </g>
</svg>
