<svg xmlns="http://www.w3.org/2000/svg" xmlns:xlink="http://www.w3.org/1999/xlink" width="85" height="85" viewBox="0 0 85 85">
  <defs>
    <clipPath id="clip-path">
      <rect id="Rectángulo_39227" data-name="Rectángulo 39227" width="52" height="52" fill="none"/>
    </clipPath>
  </defs>
  <g id="Grupo_850457" data-name="Grupo 850457" transform="translate(-285 -3100)">
    <circle id="Elipse_4770" data-name="Elipse 4770" cx="42.5" cy="42.5" r="42.5" transform="translate(285 3100)" fill="#4acfd9"/>
    <g id="Grupo_850138" data-name="Grupo 850138" transform="translate(302 3117)">
      <g id="Grupo_850137" data-name="Grupo 850137" clip-path="url(#clip-path)">
        <path id="Trazado_586486" data-name="Trazado 586486" d="M12.851,21.639a6.267,6.267,0,0,0,2.214,3.439c-.268.2-.546.105-.8.106-2.2.009-4.4.043-6.6-.009a12.809,12.809,0,0,0-3.606.62,2.913,2.913,0,0,0-1.128.683A7.114,7.114,0,0,0,0,31.749c.017,4.534-.01,9.069.021,13.6a6.622,6.622,0,0,0,1.447,3.971,6.5,6.5,0,0,0,3.394,2.336A5.47,5.47,0,0,0,6.551,52c4.568-.014,9.136.016,13.7-.021a5.786,5.786,0,0,0,4.07-1.672,5.679,5.679,0,0,0,1.506-1.769c.18.008.291-.021.353.087A7.577,7.577,0,0,0,27.771,50.4a6.005,6.005,0,0,0,2.765,1.415,8.09,8.09,0,0,0,1.85.178c4.23,0,8.46-.007,12.689.006a6.4,6.4,0,0,0,3.216-.818,6.25,6.25,0,0,0,2.2-1.8,7.782,7.782,0,0,0,1.177-2.261,5.793,5.793,0,0,0,.328-1.7c-.017-4.568.014-9.136-.022-13.7a5.814,5.814,0,0,0-1.692-4.063,10.4,10.4,0,0,0-1.317-1.235,7.139,7.139,0,0,0-2.812-1.058,7.78,7.78,0,0,0-1.852-.167c-2.2-.014-4.4-.005-6.6-.005h-.76c.4-.643.971-1.035,1.364-1.595a6.9,6.9,0,0,0,.859-2.188,2.447,2.447,0,0,0,.246-1.127,6.771,6.771,0,0,1-.013-1.114c0-4.128.024-8.257-.012-12.384A6.245,6.245,0,0,0,37.8,2.567,6.045,6.045,0,0,0,34.57.36,4.791,4.791,0,0,0,32.988.01c-4.67,0-9.34-.04-14.009.028a5.54,5.54,0,0,0-3.739,1.49,7.158,7.158,0,0,0-2.068,2.68,6.126,6.126,0,0,0-.391,1.263,13.9,13.9,0,0,0-.174,3.576c-.026,3.282-.009,6.564-.009,9.847,0,.508.011,1.015,0,1.523s.365.923.255,1.223" transform="translate(0 0.001)"/>
        <path id="Trazado_586487" data-name="Trazado 586487" d="M128.035,122.745q4.407,0,8.814,0a4.471,4.471,0,0,0,2.69-1.076,4.828,4.828,0,0,0,1.762-2.709,2.956,2.956,0,0,0,.131-.75c.006-4.829,0-9.658.011-14.487a4.192,4.192,0,0,0-.634-1.966A4.754,4.754,0,0,0,138.4,99.6a4.416,4.416,0,0,0-1.754-.416c-2.87.008-5.741,0-8.611,0-1.948.79-2.709,2.461-3.029,4.339a25.871,25.871,0,0,0-.072,5.04.825.825,0,0,0,.224.549c.662.162.776-.434.989-.79.674-1.129,1.312-2.28,1.967-3.42.9-1.562,2.127-1.575,3.083-.025a24.144,24.144,0,0,1,1.65,2.9.491.491,0,0,1,.009.394c-.152.352-.61.274-.8.57.537.577,1.16,1.06,1.734,1.6a2.259,2.259,0,0,1,1.177,1.063c.7,1.2,1.355,2.419,2.074,3.6.426.7.9,1.418.458,2.263-.492.932-1.413.911-2.309.91q-4.159-.007-8.318,0a3.172,3.172,0,0,0-1.4.157.75.75,0,0,0-.237.913,4.881,4.881,0,0,0,2.8,3.487" transform="translate(-91.07 -72.377)" fill="#fc9fc0"/>
        <path id="Trazado_586488" data-name="Trazado 586488" d="M34.954,122.667c2.871,0,5.741-.024,8.611.015a4.71,4.71,0,0,0,2.264-.66,4.8,4.8,0,0,0,2.061-2.258,4.2,4.2,0,0,0,.467-1.833q-.006-7.041,0-14.082a4.985,4.985,0,0,0-.814-2.3,5.25,5.25,0,0,0-.723-1.01,8.739,8.739,0,0,0-1.419-.98c-.341-.211-.834-.214-1.235-.432-.182-.1-.463-.017-.7-.017h-8.51A4.828,4.828,0,0,0,32,102.789a10.464,10.464,0,0,0-.019,4.382c.833.421,1.273.331,1.761-.441.471-.744.805-1.563,1.211-2.343.342-.657.759-1.238,1.584-1.241s1.229.58,1.572,1.244c1.807,3.5.87,2.825,4.654,3.446.762.125,1.492.288,1.765,1.132s-.22,1.411-.758,1.96c-2.7,2.757-2.314,1.74-1.752,5.438.112.737.163,1.435-.511,1.934a1.785,1.785,0,0,1-2.007-.062c-.759-.373-1.513-.757-2.274-1.126a1.339,1.339,0,0,0-1.358-.05c-1.149.717-2.422,1.193-3.588,1.876-.166,1.352,1.1,3.118,2.673,3.729" transform="translate(-23.167 -72.299)" fill="#fede8d"/>
        <path id="Trazado_586489" data-name="Trazado 586489" d="M82.021,29.607c2.735,0,5.471-.007,8.206.006a4.924,4.924,0,0,0,3.2-1.114c.18-.183.549-.288.664-.532.259-.551.775-.909.975-1.522a4.965,4.965,0,0,0,.358-1.573c-.009-4.694,0-9.388-.01-14.082a4.742,4.742,0,0,0-1.976-3.706A5.524,5.524,0,0,0,91.6,6.154a2.423,2.423,0,0,0-.766-.094c-2.938-.011-5.876-.007-8.814-.007a5.034,5.034,0,0,0-2.946,3.883c-.072.307-.047.609.331.731a1.857,1.857,0,0,0,1.063-.268A8.066,8.066,0,0,1,89.41,23.463a7.816,7.816,0,0,1-7.742,2.161,10.128,10.128,0,0,0-2.229-.64c-.56.189-.432.637-.309,1,.524,1.55,1.243,2.963,2.891,3.623" transform="translate(-57.645 -4.416)" fill="#9ddbad"/>
        <path id="Trazado_586490" data-name="Trazado 586490" d="M106.559,109.12c-.2.015-.2-.122-.2-.259a49.2,49.2,0,0,1,.035-4.935,5.415,5.415,0,0,1,2.518-4.377c.123-.074.3-.174.289-.378-1.62,0-3.242.029-4.861-.009a5.439,5.439,0,0,0-3.217,1.056,5.926,5.926,0,0,0-2.065,3.189,1.807,1.807,0,0,0-.01.6c0,4.625-.035,9.25.019,13.874a4.451,4.451,0,0,0,2.124,3.87,10.006,10.006,0,0,0,1.673.863,1.874,1.874,0,0,0,.766.1c1.856.014,3.713.008,5.57.008a7,7,0,0,1-2.287-2.787,3.008,3.008,0,0,1-.352-1.477c-.491-.436-1.091-.245-1.645-.268-1.963-.083-2.607-1.168-1.636-2.879s1.972-3.372,2.914-5.083c.187-.339.5-.657.367-1.11" transform="translate(-72.234 -72.356)" fill="#fb8fb3"/>
        <path id="Trazado_586491" data-name="Trazado 586491" d="M13.314,107.313c0-1.114-.011-2.228,0-3.342a5.032,5.032,0,0,1,1.426-3.456c.439-.471.941-.884,1.414-1.324-1.688,0-3.376.011-5.064,0a4.774,4.774,0,0,0-3.764,1.651,4.805,4.805,0,0,0-1.338,3.293c.034,4.625.013,9.25.013,13.875a4.783,4.783,0,0,0,1.238,3.032,5.865,5.865,0,0,0,2.659,1.65,1.813,1.813,0,0,0,.686.052c1.857.006,3.714,0,5.57,0a11.465,11.465,0,0,1-2.014-2.084,6.038,6.038,0,0,1-.625-1.571c.066-.317-.191-.412-.388-.511a1.643,1.643,0,0,1-.864-2.048c.162-.76.273-1.53.421-2.293a1.722,1.722,0,0,0-.518-1.658c-.6-.6-1.2-1.19-1.786-1.8a1.76,1.76,0,0,1-.54-1.842c.232-.733.857-.849,1.508-.994.668-.148,1.452.015,1.963-.633" transform="translate(-4.37 -72.376)" fill="#fecc6e"/>
        <path id="Trazado_586492" data-name="Trazado 586492" d="M62.709,29.608c-.262-.511-.873-.625-1.2-1.083a5.716,5.716,0,0,1-1.44-2.811c-.013-.165-.256-.219-.2-.416.028-.1.077-.18.2-.157.057-.649-.535-.788-.891-1.085a8.572,8.572,0,0,1-2.541-3.67,1.264,1.264,0,0,1,.41-1.69,4.225,4.225,0,0,0-.149-1.709,1.635,1.635,0,0,1-.207-1.879,8.214,8.214,0,0,1,2.682-3.7c.3-.222.733-.383.7-.888-.057-.023-.165-.064-.164-.067.141-.4.2-.828.323-1.239a6.815,6.815,0,0,1,2.481-3.161H57.341a4.9,4.9,0,0,0-3.784,2.11,6.552,6.552,0,0,0-.868,1.672,2.222,2.222,0,0,0-.129.753c-.006,4.828,0,9.655-.011,14.482a4.448,4.448,0,0,0,.632,1.968,4.323,4.323,0,0,0,1.989,1.941,5.113,5.113,0,0,0,2.272.634c1.755-.024,3.511-.007,5.266-.007" transform="translate(-38.333 -4.418)" fill="#7ed095"/>
        <path id="Trazado_586493" data-name="Trazado 586493" d="M91.538,101.358a6.818,6.818,0,0,1,1.685-2.042H89.841a7.628,7.628,0,0,1,1.7,2.042" transform="translate(-65.536 -72.47)" fill="#f2f4f5"/>
        <path id="Trazado_586494" data-name="Trazado 586494" d="M115.941,120.676c-.474.779-.993,1.535-1.411,2.343-.591,1.144-1.237,2.253-1.926,3.339-.267.42-.462.886-.718,1.385-.01,1.154-.01,1.154.853,2.013a9.469,9.469,0,0,0,3.2.26c3.437,0,6.874-.024,10.311.017a2.309,2.309,0,0,0,1.986-.839,1.859,1.859,0,0,1,.2-.2c.447-1.274-.312-2.129-.833-3.033-.439-.762-.862-1.534-1.318-2.284a9.16,9.16,0,0,0-1.293-1.985h-.726c-.847.208-.623.806-.424,1.316a16.358,16.358,0,0,0,1.068,1.9c.526,1,1.172,1.937,1.705,3.16-4.3.068-8.417.031-12.757.031,1.24-2.643,2.776-4.851,4.022-7.216a29.823,29.823,0,0,1,2.331-3.854,11.75,11.75,0,0,1,1.451,2.233c.264.39.33.987.979,1.009h.918c.055-.278.343-.467.289-.868a19.115,19.115,0,0,1-1.374-2.289,8.349,8.349,0,0,1-.708-1.22,1.564,1.564,0,0,0-1.046-.854c-1.2-.209-1.848.387-2.374,1.462-.691,1.412-1.593,2.721-2.4,4.075-.015.025,0,.066,0,.1" transform="translate(-81.616 -83.912)" fill="#010000"/>
        <path id="Trazado_586495" data-name="Trazado 586495" d="M140.6,129.1l-1.249-2.265c.088-.312.138-.613.437-.781a4.588,4.588,0,0,1-.678-1.218c-.272,0-.533.009-.793,0a.155.155,0,0,1-.153-.2,8.1,8.1,0,0,1-.6-.8c-.424-.732-.834-1.473-1.216-2.227a2.065,2.065,0,0,0-.554-.626c-.27.006-.373.189-.466.354a37.285,37.285,0,0,1-2.027,3.41c-.048.068-.006.2-.006.3a1.168,1.168,0,0,0,.205,1.312,7.726,7.726,0,0,0,6.124,3.407c.378.028,1.13.257.981-.658" transform="translate(-97.137 -88.275)" fill="#f6efea"/>
        <path id="Trazado_586496" data-name="Trazado 586496" d="M22.64,117.382a13.987,13.987,0,0,1-2.625.42c-1.2.42-1.329,1.286-1.2,2.377a34.989,34.989,0,0,0,3,3.214,2.165,2.165,0,0,1-.175,1.105c-.166.328.16.8-.223,1.12.089.758-.411,1.467-.221,2.046a1.767,1.767,0,0,0,1.57,1.329c.029,0,.048.108.072.166a10.191,10.191,0,0,0,3.076-1.385,6.209,6.209,0,0,0,1.051-.593c1.4.606,2.7,1.44,4.169,1.972l1.175-.444c.351-.3.331-.677.536-.906a.519.519,0,0,0,.132-.549c-.2-.471-.037-1.035-.233-1.422-.225-.445.026-.915-.2-1.235-.274-.4-.074-.781-.2-1.192l2.28-2.279a2.324,2.324,0,0,0,.795-1.217v-1c-.166-.224-.461-.37-.486-.7-.322.025-.426-.28-.556-.368a37.472,37.472,0,0,1-4.128-.656l-1.829-3.666a2.132,2.132,0,0,0-2.186-.408,3.309,3.309,0,0,0-1.108,1.474c-.3.62-.561,1.258-.877,1.868a2.207,2.207,0,0,1-.735.927Z" transform="translate(-13.696 -82.445)"/>
        <path id="Trazado_586497" data-name="Trazado 586497" d="M69.89,19.769c-.559.568-1.288.927-1.832,1.519a9.625,9.625,0,0,0-1.964,3.419,4.386,4.386,0,0,0-.073,1.237c.19.216.342.4.621.322.843.281.965-.423,1.15-.912a8.376,8.376,0,0,1,1.395-2.561A6.544,6.544,0,0,1,77.1,21.174a6.439,6.439,0,0,1,3.637,5.811A6.274,6.274,0,0,1,77.3,32.8a6.5,6.5,0,0,1-9.188-3.2c-.178-.4-.278-.832-.477-1.219-.156-.3-.273-.743-.792-.489h-.511l-.285.3a5.45,5.45,0,0,0,1.457,3.9c.305.415.513.976.994,1.186s.716.754,1.247.883a.2.2,0,0,1,.144.235,11.59,11.59,0,0,1,1.864.646,7.77,7.77,0,0,0,4.016.178,8.4,8.4,0,0,0,3.664-1.7,8.556,8.556,0,0,0,2.746-4.026,3.879,3.879,0,0,0,.308-1.6c-.038-.537-.018-1.08-.006-1.62a5.6,5.6,0,0,0-.513-2.22,8.1,8.1,0,0,0-2.434-3.438,9.191,9.191,0,0,0-3.456-1.678,10.165,10.165,0,0,0-3.263-.139,5.423,5.423,0,0,0-2.471.846.768.768,0,0,1-.455.131" transform="translate(-48.154 -13.666)"/>
        <path id="Trazado_586498" data-name="Trazado 586498" d="M67.991,31.711h.315c.4.705.527,1.52.89,2.25a8.259,8.259,0,0,0,1.877,2.347,9.4,9.4,0,0,0,2.492,1.265c.606-.059,1.149.3,1.73.22a7.322,7.322,0,0,0,3.253-.908c.015-.01,0-.064,0-.1A7.32,7.32,0,0,1,75.8,29.076a6.756,6.756,0,0,1,1.783-3.23c.3-.311.683-.564.759-1.039-.271-.38-.842-.2-1.1-.6A15.051,15.051,0,0,0,74.908,24a7.354,7.354,0,0,0-4.124,1.753A9.523,9.523,0,0,0,69.1,27.886a8.69,8.69,0,0,0-.5,1.5c-.13.389-.319.723-.811.7a.483.483,0,0,1-.2.508c.38.284.053.824.407,1.117" transform="translate(-49.3 -17.486)" fill="#eee1dc"/>
        <path id="Trazado_586499" data-name="Trazado 586499" d="M129.411,140.069v.352a5.9,5.9,0,0,1-3.033-.359,7.132,7.132,0,0,1-4.148-3.4,1.591,1.591,0,0,1-.129-.659,7.494,7.494,0,0,0-.95,1.476c-.653,1.153-1.35,2.279-2,3.431-.433.766-.877,1.527-1.3,2.3-.057.1-.008.264-.008.4.75.145,12.651.158,13.647.005a18.377,18.377,0,0,0-1.212-2.137c-.337-.452-.394-1.061-.867-1.414" transform="translate(-85.949 -99.244)" fill="#eee1dc"/>
        <path id="Trazado_586500" data-name="Trazado 586500" d="M28.657,133.754c-.422,0-.78.281-1.238.223a4.071,4.071,0,0,0-1.225.223,12.411,12.411,0,0,1-1.648.174c-.108.007-.207.15-.306.226a1.2,1.2,0,0,0,.51.669c.743.635,1.4,1.372,2.1,2.057.364.356.293.9.628,1.318-.339.261-.251.64-.24.994s-.32.657-.205,1.031c.109.355-.224.6-.209.931.016.361,0,.722,0,1.161,1.122-.534,2.14-1.011,3.151-1.5a2.364,2.364,0,0,1,1.522-.4l3.814,1.909a2.065,2.065,0,0,0-.114-1.188c-.2-.378.092-.917-.251-1.313.155-.639-.3-1.211-.2-1.844a1.6,1.6,0,0,0-.808-.372,7.518,7.518,0,0,1-4.792-3.683,1.273,1.273,0,0,0-.491-.615" transform="translate(-17.683 -97.599)" fill="#eee1dc"/>
        <path id="Trazado_586501" data-name="Trazado 586501" d="M40.565,122.763a4.122,4.122,0,0,0,1.007,1.893A7.439,7.439,0,0,0,44.3,126.8a5.157,5.157,0,0,0,2.354.638,1.591,1.591,0,0,1,.571-1.081c.887-.881,1.768-1.766,2.681-2.678-.117-.1-.248-.3-.346-.285a8.864,8.864,0,0,1-2.146-.244,4.2,4.2,0,0,1-2.373-.724c-.7-1.1-1.289-2.441-1.945-3.728-.322.043-.411.214-.516.448-.282.628-.663,1.212-.934,1.843a7.547,7.547,0,0,1-1.084,1.78" transform="translate(-29.591 -86.609)" fill="#f6efea"/>
        <path id="Trazado_586502" data-name="Trazado 586502" d="M99.218,27.087a7.47,7.47,0,0,0-2.866,7.485,7.493,7.493,0,0,0,.579,1.885,7.739,7.739,0,0,0,1.272,1.9c.225.249.472.479.7.714h.514c.468.1.592-.494,1.007-.5a7.344,7.344,0,0,0,2.39-3.66,4.566,4.566,0,0,0,.257-2.125,9.891,9.891,0,0,0-.64-2.465,5.714,5.714,0,0,0-1.341-1.884,19.087,19.087,0,0,0-1.5-1.282c-.134-.093-.256-.037-.38-.065" transform="translate(-70.172 -19.765)" fill="#f6efea"/>
      </g>
    </g>
  </g>
</svg>
