<svg xmlns="http://www.w3.org/2000/svg" xmlns:xlink="http://www.w3.org/1999/xlink" width="610" height="482" viewBox="0 0 610 482">
  <defs>
    <filter id="Polígono_8" x="174.369" y="125.253" width="247.997" height="121" filterUnits="userSpaceOnUse">
      <feOffset dy="6" input="SourceAlpha"/>
      <feGaussianBlur stdDeviation="3" result="blur"/>
      <feFlood flood-opacity="0.161"/>
      <feComposite operator="in" in2="blur"/>
      <feComposite in="SourceGraphic"/>
    </filter>
    <filter id="Polígono_9" x="174.369" y="228.253" width="247.997" height="121" filterUnits="userSpaceOnUse">
      <feOffset dy="6" input="SourceAlpha"/>
      <feGaussianBlur stdDeviation="3" result="blur-2"/>
      <feFlood flood-opacity="0.161"/>
      <feComposite operator="in" in2="blur-2"/>
      <feComposite in="SourceGraphic"/>
    </filter>
    <filter id="Polígono_10" x="195.369" y="140.256" width="206.998" height="102.5" filterUnits="userSpaceOnUse">
      <feOffset dy="3" input="SourceAlpha"/>
      <feGaussianBlur stdDeviation="3" result="blur-3"/>
      <feFlood flood-opacity="0.161"/>
      <feComposite operator="in" in2="blur-3"/>
      <feComposite in="SourceGraphic"/>
    </filter>
    <filter id="Polígono_11" x="195.369" y="224.756" width="206.998" height="102.5" filterUnits="userSpaceOnUse">
      <feOffset dy="3" input="SourceAlpha"/>
      <feGaussianBlur stdDeviation="3" result="blur-4"/>
      <feFlood flood-opacity="0.161"/>
      <feComposite operator="in" in2="blur-4"/>
      <feComposite in="SourceGraphic"/>
    </filter>
    <clipPath id="clip-path">
      <rect id="Rectángulo_39361" data-name="Rectángulo 39361" width="77.577" height="39.228" fill="none"/>
    </clipPath>
  </defs>
  <g id="Grupo_850459" data-name="Grupo 850459" transform="translate(-179.5 -4093)">
    <path id="Trazado_588631" data-name="Trazado 588631" d="M20,0H590a20,20,0,0,1,20,20V462a20,20,0,0,1-20,20H20A20,20,0,0,1,0,462V20A20,20,0,0,1,20,0Z" transform="translate(179.5 4093)" fill="#f3f9ff"/>
    <g id="Grupo_850385" data-name="Grupo 850385" transform="translate(-10.133 337)">
      <g id="Grupo_850384" data-name="Grupo 850384" transform="translate(0 -2.625)">
        <path id="Trazado_587973" data-name="Trazado 587973" d="M500.23,1291.054c-.444,0-.8-.142-.8-.317v-64.129c0-.175.36-.318.8-.318s.8.142.8.318v64.129c0,.175-.36.317-.8.317" transform="translate(122.627 2698.824)" fill="#003887"/>
        <path id="Trazado_587970" data-name="Trazado 587970" d="M477.949,1136.842a6.7,6.7,0,1,1,6.7-6.7,6.7,6.7,0,0,1-6.7,6.7" transform="translate(1781.547 3511.932) rotate(90)" fill="#5d9af0"/>
        <g id="Grupo_850381" data-name="Grupo 850381" transform="translate(107 97.879)">
          <path id="Trazado_588048" data-name="Trazado 588048" d="M500.23,1291.054c-.444,0-.8-.142-.8-.317v-64.129c0-.175.36-.318.8-.318s.8.142.8.318v64.129c0,.175-.36.317-.8.317" transform="translate(-119.784 2765.947)" fill="#003887" stroke="rgba(0,0,0,0)" stroke-width="1" stroke-dasharray="6"/>
          <path id="Trazado_587969" data-name="Trazado 587969" d="M500.23,1290.1c-.444,0-.8-.14-.8-.313V1226.6c0-.173.36-.313.8-.313s.8.14.8.313v63.187c0,.173-.36.313-.8.313" transform="translate(1607.736 3529.182) rotate(90)" fill="#003887"/>
          <path id="Trazado_587966" data-name="Trazado 587966" d="M477.949,1136.842a6.7,6.7,0,1,1,6.7-6.7,6.7,6.7,0,0,1-6.7,6.7" transform="translate(-97.539 2940.274)" fill="#5d9af0"/>
          <path id="Trazado_587967" data-name="Trazado 587967" d="M449.429,1115.026a13.41,13.41,0,1,1,13.41-13.41,13.425,13.425,0,0,1-13.41,13.41m0-25.211a11.8,11.8,0,1,0,11.8,11.8,11.814,11.814,0,0,0-11.8-11.8" transform="translate(-69.019 2968.795)" fill="#003887"/>
        </g>
        <path id="Trazado_587971" data-name="Trazado 587971" d="M449.429,1115.026a13.41,13.41,0,1,1,13.41-13.41,13.425,13.425,0,0,1-13.41,13.41m0-25.211a11.8,11.8,0,1,0,11.8,11.8,11.814,11.814,0,0,0-11.8-11.8" transform="translate(1753.026 3540.452) rotate(90)" fill="#003887"/>
        <path id="Trazado_587972" data-name="Trazado 587972" d="M500.23,1037.893c-.444,0-.8-.826-.8-1.844V994.237c0-1.019.36-1.844.8-1.844s.8.826.8,1.844v41.811c0,1.019-.36,1.844-.8,1.844" transform="translate(1631.393 3489.846) rotate(90)" fill="#003887"/>
        <g transform="matrix(1, 0, 0, 1, 189.63, 3758.63)" filter="url(#Polígono_8)">
          <path id="Polígono_8-2" data-name="Polígono 8" d="M115,0,230,103H0Z" transform="translate(183.37 128.25)" fill="#161730"/>
        </g>
        <g transform="matrix(1, 0, 0, 1, 189.63, 3758.63)" filter="url(#Polígono_9)">
          <path id="Polígono_9-2" data-name="Polígono 9" d="M115,0,230,103H0Z" transform="translate(413.37 334.25) rotate(180)" fill="#161730"/>
        </g>
        <g transform="matrix(1, 0, 0, 1, 189.63, 3758.63)" filter="url(#Polígono_10)">
          <path id="Polígono_10-2" data-name="Polígono 10" d="M94.5,0,189,84.5H0Z" transform="translate(204.37 146.26)" fill="#fff"/>
        </g>
        <g transform="matrix(1, 0, 0, 1, 189.63, 3758.63)" filter="url(#Polígono_11)">
          <path id="Polígono_11-2" data-name="Polígono 11" d="M94.5,0,189,84.5H0Z" transform="translate(393.37 315.26) rotate(180)" fill="#fff"/>
        </g>
        <text id="Si" transform="translate(672 3993.88)" fill="#12263f" font-size="16" font-family="Roboto-Regular, Roboto"><tspan x="0" y="0">Si</tspan></text>
        <text id="No" transform="translate(479 4208.744)" fill="#12263f" font-size="16" font-family="Roboto-Regular, Roboto"><tspan x="0" y="0">No</tspan></text>
        <text id="Riesgo" transform="translate(461 3995.88)" fill="#12263f" font-size="18" font-family="Roboto-Black, Roboto" font-weight="800"><tspan x="0" y="0">Riesgo</tspan></text>
        <g id="Grupo_850382" data-name="Grupo 850382" transform="translate(-22.867 6.699)">
          <circle id="Elipse_4792" data-name="Elipse 4792" cx="52.5" cy="52.5" r="52.5" transform="translate(447.5 4070.001) rotate(90)" fill="#4acfd9"/>
          <text id="_Análisis_DOFA" data-name=" Análisis DOFA" transform="translate(326.5 4056.001)" fill="#12263f" font-size="16" font-family="Roboto-Regular, Roboto"><tspan x="0" y="0" xml:space="preserve"> Análisis DOFA</tspan></text>
          <path id="Trazado_587974" data-name="Trazado 587974" d="M42.843,26.452c.43-.173.224-.369.021-.565.177-.383.515-.376.872-.374,1.862.008,3.726,0,5.683,0l.564-.754c-.034.147,0,.075,0,0,0-6,.016-12.008-.005-18.012A5.925,5.925,0,0,0,48.02,2.176a7.65,7.65,0,0,0-1.314-1.1A7,7,0,0,0,43.229.007C39.82-.005,36.411,0,33,0c-8.72,0-17.44-.012-26.16.01a6.233,6.233,0,0,0-4.56,1.861,9.444,9.444,0,0,0-1.1,1.184A6.479,6.479,0,0,0,.009,6.912Q.013,24.689,0,42.468a7.258,7.258,0,0,0,2.99,5.343,5.913,5.913,0,0,0,2.985,1.111c.517.392,1.12.225,1.686.227,3.366.014,6.733.006,10.078.006L18.1,48.8V48.22c.485-.83.051-1.239-.72-1.453a5.3,5.3,0,0,0-1.421-.091c-2.935,0-5.87.016-8.8-.008a4.511,4.511,0,0,1-4.7-3.8,9.878,9.878,0,0,1-.2-2.092q-.006-6.73,0-13.458a1.427,1.427,0,0,1,.5-1.4c1.787-.19,3.729.025,5.657-.1.983-.181,1.256-.833,1.174-1.719-.042-.465-.152-.923-.167-1.392A3.6,3.6,0,0,1,12.9,19a3.526,3.526,0,0,1,3.656,3.5,10.743,10.743,0,0,1-.14,1.51c-.158,1.328.233,1.783,1.616,1.827,1.346.043,2.692,0,4.038.017a2.536,2.536,0,0,1,1.5.261,20.9,20.9,0,0,1,.026,4.732c-4.226.491-6.887,2.482-6.942,6.94a7.412,7.412,0,0,0,1.261,3.215,4,4,0,0,0,2.446,1.743,1.261,1.261,0,0,0,.912-.789,1.425,1.425,0,0,0,.206-1A2.451,2.451,0,0,0,20.641,40a3.5,3.5,0,0,1,2.6-6.179,1.688,1.688,0,0,1,.354.023c2.16.533,2.778-.285,2.715-2.507-.05-1.739-.076-3.486.047-5.314a15.283,15.283,0,0,1,4.095-.092c.456,3.306,1.68,5.91,5.15,6.6a1.242,1.242,0,0,0,.714-1.1,1.185,1.185,0,0,0-.706-1.539,3.847,3.847,0,0,1-2.087-4.414c.26-1.595-.26-2.133-1.923-2.176-1.227-.031-2.455,0-3.682-.012a2.313,2.313,0,0,1-1.49-.3c-.082-1.206-.473-2.489.167-3.751a16.064,16.064,0,0,1,2.077-.478,6.354,6.354,0,0,0,4.7-6.164A6.372,6.372,0,0,0,28.058,6.67a4.365,4.365,0,0,1-1.675-.42,12.777,12.777,0,0,1,.055-3.7,2.349,2.349,0,0,1,1.577-.326c4.591-.006,9.183-.023,13.773.006A5.852,5.852,0,0,1,46.35,3.806a5.235,5.235,0,0,1,1.259,2.716,18.669,18.669,0,0,1,.075,3.959q.006,5.431,0,10.864a3.5,3.5,0,0,1-.183,1.621,2.3,2.3,0,0,1-1.581.286c-1.148.021-2.3-.013-3.444.016-.745.018-1.6-.066-1.944.789a2.36,2.36,0,0,0,.494,2.556,4.434,4.434,0,0,0,1.819-.16" transform="translate(365.5 4093.001)"/>
          <path id="Trazado_587975" data-name="Trazado 587975" d="M14.818,41.9c0,.351.016.7,0,1.05a5.41,5.41,0,0,0,1.832,4.4,5,5,0,0,0,2.385,1.4,10.466,10.466,0,0,0,2.46.187,5.3,5.3,0,0,0,2.281-.682,23.587,23.587,0,0,1,1.015,2.515,10.767,10.767,0,0,1,.751,2.154c.022.316.4.444.658.752a49.092,49.092,0,0,0,5.348-1.892c1.74-.659,3.5-1.263,5.261-1.892a5.29,5.29,0,0,0,3.146,2.753c.055-.325.416-.542.327-.918.676-.447.449-.89,0-1.339-.293-.294-.755-.457-.784-.957a3.548,3.548,0,0,1,1.985-.871c.8,1.231,1.5,2.636,3.084,3.166.618,0,1.046.508,1.65.58.694.082,1.338.5,2.1.313.136-.283.014-.6.057-.893.523-.843.028-1.229-.712-1.448a7.108,7.108,0,0,1-1.875-.711,3.947,3.947,0,0,1-2-2.91,4.871,4.871,0,0,0-1.775-3.059A16.8,16.8,0,0,1,39.9,41.554c-.422-.585-.659-1.218-.007-1.775.619-.529,1.2-.2,1.686.257,1.886,1.782,3.7,3.633,5.567,5.439a2.774,2.774,0,0,0,1.461,1.01,2.035,2.035,0,0,0,1.473-1.328c-.058-.716-.618-1.081-1.048-1.519a1.518,1.518,0,0,1-.564-1.46,7.842,7.842,0,0,0-.708-4.889c-.374-.941-.771-1.877-1.083-2.9,1.537.983,2.986,1.994,4.449,2.987a4.041,4.041,0,0,1,1.929,3.652c-.046,2.845,0,5.691-.018,8.536a10.879,10.879,0,0,0,.328,3.1h1.794c.217-.268.1-.589.1-.882q.014-6.014,0-12.03a4.229,4.229,0,0,0-1.2-2.9,18.514,18.514,0,0,0-3.322-2.551c-1.432-.994-2.906-1.931-4.358-2.9a5.516,5.516,0,0,0-.467-.3,3.856,3.856,0,0,1-1.165-.875,5.125,5.125,0,0,1-.459-1.206c-.651-1.452-1.091-2.98-1.736-4.433a20.337,20.337,0,0,1-.812-2.117,1.9,1.9,0,0,0-1.2-1.406L36.71,22.71A6.415,6.415,0,0,0,33.3,24.039a1.164,1.164,0,0,0-.406,1.254c.123.534.376,1.023.548,1.54a3.585,3.585,0,0,1-2.384,4.75A3.685,3.685,0,0,1,26.469,28.8c-.084-.341-.115-.693-.211-1.029a1.265,1.265,0,0,0-1.7-1.014A55.443,55.443,0,0,0,17.8,29.267a1.524,1.524,0,0,0-.735,2.1c.5,1.519,1.114,2.994,1.683,4.485.079.374.366.694.285,1.228-2.093.951-4.044,2.151-4.211,4.827" transform="translate(370.206 4099.317)"/>
          <path id="Trazado_587976" data-name="Trazado 587976" d="M31.588,30.143V29.3c1.052-.817,2.42-1.061,3.569-1.729,0-.116-.05-.283.008-.337.576-.534.465-1.223.468-1.879.227-.364.8.182.953-.359H34.73c-.034-.918-.663-1.826-.025-2.794H41.82V21.155q0-7.761-.012-15.522c0-.252.235-.626-.225-.768a1.146,1.146,0,0,0-.3,1.084A3.131,3.131,0,0,1,40.1,8.6c-4.647,4.74-10.394,7.711-16.534,10.062A17.9,17.9,0,0,1,20.4,19.728c-.41-.79.165-1.744-.468-2.458-.235-.018-.237.143-.237.3v4.581h6.746l.7.689a9.528,9.528,0,0,0-.293,3.354,4.745,4.745,0,0,0,3.036,2.836c.162.377-.1.607-.2.877a1.916,1.916,0,0,0,1.9.234" transform="translate(371.759 4094.459)" fill="#d55245"/>
          <path id="Trazado_587977" data-name="Trazado 587977" d="M19.063,42.337a.187.187,0,0,0,.236-.185,4.8,4.8,0,0,1,2.089-3.315,5.242,5.242,0,0,1,2.4-1.006c.213-.647-.511-1-.439-1.579-.957-.023-1.869-.573-2.856-.235-.109.225-.219.451-.349.716a5.4,5.4,0,0,1-3.4-3.625c-.2-.321.182-.8-.3-1.07a2.2,2.2,0,0,0-1.375.243,44.59,44.59,0,0,1-11.53,2.586,3.135,3.135,0,0,1-1.367-.081c-.129-4.778-.136-9.555-.074-14.407a40.551,40.551,0,0,1,4.544-.164c.536-.031,1.222.188,1.472-.584H1.454v1.918c0,4.746.007,9.493-.005,14.239a6.191,6.191,0,0,0,.469,2.263,4.411,4.411,0,0,0,2.04,2.419c.387.208.766.435,1.206.688h12.1l.37.356v.821Z" transform="translate(365.961 4098.884)" fill="#fea619"/>
          <path id="Trazado_587978" data-name="Trazado 587978" d="M47.514,49.76c0-4.016-.03-8.031.016-12.047a3.847,3.847,0,0,0-1.791-3.354c-1.744-1.2-3.534-2.343-5.275-3.553-.049-.034-.15.007-.254.014.308.832.617,1.654.92,2.478.312.847.679,1.673.938,2.543a4.377,4.377,0,0,1,.219,2.877,3.606,3.606,0,0,0,0,.817.454.454,0,0,1-.3.506l2.08,2.046-1.372,1.35c-.228-.019-.352-.3-.538-.48q-3.036-2.967-6.057-5.95a3.305,3.305,0,0,0-.594-.571,1.441,1.441,0,0,0-2.26,1.048,3.442,3.442,0,0,0-.007.646c.646.794,1.12,1.7,2.1,2.1.037.672.853.591,1.071,1.064a5.083,5.083,0,0,0,1.1,1.309,4.754,4.754,0,0,0,4.676,5.065l.336.33v.82h4.627c.38.212-.179.788.37.936" transform="translate(376.06 4102.229)" fill="#fdc8a2"/>
          <path id="Trazado_587979" data-name="Trazado 587979" d="M38.793,45.524c-.088-.5-.63-.483-.92-.768A8.8,8.8,0,0,1,35.857,41.8c-.878.55-1.983.637-2.9,1.356a6.158,6.158,0,0,0,1.746,1.476c.167.389-.091.617-.2.888Z" transform="translate(375.976 4105.528)" fill="#f8bb90"/>
          <path id="Trazado_587980" data-name="Trazado 587980" d="M8.049,21.251c0,.322-.254.23-.426.23-1.584.007-3.167,0-4.751,0H1.663V36.962c.783-.153,1.567.211,2.3-.252a.76.76,0,0,1,.468-.007,7.647,7.647,0,0,0,2.159-.242c.7-.074,1.39-.346,2.064-.417a16.6,16.6,0,0,0,3.487-.788,17.934,17.934,0,0,0,3.7-1.361c.166-.1.5.152.542-.239.082-.434-.087-.863.2-1.33a4.226,4.226,0,0,0,.242-1.287,4,4,0,0,1,.925-1.612,5.454,5.454,0,0,1,2.711-1.981,4.587,4.587,0,0,1,1.638-.35c.435.021.871,0,1.425,0,0-1.923,0-3.85,0-5.813H16.534l-.373-.37c-.183-.954.311-1.849.237-2.814A3.88,3.88,0,0,0,14.99,15.3a2.782,2.782,0,0,0-1.915-.821c-.232,0-.277-.276-.55-.238-.333.356-.821.195-1.169.225A6.78,6.78,0,0,0,9.509,15.7a3.549,3.549,0,0,0-.862,3.651c.134.545.028,1.054.13,1.561l-.729.344" transform="translate(366.029 4097.266)" fill="#fcb52f"/>
          <path id="Trazado_587981" data-name="Trazado 587981" d="M5.953,1.651A3.3,3.3,0,0,0,3.329,2.709c-.186.2-.382.391-.585.574A3.188,3.188,0,0,0,1.67,5.864a11.072,11.072,0,0,0-.107,2.892c-.028,2.8-.014,5.605,0,8.407,0,.378-.113.778.128,1.132a1.443,1.443,0,0,0,1.367-.005A62.657,62.657,0,0,0,22.242,8.752a2.555,2.555,0,0,0,1.214-2.459c-.129-1.543.124-3.1-.132-4.642a1.334,1.334,0,0,0-.805-.112q-7.879,0-15.76,0a1.334,1.334,0,0,0-.805.112" transform="translate(365.983 4093.459)" fill="#87b237"/>
          <path id="Trazado_587982" data-name="Trazado 587982" d="M19.917,18.3v3.04c1.344-.487,2.595-.979,3.874-1.385a16.4,16.4,0,0,0,1.535-.585c1.911-.827,3.815-1.678,5.644-2.682a43.464,43.464,0,0,0,5.26-3.308,24.552,24.552,0,0,0,2.742-2.233c.857-.863,1.734-1.708,2.6-2.555v-2.7a3.235,3.235,0,0,0-1.09-2.6,6.99,6.99,0,0,1-.586-.578A4.017,4.017,0,0,0,37.6,1.662a18.841,18.841,0,0,0-4.423-.2c-4-.03-8-.01-12-.01H20.036l-.31.3V6.673a1.555,1.555,0,0,1,1.637-.1c.277.146.7.025,1.015.025a18.243,18.243,0,0,1,2.609,1.552,17.438,17.438,0,0,1,1.58,2.566c.12.347-.159.791.228,1.163.12.114.076.464.013.678a12.6,12.6,0,0,1-.708,2.516,7.357,7.357,0,0,1-1.9,2.139,3.785,3.785,0,0,1-2.014.817c-.4.038-.675.343-1.089.283a8.389,8.389,0,0,0-1.186-.012" transform="translate(371.77 4093.429)" fill="#e7594a"/>
          <path id="Trazado_587983" data-name="Trazado 587983" d="M23.347,1.623v5.8a61.423,61.423,0,0,1-21.653,10.9V5.836c-.328,0-.233.25-.235.418-.008,1.014,0,2.027,0,3.04V22.883H6.6c-.059-.469-.322-.945.047-1.5.217-.325.083-.845.249-1.292a5.113,5.113,0,0,1,1.12-1.888A6.069,6.069,0,0,1,10.1,16.655a6.3,6.3,0,0,1,1.8-.491c.59-.039,1.252-.259,1.8.2,1.715.055,2.736,1.228,3.762,2.332a7.243,7.243,0,0,1,.858,1.588c-.054.8.478,1.617.232,2.476a.9.9,0,0,0,.1.116.193.193,0,0,0,.1.042c1.58,0,3.16,0,4.78,0v-6.4l.6-.582c.667-.224,1.212.233,1.833.2.592-.031,1.186-.006,1.772-.006,2.091-1.211,2.213-1.548,2.65-2.861a3.282,3.282,0,0,0-.206-2.646,4.022,4.022,0,0,0-5.61-1.744c-.316-.175-.708-.233-.995-.6,0-2,0-4.061-.008-6.12,0-.188.167-.5-.231-.537" transform="translate(365.96 4093.487)" fill="#7fa734"/>
          <path id="Trazado_587984" data-name="Trazado 587984" d="M16.363,36.007c.49.13.983.251,1.468.4a1.6,1.6,0,0,0,1.388-.161,34.649,34.649,0,0,1-1.982-5.655,3.518,3.518,0,0,1,1.422-.928c1.563-.5,3.063-1.19,4.62-1.716a5.237,5.237,0,0,1,2.248-.594l.614.607c-.232.671.248,1.292.212,1.973-.008.147.117.187.175.281a4.106,4.106,0,0,0,5.205,2.03,5.184,5.184,0,0,0,2.289-2.677c.418-1.422-.221-2.482-.681-3.655-.026-.066-.057-.133-.084-.2l-.415-.22c-.262-.058-.281.174-.439.194-.271-.376-.692-.148-1.049-.208v.816c-1.191.183-2.774-.85-3.826-2.277a7.047,7.047,0,0,1-1.191-4.346H21.385v7.554c-.212.159-.459.343-.859.641-.415.156-.95-.344-1.579-.292-.586.049-1.181.012-1.72.012-1.531.816-2.744,1.752-2.791,3.656a3.965,3.965,0,0,0,2.408,3.835l-.481.934" transform="translate(370.088 4098.895)" fill="#f7f9fa"/>
          <path id="Trazado_587985" data-name="Trazado 587985" d="M4.884,1.688h17.37c0-.322-.254-.229-.426-.23-.99-.008-1.981,0-2.97,0-4.437,0-8.874,0-13.31.012-.217,0-.581-.234-.664.222" transform="translate(367.052 4093.422)" fill="#7fa734"/>
          <path id="Trazado_587986" data-name="Trazado 587986" d="M42.383,30.818c0-.195.078-.439-.013-.576a14.823,14.823,0,0,1-.731-1.807c-.727-1.465-1.053-3.075-1.821-4.524a5.188,5.188,0,0,1-.362-.986l-4.412,1.91c-.062.233.066.442.141.691a5.824,5.824,0,0,1-1.439,6.189,5.149,5.149,0,0,1-2.456,1.524,5.86,5.86,0,0,1-1,.144c-.434.032-.871,0-1.307.009a4.382,4.382,0,0,1-3.341-1.376,7.4,7.4,0,0,1-1.107-1.183,3.387,3.387,0,0,1-.723-1.7c0-.123-.166-.243-.277-.392L19.111,30.4c-.232.545.1,1.061.293,1.544.47,1.174.966,2.335,1.33,3.549a3,3,0,0,0,.233.487,3.4,3.4,0,0,1,.445,2.23c-.669.76-1.562.53-2.395.563-2.3,1.227-2.753,2.154-2.551,5.053.312.062.069.559.456.564.389.344.829.175,1.243.091,7.463-1.524,14.382-4.228,20.295-9.1a27.2,27.2,0,0,0,3.586-3.72,1.261,1.261,0,0,0,.337-.85" transform="translate(370.72 4099.871)" fill="#4397d0"/>
          <path id="Trazado_587987" data-name="Trazado 587987" d="M42.266,29a35.155,35.155,0,0,1-3.907,4.169,37.7,37.7,0,0,1-4.652,3.317,28.171,28.171,0,0,1-2.876,1.626,47.948,47.948,0,0,1-6.5,2.6c-.95.272-1.875.637-2.836.869s-1.932.5-2.9.706a5.918,5.918,0,0,1-1.786.294c0,.078-.032.175,0,.23a3.845,3.845,0,0,0,5.039,1.489,3.592,3.592,0,0,0,1.431-.947c.509-.214.692.221,1.057.156.771,1.745,1.468,3.526,2.11,5.442,1.6-.457,3.138-1.124,4.71-1.7s3.154-1.167,4.728-1.758,3.164-1.144,4.8-1.781c-1.224-1.2-2.344-2.352-3.519-3.443a2.885,2.885,0,0,1-.788-2.12,3.666,3.666,0,0,1,.658-1.929,2.764,2.764,0,0,1,1.593-1.187c.067-.021.113-.105.19-.181.412,0,.849.027,1.28-.005a2.834,2.834,0,0,1,2.238.9c1.052,1.006,2.078,2.035,3.194,3.133a4.481,4.481,0,0,0-.133-1.862c-.65-1.84-1.355-3.659-2.078-5.472-.322-.806-.565-1.641-.854-2.46-.016-.044-.129-.057-.2-.084" transform="translate(370.837 4101.69)" fill="#3e8ec8"/>
          <rect id="Rectángulo_39360" data-name="Rectángulo 39360" width="60" height="60" transform="translate(365.5 4093.001)" fill="none"/>
          <circle id="Elipse_4796" data-name="Elipse 4796" cx="16.5" cy="16.5" r="16.5" transform="translate(332.5 4066.001)" fill="#c7ee45"/>
          <circle id="Elipse_4797" data-name="Elipse 4797" cx="12.5" cy="12.5" r="12.5" transform="translate(336.5 4070.001)" fill="#9fbe37"/>
          <text id="_2" data-name="2" transform="translate(344.5 4090.001)" fill="#12263f" font-size="18" font-family="Roboto-Black, Roboto" font-weight="800"><tspan x="0" y="0">2</tspan></text>
        </g>
        <g id="Grupo_850383" data-name="Grupo 850383" transform="translate(25 -70.992)">
          <text id="Análisis_Pestel" data-name="Análisis Pestel" transform="translate(537 3873.618)" fill="#12263f" font-size="16" font-family="Roboto-Regular, Roboto"><tspan x="0" y="0">Análisis Pestel</tspan></text>
          <circle id="Elipse_4791" data-name="Elipse 4791" cx="52.5" cy="52.5" r="52.5" transform="translate(547 3995.618) rotate(-90)" fill="#4acfd9"/>
          <g id="Grupo_850243" data-name="Grupo 850243" transform="translate(561 3923.618)" clip-path="url(#clip-path)">
            <path id="Trazado_587988" data-name="Trazado 587988" d="M.971,38.907c5.914.567,12,.229,17.956.143l.659-.712a2.705,2.705,0,0,0,2.584.813q7.087,0,14.175,0a2.276,2.276,0,0,0,2.749-2.815q0-7.448,0-14.9a1.713,1.713,0,0,0-.5-1.5.464.464,0,0,1-.273-.348c.355-.482.852-.866.772-1.54.017-5.354-.019-10.708.012-16.06A2.353,2.353,0,0,0,38.109.224c-5.4-.47-11.025-.032-16.5-.175A1.9,1.9,0,0,0,20.287.3L20.224.152l-.682.691A2.7,2.7,0,0,0,16.979.049Q9.891.046,2.8.048A2.525,2.525,0,0,0,.239,1.068C-.267,6.361.214,11.8.054,17.139a2.485,2.485,0,0,0,.8,2.406c-.116.332-.442.485-.644.772-.034.135.084.353-.157.421,0,5.38.011,10.733-.013,16.087a2.339,2.339,0,0,0,.929,2.082" transform="translate(0 0)"/>
            <path id="Trazado_587989" data-name="Trazado 587989" d="M41.779,24.614q-7.934,0-15.867,0a1.226,1.226,0,0,0-1.324,1.33c-.012,5.323,0,10.647,0,15.97a1.2,1.2,0,0,0,1.329,1.325q7.934,0,15.867,0c1.4-.814.467-5.584.721-7.259-.275-1.984.717-10.915-.721-11.362" transform="translate(-4.699 -4.704)" fill="#8752a7"/>
            <path id="Trazado_587990" data-name="Trazado 587990" d="M2.386,43.237q7.934,0,15.867,0a1.234,1.234,0,0,0,1.242-.744,1.2,1.2,0,0,0,.083-.585c.008-2.4.006-4.806.006-7.21q0-4.38,0-8.76a1.2,1.2,0,0,0-1.329-1.325q-7.934,0-15.867,0c-.811.556-.738,1.355-.6,2.173a3.473,3.473,0,0,1-.049,2.63,3.465,3.465,0,0,0-.074.846q0,5.605,0,11.211c0,.678.024,1.36.717,1.761" transform="translate(-0.318 -4.706)" fill="#fbc14c"/>
            <path id="Trazado_587991" data-name="Trazado 587991" d="M41.774.825q-7.934,0-15.867,0a1.234,1.234,0,0,0-1.242.744c-.246,5.488-.009,11.043-.087,16.554a1.2,1.2,0,0,0,1.329,1.325q7.934,0,15.867,0c1.4-.782.469-5.671.721-7.336-.273-1.972.714-10.843-.721-11.285" transform="translate(-4.693 -0.158)" fill="#fe4396"/>
            <path id="Trazado_587992" data-name="Trazado 587992" d="M2.386,19.448q7.934,0,15.867,0a1.235,1.235,0,0,0,1.242-.745,1.2,1.2,0,0,0,.083-.585c.008-2.377.006-4.754.006-7.132q0-4.419,0-8.837A1.2,1.2,0,0,0,18.253.828q-7.934,0-15.867,0a1.634,1.634,0,0,0-.714,1.608c-.018,1.91-.006,3.819-.007,5.728,0,3.174-.006,6.348,0,9.522,0,.679.023,1.362.717,1.763" transform="translate(-0.318 -0.158)" fill="#526fa9"/>
            <path id="Trazado_587993" data-name="Trazado 587993" d="M45.844,24.613a2.56,2.56,0,0,1,.465,1.824V41.41a2.56,2.56,0,0,1-.465,1.824A1.222,1.222,0,0,0,47.233,41.9q.012-3.91.006-7.82,0-4.027,0-8.053a1.248,1.248,0,0,0-1.4-1.413" transform="translate(-8.763 -4.702)" fill="#6a3489"/>
            <path id="Trazado_587994" data-name="Trazado 587994" d="M2.227,19.447a2.56,2.56,0,0,1-.465-1.824V2.65A2.56,2.56,0,0,1,2.227.826a1.212,1.212,0,0,0-1.312.749,1.228,1.228,0,0,0-.077.586C.83,4.742.832,7.323.832,9.9q0,4.064,0,8.13a1.31,1.31,0,0,0,.316,1.034,1.255,1.255,0,0,0,1.081.379" transform="translate(-0.158 -0.157)" fill="#708cc7"/>
            <path id="Trazado_587995" data-name="Trazado 587995" d="M45.844.823a2.563,2.563,0,0,1,.465,1.825V17.621a2.559,2.559,0,0,1-.465,1.823,1.221,1.221,0,0,0,1.389-1.335c.008-2.581.006-5.162.006-7.743q0-4.064,0-8.13a1.249,1.249,0,0,0-1.4-1.414" transform="translate(-8.763 -0.155)" fill="#e02579"/>
            <path id="Trazado_587996" data-name="Trazado 587996" d="M2.227,43.236a3.3,3.3,0,0,1-.479-1.819c.028-4.049.014-8.1.014-12.147a8.292,8.292,0,0,1,0-2.482,2.6,2.6,0,0,0,0-.381,2.635,2.635,0,0,1,.468-1.792,1.212,1.212,0,0,0-1.312.749,1.228,1.228,0,0,0-.077.586C.83,28.531.832,31.112.832,33.693q0,4.064,0,8.13a1.31,1.31,0,0,0,.316,1.034,1.255,1.255,0,0,0,1.081.379" transform="translate(-0.158 -4.704)" fill="#fbdf6a"/>
            <path id="Trazado_587997" data-name="Trazado 587997" d="M24.649,24.11l-.695-.425c-.105.024-.164.279-.358.367.077.282.282.391.451.564.256-.077.366-.3.6-.506" transform="translate(-4.51 -4.528)" fill="#e0d2e8"/>
            <path id="Trazado_587998" data-name="Trazado 587998" d="M32.98,31.832C27.4,33.855,29.26,42.3,35.066,42.027c5.411-.258,7.011-7.94,1.8-10.111a1.287,1.287,0,0,0-1.551-1.341,1.251,1.251,0,0,1,.588-1.131c.694.338,1.038,2.466,1.729.852.267-.891,1.149-.871,1.691-1.5a2.8,2.8,0,0,0-1.334-.891,3.013,3.013,0,0,0-.919-1.355c-.848,1.184-.648,1.295-2.046,2.052-.157.283.185.46.1.81a1.58,1.58,0,0,0-.46,1.1c-.937.13-1.687-.046-1.689,1.315" transform="translate(-5.663 -5.075)" fill="#690689"/>
            <path id="Trazado_587999" data-name="Trazado 587999" d="M13.286,36.345A5.446,5.446,0,0,0,15.9,33.56a5.237,5.237,0,0,0,.258-2.7,6.1,6.1,0,0,0-1.179-2.533A5.119,5.119,0,0,0,13,26.948a4.486,4.486,0,0,0-1.921-.373,4.47,4.47,0,0,0-1.906.416,5.619,5.619,0,0,0-1.8,1.235,5.809,5.809,0,0,0-1.069,1.8,4.947,4.947,0,0,0,.105,3.661,5.491,5.491,0,0,0,2.539,2.667c0,1.1.021,2.2-.007,3.308a2.319,2.319,0,0,0,1.26,2.181c.441-.037.857.475,1.315.063a1.347,1.347,0,0,0,1.166-.554,2.061,2.061,0,0,0,.6-1.457c.022-1.163.007-2.326.007-3.548" transform="translate(-1.147 -5.08)" fill="#690588"/>
            <path id="Trazado_588000" data-name="Trazado 588000" d="M1.911,27.3c-.156-.008-.188.154-.3.216v2.051c.114.061.146.223.3.216s.188-.154.3-.216V27.518c-.113-.061-.145-.224-.3-.216" transform="translate(-0.308 -5.219)" fill="#6a0788"/>
            <path id="Trazado_588001" data-name="Trazado 588001" d="M40.436,12.14l.536-.537c-.049-.345.116-.751-.152-1.142.472-.727.751-1.619-.243-2.082A1.264,1.264,0,0,0,40.6,6.9c-.1-.235-.464-.184-.561-.455.25-.624.26-.83-.544-1.6-2.153,0-4.318.011-6.484-.007a1.515,1.515,0,0,0-1.423.924h-.638a1.777,1.777,0,0,0-.605-.912h-2.3l-.4.379v6.2c.554.794,1.568.508,2.389.532.493-.122.674-.556.922-.909h.481c.394.358.592,1.107,1.239,1.1.053-.011.136.14.193.2q.336,2,.669,3.992l.651.587c2.477.436,1.218-3.132,1.512-4.64,1.619-.116,3.161.254,4.732-.162" transform="translate(-5.285 -0.927)" fill="#690689"/>
            <path id="Trazado_588002" data-name="Trazado 588002" d="M5.818,7.373a2.233,2.233,0,0,0-.855.573,1.068,1.068,0,0,0-.3.807c.007.9-.032,1.811.013,2.714.043.853.688,2.2,1.721,2.3.138.014.223.194.388.177.055.235.274.417.217.686a2.617,2.617,0,0,0,1.216.883v2.511a1.44,1.44,0,0,0,.943.241c1.781-.008,3.561,0,5.342,0l.226-.226V15.53a3.873,3.873,0,0,0,1.05-.871,4.939,4.939,0,0,0,.195-1.976c0-2.378-.012-4.757.011-7.135a1.66,1.66,0,0,0-.6-1.461,2.427,2.427,0,0,1-.22-.218,2.358,2.358,0,0,0-1.409.153,1.667,1.667,0,0,0-2.116-.514l-.607-.628c-.3.114-.468-.148-.721-.135-.221.011-.383.238-.62.167l-.608.611a3.015,3.015,0,0,0-1.389-.161c-.05.05-.08.1-.124.121a1.087,1.087,0,0,0-.734,1.158c.006.9,0,1.8,0,2.732Z" transform="translate(-0.889 -0.525)" fill="#690589"/>
            <path id="Trazado_588003" data-name="Trazado 588003" d="M39.482,39.422c1.451-5.83-6.985-8.527-8.915-2.711-1.4,5.96,6.548,8.493,8.915,2.711" transform="translate(-5.812 -6.398)" fill="#f3eeec"/>
            <path id="Trazado_588004" data-name="Trazado 588004" d="M39.8,29.018a2.828,2.828,0,0,1-1.286-1.33c-.011.855-.656.955-1.139,1.321a1.5,1.5,0,0,1,1.155,1.161c.142-.1.276-.162.276-.336,0-.155.3-.176.124-.385.38-.012.471-.425.87-.43" transform="translate(-7.144 -5.293)" fill="#f7bc4d"/>
            <path id="Trazado_588005" data-name="Trazado 588005" d="M35.51,32.592h1.524c.01-.108.016-.177.021-.237a4.576,4.576,0,0,0-2.32.082c.229.2.546-.045.775.155" transform="translate(-6.64 -6.164)" fill="#eee5e8"/>
            <path id="Trazado_588006" data-name="Trazado 588006" d="M35.474,32.633c-.044-.309-.548-.1-.775-.155-.2.011-.163.135-.113.332a1.489,1.489,0,0,1,.888-.177" transform="translate(-6.604 -6.205)" fill="#f3eeec"/>
            <path id="Trazado_588007" data-name="Trazado 588007" d="M12.785,36.378a1.434,1.434,0,0,1,.731-.7,4.248,4.248,0,0,0,2.1-2.828,5.365,5.365,0,0,0,.138-1.179,11.727,11.727,0,0,0-.31-1.5,5.355,5.355,0,0,0-1.36-1.838,5.483,5.483,0,0,0-1.648-.857c-.554.047-1.1-.441-1.648-.028A3.665,3.665,0,0,0,8.015,28.78,4.374,4.374,0,0,0,6.9,30.953a3.3,3.3,0,0,0-.128,1.024,4.961,4.961,0,0,0,.916,2.57,4.283,4.283,0,0,0,1.564,1.274c.26.132.286.385.455.57V37.2c1.015.074,2.032,0,3.074.04Z" transform="translate(-1.294 -5.216)" fill="#f3eeec"/>
            <path id="Trazado_588008" data-name="Trazado 588008" d="M13.493,42.831v-.725H10.444a2.132,2.132,0,0,0-.029.725Z" transform="translate(-1.988 -8.049)" fill="#526ea9"/>
            <path id="Trazado_588009" data-name="Trazado 588009" d="M10.428,40.378v.727h3.048a2.175,2.175,0,0,0,.028-.727Z" transform="translate(-1.993 -7.719)" fill="#526ca9"/>
            <path id="Trazado_588010" data-name="Trazado 588010" d="M13.434,43.837H10.81c.093.476.122.418,1.2.9a2.343,2.343,0,0,0,1.425-.9" transform="translate(-2.066 -8.38)" fill="#526ca9"/>
            <path id="Trazado_588011" data-name="Trazado 588011" d="M38.6,10.77c-.269-.233-.339-.329-.212-.63h2.431c.683-.336.757-.382.441-1.077H38.6c-.219-.183-.366-.35-.216-.63h1.964c.463-.178.938-.6.4-1.077H38.6c-.22-.182-.366-.35-.216-.63h1.344c.707-.348.738-.382.437-1.1-2.054,0-4.115,0-6.169,0-.868-.058-.814.268-1.334.941H31.7v3.993h.924c.412.268.268.784.671,1.081.236-.067.449.239.761.193.438.683.29,1.623.526,2.4.252.732.011,1.593.523,2.216.272.066.539.121.764-.209-.048-5.976-.65-4.122,4.9-4.4.177-.3.617-.7.149-1.059Z" transform="translate(-6.059 -1.073)" fill="#f3eeec"/>
            <path id="Trazado_588012" data-name="Trazado 588012" d="M28.64,11.509h1.532c.319-.15.254-.4.254-.625q0-2.51,0-5.028L30.2,5.643h-1.79V8.112c0,.953.006,1.906,0,2.858a.523.523,0,0,0,.231.538" transform="translate(-5.43 -1.079)" fill="#f2edeb"/>
            <path id="Trazado_588013" data-name="Trazado 588013" d="M6.976,11.142c-.009-.171.171-.19.207-.32.838,0,1.662-.014,2.486.006a1.243,1.243,0,0,0,1.046-.417c-.472-.07-.939-.114-1.221-.62a1.573,1.573,0,0,1-1.354.573,1.965,1.965,0,0,1-1.174-1.05,2.064,2.064,0,0,0-1.327.135,1.42,1.42,0,0,0-.21,1c0,.413,0,.827,0,1.24A4.453,4.453,0,0,0,5.647,13.6a3.532,3.532,0,0,0,1.184.943h.555c.056.062.184.142.182.216A1.632,1.632,0,0,0,8.3,16.093a.825.825,0,0,1,.666.216,13.559,13.559,0,0,0,.149,2.565H14.23v-2.48c.213-.39.626-.238.916-.587a1.325,1.325,0,0,1,.335-.387V10.255c-.265-.2-.431.057-.634.1-.243.057-.427-.162-.632-.145-.293.025-.338-.3-.638-.332a1.241,1.241,0,0,1-1.224.459l-.813-.427c-.281.128-.225.4-.222.645-.082.184-.349.244-.313.5-.211.164-.507.174-.718.411H8.8a13,13,0,0,1,.579,1.19,6.973,6.973,0,0,1,.055,1.163l-.222.415c-.215.007-.254-.148-.365-.218a5.3,5.3,0,0,0-.152-1.4,1.526,1.526,0,0,0-1.351-1.168.4.4,0,0,1-.369-.3" transform="translate(-1.037 -1.774)" fill="#f3eeec"/>
            <path id="Trazado_588014" data-name="Trazado 588014" d="M10.793,8.237a1.437,1.437,0,0,0,.7.409,1.191,1.191,0,0,0,.688-.393V3.892c-.163-.218-.425-.248-.619-.383a1.685,1.685,0,0,0-.766.567Z" transform="translate(-2.063 -0.671)" fill="#f3edec"/>
            <path id="Trazado_588015" data-name="Trazado 588015" d="M9.11,8.787a1.439,1.439,0,0,0,.561-1.249c-.037-.9-.01-1.809-.01-2.672l-.327-.552H8.472l-.358.359V8.249l.564.538Z" transform="translate(-1.551 -0.825)" fill="#f2eceb"/>
            <path id="Trazado_588016" data-name="Trazado 588016" d="M14.344,4.283h-.68a1.332,1.332,0,0,0-.375,1c-.023.771.011,1.543-.016,2.313-.011.314.222.543.188.815a1.524,1.524,0,0,0,.709.4c.149.074.214-.264.417-.169.073-.238.258-.407.25-.677-.021-.667-.007-1.336-.007-2v-1.3l-.486-.378" transform="translate(-2.537 -0.819)" fill="#f1ebeb"/>
            <path id="Trazado_588017" data-name="Trazado 588017" d="M16.617,8.888h.347l.549-.666c0-.705-.011-1.556,0-2.406a1.182,1.182,0,0,0-.366-.936,1.3,1.3,0,0,0-.993.166,1.438,1.438,0,0,0-.2.927c.01.776,0,1.551,0,2.316l.654.6" transform="translate(-3.051 -0.926)" fill="#f2eceb"/>
            <path id="Trazado_588018" data-name="Trazado 588018" d="M48.483,38.907c5.914.567,12,.229,17.956.143l.659-.712a2.705,2.705,0,0,0,2.584.813q7.087,0,14.175,0a2.276,2.276,0,0,0,2.749-2.815q0-7.448,0-14.9a1.713,1.713,0,0,0-.5-1.5.464.464,0,0,1-.273-.348c.355-.482.852-.866.772-1.54.017-5.354-.019-10.708.012-16.06A2.353,2.353,0,0,0,85.621.224c-5.4-.47-11.025-.032-16.5-.175A1.9,1.9,0,0,0,67.8.3c-.021-.049-.042-.1-.062-.148l-.682.691A2.7,2.7,0,0,0,64.491.049q-7.088,0-14.175,0a2.525,2.525,0,0,0-2.566,1.02c-.506,5.292-.025,10.729-.184,16.071a2.485,2.485,0,0,0,.8,2.406c-.116.332-.442.485-.644.772-.034.135.084.353-.157.421,0,5.38.011,10.733-.013,16.087a2.339,2.339,0,0,0,.929,2.082" transform="translate(-9.082 0)"/>
            <path id="Trazado_588019" data-name="Trazado 588019" d="M89.291,24.614q-7.934,0-15.867,0A1.226,1.226,0,0,0,72.1,25.94c-.012,5.323,0,10.647,0,15.97a1.2,1.2,0,0,0,1.329,1.325q7.934,0,15.867,0c1.4-.814.467-5.584.721-7.259-.275-1.984.717-10.915-.721-11.362" transform="translate(-13.781 -4.704)" fill="#8752a7"/>
            <path id="Trazado_588020" data-name="Trazado 588020" d="M49.9,43.237q7.934,0,15.867,0a1.234,1.234,0,0,0,1.242-.744,1.2,1.2,0,0,0,.082-.585c.008-2.4.006-4.806.006-7.21q0-4.38,0-8.76a1.2,1.2,0,0,0-1.329-1.325q-7.934,0-15.867,0c-.811.556-.738,1.355-.6,2.173a3.473,3.473,0,0,1-.049,2.63,3.465,3.465,0,0,0-.074.846q0,5.605,0,11.211c0,.678.024,1.36.717,1.761" transform="translate(-9.4 -4.706)" fill="#fbc14c"/>
            <path id="Trazado_588021" data-name="Trazado 588021" d="M89.286.825q-7.934,0-15.867,0a1.234,1.234,0,0,0-1.242.744c-.246,5.488-.009,11.043-.087,16.554a1.2,1.2,0,0,0,1.329,1.325q7.934,0,15.867,0c1.4-.782.469-5.671.721-7.336-.273-1.972.714-10.843-.721-11.285" transform="translate(-13.775 -0.158)" fill="#fe4396"/>
            <path id="Trazado_588022" data-name="Trazado 588022" d="M49.9,19.448q7.934,0,15.867,0a1.235,1.235,0,0,0,1.242-.745,1.2,1.2,0,0,0,.083-.585c.008-2.377.006-4.754.006-7.132q0-4.419,0-8.837A1.2,1.2,0,0,0,65.765.828q-7.934,0-15.867,0a1.634,1.634,0,0,0-.714,1.608c-.018,1.91-.006,3.819-.007,5.728,0,3.174-.006,6.348,0,9.522,0,.679.023,1.362.717,1.763" transform="translate(-9.4 -0.158)" fill="#526fa9"/>
            <path id="Trazado_588023" data-name="Trazado 588023" d="M93.356,24.613a2.56,2.56,0,0,1,.465,1.824V41.41a2.56,2.56,0,0,1-.465,1.824A1.222,1.222,0,0,0,94.745,41.9q.012-3.91.006-7.82,0-4.027,0-8.053a1.248,1.248,0,0,0-1.4-1.413" transform="translate(-17.845 -4.702)" fill="#6a3489"/>
            <path id="Trazado_588024" data-name="Trazado 588024" d="M49.739,19.447a2.56,2.56,0,0,1-.465-1.824V2.65A2.56,2.56,0,0,1,49.739.826a1.212,1.212,0,0,0-1.312.749,1.228,1.228,0,0,0-.077.586c-.008,2.581-.006,5.162-.006,7.743q0,4.064,0,8.13a1.31,1.31,0,0,0,.316,1.034,1.255,1.255,0,0,0,1.081.379" transform="translate(-9.24 -0.157)" fill="#708cc7"/>
            <path id="Trazado_588025" data-name="Trazado 588025" d="M93.356.823a2.563,2.563,0,0,1,.465,1.825V17.621a2.559,2.559,0,0,1-.465,1.823,1.221,1.221,0,0,0,1.389-1.335c.008-2.581.006-5.162.006-7.743q0-4.064,0-8.13a1.249,1.249,0,0,0-1.4-1.414" transform="translate(-17.845 -0.155)" fill="#e02579"/>
            <path id="Trazado_588026" data-name="Trazado 588026" d="M49.739,43.236a3.3,3.3,0,0,1-.479-1.819c.028-4.049.014-8.1.014-12.147a8.292,8.292,0,0,1,0-2.482,2.6,2.6,0,0,0,0-.381,2.635,2.635,0,0,1,.468-1.792,1.212,1.212,0,0,0-1.312.749,1.228,1.228,0,0,0-.077.586c-.008,2.581-.006,5.162-.006,7.743q0,4.064,0,8.13a1.31,1.31,0,0,0,.316,1.034,1.255,1.255,0,0,0,1.081.379" transform="translate(-9.24 -4.704)" fill="#fbdf6a"/>
            <path id="Trazado_588027" data-name="Trazado 588027" d="M72.161,24.11l-.695-.425c-.105.024-.164.279-.358.367.077.282.282.391.451.564.256-.077.366-.3.6-.506" transform="translate(-13.592 -4.528)" fill="#e0d2e8"/>
            <path id="Trazado_588028" data-name="Trazado 588028" d="M49.423,27.3c-.156-.008-.188.154-.3.216v2.051c.113.061.145.223.3.216s.188-.154.3-.216V27.518c-.114-.061-.146-.224-.3-.216" transform="translate(-9.39 -5.219)" fill="#6a0788"/>
            <path id="Trazado_588029" data-name="Trazado 588029" d="M80.492,7.507C74.91,9.53,76.772,17.975,82.578,17.7c5.411-.258,7.011-7.94,1.8-10.111a1.287,1.287,0,0,0-1.551-1.341,1.251,1.251,0,0,1,.588-1.131c.694.338,1.038,2.466,1.729.852.267-.891,1.149-.871,1.691-1.5a2.8,2.8,0,0,0-1.334-.891,3.013,3.013,0,0,0-.919-1.355c-.848,1.184-.648,1.295-2.046,2.052-.157.283.185.46.1.81a1.58,1.58,0,0,0-.46,1.1c-.937.13-1.687-.046-1.689,1.315" transform="translate(-14.745 -0.426)" fill="#690689"/>
            <path id="Trazado_588030" data-name="Trazado 588030" d="M86.994,15.1c1.451-5.83-6.985-8.527-8.915-2.711-1.4,5.96,6.548,8.493,8.915,2.711" transform="translate(-14.894 -1.749)" fill="#f3eeec"/>
            <path id="Trazado_588031" data-name="Trazado 588031" d="M87.309,4.692a2.828,2.828,0,0,1-1.286-1.33c-.011.855-.656.955-1.139,1.321a1.5,1.5,0,0,1,1.155,1.162c.142-.1.276-.163.276-.337,0-.155.3-.176.124-.385.38-.012.471-.424.87-.43" transform="translate(-16.226 -0.643)" fill="#f7bc4d"/>
            <path id="Trazado_588032" data-name="Trazado 588032" d="M83.022,8.267h1.524c.01-.108.016-.176.021-.236a4.576,4.576,0,0,0-2.32.082c.229.2.546-.045.775.154" transform="translate(-15.722 -1.515)" fill="#eee5e8"/>
            <path id="Trazado_588033" data-name="Trazado 588033" d="M82.986,8.307c-.044-.309-.548-.095-.775-.154-.2.011-.163.135-.113.332a1.49,1.49,0,0,1,.888-.178" transform="translate(-15.686 -1.555)" fill="#f3eeec"/>
            <path id="Trazado_588034" data-name="Trazado 588034" d="M61.308,13.1a5.445,5.445,0,0,0,2.61-2.784,5.227,5.227,0,0,0,.257-2.7A6.077,6.077,0,0,0,63,5.087,5.107,5.107,0,0,0,61.021,3.7a4.839,4.839,0,0,0-3.827.043,5.628,5.628,0,0,0-1.8,1.235,5.824,5.824,0,0,0-1.069,1.8,4.944,4.944,0,0,0,.106,3.661,5.489,5.489,0,0,0,2.538,2.667c0,1.1.022,2.2-.006,3.308A2.32,2.32,0,0,0,58.223,18.6c.442-.037.857.475,1.316.063A1.349,1.349,0,0,0,60.7,18.1a2.061,2.061,0,0,0,.6-1.457c.022-1.163.006-2.326.006-3.548" transform="translate(-10.327 -0.636)" fill="#690588"/>
            <path id="Trazado_588035" data-name="Trazado 588035" d="M60.808,13.132a1.433,1.433,0,0,1,.731-.7,4.248,4.248,0,0,0,2.1-2.828,5.378,5.378,0,0,0,.138-1.18,11.727,11.727,0,0,0-.31-1.5,5.37,5.37,0,0,0-1.36-1.838,5.462,5.462,0,0,0-1.648-.856c-.554.046-1.1-.442-1.648-.028a3.665,3.665,0,0,0-2.774,1.326,4.371,4.371,0,0,0-1.111,2.173A3.3,3.3,0,0,0,54.8,8.732a4.964,4.964,0,0,0,.916,2.571,4.273,4.273,0,0,0,1.564,1.273c.26.133.286.386.455.571v.809c1.015.074,2.032,0,3.074.04Z" transform="translate(-10.473 -0.773)" fill="#f3eeec"/>
            <path id="Trazado_588036" data-name="Trazado 588036" d="M61.516,19.586v-.725H58.467a2.132,2.132,0,0,0-.029.725Z" transform="translate(-11.167 -3.606)" fill="#526ea9"/>
            <path id="Trazado_588037" data-name="Trazado 588037" d="M58.45,17.133v.727H61.5a2.175,2.175,0,0,0,.028-.727Z" transform="translate(-11.173 -3.275)" fill="#526ca9"/>
            <path id="Trazado_588038" data-name="Trazado 588038" d="M61.457,20.592H58.833c.093.476.122.418,1.2.9a2.343,2.343,0,0,0,1.425-.9" transform="translate(-11.246 -3.936)" fill="#526ca9"/>
            <path id="Trazado_588039" data-name="Trazado 588039" d="M88.2,37.684l.536-.537c-.049-.345.116-.751-.152-1.142.472-.727.751-1.619-.243-2.082a1.264,1.264,0,0,0,.028-1.475c-.1-.235-.464-.184-.561-.455.25-.624.26-.83-.544-1.6-2.153,0-4.318.011-6.484-.007a1.515,1.515,0,0,0-1.423.924h-.638a1.777,1.777,0,0,0-.605-.912h-2.3l-.4.379v6.2c.554.794,1.568.508,2.389.532.493-.122.674-.556.922-.909h.481c.394.358.592,1.107,1.239,1.1.053-.011.136.14.193.2q.336,2,.669,3.992l.651.587c2.477.436,1.218-3.132,1.512-4.64,1.618-.116,3.161.255,4.732-.162" transform="translate(-14.416 -5.81)" fill="#690689"/>
            <path id="Trazado_588040" data-name="Trazado 588040" d="M86.364,36.314c-.269-.233-.339-.329-.212-.63h2.431c.683-.336.757-.382.441-1.077H86.371c-.219-.183-.366-.35-.216-.63h1.964c.463-.178.938-.6.4-1.077H86.371c-.22-.182-.366-.35-.216-.63H87.5c.707-.348.738-.382.437-1.1-2.054,0-4.115,0-6.169,0-.868-.058-.814.268-1.334.942h-.971V36.1h.924c.412.268.268.784.671,1.081.236-.067.449.239.761.193.438.683.29,1.623.526,2.4.252.732.011,1.593.523,2.216.272.066.539.121.764-.209-.048-5.976-.649-4.122,4.9-4.4.177-.3.617-.7.149-1.059Z" transform="translate(-15.189 -5.956)" fill="#f3eeec"/>
            <path id="Trazado_588041" data-name="Trazado 588041" d="M76.407,37.054h1.532c.319-.15.254-.4.254-.625q0-2.51,0-5.028l-.224-.213H76.18v2.469c0,.953.006,1.906,0,2.858a.523.523,0,0,0,.231.538" transform="translate(-14.561 -5.962)" fill="#f2edeb"/>
            <path id="Trazado_588042" data-name="Trazado 588042" d="M53.33,31.64a2.233,2.233,0,0,0-.855.573,1.068,1.068,0,0,0-.3.807c.007.9-.032,1.811.013,2.714.043.853.688,2.2,1.721,2.3.138.014.223.194.388.177.055.235.274.417.217.686a2.617,2.617,0,0,0,1.216.883v2.511a1.44,1.44,0,0,0,.943.241c1.781-.008,3.561,0,5.342,0l.226-.226V39.8a3.873,3.873,0,0,0,1.05-.871,4.939,4.939,0,0,0,.195-1.976c0-2.378-.012-4.757.011-7.135a1.66,1.66,0,0,0-.6-1.461,2.427,2.427,0,0,1-.22-.218,2.358,2.358,0,0,0-1.409.153,1.667,1.667,0,0,0-2.116-.514l-.607-.628c-.3.114-.468-.148-.721-.135-.221.011-.383.238-.62.167l-.608.611a3.015,3.015,0,0,0-1.389-.161c-.05.05-.08.1-.124.121a1.087,1.087,0,0,0-.734,1.158c.006.9,0,1.8,0,2.732Z" transform="translate(-9.971 -5.164)" fill="#690589"/>
            <path id="Trazado_588043" data-name="Trazado 588043" d="M54.488,35.409c-.009-.171.171-.191.207-.32.838,0,1.662-.014,2.486.006a1.243,1.243,0,0,0,1.046-.417c-.472-.07-.94-.114-1.221-.62a1.577,1.577,0,0,1-1.354.573,1.965,1.965,0,0,1-1.174-1.05,2.064,2.064,0,0,0-1.327.135,1.418,1.418,0,0,0-.21,1c0,.414,0,.827,0,1.241a4.453,4.453,0,0,0,.218,1.914,3.532,3.532,0,0,0,1.184.943H54.9c.056.062.184.142.182.216a1.632,1.632,0,0,0,.734,1.334.825.825,0,0,1,.666.216,13.559,13.559,0,0,0,.149,2.565h5.112V40.66c.213-.39.626-.238.916-.587a1.325,1.325,0,0,1,.335-.387V34.522c-.265-.2-.431.056-.634.1-.243.057-.427-.162-.632-.145-.293.025-.338-.3-.638-.332a1.243,1.243,0,0,1-1.224.459l-.813-.427c-.281.128-.225.4-.222.645-.082.184-.349.244-.313.5-.211.164-.507.174-.718.411H56.312a12.9,12.9,0,0,1,.579,1.19,6.973,6.973,0,0,1,.055,1.163l-.222.415c-.215.007-.254-.148-.365-.218a5.307,5.307,0,0,0-.152-1.4,1.525,1.525,0,0,0-1.351-1.167.4.4,0,0,1-.369-.3" transform="translate(-10.119 -6.412)" fill="#f3eeec"/>
            <path id="Trazado_588044" data-name="Trazado 588044" d="M58.305,32.5a1.437,1.437,0,0,0,.7.409,1.191,1.191,0,0,0,.688-.393V28.159c-.163-.218-.425-.248-.619-.383a1.685,1.685,0,0,0-.766.567Z" transform="translate(-11.145 -5.31)" fill="#f3edec"/>
            <path id="Trazado_588045" data-name="Trazado 588045" d="M56.622,33.053a1.439,1.439,0,0,0,.561-1.249c-.037-.9-.01-1.809-.01-2.672l-.327-.552h-.863l-.358.359v3.576l.564.538Z" transform="translate(-10.633 -5.463)" fill="#f2eceb"/>
            <path id="Trazado_588046" data-name="Trazado 588046" d="M61.856,28.55h-.68a1.332,1.332,0,0,0-.375,1c-.023.771.011,1.543-.016,2.313-.011.314.222.543.188.815a1.524,1.524,0,0,0,.709.4c.149.074.214-.264.417-.169.073-.238.258-.407.25-.677-.021-.667-.007-1.336-.007-2v-1.3l-.486-.378" transform="translate(-11.619 -5.458)" fill="#f1ebeb"/>
            <path id="Trazado_588047" data-name="Trazado 588047" d="M64.129,33.154h.347l.549-.666c0-.705-.011-1.556,0-2.406a1.182,1.182,0,0,0-.366-.936,1.3,1.3,0,0,0-.993.166,1.438,1.438,0,0,0-.2.927c.01.776,0,1.551,0,2.316l.654.6" transform="translate(-12.133 -5.565)" fill="#f2eceb"/>
          </g>
          <circle id="Elipse_4796-2" data-name="Elipse 4796" cx="16.5" cy="16.5" r="16.5" transform="translate(564 3881.618)" fill="#c7ee45"/>
          <circle id="Elipse_4797-2" data-name="Elipse 4797" cx="12.5" cy="12.5" r="12.5" transform="translate(568 3885.618)" fill="#9fbe37"/>
          <text id="_1" data-name="1" transform="translate(576 3905.618)" fill="#12263f" font-size="18" font-family="Roboto-Black, Roboto" font-weight="800"><tspan x="0" y="0">1</tspan></text>
        </g>
      </g>
    </g>
  </g>
</svg>
