<svg xmlns="http://www.w3.org/2000/svg" xmlns:xlink="http://www.w3.org/1999/xlink" width="610" height="292" viewBox="0 0 610 292">
  <defs>
    <linearGradient id="linear-gradient" x1="0.5" x2="0.5" y2="1" gradientUnits="objectBoundingBox">
      <stop offset="0" stop-color="#4acfd9"/>
      <stop offset="1" stop-color="#f4fafb"/>
    </linearGradient>
    <clipPath id="clip-path">
      <rect id="Rectángulo_39162" data-name="Rectángulo 39162" width="72.043" height="93" fill="none"/>
    </clipPath>
  </defs>
  <g id="Grupo_850457" data-name="Grupo 850457" transform="translate(-179 -1796)">
    <path id="Trazado_588626" data-name="Trazado 588626" d="M20,0H590a20,20,0,0,1,20,20V272a20,20,0,0,1-20,20H20A20,20,0,0,1,0,272V20A20,20,0,0,1,20,0Z" transform="translate(179 1796)" fill="url(#linear-gradient)"/>
    <g id="Grupo_850112" data-name="Grupo 850112" transform="translate(-1 -37)">
      <g id="Elipse_4765" data-name="Elipse 4765" transform="translate(400 1913)" fill="none" stroke="#161730" stroke-width="3" stroke-dasharray="5">
        <circle cx="85" cy="85" r="85" stroke="none"/>
        <circle cx="85" cy="85" r="83.5" fill="none"/>
      </g>
      <g id="Grupo_850109" data-name="Grupo 850109" transform="translate(-7)">
        <g id="Rectángulo_39155" data-name="Rectángulo 39155" transform="translate(404 1876)" fill="#161730" stroke="#707070" stroke-width="1">
          <rect width="176" height="45" rx="20" stroke="none"/>
          <rect x="0.5" y="0.5" width="175" height="44" rx="19.5" fill="none"/>
        </g>
        <text id="Compromiso" transform="translate(492 1905)" fill="#fff" font-size="18" font-family="Roboto-Black, Roboto" font-weight="800"><tspan x="-51.974" y="0">Compromiso</tspan></text>
      </g>
      <g id="Grupo_850108" data-name="Grupo 850108" transform="translate(-8)">
        <g id="Rectángulo_39158" data-name="Rectángulo 39158" transform="translate(552 1998)" fill="#161730" stroke="#707070" stroke-width="1">
          <rect width="176" height="45" rx="20" stroke="none"/>
          <rect x="0.5" y="0.5" width="175" height="44" rx="19.5" fill="none"/>
        </g>
        <g id="Rectángulo_39159" data-name="Rectángulo 39159" transform="translate(259 1998)" fill="#161730" stroke="#707070" stroke-width="1">
          <rect width="176" height="45" rx="20" stroke="none"/>
          <rect x="0.5" y="0.5" width="175" height="44" rx="19.5" fill="none"/>
        </g>
        <text id="Responsabilidad" transform="translate(640 2027)" fill="#fff" font-size="18" font-family="Roboto-Black, Roboto" font-weight="800"><tspan x="-67.355" y="0">Responsabilidad</tspan></text>
        <text id="Proactividad" transform="translate(347 2027)" fill="#fff" font-size="18" font-family="Roboto-Black, Roboto" font-weight="800"><tspan x="-51.205" y="0">Proactividad</tspan></text>
      </g>
      <g id="Grupo_850111" data-name="Grupo 850111" transform="translate(449 1952)">
        <g id="Grupo_850110" data-name="Grupo 850110" transform="translate(0 0)" clip-path="url(#clip-path)">
          <path id="Trazado_586403" data-name="Trazado 586403" d="M41.63,52.817c.012-1.6.6-3.126.425-4.736a52.553,52.553,0,0,0-1.314-5.643c-.413-1.331-1.232-2.463-1.441-3.924a8.983,8.983,0,0,1,.437-5.2,28.857,28.857,0,0,0,1.836-5.778,15.378,15.378,0,0,0,.483-3.768c-.11-1.3.155-2.656-.085-3.922a16.9,16.9,0,0,0-.378-2.644c-.292-.773-.326-1.6-.676-2.342-.368-.782-.623-1.613-.961-2.413a24.349,24.349,0,0,0-4.93-7.511,18.367,18.367,0,0,0-6.767-4A16.978,16.978,0,0,0,20.539.164a16.954,16.954,0,0,0-6,1.778C12.288,3.253,10.033,4.5,8.483,6.782a29.819,29.819,0,0,0-2.747,4.126c-.465,1.026-.857,2.161-1.276,3.22-.407,1.031-.561,2.124-.984,3.151a25.665,25.665,0,0,0-.39,7.869c.474,1.405.375,2.9.942,4.292.543,1.334.952,2.727,1.438,4.088a8.819,8.819,0,0,1,.4,4.917c-.3,1.409-1.19,2.525-1.441,3.926-.1.589-.6,1.094-.652,1.791A8.89,8.89,0,0,1,3.36,46.05a12.086,12.086,0,0,0-.318,2.676,10.9,10.9,0,0,0,1.521,5.782,25.693,25.693,0,0,0-1.408,2.4A26.268,26.268,0,0,0,.784,63.229a7.5,7.5,0,0,0-.371,2.1c.052.778-.536,1.442-.39,2.285A13.237,13.237,0,0,1,.05,69.856V93H36.035V87.63c0-2.125.087-4.254-.032-6.371-.077-1.367.561-2.612.438-3.973-.029-.333.347-.7.452-.9,2.129.909,3.366,2.9,5.156,4.284a20.754,20.754,0,0,0,3.991,2.644,8.825,8.825,0,0,0,5.919.479,23.548,23.548,0,0,0,2.517-.718,12.09,12.09,0,0,0,5.3-5.6,31.2,31.2,0,0,0,1.346-4.5c.555-1.652.943-3.361,1.387-5.049.431-1.635.9-3.263,1.227-4.921.114-.588.815-.984.412-1.561,2.476-1.548,5.629-1.572,7.437-4.175-.106-.487.366-.9.428-1.421a4.272,4.272,0,0,0-4.183-4.732c-1.374-.034-2.754.07-4.121-.026a13.294,13.294,0,0,0-4.385.737c-.569.152-.681.95-1.367.785-.971,1.146-2.171,2.03-2.863,3.5-1.306,2.771-2.76,5.476-4.077,8.246a4.287,4.287,0,0,1-.588.7c-2.608-4.362-4.889-8.894-8.8-12.232" transform="translate(0 -0.001)"/>
          <path id="Trazado_586404" data-name="Trazado 586404" d="M5.033,51.246a27.507,27.507,0,0,1,8.388-6.14,22.134,22.134,0,0,0,1.255-5.447,5.693,5.693,0,0,1-1.949-1.186,10.922,10.922,0,0,0-1.189-1.2,8.656,8.656,0,0,1-2.369-3.143,19.232,19.232,0,0,1-1.284-3.607A12.872,12.872,0,0,1,7.6,28.043c-.017-3.246-.008-6.491-.008-9.7.45-.464.519-1.09.829-1.569a4.91,4.91,0,0,1,2.742-1.926c.856-.259,1.562-.779,2.409-.969A4.69,4.69,0,0,1,17.51,8.751c.392.787.8,1.6,1.245,2.495A4.552,4.552,0,0,0,16.6,12.725v1.111a2.67,2.67,0,0,0,2.261.931c2.273-.173,4.5.642,6.777.371,1.471.584,3.03.2,4.525.4a4.678,4.678,0,0,1,4.414,4.7c.015,2.561-.071,5.124.022,7.681.106,2.845-1.2,5.219-2.3,7.677-1.551,1.354-2.686,3.2-4.85,4.118.018,1.405.634,2.851.827,4.533a4.713,4.713,0,0,0,2.073,1.309,17.181,17.181,0,0,1,3.575,1.753c1.2.7,2.338,1.519,3.569,2.33a14.259,14.259,0,0,0-1.644-8.289,12.016,12.016,0,0,1-1.218-6.961,16.683,16.683,0,0,1,1.307-4.316,23.025,23.025,0,0,0,1.334-4.9,18.126,18.126,0,0,0,.263-4.916,22.429,22.429,0,0,0-1.585-7.012c-.606-1.463-1.508-2.742-2.125-4.18a.829.829,0,0,0-.181-.3A49.678,49.678,0,0,0,29.322,4.76a18.781,18.781,0,0,0-4.8-1.992,10.717,10.717,0,0,0-5.268-.316c-2.892.462-5.734,1.282-7.906,3.493-.35.355-.707.707-1.059,1.059C8.218,9.073,7.808,9.929,6.4,13.079a27.016,27.016,0,0,0-1.527,5.382,16.294,16.294,0,0,0-.21,5.291,20.706,20.706,0,0,0,1.6,6.438,12.748,12.748,0,0,1,1.294,7.126,13.413,13.413,0,0,1-1.127,3.833,16.433,16.433,0,0,0-1.869,7.672c.022.811.5,1.458.473,2.425" transform="translate(1.458 0.727)" fill="#656d78"/>
          <path id="Trazado_586405" data-name="Trazado 586405" d="M28.935,59.856c2.12,1.138,3.34,2.965,5.14,4.135a19.153,19.153,0,0,1,1.875,1.821,7.786,7.786,0,0,0,6.8,2,7.412,7.412,0,0,0,5.89-5.535C49.3,59.8,50.07,57.354,50.6,54.836c.489-2.327,1.273-4.592,1.961-7L48.15,46.091,40.658,61.082c-.827-.427-1.65-.849-2.546-1.31.366-1.606,1.444-2.9,2.055-4.571-2.936-4.828-5.271-10.136-9.792-14-1.24,1.236-1.755,2.958-3.216,4.118a11.524,11.524,0,0,1,3.13,6.788c.427,2.6-.382,5.1-1.354,7.746" transform="translate(8.71 13.214)" fill="#b3dc7e"/>
          <path id="Trazado_586406" data-name="Trazado 586406" d="M17.261,53.918l-1.3,1.3v20.05H27.8a3.429,3.429,0,0,0,.11-1.582c.017-2.557,0-5.115.015-7.673a4.4,4.4,0,0,1,.331-2.3c.326-.593-.3-1.479.4-2.073-.1-2.19.915-4.1,1.614-6.07a9.853,9.853,0,0,0-1.383-9.484,35.606,35.606,0,0,1-11.629,7.833" transform="translate(5.12 14.779)" fill="#b3dc7e"/>
          <path id="Trazado_586407" data-name="Trazado 586407" d="M30.113,15.964a2.872,2.872,0,0,0-2.464-.95c-2.266.148-4.486-.641-6.763-.366-1.269-.658-2.635-.314-3.959-.366a8.123,8.123,0,0,1-3.274-1.134L9.609,14.726a3.4,3.4,0,0,0-.487,2.393c0,2.556.009,5.112,0,7.668a10.332,10.332,0,0,0,.961,4.092,9.379,9.379,0,0,0,3.458,4.106,10.124,10.124,0,0,0,7.422,1.858,10.119,10.119,0,0,0,7.286-4.552,11.963,11.963,0,0,0,1.89-6.149c-.092-2.735-.024-5.476-.024-8.178" transform="translate(2.923 4.216)" fill="#efcfb3"/>
          <path id="Trazado_586408" data-name="Trazado 586408" d="M9.856,75.355h6V73.527c0-5.559.02-11.116-.013-16.675-.008-1.474-.034-2.91,1.4-4.053a29.333,29.333,0,0,1-8.043-6.963,10.866,10.866,0,0,0-2.009,3.926c-.831,2.659-.073,5.061.836,7.436A14.814,14.814,0,0,1,9.07,61.06c.058.614.514,1.063.438,1.718a1.723,1.723,0,0,0,.289,1.57c.221.236.057.835.057,1.269q0,4.309,0,8.618Z" transform="translate(2.189 14.699)" fill="#b3dc7e"/>
          <path id="Trazado_586409" data-name="Trazado 586409" d="M2.322,76.692H8.164c.318-.448.141-.96.145-1.434.022-2.624-.011-5.248.02-7.873.015-1.34-.627-2.61-.384-3.967-.7-.391-.2-1.134-.49-1.675a12.36,12.36,0,0,1-.635-1.8c-.189-.547-.367-1.1-.581-1.634a12.134,12.134,0,0,1-.865-6.547,11.3,11.3,0,0,1,2.6-6.04,7.769,7.769,0,0,0,.786-1.288q-.806-1.274-1.687-2.669c-.664,1.263-1.594,2.249-2.13,3.493-1.3,3.014-1.961,4.115-2.24,7.319-.687,1.334-.351,2.77-.359,4.156-.037,6-.016,12-.016,17.995Z" transform="translate(0.726 13.395)" fill="#b3dc7e"/>
          <path id="Trazado_586410" data-name="Trazado 586410" d="M24.469,42.99,18.6,40.058a38.041,38.041,0,0,0-5.613,3.292A28.309,28.309,0,0,0,17.9,51.9c3.042-2.431,4.861-5.592,6.565-8.915" transform="translate(4.165 12.846)" fill="#fbd66f"/>
          <path id="Trazado_586411" data-name="Trazado 586411" d="M18.068,37.671,22.145,35.3c.252-1.166-.683-2.113-.328-3.086-.362-.5-.722-.7-1.2-.6a8.719,8.719,0,0,1-5.107,0c-.218-.048-.522.085-1.215.548.367,1.028-.541,1.978-.32,3.138l4.088,2.38" transform="translate(4.472 10.128)" fill="#eeceb3"/>
          <path id="Trazado_586412" data-name="Trazado 586412" d="M48.035,45.14c2.505-.018,4.5-1.481,6.594-2.167.571-1.16-.3-1.479-.741-2-1.811,0-3.62-.032-5.427.009a5.943,5.943,0,0,0-4.246,2.19c1.116,1.082,2.594,1.05,3.819,1.972" transform="translate(14.18 13.134)" fill="#eeceb2"/>
          <path id="Trazado_586413" data-name="Trazado 586413" d="M22.564,47.894c1.844-.507,4.943-4.212,6.626-7.622a5.7,5.7,0,0,0-1.339-1.108A8.119,8.119,0,0,1,26.3,38.1a50.8,50.8,0,0,1-3.736,9.79" transform="translate(7.236 12.219)" fill="#9dd066"/>
          <path id="Trazado_586414" data-name="Trazado 586414" d="M13.014,47.649c-1.5-2.9-1.875-6.147-2.8-9.348a13.846,13.846,0,0,0-2.533,2.221,25.233,25.233,0,0,0,4.905,7.289c.025.029.2-.074.432-.162" transform="translate(2.462 12.283)" fill="#9ccf66"/>
          <path id="Trazado_586415" data-name="Trazado 586415" d="M23.6,41.269c.386-1.194.771-2.39,1.174-3.636-.527-.642-1.506-.672-2.134-1.253-1.607.342-2.645,1.613-4.213,2.084,1.643,1.23,3.525,1.815,5.173,2.805" transform="translate(5.909 11.666)" fill="#fbc428"/>
          <path id="Trazado_586416" data-name="Trazado 586416" d="M11.749,37.265a17.4,17.4,0,0,1,.705,4.187l4.578-2.729a41.619,41.619,0,0,0-3.793-2.3,3.631,3.631,0,0,0-1.49.847" transform="translate(3.768 11.679)" fill="#f9c328"/>
          <rect id="Rectángulo_39160" data-name="Rectángulo 39160" width="2.878" height="2.873" transform="translate(24.1 72.192)"/>
          <rect id="Rectángulo_39161" data-name="Rectángulo 39161" width="2.878" height="2.873" transform="translate(24.1 78.13)"/>
          <path id="Trazado_586417" data-name="Trazado 586417" d="M17.692,29.508c.082,0,.58-.029,1.075.005a4.555,4.555,0,0,0,3.208-1.306,6.78,6.78,0,0,0,2.281-4.683,7.9,7.9,0,0,1,.862-2.939H12.255c.519,2.067,1.028,4.089,1.553,6.184,1.021.984,1.957,2.217,3.884,2.739" transform="translate(3.93 6.601)"/>
          <path id="Trazado_586418" data-name="Trazado 586418" d="M23.471,17.82v-.909l-.992-.924H21.391l-.919,1.257v.807l.936.923h1.162l.9-1.154" transform="translate(6.565 5.126)" fill="#090706"/>
          <path id="Trazado_586419" data-name="Trazado 586419" d="M13.084,15.987h-.774l-.921,1.321v.749l.95.914h1.154l.864-1.037v-1.08l-1.273-.866" transform="translate(3.653 5.126)" fill="#090706"/>
          <path id="Trazado_586420" data-name="Trazado 586420" d="M20.163,22.822H15.191c.1,1.733.946,2.851,2.28,2.965a2.889,2.889,0,0,0,2.054-.881c.663-.524.057-1.473,1.088-1.791l-.449-.293" transform="translate(4.872 7.318)" fill="#fa7f6c"/>
        </g>
      </g>
    </g>
  </g>
</svg>
