<svg id="Grupo_850376" data-name="Grupo 850376" xmlns="http://www.w3.org/2000/svg" xmlns:xlink="http://www.w3.org/1999/xlink" width="65.851" height="65.828" viewBox="0 0 65.851 65.828">
  <defs>
    <clipPath id="clip-path">
      <rect id="Rect치ngulo_39428" data-name="Rect치ngulo 39428" width="65.851" height="65.828" fill="none"/>
    </clipPath>
  </defs>
  <g id="Grupo_850375" data-name="Grupo 850375" clip-path="url(#clip-path)">
    <path id="Trazado_588223" data-name="Trazado 588223" d="M.57,53.717l1.049,1.048a7.776,7.776,0,0,0,3.548.4q17.242.011,34.457,0L42.2,58.4a11.986,11.986,0,0,0-1.8,7.236c1.067.195,15.01.264,19.012.086a11.836,11.836,0,0,0-1.726-7.215,1.666,1.666,0,0,1,.7-1.06c.409-.29.489-.8.839-1.115a7.9,7.9,0,0,0,1.762-2.586,5.848,5.848,0,0,0,.6-2.535c-.006-3.667-.016-7.334,0-11a3.267,3.267,0,0,0-1.844-3.2c-.075-.039-.127-.122-.237-.233V29.768c1.47-.237,3.059.245,4.688-.425l1.335-1.417a7.055,7.055,0,0,0,.3-3.027q.005-6.892,0-13.783A6.487,6.487,0,0,0,65.4,7.939L64.214,6.75c-1.5-.64-3.079-.26-4.689-.393-.239-1.5.237-3.09-.421-4.706L57.748.354A6.9,6.9,0,0,0,54.638.018Q29.7.015,4.769.018A6.488,6.488,0,0,0,1.591.445L.376,1.659a8.819,8.819,0,0,0-.34,3.666q-.013,22.266,0,44.532c0,1.2-.261,2.431.529,3.86" transform="translate(0 0)"/>
    <path id="Trazado_588224" data-name="Trazado 588224" d="M6.215,59.837h3.03l.352-.351v-.953a4.044,4.044,0,0,0,.537-1.007,4.708,4.708,0,0,1,1.391-2.34,7.621,7.621,0,0,1,3.038-2.257,10.288,10.288,0,0,1,2.6-.791,5.185,5.185,0,0,0,1.465-.276,5.413,5.413,0,0,1,1.493-.235c.255-.252-.08-.744.465-.936a9.793,9.793,0,0,1-2.212-2.118c.155-.5-.417-.842-.272-1.419a6.1,6.1,0,0,1-2.966-.471l-1.206-1.205c-.176-.755-.611-1.509-.245-2.237a2.266,2.266,0,0,0,.116-1.76,5.647,5.647,0,0,1-.2-1.371,7.689,7.689,0,0,1,.559-3.084,4.2,4.2,0,0,1,.953-1.581,10.836,10.836,0,0,1,2.506-2.253,3.976,3.976,0,0,1,1.461-.61,15.527,15.527,0,0,1,2.407-.32c1.9.081,3.8.025,5.7.025a10.811,10.811,0,0,1,3.718.947c.7.3.968,1.107,1.738,1.246a11.935,11.935,0,0,1,1.925,3.311,7.312,7.312,0,0,1,.035,3.635,2.654,2.654,0,0,0,.122,1.778c.276.524.02,1.12.108,1.606-.9,1.675-2.16,2.6-4.153,2.28-.669,1.224-1.04,2.68-2.462,3.351.027.352-.2.775.4,1.15.975.113,2.1.426,3.255.614a8.565,8.565,0,0,1,4.259,2.19,9.307,9.307,0,0,1,2.321,3.151,18.629,18.629,0,0,1,.643,2.277h.951c.1-.063.1-.2.081-.327a2.347,2.347,0,0,1,.91-2.014,2.528,2.528,0,0,1,1.926-.818A5.82,5.82,0,0,1,46.445,58V49.255c-1.728,0-3.445-.039-5.158.012-1.388.042-2.167-.867-3-1.727.064-.563-.3-1.026-.3-1.609.041-5.211.024-10.423.024-15.7H6.215Z" transform="translate(-4.018 -19.542)" fill="#69d5f3"/>
    <path id="Trazado_588225" data-name="Trazado 588225" d="M108.568,28.255a4.021,4.021,0,0,1,2.213-2.061,4.151,4.151,0,0,1,2.624.708c2.614,1.363,5.24,2.71,7.923,3.929a3.179,3.179,0,0,1,2.088,3.473,1.167,1.167,0,0,0-.267.424,2.609,2.609,0,0,1-1.519,1.563c-2.322,1.123-4.619,2.3-6.942,3.421-.21.1-.331.262-.553.4.9.811.807,1.89.8,3.005H129.2l.572-.69V24.708l-.759-.6h-26.2l-.6.782v17.68l.8.578h5.542c.03-1.041-.151-2.16.809-3.027a2.859,2.859,0,0,1-.805-1.132Z" transform="translate(-66.083 -15.583)" fill="#fee9a6"/>
    <path id="Trazado_588226" data-name="Trazado 588226" d="M123.014,83.894V94.263h-2.138V83.6c-.61-.561-1.431-.245-2.123-.856V94.294h-2.092V72.757l-.713-.7h-.806l-.681.72v21.52h-2.092c0-1.541-.066-3.078.016-4.608a3.632,3.632,0,0,0-3.831-3.849c-.366.284-.624.554-.3,1.078.363.589.615,1.246.934,1.864a8.255,8.255,0,0,1,1.076,4.335c-.08,1.41,0,2.827-.021,4.241a5.249,5.249,0,0,0,1.3,3.445,24.944,24.944,0,0,0,2.563,3.061h11.389a22.989,22.989,0,0,0,2.958-3.541,4.471,4.471,0,0,0,.915-2.793c-.034-3.844-.013-7.688-.013-11.537-.489-.668-1.328-.611-1.928-.992a1.273,1.273,0,0,0-.146.132.211.211,0,0,0-.046.112c0,3,0,6,0,9.038h-2.06V84.743c-.642-.59-1.443-.438-2.154-.85" transform="translate(-69.885 -46.579)" fill="#efcfb3"/>
    <path id="Trazado_588227" data-name="Trazado 588227" d="M42.465,130.7a48.233,48.233,0,0,1-.217-7.334,5.924,5.924,0,0,0-.638-2.124c-.139-.338-.332-.654-.538-1.052H6.185v9.958l.708.354-.159.2Z" transform="translate(-3.998 -77.694)" fill="#cbd0d8"/>
    <path id="Trazado_588228" data-name="Trazado 588228" d="M61.318,10.332V6.712l-.776-.6H6.788l-.606.605V12.4H8.268V8.256H14.6v4.16h2.138V8.242h6.339v4.17c.722.083,1.406.021,2.134.048V8.274H31.6V12.4h6.514a8.414,8.414,0,0,1,1.525-1.724,8.493,8.493,0,0,1,3.528-.336c6.013-.011,12.026-.005,18.155-.005" transform="translate(-3.996 -3.953)" fill="#b3dc7f"/>
    <path id="Trazado_588229" data-name="Trazado 588229" d="M49.949,48.381a5.093,5.093,0,0,0-.745-3.657,5.328,5.328,0,0,0-4.459-2.7c-2.116-.043-4.234-.015-6.352-.008a4.994,4.994,0,0,0-3.512,1.434,4.6,4.6,0,0,0-1.556,2.261,3.912,3.912,0,0,0-.169,2.65c.621.049,1.391,0,2.118.019.221-.232.081-.465.135-.669.249-.249.495-.5.749-.747a2.458,2.458,0,0,1,2.908-.447,17.964,17.964,0,0,0,3.4,1.4,13.032,13.032,0,0,0,2.052.441c1.584.078,3.175.025,4.763.025Z" transform="translate(-21.313 -27.154)" fill="#656d77"/>
    <path id="Trazado_588230" data-name="Trazado 588230" d="M21.342,103.8h25.29A6.628,6.628,0,0,0,43.942,99.4a5.166,5.166,0,0,0-3.17-1.132L38.9,103a.977.977,0,0,1-.683-.087c-1.072-.6-2.192-1.112-3.264-1.71a1.844,1.844,0,0,0-1.894-.02c-1.2.629-2.391,1.261-3.694,1.948-.994-1.5-1.331-3.261-2.154-4.878a6.406,6.406,0,0,0-3.839,1.751,6.756,6.756,0,0,0-2.035,3.79" transform="translate(-13.797 -63.517)" fill="#fe816d"/>
    <path id="Trazado_588231" data-name="Trazado 588231" d="M126.2,36.474v9.8c.312.406.566.535,1.164.216,2.418-1.289,4.9-2.461,7.352-3.683a4.781,4.781,0,0,0,2.132-1.384,2.409,2.409,0,0,0-.978-.869q-4.312-2.083-8.556-4.3a.778.778,0,0,0-1.114.221" transform="translate(-81.582 -23.342)" fill="#fe816e"/>
    <path id="Trazado_588232" data-name="Trazado 588232" d="M135.037,172.311a10.911,10.911,0,0,0-1.612-4.156H121.872a7.039,7.039,0,0,0-1.1,1.992,9.554,9.554,0,0,0-.542,2.164Z" transform="translate(-77.72 -108.704)" fill="#fbd670"/>
    <path id="Trazado_588233" data-name="Trazado 588233" d="M51.887,68.173l1.32-1.319a5.425,5.425,0,0,0,.386-2.328c-.045-.783-.01-1.572-.01-2.456a6.819,6.819,0,0,1-3.224-.291,12.943,12.943,0,0,1-3.651-1.395c-.212-.135-.45-.192-.663-.34-.316-.22-.657-.04-.952.363,0,1.621.021,3.334-.012,5.046-.011.538.453.9.331,1.343l1.364,1.363a9.677,9.677,0,0,0,5.113.014" transform="translate(-29.142 -38.755)" fill="#efcfb3"/>
    <path id="Trazado_588234" data-name="Trazado 588234" d="M138.3,88.6l8.414,2.1V84.211H138.3Z" transform="translate(-89.403 -54.438)" fill="#69d5f3"/>
    <path id="Trazado_588235" data-name="Trazado 588235" d="M53.654,92.631l2.014-2.013-.2-.467h-3.54c-.229.205-.026.532-.064.685l1.8,1.794" transform="translate(-33.494 -58.279)" fill="#ecccb1"/>
    <path id="Trazado_588236" data-name="Trazado 588236" d="M18.162,18.167V20.2h2.057c.111-.627,0-1.312.063-2.035Z" transform="translate(-11.741 -11.744)" fill="#e5e8ec"/>
    <rect id="Rect치ngulo_39427" data-name="Rect치ngulo 39427" width="2.037" height="2.031" transform="translate(14.932 6.403)" fill="#e5e8ec"/>
    <path id="Trazado_588237" data-name="Trazado 588237" d="M66.193,18.175V20.2h2.071c.069-.623.008-1.3.035-2.029Z" transform="translate(-42.79 -11.749)" fill="#e5e8ec"/>
    <path id="Trazado_588238" data-name="Trazado 588238" d="M33.884,68.243H35.22V66.208H33.73l-.578.673v.761l.732.6" transform="translate(-21.431 -42.8)" fill="#ebccb0"/>
    <path id="Trazado_588239" data-name="Trazado 588239" d="M76.6,66.141H75.223v2.035h1.484l.6-.632v-.8l-.711-.607" transform="translate(-48.628 -42.757)" fill="#ebccb0"/>
    <path id="Trazado_588240" data-name="Trazado 588240" d="M64.017,98.851a4.224,4.224,0,0,0,1.028-2.31c-.126-.267-.377-.116-.565-.174a2.112,2.112,0,0,1-.4-.221L62.4,97.824c.39.529,1.083.555,1.617,1.027" transform="translate(-40.338 -62.154)" fill="#f1694d"/>
    <path id="Trazado_588241" data-name="Trazado 588241" d="M45.273,98.935c.531-.462,1.216-.492,1.605-.964l-1.709-1.709c-.139.371-.622.046-.931.358a7.48,7.48,0,0,0,1.035,2.314" transform="translate(-28.598 -62.229)" fill="#f36a4e"/>
    <path id="Trazado_588242" data-name="Trazado 588242" d="M16.467,130.257a8.842,8.842,0,0,0,1.582,1.841,3.232,3.232,0,0,0,2.182.258c.33-.144.764-.039,1.032-.41.4-.554,1.082-.879,1.345-1.63H43.933v-2.048c.022.025,0-.013-.036-.038a.209.209,0,0,0-.112-.047q-10.6,0-21.189,0c-.269-.84-1.043-1.2-1.426-1.713a3.426,3.426,0,0,0-3.177-.007c-.384.483-1.158.888-1.474,1.753H12.17v2.042Z" transform="translate(-7.867 -81.501)"/>
    <path id="Trazado_588243" data-name="Trazado 588243" d="M30.814,134.169h.777l.615-.767v-.728l-.753-.62h-.686l-.656.655v.81l.7.65" transform="translate(-19.465 -85.366)" fill="#f57d6a"/>
  </g>
</svg>
