<svg xmlns="http://www.w3.org/2000/svg" xmlns:xlink="http://www.w3.org/1999/xlink" width="472.658" height="285.28" viewBox="0 0 472.658 285.28">
  <defs>
    <clipPath id="clip-path">
      <rect id="Rectángulo_39038" data-name="Rectángulo 39038" width="472.658" height="285.28" transform="translate(0 0)" fill="none"/>
    </clipPath>
  </defs>
  <g id="Grupo_849902" data-name="Grupo 849902" transform="translate(0 0.002)">
    <g id="Grupo_849901" data-name="Grupo 849901" transform="translate(0 -0.002)" clip-path="url(#clip-path)">
      <path id="Trazado_586269" data-name="Trazado 586269" d="M695.043,667.261a71.494,71.494,0,0,1,3.046-6.955l-41.8-20.929A120.4,120.4,0,0,0,644.56,677.6l46.345,6.121a73.9,73.9,0,0,1,4.139-16.465" transform="translate(-544.168 -539.792)" fill="#5bbfef"/>
      <path id="Trazado_586270" data-name="Trazado 586270" d="M1178,260.375a74.229,74.229,0,0,1,19.116-3.843q2.818-.189,5.645-.166l.372-46.746a122,122,0,0,0-16.123.937,120.62,120.62,0,0,0-15.654,3.021q-4.322,1.135-8.552,2.588l15.184,44.212.012,0" transform="translate(-981.693 -176.968)" fill="#54678c"/>
      <path id="Trazado_586271" data-name="Trazado 586271" d="M944.991,317.594a74.531,74.531,0,0,1,15.411-9.861q2.55-1.219,5.189-2.24L948.714,261.9a120.8,120.8,0,0,0-34.328,20.352l30.133,35.739q.236-.2.472-.395" transform="translate(-771.967 -221.106)" fill="#54a7e4"/>
      <path id="Trazado_586272" data-name="Trazado 586272" d="M780.477,456.958a74.939,74.939,0,0,1,9.363-10.269l-31.47-34.568a121.131,121.131,0,0,0-24.665,31.29l40.967,22.516a74.49,74.49,0,0,1,5.805-8.97" transform="translate(-619.428 -347.931)" fill="#79d894"/>
      <path id="Trazado_586273" data-name="Trazado 586273" d="M1441.169,257.38a74.112,74.112,0,0,1,16,3.3q2.216.72,4.383,1.58l17.232-43.455a120.625,120.625,0,0,0-39.055-8.376l-2.131,46.7q1.789.082,3.573.249" transform="translate(-1213.686 -177.657)" fill="#f95873"/>
      <path id="Trazado_586274" data-name="Trazado 586274" d="M1853.292,693.786a73.968,73.968,0,0,1,4.354,16.159q.36,2.383.564,4.786l46.578-3.973a120.5,120.5,0,0,0-9.934-38.716L1852.124,691q.612,1.379,1.168,2.784" transform="translate(-1563.65 -567.37)" fill="#ff5f4a"/>
      <path id="Trazado_586275" data-name="Trazado 586275" d="M1767.087,489.942l41.97-20.587a121.027,121.027,0,0,0-23.2-32.413l-33.029,33.081a74.6,74.6,0,0,1,14.263,19.919" transform="translate(-1479.816 -368.887)" fill="#79d894"/>
      <path id="Trazado_586276" data-name="Trazado 586276" d="M1608.45,318.586l.1.047a74.448,74.448,0,0,1,16.043,9.786q2.115,1.69,4.1,3.53l31.748-34.312a120.933,120.933,0,0,0-33.327-21.907l-18.891,42.76.218.1" transform="translate(-1357.745 -232.783)" fill="#f2a25c"/>
      <path id="Trazado_586277" data-name="Trazado 586277" d="M1302.759,1456.955a75.889,75.889,0,0,1-18.907.176q-2.607-.306-5.189-.8l-8.715,45.927A121.923,121.923,0,0,0,1301,1504.1q4.381-.3,8.732-.917l-6.57-46.283-.4.056" transform="translate(-1072.149 -1229.506)" fill="#ff884d"/>
      <path id="Trazado_586278" data-name="Trazado 586278" d="M684.714,930.095a72.946,72.946,0,0,1,.2-11.407l-46.544-4.349a121.993,121.993,0,0,0,1.093,31.168q.709,4.3,1.727,8.54l45.454-10.919a74.271,74.271,0,0,1-1.927-13.033" transform="translate(-538.493 -771.927)" fill="#47b574"/>
      <path id="Trazado_586279" data-name="Trazado 586279" d="M1524.247,1403.715a74.153,74.153,0,0,1-17.506,7.08q-2.743.719-5.536,1.225l8.34,46a120.39,120.39,0,0,0,37.619-13.557l-22.914-40.746h0" transform="translate(-1267.387 -1185.08)" fill="#f95873"/>
      <path id="Trazado_586280" data-name="Trazado 586280" d="M1799.407,1153.235a74.494,74.494,0,0,1-4.4,6.424l37.136,28.394a120.663,120.663,0,0,0,18.693-35.29l-44.359-14.751a74.015,74.015,0,0,1-7.07,15.223" transform="translate(-1515.429 -960.763)" fill="#6ddaf7"/>
      <path id="Trazado_586281" data-name="Trazado 586281" d="M1923.626,950.194l-46.7,2.2a74.967,74.967,0,0,1-1.546,19.123q-.559,2.628-1.309,5.211l44.894,13.03a121.095,121.095,0,0,0,4.751-30.664q.114-4.452-.1-8.9" transform="translate(-1582.183 -802.198)" fill="#ff884d"/>
      <path id="Trazado_586282" data-name="Trazado 586282" d="M1683.395,1291.333a74.809,74.809,0,0,1-13.817,12.947q-2.275,1.645-4.67,3.115l24.456,39.839a121.2,121.2,0,0,0,30.065-26.123s-36.033-29.782-36.035-29.779" transform="translate(-1405.593 -1090.203)" fill="#ffe164"/>
      <path id="Trazado_586283" data-name="Trazado 586283" d="M722.307,1139a74.321,74.321,0,0,1-8.719-16.8c-.644-1.76-1.214-3.545-1.727-5.348l-45,12.662a120.55,120.55,0,0,0,17.042,36.142L722.312,1139l-.005-.007" transform="translate(-562.996 -942.894)" fill="#e0c141"/>
      <path id="Trazado_586284" data-name="Trazado 586284" d="M848.664,1290.736a74.742,74.742,0,0,1-14.134-12.531q-1.826-2.086-3.492-4.3l-37.365,28.092a121.238,121.238,0,0,0,28.822,27.478l26.275-38.664-.105-.072" transform="translate(-670.056 -1075.487)" fill="#ff884d"/>
      <path id="Trazado_586285" data-name="Trazado 586285" d="M1028.4,1392.418l-24.779,39.64a120.445,120.445,0,0,0,36.938,15.29l10.475-45.558a73.934,73.934,0,0,1-22.634-9.372" transform="translate(-847.306 -1175.544)" fill="#f95873"/>
      <path id="Trazado_586286" data-name="Trazado 586286" d="M1092.708,661.29a68.81,68.81,0,1,1-3.193-97.259,68.81,68.81,0,0,1,3.193,97.259" transform="translate(-822.019 -460.492)" fill="#529ae3"/>
      <path id="Trazado_586287" data-name="Trazado 586287" d="M977.114,747.2a13.448,13.448,0,0,1,1.064,1.059c.378.434.692,1,1.051,1.5s.756.857,1.086,1.4a13.865,13.865,0,0,1,1.092,2.434,3.826,3.826,0,0,0,1.08,1.848c.265.17,1.2.462,1.277-.29a1.6,1.6,0,0,0-.3-1,8.363,8.363,0,0,1-1.609-3.209,31.042,31.042,0,0,0-.916-4.073c-.219-.658-.346-1.148-.78-1.182a2.511,2.511,0,0,1-1.46-.351,7.094,7.094,0,0,1-1.666-1.579,4.113,4.113,0,0,1-.556-2.677c.07-.582.2-1.148.265-1.736.065-.6.081-1.187.2-1.779a2.27,2.27,0,0,1,1.02-1.667,2.005,2.005,0,0,1,.805.014,2.227,2.227,0,0,1,1.516.479c1.072.935,1.919,2.164,3.031,3.076.379.311,1.192.669,1.55-.049a6.885,6.885,0,0,0,.579-2.281,10.809,10.809,0,0,1,.538-2.218,16.935,16.935,0,0,1,1.127-2.869,38.147,38.147,0,0,1,2.566-3.832,39.693,39.693,0,0,1,4.618-5.688c.793-.751,1.85-1.266,2.67-2a8.219,8.219,0,0,0,1.866-2.542,7.448,7.448,0,0,0,.918-2.741,20.767,20.767,0,0,0-.173-2.452c-.048-.746.136-1.545.146-2.3a11.8,11.8,0,0,0-.092-1.409c-.1-.936-.46-1.4-1.137-1.578a1.387,1.387,0,0,1-1.2-1.159,1.975,1.975,0,0,0-.6-1.16c-.357-.346-.739-.644-1.091-.975a2.2,2.2,0,0,0-.466-.424,1.115,1.115,0,0,0-.531-.03c-.233.012-.455-.006-.685,0-.342.014-.584,0-.774.5-.3.794-.5,1.642-.731,2.455-.378,1.335-.982,2.657-1.448,3.935a2.559,2.559,0,0,1-1.407,1.6,1.523,1.523,0,0,1-1.361.026,4.6,4.6,0,0,1-1.408-1.375c-.247-.344-.567-.59-.834-.9a2.275,2.275,0,0,1-.658-.981,4.2,4.2,0,0,1-.2-1.573,6.444,6.444,0,0,1,.835-2.536,2.465,2.465,0,0,1,.774-.745c.448-.35.913-.737,1.354-1.137a6.535,6.535,0,0,0,1.782-2.66,10.642,10.642,0,0,0,.594-1.832,68.541,68.541,0,0,0-16.716,43.891c.637,1.075,1.39,2.091,2.106,3.13a9.67,9.67,0,0,0,1.283,1.635" transform="translate(-822.064 -589.74)" fill="#fff"/>
      <path id="Trazado_586288" data-name="Trazado 586288" d="M1052.029,1089.573c.124-.193.348-.326.493-.509.2-.247.308-.581.506-.842.16-.211.348-.389.505-.614.177-.254.332-.54.523-.791.151-.2.3-.387.452-.6.17-.239.29-.536.473-.773.662-.857,1.331-1.719,2.073-2.509.326-.347.577-.817.919-1.168.227-.233.519-.389.766-.645a4.425,4.425,0,0,0,.831-1.155c.25-.488.574-.877.8-1.406a28.971,28.971,0,0,0,1.252-3.482c.124-.432.2-.86.352-1.289.169-.476.142-1.056.282-1.561s.394-.935.519-1.464a4.322,4.322,0,0,0,.062-1.089c-.008-.727-.086-1.4-.135-2.11a3.567,3.567,0,0,0-.948-2.046c-.418-.495-.9-.793-1.323-1.265q-.615-.679-1.192-1.414c-.528-.673-1.111-1.34-1.593-2.038a28.439,28.439,0,0,0-1.684-2.314,27.085,27.085,0,0,0-2.092-2.22c-.407-.38-.867-.693-1.264-1.135a3.046,3.046,0,0,0-.962-.908,3.25,3.25,0,0,0-.946-.158,2.679,2.679,0,0,1-2.059-1.4,7.974,7.974,0,0,0-.63-1.162c-.388-.467-.87-.84-1.274-1.258-.306-.315-.62-.682-.975-.742-.272-.046-.546-.053-.816-.092a2.292,2.292,0,0,0-1.642.415.935.935,0,0,0-.406.38,4.441,4.441,0,0,0-.317.958,16.568,16.568,0,0,0-.474,3.769c-.345,1.017-.933,2.046-1.163,3.013a13.287,13.287,0,0,0-.2,2.753,24.721,24.721,0,0,0,.453,4.842,4.678,4.678,0,0,0,.412,1.474c.149.282.3.55.441.828.608,1.17,1.493,2.2,2.112,3.375a19.591,19.591,0,0,1,1.589,3.8c.488,1.748,1.057,3.512,1.56,5.243a55.033,55.033,0,0,1,1.236,6.124q1.623,1.754,3.388,3.418a1.06,1.06,0,0,1,.1-.237" transform="translate(-878.64 -885.947)" fill="#fff"/>
      <path id="Trazado_586289" data-name="Trazado 586289" d="M1155.688,614.03a3.815,3.815,0,0,1,.851.257c.221.138.521.186.732.341a4.569,4.569,0,0,1,.754.792,2.111,2.111,0,0,1,.451,1.216,2.637,2.637,0,0,0,.124.786c.5,1.253,1.978,1.719,2.116,3.2a8.609,8.609,0,0,1-.2,1.494c-.036.367-.1.749-.123,1.118-.043.749-.121,1.526-.091,2.275a15.958,15.958,0,0,0,.6,2.859,3.794,3.794,0,0,0,.674,1.3,4,4,0,0,0,.8,1.117c.376-.974.937-1.881,1.328-2.787.158-.367.218-.755.407-1.115a5.868,5.868,0,0,1,.972-1.255,7.417,7.417,0,0,1,1.171-.81,7.72,7.72,0,0,1,1.208-.73,16.7,16.7,0,0,1,2.343-.96,3.961,3.961,0,0,1,1.106-.1,7.107,7.107,0,0,0,1.465-.187,6.114,6.114,0,0,0,2.59-1.053,7.2,7.2,0,0,0,1.534-1.818c.3-.479.56-.955.8-1.429a8.706,8.706,0,0,1,.548-.788,8.558,8.558,0,0,1,1.47-1.664c.524-.458,1.056-.893,1.568-1.306a10.171,10.171,0,0,0,1.338-1.076,3.955,3.955,0,0,0,.766-1.277.716.716,0,0,0-.09-.521c-.138-.3-.975-.413-1.392-.561-.23-.082-.347-.194-.579-.277a8.717,8.717,0,0,0-1.475-.234c-1.407-.2-2.838-.259-4.246-.382-1.055-.092-2.119-.214-3.179-.266-.93-.046-1.867-.088-2.8-.146a5.568,5.568,0,0,0-1.559.11c-.959.189-1.948.28-2.9.476-.524.108-.966.224-1.5.311-.575.093-1.014.109-1.564.156-.442.038-.875.2-1.319.248a12.545,12.545,0,0,1-1.286.047c-.559,0-1.148.048-1.728.089q-1.244.829-2.458,1.717c.163.287.406.71.774.829" transform="translate(-975.032 -515.019)" fill="#fff"/>
      <path id="Trazado_586290" data-name="Trazado 586290" d="M1102.611,670.016c.133.227.345.265.518.438.2.2.272.357.581.422a6.93,6.93,0,0,0,1.744,0,1.466,1.466,0,0,0,1.063-.333,3.03,3.03,0,0,0,.41-1.057,9.9,9.9,0,0,0,.347-1.228,4.672,4.672,0,0,0,.136-1.493,7.826,7.826,0,0,0-.252-1.917,4.731,4.731,0,0,0-2.621-2.909,6.065,6.065,0,0,0-1.486-.192q-1.284,1.182-2.521,2.439a2.455,2.455,0,0,1,1.285.9,3.971,3.971,0,0,1,.483,1.4,6.488,6.488,0,0,1,.25,1.476c-.016.732-.261,1.505.062,2.057" transform="translate(-929.12 -558.675)" fill="#fff"/>
      <path id="Trazado_586291" data-name="Trazado 586291" d="M1288.623,781.74a4.185,4.185,0,0,0,1.464.1,3.094,3.094,0,0,0,1.841-1.424c.39-.694.864-1.393,1.236-2.116.224-.435.377-.909.618-1.356a14.034,14.034,0,0,0,.7-1.443,25.664,25.664,0,0,1,1.39-2.6c.253-.465.494-.978.768-1.434.432-.716,1.058-1.332,1.514-2.03a13.3,13.3,0,0,1,.979-1.417,5.765,5.765,0,0,0,.849-1.247,15.632,15.632,0,0,0,.815-3.027,27.682,27.682,0,0,1,.665-3.012,15.639,15.639,0,0,1,1.852-3.3c.527-.743,1.239-1.389,1.746-2.158a11.289,11.289,0,0,1,.879-1.251,9.418,9.418,0,0,0,1.1-1.523,22.537,22.537,0,0,0,1.109-2.3,7.687,7.687,0,0,0,.465-1.273,1.9,1.9,0,0,0-.4-1.55,2.94,2.94,0,0,0-.749-.337,1.856,1.856,0,0,0-.745-.239.878.878,0,0,1-.762-.3,17.116,17.116,0,0,1-1.532-1.836,21.008,21.008,0,0,1-1.134-1.97c-.157-.268-.357-.5-.505-.792a6.2,6.2,0,0,1-.387-1.112c-.2-.693-.366-1.4-.539-2.1-.206-.835-.3-1.717-.456-2.554-.148-.811-.309-1.642-.459-2.462a4.5,4.5,0,0,1-.107-1.277c.033-.4.144-.427.422-.417a1.887,1.887,0,0,1,.818.1c.242.155.361.609.482.931a9.088,9.088,0,0,1,.412,2.066,7.641,7.641,0,0,0,.319,1.85c.2.517.433.97.662,1.447.365.76.684,1.551,1.012,2.325a5.393,5.393,0,0,1,.621,1.573,6.106,6.106,0,0,0,.163.694,4.326,4.326,0,0,0,.158.874,1.48,1.48,0,0,0,.532.591c.167.113.311.314.493.373a2.884,2.884,0,0,0,.638.039c.538.042,1.075.081,1.609.124.277.023.457.1.718-.1.45-.337.9-.706,1.345-1.036a9.127,9.127,0,0,0,3.037-2.807,4.218,4.218,0,0,0,.186-.433c.068-.171.162-.259.234-.406a3.719,3.719,0,0,0,.235-.744,7.551,7.551,0,0,0,.151-1.838,3.164,3.164,0,0,0-1.069-1.862,7.954,7.954,0,0,0-1.881-1.219c-.286-.129-.17-.206-.31-.539a1.768,1.768,0,0,0-.346-.462c-.3-.312-.607-.515-.9-.841a8.059,8.059,0,0,1-1.035-1.313c-.114-.2-.252-.4-.359-.576a.88.88,0,0,1-.026-.981c.511-.779,1.462.164,1.9.579a22.751,22.751,0,0,0,2.626,1.825,23.7,23.7,0,0,0,2.127,1.717c.942.493,2.446.555,3.471,1a4.746,4.746,0,0,1,1.947,2.485c.338.752.649,1.537.947,2.3.12.308.274.618.372.958.109.376.151.793.234,1.185a15.455,15.455,0,0,1,.352,2.093c.067.921.137,1.833.272,2.739a8.318,8.318,0,0,0,.767,2.92c.183.318.349.243.669.113a4.613,4.613,0,0,0,1.56-1.079,7.173,7.173,0,0,0,1.467-3.049c.189-.7.279-1.439.474-2.136.14-.5.3-1.032.488-1.51a6.029,6.029,0,0,1,.7-1.17,8.459,8.459,0,0,1,1.4-1.746c.279-.239.558-.5.837-.737.146-.126.162-.181.3.015a35.029,35.029,0,0,1,1.775,3.5,12.885,12.885,0,0,1,.929,2.62,11.918,11.918,0,0,1,.377,1.7,10.222,10.222,0,0,1-.015,2.308c-.109,1.121-.336,2.241-.4,3.361-.038.659.267,1.1.271,1.72.355-.219.573-1.113.752-1.609.13-.359.281-.711.429-1.053.218-.5.415-1.1.67-1.547a5.005,5.005,0,0,1,.645-1.028c.359-.292.5.11.689.468.318.612.674.468,1.135.217a1.88,1.88,0,0,0,.827-1.2,7.359,7.359,0,0,0,.257-1.147,14.853,14.853,0,0,0,.207-2.045,8.582,8.582,0,0,0-.507-2.2c-.1-.314-.249-.66.089-.838a3.378,3.378,0,0,1,.9-.278,5.321,5.321,0,0,1,.959-.086c.6-.005,1.07-.514,1.609-.992a10.957,10.957,0,0,0,1.01-1.06,14.425,14.425,0,0,0,.828-1.217,4.476,4.476,0,0,0,.538-1.342c.105-.343.239-.708.361-1.029q.142-.322.267-.667.123-.42.22-.859a17.935,17.935,0,0,0,.6-2.908c.086-.885.062-1.867.12-2.774a5.958,5.958,0,0,0-.257-2.647,5.541,5.541,0,0,1,.832-1.094c.149-.181.2-.154.368-.174.115-.014.217-.117.332-.1.258.043.471.53.679.781.1.119.25.2.306.385.075.245.089.552.173.806a8.188,8.188,0,0,1,.281.878c.093.426.115.888.19,1.324.048.278.089.7.247.807.23.158.562-.492.692-.885a4.464,4.464,0,0,0,.1-1.181c-.013-.622-.185-1.191-.182-1.825a1.1,1.1,0,0,1,.335-.8c.252-.346.488-.722.73-1.076a1.334,1.334,0,0,1,.517-.4,9.7,9.7,0,0,0,.821-.532,2.729,2.729,0,0,0,.656-.85c.187-.343.352-.727.53-1.081.077-.154.175-.277.25-.433a5.206,5.206,0,0,0,.229-.8c.336-1.254.684-2.536.989-3.788a3.4,3.4,0,0,0,.01-1.258,4.492,4.492,0,0,0-.347-.916,4.06,4.06,0,0,1-.283-1.044,9.036,9.036,0,0,1-.158-1.085,2.451,2.451,0,0,1,.161-.9,3.437,3.437,0,0,1,.619-1.147,68.337,68.337,0,0,0-9.5-18.62c-.252-.115-.5-.237-.749-.375-.794-.448-1.588-.918-2.382-1.368-.318-.18-.637-.288-.958-.469-.175-.1-.345-.226-.521-.313a6.147,6.147,0,0,0-1.152-.451c-.276-.071-.541-.258-.823-.329-.163-.45-.251-.925-.37-1.356a1.6,1.6,0,0,0-.163-.536,3.31,3.31,0,0,0-1.14-.7c-.445-.213-.885-.459-1.331-.624-.294-.109-.581-.167-.867-.256a6.115,6.115,0,0,0-2.277-.265c-1.309.135-2.632.234-3.927.5a4.537,4.537,0,0,0-2.489.941,4.3,4.3,0,0,0-.381.484,4.235,4.235,0,0,1-.4.652,1.484,1.484,0,0,1-.4.264,1.158,1.158,0,0,1-.562.083c-.225,0-.395.127-.622.119-.195-.006-.412-.086-.607-.092a5.422,5.422,0,0,1-2.238-.52,3.86,3.86,0,0,1-.619-.33c-.119-.095-.2-.25-.318-.346a1.52,1.52,0,0,0-.6-.214,4.315,4.315,0,0,0-1.148-.132,1.484,1.484,0,0,0-1.406,1.288,13.605,13.605,0,0,0,.406,2.619,1.006,1.006,0,0,1,0,.589c-.126.227-.526.137-.75.133a24.33,24.33,0,0,1-3.63-.449,8.183,8.183,0,0,0-2.3-.235,7.774,7.774,0,0,0-1.527.3c-.586.2-1.195.371-1.806.513-.74.172-1.478.385-2.223.546a14.266,14.266,0,0,0-2.265.76c-.087.035-.232.127-.329.111-.216-.036-.51-.46-.632-.634a1.967,1.967,0,0,1-.313-1.135c.451-.1.927-.042,1.381-.137.159-.033.359-.035.457-.183a1.893,1.893,0,0,0,.085-.894c-.009-.314.038-.49-.26-.662a3.787,3.787,0,0,0-.481-.175,6.729,6.729,0,0,1-.728-.383,10.513,10.513,0,0,0-1.946-.838,8.42,8.42,0,0,0-1.948-.475c-.535-.037-1.072-.1-1.606-.145a16.75,16.75,0,0,0-2.868-.073,7.161,7.161,0,0,0-2.3.667,5.007,5.007,0,0,0-1.7,1.433c-.92,1.23-1.854,2.547-2.83,3.734a12.924,12.924,0,0,0-1.941,2.939,5.686,5.686,0,0,0-.372,1.423,2.338,2.338,0,0,0,.028,1.422,1.346,1.346,0,0,0,.765.71,2.334,2.334,0,0,0,1.211.012,2.032,2.032,0,0,0,1.008-.368c.086-.062.056-.16.171-.152.136.009.167.272.189.393a3.563,3.563,0,0,1,0,.96c-.021.276.027.483-.227.57-.116.04-.253-.032-.371.006-.088.029-.2.161-.282.2-.186.081-.379.043-.569.143a5.705,5.705,0,0,0-.729.531,4.605,4.605,0,0,0-1.192,1.675,1.4,1.4,0,0,1-.463.606c-.624.419-1.344.727-2,1.079a10.668,10.668,0,0,0-1.145.711,2.245,2.245,0,0,0-.759.673,13.556,13.556,0,0,0-.506,1.5,2.2,2.2,0,0,1-.714,1.1c-.243.125-.739.091-.926.371a2.244,2.244,0,0,0-.186.787,3.063,3.063,0,0,0,.2,1.5,2.858,2.858,0,0,1,.258,1.164,4.963,4.963,0,0,1-.1,1.647,1.189,1.189,0,0,1-.559.538c-.359.154-.865-.151-1.211-.255a9.192,9.192,0,0,1-.929-.333l-.153-.064c-.593.417-.641,1.339-.845,1.938-.381,1.119-1.959,2.408-1.393,3.769.17.409.456.527.69.823a4.137,4.137,0,0,1,.2.427c.391.639-.064,1.678-.244,2.314a3.267,3.267,0,0,1-.635,1.283,20.575,20.575,0,0,1-1.19,1.976,12.856,12.856,0,0,0-.927,1.836c-.384.769-.787,1.549-1.1,2.337-.223.556-.511,1.07-.737,1.626a17.792,17.792,0,0,1-.9,1.968,12.481,12.481,0,0,0-1.28,2.943,16.3,16.3,0,0,0-.3,2.476,7.837,7.837,0,0,0,.095,2.419c.144.587.311,1.189.485,1.754.4,1.286.739,2.6,1.023,3.919a16,16,0,0,0,.337,1.582,9.658,9.658,0,0,0,.453,1.064,10.159,10.159,0,0,0,.52,1.246,1.119,1.119,0,0,0,.993.541,11.344,11.344,0,0,0,2.16.1,15.147,15.147,0,0,1,1.628-.019,3.173,3.173,0,0,0,1.2-.451,5,5,0,0,1,1.34-.5,1.176,1.176,0,0,0,.478-.08c.1-.061.16-.245.244-.319a1.9,1.9,0,0,1,.954-.235,1.655,1.655,0,0,1,.695.034c.369.118.571.612.793,1a7.637,7.637,0,0,1,.589,1.256,6.918,6.918,0,0,1,.3,1.079,7.453,7.453,0,0,0,.459,1.369,12.263,12.263,0,0,1,.647,2.473c.083.458.156.943.275,1.379.129.477.319.922.443,1.375a4.136,4.136,0,0,1,.265,1.578c-.084.883-.161,1.77-.239,2.654q-.076.86-.152,1.706c-.033.366-.042.746-.094,1.1-.056.389-.165.72-.2,1.113a12.319,12.319,0,0,0-.032,3.133,14.953,14.953,0,0,0,.469,1.582c.13.458.346.8.505,1.222.287.766.664,1.54.877,2.337a10.992,10.992,0,0,1,.194,2.1,8.748,8.748,0,0,0,.085,1.546,2.536,2.536,0,0,0,1.436,1.716,6.177,6.177,0,0,0,1.195.444m2.591-53.545a5.1,5.1,0,0,1-.916-.094c-.679-.179-1.206-1.108-1.555-1.651a22.311,22.311,0,0,0-1.558-1.9,2.92,2.92,0,0,1-.311-1.448,9.557,9.557,0,0,0-.273-2.126,1.375,1.375,0,0,0-.725-.8,3.744,3.744,0,0,0-1.126-.385,2.737,2.737,0,0,0-1.09.065,14.453,14.453,0,0,0-1.507.411,8.444,8.444,0,0,0-1,.411c-.246.136-.473.353-.715.5a9.722,9.722,0,0,1-1.574.685c-.242.093-.557.124-1.085.266a2.321,2.321,0,0,1,.079-1.451,4.657,4.657,0,0,1,.663-.816,1.98,1.98,0,0,1,.87-.616c.231-.08.8-.082.946-.45.058-.146.083-.467.124-.617a8.111,8.111,0,0,1,.471-1.4,4.962,4.962,0,0,1,.874-1.216c.377-.4.806-.683,1.17-1.11a5.84,5.84,0,0,1,1.395-1.044c.236-.157.461-.355.7-.5a1.682,1.682,0,0,1,.832-.212,3.556,3.556,0,0,1,.863-.011c.343.065.545.5.734.847.455.847.67,1.833,1.074,2.7.1.209.228.514.44.488s.357-.442.451-.686a3.549,3.549,0,0,0,.281-1.294,4.107,4.107,0,0,0-.6-1.649,1.9,1.9,0,0,1-.175-.717c0-.291.114-.214.314-.274a8.415,8.415,0,0,0,1.155-.453,3.443,3.443,0,0,1,.656-.348c.188-.037.331.074.471.233a3.36,3.36,0,0,1,.739,1.146c.26.8.345,1.725.558,2.531a3.143,3.143,0,0,0,1.488,1.969,2.359,2.359,0,0,0,1.884.355c.223-.1.413-.3.628-.424a.676.676,0,0,1,.709.086c1.315.9.232,3.368.964,4.656a1.2,1.2,0,0,0,.952.525c.431.059.866.1,1.3.116.5.018.979-.094,1.47-.047.25.024.42-.059.493.335a3.549,3.549,0,0,1-.024.961,3.714,3.714,0,0,1-.438,1.335,3.862,3.862,0,0,1-1.581,1.791,5.748,5.748,0,0,1-3.051.227,3.572,3.572,0,0,1-.973-.1c-.194-.08-.375-.239-.568-.331a5.529,5.529,0,0,0-1.916-.567c-.257-.021-.515-.036-.771-.068-.176-.022-.311-.059-.475.085a3.225,3.225,0,0,0-.625.856,6.983,6.983,0,0,1-.509,1,.6.6,0,0,1-.6.229" transform="translate(-1070.636 -577.135)" fill="#fff"/>
      <path id="Trazado_586292" data-name="Trazado 586292" d="M1477.474,1226.95c-.068.353-.144.558.1.736a.81.81,0,0,0,.688.155,4.588,4.588,0,0,0,.73-.356,3.6,3.6,0,0,0,1.287-1.311c.422-.627.752-1.332,1.155-1.97.27-.428.574-.844.864-1.27a1.611,1.611,0,0,0,.3-.62,10.263,10.263,0,0,1,.273-1.49,4.421,4.421,0,0,0,.114-.769,3.651,3.651,0,0,0-.158-1.09.588.588,0,0,0-.706-.453c-.558.12-.871.952-1.2,1.464a4.089,4.089,0,0,1-.566.771c-.163.161-.338.276-.5.43-.35.329-.666.706-1.01,1.035a2.511,2.511,0,0,0-.779,1.443c-.056.441.073.825.028,1.253-.039.366-.217.5-.351.806a5.867,5.867,0,0,0-.273,1.235" transform="translate(-1247.296 -1028.711)" fill="#fff"/>
      <path id="Trazado_586293" data-name="Trazado 586293" d="M1689.922,1139.666a5.475,5.475,0,0,0-.539-.974c-.287-.439-.539-.952-.855-1.35a3.491,3.491,0,0,1-.391-.568c-.052-.1-.1-.2-.156-.293-.107-.186-.2-.4-.311-.575a4.138,4.138,0,0,0-.478-.6c-.1-.1-.242-.116-.328-.228-.056-.072-.016-.215-.283.19.209.719.609,1.245.862,1.908a9.709,9.709,0,0,0,.474,1.1,6.14,6.14,0,0,1,.448.91,7.5,7.5,0,0,1,.355,1.381c.074.51.229.96.322,1.452a3.665,3.665,0,0,0,.184.709,1.463,1.463,0,0,1,.151.361,4.033,4.033,0,0,0,.2.735.416.416,0,0,0,.272.291.32.32,0,0,0,.417-.143,2.112,2.112,0,0,0,.349-1.215,6.716,6.716,0,0,0-.4-2.069c-.1-.334-.168-.712-.294-1.026" transform="translate(-1423.89 -958.216)" fill="#fff"/>
      <path id="Trazado_586294" data-name="Trazado 586294" d="M1727.478,1130.417a3.072,3.072,0,0,0,.056-.519.683.683,0,0,0-.318-.509,1.5,1.5,0,0,0-.828-.212c-.262-.012-.594-.12-.868.124a2.848,2.848,0,0,0-.694,1.6,4.464,4.464,0,0,1-.076.575,2.958,2.958,0,0,1-.258.563,3.693,3.693,0,0,1-.492.637,3.367,3.367,0,0,1-.873.7c-.059.323-.179.6-.23.938a7,7,0,0,0-.142,1.543,1.248,1.248,0,0,0,.57,1.043,1.434,1.434,0,0,0,.178.2c.1.048.2.09.3.128a1.5,1.5,0,0,0,.57.079,1.285,1.285,0,0,0,.816-.251c.159-.118.3-.3.456-.427a1.976,1.976,0,0,0,.324-.355,6.76,6.76,0,0,0,.384-.652,7.584,7.584,0,0,0,.355-.777c.055-.125.118-.232.168-.369a5.332,5.332,0,0,0,.152-.745,8.364,8.364,0,0,0,.179-1.683,5.239,5.239,0,0,1,.112-1c.05-.215.128-.4.163-.637" transform="translate(-1454.422 -953.275)" fill="#fff"/>
      <path id="Trazado_586295" data-name="Trazado 586295" d="M1791.148,1170.921a1,1,0,0,0-.306.094c-.033.027-.048.08-.075.109a2.245,2.245,0,0,0-.213.216c-.118.153-.212.3-.346.336a1.107,1.107,0,0,1-.242.006c-.05,0-.245-.041-.318.025a.251.251,0,0,1,.046.149c-.527.249-.526.567-.5.753a.367.367,0,0,0,.131.252,1.126,1.126,0,0,1,.236.271,1.04,1.04,0,0,0,.318.293c.085.063.153.048.237.086a.9.9,0,0,1,.411.526c.189.538.212,1.254.366,1.816.016.058.029.128.042.2q1.16-2.055,2.167-4.168c-.186-.2-.383-.391-.577-.577a1.342,1.342,0,0,0-1.373-.389" transform="translate(-1510.512 -988.495)" fill="#fff"/>
      <path id="Trazado_586296" data-name="Trazado 586296" d="M1709.531,1220.316c0-.154.083-.353.1-.525a1.665,1.665,0,0,0-.2-.972c-.1-.2-.187-.472-.349-.579s-.321-.115-1.1.143a8.3,8.3,0,0,0-.96,1.586c-.031.057-.075.178-.107.226a.9.9,0,0,1-.168.148c-.139.129-.2.2-.316.154s-.185-.242-.28-.34c-.112-.116-.317-.049-.478-.046-.4.008-.894.727-1.187,1.3a5.109,5.109,0,0,1-.546.816c-.165.213-.308.461-.475.669a2.047,2.047,0,0,1-.433.372c-.246.182-.492.377-.739.577a13.292,13.292,0,0,1-1.224.944,3.324,3.324,0,0,1-.962.46c-.134.03-.256.066-.391.108a1.587,1.587,0,0,0-.42.281,4.281,4.281,0,0,0-.982,1.255,8.735,8.735,0,0,0-.53,1.425,2.336,2.336,0,0,0-.13.883,5.924,5.924,0,0,1-.047.792,6.883,6.883,0,0,1-.234,1.284,10.629,10.629,0,0,1-.446,1.343c-.134.351-.306.674-.44,1.016s-.277.606-.131.822c.1.149.256.141.446.133.134-.006.268-.012.4-.023a69.56,69.56,0,0,0,12.4-13.871,1.819,1.819,0,0,1-.063-.38" transform="translate(-1432.084 -1028.44)" fill="#fff"/>
      <path id="Trazado_586297" data-name="Trazado 586297" d="M2209.266,1249.966a29,29,0,0,1-9.653-6.347c-4.189-4.341-3.46-12.781-1.457-14.995s4.754,2.413,4.754,2.413-2.75-12.737,1.985-14.458,8.814,8.265,8.814,8.265,4.207,1.022,6.53,3.78.137,22.379-10.973,21.342" transform="translate(-1854.433 -1026.925)" fill="#47b574"/>
      <path id="Trazado_586298" data-name="Trazado 586298" d="M2292.878,1151.815a23.2,23.2,0,0,1-6.965-7.2c-2.84-4.7-4.229-26.369,7.333-26.369,4.173,0,4.42,12.639,4.42,12.639s4.892-2.208,6.426.747-2.473,22.242-11.214,20.183" transform="translate(-1928.204 -944.075)" fill="#47b574"/>
      <path id="Trazado_586299" data-name="Trazado 586299" d="M2382.41,1256.939a11.143,11.143,0,0,0,8.978-2.887c3.985-3.778,10.721-26.508-.427-29.576-4.024-1.107-7.981,9.726-7.981,9.726s-3.765-2.139-6.028.3-3.516,22.1,5.458,22.434" transform="translate(-2005.348 -1033.692)" fill="#47b574"/>
      <path id="Trazado_586300" data-name="Trazado 586300" d="M2141.578,1773.836s-32.894-1.135-36.848,2.3,21.822,3.1,21.822,3.1-4.911.457-1.323,1.647,45.586.3,45.586-3.006c0-2.619-9.692-3.967-29.237-4.048" transform="translate(-1776.563 -1497.403)" fill="#7f635d"/>
      <path id="Trazado_586301" data-name="Trazado 586301" d="M2284.8,1306.448s.447-36.407.67-38.015-6.252-14.184-6.921-16.377c-.537-1.756-.93-11.061-1.065-14.7a.316.316,0,0,1,.6-.151l.2.4a8.653,8.653,0,0,1,.869,3.045c.267,2.841.966,8.772,2.3,10.962,1.783,2.925,3.708,10.674,4.755,11.552s.488-7.046.6-9.738-.234-23.455.051-25.649.62-9.212.843-9.651,1.231-1.316,1.789,1.609-.45,24.127-.115,25.589.042,11.844.188,12.868,7.738-8.042,8.855-11.844,3.238-16.775,3.907-16.649,1.34,1.776,1.34,2.413-2.791,15.58-2.791,15.58,2.01,2.312,5.024-5.292l3.014-7.6,1.344.438s-3.576,11.7-5.809,13.746a5.109,5.109,0,0,1-5.128.846s-5.483,10.8-8.774,11.557c0,0-1.616,12.063-1.728,18.327s.446,26.732.446,26.732Z" transform="translate(-1922.758 -1028.004)" fill="#7f635d"/>
      <path id="Trazado_586302" data-name="Trazado 586302" d="M254.649,1354.655c-.168-.129-.124-.444.067-.465l.736-.079c1.9-.2,3.242-2.344,2.982-4.753a4.881,4.881,0,0,0-1.762-3.352c-.169-.129-.125-.444.066-.464h.005c1.9-.2,3.242-2.344,2.982-4.753s-2.027-4.213-3.927-4.008l-25.7,2.773c-1.9.2-3.242,2.344-2.982,4.753s2.027,4.213,3.927,4.008h.005c.191-.021.3.278.164.44a4.88,4.88,0,0,0-1.007,3.65c.26,2.409,2.027,4.213,3.927,4.008l.736-.079c.191-.021.3.278.164.44a4.879,4.879,0,0,0-1.007,3.65c.26,2.41,2.027,4.213,3.927,4.008,0,0,1.14,7.079,8.557,6.7s6.919-8.375,6.919-8.375c1.9-.205,3.242-2.344,2.982-4.753a4.88,4.88,0,0,0-1.762-3.352" transform="translate(-191.716 -1128.558)" fill="#b1d5de"/>
      <path id="Trazado_586303" data-name="Trazado 586303" d="M227.593,1122.137a29.484,29.484,0,0,0-3.232-3.628c-2.174-2.071-3.694-2.9-4.166-2.949-.054.737.447,4.161,4.933,19.42,1.322,4.5,2.674,8.943,3.7,12.288,4.964-.542,12.171-1.332,16.869-1.856,1.352-7.388,3.446-19.351,3.315-21.911-.02-.4-.036-.852-.052-1.33-.088-2.621-.236-7.008-1.741-7.742-.529-.258-1.278-.04-2.226.65a13.163,13.163,0,0,0-3.835,4.914c1,3.494,1.5,6.365.6,7.528a1.422,1.422,0,0,1-1.268.544,1.744,1.744,0,0,1-1.566-1.418c-.4-1.384-.044-3.73.94-6.123.078-.19.169-.4.272-.627-.395-1.363-.829-2.7-1.182-3.79q-.115-.353-.218-.674c-.537-1.665-1.57-2.7-2.835-2.854-1.83-.216-3.947,1.411-5.806,4.464a11.769,11.769,0,0,0-1.5,4.821c1.483,2.045,3.2,5.055,2.738,7.575-.132.728-.391,1.714-1.1,1.875-.288.065-.723.01-1.173-.617a12.954,12.954,0,0,1-1.506-6.045,18.715,18.715,0,0,1,.047-2.516" transform="translate(-185.895 -939.276)" fill="#ffe164"/>
      <path id="Trazado_586304" data-name="Trazado 586304" d="M275.37,1188.168c.3-1.623-.528-3.733-1.89-5.841a16.717,16.717,0,0,0,.794,5.572,3.183,3.183,0,0,0,.736,1.351,2.53,2.53,0,0,0,.36-1.082" transform="translate(-230.882 -998.176)" fill="#ffe164"/>
      <path id="Trazado_586305" data-name="Trazado 586305" d="M345.707,1174.382c.2.7.566.72.7.729a.465.465,0,0,0,.45-.173c.238-.308.532-1.294-.181-4.436-.08-.354-.169-.715-.263-1.081a9.057,9.057,0,0,0-.707,4.961" transform="translate(-291.754 -987.28)" fill="#ffe164"/>
      <path id="Trazado_586306" data-name="Trazado 586306" d="M186.624,1004.64a25.522,25.522,0,0,0-19.1-5.381,25.7,25.7,0,0,0-15.1,43.64,25.95,25.95,0,0,1,5.541,8.094,1.764,1.764,0,0,0,1.81,1.059l4.555-.5c-1.059-3.445-2.447-8.016-3.791-12.6-5.531-18.857-4.965-19.5-4.626-19.89.51-.581,1.445-.13,1.753.018a24.184,24.184,0,0,1,6.573,5.884,12.122,12.122,0,0,1,1.508-4.244c2.824-4.639,5.434-5.073,6.739-4.919,1.655.2,2.98,1.476,3.637,3.514l.217.672c.313.966.617,1.918.9,2.839a13.362,13.362,0,0,1,3.666-4.347c1.258-.915,2.339-1.163,3.213-.737,2.024.987,2.166,5.193,2.28,8.573.016.473.031.92.051,1.313.135,2.647-1.914,14.4-3.275,21.848,1.668-.187,2.906-.328,3.435-.394a1.761,1.761,0,0,0,2.017-1.4,25.851,25.851,0,0,1,3.676-9.072,25.7,25.7,0,0,0-5.677-33.972" transform="translate(-122.369 -843.458)" fill="#ffe164"/>
      <rect id="Rectángulo_39034" data-name="Rectángulo 39034" width="5.868" height="12.479" transform="translate(297.845 22.988) rotate(-1.057)" fill="#5cbec6"/>
      <rect id="Rectángulo_39035" data-name="Rectángulo 39035" width="5.868" height="14.8" transform="translate(307.095 20.495) rotate(-1.057)" fill="#5cbec6"/>
      <rect id="Rectángulo_39036" data-name="Rectángulo 39036" width="5.868" height="18.158" transform="translate(316.326 16.967) rotate(-1.057)" fill="#5cbec6"/>
      <rect id="Rectángulo_39037" data-name="Rectángulo 39037" width="5.868" height="20.858" transform="translate(325.569 14.096) rotate(-1.057)" fill="#5cbec6"/>
      <path id="Trazado_586307" data-name="Trazado 586307" d="M2084.7.53,2077.576,0l5.119,7.388Z" transform="translate(-1753.987 0.001)" fill="#ffe164"/>
      <path id="Trazado_586308" data-name="Trazado 586308" d="M1901.627,29.063l-2.135-2.983,17.257-12.35,3.024,4.454,9.441-6.232,2.021,3.062-12.464,8.228-2.945-4.339Z" transform="translate(-1603.64 -10.089)" fill="#ffe164"/>
      <path id="Trazado_586309" data-name="Trazado 586309" d="M2166,413.851a1.072,1.072,0,0,0-1.091-.959l-3.012.161a14.173,14.173,0,0,0-2.689-4.311l1.468-2.633a1.073,1.073,0,0,0-.383-1.4l-2.534-1.81a1.073,1.073,0,0,0-1.45.093l-2.015,2.242a14.167,14.167,0,0,0-4.951-1.145l-.824-2.9a1.073,1.073,0,0,0-1.262-.721l-3.072.512a1.073,1.073,0,0,0-.96,1.091l.161,3.012a14.157,14.157,0,0,0-4.312,2.689l-2.633-1.468a1.073,1.073,0,0,0-1.4.383l-1.811,2.535a1.073,1.073,0,0,0,.093,1.45l2.242,2.015a14.163,14.163,0,0,0-1.145,4.951l-2.9.825a1.073,1.073,0,0,0-.721,1.261l.512,3.072a1.073,1.073,0,0,0,1.091.959l3.012-.161a14.173,14.173,0,0,0,2.688,4.312l-1.467,2.633a1.073,1.073,0,0,0,.382,1.4l2.535,1.81a1.073,1.073,0,0,0,1.45-.093l2.015-2.243a14.157,14.157,0,0,0,4.95,1.145l.824,2.9a1.073,1.073,0,0,0,1.261.721l3.073-.512a1.073,1.073,0,0,0,.959-1.091l-.161-3.012a14.166,14.166,0,0,0,4.312-2.689l2.633,1.468a1.073,1.073,0,0,0,1.4-.382l1.811-2.535a1.073,1.073,0,0,0-.093-1.45l-2.243-2.015a14.151,14.151,0,0,0,1.145-4.95l2.9-.825a1.073,1.073,0,0,0,.721-1.261Zm-13.321,7.344a4.945,4.945,0,1,1-1.15-6.9,4.945,4.945,0,0,1,1.15,6.9" transform="translate(-1798.907 -338.075)" fill="#529ae3"/>
      <path id="Trazado_586310" data-name="Trazado 586310" d="M2294.894,171.568l-1.949-3.98a1.527,1.527,0,0,0-1.878-.863l-4.038,1.446a20.163,20.163,0,0,0-5.423-4.779l.928-4.189a1.526,1.526,0,0,0-1.092-1.755l-4.192-1.436a1.526,1.526,0,0,0-1.938.717l-1.834,3.879a20.156,20.156,0,0,0-7.215.452l-2.3-3.617a1.527,1.527,0,0,0-2.013-.469l-3.979,1.949a1.526,1.526,0,0,0-.864,1.878l1.446,4.038a20.147,20.147,0,0,0-4.78,5.423l-4.189-.929a1.526,1.526,0,0,0-1.755,1.092l-1.436,4.192a1.526,1.526,0,0,0,.717,1.939l3.879,1.834a20.151,20.151,0,0,0,.452,7.215l-3.617,2.3a1.526,1.526,0,0,0-.469,2.013l1.949,3.979a1.526,1.526,0,0,0,1.878.864l4.038-1.446a20.154,20.154,0,0,0,5.423,4.779l-.929,4.189a1.527,1.527,0,0,0,1.092,1.755l4.192,1.436a1.526,1.526,0,0,0,1.938-.717l1.834-3.879a20.155,20.155,0,0,0,7.215-.452l2.3,3.617a1.526,1.526,0,0,0,2.013.469l3.979-1.949a1.527,1.527,0,0,0,.864-1.878l-1.446-4.038a20.16,20.16,0,0,0,4.78-5.423l4.189.929a1.527,1.527,0,0,0,1.755-1.092l1.435-4.192a1.526,1.526,0,0,0-.717-1.939l-3.879-1.834a20.161,20.161,0,0,0-.452-7.215l3.617-2.3a1.526,1.526,0,0,0,.469-2.013m-20.677,15.495a7.035,7.035,0,1,1,3.223-9.412,7.035,7.035,0,0,1-3.223,9.412" transform="translate(-1896.421 -131.628)" fill="#5cbec6"/>
      <path id="Trazado_586311" data-name="Trazado 586311" d="M610.278,189l20.255-6.009a8.112,8.112,0,0,1,4.6,0L655.558,189a.5.5,0,0,1,.008.966l-20.3,6.351a8.111,8.111,0,0,1-4.86-.005l-20.132-6.346a.5.5,0,0,1,.008-.966" transform="translate(-514.92 -154.204)" fill="#54678c"/>
      <path id="Trazado_586312" data-name="Trazado 586312" d="M662.413,259.541l12.2,3.666a10.493,10.493,0,0,0,6.26-.069l11.073-3.6V272.18a1.222,1.222,0,0,1-.53,1.009c-1.439.988-5.86,3.464-13.854,3.31,0,0-6.355.787-14.472-3.293a1.23,1.23,0,0,1-.679-1.1Z" transform="translate(-559.24 -219.116)" fill="#54678c"/>
      <path id="Trazado_586313" data-name="Trazado 586313" d="M605.371,238.6l1.63.671v10.39a4.757,4.757,0,0,1,1.151,3.4c-.24,1.87-3.021,1.966-3.692.432s.911-4.075.911-4.075Z" transform="translate(-510.174 -201.438)" fill="#ff5f4a"/>
      <path id="Trazado_586314" data-name="Trazado 586314" d="M392.121,197.219v-24.91a.367.367,0,0,1,.724-.086l4.3,17.74a4.005,4.005,0,0,1-1.255,3.958Z" transform="translate(-331.047 -145.161)" fill="#b1d5de"/>
      <path id="Trazado_586315" data-name="Trazado 586315" d="M400.992,352.326,422.945,364.1a.367.367,0,0,1-.266.679l-17.666-4.594a4.006,4.006,0,0,1-2.9-2.977Z" transform="translate(-338.536 -297.45)" fill="#b1d5de"/>
      <path id="Trazado_586316" data-name="Trazado 586316" d="M263.8,341.555l-21.991,11.7a.367.367,0,0,1-.416-.6l13.641-12.129a4.006,4.006,0,0,1,4.084-.751Z" transform="translate(-203.691 -286.635)" fill="#b1d5de"/>
      <path id="Trazado_586317" data-name="Trazado 586317" d="M379.546,328.311a2.569,2.569,0,1,0,2.569,2.569,2.569,2.569,0,0,0-2.569-2.569m0,3.74a1.172,1.172,0,1,1,1.172-1.172,1.172,1.172,0,0,1-1.172,1.172" transform="translate(-318.262 -277.175)" fill="#b1d5de"/>
      <path id="Trazado_586318" data-name="Trazado 586318" d="M380.6,356.782l-1.731,55.985h5.386l-2.483-55.7Z" transform="translate(-319.861 -301.212)" fill="#b1d5de"/>
      <path id="Trazado_586319" data-name="Trazado 586319" d="M2435.153,743.349a1.023,1.023,0,0,1-.969-.694l-1.025-3.026-3.269,10.612a1.022,1.022,0,0,1-.977.721l-.057,0a1.022,1.022,0,0,1-.948-.829l-3-15.654-5.577,8.74a1.023,1.023,0,0,1-1.779-.1l-1.171-2.366-1.633,1.616a1.022,1.022,0,0,1-.719.3h-12.32c6.115,13.754,25.459,22.611,25.459,22.611s18.707-8.565,25.144-21.929Z" transform="translate(-2027.639 -620.079)" fill="#ff5f4a"/>
      <path id="Trazado_586320" data-name="Trazado 586320" d="M2390.958,645.849h12.694l2.341-2.318a1.022,1.022,0,0,1,1.635.273l1,2.012,5.985-9.38a1.023,1.023,0,0,1,1.866.358l2.707,14.145,2.99-9.709a1.024,1.024,0,0,1,.963-.722h.014a1.022,1.022,0,0,1,.968.694l1.8,5.327h17.3a19.906,19.906,0,0,0,1.256-5.988c.852-17.869-18.407-25.776-27.27-9.351-8.862-16.425-28.122-8.518-27.269,9.351a19.669,19.669,0,0,0,1.016,5.306" transform="translate(-2017.678 -525.306)" fill="#ff5f4a"/>
      <path id="Trazado_586321" data-name="Trazado 586321" d="M2814.712,1029.876a.888.888,0,0,1-.035,1.776c-.088.006-1.174.13-1.746,2.446a4.35,4.35,0,0,0,.53,3.447,4.484,4.484,0,0,0,2.971,1.939,5.31,5.31,0,0,0,3.969-.821,3.894,3.894,0,0,0,1.62-2.641c.4-2.674-1.865-4.668-1.887-4.688a.888.888,0,0,1,.588-1.561l10.366.085.072-8.744a.889.889,0,0,1,1.514-.624,3.842,3.842,0,0,0,2.758.958,4.932,4.932,0,0,0,3.285-1.143c1.179-1.2,1.626-5.29.059-6.924-1.3-1.353-4.478-1.185-5.594-1.007a.889.889,0,0,1-1.03-.885l.064-7.831-11.735-.1a.888.888,0,0,1-.753-1.348l.822-1.362c.015-.024.031-.048.049-.071a4.593,4.593,0,0,0-.808-6.4,4.785,4.785,0,0,0-4.163-.449,3.806,3.806,0,0,0-2.641,2.8,5.112,5.112,0,0,0,1.536,5.327.888.888,0,0,1-.532,1.605l-9.943-.082-.058,7.081c.105-.067.214-.134.326-.2a6.831,6.831,0,0,1,4.771-.8,8.081,8.081,0,0,1,2.157.765,5.155,5.155,0,0,1,2.822,4.154,6.668,6.668,0,0,1-.265,2.573c-.708,2.385-2.743,4.664-5.261,4.409-2.365-.24-3.668-.493-4.63-1.05l-.076,9.276,10.855.09h.025" transform="translate(-2367.126 -838.9)" fill="#529ae3"/>
      <path id="Trazado_586322" data-name="Trazado 586322" d="M2572.013,1065.859a.888.888,0,0,1-1.357.747,5.487,5.487,0,0,0-4.379-.918,4.7,4.7,0,0,0-2.838,2.566,4.217,4.217,0,0,0-.144,3.527,4.523,4.523,0,0,0,2.765,2.514,5.062,5.062,0,0,0,4.463-.486.891.891,0,0,1,1.419.72l-.064,7.831,8.232.068a9.421,9.421,0,0,1-.846-4.6,5.486,5.486,0,0,1,4.529-5.391c2.476-.557,5.643.211,6.908,2.76a9.413,9.413,0,0,1,.486,6.97l7.527.062.093-11.278a.888.888,0,0,1,1.59-.538c.853,1.1,1.3,1.462,4.981,1.837,1.54.158,2.89-1.5,3.377-3.147.029-.1.063-.221.095-.368a5.332,5.332,0,0,0,.125-1.1,3.35,3.35,0,0,0-1.887-3.169,5.3,5.3,0,0,0-6.652,1.174.89.89,0,0,1-1.581-.565l.075-9.048-26.833-.221Z" transform="translate(-2163.784 -891.353)" fill="#ffe164"/>
      <path id="Trazado_586323" data-name="Trazado 586323" d="M479.649,1598.947a18.619,18.619,0,1,0,4.49,13.525,18.5,18.5,0,0,0-4.49-13.525m-14.363,2.591a31.359,31.359,0,0,1-5.348-1.008c1.551-3.323,3.652-5.574,5.853-5.976Zm-.14,1.942-.478,6.609-7.109-.514a30,30,0,0,1,1.63-7.239,33.191,33.191,0,0,0,5.957,1.143m-.618,8.55-.478,6.609a33.177,33.177,0,0,0-6.06.275,30.005,30.005,0,0,1-.572-7.4Zm-.618,8.551-.5,6.983c-2.121-.714-3.876-3.244-4.933-6.755a31.308,31.308,0,0,1,5.438-.229m1.94.14a31.364,31.364,0,0,1,5.348,1.008c-1.551,3.323-3.652,5.574-5.853,5.976Zm.14-1.942.478-6.609,7.109.514a30,30,0,0,1-1.629,7.239,33.162,33.162,0,0,0-5.957-1.144m.618-8.55.478-6.609a33.176,33.176,0,0,0,6.059-.275,30,30,0,0,1,.572,7.4Zm.618-8.551.5-6.984c2.12.715,3.876,3.244,4.933,6.755a31.334,31.334,0,0,1-5.438.228m6.545-2.913a14.769,14.769,0,0,0-1.667-2.975,16.7,16.7,0,0,1,5.955,4.309,20.918,20.918,0,0,1-3.453,1.021,20.861,20.861,0,0,0-.835-2.355m-14.544-1.051a20.809,20.809,0,0,0-1.165,2.211,20.94,20.94,0,0,1-3.27-1.507,16.7,16.7,0,0,1,6.513-3.408,14.769,14.769,0,0,0-2.077,2.7m-1.9,4.01a31.915,31.915,0,0,0-1.71,7.711l-6.58-.476a16.592,16.592,0,0,1,4.3-9.147,22.279,22.279,0,0,0,3.994,1.911m-1.851,9.651a31.907,31.907,0,0,0,.584,7.877,22.312,22.312,0,0,0-4.227,1.317,16.591,16.591,0,0,1-2.937-9.67Zm1.052,9.763a20.87,20.87,0,0,0,.835,2.355,14.782,14.782,0,0,0,1.667,2.975,16.7,16.7,0,0,1-5.955-4.309,20.949,20.949,0,0,1,3.453-1.021m15.379,3.406a20.857,20.857,0,0,0,1.165-2.21,20.929,20.929,0,0,1,3.27,1.507,16.7,16.7,0,0,1-6.513,3.408,14.78,14.78,0,0,0,2.077-2.7m1.9-4.01a31.907,31.907,0,0,0,1.71-7.711l6.58.476a16.59,16.59,0,0,1-4.3,9.147,22.314,22.314,0,0,0-3.994-1.911m1.851-9.651a31.9,31.9,0,0,0-.584-7.877,22.308,22.308,0,0,0,4.227-1.317,16.59,16.59,0,0,1,2.937,9.67Z" transform="translate(-377.335 -1344.47)" fill="#529ae3"/>
      <path id="Trazado_586324" data-name="Trazado 586324" d="M24.516,682.995c-8.439-.7-17.136,4.649-17.136,4.649C6.236,682.412,0,681.352,0,681.352s2.853,5.674,2.9,7.884C2.949,691.531.231,698.1.231,698.1c3.953-.685,6.935-6.473,6.935-6.473a21.566,21.566,0,0,0,15.271,7.067c14.278.344,16.319-8.329,16.319-8.329s-1.257-6.286-14.239-7.368m8.979,7.948a1.216,1.216,0,1,1,1.2-1.232,1.215,1.215,0,0,1-1.2,1.232" transform="translate(0 -575.229)" fill="#abb5b7"/>
      <path id="Trazado_586325" data-name="Trazado 586325" d="M61.088,808.175a.8.8,0,0,1-.126.012,5.738,5.738,0,0,1-4.088-1.6,4.237,4.237,0,0,0-6.087.084,5.813,5.813,0,0,1-8.13.112,4.236,4.236,0,0,0-6.086.084,5.813,5.813,0,0,1-8.13.112,4.226,4.226,0,0,0-3.061-1.247.8.8,0,0,1-.022-1.6,5.736,5.736,0,0,1,4.088,1.6,4.236,4.236,0,0,0,6.087-.084,5.813,5.813,0,0,1,8.13-.112,4.237,4.237,0,0,0,6.087-.084,5.814,5.814,0,0,1,8.131-.112,4.228,4.228,0,0,0,3.061,1.248.8.8,0,0,1,.148,1.589" transform="translate(-20.741 -678.551)" fill="#529ae3"/>
      <path id="Trazado_586326" data-name="Trazado 586326" d="M61.616,846.442a.8.8,0,0,1-.126.012,5.738,5.738,0,0,1-4.088-1.6,4.237,4.237,0,0,0-6.087.084,5.813,5.813,0,0,1-8.13.112,4.236,4.236,0,0,0-6.086.084,5.813,5.813,0,0,1-8.13.112A4.227,4.227,0,0,0,25.907,844a.8.8,0,1,1-.022-1.6,5.736,5.736,0,0,1,4.088,1.6,4.236,4.236,0,0,0,6.086-.084,5.813,5.813,0,0,1,8.13-.112,4.237,4.237,0,0,0,6.087-.084,5.814,5.814,0,0,1,8.131-.112,4.227,4.227,0,0,0,3.061,1.247.8.8,0,0,1,.148,1.589" transform="translate(-21.187 -710.858)" fill="#529ae3"/>
    </g>
  </g>
</svg>
