<svg xmlns="http://www.w3.org/2000/svg" xmlns:xlink="http://www.w3.org/1999/xlink" width="85" height="85" viewBox="0 0 85 85">
  <defs>
    <clipPath id="clip-path">
      <rect id="Rectángulo_39228" data-name="Rectángulo 39228" width="52" height="52" fill="none"/>
    </clipPath>
  </defs>
  <g id="Grupo_850458" data-name="Grupo 850458" transform="translate(-600 -3100)">
    <circle id="Elipse_4771" data-name="Elipse 4771" cx="42.5" cy="42.5" r="42.5" transform="translate(600 3100)" fill="#4acfd9"/>
    <g id="Grupo_850140" data-name="Grupo 850140" transform="translate(617 3117)">
      <g id="Grupo_850139" data-name="Grupo 850139" clip-path="url(#clip-path)">
        <path id="Trazado_586503" data-name="Trazado 586503" d="M30.717,11.745h.737c.187-.243.083-.53.087-.794.016-.872.01-1.745.005-2.618a4.481,4.481,0,0,0-1.365-3.3,6.672,6.672,0,0,0-.987-.859,4.676,4.676,0,0,0-2.68-.815c-2.173.008-4.346,0-6.555,0V1.173c-.289-.125-.206-.434-.4-.6A1.758,1.758,0,0,0,18.339,0c-1.864.015-3.728.006-5.5.006C12.29.3,11.792.524,11.624,1.122V3.361H10.579c-1.763,0-3.527.048-5.288-.012A5.112,5.112,0,0,0,.547,6.109,3.484,3.484,0,0,0,0,7.865c0,.174,0,.349,0,.524Q0,27.661,0,46.934a4.957,4.957,0,0,0,2.29,4.214A4.625,4.625,0,0,0,5.052,52q10.784-.021,21.569-.008a4.377,4.377,0,0,0,3.268-1.376,6.533,6.533,0,0,0,.852-1,4.821,4.821,0,0,0,.808-2.706c-.008-2.2,0-4.391,0-6.591-.286-.142-.565-.031-.83-.069a.641.641,0,0,0-.865.007,2.277,2.277,0,0,0-.3,1.492c-.016,1.606.02,3.213-.014,4.819-.048,2.211-1.167,3.375-3.355,3.385q-10.423.048-20.847,0c-2.189-.009-3.31-1.214-3.32-3.528C1.988,40.424,2.006,34.418,2,28.411q0-9.481,0-18.962a8.305,8.305,0,0,1,.079-1.567,2.793,2.793,0,0,1,1.733-2.2,8.331,8.331,0,0,1,3.9-.2c.257.7-.1.811-.517.855-.654.071-1.314.006-1.969.051A2.111,2.111,0,0,0,3,8.62c-.03.418-.019.838-.019,1.257q0,17.81,0,35.62c0,.1,0,.21,0,.314.009,2.578.577,3.169,3.1,3.172q9.7.01,19.4,0a8.676,8.676,0,0,0,1.14-.042,1.973,1.973,0,0,0,1.908-1.983c.109-1.952.063-3.909.02-5.864-.014-.627-.266-1.082-.965-1.127a1.511,1.511,0,0,0-1.134.355c-.483,1.9.045,4.018-.289,6.032-.815.349-19.306.447-20.6.136a3.293,3.293,0,0,1-.082-2.372c.879-.479,1.982.106,2.944-.523.359-1.038.017-2.483,1.449-3.07,1.392-.571,2.251.493,3.36,1.142a37.178,37.178,0,0,0,4.794-4.7c-.564-1.209-1.727-2.083-1.14-3.525s2.022-1.087,3.242-1.546a41.241,41.241,0,0,0,.01-6.7c-1.168-.545-2.636-.131-3.233-1.562-.587-1.406.417-2.287,1.13-3.435a35.693,35.693,0,0,0-4.738-4.858c-1.15.63-1.991,1.75-3.383,1.185-1.42-.576-1.195-1.973-1.445-3.025-.964-.685-2.018-.154-3.008-.578A13.638,13.638,0,0,1,5.386,8.94a4.515,4.515,0,0,1,2.459-.147c.773,1.59,2.2,1.63,3.712,1.6q4.252-.075,8.506,0c1.48.025,2.87-.025,3.6-1.54a4.74,4.74,0,0,1,2.37-.018c.5.893-.039,1.957.446,2.842a1.094,1.094,0,0,0,.935.352,1.221,1.221,0,0,0,.951-.373,8.438,8.438,0,0,0-.008-3.919,1.823,1.823,0,0,0-1.807-1.319c-.723-.06-1.45,0-2.173-.046-.453-.032-.843-.15-.62-.877a7.388,7.388,0,0,1,4.093.2,2.846,2.846,0,0,1,1.693,2.565c.06.765.01,1.533.033,2.3a1.783,1.783,0,0,0,.288,1.185.623.623,0,0,0,.853-.006" transform="translate(0 -0.001)"/>
        <path id="Trazado_586504" data-name="Trazado 586504" d="M31.69,53.192h.737c.186.243.086.531.087.795.011,1.851-.028,3.7.02,5.553a1.863,1.863,0,0,1-1.264,2.038c-7.241,0-14.6,0-21.967.006a1.736,1.736,0,0,1-1.686-1.241c0-12.843,0-25.765.007-38.687A1.906,1.906,0,0,1,7.8,20.573a1.527,1.527,0,0,1,1.393-.919c1.1-.006,2.21,0,3.362,0V17.976c-1.244,0-2.487-.075-3.718.021a3.181,3.181,0,0,0-2.638,2.01,3.3,3.3,0,0,0-.257,1.366q.037,19.227.009,38.453A3.467,3.467,0,0,0,8.508,63.2a2.077,2.077,0,0,0,.6.049q10.944,0,21.887,0a3.267,3.267,0,0,0,3.177-3.186c.027-2.266.007-4.532.007-6.8.286-.142.565-.031.83-.069V51.515a4.156,4.156,0,0,0-3.341-.075,1.419,1.419,0,0,0,.021,1.752" transform="translate(-4.294 -12.939)" fill="#efcfb3"/>
        <path id="Trazado_586505" data-name="Trazado 586505" d="M82.978,108.111H97.051a10.358,10.358,0,0,1,.037,1.525c.011.518,0,1.037,0,1.605.5.076.763-.338,1.022-.539,1.226-.951,2.545-1.767,3.774-2.71.939-.721,1.96-1.325,2.89-2.066.764-.608,1.618-1.1,2.434-1.642.115-.076.239-.14.371-.216a3.589,3.589,0,0,0-1.346-1.183c-1.311-.934-2.64-1.84-3.932-2.8-1.155-.86-2.372-1.633-3.554-2.455-.51-.355-1-.737-1.591-1.174a8.531,8.531,0,0,0-.066,1.644c-.012.519,0,1.039,0,1.629H86.3c-1.067-.637-2.229-.25-3.349-.315a39.9,39.9,0,0,0-5.638.09,1.618,1.618,0,0,0-.293,1.805c.34.463.852.411,1.325.412q9.592.019,19.184,0a1.93,1.93,0,0,0,1.316-.363c.183-.126.085-.565.437-.9,1.547,1.086,3.154,2.115,4.781,3.472-1.63,1.328-3.23,2.371-4.779,3.455-.346-.284-.249-.67-.472-.9a1.712,1.712,0,0,0-1.358-.364q-9.54-.013-19.08,0c-.474,0-.983-.052-1.342.39a1.614,1.614,0,0,0,.048,1.552,1.151,1.151,0,0,0,.857.37c1.4.064,2.8.052,4.2.008a1.252,1.252,0,0,0,.843-.327" transform="translate(-55.581 -69.534)"/>
        <path id="Trazado_586506" data-name="Trazado 586506" d="M86.322,48.023H97.075a10.357,10.357,0,0,1,.037,1.525c.011.518,0,1.037,0,1.605.5.076.763-.338,1.022-.539,1.226-.951,2.545-1.767,3.774-2.71.939-.721,1.96-1.325,2.89-2.066.764-.608,1.618-1.1,2.434-1.642.115-.076.239-.14.371-.216A3.589,3.589,0,0,0,106.26,42.8c-1.311-.934-2.64-1.84-3.932-2.8-1.155-.86-2.372-1.633-3.554-2.455-.51-.355-1-.737-1.591-1.174a8.531,8.531,0,0,0-.066,1.644c-.012.519,0,1.039,0,1.629H86.322c-1.067-.637-2.229-.25-3.349-.315a36.573,36.573,0,0,0-5.652.107,1.607,1.607,0,0,0-.279,1.788c.34.463.852.411,1.325.412q9.59.019,19.18,0a1.959,1.959,0,0,0,1.327-.365c.175-.121.081-.556.418-.9,1.575,1.052,3.137,2.143,4.822,3.441-1.652,1.351-3.255,2.391-4.8,3.479-.368-.3-.242-.746-.349-.823a2.161,2.161,0,0,0-1.579-.443q-9.434-.01-18.869,0c-.507,0-1.052-.078-1.452.38a1.751,1.751,0,0,0,.131,1.733c1.842.474,3.814.165,5.766.2,1.125-.064,2.293.325,3.365-.316" transform="translate(-55.606 -26.216)"/>
        <path id="Trazado_586507" data-name="Trazado 586507" d="M88.236,26.411h3.32V24.734h-.817c-.026-.572-.009-1.152-.012-1.73,0-.557,0-1.115,0-1.672a6.376,6.376,0,0,0-.167-.965,2.984,2.984,0,0,0-1.346-1.83,2.713,2.713,0,0,0-1.745-.519c-1.1.027-2.2.008-3.34.008v1.657h3.692c.534.284,1.068.505,1.233,1.14v3.85c-.271.133-.549.024-.814.061a1.305,1.305,0,0,0,0,1.677" transform="translate(-60.839 -12.989)" fill="#efcfb3"/>
        <path id="Trazado_586508" data-name="Trazado 586508" d="M101.5,78.136h-3.32a1.539,1.539,0,0,0-.135,1.631A1.821,1.821,0,0,1,98.71,81.4a14.452,14.452,0,0,0,0,1.852,1.811,1.811,0,0,1-.659,1.633,1.537,1.537,0,0,0,.13,1.64h3.32V84.844a1.889,1.889,0,0,1-.52-1.627c.131-1.141-.393-2.385.52-3.4Z" transform="translate(-70.784 -56.329)" fill="#efcfb3"/>
        <path id="Trazado_586509" data-name="Trazado 586509" d="M108.783,84.133h-.8c-.076,1.651-.006,3.305-.042,4.958.3.145.573.035.838.073h.8c.076-1.651.006-3.3.042-4.958-.3-.144-.573-.035-.838-.073" transform="translate(-78.066 -60.649)"/>
        <path id="Trazado_586510" data-name="Trazado 586510" d="M40.47,45.24V43.563H34.66V41.886a3.58,3.58,0,0,0,.329-2.411c-.009-.878.253-1.809-.329-2.62V35.178H40.47V33.5h-.8a15.041,15.041,0,0,1-.027-1.632c-.01-.553,0-1.106,0-1.69H36.36a1.781,1.781,0,0,1-1.3,1.645c-3.892,0-7.9,0-11.911,0-1.073,0-1.6-.472-1.793-1.629H18.082v4.974h3.274v1.9a3.342,3.342,0,0,0,1.652,1.675h1.51a2.649,2.649,0,0,0,.948-.664c.237-.291.5-.557.758-.834L30.9,41.971c-.425.6-1.137.951-1.433,1.886a7.165,7.165,0,0,1-.009,1.036,2.421,2.421,0,0,0,2.012,2.034,13.067,13.067,0,0,1,1.483-.01V53.6H31.132a3.311,3.311,0,0,0-1.661,1.68v1.5a6.83,6.83,0,0,0,1.442,1.775l-4.638,4.685c-.592-.426-.939-1.15-1.876-1.447a6.616,6.616,0,0,1-1.016-.009c-.776-.1-2.1,1.234-2.015,2.032a14.387,14.387,0,0,1,.01,1.53h-3.3v3.328H39.636v-6.6c.291-.145.57-.033.835-.072V60.333H34.66V58.656a3.581,3.581,0,0,0,.329-2.412c-.009-.878.253-1.809-.329-2.62V51.948H40.47V50.271a1.889,1.889,0,0,1-.52-1.627c.131-1.141-.392-2.385.52-3.4" transform="translate(-13.074 -21.756)" fill="#e5e8ec"/>
        <path id="Trazado_586511" data-name="Trazado 586511" d="M18.09,76.019v4.969h1.57a5.155,5.155,0,0,1,1.157-2.426A3.835,3.835,0,0,1,22.549,77.5a4.9,4.9,0,0,1,2.258,0,1.9,1.9,0,0,1,1.407.766L28.6,75.857a4.043,4.043,0,0,1-.673-3.8A3.873,3.873,0,0,1,31.3,69.262V65.979a4.147,4.147,0,0,1-2.663-6.671l-2.365-2.389c-1.043,1.066-2.389.795-3.6.83a4.307,4.307,0,0,1-2.983-3.532H18.114v4.962a8.376,8.376,0,0,1,6.308,3.03,8.121,8.121,0,0,1,1.929,6.09,8.289,8.289,0,0,1-2.675,5.472,8.566,8.566,0,0,1-5.586,2.249" transform="translate(-13.083 -39.086)" fill="#fec629"/>
        <path id="Trazado_586512" data-name="Trazado 586512" d="M44.388,9.383V6.141a.493.493,0,0,0-.07-.074.166.166,0,0,0-.088-.035c-1.584,0-3.167,0-4.787,0V9.347a13.223,13.223,0,0,1-1.646.035c-.548.01-1.1,0-1.677,0v3.3H47.67V9.4c-.524-.033-1.1-.01-1.668-.014-.539,0-1.079,0-1.614,0" transform="translate(-26.123 -4.347)" fill="#fe816e"/>
        <path id="Trazado_586513" data-name="Trazado 586513" d="M18.01,89.825v1.536c1.5.514,4.445-1.228,5.176-2.318a6.973,6.973,0,0,0,.8-7.373c-.572-.61-.851-1.454-1.538-1.972a8.354,8.354,0,0,0-2.438-1.374,3.108,3.108,0,0,0-1.97-.222V79.69A5.049,5.049,0,0,1,22,81.784a4.632,4.632,0,0,1,.973,3.558,5.228,5.228,0,0,1-4.966,4.483" transform="translate(-13.025 -56.24)" fill="#fad66f"/>
        <path id="Trazado_586514" data-name="Trazado 586514" d="M18,90.142v6.635a3.149,3.149,0,0,0,3.309-2.861A3.343,3.343,0,0,0,18,90.142" transform="translate(-13.02 -64.984)" fill="#e5e8ec"/>
        <path id="Trazado_586515" data-name="Trazado 586515" d="M77.983,109.734v5.031H99.535v1.755c2.048-1.444,3.991-2.792,6-4.253-1.012-.828-2-1.456-2.963-2.127s-1.924-1.381-2.964-2.131c-.081.58-.007,1.122-.053,1.724Z" transform="translate(-56.398 -77.866)" fill="#b3dc7e"/>
        <path id="Trazado_586516" data-name="Trazado 586516" d="M77.983,49.686v5.031H99.535v1.755c2.048-1.444,3.991-2.792,6-4.255-1.981-1.514-3.952-2.807-5.909-4.24-.131.562-.008,1.109-.086,1.709Z" transform="translate(-56.398 -34.587)" fill="#b3dc7e"/>
        <path id="Trazado_586517" data-name="Trazado 586517" d="M96.787,84.133h-.8c-.076,1.651-.006,3.305-.042,4.958.3.145.573.035.838.073h.8c.076-1.651.006-3.3.042-4.958-.3-.144-.573-.035-.838-.073" transform="translate(-69.391 -60.649)"/>
        <path id="Trazado_586518" data-name="Trazado 586518" d="M68.257,157.98v-1.612H60c-.055.5-.008,1.04-.029,1.612Z" transform="translate(-43.371 -112.728)"/>
        <path id="Trazado_586519" data-name="Trazado 586519" d="M63.255,145.964v-1.608H59.983c-.079.5,0,1.037-.045,1.608Z" transform="translate(-43.347 -104.068)"/>
        <path id="Trazado_586520" data-name="Trazado 586520" d="M81.36,144.294H78.109v1.634a14.736,14.736,0,0,0,1.576.024c.547.01,1.094,0,1.675,0Z" transform="translate(-56.489 -104.023)"/>
        <path id="Trazado_586521" data-name="Trazado 586521" d="M84.046,120.328v1.6h1.607c.094-.491,0-1.032.053-1.6Z" transform="translate(-60.782 -86.746)"/>
        <path id="Trazado_586522" data-name="Trazado 586522" d="M101.984,121.97h1.6c.058-.528.01-1.067.031-1.64h-1.631a8.217,8.217,0,0,0,0,1.64" transform="translate(-73.726 -86.747)"/>
        <path id="Trazado_586523" data-name="Trazado 586523" d="M121.685,120.261h-1.591V121.9c.491.053,1.024.007,1.591.027Z" transform="translate(-86.852 -86.698)"/>
        <path id="Trazado_586524" data-name="Trazado 586524" d="M84.109,61.757H85.7V60.12c-.489-.054-1.022-.006-1.59-.027Z" transform="translate(-60.828 -43.322)"/>
        <path id="Trazado_586525" data-name="Trazado 586525" d="M103.69,60.174H102.1V61.8c.491.088,1.026,0,1.592.05Z" transform="translate(-73.838 -43.38)"/>
        <path id="Trazado_586526" data-name="Trazado 586526" d="M121.6,61.844v-1.6h-1.62c-.054.493-.006,1.031-.027,1.6Z" transform="translate(-86.75 -43.428)"/>
      </g>
    </g>
  </g>
</svg>
