<svg xmlns="http://www.w3.org/2000/svg" xmlns:xlink="http://www.w3.org/1999/xlink" width="85" height="85" viewBox="0 0 85 85">
  <defs>
    <clipPath id="clip-path">
      <rect id="Rectángulo_39231" data-name="Rectángulo 39231" width="52" height="52" fill="none"/>
    </clipPath>
  </defs>
  <g id="Grupo_850460" data-name="Grupo 850460" transform="translate(-1230 -3100)">
    <circle id="Elipse_4773" data-name="Elipse 4773" cx="42.5" cy="42.5" r="42.5" transform="translate(1230 3100)" fill="#4acfd9"/>
    <g id="Grupo_850144" data-name="Grupo 850144" transform="translate(1247 3117)">
      <g id="Grupo_850143" data-name="Grupo 850143" transform="translate(0 0)" clip-path="url(#clip-path)">
        <path id="Trazado_586564" data-name="Trazado 586564" d="M15.954,4.945q-.22.432-.44.866a25.27,25.27,0,0,0-1.229,4.137,9.589,9.589,0,0,0,2.372,7.827c1.49,1.677,3.363,3.074,3.284,5.507a7.088,7.088,0,0,0,4.294.06,24.883,24.883,0,0,0,.1-5.371,3,3,0,0,0-1.389-.843,4.337,4.337,0,0,1-2.275-6.054,23.816,23.816,0,0,1,3.786-5.626,1.06,1.06,0,0,1,1.066.523,26.046,26.046,0,0,1,3.217,4.891c1.3,2.747.364,5.179-2.47,6.389a3.112,3.112,0,0,0-.862.418,13.5,13.5,0,0,0,0,5.749,8.6,8.6,0,0,0,3.783.09c.278-.2.4-.359.412-.536.135-1.856,1.216-3.142,2.505-4.4A10.118,10.118,0,0,0,30.39,2.454a10.087,10.087,0,0,0-11.027-.141,12.815,12.815,0,0,1-1.868.9c-.194.348-.4.683-.881.649-.139.184,0,.416-.11.607-.122.225-.4.285-.551.476" transform="translate(1.259 0.053)" fill="#efbf20"/>
        <path id="Trazado_586565" data-name="Trazado 586565" d="M29.542,33.79h-.77c-1.4,1.172-1.683,4.244-.54,5.753a7.912,7.912,0,0,0-2.212,2.066,7.472,7.472,0,0,0-2.194-2.039,4.876,4.876,0,0,0-1.232-6.431,5.144,5.144,0,0,0-6.117.188,4.767,4.767,0,0,0-.987,6.128c-.505.718-1.581.939-1.87,1.874a5.191,5.191,0,0,0-2.309-1.981c0-.023-.014-.053,0-.073a5.72,5.72,0,0,0,.623-2.772c-.413-.526-.29-1.225-.631-1.8-.25-.42-.769-.64-.839-1.167a5.814,5.814,0,0,0-2.44-1.225,5.035,5.035,0,0,0-2.749.192.621.621,0,0,1-.1-.06c-.025-.023-.058-.055-.058-.083,0-1.223,0-2.446,0-3.5a3.962,3.962,0,0,0-1.172-1.531,4.108,4.108,0,0,0-.612-.134A2.373,2.373,0,0,0,.286,28.625c-.119.287-.378.6-.253.983a1.451,1.451,0,0,1,.007.43v6.886c.192.209.355.414.661.328.824-.046.73-.692.744-1.193.048-1.8.012-3.6.022-5.4a2.872,2.872,0,0,1,.217-1.375A1.03,1.03,0,0,1,2.706,28.6a.884.884,0,0,1,.876.831c.065,1.584.437,3.151-.786,4.622a4.741,4.741,0,0,0,.412,6.42,5.11,5.11,0,0,0,6.418.929,3.082,3.082,0,0,1,1.274-.623,2.537,2.537,0,0,1,1.576,2.5c.032,1.62,0,3.242.014,4.863a1.931,1.931,0,0,0,.319,1.439c.512.63.59.63,1.1,0a1.768,1.768,0,0,0,.316-1.329c.013-1.438-.036-2.877.02-4.314a3.138,3.138,0,0,1,2.014-3.01,5.541,5.541,0,0,0,6.848.007,2.942,2.942,0,0,1,1.919,2.747c.036,1.509.016,3.02.008,4.53a2.169,2.169,0,0,0,.544,1.586c.128.419.479.132.714.213.024.009.061-.02.1-.034.136-.11.042-.264.07-.4.561-.291.525-.823.532-1.322.023-1.513-.007-3.026.015-4.538a3,3,0,0,1,1.8-2.743,9.272,9.272,0,0,0,3.572,1.137,8.2,8.2,0,0,0,3.477-1.146,3.073,3.073,0,0,1,1.935,2.96c.059,1.439.008,2.881.02,4.322a1.775,1.775,0,0,0,.317,1.331c.511.63.59.63,1.1,0a1.951,1.951,0,0,0,.332-1.436c.014-1.656-.023-3.312.019-4.967A2.385,2.385,0,0,1,41.172,40.8a3.184,3.184,0,0,1,1.241.62,5.14,5.14,0,0,0,6.493-1.007,4.729,4.729,0,0,0,.367-6.332c-1.205-1.465-.875-3.034-.826-4.622a.884.884,0,0,1,.867-.837.976.976,0,0,1,.977.57,3.062,3.062,0,0,1,.271,1.684q.007,8.531.007,17.062a2.248,2.248,0,0,0,.33,1.652c.491.542.491.542,1.1.119v-.715q0-9.516,0-19.034a2.914,2.914,0,0,0-.622-1.921,2.641,2.641,0,0,0-.629-.593c-.2-.138-.505-.1-.612-.341a2.772,2.772,0,0,0-3.209,1.735V32.48c-.391.057-.65-.3-1.023-.22a4.654,4.654,0,0,1-.986.014H43.9a5.952,5.952,0,0,0-3.074,2.237,4.877,4.877,0,0,0-.12,4.841A5.432,5.432,0,0,0,38.425,41.3c-.285-.868-1.273-1.112-1.879-1.835a4.742,4.742,0,0,0-3.807-7.229c-.112.207-.346.25-.335.47-.079.75.556.839,1.032,1.037A3.531,3.531,0,0,1,35.4,35.367a3.4,3.4,0,0,1-.758,4.221,3.462,3.462,0,0,1-5.38-4.136c.241-.524.793-1.012.282-1.663" transform="translate(0 1.939)"/>
        <path id="Trazado_586566" data-name="Trazado 586566" d="M17.569,3.266c.236.043.4.305.762.19a12.335,12.335,0,0,1,4.1-2.052c.064-.02.125-.086.184-.08C23.482,1.4,24.3.98,25.169,1.1a13.97,13.97,0,0,1,3.6.853,10.951,10.951,0,0,1,2.8,1.735A9.43,9.43,0,0,1,33.4,5.748a8.436,8.436,0,0,1,1.183,2.438,6.056,6.056,0,0,1,.383,1.793,1.115,1.115,0,0,0,.132.705,1.226,1.226,0,0,1,.029,1.127,1.942,1.942,0,0,0-.167.8A8.748,8.748,0,0,1,33.235,17a26.854,26.854,0,0,1-2.583,2.73,3.477,3.477,0,0,0-.794,1.3,5.437,5.437,0,0,0-.388,2.333H25.542V17.829a5.3,5.3,0,0,0,4.136-3.519c0-.256-.148-.739.033-.949.311-.363-.126-.533-.059-.827.109-.473-.193-.9-.376-1.345a17.232,17.232,0,0,0-2.038-3.5C26.57,6.769,25.875,5.865,25.226,5h-.761c-1.866,2.427-3.917,4.815-4.643,7.948a5.485,5.485,0,0,0,1.151,3.08,6.077,6.077,0,0,0,2.1,1.543,2.457,2.457,0,0,0,1.055.191v5.61H20.195a5.182,5.182,0,0,0-.4-2.4,2.939,2.939,0,0,0-.675-1.133c-.574-.559-1.137-1.127-1.715-1.681a9.382,9.382,0,0,1-2.391-3.893,4.3,4.3,0,0,1-.322-1.605,1.209,1.209,0,0,0-.138-.81,1.23,1.23,0,0,1-.011-1.127,1.586,1.586,0,0,0,.158-.7,6.846,6.846,0,0,1,.813-2.916,1.455,1.455,0,0,0,.288-1.071c-.029-.113-.081-.2-.22-.173h-.6A9.259,9.259,0,0,0,13.805,8.5a4.436,4.436,0,0,0-.186,1.644c.028.372-.242.625-.26.991-.03.579.377,1.067.247,1.641a3.665,3.665,0,0,0,.272,1.628,4.16,4.16,0,0,0,.592,1.375c.3.438.4,1,.69,1.441a15.517,15.517,0,0,0,2.4,2.588,4.8,4.8,0,0,1,1.425,2.237,3.018,3.018,0,0,1,.114.811c.013,2.378.008,4.756.008,7.057a3.321,3.321,0,0,0,.768,1.063,1.557,1.557,0,0,0,1.143.43c2.709-.008,5.418,0,7.984,0a2.575,2.575,0,0,0,1.554-1.536c0-2.223-.023-4.6.01-6.971a3.308,3.308,0,0,1,1.117-2.681c.612-.512,1.15-1.11,1.718-1.673a12.015,12.015,0,0,0,2.476-4.621,6.135,6.135,0,0,0,.174-1.429c-.029-.465.351-.833.238-1.318a9.308,9.308,0,0,1-.256-1.745,6.265,6.265,0,0,0-.426-1.763,13.247,13.247,0,0,0-.72-1.543,14.175,14.175,0,0,0-1.526-2.2,10.272,10.272,0,0,0-3.857-2.852A7.129,7.129,0,0,0,26.452.242C25.99.24,25.6-.033,25.113,0a12.737,12.737,0,0,0-4.742,1.026c-.324.156-.753.161-1.033.406-.552.484-1.305.7-1.769,1.312Z" transform="translate(1.184 0)"/>
        <path id="Trazado_586567" data-name="Trazado 586567" d="M12.77,49.515v-7.17a3.423,3.423,0,0,0-2.237-2.185,4.271,4.271,0,0,1-2.709,1.534A4.915,4.915,0,0,1,4.815,41.3a5.289,5.289,0,0,1-2.24-2.166,4.626,4.626,0,0,1,1.388-5.959V29.218A1.525,1.525,0,0,0,2.084,28.1c-.15.147-.3.3-.462.452a1.631,1.631,0,0,0-.528,1.3c.023,1.19.008,2.379.008,3.569v3.449c-.172.089-.216.319-.441.309-.005.374.07.764-.22,1.082a1.484,1.484,0,0,1,.22,1.082c-.005.374.07.763-.22,1.081a6.759,6.759,0,0,1,.308,2.536c-.008,1.714-.013,3.428,0,5.142A1.769,1.769,0,0,0,1.1,49.515,11.31,11.31,0,0,0,2.409,49.5c.291-.034.438.192.674.229.335-1.086,0-2.192.1-3.285a2.371,2.371,0,0,1,.3-1.374c.447.457.324.936.37,1.374.113,1.093-.23,2.2.106,3.285.236-.039.39-.236.675-.23q2.3.043,4.594,0c.285-.005.439.192.675.23.335-1.086-.008-2.192.106-3.285.046-.438-.078-.917.334-1.337.413.42.29.9.335,1.337.113,1.093-.23,2.2.106,3.285.236-.038.383-.264.674-.229a11.31,11.31,0,0,0,1.307.013" transform="translate(0.039 2.012)" fill="#72c0e7"/>
        <path id="Trazado_586568" data-name="Trazado 586568" d="M47.7,49.514c0-6.377-.015-12.755.016-19.132a2.411,2.411,0,0,0-1.065-2.291h-.711a2.276,2.276,0,0,0-1.1.774V33.18c.537.28.759.664,1.343,1.484.376.527.307,1.107.519,1.633a2.709,2.709,0,0,1-.082,1.6,4.639,4.639,0,0,1-2.653,3.385,4.731,4.731,0,0,1-5.419-.865,2.551,2.551,0,0,0-.237-.216c-.947.041-1.367.822-1.967,1.316A5.1,5.1,0,0,0,36.037,44c-.008,1.838,0,3.675,0,5.513h1.981a17.683,17.683,0,0,0,.1-3.083,1.747,1.747,0,0,1,.417-1.411c.551,1.554.01,3.068.359,4.495h5.944a17.683,17.683,0,0,0,.1-3.083,1.747,1.747,0,0,1,.417-1.411c.551,1.554.01,3.068.359,4.495Z" transform="translate(3.194 2.013)" fill="#fa5c3c"/>
        <path id="Trazado_586569" data-name="Trazado 586569" d="M24.446,48.91c.1-.338-.286-.541-.232-.885a6.154,6.154,0,0,0,.011-.972V41.992a4.4,4.4,0,0,0-2.206-2.409A5.182,5.182,0,0,1,15,39.544c-.5.423-1.1.635-1.438,1.145-.294.448-.505.948-.785,1.489v6.517h1.761c.44-.442.3-1.007.329-1.532a18.011,18.011,0,0,1,.145-2.922,6.113,6.113,0,0,1,.3,2.492c.062.661-.186,1.376.332,1.963h5.723c.441-.442.3-1.007.33-1.532a14.464,14.464,0,0,1,.162-2.884,6.17,6.17,0,0,1,.278,2.453c.061.661-.187,1.376.331,1.963a11.31,11.31,0,0,0,1.307-.013c.291-.034.438.192.675.229" transform="translate(1.133 2.833)" fill="#8a71e6"/>
        <path id="Trazado_586570" data-name="Trazado 586570" d="M35.973,48.691V42.273a4.03,4.03,0,0,0-2.307-2.665,5.144,5.144,0,0,1-6.935-.028,4.4,4.4,0,0,0-2.207,2.409c0,1.82,0,3.765,0,5.711a1.361,1.361,0,0,1-.221.991h1.981c.44-.442.3-1.007.33-1.532a14.464,14.464,0,0,1,.162-2.884,6.146,6.146,0,0,1,.277,2.453c.062.661-.186,1.376.332,1.963h5.724c.441-.442.3-1.007.33-1.532a14.628,14.628,0,0,1,.162-2.884,6.146,6.146,0,0,1,.277,2.453c.062.661-.186,1.376.332,1.963Z" transform="translate(2.155 2.836)" fill="#eebf1f"/>
        <path id="Trazado_586571" data-name="Trazado 586571" d="M27.208,33.412v.782c-.5.261-.5.868-.889,1.307.088.972-.169,2.014.432,3.009a4.485,4.485,0,0,0,2.522,1.809,6.6,6.6,0,0,0,1.905-.176,3.663,3.663,0,0,0,2.25-1.9,3.8,3.8,0,0,0-.779-4.349,3.357,3.357,0,0,0-1.6-.876,1.263,1.263,0,0,1-.974-.687h-1.1a1.468,1.468,0,0,1-1.1.433.534.534,0,0,1-.5.437.168.168,0,0,0-.163.212" transform="translate(2.334 2.317)" fill="#feb59e"/>
        <path id="Trazado_586572" data-name="Trazado 586572" d="M34.992,23.679c.494.625.408,1.424.895,2h.744c.048-.275.265-.461.308-.75a2.09,2.09,0,0,1,1.9-1.868l.3-.66c-.062-.074-.112-.181-.2-.226-.447-.24-.9-.463-1.358-.692-.631-.644-.549-1.67-1.285-2.34a1.742,1.742,0,0,0-.736.959,2.978,2.978,0,0,1-.91,1.467c-.36.317-.879.2-1.232.543V22.8c.432.462,1.045.553,1.569.883" transform="translate(2.963 1.371)" fill="#020201"/>
        <path id="Trazado_586573" data-name="Trazado 586573" d="M11.56,25.695h.758c.45-.219.4-.709.54-1.068.391-.994.549-1.224,1.575-1.517.2-.057.266-.229.422-.317v-.657c-.309-.1-.553-.4-.951-.329a3.305,3.305,0,0,1-1.251-1.948c-.072-.319-.373-.485-.613-.679-.47.145-.524.563-.689.88-.072.139-.061.315-.135.485a1.924,1.924,0,0,1-1.305,1.295,1.117,1.117,0,0,0-.771.507c-.136.291.363.369.228.669,1.1.275,1.94.788,1.975,2.053.007.208.316.3.218.628" transform="translate(0.808 1.374)" fill="#020201"/>
        <path id="Trazado_586574" data-name="Trazado 586574" d="M1.138,48.691V39.93c-.193-.215-.358-.412-.661-.329-.232-.02-.251.241-.44.284,0,2.932,0,5.844,0,8.754a.993.993,0,0,0,.039.2c.574.419.575.419,1.06-.148" transform="translate(0.003 2.836)" fill="#040404"/>
        <path id="Trazado_586575" data-name="Trazado 586575" d="M3.769,48.63c.326-1.126.373-4.455-.085-5.176H2.973c-.458.721-.41,4.05-.085,5.176a.552.552,0,0,0,.881,0" transform="translate(0.234 3.114)" fill="#0a1114"/>
        <path id="Trazado_586576" data-name="Trazado 586576" d="M10.038,48.63c.326-1.126.373-4.455-.085-5.176H9.242c-.458.721-.41,4.05-.085,5.176a.552.552,0,0,0,.881,0" transform="translate(0.79 3.114)" fill="#0a1114"/>
        <path id="Trazado_586577" data-name="Trazado 586577" d="M45.023,48.414a1.554,1.554,0,0,0,.233-.769c-.035-.964-.023-1.931-.008-2.9a1.887,1.887,0,0,0-.312-1.293h-.707a1.886,1.886,0,0,0-.311,1.293c.015.966.027,1.932-.009,2.9a1.554,1.554,0,0,0,.233.769v.334c.253.178.532.087.8.074.151-.122.058-.276.085-.408" transform="translate(3.893 3.114)" fill="#150806"/>
        <path id="Trazado_586578" data-name="Trazado 586578" d="M38.754,48.414a1.554,1.554,0,0,0,.233-.769c-.035-.964-.023-1.931-.009-2.9a1.88,1.88,0,0,0-.311-1.293H37.96a1.886,1.886,0,0,0-.311,1.293c.015.966.027,1.932-.009,2.9a1.554,1.554,0,0,0,.233.769v.334c.253.178.532.087.8.074.151-.122.058-.276.085-.408" transform="translate(3.337 3.114)" fill="#150806"/>
        <path id="Trazado_586579" data-name="Trazado 586579" d="M15.5,48.413V43.784c-.507-.419-.507-.419-1.1-.046v4.675c.511.63.59.63,1.1,0" transform="translate(1.276 3.114)" fill="#030305"/>
        <path id="Trazado_586580" data-name="Trazado 586580" d="M21.765,48.413V43.784c-.507-.419-.507-.419-1.1-.046v4.675c.511.63.59.63,1.1,0" transform="translate(1.832 3.114)" fill="#030305"/>
        <path id="Trazado_586581" data-name="Trazado 586581" d="M27.226,48.413V43.784c-.507-.419-.507-.419-1.1-.046v4.675c.511.63.59.63,1.1,0" transform="translate(2.316 3.114)" fill="#050401"/>
        <path id="Trazado_586582" data-name="Trazado 586582" d="M33.495,48.413V43.784c-.507-.419-.507-.419-1.1-.046v4.675c.511.63.59.63,1.1,0" transform="translate(2.872 3.114)" fill="#050401"/>
        <path id="Trazado_586583" data-name="Trazado 586583" d="M.7,38.664a.531.531,0,0,0,.427-.7.527.527,0,0,0-.647-.384.532.532,0,0,0-.428.7.528.528,0,0,0,.648.384" transform="translate(0.002 2.692)" fill="#131617"/>
        <path id="Trazado_586584" data-name="Trazado 586584" d="M15.811,4.737h.561l.536-.291c.022-.438-.427-.477-.435-.791-.279-.062-.457.086-.661.338Z" transform="translate(1.402 0.261)" fill="#16140c"/>
        <path id="Trazado_586585" data-name="Trazado 586585" d="M27.742,32.779c.279.034.354.335.6.437.532-.075.509-.476.5-.87-.171-.459-.537-.113-.794-.2l-.307.632" transform="translate(2.46 2.3)" fill="#121111"/>
        <path id="Trazado_586586" data-name="Trazado 586586" d="M27.459,18.688c-.033.468.236.628.654.689a1.458,1.458,0,0,0,.659-.669,1.529,1.529,0,0,1,.7-.781,6.781,6.781,0,0,0,1.96-2.113A9.928,9.928,0,0,0,32.6,13.365c.235-.535-.116-1.147.363-1.584-.088-.545.218-1.141-.22-1.641a4.426,4.426,0,0,0-.429-2.1A8.665,8.665,0,0,0,30.65,5.257a9.587,9.587,0,0,0-3.222-2.285,9.244,9.244,0,0,0-1.864-.557,11.527,11.527,0,0,0-1.746-.176c-.314.42-.321.419-.3,1.048.6.115,1.242.113,1.856.2a7.276,7.276,0,0,1,2.755,1.056A7.37,7.37,0,0,1,31.2,8.13c.434.269,0,.852.421,1.126-.044.773.407,1.5.236,2.28A8.335,8.335,0,0,1,30.1,15.807a8.165,8.165,0,0,1-1.4,1.358,4.261,4.261,0,0,0-1.244,1.523" transform="translate(2.084 0.16)" fill="#f6e3ae"/>
        <path id="Trazado_586587" data-name="Trazado 586587" d="M26.911,20.719a2.26,2.26,0,0,0,.316-1.38c-.191-.228-.39-.435-.744-.33a1.791,1.791,0,0,0-.352,1.336c.122.367.421.445.779.374" transform="translate(2.314 1.36)" fill="#f6e1a9"/>
        <path id="Trazado_586588" data-name="Trazado 586588" d="M7.873,32.936c-.556,0-1,0-1.434,0a3.723,3.723,0,0,0-2.55,1.223A3.627,3.627,0,0,0,2.9,36.136a3.378,3.378,0,0,0,.8,2.673,3.661,3.661,0,0,0,3.747,1.465,3.41,3.41,0,0,0,2.47-1.738,3.126,3.126,0,0,0,.63-2.309c-.126-.5-.095-1.107-.489-1.515-.484-.5-.851-1.126-1.583-1.4-.187-.069-.517-.069-.6-.379" transform="translate(0.252 2.36)" fill="#feb59e"/>
        <path id="Trazado_586589" data-name="Trazado 586589" d="M40.659,32.936a7.828,7.828,0,0,1-.76.429,3.317,3.317,0,0,0-1.6,1.6,3.558,3.558,0,0,0,.4,3.9,3.778,3.778,0,0,0,6.63-1.175,2.621,2.621,0,0,0,.106-1.794,3.948,3.948,0,0,0-.8-1.621,5.8,5.8,0,0,0-1.751-1.28,1.293,1.293,0,0,0-.525-.053c-.585-.012-1.168,0-1.692,0" transform="translate(3.359 2.36)" fill="#feb59e"/>
        <path id="Trazado_586590" data-name="Trazado 586590" d="M14.635,35.658a4.121,4.121,0,0,0,.989,3.55,3.467,3.467,0,0,0,2.06,1.062,3.584,3.584,0,0,0,4.13-2.139c.683-1.866.686-3.667-2.274-5.2-1.03.08-2.085-.148-3.1.435a4.98,4.98,0,0,0-1.8,2.293" transform="translate(1.291 2.36)" fill="#feb59e"/>
        <path id="Trazado_586591" data-name="Trazado 586591" d="M28.355,28.679l.513-.543V26.1H25.5l-.345-.334a.684.684,0,0,1,.366-.78h3.344v-2.1H19.681v5.28l.518.518Z" transform="translate(1.745 1.639)" fill="#aeaeae"/>
        <path id="Trazado_586592" data-name="Trazado 586592" d="M26.414,9.089l-2.082,2.047v4.835a1.545,1.545,0,0,0,1.56-.4,3.545,3.545,0,0,0,1.751-2.711c.019-.383-.082-.743-.044-1.118a1.63,1.63,0,0,0-.414-1.018,14.427,14.427,0,0,1-.772-1.636" transform="translate(2.157 0.651)" fill="#13bd6c"/>
        <path id="Trazado_586593" data-name="Trazado 586593" d="M23.766,15.941V14.268A16.4,16.4,0,0,0,20.554,11.1a2.7,2.7,0,0,0-.085,1.147c-.025.358-.005.72-.005,1.08a4.007,4.007,0,0,0,3.3,2.613" transform="translate(1.813 0.795)" fill="#13bc6b"/>
        <path id="Trazado_586594" data-name="Trazado 586594" d="M23.6,12.528a39.653,39.653,0,0,0,.015-5.867,19.733,19.733,0,0,0-2.551,3.606,32.936,32.936,0,0,0,2.428,2.259c.024.017.072,0,.108,0" transform="translate(1.868 0.477)" fill="#12b768"/>
        <path id="Trazado_586595" data-name="Trazado 586595" d="M25.815,8.241c-.679-.479-.785-1.215-1.512-1.681.007,1.006-.007,1.868.012,2.8.664-.218.884-.762,1.5-1.121" transform="translate(2.155 0.47)" fill="#109f5b"/>
        <path id="Trazado_586596" data-name="Trazado 586596" d="M35.22,22.4l.815.754c.421-.028.195-.387.433-.492.136-.06.315-.19.3-.347l-.821-.769c-.062.3-.413.513-.732.854" transform="translate(3.123 1.544)" fill="#e4b61e"/>
        <path id="Trazado_586597" data-name="Trazado 586597" d="M11.118,22.438c.308.03.44.4.643.738.417-.1.569-.518.925-.735-.154-.389-.713-.491-.663-.894l-.906.891" transform="translate(0.986 1.544)" fill="#e1b41e"/>
      </g>
    </g>
  </g>
</svg>
