<svg id="Grupo_850415" data-name="Grupo 850415" xmlns="http://www.w3.org/2000/svg" xmlns:xlink="http://www.w3.org/1999/xlink" width="85" height="84.856" viewBox="0 0 85 84.856">
  <defs>
    <clipPath id="clip-path">
      <rect id="Rect치ngulo_39439" data-name="Rect치ngulo 39439" width="85" height="84.856" fill="none"/>
    </clipPath>
  </defs>
  <g id="Grupo_850414" data-name="Grupo 850414" clip-path="url(#clip-path)">
    <path id="Trazado_588455" data-name="Trazado 588455" d="M57.547,60.075a19.98,19.98,0,0,1,.049-3.807c.3-1.561.071-3.14.357-4.648.206-1.09.19-2.179.315-3.315l1.971,1.014a8.675,8.675,0,0,0,2.473-.3,4.449,4.449,0,0,0,3.037-3.926,4.6,4.6,0,0,0-2.455-4.951c-1.345-.772-2.585-1.727-4.035-2.711a15.71,15.71,0,0,1,.053-3.519c.339-1.508.021-3.041.345-4.479a37.913,37.913,0,0,0,.325-4.7H84.762c.25-1.457.328-17.747.113-21.929H61.5C60.019.136,58.619-.538,55.274.4c-.586.653-1.418,1.144-1.671,2.039a10.077,10.077,0,0,0-.525,3.216c.09,2.069-.566,4.107-.324,6.191-.6,1.28-.118,2.67-.376,3.96-.334,1.668-.063,3.374-.381,4.986-.243,1.233-.106,2.439-.285,3.636-.266,1.774-.281,3.554-.389,5.334a14.433,14.433,0,0,0-.254,2.218c-1.909-1.273-3.624-2.446-5.37-3.571a26.192,26.192,0,0,0-4.115-2.463c-.614-.253-1.38-.233-1.9-.9a11.724,11.724,0,0,0,3.8-5.708,9.5,9.5,0,0,0,.212-4.921A10.371,10.371,0,0,0,40.764,8.8c-4.317-4.078-9.889-4.705-14.99-.721a10.434,10.434,0,0,0-3.863,7.958c-.174,3.2,1.282,5.717,3.116,8.157a2.58,2.58,0,0,1-2.329-.357,42.714,42.714,0,0,1-4.028-2.264c-1.744-1.033-3.474-2.089-5.2-3.144-1.778-1.084-3.6-2.106-5.3-3.3-.8-.561-1.8-.722-2.523-1.429a8.333,8.333,0,0,0-2.592.316A4.925,4.925,0,0,0,.015,17.786,5.157,5.157,0,0,0,2.486,22.92c3.128,1.987,6.224,4.034,9.312,6.088,2.805,1.866,5.686,3.629,8.511,5.476a5.986,5.986,0,0,1,2.7,3.839A9.563,9.563,0,0,1,23.3,40.59q.009,10.613,0,21.227C12.876,66.625,5.451,74.38.582,84.856H84.328a43.138,43.138,0,0,0-6.433-10.526,43.455,43.455,0,0,0-9.4-8.6,52.854,52.854,0,0,0-10.949-5.657" transform="translate(0 0)"/>
    <path id="Trazado_588456" data-name="Trazado 588456" d="M38.863,149.387c-1.523,1.791-3.875,2.089-6.15,1.34a5.849,5.849,0,0,1-3.261-4.763c-.014-2.738,0-5.476-.009-8.214a1.648,1.648,0,0,0-.162-1.081,19.434,19.434,0,0,0-5.374,3.319,7.924,7.924,0,0,1,1.434,4.467,7.174,7.174,0,0,1-1,3.35,10.642,10.642,0,0,1-1.982,2.1,7.375,7.375,0,0,1-2.811,1.112,7.579,7.579,0,0,1-2.929-.2c-1.063-.124-1.627-1.111-2.742-1.14-.443.622-.827,1.328-1.3,1.947a22.583,22.583,0,0,0-1.248,2.12H85.893c-.464-1.376-1.5-2.407-2.139-3.666-3.7,1.8-6.014,1.006-8.248-.744a5.25,5.25,0,0,1-1.852-2.813c-.636-2.508-.543-2.9.618-5.919-1.392-1.529-3.322-2.339-5.088-3.39a40.088,40.088,0,0,0-5.658-2.617A11.74,11.74,0,0,0,63,138.33c.074,1.955-.555,3.878-.328,5.847-.566.528-.283,1.318-.626,1.972-.391.745-1.081,1.121-1.377,1.606a6.187,6.187,0,0,1-3.528.592,5.014,5.014,0,0,1-3.03-3.214,12.994,12.994,0,0,0-.02-1.924c-.122-.918.486-1.683.384-2.6a6.935,6.935,0,0,1,.026-2.721,16.852,16.852,0,0,0,.3-3.98c.03-.412-.214-.894.353-1.126l-.534-.534c-1.91.244-3.844-.711-5.987-.224v1.6c0,4.107.011,8.214,0,12.322a5.608,5.608,0,0,1-3.573,4.817,5.405,5.405,0,0,1-5.474-1.021c-.167-.135-.249-.4-.714-.357" transform="translate(-6.149 -71.636)" fill="#69d5f3"/>
    <path id="Trazado_588457" data-name="Trazado 588457" d="M6.015,37.29A3.338,3.338,0,0,0,6.5,39.666c1.186.786,2.457,1.682,3.782,2.494,2.736,1.677,5.326,3.581,8.117,5.175a28.945,28.945,0,0,1,3.081,2.055c1.076.814,2.267,1.442,3.392,2.168A14.479,14.479,0,0,1,28.2,54.969a4.015,4.015,0,0,1,.664,1.759,12.734,12.734,0,0,1,.467,2.916c-.1,2.562-.034,5.13-.034,7.7a120.324,120.324,0,0,0,13.64.128V55.382c.515-.327,1.033-.149,1.522-.179A6.074,6.074,0,0,1,46,55.217a5.091,5.091,0,0,1,1.648.982c1.513.986,3.091,1.876,4.675,2.747.382.211.52.781,1.119.7.806-1.543.429-3.231.537-4.884a9.735,9.735,0,0,0-2.968-2.252c-1.553-1.039-3.086-2.126-4.7-3.074-1.653-.969-3.259-2.058-5.284-2.119-.459-.014-.817-.651-1.448-.186a14.946,14.946,0,0,0,.045,3.142c.275,1.273.079,2.575.36,3.787A17.018,17.018,0,0,1,40.266,57c-1.458,1.853-2.555,3.957-4.149,5.985L32.05,56.942c.155-.764-.339-1.784.323-2.712.081-.113.022-.335.009-.505-.15-2.021.593-3.99.342-6.015-.035-.283.212-.372.367-.622a4.8,4.8,0,0,0-1.647-.1c-.57-.021-1.143.032-1.71-.011A15.554,15.554,0,0,1,22.2,44.519c-1.69-1.113-3.462-2.1-5.189-3.158-2.094-1.281-4.219-2.519-6.247-3.9-.712-.484-1.682-.587-2.121-1.429H7.194L6.015,37.29" transform="translate(-3.263 -19.573)" fill="#fbd670"/>
    <path id="Trazado_588458" data-name="Trazado 588458" d="M133.463,12.16a7.254,7.254,0,0,0-.473,4c.075.925-.469,1.693-.391,2.6a7.332,7.332,0,0,1-.031,2.722,17.5,17.5,0,0,0-.3,4.152c-.068.922-.615,1.791-.249,2.825h21.792V12.16Z" transform="translate(-71.645 -6.605)" fill="#e5e8ec"/>
    <path id="Trazado_588459" data-name="Trazado 588459" d="M62.746,34.44c3.753.073,7.76-3.959,7.721-8.31C70.429,22,66.507,17.785,62,17.982a8.04,8.04,0,0,0-5.609,2.563,7.812,7.812,0,0,0-2.4,5.84,7.933,7.933,0,0,0,2.643,5.741,7.972,7.972,0,0,0,6.114,2.313" transform="translate(-29.325 -9.764)" fill="#efcfb3"/>
    <path id="Trazado_588460" data-name="Trazado 588460" d="M119.189,6.93l-.83-.83h-1.427a2.582,2.582,0,0,0-.834,2.268c.185,2.361-.6,4.676-.339,7.041-.568,1.34-.125,2.78-.381,4.126-.306,1.612-.06,3.259-.373,4.811-.283,1.4-.037,2.8-.311,4.14-.329,1.612-.065,3.257-.374,4.812-.267,1.344-.05,2.68-.309,3.969-.334,1.666-.063,3.37-.381,4.982a15.715,15.715,0,0,0-.236,3.634c.032.913-.5,1.68-.4,2.6a6.3,6.3,0,0,1-.034,2.713,8.073,8.073,0,0,0-.249,3.3c.053.974-.464,1.811-.394,2.769a7.581,7.581,0,0,1-.033,2.72c-.435,1.391-.057,2.8-.331,4.141-.317,1.555-.079,3.138-.366,4.643s-.053,3.024-.338,4.476a21.7,21.7,0,0,0-.3,3.207l1.014.8h1.251a2.581,2.581,0,0,0,.834-2.268c-.185-2.36.6-4.676.34-7.041.567-1.34.125-2.78.38-4.126.306-1.611.06-3.259.374-4.811.283-1.4.036-2.8.311-4.14.329-1.612.065-3.257.374-4.812.266-1.344.05-2.68.308-3.969.334-1.666.063-3.37.381-4.982a15.74,15.74,0,0,0,.235-3.634c-.032-.913.5-1.68.4-2.6a6.315,6.315,0,0,1,.034-2.713,8.065,8.065,0,0,0,.249-3.3c-.053-.974.464-1.811.394-2.769a7.6,7.6,0,0,1,.033-2.72c.436-1.391.057-2.8.332-4.141.317-1.555.079-3.138.365-4.643s.058-3.022.337-4.477a19.6,19.6,0,0,0,.294-3.18" transform="translate(-60.267 -3.313)" fill="#ce9d75"/>
    <path id="Trazado_588461" data-name="Trazado 588461" d="M62.459,111.032h-5.48v1.674c0,6.948.025,13.9-.019,20.843-.01,1.569.287,2.841,2.4,3.543,1.77.278,3.2-1.043,3.147-3.692-.133-6.888-.045-13.781-.045-20.671Z" transform="translate(-30.94 -60.311)" fill="#828e9a"/>
    <path id="Trazado_588462" data-name="Trazado 588462" d="M78.591,137.1c.18-.261.509-.265.692-.407a3.013,3.013,0,0,0,1.209-2.567c-.036-7.631-.019-15.262-.019-22.977H75.05A3.611,3.611,0,0,0,75,111.6q0,11.361,0,22.723a2.708,2.708,0,0,0,1.77,2.654,7.53,7.53,0,0,0,1.825.125" transform="translate(-40.735 -60.373)" fill="#828e9a"/>
    <path id="Trazado_588463" data-name="Trazado 588463" d="M93.086,84.592v18.8a2.915,2.915,0,0,0,1.449.079c1.635-.186,3.184.676,4.848.3a6.527,6.527,0,0,0,.514-3.3c-.043-2.012.587-3.989.336-6.015.67-1.683.176-3.443.384-5.25l-7.531-4.611" transform="translate(-50.563 -45.949)" fill="#f7f9fa"/>
    <path id="Trazado_588464" data-name="Trazado 588464" d="M21.19,159.013l.6.6a4.359,4.359,0,0,0,4.177-.063l1.609-1.609a4.451,4.451,0,0,0-.083-3.9.659.659,0,0,0-.979-.361l-5.328,5.326" transform="translate(-11.51 -83.422)" fill="#9ed267"/>
    <path id="Trazado_588465" data-name="Trazado 588465" d="M71.042,60.483l-.543-.475c-.447-.055-.538.291-.827.479,0,.69.039,1.423-.008,2.152a27.248,27.248,0,0,0-.335,4.809,3.063,3.063,0,0,0-.335,1.995c.643.272.616,1.191,1.27,1.55.9-.183.71-1.287,1.406-1.491.317-1.076-.4-1.968-.308-2.983a8.871,8.871,0,0,0-.269-2.941,13.449,13.449,0,0,1-.052-3.095" transform="translate(-37.469 -32.592)" fill="#e1e4e8"/>
    <path id="Trazado_588466" data-name="Trazado 588466" d="M128.631,88.63a16.029,16.029,0,0,0-.4,4.929c.59.371,1.386.5,1.823,1.164h1.389l1.2-1.214c0-.379.021-.776,0-1.17a2,2,0,0,0-.972-1.735c-1.032-.621-2.023-1.313-3.03-1.973" transform="translate(-69.61 -48.142)" fill="#f8d46e"/>
    <path id="Trazado_588467" data-name="Trazado 588467" d="M153.528,155.154c-1.026,1.165-.51,2.413-.168,3.683l1.769,1.768c1.24.271,2.493.846,3.648-.217a37.652,37.652,0,0,0-5.249-5.234" transform="translate(-83.065 -84.277)" fill="#9ed167"/>
    <path id="Trazado_588468" data-name="Trazado 588468" d="M128.676,170.672v-2.621H126c-.088.805-.01,1.685-.044,2.621Z" transform="translate(-68.418 -91.282)"/>
    <path id="Trazado_588469" data-name="Trazado 588469" d="M134.971,152.967v2.644c.863.1,1.742.016,2.68.051V152.97a13.291,13.291,0,0,0-2.68,0" transform="translate(-73.314 -83.053)"/>
    <path id="Trazado_588470" data-name="Trazado 588470" d="M146.669,20.774V18.153h-2.675c-.088.805-.01,1.685-.044,2.621Z" transform="translate(-78.191 -9.86)"/>
    <rect id="Rect치ngulo_39438" data-name="Rect치ngulo 39438" width="2.629" height="2.624" transform="translate(71.301 8.264)"/>
    <path id="Trazado_588471" data-name="Trazado 588471" d="M168.022,18.147v2.627h2.655c.143-.81-.005-1.693.082-2.627Z" transform="translate(-91.267 -9.857)"/>
  </g>
</svg>
