<svg id="Grupo_850401" data-name="Grupo 850401" xmlns="http://www.w3.org/2000/svg" xmlns:xlink="http://www.w3.org/1999/xlink" width="82.865" height="82.884" viewBox="0 0 82.865 82.884">
  <defs>
    <clipPath id="clip-path">
      <rect id="Rectángulo_39429" data-name="Rectángulo 39429" width="82.865" height="82.884" fill="none"/>
    </clipPath>
  </defs>
  <g id="Grupo_850400" data-name="Grupo 850400" clip-path="url(#clip-path)">
    <path id="Trazado_588248" data-name="Trazado 588248" d="M96.391,82.977a29.8,29.8,0,0,0,4.874-1.284,1.7,1.7,0,0,1,.631-.01c.746-.815.529-1.831.53-2.776q.026-17.22.017-34.441a4.825,4.825,0,0,1,.66-3.194,59.129,59.129,0,0,1,8.938-.014,4.01,4.01,0,0,1,.638,2.879c.016,8.839,0,17.678.019,26.517,0,.894-.184,1.854.531,2.615a42.742,42.742,0,0,0,4.8-.11c.085-.013.153-.136.233-.212.308.321.142.715.144,1.068.016,2.633,0,5.266.019,7.9,0,.259-.227.682.313.738.778-.867.536-1.938.537-2.934q.024-24.721.016-49.442a6.2,6.2,0,0,1,.267-2.645,3.456,3.456,0,0,1,1.926-.441c1.747-.2,2.215-.685,2.314-2.471.054-.968.022-1.938.022-2.908,0-5.763.01-11.526-.009-17.288a3.153,3.153,0,0,0-.539-2.45c-.542.058-.311.483-.313.742-.018,2.643-.011,5.285-.011,7.928v1.282c-1.565-.354-2.912-1.249-4.51-1.215-1.093-.629-2.291-.325-3.427-.286a18.453,18.453,0,0,1-2.778-.391,3.806,3.806,0,0,1-2.2-1.54,24.756,24.756,0,0,0-5.73-5.007,23.419,23.419,0,0,0-6.424-2.5A5.23,5.23,0,0,0,96.068.78a1.785,1.785,0,0,0-.488,1.328,5.765,5.765,0,0,1-1.587,3.635,3.659,3.659,0,0,0-1.011,2.8c.022.7-.049,1.406.011,2.1a7.817,7.817,0,0,1-1.465,5.632,16.966,16.966,0,0,0,3.528,4.52,2.878,2.878,0,0,0,2.149.535c2.428.019,4.856,0,7.283.01a5.678,5.678,0,0,1,2.676.516,3.692,3.692,0,0,1,2.186,3.5,3.736,3.736,0,0,1-2.623,3.356,8.788,8.788,0,0,1-2.875.375c-2.7,0-5.4-.011-8.093.007a3.432,3.432,0,0,0-2.512.642c-.334,2.012-.7,4.169.568,6.219.963,1.56,2.023,3.059,3.033,4.589A9.517,9.517,0,0,1,98.51,46.18c-.082,3.341-.042,6.685-.013,10.028a4.681,4.681,0,0,1-1.563,3.905,3,3,0,0,0-1.027,2.446q-.025,9.382,0,18.763a2.054,2.054,0,0,0,.481,1.655" transform="translate(-52.024 -0.438)" fill="#e5ecfe"/>
    <path id="Trazado_588249" data-name="Trazado 588249" d="M44.4,82.539V60.7c.311-.526.977-.555,1.365-1.019A4.355,4.355,0,0,0,47,56.786c-.021-3.936-.072-7.874.019-11.809a8.657,8.657,0,0,0-1.654-4.987c-1.263-1.965-2.582-3.894-3.875-5.834V29.284c.381-.284.824-.129,1.233-.132,3.13-.016,6.26-.059,9.388.019a11.267,11.267,0,0,0,2.934-.386,3.971,3.971,0,0,0,2.614-2.465c.589-1.344.462-1.95-.29-3.477a3.867,3.867,0,0,0-2.646-2.164,5.857,5.857,0,0,0-1.5-.27c-3.184-.006-6.367,0-9.634,0-1.347-1.372-2.334-3.116-3.743-4.382a1.26,1.26,0,0,1,.6-.871,3.184,3.184,0,0,0,1.036-2.484c.027-2.1.009-4.206.009-6.309,1.283-.562,1.726-1.774,2.27-2.915a7.406,7.406,0,0,0,.321-3.1A2.549,2.549,0,0,0,42.914,0C40.055.037,37.2.028,34.337.014A5.007,5.007,0,0,0,31.379,1.04c-1.137.843-2.431,1.728-2.583,3.394,0,.046-.173.077-.265.115-.978,4.13-.805,8,2.556,10.937a3.132,3.132,0,0,1-1.258,1.885q-5.865,5.888-11.751,11.756a13.365,13.365,0,0,0-2.566,3.086c-.533,1-1.683,1.267-2.447,1.83-.869-.083-1.215-.7-1.7-1.095a3.478,3.478,0,0,0-5.049.174c-1.748,1.68-2.756,3.922-4.337,5.73-.084.462-.527.628-.792.94-.4.465-.938.813-1.132,1.448V42.7c.189,1.082,1.19,1.47,1.6,2.3a6.482,6.482,0,0,0,1.1,1.575c2.262,2.236,4.485,4.512,6.762,6.733,2.067,2.017,3.594,1.978,5.709-.053,1.429-1.373,2.684-2.926,4.582-3.777a6.036,6.036,0,0,0,2.083-2,3.524,3.524,0,0,0-.218-4.21c-.411-.553-1.062-.936-1.217-1.665,1.189-3.023,2.022-4.008,6.538-7.7a12.52,12.52,0,0,1-.089,5.083c-2.083,7.306-4.008,14.657-6.043,21.977a9.914,9.914,0,0,0-.11,3.04c-.584.5-1.261.261-1.882.3-1.988.128-2.765.8-2.724,2.813.036,1.8-.475,3.653.4,5.391,0,2.733.019,5.467-.012,8.2a2.591,2.591,0,0,0,.8,2.128H27.1c.218-.334.695-.477.783-.943a83.815,83.815,0,0,0,.488-12.356,6.081,6.081,0,0,1,1.157-4.245,7.112,7.112,0,0,0,1.1-2.672c1.4-5.087,2.834-10.165,4.239-15.25a5.221,5.221,0,0,1,1.007-2.534,2,2,0,0,1,1.761,1.85c.239,3.8.047,7.613.134,11.321a3.9,3.9,0,0,1-2.37.415c-1.967.1-2.478.559-2.5,2.557-.048,5.276-.015,10.553-.017,15.829a13.772,13.772,0,0,0,.5,5.087c-.063.413.1.718.616.971,3.024,0,6.217-.017,9.409.021.417,0,.639-.291.985-.344" transform="translate(-0.031 0)" fill="#310e31"/>
    <path id="Trazado_588250" data-name="Trazado 588250" d="M2.322,44.844A35.554,35.554,0,0,0,5.23,42.128v-.989l2.712-2.673a3.991,3.991,0,0,1,4.439,1.7,10.787,10.787,0,0,0,.772.813,4.775,4.775,0,0,1,2.581-1.663.711.711,0,0,0,.518-.718c-.023-.825.579-1.294,1.091-1.805q6.851-6.849,13.7-13.7l1.011-1.011a1,1,0,0,0-.481-1.225,7.062,7.062,0,0,1-2.522-3.779,3.634,3.634,0,0,1-.173-1.051c-.015-1.829-.007-3.658-.007-5.487A46.679,46.679,0,0,0,25.1,14.161c-.427.4-.824.833-1.22,1.234h-.83c-.7.85-.287,1.863-.41,2.8-.079.6.228,1.315-.5,1.721-.839-.218-.481-1.171-1.123-1.624-.838-.046-1.3.691-1.846,1.231C14.88,23.774,10.629,28.057,6.34,32.3a6.3,6.3,0,0,1-3.017,2.085c-.3-1.095.459-1.57.991-2.107C8.9,27.65,13.806,23.345,18.293,18.613c.5-.53,1.194-.954,1.224-1.878-.7-.533-1.741-.547-2.3-1.339-.62.073-.153.63-.452.94a12.429,12.429,0,0,0-4.489,1.4c-1.631.893-3.425,1.662-4.669,3.2a15.794,15.794,0,0,1-2.054,2.052A6.945,6.945,0,0,0,4.01,24.939a19.183,19.183,0,0,0-2.454,5.277C1.262,31.656.631,33.023.7,34.54a20.6,20.6,0,0,1,0,2.581,14.623,14.623,0,0,0,1.155,6.144,4.029,4.029,0,0,1,.476,1.58" transform="translate(-0.375 -5.992)" fill="#e5ecfe"/>
    <path id="Trazado_588251" data-name="Trazado 588251" d="M16.906,115.558c0-1.24-.039-2.48.011-3.718.049-1.2-.284-2.433.328-3.578.208-.243.642-.1.8-.513h4.035c-.279-.374-.234-.839-.561-1-.45-1.725.389-3.193.7-4.74.31-1.527.788-3.022,1.212-4.515.464-1.634.842-3.3,1.382-4.916.476-1.428.787-2.912,1.149-4.376.326-1.318.744-2.609,1.084-3.924A23.385,23.385,0,0,1,28.228,80.4a.844.844,0,0,0,0-.636c-.608-1.259-.148-2.606-.372-4.024-2.218,1.831-3.786,4.3-6.385,5.515v1.34a11.675,11.675,0,0,1-1.647,2.037c.858,1.008,1.965,1.717,2.565,2.917v2.182l-2.828,2.826h-.808c-.127.112-.249.209-.36.319-1.069,1.066-2.165,2.107-3.2,3.208-.915.977-1.9,1.682-3.312,1.276a3.952,3.952,0,0,1-1.594-1.19q-3.714-3.719-7.439-7.427c-.256-.254-.438-.615-.844-.691A26.386,26.386,0,0,0,.991,92.143c-.453.307-.264.773-.269,1.175-.019,1.4-.088,2.8.013,4.19A18.405,18.405,0,0,0,2,102.943a19.259,19.259,0,0,0,2.56,4.758c.242.315.509.638.756.961a14.411,14.411,0,0,0,3.259,3.147,2.492,2.492,0,0,1-1.476.181c-1.936.018-3.872,0-5.808.012-.233,0-.574-.125-.578.319a2.461,2.461,0,0,0,1.97.483,46.736,46.736,0,0,0,6.436-.138c1.23-.179,1.865.591,2.6,1.273,1.337.592,2.736,1.026,4.082,1.6a3.037,3.037,0,0,0,1.1.019" transform="translate(-0.387 -43.05)" fill="#e5ecfe"/>
    <path id="Trazado_588252" data-name="Trazado 588252" d="M159.091,2.308q0,11.558,0,23.115c0,.518.159,1.095-.55,1.49h-3.53c-.179.263-.472.36-.456.691.02.43,0,.862,0,1.293V82.886c-.016.328.326.394.453.631h10.1c.127-.238.469-.3.453-.631a29.2,29.2,0,0,0,.146-5.3c.047-2.531-.1-5.07.031-7.6.686-13.019.22-26.048.36-39.07.006-.539.008-1.078-.006-1.616-.061-2.315-.428-2.717-2.683-2.939a3.465,3.465,0,0,1-1.367-.281,2.53,2.53,0,0,1-.466-1.874c-.03-1.184.033-2.372-.02-3.555-.091-2.026-.085-4,1.739-5.4a6.341,6.341,0,0,1,1.677-1.188c1.989-.993,3.819-2.25,5.733-3.375V9.469l-9.658-5.55V1.825c-.345-.246-.777-.15-.908-.645a3.018,3.018,0,0,0-1.054,1.128" transform="translate(-87.846 -0.671)" fill="#310e31"/>
    <path id="Trazado_588253" data-name="Trazado 588253" d="M171.847,33.784a4.828,4.828,0,0,0-2.259,1.439v9.734l.408.408c1.382.321,2.813-.35,4.118.425v55.629c.631-.114.306-.607.308-.9.024-4.15.016-8.3.016-12.45V84.8a20.6,20.6,0,0,0,3.875-7.422,12.769,12.769,0,0,0,.666-3.933c-.036-1.131-.063-2.267.006-3.394.1-1.607-.964-4.927-1.657-6.6a3.845,3.845,0,0,1-.641-2.008c.013-.1-.2-.228-.366-.4.552-.6.342-1.359.378-1.912a39.182,39.182,0,0,0,2-5.819,20.67,20.67,0,0,0,.193-6.337,19.259,19.259,0,0,0-3.392-9.088,16.63,16.63,0,0,0-1.616-1.915,4.479,4.479,0,0,1-.845-1.1c-.227-.452-.785-.738-1.2-1.1" transform="translate(-96.393 -19.203)" fill="#e5ecfe"/>
    <path id="Trazado_588254" data-name="Trazado 588254" d="M126.871,125.738v-31.9l-.912-.755H116.33a2.705,2.705,0,0,0-.8,2.3q.022,19.385.01,38.769v.812l.812.8h9.762l.759-1.033Z" transform="translate(-65.665 -52.907)" fill="#320f32"/>
    <path id="Trazado_588255" data-name="Trazado 588255" d="M70.037,139.465q0-10.746,0-21.493c0-.517-.164-1.095.546-1.49h4.63c.04-.931-.377-1.737-.356-2.628.085-3.5.035-7,.035-10.4-.658-1.039-1.866-1.29-2.393-2.155-.748-.076-.35.681-.792.74-.155,1.31-.768,2.509-.988,3.784a40.7,40.7,0,0,1-1.067,3.938c-.385,1.389-.736,2.805-1.165,4.189a21.793,21.793,0,0,0-.776,2.77,7.37,7.37,0,0,1-.8,2.722c-.243.391-.04.8-.2,1.212a6.856,6.856,0,0,1-2.177,3.409v15.406c.314.025.323-.192.324-.411,0-1.009,0-2.017,0-3.155,1.687.872,3.113,2.026,4.818,2.721.2.227-.252.771.363.846" transform="translate(-36.679 -57.572)" fill="#e5ecfe"/>
    <path id="Trazado_588256" data-name="Trazado 588256" d="M11.337,161.6c.136-.549-.245-.979-.387-1.541-.182-.259-.608.1-.824-.167a.837.837,0,0,0-1.024-.206,5.728,5.728,0,0,1-2.791.286c-1.994.033-3.988.01-5.983.01A1.881,1.881,0,0,0,0,161.308c.006,3.826,0,7.653,0,11.46l.757.757h9.823a2.694,2.694,0,0,0,.765-2.215c-.031-3.235-.012-6.471-.012-9.707" transform="translate(0 -90.715)" fill="#320f32"/>
    <path id="Trazado_588257" data-name="Trazado 588257" d="M19.854,20.959v.811l.516.509h1.782C16.758,28.148,10.794,33.272,5.3,38.91v1.3l1,.511c3.644-2.881,6.68-6.347,9.966-9.552,2.465-2.4,4.877-4.864,7.332-7.319.33.606,0,1.27.212,1.876.574.626,1.165.583,1.874-.042V20.959c.016-.326-.323-.392-.451-.63H20.3c-.128.238-.467.3-.451.63" transform="translate(-3.011 -11.555)" fill="#310f31"/>
    <path id="Trazado_588258" data-name="Trazado 588258" d="M136.406,36.069c.594-.913.638-2.265,2.118-2.022.088-.843-.433-.554-.749-.626-.726-.435-.964-1.231-1.354-1.973a3.8,3.8,0,0,1-.954,1.961c-.224.152-.917-.129-1.118.633a3.221,3.221,0,0,1,1.5.458,5.1,5.1,0,0,1,.556,1.57" transform="translate(-76.363 -17.875)" fill="#f4b74f"/>
    <path id="Trazado_588259" data-name="Trazado 588259" d="M53.826,56.015c.249.622.861.875,1.138,1.319l3.617-3.615c.864.1,1.571-.232,2.035.526.158,1.52-.681,3.042-.207,4.65h9.549v-6.23a3.307,3.307,0,0,1,2.115-.546c2.308.033,4.617.012,6.967.012V47.925h-4.46a7.412,7.412,0,0,0-.97.009c-.359.048-.437-.539-.839-.331a30.332,30.332,0,0,0-2.442-3.174c.178,1.482-.725,2.109-1.45,2.849-.159,0-.369-.065-.474.012a1.332,1.332,0,0,1-1.314.281c-.727-.383-1.646-.2-2.258-.8a4.805,4.805,0,0,0-1.294-.792c-.729-.214-1.077.367-1.474.757q-3.793,3.736-7.531,7.529c-.451.459-1.184.878-.71,1.745" transform="translate(-30.507 -25.253)" fill="#8ab5ee"/>
    <path id="Trazado_588260" data-name="Trazado 588260" d="M87.344,105.04a3.124,3.124,0,0,0,.645-1.728c.006-3.806.065-7.614-.037-11.418a5.28,5.28,0,0,0-1.083-3.087c-1.3-1.723-2.377-3.616-3.565-5.426-.1-.155-.223-.386-.494-.347-2.392-.356-4.777-.047-7.129-.177-.3,1.2.416,1.61.985,2.058,1.951,1.535,3.944,3.026,6.02,4.377a4.566,4.566,0,0,1,2.264,4.459c-.116,2.638-.037,5.284-.024,7.927a4.008,4.008,0,0,0,.588,2.476c.442.6.89,1.274,1.829.885" transform="translate(-42.976 -47.095)" fill="#af7575"/>
    <path id="Trazado_588261" data-name="Trazado 588261" d="M91.581,158.67V141.519a25.448,25.448,0,0,0-4.358-.152,2.125,2.125,0,0,0-.7,1.872c-.031,4.2-.081,8.393.015,12.587.068,2.969,2.316,4.193,5.042,2.844" transform="translate(-49.157 -80.338)" fill="#fdf1a7"/>
    <path id="Trazado_588262" data-name="Trazado 588262" d="M59.887,117.744c.046-.356.385-.483.441-.558L66.148,96.08A4.588,4.588,0,0,0,64.1,94.444c-1.217-.308-1.111.754-1.282,1.352-1.332,4.657-2.584,9.337-3.856,14.012-.4,1.455-.826,2.9-1.221,4.354a3.707,3.707,0,0,0-.1,2.227c.366,1.03.915,1.883,2.254,1.356" transform="translate(-32.682 -53.65)" fill="#af7575"/>
    <path id="Trazado_588263" data-name="Trazado 588263" d="M83.6,104.848a2.572,2.572,0,0,1-1.939-2.458c-.012-3.332-.039-6.664.012-10a3.225,3.225,0,0,0-1.791-3.135,51.6,51.6,0,0,1-4.335-3.181c-1.109-.827-2.221-1.648-3.328-2.479a.56.56,0,0,1-.243-.667,22.624,22.624,0,0,1,3.541-.084c1.182-.029,2.366-.006,3.549-.006.025-.319-.2-.323-.417-.323H69.138c-.353.588.2,1.013.392,1.227a9.611,9.611,0,0,0,1.966,1.79C73.3,86.7,74.958,88.1,76.7,89.367a30.689,30.689,0,0,1,2.687,2.027c0,3.427,0,6.816,0,10.206,0,1.186-.2,2.415.986,3.594l1.457.7a6.066,6.066,0,0,0,1.765-1.048" transform="translate(-39.232 -46.903)" fill="#a35674"/>
    <path id="Trazado_588264" data-name="Trazado 588264" d="M88.891,158.477c-.645,0-1.293-.039-1.934.008a2.2,2.2,0,0,1-2.569-1.6V141.326h4.5c.025-.319-.2-.323-.417-.323H82.246c-.253.286-.512.442-.494.847.046,1.02.015,2.044.015,3.067V160.7c2.335.1,4.675.015,7.124.052Z" transform="translate(-46.467 -80.144)" fill="#ebb4a6"/>
    <path id="Trazado_588265" data-name="Trazado 588265" d="M18.722,84.022c0,.161-.062.36.009.478.889,1.464,1.8,2.916,2.7,4.376l.331-.277c.466.234,1.031.381,1.017,1.227l-.234.259c2.233,1.18,4.272,2.66,6.6,3.809.549-.816,1.51-1.156,1.616-2.206Q25.77,86.7,20.824,81.76c-.027-.027-.1,0-.158,0-1.258.232-2.16.769-1.943,2.265" transform="translate(-10.623 -46.465)" fill="#bdc2c6"/>
    <path id="Trazado_588266" data-name="Trazado 588266" d="M52.564,155.248H48.031a2.323,2.323,0,0,0-.521,1.654c-.026,2.262-.1,4.526.023,6.784.154,2.877,2.266,4.1,5.141,2.886.1-1.632.071-3.347.037-5.056a42.567,42.567,0,0,0-.146-6.268" transform="translate(-26.979 -88.242)" fill="#a082e0"/>
    <path id="Trazado_588267" data-name="Trazado 588267" d="M57.472,115.5h-.8L55.555,114.4c-.279-1.891.64-3.521,1.029-5.248.339-1.507.846-2.983,1.21-4.49.319-1.316.766-2.594,1.055-3.923.34-1.561.925-3.063,1.259-4.641a13.152,13.152,0,0,1,.785-2.567c.189-.427,0-.835.2-1.23.155-.2.388-.054.587-.095-.339-.83-1.461-.771-1.711-1.757a14.061,14.061,0,0,0-1.183,3.432c-.538,1.827-.928,3.694-1.52,5.511-.45,1.383-.689,2.835-1.1,4.231-.486,1.638-.877,3.3-1.342,4.941-.221.776-.42,1.549-.6,2.334a9.855,9.855,0,0,0-.653,2.32c0,.221-.211.442-.318.65.38.806.454,1.774,1.383,2.243h2.06c.084-.412.771-.079.777-.606" transform="translate(-30.267 -51.409)" fill="#a35774"/>
    <path id="Trazado_588268" data-name="Trazado 588268" d="M50.252,155.248v11.281H47.131c-.2-.2-.42-.429-.653-.65a2.477,2.477,0,0,1-.77-1.94c.025-2.9.01-5.794.01-8.691h-2.1a132.4,132.4,0,0,0-.113,13.536H50.47c.254-.314.095-.758.1-1.163q.023-5.816,0-11.632c0-.259.228-.683-.313-.741" transform="translate(-24.666 -88.242)" fill="#9662e1"/>
    <path id="Trazado_588269" data-name="Trazado 588269" d="M20.018,103.593a28.751,28.751,0,0,0,2.617-2.41,26.022,26.022,0,0,0-3.3-2.114c-.619-.425-1.295-.766-1.931-1.167a.75.75,0,0,0-1.1.177c-.377-.362-1.145-.328-.875-1.335.482-.416-.118-.991-.408-1.52-.555-1.012-1.2-1.975-1.8-2.959a2.3,2.3,0,0,0-1.883,2.779,3.491,3.491,0,0,0,.922,1.84q3.075,3.166,6.244,6.239c.4.388.827.917,1.518.468" transform="translate(-6.414 -52.444)" fill="#fcf0a7"/>
    <path id="Trazado_588270" data-name="Trazado 588270" d="M79.971,24.395c.2-.042.415.088.6-.107.329-.35.677-.683.9-.9a14.4,14.4,0,0,0,.342-5.716c-.013-.124-.214-.228-.39-.4-1.121.617-2.39.21-3.695.371-.5,1.409-1.808,2.047-2.934,2.875-.414.573-.057,1.055.267,1.449a5.592,5.592,0,0,0,4.914,2.434" transform="translate(-42.404 -9.813)" fill="#fddccd"/>
    <path id="Trazado_588271" data-name="Trazado 588271" d="M16.6,101.465c-.438.112-.672-.18-.938-.447-2.376-2.383-4.758-4.761-7.157-7.158,0-.139.061-.334-.009-.449-.715-1.179-.133-2.031.7-2.815.181-.172.284-.469.609-.457L8.718,88.522,5.274,91.93V92.9l9.5,9.492H15.8a2.3,2.3,0,0,0,.806-.923" transform="translate(-2.998 -50.315)" fill="#ecb4a7"/>
    <path id="Trazado_588272" data-name="Trazado 588272" d="M51.868,55.673c.043-.2-.085-.412.109-.6,3.226-3.119,6.253-6.441,9.606-9.432a3.948,3.948,0,0,0-1.014-1.814L50.227,54.161a7.478,7.478,0,0,0,1.641,1.511" transform="translate(-28.549 -24.911)" fill="#8287ed"/>
    <path id="Trazado_588273" data-name="Trazado 588273" d="M72.994,12.031c.784.042,1.035-.511,1.306-1.1s.634-1.136.974-1.733c1.871-.288,3.8.285,5.759-.514a8.034,8.034,0,0,0,1.351-1.5c-.059-.768-.689-.757-1.185-.771a29.035,29.035,0,0,0-4.836.054c-3.019.421-4.578,3.054-3.37,5.571" transform="translate(-41.256 -3.599)" fill="#d39a8c"/>
    <path id="Trazado_588274" data-name="Trazado 588274" d="M117.932,56.694h3.3c1.678-.972,1.887-1.692.994-3.552-1.186-.7-1.186-.7-4.294-.575Z" transform="translate(-67.032 -29.844)" fill="#feddce"/>
    <path id="Trazado_588275" data-name="Trazado 588275" d="M71.893,11.434V9a1.366,1.366,0,0,0,.358-.651A3.353,3.353,0,0,1,75.379,6.3c1.871-.158,3.766-.043,5.65-.034a.247.247,0,0,1,.256.318c.5-.2.445-.719.79-1.243-1.55-.1-2.974-.038-4.393-.049-1.451-.011-2.9,0-4.318,0-1.338.827-1.561,1.076-2.717,3v3.455c.449-.127.976.377,1.246-.307" transform="translate(-40.155 -3.001)" fill="#c5748c"/>
    <path id="Trazado_588276" data-name="Trazado 588276" d="M43.483,77.832c.182.505.72.421,1.073.69,1.481-.373,2.165-1.675,3.337-2.61a10.841,10.841,0,0,0-1.82-1.64c-1.29.877-2.865,1.546-2.591,3.56" transform="translate(-24.697 -42.216)" fill="#fcdbcd"/>
    <path id="Trazado_588277" data-name="Trazado 588277" d="M42.209,76.009a2.47,2.47,0,0,1,.778-1.6A10.537,10.537,0,0,0,44.8,72.449c-.248-.614-.854-.872-1.175-1.384-2.463,1.869-2.935,2.919-1.9,4.944Z" transform="translate(-23.424 -40.393)" fill="#f8b195"/>
    <path id="Trazado_588278" data-name="Trazado 588278" d="M38.434,85.134c-.888-.491-1.6-.851-2.275-1.266-.7-.43-.625-1.406-1.195-1.846l-1.306,1.3,1.6,1.6,1.654,1.656,1.521-1.443" transform="translate(-19.132 -46.621)" fill="#e1e7f9"/>
    <path id="Trazado_588279" data-name="Trazado 588279" d="M78.413,28.67a8.487,8.487,0,0,1-3.908-1.847,3.13,3.13,0,0,1-1.273-2.036H72.1c-.568.609.014,1.168.268,1.507a6.584,6.584,0,0,0,5.787,2.695.249.249,0,0,0,.255-.319" transform="translate(-40.846 -14.089)" fill="#f5af94"/>
    <path id="Trazado_588280" data-name="Trazado 588280" d="M83.533,41.945V39.033H80.943c-.363,1.759.662,2.911,2.591,2.912" transform="translate(-45.966 -22.186)" fill="#fad8ca"/>
    <path id="Trazado_588281" data-name="Trazado 588281" d="M17.449,82.746c.04-.2-.1-.422.1-.59a11.213,11.213,0,0,1,1.839-1.675c-.3-.583-.664-1.085-1.513-.96-.216.229-.47.5-.731.773-.223.231-.453.454-.7.7.133.7.2,1.428,1,1.751" transform="translate(-9.349 -45.188)" fill="#a6a9ad"/>
    <path id="Trazado_588282" data-name="Trazado 588282" d="M82.45,41.393a1.958,1.958,0,0,1-1.675-.908c-.377-.618-1.14-1.1-.915-2a.874.874,0,0,1-.895-.42v2.09a4.221,4.221,0,0,1,.857.75c.3.407.833.4,1.182.841.435-.217,1.049.3,1.446-.35" transform="translate(-44.883 -21.634)" fill="#f6b095"/>
    <path id="Trazado_588283" data-name="Trazado 588283" d="M19.853,137.4v-1.027l.808-.808a3.066,3.066,0,0,0,1.491-.511c-.341-.366-.8-.055-1.167-.218l-1.028-1.026c-.217-.372.135-.852-.328-1.307a2.975,2.975,0,0,1-1.205,2.354l-.969.046c-.169.121-.161.242-.016.265.953.156,1.5.879,2.186,1.543v.712l.227-.024" transform="translate(-9.85 -75.314)" fill="#ed5a6c"/>
    <path id="Trazado_588284" data-name="Trazado 588284" d="M168.452,115.434V65.275h-4.534c-.967.58-.851,1.556-.857,2.456-.027,4.1-.011,8.2-.011,12.295q0,15.126,0,30.252a19.581,19.581,0,0,0,.071,2.424c.355,2.846,2.69,4.04,5.33,2.732" transform="translate(-92.674 -37.102)" fill="#57cdad"/>
    <path id="Trazado_588285" data-name="Trazado 588285" d="M166.19,115.434h-3.072c-1.308-.768-1.778-1.2-1.78-3.27q-.016-22.623,0-45.246a2.215,2.215,0,0,1,.322-1.643h-2.442a.807.807,0,0,0-.1.112.291.291,0,0,0-.051.139q0,26,0,52a.767.767,0,0,0,.109.115.26.26,0,0,0,.138.054c2.256,0,4.511,0,6.878,0Z" transform="translate(-90.412 -37.102)" fill="#70adc2"/>
    <path id="Trazado_588286" data-name="Trazado 588286" d="M171.189,14.425c-.2-.736-.957-.649-1.358-1.037a1.683,1.683,0,0,0-.2.167.245.245,0,0,0-.061.134c0,2.251,0,4.5,0,6.737a.725.725,0,0,0,.9.043,54.421,54.421,0,0,1,4.781-2.853,8.108,8.108,0,0,1,.811-.393,3.605,3.605,0,0,0-1.635-1.18c-.836.44-1.5,1.252-2.6,1.25-.941-.8-.328-1.943-.642-2.868" transform="translate(-96.382 -7.61)" fill="#da65b8"/>
    <path id="Trazado_588287" data-name="Trazado 588287" d="M172.894,15.788c-.31-.024-.323.188-.324.408,0,.743,0,1.486,0,2.3.361.344.574.965,1.481.828a3.131,3.131,0,0,1,1.489-.958.792.792,0,0,0,.592-.957c-.885-.507-1.777-1-2.648-1.529-.208-.126-.4-.052-.59-.089" transform="translate(-98.088 -8.972)" fill="#ec89bb"/>
    <path id="Trazado_588288" data-name="Trazado 588288" d="M129.85,134.186V98.265h-4.534a2.487,2.487,0,0,0-.531,1.812c-.015,10.327-.069,20.653.029,30.979.03,3.117,2.337,4.468,5.036,3.129" transform="translate(-70.911 -55.853)" fill="#b1e6f0"/>
    <path id="Trazado_588289" data-name="Trazado 588289" d="M127.6,134.186h-3.086c-.182-.185-.364-.385-.561-.568a2.8,2.8,0,0,1-.9-2.22c.03-5.495.015-10.99.015-16.486V98.265h-2.1a.756.756,0,0,0-.114.112.271.271,0,0,0-.051.139c0,12.59,0,25.179,0,37.878,2.227.132,4.459.017,6.8.069Z" transform="translate(-68.663 -55.853)" fill="#a6acf0"/>
    <path id="Trazado_588290" data-name="Trazado 588290" d="M7.527,164.995H5.434a.751.751,0,0,0-.115.106.254.254,0,0,0-.057.136c0,3,0,6,0,9.071h6.8v-2.194a2.584,2.584,0,0,0-1.666-.5c-1.9-.18-2.3-.61-2.368-2.533-.029-.808,0-1.616-.017-2.425a2.343,2.343,0,0,0-.483-1.665" transform="translate(-2.99 -93.782)" fill="#df68bc"/>
    <path id="Trazado_588291" data-name="Trazado 588291" d="M10.512,164.995v5.463a2.36,2.36,0,0,0,1.665,1.657h2.869v-7.119Z" transform="translate(-5.975 -93.782)" fill="#ee8abc"/>
  </g>
</svg>
