<svg id="Grupo_850411" data-name="Grupo 850411" xmlns="http://www.w3.org/2000/svg" xmlns:xlink="http://www.w3.org/1999/xlink" width="84.278" height="84.503" viewBox="0 0 84.278 84.503">
  <defs>
    <clipPath id="clip-path">
      <rect id="Rect치ngulo_39435" data-name="Rect치ngulo 39435" width="84.278" height="84.503" fill="none"/>
    </clipPath>
  </defs>
  <g id="Grupo_850410" data-name="Grupo 850410" clip-path="url(#clip-path)">
    <path id="Trazado_588399" data-name="Trazado 588399" d="M80.649,16.932A13.119,13.119,0,0,0,79.887,15a1.682,1.682,0,0,1,0-1.952c.3-.482.365-1.139.721-1.557.4-.468.284-.924.3-1.408L74.3,3.458a3.148,3.148,0,0,0-.84.015,9.833,9.833,0,0,0-1,.459,2.937,2.937,0,0,0-1.17.844c-1.447.324-2.516-.763-3.8-1L66.242.062H56.235a25.635,25.635,0,0,0-1.192,3.6c-.743.326-1.547.707-2.374,1.029a1.361,1.361,0,0,1-1.39-.1c-.508-.352-1.192-.454-1.687-.819a2.525,2.525,0,0,0-1.6-.322l-1.23,1.5C43.943,2.927,40.785,1.913,37.67.805c-.652-.232-1.437.124-2.039-.411C33.968.462,32.356-.162,30.675.04c-.67.08-1.361-.032-2.036.024-.819.068-1.666-.257-2.461.2s-1.792-.289-2.525.466a3.965,3.965,0,0,0-2.372.431c-.734.273-1.489.51-2.225.773A25.455,25.455,0,0,0,12.1,5.618a31.7,31.7,0,0,0-5.479,5.3,34.57,34.57,0,0,0-4.187,6.965,27.757,27.757,0,0,0-1,2.82,20.243,20.243,0,0,0-.761,2.764,11.761,11.761,0,0,1-.326,2.569C-.112,27,.177,27.9.09,28.82A9.923,9.923,0,0,0,.1,31.536a55.979,55.979,0,0,0,1.125,5.99,39.64,39.64,0,0,0,2.712,6.367,29.789,29.789,0,0,0,2.019,3.079,32.846,32.846,0,0,0,3.963,4.313,18.563,18.563,0,0,1,3.477,5.2,13.193,13.193,0,0,1,1.243,4.406c.049.6.675,1.06.287,1.762a4.46,4.46,0,0,0-3.355,2,3.107,3.107,0,0,0-.615,1.778c-.044,1.133.041,2.272-.034,3.4-.039.59.611.96.365,1.555l1.833,1.838c.6-.145,1.047.5,1.676.372.727.6.566,1.56.859,2.333a13.373,13.373,0,0,0,2.733,4.669,12.122,12.122,0,0,0,5.43,3.338,9.084,9.084,0,0,0,2.829.569c2.037-.045,4.078-.07,6.114,0,2.572.089,4.728-1.089,6.946-2.114,2.324-2.114,4.387-4.39,4.88-7.68a5.355,5.355,0,0,1,.43-1.087c.655.166,1.106-.619,1.75-.351l1.749-1.752c.818-1.8.331-3.721.51-5.574-.467-.249-.362-.675-.389-1.041-1.042-1.057-1.965-2.283-3.758-2.2a28.087,28.087,0,0,1,1.164-5.05,18.924,18.924,0,0,1,4.086-6.473c.626-.656,1.275-1.29,1.92-1.927a17.2,17.2,0,0,0,3.125-4.15,1.2,1.2,0,0,1,.5-.5c-.057.712.48,1.127.512,1.73H66.2a20.382,20.382,0,0,0,1.187-3.551c.7-.548,1.749-.523,2.519-1.182h1.3a4.562,4.562,0,0,0,2.913,1.364l6.829-6.844a1.694,1.694,0,0,0-.079-.865c-.144-.391-.5-.714-.6-1.109-.107-.447-.5-.581-.7-.907V31.912a10.536,10.536,0,0,0,1.06-2.423l3.648-1.235v-10.1l-3.628-1.222" transform="translate(0 0)"/>
    <path id="Trazado_588400" data-name="Trazado 588400" d="M20.161,61.157c-.055-1.8.7-3.463.452-5.2.528-1.1.112-2.33.391-3.42s.083-2.221.333-3.266c.277-1.156.091-2.332.342-3.433a20.018,20.018,0,0,0,.3-3.784c0-.137.174-.267.307-.459L20.4,41.017c-1.469-1.11-2.469-2.493-2.11-4.533.342-.219.32-.616.274-.974L20.4,33.664l.79-.093a.839.839,0,0,0,.06-.815c-.57-1.184-1.187-2.345-1.788-3.514-.385-.75-.77-1.5-1.188-2.312V16.984h8.043v2.628c.925.108,1.8.028,2.732.063V17.024h8.174V19.6h2.738V17h8.058c.26.332.094.8.1,1.228.02,2.5,0,4.993.014,7.489a4.025,4.025,0,0,1-.52,2.174c-.867,1.495-1.523,3.11-2.338,4.638a1.921,1.921,0,0,0-.192.937c.215.281.522.1.833.167l1.8,1.866a4.4,4.4,0,0,1,.083,3.483,4.978,4.978,0,0,1-1.655,1.845,2.917,2.917,0,0,1-1.944.633c-.312.323.239.371.2.646-.256,1.844.486,3.635.32,5.473-.076.843.476,1.544.389,2.417-.073.726-.343,1.568.292,2.245.057.06.019.221.006.333-.222,1.847.413,3.63.391,5.477a19.051,19.051,0,0,1,.231,3.3,4.255,4.255,0,0,0,.87-1.808,28.062,28.062,0,0,1,1.929-3.791,14.11,14.11,0,0,1,1.8-2.317c.8-.882,1.689-1.677,2.509-2.54a28.093,28.093,0,0,0,5.457-8.628A24.723,24.723,0,0,0,60.1,36.239a39.4,39.4,0,0,0,.237-4.807,3.138,3.138,0,0,0-.27-2.1c-.357-.531.265-1.439-.385-2.041-.206-3.056-1.674-5.65-3.077-8.252a10.778,10.778,0,0,0-2.359-3.273c-.6-.509-.851-1.26-1.42-1.808A29.126,29.126,0,0,0,43.6,7.893a9.519,9.519,0,0,0-4.275-1.164c-.688-.487-1.595-.086-2.208-.4a5.743,5.743,0,0,0-2.436-.269C33.9,6,33.1,6.049,32.307,6.049a9.736,9.736,0,0,0-2.369.032c-1.705.441-3.484.5-5.159,1.067a29.591,29.591,0,0,0-4.752,2.06,26.187,26.187,0,0,0-4.4,2.959,22.431,22.431,0,0,0-2.459,2.213,26.913,26.913,0,0,0-5.8,10.012,7.032,7.032,0,0,0-.687,2.271c.029.82-.55,1.561-.335,2.412-.716,1.961-.426,4.015-.265,5.981A21.974,21.974,0,0,0,7.13,40.38a32.951,32.951,0,0,0,2.054,4.764,29.386,29.386,0,0,0,2.842,4.28c1.179,1.513,2.58,2.783,3.883,4.16a21.886,21.886,0,0,1,1.986,2.923,30.746,30.746,0,0,1,2.267,4.65" transform="translate(-3.215 -3.272)" fill="#fee9a6"/>
    <path id="Trazado_588401" data-name="Trazado 588401" d="M44.81,84.2l-.479.48a.545.545,0,0,0-.029.157c.231,2.015-.551,3.973-.342,5.986-.518,1.045-.133,2.208-.384,3.252-.29,1.212-.073,2.454-.355,3.6a16.22,16.22,0,0,0-.282,3.107,13.561,13.561,0,0,0-.369,2.245,4.693,4.693,0,0,1-.253,2.261,7.063,7.063,0,0,0-.059,2.36c0,.329.137.722-.493.853,1.56.289,16.81.375,21.912.146a1.43,1.43,0,0,1-.346-1.338c.136-1.787-.6-3.514-.347-5.306-.55-.983-.257-2.058-.346-3.092a12.178,12.178,0,0,1-.358-2.244,2.992,2.992,0,0,0-.307-2.245c-.054-.072-.02-.223-.005-.335.23-1.847-.575-3.629-.341-5.475-.523-1.273-.283-2.618-.351-3.913l-.5-.5H44.81Z" transform="translate(-22.826 -46.017)" fill="#d29f6c"/>
    <path id="Trazado_588402" data-name="Trazado 588402" d="M119.943,41.165c.137,1.105-.507,1.849-.825,2.664-.507,1.3.2,2.15.443,3.145h6.066c.821-.966.534-2.3,1.29-3.318,1.848-.047,3.331-1.271,5.144-1.974.624.717,1.694.93,2.483,1.4l4.6-4.605a17.41,17.41,0,0,0-1.464-2.446c.679-1.745,1.927-3.219,1.986-5.2.963-.754,2.41-.36,3.337-1.27V23.613c-.953-.838-2.291-.539-3.317-1.287-.034-1.854-1.261-3.339-1.964-5.153.712-.683.949-1.793,1.555-2.695l-4.545-4.555c-.828.686-2.035.752-2.652,1.617-1.733-.687-3.21-1.921-5.174-2-.757-.958-.4-2.393-1.3-3.346h-5.917c-.842.944-.526,2.292-1.293,3.322-1.866.07-3.4,1.272-5.134,2.036-.212-.233-.45-.483-.852-.055.5,1.021,1.527,1.589,2.232,2.492a15.223,15.223,0,0,1,6.292-2.345,13.578,13.578,0,0,1,6.777.815,15.168,15.168,0,0,1,5.756,3.715,15.509,15.509,0,0,1,3.236,5.284A12.62,12.62,0,0,1,137.554,25a16.331,16.331,0,0,1-.116,4.006A15.126,15.126,0,0,1,135.074,35c-3.854,5.482-10.5,7.526-15.131,6.164" transform="translate(-61.43 -3.386)" fill="#fec629"/>
    <path id="Trazado_588403" data-name="Trazado 588403" d="M30.929,144.37l-.776.883v3.7l.946.817H61.9l.806-.808v-3.878l-1.118-.711Z" transform="translate(-16.479 -78.901)" fill="#cbd0d8"/>
    <path id="Trazado_588404" data-name="Trazado 588404" d="M63.817,162.327h-24.4a10.644,10.644,0,0,0,1.02,3.041,8.184,8.184,0,0,0,1.813,2.475,10.258,10.258,0,0,0,4.465,2.34,8.7,8.7,0,0,0,2.245.288c1.751.011,3.5.022,5.253,0a9.389,9.389,0,0,0,7.57-3.739,6.355,6.355,0,0,0,1.612-3.725c0-.279.231-.358.426-.68" transform="translate(-21.54 -88.714)" fill="#a9b1bc"/>
    <path id="Trazado_588405" data-name="Trazado 588405" d="M120.887,25.958a14.221,14.221,0,0,0,1.522,2.311,9.048,9.048,0,0,1,9.676-.137,9.214,9.214,0,0,1,4.591,9.845,8.241,8.241,0,0,1-1.992,4.425,10.269,10.269,0,0,1-4.061,2.891,15.327,15.327,0,0,1-4.94.622c-.263.8.193,1.619-.458,2.338a4.93,4.93,0,0,0,3.619.323,13.3,13.3,0,0,0,6.537-3.058,12.867,12.867,0,0,0,4.1-7.653c.51-3.051-.66-5.819-2.022-8.485-1.54-1.386-2.779-3.066-4.812-3.945a13.574,13.574,0,0,0-6.073-1.315,13.757,13.757,0,0,0-5.687,1.839" transform="translate(-66.067 -13.176)" fill="#fbd66f"/>
    <path id="Trazado_588406" data-name="Trazado 588406" d="M41,54.171,43.7,59.618H61.041l2.569-5.166a1.183,1.183,0,0,0-.1-.185c-.035-.039-.085-.092-.128-.092-7.385,0-14.77,0-22.381,0" transform="translate(-22.406 -29.605)" fill="#d29f6c"/>
    <path id="Trazado_588407" data-name="Trazado 588407" d="M129.083,49.679c4.275.52,6.708-1.629,7.634-4.133a6.665,6.665,0,0,0-2.011-7.921,6.537,6.537,0,0,0-4.285-1.49,9.54,9.54,0,0,0-3.857,1.1,22.916,22.916,0,0,1,1.4,3.933c.236,1.429.642,2.825.826,4.278.18,1.417.1,2.842.3,4.238" transform="translate(-69.169 -19.748)" fill="#f7f9fa"/>
    <path id="Trazado_588408" data-name="Trazado 588408" d="M63.582,41.53V36.193H60.929v2.562a2.287,2.287,0,0,1-.427.108c-2.542,0-5.085,0-7.692,0V36.2c-.925-.107-1.8-.028-2.733-.062v2.652H41.9V36.213H39.191V41.53Z" transform="translate(-21.419 -19.748)" fill="#d29f6c"/>
    <path id="Trazado_588409" data-name="Trazado 588409" d="M62.8,74.941l.811-.921v-.993l-.942-.785H39.954l-.734,1.122v.775l1.1.8Z" transform="translate(-21.434 -39.481)" fill="#b17846"/>
    <path id="Trazado_588410" data-name="Trazado 588410" d="M14.874,60.286H12.161a23.981,23.981,0,0,0,5.568,17.335,4.413,4.413,0,0,0,2.194-1.533,21.621,21.621,0,0,1-5.049-15.8" transform="translate(-6.621 -32.947)" fill="#010101"/>
    <path id="Trazado_588411" data-name="Trazado 588411" d="M16.6,48.191,14.531,47.4c-.818.368-.647,1.258-.927,1.9a.784.784,0,0,0,.5,1.116c.5.2,1.18-.215,1.653.368.531-.242.394-.839.628-1.189a2.111,2.111,0,0,0,.21-1.4" transform="translate(-7.391 -25.903)" fill="#070605"/>
    <path id="Trazado_588412" data-name="Trazado 588412" d="M63.217,128.9h2.6v-2.636c-.8-.154-1.673.008-2.6-.088Z" transform="translate(-34.549 -68.958)"/>
    <rect id="Rect치ngulo_39434" data-name="Rect치ngulo 39434" width="2.608" height="2.608" transform="translate(28.664 51.887)"/>
    <path id="Trazado_588413" data-name="Trazado 588413" d="M63.215,104.9h2.6v-2.659c-.8-.088-1.672-.01-2.6-.044Z" transform="translate(-34.548 -55.855)"/>
    <path id="Trazado_588414" data-name="Trazado 588414" d="M63.12,93h2.623c.1-.858.016-1.732.051-2.664H63.124a13.227,13.227,0,0,0,0,2.664" transform="translate(-34.46 -49.371)"/>
  </g>
</svg>
