<svg id="Grupo_850405" data-name="Grupo 850405" xmlns="http://www.w3.org/2000/svg" xmlns:xlink="http://www.w3.org/1999/xlink" width="84" height="83.86" viewBox="0 0 84 83.86">
  <defs>
    <clipPath id="clip-path">
      <rect id="Rectángulo_39431" data-name="Rectángulo 39431" width="84" height="83.86" fill="none"/>
    </clipPath>
  </defs>
  <g id="Grupo_850404" data-name="Grupo 850404" clip-path="url(#clip-path)">
    <path id="Trazado_588313" data-name="Trazado 588313" d="M53.46,74.387c.335.016.4-.332.679-.48V54.052c1.829-.765,3.821-1.04,5.6-1.931a30.9,30.9,0,0,0,5.143-2.972c.464.028.631.423.887.677q5.23,5.2,10.441,10.41A7.245,7.245,0,0,0,79.207,62.5a3.835,3.835,0,0,0,4.464-1.9,4.324,4.324,0,0,0,.253-2.428,7.9,7.9,0,0,0-2.4-3.113q-5.619-5.617-11.269-11.252A27.209,27.209,0,0,0,75.793,28.33,27.7,27.7,0,0,0,71.341,12.2a2.272,2.272,0,0,0-1.468-.395c-1.168.7-1.349,1.289-.57,2.654a27.6,27.6,0,0,1,2.705,6.3A24.375,24.375,0,1,1,45.347,3.181,23.829,23.829,0,0,1,64.917,9.26c.812.73,1.69,1.963,2.985.577a1.954,1.954,0,0,0,.3-1.552C62.372,2.675,55.442-.367,47.236.035a27.242,27.242,0,0,0-18.9,8.819h-2.52c-7.763,0-15.526.012-23.288-.016A7.116,7.116,0,0,0,0,9.462v6.81c.213.114.279.462.614.446,1.345.624,1.908-.153,2.273-1.27.324-.989.091-2.069.565-3.4,7.372-.108,14.833.021,22.043-.066-.956.6-1.193,2.118-2.254,2.959A6.227,6.227,0,0,1,20.8,15.2c-3.719.013-7.438-.025-11.156.02-1.79.021-2.752.674-2.7,1.721.052.984.965,1.572,2.666,1.6,3.336.052,6.672,0,10.008.026a3.186,3.186,0,0,1,2.045.319,1.119,1.119,0,0,1-.356,1.221,3.29,3.29,0,0,1-1.882.333c-3.008.018-6.016,0-9.023.012a5.629,5.629,0,0,0-2.261.3A1.638,1.638,0,0,0,6.99,22.377,1.654,1.654,0,0,0,8.136,23.84a5.28,5.28,0,0,0,2.1.285c2.68.013,5.36,0,8.039.01a4.188,4.188,0,0,1,2.059.255,1,1,0,0,1,.162,1.211,2.3,2.3,0,0,1-1.729.41c-2.9.017-5.8,0-8.7.011a5.5,5.5,0,0,0-1.945.221,1.538,1.538,0,0,0-1.16,1.429,1.517,1.517,0,0,0,1.122,1.455,5.158,5.158,0,0,0,1.942.24c2.734.013,5.469,0,8.2.009a4.712,4.712,0,0,1,2.385.394c.665,2.743,1.087,5.772,2.316,8.525-2.82,1.736-2.825,1.736-2.826,4.988q0,15.559,0,31.118c0,.491-.009.983.021,1.474.127,2.076.867,2.866,2.936,2.943,2.459.091,4.922.067,7.382.013,2.363-.052,3.147-.82,3.175-3.193.061-5.022.014-10.045.022-15.067,0-3.1-.011-6.205.011-9.431a2.222,2.222,0,0,1,2.192,2.445c.034,2.238.012,4.476.014,6.714.006,4.968-.021,9.936.012,14.9.018,2.881.748,3.605,3.585,3.64,2.187.027,4.375.035,6.562,0,2.56-.045,3.341-.792,3.362-3.351.049-6.114,0-12.229.036-18.343,0-.761-.33-1.808.953-2.034.776.595.574,1.415.578,2.14.026,4.476.008,8.953.015,13.43a7.745,7.745,0,0,0,.275,2.593c.378,1.077,1,1.7,2.223,1.113" transform="translate(0 0)"/>
    <path id="Trazado_588314" data-name="Trazado 588314" d="M54.248,89.073h-1.2a4.124,4.124,0,0,1-.773-2.445q.012-8.025,0-16.05V69.116H49.708V91.81c-.256.23-.464.408-.4.725-.171.313-.759-.085-.711.471-3.144,0-6.2-.007-9.266.006a2.319,2.319,0,0,1-1.65-.4,3.061,3.061,0,0,1-.509-2.033q.025-11.956.01-23.908c-.752-1.16-2.276-1.169-3.166-2.165a2.444,2.444,0,0,0-.109,1.3Q33.89,78.252,33.9,90.7c0,.626.174,1.29-.448,1.8a2.779,2.779,0,0,1-1.986.512c-2.57-.027-5.14-.008-7.711-.012-.628,0-1.284.129-1.82-.4a3.061,3.061,0,0,1-.516-2.016q.024-17.115,0-34.23A2.735,2.735,0,0,1,22.275,54h2.5c-.49-1.15-.981-2.18-1.369-3.247a16.135,16.135,0,0,1-.909-3.529c-.141-1.2-.755-2.349-.325-3.651H8.842l-.874-.861c0-.225,0-.443,0-.661l.815-.814H22.044c.08-.943.017-1.9.042-2.9H9.109a1.927,1.927,0,0,1-1.127-1.4,1.784,1.784,0,0,1,1.124-1.269h13.52a6.346,6.346,0,0,0,.754-2.919H8.8l-.853-.992c-.157-.662.49-.922.879-1.348H24.56a30.1,30.1,0,0,1,2.371-4.093c-1.3-.23-18.77-.312-23.559-.094,0,.906-.021,1.821.006,2.735a4.616,4.616,0,0,1-.658,2.334c-.456.226-.9.051-1.317.111-.035.442.379.249.656.473v2.476c.88,1.955.763,4.031.763,6.1q-.008,26.177,0,52.354c0,1.072-.182,2.192.473,3.145a3.332,3.332,0,0,0,2.369.549q22.126.017,44.251,0a3.887,3.887,0,0,0,2.5-.564c.458-1.2.712-2.591,1.174-3.914V89.6c.078-.362.719.007.656-.523" transform="translate(-0.788 -14.686)" fill="#d7d4ec"/>
    <path id="Trazado_588315" data-name="Trazado 588315" d="M98.21,13.176c-.783.61-1.467.253-2.068-.279a24.925,24.925,0,0,0-2.407-2.1c-.851-.579-1.732-1.094-2.6-1.641-.838-.531-1.731-.859-2.582-1.293-1.383-.708-2.905-.908-4.281-1.554-1.025.181-1.935-.463-2.974-.37a27.464,27.464,0,0,1-3.6.016,21.766,21.766,0,0,0-7.746,1.492,21.418,21.418,0,0,0-5.621,3.041,26.773,26.773,0,0,0-5.348,5.268A24.762,24.762,0,0,0,55,23.449a14.048,14.048,0,0,0-.8,4.43c-.005,1.046-.348,2.064-.352,3.138,0,.672.406,1.188.378,1.829a5.8,5.8,0,0,0,.024,1.954,40.755,40.755,0,0,0,1.908,5.922c.543,1.086,1.2,2.114,1.663,3.238.265.647,1.056.9,1.153,1.651.95.726,1.412,1.866,2.309,2.653a28.889,28.889,0,0,0,6.867,4.806,25.717,25.717,0,0,0,5.182,1.743,28.13,28.13,0,0,0,7.438.617c.72-.035,1.4-.446,2.161-.314a5.418,5.418,0,0,0,1.976-.41,14.963,14.963,0,0,0,2.015-.64A31.6,31.6,0,0,0,92.421,51.5c.582-.342,1.032-.87,1.6-1.267a18.761,18.761,0,0,0,4.306-4.221,32.365,32.365,0,0,0,3.007-4.98,23.462,23.462,0,0,0,1.851-5.793,8.535,8.535,0,0,0,.246-2.654c-.056-.547.444-.823.378-1.343-.076-.591.178-1.3-.067-1.773a4.41,4.41,0,0,1-.282-1.69c-.073-.561.265-1.205-.324-1.665-1.13-5.278-1.458-5.489-3.363-8.921a1.321,1.321,0,0,0-.238-.243v-1.33c.059-.326.714.051.647-.482h-.51c-.159-.889-1.15-1.17-1.459-1.966" transform="translate(-30.307 -3.339)" fill="#50536e"/>
    <path id="Trazado_588316" data-name="Trazado 588316" d="M52.83,102.648a2.42,2.42,0,0,0-1.317,2.473c.024.434,0,.87,0,1.383H2.611v-1.577q0-28.655.011-57.311A2.633,2.633,0,0,0,1.3,44.979a4,4,0,0,0-1.251.769v62.714l.916.71H53.353l.739-.738v-5.028a3.654,3.654,0,0,0-1.261-.758" transform="translate(-0.026 -25.312)" fill="#010101"/>
    <path id="Trazado_588317" data-name="Trazado 588317" d="M56.9,98.289c-.044-.2.1-.436-.115-.607a5.059,5.059,0,0,1-1.247-1.643H53.362v33.705H56.9a2.935,2.935,0,0,0,.551-2.16q.02-13.475.008-26.95a4.122,4.122,0,0,0-.559-2.346" transform="translate(-30.03 -54.047)" fill="#fed559"/>
    <path id="Trazado_588318" data-name="Trazado 588318" d="M61.461,101.184V132.64h3.433a.746.746,0,0,0,.118-.107.259.259,0,0,0,.058-.138c0-9.247,0-18.494,0-27.792a49.676,49.676,0,0,0-3.611-3.419" transform="translate(-34.588 -56.942)" fill="#febc54"/>
    <path id="Trazado_588319" data-name="Trazado 588319" d="M92.948,121.893c-.038-.093-.078-.268-.115-.268-1.111.007-2.049-.633-3.105-.826-.087-.016-.156-.137-.311-.284v23h3.532a2.94,2.94,0,0,0,.55-2.159q.021-8.654,0-17.308a2.94,2.94,0,0,0-.55-2.159" transform="translate(-50.32 -67.821)" fill="#4fc5f4"/>
    <path id="Trazado_588320" data-name="Trazado 588320" d="M97.494,123.631v21.626h3.44c.261-1.454.339-13.538.134-21.3-1.224.256-2.339-.5-3.574-.322" transform="translate(-54.865 -69.559)" fill="#3bb2e2"/>
    <path id="Trazado_588321" data-name="Trazado 588321" d="M154.443,105.146l-1.219,1.325,12.927,12.9h.618l.806-.8a2.362,2.362,0,0,0-.785-2.125q-5.567-5.546-11.123-11.1a.836.836,0,0,0-1.223-.188" transform="translate(-86.228 -59.069)" fill="#474a62"/>
    <path id="Trazado_588322" data-name="Trazado 588322" d="M12.258,141.145a2.974,2.974,0,0,0,1.906.5c2.677-.017,5.354-.009,8.03-.006a2.064,2.064,0,0,0,1.654-.4,2.815,2.815,0,0,0,.529-1.839q-.027-12.351,0-24.7a2.71,2.71,0,0,0-.8-2.183h-10.9a2.5,2.5,0,0,0-.795,1.957q.026,12.6-.008,25.194a7.083,7.083,0,0,0,.386,1.485" transform="translate(-6.681 -63.315)" fill="#010101"/>
    <path id="Trazado_588323" data-name="Trazado 588323" d="M27.464,75.784c.38-.41,1.016-.671.827-1.522l-.92-.745H17.26l-.591.983c-.361.583.283.857.657,1.284H27.464" transform="translate(-9.321 -41.372)" fill="#010101"/>
    <path id="Trazado_588324" data-name="Trazado 588324" d="M82.085,55.793c.951,0,1.724.065,2.482-.011a21.4,21.4,0,0,0,9.11-2.965,24.317,24.317,0,0,0,4.8-3.845,20.394,20.394,0,0,0,5.127-8.693c.314-1.086.484-2.22.732-3.314a18.192,18.192,0,0,0,.214-5.282,18.756,18.756,0,0,0-1.8-7.1,20.591,20.591,0,0,0-2.45-4.212c-1.063-1.28-1.906-2.754-3.439-3.686-.956-.581-1.8-1.414-2.771-2.041a21.616,21.616,0,0,0-6.728-2.787,22.384,22.384,0,0,0-6.79-.595A21.905,21.905,0,0,0,76.451,12a19.355,19.355,0,0,0-5.173,2.165,22.016,22.016,0,0,0-3.082,2.08c-.72.626-1.5,1.181-2.174,1.867A27.19,27.19,0,0,0,63.3,21.594a16.216,16.216,0,0,0-1.97,3.915,32.435,32.435,0,0,0-1.115,4.308c-.436,2.161-.09,4.295-.261,6.431.539,1.344.369,2.858.99,4.177.58,1.234.917,2.551,1.6,3.767a22.529,22.529,0,0,0,6.158,7.1A23.527,23.527,0,0,0,72.9,53.849a24.325,24.325,0,0,0,5.226,1.666,23.943,23.943,0,0,0,3.957.278" transform="translate(-33.743 -6.308)"/>
    <path id="Trazado_588325" data-name="Trazado 588325" d="M21.441,118.42H18c-.246,1.418-.33,18.481-.112,23.919h3.556a2.939,2.939,0,0,0,.55-2.16q.02-9.8,0-19.6a2.939,2.939,0,0,0-.55-2.16" transform="translate(-9.995 -66.642)" fill="#fe2c5c"/>
    <path id="Trazado_588326" data-name="Trazado 588326" d="M26.178,118.42v23.919h3.443c.246-1.417.33-18.481.112-23.919Z" transform="translate(-14.732 -66.642)" fill="#e52753"/>
    <path id="Trazado_588327" data-name="Trazado 588327" d="M88.851,17.552a2.487,2.487,0,0,0-1.177-.347c-1.694.049-3.4-.059-5.085.042a14.094,14.094,0,0,0-4.467,1.077,20.892,20.892,0,0,0-8.334,5.993,18.736,18.736,0,0,0-3.926,8.2,19.769,19.769,0,0,0-.631,4.972,21.137,21.137,0,0,0,.994,5.646,24.135,24.135,0,0,0,2.525,5.02c.616,1,1.53,1.71,2.155,2.7a10.936,10.936,0,0,0,2.415,2.053,15.63,15.63,0,0,0,3.686,2.153,26.994,26.994,0,0,0,5.283,1.529,29.783,29.783,0,0,0,3.482.3c1.242.1,2.389-.488,3.62-.4.032,0,.076-.174.115-.268,6.9-2.7,12.105-10.449,12.3-17.867.14-5.39-1.044-10.3-4.439-14.523-2.263-2.815-4.8-5.367-8.516-6.274" transform="translate(-36.703 -9.681)" fill="#b4fbfe"/>
    <path id="Trazado_588328" data-name="Trazado 588328" d="M119.265,17.994c.095.7.977,0,1.118.624.512-.026.665.5,1.029.676,2.45,1.163,4.465,3.436,6.2,5.525a19.487,19.487,0,0,1,3.308,6.319c.246.715.335,1.509.526,2.242a23.825,23.825,0,0,1,.286,5.1,18.013,18.013,0,0,1-2.081,8.289,18.836,18.836,0,0,1-4.873,6.469,14.277,14.277,0,0,1-3.289,2.31,13.023,13.023,0,0,0-1.571,1.106c1.152.23,2.062-.644,3.154-.69a29.829,29.829,0,0,0,5.7-3.67,25.618,25.618,0,0,0,4.012-4.706,22.11,22.11,0,0,0,1.926-4.6,17.764,17.764,0,0,0,.693-3.819,20.472,20.472,0,0,0,.271-2.32,11.741,11.741,0,0,1-.345-2.483,5.016,5.016,0,0,0-.475-2.249,11.344,11.344,0,0,0-.809-2.281c-.379-.653-.637-1.374-1-2.035a19.912,19.912,0,0,0-1.291-2.081,19.378,19.378,0,0,0-9.776-7.153,7.2,7.2,0,0,0-2.71-.573" transform="translate(-67.117 -10.122)" fill="#71f5fb"/>
  </g>
</svg>
