<svg id="Grupo_850413" data-name="Grupo 850413" xmlns="http://www.w3.org/2000/svg" xmlns:xlink="http://www.w3.org/1999/xlink" width="82.333" height="82.991" viewBox="0 0 82.333 82.991">
  <defs>
    <clipPath id="clip-path">
      <rect id="Rect치ngulo_39437" data-name="Rect치ngulo 39437" width="82.333" height="82.991" fill="none"/>
    </clipPath>
  </defs>
  <g id="Grupo_850412" data-name="Grupo 850412" clip-path="url(#clip-path)">
    <path id="Trazado_588415" data-name="Trazado 588415" d="M57.054,67.085h6.332l.473-.475V64.39c.267-.4.758-.625.789-1.159.5.01.7-.426,1.014-.685h2.272c1.042.188,1.316,1.515,2.367,1.657a114.855,114.855,0,0,0,9.132-9.265c-.368-.582-.916-.991-1.326-1.556s.062-1.319-.51-1.664a5.549,5.549,0,0,1,.992-2.37l1.545-.751h2.2V35.743l-.437-.436c-.47,0-.955.013-1.44,0-.41-.014-.664-.605-1.064-.31a4.7,4.7,0,0,1-1.848-2.971A5.316,5.316,0,0,1,79.461,29a1.932,1.932,0,0,0,0-.255A.271.271,0,0,0,79.4,28.6c-2.481-2.481-4.963-4.959-7.384-7.377A27.8,27.8,0,0,1,77.84,9.45L73.286,7.892c.27-2.566,1.227-5.1,1.352-7.892a40.526,40.526,0,0,1-5.48,1.99c-.14.033-.277.25-.382.227-.561-.122-.982.344-1.492.328a3.969,3.969,0,0,0-1.5.307c-.465.166-1.06-.115-1.482.349-.025.027-.106.011-.158,0-1.5-.231-2.932.332-4.411.327-2.76-.007-5.524.093-8.278-.032-2.22-.1-4.086.806-5.956,1.716a10.306,10.306,0,0,0-3.466,3.45H4.875A4.539,4.539,0,0,0,3,10a8.584,8.584,0,0,0-.5,3.984q-.008,28.531,0,57.12A16.055,16.055,0,0,0,.931,72.984a10.249,10.249,0,0,0-.758,2.29A4.4,4.4,0,0,0,.15,77.632a6.235,6.235,0,0,0,1.432,3A8.122,8.122,0,0,0,5.2,82.9a2.943,2.943,0,0,0,.942.075q25.245,0,50.489.02a5.1,5.1,0,0,0,1.49-.336c2.41-.7,4.831-1.361,7.206-2.191a4.471,4.471,0,0,1,1.945-.408c.387-.661,1.292.013,1.679-.648,1.376-.069,2.077-1.01,2.721-2.205,0-.348.016-.829,0-1.31a2.841,2.841,0,0,0-1.928-2.344c-1.848-.809-3.91-.958-5.7-1.921-2.278-.264-4.33-1.391-6.591-1.728-.132-.02-.188-.272-.394-.22-.839-.7-1.851-.5-2.806-.5q-22.808-.018-45.616-.015a4.306,4.306,0,0,1-2.7-.5c0-18.688,0-37.562,0-56.837,11.3-.007,22.351,0,33.811,0a15.939,15.939,0,0,0,.934,9.774c-1.866,2.717-4.693,4.383-6.29,7.038.356,1.6,2.109,2.622,1.21,4.454-.811,1.655-2.515,1.484-3.806,2.077-1.043,1.366-.2,3.031-.9,4.566-2.2.7-4.653-.2-6.872.568a2.412,2.412,0,0,0-.106,2.894c2.2.941,4.669-.035,6.942.639.565.872.3,1.821.383,2.716.172,1.806.5,2.2,2.259,2.6,2.2.5,2.952,2.185,1.851,4.157a4.591,4.591,0,0,0-.87,1.74A2.635,2.635,0,0,0,35.5,56.8c2.052,2.077,4.1,4.163,6.206,6.182,1.688,1.616,2.014,1.632,4.061.55a2.629,2.629,0,0,1,4.028,1.539,7.2,7.2,0,0,0,.852,2.225c2.03.342,4.216.717,6.411-.213" transform="translate(0)"/>
    <path id="Trazado_588416" data-name="Trazado 588416" d="M64.259,81.97H57.818c-.082-1.8-.172-3.644-2.505-4.539h-1.7a6.1,6.1,0,0,0-2.248,1.658,10.074,10.074,0,0,1-2.754-2.2q-3.087-3.106-6.2-6.191c-.221-.221-.44-.444-.728-.733a7.615,7.615,0,0,0,1.764-2.1,3.368,3.368,0,0,0,.033-2.482c-.261-.952-1.171-1.226-1.809-1.9h-2.3c-.764-1.781-.326-3.605-.493-5.492H31.17V55.438h7.7a21.654,21.654,0,0,0,.053-2.579c.016-.856,0-1.713,0-2.669,1.4,0,2.829.158,3.8-1.05a3.905,3.905,0,0,0,.876-3.764l-1.847-1.739,6.974-6.964a12.3,12.3,0,0,1-.985-10.426H12.7V84.564H64.259Z" transform="translate(-7.205 -14.885)" fill="#e5e8ec"/>
    <path id="Trazado_588417" data-name="Trazado 588417" d="M121.345,64.516l-1.684-1.682c-.627.917-1.014,2.181-2.323,2.628h-2.03a.431.431,0,0,0,.052.612,14.447,14.447,0,0,1,3.73,6.559,12.739,12.739,0,0,1,.666,3.942,15.618,15.618,0,0,0,.019,2.59c.108.827-.432,1.482-.387,2.3a5.242,5.242,0,0,1-.686,2.29,17.058,17.058,0,0,1-11.139,10.222,11.678,11.678,0,0,1-4.119.641c-.7-.043-1.406-.009-2.11-.007A15.114,15.114,0,0,1,93.2,91.929a13.2,13.2,0,0,1-3.39-2.761,21.56,21.56,0,0,1-3.246-5.3,17.95,17.95,0,0,1-1.173-8.561,12.959,12.959,0,0,1,1.419-4.744,16.45,16.45,0,0,1,3.29-4.931,8.2,8.2,0,0,0-2.376-.23c-.29-.572-1.014-.64-1.446-1.117-.39-.43-.419-1.027-.791-1.447l-1.749,1.746a5.321,5.321,0,0,1,.368,5.467,5.52,5.52,0,0,1-3.9,3.265v8.2a6.88,6.88,0,0,1,4.164,4.066c.707,1.817.029,3.381-.62,5.015l5.666,5.658a14.32,14.32,0,0,1,3.489-.926c.426.435,1.1.174,1.7.274,2.9,1.629,3.284,2.639,3.764,4.453h8.323a5.4,5.4,0,0,1,2.319-3.61,3.369,3.369,0,0,1,2.386-.818c.481.048.818-.5,1.394-.1.368.251,1.048.047,1.5.047l1.18.642,5.865-5.856a5.676,5.676,0,0,1,.032-6.1,6.166,6.166,0,0,1,3.855-2.7V73.583c-1.021-.64-2.352-.884-3.229-1.994a7.366,7.366,0,0,1-1.552-3.411,5.667,5.667,0,0,1,.905-3.663" transform="translate(-45.485 -35.633)" fill="#fbd670"/>
    <path id="Trazado_588418" data-name="Trazado 588418" d="M43,167.077l-.4.4v7.189l.415.414H79.786a.24.24,0,0,0,.066-.064.261.261,0,0,0,.055-.138c0-2.584,0-5.167,0-7.805Z" transform="translate(-24.154 -94.749)" fill="#b3dc7e"/>
    <path id="Trazado_588419" data-name="Trazado 588419" d="M100.631,27.615c0-.926-.248-1.755.061-2.173.418-.566-.073-1.334.589-1.721a5.3,5.3,0,0,1,2.235-3.056,6.716,6.716,0,0,1,3.376-1.217,5.033,5.033,0,0,1,2.654.542,17.925,17.925,0,0,1,3.919,2.3c.067.052.211.006.484.006-.224-.829-.448-1.623-.651-2.421-.22-.867-1.333-1.206-1.339-2.024l1.813-1.716a13.01,13.01,0,0,1,2.543,4.13c2.181.545,3.794,2.079,5.51,3.4.729-.814-.094-1.439-.126-2.131a5.866,5.866,0,0,0-.626-1.994,4.8,4.8,0,0,0-1.345-1.673l1.764-1.489-.242-.245h.648a24.021,24.021,0,0,1,1.721,2.689,11.073,11.073,0,0,1,1.046,4.269c-.013,1.445,0,2.89.111,4.358A29.317,29.317,0,0,1,129.1,16.254l-3.362-1.143c.37-1.851.723-3.619,1.093-5.468a13.2,13.2,0,0,1-2.722.715c-.483.652-1.412-.151-1.873.573a9.545,9.545,0,0,0-2.939.384c-4.338.508-8.681.156-13.019.277a10.619,10.619,0,0,0-4.426,1.852,14.486,14.486,0,0,0-2.422,2.692,11.612,11.612,0,0,0-1.1,2.635,8.123,8.123,0,0,0-.3,2.629,6.476,6.476,0,0,0,.688,2.955,13.983,13.983,0,0,0,.819,1.943,8.139,8.139,0,0,0,1.092,1.314" transform="translate(-55.592 -5.469)" fill="#b17846"/>
    <path id="Trazado_588420" data-name="Trazado 588420" d="M112.836,38.809a4.782,4.782,0,0,0-2.884,4.746,12.487,12.487,0,0,1-.012,1.943,20.44,20.44,0,0,0,.391,4.562,6.9,6.9,0,0,0,1.852,3.746,9.275,9.275,0,0,0,5.484,3.21,8.95,8.95,0,0,0,2.308.258,8.7,8.7,0,0,0,2.25-.432,8.541,8.541,0,0,0,2.547-1.264,9.912,9.912,0,0,0,3.761-6.223c.267-1.653.1-3.268.268-4.752a12.354,12.354,0,0,0-5.517-4.807c-.041,1.135,0,2.3-.022,3.394-.5.519-.78-.075-1-.2-1.882-1.1-3.694-2.312-5.568-3.421a3.876,3.876,0,0,0-2.606-.77,8.031,8.031,0,0,1-1.256.011" transform="translate(-62.318 -21.985)" fill="#efcfb3"/>
    <path id="Trazado_588421" data-name="Trazado 588421" d="M107.626,79.618c.063-.268-.1-.694.39-.947a24.664,24.664,0,0,1-3.463-2.179,24.748,24.748,0,0,1-2.62-3.16,17.221,17.221,0,0,0-3.03,4.813c-.841,2.009-1.388,5.433-.951,6.845.367,1.186.159,2.562,1.113,3.664,1.134-4.611,3.962-7.517,8.561-9.037" transform="translate(-55.461 -41.587)" fill="#f6f8f9"/>
    <path id="Trazado_588422" data-name="Trazado 588422" d="M151.228,88.757c.252-.451.51-.543.595-.841a16.785,16.785,0,0,0,.608-6.194,12.566,12.566,0,0,0-.8-3.214A16.584,16.584,0,0,0,148.4,73.3c-.89,1.058-1.446,2.435-2.6,3.195a12.885,12.885,0,0,1-3.333,2.083,2,2,0,0,0,1.77,1.563,6.164,6.164,0,0,1,2.631,1.416A12.55,12.55,0,0,1,151.157,88a5.723,5.723,0,0,1,.07.752" transform="translate(-80.793 -41.57)" fill="#f7f9fa"/>
    <path id="Trazado_588423" data-name="Trazado 588423" d="M13.906,166.926c-1.287,0-2.522-.052-3.751.016a5.188,5.188,0,0,0-2.944,1.065c-.621.486-.7,1.319-1.062,1.973a3.1,3.1,0,0,0,.182,2.739,3.864,3.864,0,0,0,2.345,2,4.305,4.305,0,0,0,1.648.324c1.176-.037,2.355-.011,3.582-.011Z" transform="translate(-3.339 -94.653)" fill="#cbd0d8"/>
    <path id="Trazado_588424" data-name="Trazado 588424" d="M144.8,107.637l2.042-2.04a5,5,0,0,1-.42-1.83,9.092,9.092,0,0,0-3.074-6.024c-.28-.232-.52-.513-.91-.9-.988,1.922-1.548,3.87-2.375,5.669-.539.291-.852-.351-1.373-.286l-.665,2.422,1.661,5.913a4.81,4.81,0,0,0,2.46-1.015c0-1.5.053-3.054-.015-4.6a5.039,5.039,0,0,1,1.613-3.758,12.979,12.979,0,0,1,1.625,1.5c.136.786-.44,1.135-.57,1.768Z" transform="translate(-78.276 -54.918)" fill="#fd816d"/>
    <path id="Trazado_588425" data-name="Trazado 588425" d="M107.395,107.8v-3.7l-.636-.712,2.022-1.835a6.076,6.076,0,0,1,1.3,2.762c.451,1.9.074,3.8.329,5.7l2.058.764c.568-1.959,1.133-3.913,1.713-5.916l-.7-2.517c-.513-.2-.794.594-1.306.285L109.884,97c-3.293,2.175-4.074,5.457-4.458,8.832l1.969,1.964" transform="translate(-59.787 -55.012)" fill="#fd816d"/>
    <path id="Trazado_588426" data-name="Trazado 588426" d="M33.072,167.021H30.653c-.06.07-.123.11-.123.15,0,2.587,0,5.174,0,7.885.825.09,1.661.018,2.547.049Z" transform="translate(-17.311 -94.718)" fill="#fbe6a4"/>
    <path id="Trazado_588427" data-name="Trazado 588427" d="M134.927,175.069c.977.119,1.658-.558,2.512-.652v-5.365c-.759-.523-1.689-.343-2.512-.9Z" transform="translate(-76.517 -95.357)" fill="#c8cdd5"/>
    <path id="Trazado_588428" data-name="Trazado 588428" d="M146.8,175.813a3.579,3.579,0,0,0,.9-.01c1.246-.381,2.478-.806,3.722-1.194a1.6,1.6,0,0,0,.9-.579,17.007,17.007,0,0,0-5.52-1.743v3.527Z" transform="translate(-83.249 -97.703)" fill="#c5cad1"/>
    <path id="Trazado_588429" data-name="Trazado 588429" d="M129.257,118.164c-.679,1.643-1.021,3.358-1.57,5.073a4.23,4.23,0,0,0,1.688.154c.531.021,1.062,0,1.568,0,.424-.679-.134-1.207-.165-1.789a5.275,5.275,0,0,0-.581-1.856c-.229-.519.223-1.358-.939-1.586" transform="translate(-72.411 -67.011)" fill="#e2e5e9"/>
    <path id="Trazado_588430" data-name="Trazado 588430" d="M128.867,89.976l2.246-1.436V87.7h-4.464v.858l2.218,1.42" transform="translate(-71.823 -49.734)" fill="#ebcbb0"/>
    <path id="Trazado_588431" data-name="Trazado 588431" d="M100.617,56.9H98.823L98.1,57.917v.792l.969.724h1.544Z" transform="translate(-55.635 -32.266)" fill="#e8c9ae"/>
    <path id="Trazado_588432" data-name="Trazado 588432" d="M159.626,56.841v2.546H161.4l.787-.75v-.989l-.807-.806h-1.753" transform="translate(-90.524 -32.235)" fill="#ebccb0"/>
    <path id="Trazado_588433" data-name="Trazado 588433" d="M130.114,104.031c-.552.908-.486,1.343.509,3.7a6.5,6.5,0,0,0,1.031-3.171l-.517-.531Z" transform="translate(-73.592 -58.996)" fill="#c0c5cc"/>
    <path id="Trazado_588434" data-name="Trazado 588434" d="M121.335,94.236l1.14,2.987a6.827,6.827,0,0,0,1.815-1.239,5.863,5.863,0,0,0-2.955-1.747" transform="translate(-68.809 -53.441)" fill="#ec674c"/>
    <path id="Trazado_588435" data-name="Trazado 588435" d="M137.175,97.6l1.38-3.431a6.7,6.7,0,0,0-3.028,1.818c.459.6,1.276.574,1.648,1.613" transform="translate(-76.857 -53.404)" fill="#ed674c"/>
    <path id="Trazado_588436" data-name="Trazado 588436" d="M47.762,34.677V32.569l-.488-.487c-8.517,0-17.064.014-25.61-.031-.619,0-1.035.581-1.638.358l-1.481,1.449V41a11.309,11.309,0,0,0,.705,1.027,2.055,2.055,0,0,0,1.629.761c8.923-.005,17.845,0,26.882,0V40.189a3.654,3.654,0,0,0-2.634-.532c-6.919-.013-13.839,0-20.758-.013a4.144,4.144,0,0,1-2.423-.368,4.878,4.878,0,0,1,.006-3.374,4.266,4.266,0,0,1,2.427-.355c6.919-.013,13.839.005,20.758-.019.945,0,1.994.178,2.624-.851" transform="translate(-10.517 -18.177)" fill="#010101"/>
    <path id="Trazado_588437" data-name="Trazado 588437" d="M18.523,97.78c.769,1.312,1.206,1.768,3.282,1.784,2.646.021,5.294,0,7.562,0A3.82,3.82,0,0,0,31.322,98.3a8.822,8.822,0,0,0,.512-4.17c.014-1.566,0-3.132,0-4.81l2.1-2.075c-.654-.672-1.3-1.3-1.934-1.942L30.773,86.54c-3.158-.537-6.313-.145-9.452-.267a2.364,2.364,0,0,0-2.576,1.556c-.035.091-.15.151-.221.219Z" transform="translate(-10.504 -48.373)"/>
    <path id="Trazado_588438" data-name="Trazado 588438" d="M51.258,38.115a2.23,2.23,0,0,1-1.65.323c-8.273,0-16.545,0-24.9,0v5.188H51.258Z" transform="translate(-14.013 -21.615)" fill="#b3dc7e"/>
    <path id="Trazado_588439" data-name="Trazado 588439" d="M31.864,126.534l1.921-1.894-1.71-1.487-.787.911c-.534-.068-1,.033-1.237-.183-.444-.4-.915-.236-1.365-.24-2.752-.022-5.5-.011-8.257-.011a2.934,2.934,0,0,0-1.859,2.149v9.311a3.445,3.445,0,0,0,1.759,1.817H29.74a3.608,3.608,0,0,0,.592-.336,3.172,3.172,0,0,0,1.53-2.87c.006-2.317,0-4.634,0-7.168" transform="translate(-10.531 -69.84)"/>
    <rect id="Rect치ngulo_39436" data-name="Rect치ngulo 39436" width="21.045" height="2.482" transform="translate(8.05 32.769)" fill="#010101"/>
    <path id="Trazado_588440" data-name="Trazado 588440" d="M36.6,63.423v2.025H52.443c.087-.77.012-1.6.045-2.49h-15.5l-.388.465" transform="translate(-20.756 -35.703)" fill="#020202"/>
    <path id="Trazado_588441" data-name="Trazado 588441" d="M55.356,130.374v2.481H66v-2.087l-.395-.394Z" transform="translate(-31.392 -73.935)" fill="#070707"/>
    <path id="Trazado_588442" data-name="Trazado 588442" d="M60.493,105.588H55.409v2.852a22.4,22.4,0,0,0,2.461.038c.856.016,1.712,0,2.623,0Z" transform="translate(-31.422 -59.879)" fill="#090909"/>
    <path id="Trazado_588443" data-name="Trazado 588443" d="M60.437,145.592V143.1H55.305c-.084.769-.011,1.6-.043,2.489Z" transform="translate(-31.339 -81.154)" fill="#030303"/>
    <path id="Trazado_588444" data-name="Trazado 588444" d="M18.592,62.964v2.481h5.13c.087-.76.01-1.594.044-2.481Z" transform="translate(-10.544 -35.707)" fill="#040404"/>
    <path id="Trazado_588445" data-name="Trazado 588445" d="M76.271,145.314v-2.228h-2.81v2.582c.936-.184,1.954.29,2.81-.355" transform="translate(-41.66 -81.144)" fill="#101011"/>
    <path id="Trazado_588446" data-name="Trazado 588446" d="M76.184,175.506v-2.08l-.473-.472h-1.97l-.476.532c.132.719-.29,1.608.443,2.395.8-.11,1.658.223,2.476-.375" transform="translate(-41.546 -98.082)" fill="#13170d"/>
    <path id="Trazado_588447" data-name="Trazado 588447" d="M86.1,173.071v2.808H88.64c.065-.874.011-1.813.033-2.808Z" transform="translate(-48.826 -98.149)" fill="#0a0d07"/>
    <path id="Trazado_588448" data-name="Trazado 588448" d="M61.406,175.825H63.9v-2.856c-.768-.083-1.6-.01-2.49-.042Z" transform="translate(-34.823 -98.067)" fill="#0a0c07"/>
    <path id="Trazado_588449" data-name="Trazado 588449" d="M49.409,175.865h2.574c-.2-.958.338-1.971-.424-2.861H49.409Z" transform="translate(-28.02 -98.111)" fill="#0b0e08"/>
    <path id="Trazado_588450" data-name="Trazado 588450" d="M125.933,66.621c-2.405,0-2.405,0-3.748-1.683a4.835,4.835,0,0,1-1.17.616c-.415.093-.637.555-1.178.4a5.337,5.337,0,0,0,2.075,2.542,4.685,4.685,0,0,0,2.944.99,5.987,5.987,0,0,0,5.333-3.4,5.189,5.189,0,0,0-2.4-1.116c-.248.842-.887,1.253-1.852,1.653" transform="translate(-67.96 -36.826)" fill="#010101"/>
    <path id="Trazado_588451" data-name="Trazado 588451" d="M119.52,52.573a4.028,4.028,0,0,0-.7-1.632c-.761-.352-1.284.084-1.905.286v1.734c.5.24,1.011.639,1.688.428l.92-.816" transform="translate(-66.301 -28.814)" fill="#090806"/>
    <path id="Trazado_588452" data-name="Trazado 588452" d="M143.273,51.192c-.621-.2-1.144-.638-1.8-.324-.432.261-.329.869-.791,1.076.269.517.355,1.042.835,1.41h1.363l.393-.393Z" transform="translate(-79.781 -28.785)" fill="#0c0a09"/>
    <path id="Trazado_588453" data-name="Trazado 588453" d="M31.529,93.626h-6.9v8h7.678V96.95l-3.664,3.659-3.479-3.474,1.6-1.658c.735.254,1.029,1.064,1.571,1.334l3.19-3.186" transform="translate(-13.968 -53.095)" fill="#fc806d"/>
    <path id="Trazado_588454" data-name="Trazado 588454" d="M24.6,130.221v8.057h7.687v-4.323L28.8,137.531a7.956,7.956,0,0,1-2.115-1.8c-.6-.547-1.152-1.14-1.656-1.643l1.944-1.942,1.345,1.329c.949-.218,2.245-1.382,3.47-3.116a16.478,16.478,0,0,0-3.491-.133c-1.189-.036-2.38-.008-3.7-.008" transform="translate(-13.948 -73.837)" fill="#fc806d"/>
  </g>
</svg>
