<svg xmlns="http://www.w3.org/2000/svg" xmlns:xlink="http://www.w3.org/1999/xlink" width="133" height="133" viewBox="0 0 133 133">
  <defs>
    <clipPath id="clip-path">
      <rect id="Rectángulo_39232" data-name="Rectángulo 39232" width="70" height="70" transform="translate(-0.334 -0.334)" fill="none"/>
    </clipPath>
  </defs>
  <g id="Grupo_850457" data-name="Grupo 850457" transform="translate(-389 -4099)">
    <circle id="Elipse_4774" data-name="Elipse 4774" cx="66.5" cy="66.5" r="66.5" transform="translate(389 4099)" fill="#4acfd9"/>
    <g id="Grupo_850146" data-name="Grupo 850146" transform="translate(421 4131)">
      <g id="Grupo_850145" data-name="Grupo 850145" transform="translate(0.334 0.334)" clip-path="url(#clip-path)">
        <path id="Trazado_586598" data-name="Trazado 586598" d="M20.02,13.828V12.9a10.319,10.319,0,0,1,3.027-2.26,24.151,24.151,0,0,1,4.141-1.857,27.832,27.832,0,0,1,2.707-.735,27.739,27.739,0,0,1,6.741-.5,3.2,3.2,0,0,1,1.674.243c.433.24,1.08-.228,1.509.3,1.511-.08,2.815.678,4.171,1.135a25.078,25.078,0,0,1,3.728,1.857,23.544,23.544,0,0,1,3.742,2.855,22.287,22.287,0,0,1,4.393,5.272,25.653,25.653,0,0,1,1.855,3.6,18.108,18.108,0,0,1,1.065,3.51A11,11,0,0,0,59.22,27.5c.256-.556.48.058.739,0a4.362,4.362,0,0,1,.894-.013c.408.637,1.478.647,1.586,1.654.678-.413.237-1.124.5-1.493.347-.488.108-.959.155-1.1a4.575,4.575,0,0,1,2.564-2.617c.262,0,.717.031,1.164-.008a2.183,2.183,0,0,1,1.877.753c.311.331.64.645.971.975-.02.562.353,1.03.361,1.625.008.557-.475.97-.306,1.526a12.016,12.016,0,0,0-.77,3.084c-.235.946-.491,1.91-.653,2.89a6.877,6.877,0,0,1-.756,2.675c.06,1.54-.827,2.9-.827,4.433,0,.35-.46.574-.26.992a30.391,30.391,0,0,0-2.212,2.48c-.519.777-1.086.816-1.9.433a1.113,1.113,0,0,1-.2-1.868c2.672-2.441,2.586-5.9,3.443-9,.607-2.19,1.048-4.43,1.542-6.651.13-.587.46-1.264-.342-1.68-1.015.008-1.087.83-1.241,1.51-.6,2.661-1.247,5.31-1.757,7.988a6.2,6.2,0,0,1-2.437,4.081c-1.709,1.275-3.283,2.73-4.943,4.072-1.693,1.367-3.625.912-5.471.585-.876-.155-1.109-1.13-.661-2.165a41.64,41.64,0,0,1,2.1-4.127,2.791,2.791,0,0,0,.576-2.424c-1.069-.359-1.4.487-1.8,1.078-2.115,3.177-4.155,6.417-6.466,9.448a12.135,12.135,0,0,0-2.478,8.264c.111,2.722.025,5.453.022,8.179a2.832,2.832,0,0,1-.38,1.83,1.936,1.936,0,0,1-.676.777c-.519.171-.737-.294-1.1-.237a2.741,2.741,0,0,1-.424-1.739c.022-2.582.009-5.163.009-7.763a41.95,41.95,0,0,1-4.71.454A22.461,22.461,0,0,1,30.4,55.87c0,2.736,0,5.362,0,7.989,0,.52.143,1.075-.471,1.477-.22.074-.449.562-1.155.264a1.627,1.627,0,0,1-.555-.678,2.842,2.842,0,0,1-.381-1.833q0-4.848,0-9.7a9.493,9.493,0,0,0-1.8-5.742c-2.434-3.4-4.772-6.881-7.073-10.38-.4-.607-.748-1.392-1.753-1.235-.488.8-.06,1.455.24,2.081.667,1.394,1.517,2.7,2.156,4.109.841,1.865.279,2.692-1.735,2.88A6.6,6.6,0,0,1,12.209,43.1a42.617,42.617,0,0,0-3.973-3.331,4.791,4.791,0,0,1-1.726-2.7c-.766-2.954-1.262-5.969-2.032-8.92-.169-.653-.169-1.527-1.2-1.546-.694.314-.523.907-.4,1.417,1.015,4.343,1.975,8.7,3.019,13.033a2.846,2.846,0,0,0,.712,1.3c3.461,3.734,6.863,7.522,10.378,11.206.88.923,1.635,1.953,2.529,2.863a1.989,1.989,0,0,1,.573,1.356c.061,2,.049,4,.008,6a1.243,1.243,0,0,1-.347.866c.121.578-.43.736-.676,1.089H18.26c-.413-.179-.367-.688-.69-.943V57.956c-1.809-1.676-3.358-3.618-5.063-5.412-1.076-1.133-2.236-2.212-3.2-3.438-1.037-1.312-2.324-2.378-3.374-3.656-.683-.832-1.411-1.606-2.248-2.488-.27-1.2-.527-2.54-.877-3.855-.359-1.355-.661-2.726-.992-4.084-.232-.946-.446-1.92-.646-2.883A43.03,43.03,0,0,0,.148,27.924a1.6,1.6,0,0,1,.177-1.658c.089-.1.014-.347.014-.41A3.715,3.715,0,0,1,4.831,24.1a3.784,3.784,0,0,1,1.892,2.265c.212.692.314,1.419.458,2.132.042.21-.085.455.2.687.645-.5.891-1.49,1.873-1.615a2.62,2.62,0,0,0,1.335-.344l.289.259a4.248,4.248,0,0,0,.428-1.334,22.558,22.558,0,0,1,1-3.127,25.113,25.113,0,0,1,3.083-5.684,12.433,12.433,0,0,1,1.431-1.576,1.624,1.624,0,0,1,1.285.254c.86.513.477,1.165.151,1.756-.527.957-1.277,1.767-1.845,2.7A11.374,11.374,0,0,0,14.778,24c1.549,1.662,1.549,1.662,1.914,5.241.513-1.088,1.014-2.1,2.154-2.257a10.384,10.384,0,0,1,4.983.2,2.767,2.767,0,0,1,1.324,1.326,23,23,0,0,0,3.166,3.907,8.656,8.656,0,0,0,3.849,2.442c1.58.458,1.878.928,1.873,2.571-.006,2.808.275,5.644-.642,8.385a4.273,4.273,0,0,1-2.049,3.2,1.421,1.421,0,0,0-.783,1.477,14.651,14.651,0,0,0,.447,2.783,17.806,17.806,0,0,0,8.224.044c-.129-3.412,1.387-6.2,3.377-8.79.326-.589.888-1.049.99-1.852a16.3,16.3,0,0,0-2.536-2.744c-1.486-1.556-3.452-2.824-2.889-5.368a14.749,14.749,0,0,0-3.744-.992c-1.646-.394-1.858-.717-1.972-2.413a7.455,7.455,0,0,1,1.56-5.6c1-1.205.631-2.654.554-3.836a1.28,1.28,0,0,0-.792-.659,3.647,3.647,0,0,1-2.978-2.99A1.806,1.806,0,0,0,29.2,16.624c-.626-.105-1.247-.246-1.87-.372-2.531-.509-2.531-.509-3.275-2.992-.821.02-1.335.68-2,1.006-.8.389-1.557.648-2.032-.438" transform="translate(-0.351 3.945)"/>
        <path id="Trazado_586599" data-name="Trazado 586599" d="M14.948,12.051c.345.046.441.424.839.593,1.337-.314,2.263-1.65,3.76-1.982v2.282a3.075,3.075,0,0,0,2.1,1.039,24.528,24.528,0,0,1,3.752.805,1.846,1.846,0,0,1,.375.272c.091.76.512,1.458.673,2.26a1.4,1.4,0,0,0,1.075,1.155,13.289,13.289,0,0,0,2.446.694v3.836l-2.176,3.205v4.48c.193.623.894.32,1.191.73.672-.105,1.277.361,1.916.278.533-.069.876.49,1.389.3s.756.408,1.218.275v2.857c.954.953,1.913,1.915,2.876,2.874s1.933,1.917,2.931,2.905l-1.423,2.02a11.7,11.7,0,0,1-6,1.486c-1.283.063-2.63.471-3.829-.394-.206-.686.191-1.306.334-1.918a7.583,7.583,0,0,0,.207-1.675c.013-2,0-4,0-6.12l-.8-.617L24.821,32.7c-2.049-2.006-4.342-4.043-5.658-6.812-1.8-.8-3.614-.289-5.291-.472-1.514.493-1.652,1.934-2.314,2.981a1.882,1.882,0,0,1-.438-1.507c.02-.954,0-1.909,0-2.865-.425-.881-1.389-.939-2.212-1.306.61-.928.788-1.918,1.273-2.8a24.522,24.522,0,0,1,2.043-3.109c.308-.4.491-.909.822-1.287a.918.918,0,0,0-.013-1.286c.469-.876,1.442-1.311,1.911-2.187" transform="translate(4.721 5.722)" fill="#72cbc4"/>
        <path id="Trazado_586600" data-name="Trazado 586600" d="M26.693,58.179V48.9c0-.956.063-1.915-.017-2.865s.51-1.8.292-2.632a39.472,39.472,0,0,1,3.909-6.128c1.724-2.513,3.41-5.051,5.11-7.581a8.778,8.778,0,0,1,.874-.975c.595-.213,1.034.138,1.552.311a4.7,4.7,0,0,1-.99,3.222c-.885,1.353-1.414,2.885-2.248,4.26-.1.165-.014.446-.014.779.212.179.483.407.783.658h4.219c1.067-.873,2.026-1.775,3.115-2.532.612-.425,1.12-.994,1.7-1.472.712-.592,1.447-1.173,2.153-1.777a3.158,3.158,0,0,0,.846-1.57,21.111,21.111,0,0,0,.4-2.158c.152-.709.293-1.435.486-2.122.369-1.312.552-2.662.923-3.974a7.543,7.543,0,0,0,.408-2.284c.228-.229.452-.455.676-.68h.956a2.431,2.431,0,0,1-.046,1.475c-.861,4.145-1.894,8.253-2.755,12.4a7.2,7.2,0,0,1-2.327,3.624c-3.419,3.342-6.524,6.986-9.978,10.291-1.091,1.042-1.979,2.259-3.028,3.334a2.353,2.353,0,0,0-.61,1.755c0,1.366.008,2.731,0,4.1a2.048,2.048,0,0,1-.369,1.549c-1.632,0-3.264,0-4.9,0a1.583,1.583,0,0,0-1.111.276" transform="translate(14.826 10.689)" fill="#fee4b9"/>
        <path id="Trazado_586601" data-name="Trazado 586601" d="M2.005,19.38h.949a3.5,3.5,0,0,1,.929,2.339c.289,1.428.653,2.844.913,4.282a15.4,15.4,0,0,0,.643,2.72A22.067,22.067,0,0,1,6.1,31.312c.02.085.024.173.046.348q3.688,3.077,7.532,6.288H18.01c.173-.2.378-.439.667-.775.14-.419-.143-.892-.375-1.336-.741-1.425-1.56-2.808-2.289-4.24a4.119,4.119,0,0,1-.609-2.48c.427-.232.817-.637,1.619-.32.8.5,1.238,1.6,1.889,2.505,1.191,1.661,2.081,3.549,3.355,5.136,1.307,1.628,2.225,3.51,3.606,5.079a9.191,9.191,0,0,1,.989,1.869c.552,4.853.151,9.827.27,14.791A1.587,1.587,0,0,0,26.02,57.9c-1.632.008-3.265,0-4.9,0-.642-.857-.351-1.849-.358-2.78-.033-4.262.025-4.3-2.994-7.263-3.577-3.507-6.852-7.3-10.459-10.777a9.293,9.293,0,0,1-2.82-5.161c-.678-3.668-1.644-7.282-2.41-10.936a2.659,2.659,0,0,1-.077-1.609" transform="translate(0.732 10.688)" fill="#fee4b9"/>
        <path id="Trazado_586602" data-name="Trazado 586602" d="M30.513,57.906V51.048c2.449-2.96,5.288-5.445,7.784-8.239,1.87-2.092,3.9-4.017,5.845-6.023.654-.675,1.109-1.5,1.8-2.141.551-.513.5-1.351.642-2.037.169-.8.441-1.571.559-2.365A18.417,18.417,0,0,1,47.668,28c.248-.9.4-1.841.581-2.766.348-1.811.908-3.579,1.116-5.418.019-.165.306-.207.267-.433.394.074.515.477.879.714-1.142,4.949-2.292,9.923-3.5,15.161-.433.433-1.086,1.055-1.7,1.709a1.532,1.532,0,0,0-.32,2.088c-.646.141-.59.879-1.045,1.226A3.2,3.2,0,0,0,42.8,41.513c-1.8.268-2.76,1.7-3.807,2.905-1.524,1.753-3.215,3.345-4.7,5.131a3.474,3.474,0,0,0-.963,2.445c.041,1.457.022,2.913,0,4.37-.008.534.1,1.108-.362,1.541Z" transform="translate(17.014 10.689)" fill="#fed074"/>
        <path id="Trazado_586603" data-name="Trazado 586603" d="M18.959,1.893A5.562,5.562,0,0,1,21.735.033a3.723,3.723,0,0,1,2.638.92L26.012.11a3.91,3.91,0,0,1,3.821,1.749c-.022.505.33.979.348,1.568a6.145,6.145,0,0,1-1.029,3.268c-.9,1.584-2.437,2.483-3.857,3.488a1.275,1.275,0,0,1-1.558.064c-1.9-1.184-3.686-2.425-4.568-4.608a3.814,3.814,0,0,1-.215-3.373,1.293,1.293,0,0,0,0-.372" transform="translate(10.269 -0.351)"/>
        <path id="Trazado_586604" data-name="Trazado 586604" d="M37.091,6.847H39.5a1.7,1.7,0,0,0,2.5,0h2.449a2.626,2.626,0,0,0,.595.532,2.689,2.689,0,0,1,1.464,2.532,5.306,5.306,0,0,1-1.677,4.211A15.154,15.154,0,0,1,41.5,16.938H40.11c-.3-.168-.584-.436-.9-.648a12.524,12.524,0,0,1-3.386-3.32,5.9,5.9,0,0,1-.777-3.77c.51-.593.521-1.59,1.5-1.824.188-.046.325-.3.549-.529" transform="translate(19.585 3.549)"/>
        <path id="Trazado_586605" data-name="Trazado 586605" d="M2.28,19.38A4.667,4.667,0,0,1,2.8,21.209c.308,1.508.67,3,1.01,4.5.209.915.4,1.83.632,2.742.442,1.742.755,3.518,1.112,5.28a2.077,2.077,0,0,0,.5,1.022c.916.979,1.69,2.083,2.689,2.992a35.738,35.738,0,0,1,2.7,2.7c2.43,2.744,5.1,5.254,7.608,7.922.791.841,1.544,1.728,2.346,2.573v6.96H18.941V50.412c-1.7-1.672-3.232-3.492-4.855-5.232-1.034-1.108-2.168-2.141-3.105-3.331C9.922,40.5,8.58,39.424,7.527,38.1c-.841-1.06-1.836-1.948-2.636-2.871C3.722,30.156,2.575,25.175,1.419,20.16a2.216,2.216,0,0,1,.861-.78" transform="translate(0.457 10.688)" fill="#fed074"/>
        <path id="Trazado_586606" data-name="Trazado 586606" d="M2.318,9.479A3.671,3.671,0,0,1,4.624,6.852c.221,0,.72.014,1.216,0a2.081,2.081,0,0,1,1.613.377.856.856,0,0,0,.995.135c.905-.747,1.944-.439,2.936-.507.089-.006.182,0,.271,0a3.891,3.891,0,0,1,2.132,2.317,11.315,11.315,0,0,0,.016,1.5c.063.474-.292.788-.331,1.248a3.7,3.7,0,0,1-1.225,2.063A9.977,9.977,0,0,1,9.212,16.5c-.19.085-.311.322-.431.455H7.373c-.264-.171-.461-.4-.725-.568a12.07,12.07,0,0,1-3.331-3.157,4.938,4.938,0,0,1-1-3.139c.011-.272,0-.545,0-.614" transform="translate(0.966 3.544)"/>
        <path id="Trazado_586607" data-name="Trazado 586607" d="M32.084,49.977V42.466c1.7-1.617,3.2-3.422,4.779-5.142,1.246-1.356,2.572-2.634,3.781-4a1.606,1.606,0,0,1,1.271.256.94.94,0,0,1,.025,1.3,4.3,4.3,0,0,1-.35.526c-1.577,1.483-2.9,3.2-4.406,4.753-.992,1.019-1.928,2.108-2.923,3.136v6.829c-.392.155-.118.758-.585.9H32.74c-.176-.275-.752-.413-.656-1.049" transform="translate(17.902 18.618)" fill="#010101"/>
        <path id="Trazado_586608" data-name="Trazado 586608" d="M45.465,28.86c-1.291.16-2.5-.173-3.679.3-1.054.422-2.15.741-3.228,1.105a2.365,2.365,0,0,0-.447,1.579c.033,1.138-.016,2.278.017,3.414a3.663,3.663,0,0,1-.781,2.565,14.157,14.157,0,0,0-1.436,2.194c-1.607-1.606-3.2-3.2-4.888-4.891-.149-1.08.284-2.4-.289-3.645A11.791,11.791,0,0,0,28,30.835a24.646,24.646,0,0,1-2.718-.64V27.937c.577-.848,1.174-1.686,1.726-2.557a2.283,2.283,0,0,0,.475-1.311c-.044-1.725-.016-3.45-.016-5.2-1.128-.846-2.569-.879-3.781-1.562-.132-1.011-.719-1.937-.882-3-.066-.429-.667-.37-.9-.664a42.341,42.341,0,0,1-4.762-.9V10.409c1.138-.353,2.343-.725,3.546-1.1.039-.011.072-.082.1-.077,1.166.173,2.267-.377,3.438-.3a31.462,31.462,0,0,1,3.4.058,24.521,24.521,0,0,1,4.028.8,36.856,36.856,0,0,1,3.709,1.595,18.033,18.033,0,0,1,5.073,3.576,24.063,24.063,0,0,1,3.389,3.919,32.853,32.853,0,0,1,2.688,5.445,3.765,3.765,0,0,1-.213,3.048c-.265.487-.549.961-.847,1.485" transform="translate(9.407 4.722)" fill="#66be00"/>
        <path id="Trazado_586609" data-name="Trazado 586609" d="M25.12,29.482c-.1,2.642.33,5.326-.7,8-.466.212-.883.846-1.7.757a12.233,12.233,0,0,0-1.147-.821A3.271,3.271,0,0,1,20.242,36.1c-1.994-3.3-4.4-6.318-6.394-9.616a3.1,3.1,0,0,0-2.639-1.268c.628-1.245,1.244-2.469,1.873-3.714h3.212a19.928,19.928,0,0,1,1.425,2.048,8.323,8.323,0,0,0,1.588,2.067,18.07,18.07,0,0,1,1.533,1.549,6.114,6.114,0,0,0,3.168,1.9c.372.111.7.3,1.112.413" transform="translate(6.028 11.897)" fill="#66be00"/>
        <path id="Trazado_586610" data-name="Trazado 586610" d="M22.207,32.323c.6.1,1.262-.229,1.8.276.364.066.552-.33.974-.309a9.033,9.033,0,0,0,3.17-.215,15.571,15.571,0,0,0,3.209-.832c.174-.1.447-.013.675-.013-.711,1.168-1.571,2.238-2.231,3.444a4.683,4.683,0,0,0-.769,2.549c.028.493-.366.874-.292,1.392a10.827,10.827,0,0,1,.014,1.5,19.988,19.988,0,0,1-9.284.083c.218-1.4-.4-2.763-.264-4.185.657-.848,1.809-1.072,2.387-1.858.174-.675.322-1.253.475-1.829,0-.011.086,0,.132,0" transform="translate(10.572 17.419)" fill="#11baa2"/>
        <path id="Trazado_586611" data-name="Trazado 586611" d="M7.538,30.363h1.23c.127-.127.254-.257.351-.356a4.617,4.617,0,0,0-.284-2.62,13.375,13.375,0,0,1-.2-2.219c-.035-1-.009-2-.009-3,1.32.934,1.665,2.354,1.913,3.825a4.1,4.1,0,0,0-.124,4.087c.464,1.036,1.073,2.006,1.613,3.006.16.3.308.6.49.951-.446.284-.894.1-1.321.159-.728-1.044-2.19-1.377-2.57-2.739-.436-.292-1.048-.408-1.092-1.092" transform="translate(3.939 12.275)" fill="#57a923"/>
        <path id="Trazado_586612" data-name="Trazado 586612" d="M37.018,23.237c.355-.013.414-.427.819-.554v3.778c-.568.49-.039,1.265-.5,1.832-.249.306.1.907.566,1.223.113.077.24.108.209.279.384.735.055,1.232-.546,1.639.1.689-.494,1.02-.888,1.234-.579.314-.91.838-1.453,1.191H33.96a12.772,12.772,0,0,1,1.353-2.731,6.309,6.309,0,0,0,1.171-4.16c-.036-.512-.431-.824-.557-1.271a3.066,3.066,0,0,1,1.092-2.46" transform="translate(18.975 12.57)" fill="#11b9a2"/>
        <path id="Trazado_586613" data-name="Trazado 586613" d="M36.257,32.031a5.926,5.926,0,0,0,.546-1.639h.543a1.55,1.55,0,0,0,1.034-1.507c.05-.84.358-1.626.342-2.466-.027-1.54-.006-3.08-.006-4.64.308-.24.657-.11.987-.1a2.434,2.434,0,0,1,.384,1.626c-.016,1.948-.006,3.9-.006,5.8-.86,1.21-2.252,1.8-3.105,2.927Z" transform="translate(20.282 11.973)" fill="#fbc251"/>
        <path id="Trazado_586614" data-name="Trazado 586614" d="M8.445,30.659c.058.526.532.094.813.5.033.069.157.33.279.589-.173-.044-.226.116-.431.268-.857-1.094-2.184-1.686-3.119-2.923,0-1.188-.047-2.5.014-3.8.058-1.22-.334-2.5.38-3.648h.828a.356.356,0,0,1,.146.341c0,1.045.024,2.091-.008,3.133a14.226,14.226,0,0,0,.546,4.271,2.09,2.09,0,0,1,.006.543c.126.286.5.383.546.727" transform="translate(3.032 11.978)" fill="#fac150"/>
        <path id="Trazado_586615" data-name="Trazado 586615" d="M38.192,23.048a12.092,12.092,0,0,1-1.092,2.46l-1.759-1.072H33.479l-1.489.775a3.54,3.54,0,0,1-.075-1.229,8.406,8.406,0,0,1,4.247-.943c.673.058,1.354.009,2.03.009" transform="translate(17.801 12.759)" fill="#70c8c1"/>
        <path id="Trazado_586616" data-name="Trazado 586616" d="M10.176,27.35c-.546-1.16-1.1-2.317-1.629-3.486-.071-.154-.022-.359-.282-.339,0-.59-.22-1.32.049-1.738.431-.67-.144-1.568.706-2.006.047.044.173.165.384.367-.472,2.354.725,4.459,1.345,6.644-.137.294-.287.5-.573.557" transform="translate(4.305 10.917)" fill="#64bc00"/>
        <path id="Trazado_586617" data-name="Trazado 586617" d="M21.343,1.726a.878.878,0,0,1,.7.272,1.578,1.578,0,0,0,2.39.033,2.286,2.286,0,0,1,1.71-.57c.177.2.384.438.657.747-.091.407.141.923-.135,1.446A5.593,5.593,0,0,1,24.348,6.37a.586.586,0,0,1-.753.019,6.829,6.829,0,0,1-2.7-3.287c-.154-.488-.469-1.176.452-1.377" transform="translate(11.436 0.474)" fill="#fdc351"/>
        <path id="Trazado_586618" data-name="Trazado 586618" d="M21.7,1.736c-.551.334-.111.852-.232,1.094.521,1.593,1.778,2.4,2.736,3.463.149.165.334.053.5.088-.13.57-.723.534-1.075.849a6.938,6.938,0,0,1-3.556-3.894V2.113l.731-.593c.224.069.672-.361.894.217" transform="translate(11.075 0.463)" fill="#f89a46"/>
        <path id="Trazado_586619" data-name="Trazado 586619" d="M37.417,8.249a1.154,1.154,0,0,1,1.037.413c.331.333.828.312,1.031.727,1.053-.388,1.77-1.468,3.042-1.081l.568.568a3.5,3.5,0,0,1-.844,2.833,8.437,8.437,0,0,1-1.431,1.449c-.072.069-.264.009-.4.009-1.864-.6-2.634-2.141-3.254-3.8a1.05,1.05,0,0,1,.249-1.121" transform="translate(20.762 4.334)" fill="#fdc451"/>
        <path id="Trazado_586620" data-name="Trazado 586620" d="M37.81,8.24a5.171,5.171,0,0,0,2.507,4.367c.21.155.45.259.5.551-.075.4-.479.515-.67.81-1.941-1.169-3.67-2.488-3.736-5,.275-.278.5-.5.715-.727Z" transform="translate(20.369 4.343)" fill="#f99a46"/>
        <path id="Trazado_586621" data-name="Trazado 586621" d="M4.411,8.249a1.582,1.582,0,0,1,1.32.4c.339.3.742.435,1.108.7C7.8,9,8.522,7.921,9.794,8.306c.158.16.351.353.568.57a3.5,3.5,0,0,1-.844,2.833,8.437,8.437,0,0,1-1.431,1.449c-.072.069-.264.009-.4.009A5,5,0,0,1,4.411,8.249" transform="translate(2.151 4.333)" fill="#fdc451"/>
        <path id="Trazado_586622" data-name="Trazado 586622" d="M4.811,8.246c-.019.273.292.377.292.691a3.773,3.773,0,0,0,1.21,2.571c.552.59,1.182,1.107,1.776,1.656-.1.524-.648.518-.982.815-.469-.7-1.3-.986-1.889-1.6-.466-.482-.772-1.063-1.205-1.562-.45-.521-.3-1.248-.287-1.9.353-.245.51-.8,1.086-.673" transform="translate(1.75 4.336)" fill="#f89a46"/>
        <path id="Trazado_586623" data-name="Trazado 586623" d="M29.64,17.212a1.9,1.9,0,0,1-1.357-1.254c.334-.174.14-.783.617-.925h3.523a1.23,1.23,0,0,1,.06,1.841c-.436,0-.854.383-1.4.345S30,17.212,29.64,17.212" transform="translate(15.745 8.212)" fill="#030500"/>
      </g>
    </g>
  </g>
</svg>
