<svg id="Grupo_850445" data-name="Grupo 850445" xmlns="http://www.w3.org/2000/svg" xmlns:xlink="http://www.w3.org/1999/xlink" width="124.284" height="124.174" viewBox="0 0 124.284 124.174">
  <defs>
    <clipPath id="clip-path">
      <rect id="Rectángulo_39451" data-name="Rectángulo 39451" width="124.284" height="124.174" fill="none"/>
    </clipPath>
  </defs>
  <g id="Grupo_850444" data-name="Grupo 850444" clip-path="url(#clip-path)">
    <path id="Trazado_588500" data-name="Trazado 588500" d="M109.226,101.287a7.519,7.519,0,0,1,1.869,1.047,5.058,5.058,0,0,0,2.206-.984,34.628,34.628,0,0,1,6.538-4.107,12.112,12.112,0,0,1,2.075-.873,3.133,3.133,0,0,0,2.353-2.028c0-7.479-.021-15.454.033-23.43.006-.782-.572-1.246-.62-1.937a4.014,4.014,0,0,0-2.892-.628c-1.86.01-3.721.054-5.577-.016a14.729,14.729,0,0,0-3.445.464c-1.049.207-2.185-.105-3.2.507-.158.1-.447-.026-.858-.065a45.671,45.671,0,0,0,.119-13.141,44.83,44.83,0,0,0-3.385-12.174,53.8,53.8,0,0,0-6.682-11.045,44.61,44.61,0,0,0-9.683-8.722,48.09,48.09,0,0,0-11.234-5.684,51.345,51.345,0,0,0-12.657-2.49c1.083-1.062,2.448-1.648,3.448-2.713,1.066-1.137,1.555-2.676,2.727-3.722.046-1.541,1.489-2.758,1.027-4.416.99-1.491.494-2.954-.089-4.422-.917-.766-2.027-.653-3.116-.653-5.011,0-10.026.12-15.032-.048a57.475,57.475,0,0,0-7.307.647,33.035,33.035,0,0,0-5.27,1.2A37.377,37.377,0,0,0,35.2,3.544a29.173,29.173,0,0,0-4.8,2.417c-2.091,1.433-4.168,2.917-6.165,4.511-3.588,2.866-6.577,6.319-9.87,9.469A47.027,47.027,0,0,1,4.222,27.077c-.37.2-.753.577-1.205.576C1.692,27.648.9,28.507.056,29.362q0,11.585,0,23.21a3.177,3.177,0,0,0,.594,2.442,4.251,4.251,0,0,0,2.992.759c1.209-.065,2.432.071,3.635-.036,1.553-.139,3.085.246,4.688-.365,1.317-.5,2.965.2,4.583-1.084-.109,1.4.342,2.277-.41,3.167-.241.285-.063.93-.064,1.41,0,2.017.113,4.044-.047,6.048-.087,1.086.454,1.949.549,2.948.086.908-.443,1.938.468,2.706-.08,2.116.889,3.976,1.458,5.933a41.532,41.532,0,0,0,5.1,10.713,42.44,42.44,0,0,0,6.672,8.134,51.974,51.974,0,0,0,14.113,9.222c2.377,1.087,5.012,1.52,7.436,2.531,1.59-.224,3.034.757,4.652.509,1.235-.189,2.33.888,3.716.554-3.065,1.307-4.453,4.1-6.277,6.482-.614,2.846-2.483,5.553-.795,8.815.687.693,1.786.6,2.876.6,5.335-.009,10.671-.089,16,.036a50.078,50.078,0,0,0,6.577-.637,34.711,34.711,0,0,0,7.92-1.874,60.828,60.828,0,0,0,7.325-3.371,36.385,36.385,0,0,0,3.761-2.582v-2.716c-1.532-1.719-2.643-2.05-4.586-.734-10.175,6.888-21.676,6.6-33.2,6.274a.909.909,0,0,1-.745-.477A6.237,6.237,0,0,1,62,113.706a17.3,17.3,0,0,1,6.484-2.581c4.02-.909,8.147-1.263,12.128-2.364,7.083-1.959,12.252-6.679,17.029-11.9a2.9,2.9,0,0,0-.044-4.344,3,3,0,0,0-4.534.194c-1.806,1.848-3.68,3.613-5.594,5.34a13.648,13.648,0,0,1-5.079,3.209,3.835,3.835,0,0,1-4.638-1.681,3.389,3.389,0,0,1,.564-4.817C84.6,90.1,89.267,83.548,96.173,79.594a44.233,44.233,0,0,1,19.339-5.719,8.74,8.74,0,0,1,1.935.068,2.435,2.435,0,0,1,1.222.664c.122,5.4.14,11.078-.029,16.753-2.694,1.983-5.731,3.066-8.084,5.191-1.453,1.313-2.707,2.646-1.33,4.735" transform="translate(-0.017 0)"/>
    <path id="Trazado_588501" data-name="Trazado 588501" d="M140.84,141.312v-2.66c2.854-2.991,6.511-4.77,10.136-6.516V113.22a33.543,33.543,0,0,0-5.741.056c-4.155.733-8.318,1.376-12.283,3.1a50.991,50.991,0,0,0-8.48,4.7,45.514,45.514,0,0,0-7.141,6.168c-.95.99-1.933,1.951-2.914,2.911a10.785,10.785,0,0,1-2.882,2.4,13.076,13.076,0,0,0-3.208,2.7c.126,1.217-1.094,2.218-.271,3.44-.027,1,1.087,1.383,1.345,2.435.521.476,1.476.453,2.024,1.092a6.741,6.741,0,0,0,5.22-1.39,19.654,19.654,0,0,0,3.3-2.594,7.34,7.34,0,0,1,2.325-1.961,4.083,4.083,0,0,0,1.6-1.707,4.164,4.164,0,0,1,4.013-2.45l1.559,1.984a2.743,2.743,0,0,1-.827,2.725,59.486,59.486,0,0,1-7.244,6.593,21.035,21.035,0,0,1-8.11,4.343,58.239,58.239,0,0,1-5.757,1.365c-2.4.35-4.8.852-7.183,1.308a25.8,25.8,0,0,0-5.976,2.008c-2.623,1.2-3.915,3.463-4.928,5.964-.078.191.025.455.054.828h6.274c2.183,0,4.377-.144,6.545.037a34.419,34.419,0,0,0,7.306-.629,31.97,31.97,0,0,0,8.885-2.479,26.844,26.844,0,0,0,6.515-3.6c1.44-1.2,2.857-.439,4.2.378a2.052,2.052,0,0,1,1.212-1.381,6.864,6.864,0,0,0,2.67-2.494c.79-.893-.193-2.24.8-3.071.832-1,2.182-.014,3.077-.8a18.078,18.078,0,0,0,3.881-3.875" transform="translate(-31.631 -40.025)" fill="#fbe7cf"/>
    <path id="Trazado_588502" data-name="Trazado 588502" d="M171.286,7.7a7.823,7.823,0,0,0-4.4-6.826,7.945,7.945,0,0,0-8.94,1.476,8.289,8.289,0,0,0-2.755,6.383,1.223,1.223,0,0,1-.265,1.1.948.948,0,0,0-.054,1.283,1.126,1.126,0,0,1,.33.839c-.364,3.1.609,6.132.5,8.914a3.2,3.2,0,0,0,3.9,2.452c1.3-.188,2.38.684,3.68.536a30.922,30.922,0,0,1,3.87-.027c.713.008,1.292.953,2.129.246a2.441,2.441,0,0,1,2.065-.211,4.4,4.4,0,0,0,2.21-.572A8.885,8.885,0,0,0,179,16.124c.206-4.232-2.739-7.958-7.709-8.429" transform="translate(-54.721 -0.032)"/>
    <path id="Trazado_588503" data-name="Trazado 588503" d="M7.7,170.907c.4,4.4,2.413,6.893,6.133,7.86a6.88,6.88,0,0,0,6.882-1.857c1.188-1.219,2.41-2.323,2.822-4.17a23.428,23.428,0,0,0,.264-2.772c.058-.543-.1-1.131.484-1.478-.158-.18-.324-.352-.466-.541-.039-.052-.006-.157-.006-.238,0-1.128.06-2.26-.018-3.383a8.924,8.924,0,0,0-.28-3.02,11.212,11.212,0,0,1-.241-3.416c-.574-1.848-2.024-2.43-3.917-2.236-1.5.153-2.862-.67-4.405-.539-1.4.12-2.872-.141-4.247-.1-2.89.079-5.839.1-8.164,2.627a8.141,8.141,0,0,0-2.454,6.966A7.312,7.312,0,0,0,4.893,170.6c.786.3,1.655,1.05,2.808.31" transform="translate(0 -54.849)"/>
    <path id="Trazado_588504" data-name="Trazado 588504" d="M160.61,162.468c-.16,0-.361.063-.475-.01a2.4,2.4,0,0,0-3.155.172c-1.208,1.095-.688,2.406-.252,3.713a1.537,1.537,0,0,1,.479.006c1.612.559,1.61.563,3.042.016,1.316-1.28.8-2.591.361-3.9" transform="translate(-55.283 -57.306)" fill="#060605"/>
    <path id="Trazado_588505" data-name="Trazado 588505" d="M98.727,97.894a12.042,12.042,0,0,1-4.837,3.684c-1.028.379-1.471,1.434-2.373,2.046v10.848c1.46.718,2.809-.509,4.29-.333,1.407.167,2.633-.584,4.039-.966-.582-1.652-1.392-3.039-1.109-4.625.389-2.181.81-4.356,2.592-5.95a12.273,12.273,0,0,1,2.888-2.4,11.306,11.306,0,0,0,3.059-2.564c1.264-1.248,2.539-2.487,3.77-3.768a48.5,48.5,0,0,1,12.681-9.2,2.342,2.342,0,0,0,1.249-1.031,8.931,8.931,0,0,0-6.708-3.943,15.539,15.539,0,0,1-6.512-2.355,8.916,8.916,0,0,1-3.362-4.556c-.877-2.118-.268-4.069.266-6.057.35-1.3.958-2.541,1.19-3.855a3.019,3.019,0,0,0-2.137-3.8c-2.857-.6-5.782-.69-8.6-1.551-2.08-.636-3.778-1.554-4.416-3.8-.039-.136-.219-.231-.334-.345,0-1.129,0-2.259,0-3.27.744-1.279,1.2-2.651,2.4-3.481,1.239-.86,2.32-1.962,3.925-2.247.631-.112,1.159-.735,1.794-.91a19.143,19.143,0,0,1,4.444-.93c1.429-.038,2.7-.755,4.166-.582a32.919,32.919,0,0,0,4.119.027,1.646,1.646,0,0,0,.468-.171c-1.039-1.52-2.789-2.11-4.157-3.166a34.625,34.625,0,0,0-10.59-4.791c-2.039-.348-4.024-.943-6.107-1.188a49.952,49.952,0,0,0-6.361-.333c-1.225.014-2.442-.268-3.717.379-.961.488-2.289-.16-3.426.513-.468.277-1.237.046-2.073.046.446,2.3,1.6,4.352.914,6.558a6.959,6.959,0,0,1,4.96,6.986A8.24,8.24,0,0,1,83.39,51.17a18.552,18.552,0,0,1-3.031,3.612,15.77,15.77,0,0,0-3.026,3.671,3.163,3.163,0,0,0,2.022,1.718c1.442.431,2.438,1.539,3.634,2.315.738.478,1.041,1.624,1.633,2.632.52,3.783-1.385,7.055-3.186,10.3-.764,1.377-1.776,2.637-2.515,4.208a19.02,19.02,0,0,0,5.017,2.549,7.607,7.607,0,0,1,1.816.885,6.824,6.824,0,0,0,.951.627,102.008,102.008,0,0,1,9.72,5.795c1.827,1.141,3.819,5.189,2.321,7.543-.145.227-.019.625-.019.868" transform="translate(-27.364 -11.428)" fill="#b2f0fe"/>
    <path id="Trazado_588506" data-name="Trazado 588506" d="M7.584,34.824V53.543c2.421-.218,4.783.259,7.261-.358,1.823-.454,3.754-.724,5.642-1.033a22.675,22.675,0,0,0,3.9-1.159,40.859,40.859,0,0,0,10.663-5.812,44.391,44.391,0,0,0,3.622-3.024c1.85-1.918,3.819-3.725,5.627-5.68a14.339,14.339,0,0,1,3.287-2.658,5.468,5.468,0,0,0,3.093-5.666c-.21-1.029-1.276-1.528-1.487-2.549a7.253,7.253,0,0,1-2.02-1.024,6.172,6.172,0,0,0-5.186,1.351,28.315,28.315,0,0,0-3.464,2.762,5.968,5.968,0,0,1-2.164,1.781,2.794,2.794,0,0,0-1.512,1.5c-.488,1.424-1.739,1.911-2.836,2.694H30.653l-1.725-1.684a3.949,3.949,0,0,1,1.2-3.17A61.106,61.106,0,0,1,37.2,23.4a23.194,23.194,0,0,1,8.094-4.405c.936-.28,1.911-.479,2.842-.7s1.944-.474,2.917-.65c2.236-.406,4.5-.711,6.729-1.224a39.174,39.174,0,0,0,5.66-1.6c2.883-1.137,4.491-3.493,5.738-6.155a2.446,2.446,0,0,0,.016-.943,3.97,3.97,0,0,0-1.94-.149c-3.476-.025-6.961.129-10.428-.058-2.647-.142-5.185.684-7.806.53-4.816,1.2-9.609,2.311-13.91,5.094a54.514,54.514,0,0,0-9.1,7.257c-1.654,1.659-3.323,3.3-4.971,4.968A39.987,39.987,0,0,1,8.457,34.2a5.578,5.578,0,0,0-.873.624" transform="translate(-2.684 -2.65)" fill="#fbe7cf"/>
    <path id="Trazado_588507" data-name="Trazado 588507" d="M56.67,97.044C52.922,89.671,49.262,82.369,43.312,76.6a3.259,3.259,0,0,0-2.66.582,62.6,62.6,0,0,1-7.116,3.235c-.875,1.067-.474,2.417-.814,3.554-.777,2.6-.489,5.229-.346,7.8a39.7,39.7,0,0,0,1.2,7.209,39.074,39.074,0,0,0,3.622,9.647,27.539,27.539,0,0,0,4.877,6.94c.864.819,1.294,1.934,2.2,2.742a48.51,48.51,0,0,0,13.319,8.838A32.092,32.092,0,0,0,64.7,129.28c.952.161,1.835,1.023,2.965.368.346-.773-.409-1.367-.73-1.741-2.711-3.156-4.756-6.77-7.121-10.159A25.416,25.416,0,0,1,56.2,110.3a6.091,6.091,0,0,1-.121-1.644c-.01-2.824.009-5.649-.012-8.473a5.293,5.293,0,0,1,.6-3.134" transform="translate(-11.395 -27.066)" fill="#b2f0fe"/>
    <path id="Trazado_588508" data-name="Trazado 588508" d="M132.7,54.783c-2.786,0-5.619.106-8.438-.043-1.533-.08-2.928.446-4.405.539a13.728,13.728,0,0,0-3.96.96,11.034,11.034,0,0,0-4.7,2.658c0,.495,0,.978,0,1.462.286.408.976.123,1.172.683,1.435-.244,2.726.5,4.142.585a17.851,17.851,0,0,1,5.724,1.334c2.233.909,3.174,2.627,4.029,4.646.895,2.112.376,4.1-.309,6.032-.426,1.2-.612,2.459-1.091,3.657-.637,1.595.375,3.186,2.064,4.142,1.486.841,3.174.918,4.734,1.448a24.843,24.843,0,0,1,6.23,2.549,9.362,9.362,0,0,1,2.9,3.4,5.677,5.677,0,0,0,.618.748c.447-.178.89-.464.808-.932-.314-1.767.636-3.379.53-5.127-.1-1.687.1-3.4-.053-5.076a33.539,33.539,0,0,0-1-6.357c-.522-1.779-1.055-3.576-1.695-5.337a35.019,35.019,0,0,0-3.862-7.588c-1.024-1.524-1.807-3.284-3.44-4.387" transform="translate(-39.347 -19.367)" fill="#d7eb83"/>
    <path id="Trazado_588509" data-name="Trazado 588509" d="M64.545,64.26a19.381,19.381,0,0,1,5.121-6.938c.833-.8,1.217-1.987,2.205-2.62-.4-.89.638-1.334.435-2.067-.008-.793-.871-.906-1.078-1.515H69.662a.173.173,0,0,0-.119.059c-1.3,1.727-3.449,2.395-4.915,3.921-1.172,1.221-2.386,2.4-3.59,3.592a37.6,37.6,0,0,1-6.278,5.56c5.368,5.334,9.065,11.611,12.387,18.121,1.687-1.56,4.6-6.8,4.671-9.126a4.573,4.573,0,0,0-2.508-1.829,23.718,23.718,0,0,1-3.329-2.539,5.141,5.141,0,0,1-1.436-4.619" transform="translate(-19.377 -18.088)" fill="#d7eb83"/>
    <path id="Trazado_588510" data-name="Trazado 588510" d="M93.956,124.193c.378-1.179-.425-1.55-.4-2.081a94.212,94.212,0,0,0-16.916-9.321c0,3.163-.047,5.885.026,8.6a7.882,7.882,0,0,0,.838,2.539c1.17,2.981,3.112,5.493,4.821,8.142,1.159,1.8,2.467,3.5,3.944,5.569a29.053,29.053,0,0,0,.059-4.035,8.333,8.333,0,0,1,4.6-7.463c1.132-.562,2.452-.984,3.019-1.953" transform="translate(-27.115 -39.91)" fill="#d7eb83"/>
    <path id="Trazado_588511" data-name="Trazado 588511" d="M163.365,21.054c3.372,1.064,6.732.469,10.052.557,1.918.051,4.387-2.379,2.972-4.915-.417-.748-1.084-.832-1.63-1.186-.624-.4-2.2-.189-3.4.207-2.01-.792-2.01-.792-2.678-2.455a4.833,4.833,0,0,0-.355-4.729c-2.736-1.568-3.693-1.269-5.612,1.809.647,1.151-.88,2.254-.252,3.465.6,1.159.3,2.353.251,3.5a14.077,14.077,0,0,0,.651,3.745" transform="translate(-57.432 -2.691)" fill="#f4727e"/>
    <path id="Trazado_588512" data-name="Trazado 588512" d="M15.319,174.552a4.006,4.006,0,0,1,.506.573c1.013,1.745,1.964,2.006,3.715,1.183a3.282,3.282,0,0,0,2.119-3.249c-.021-2.34-.1-4.685.039-7.017.061-1.014-.9-1.68-.475-2.651-3.706-1.239-7.389-.375-10.86-.7-3.282,1.685-3.852,4.641-.517,6.34.931-.165,2,.176,3.115-.237a2.052,2.052,0,0,1,2.362,1.609,1.666,1.666,0,0,0,.481.777,1.565,1.565,0,0,0-.282.341c-.429,1-.023,2.054-.2,3.03" transform="translate(-2.691 -57.568)" fill="#f4727e"/>
  </g>
</svg>
