<svg id="Grupo_850449" data-name="Grupo 850449" xmlns="http://www.w3.org/2000/svg" xmlns:xlink="http://www.w3.org/1999/xlink" width="125.902" height="126.066" viewBox="0 0 125.902 126.066">
  <defs>
    <clipPath id="clip-path">
      <rect id="Rectángulo_39454" data-name="Rectángulo 39454" width="125.902" height="126.066" fill="none"/>
    </clipPath>
  </defs>
  <g id="Grupo_850448" data-name="Grupo 850448" clip-path="url(#clip-path)">
    <path id="Trazado_588549" data-name="Trazado 588549" d="M113.654,110.858v-4.091H109.76v-4.019c4.307-.473,8.672.528,12.867-.652l2.537-2.539c.959-1.869.705-3.865.71-5.823q.02-9.134,0-18.269c0-2.051.241-4.13-.711-6.265l-2.427-2.429c-2.176-.917-4.339-.654-6.472-.656-10.9-.013-21.81.037-32.714-.037-2.646-.018-4.188,1.56-5.77,3.245.093.995-.636,1.766-.627,2.8.064,8.2.074,16.408-.016,24.612-.01.973.965,1.608.488,2.546l2.768,2.677c2.093,1.009,4.345.654,6.555.684,2.1.028,4.2.006,6.387.006v4H89.429v4.09H99.453v10.994L98.3,122.888H85.5a11.339,11.339,0,0,1-.752-2.494,21.719,21.719,0,0,0-2.688-6.987,18.554,18.554,0,0,0-2.867-3.874,22.869,22.869,0,0,0-5.23-3.854,15.722,15.722,0,0,0-4.908-2.155c.307-3.271.033-6.445-3.463-8.383-.759.125-1.524-.682-2.559-.67-1.018.013-1.826.743-2.832.568l-2.379,2.38c-1.237,2.157-.817,4.169-.937,6.08a23.23,23.23,0,0,0-7.221,3.622c-3.564,2.43-5.7,5.971-7.488,9.786a11.339,11.339,0,0,0-.924,3.4,10.04,10.04,0,0,1-.778,2.579H25.646l-1.139-1.141v-2.62c1.12-1.135,2.719-.818,4.062-1.143a25.27,25.27,0,0,0,5.57-2.511,14.6,14.6,0,0,0,3.514-2.506,22.017,22.017,0,0,0,4.025-5.165,23.327,23.327,0,0,0,1.878-3.785c.437-1.339.652-2.754,1.053-4.126a10.54,10.54,0,0,0,.091-3.762c-.1-1.118.55-2.359-.457-3.353-.11-2.618-1.33-4.818-2.44-7.113a24.277,24.277,0,0,0-2.361-3.342,16.249,16.249,0,0,0-2.632-2.706,27.534,27.534,0,0,0-5.459-3.419,25.716,25.716,0,0,0-4.23-1.442,16.051,16.051,0,0,0-7.131-.45,20.462,20.462,0,0,0-6.148,1.636A28.009,28.009,0,0,0,7.2,80.1a22.887,22.887,0,0,0-3.8,4.746,12.831,12.831,0,0,0-.659,1.26A21.15,21.15,0,0,0,.182,99.2a22.034,22.034,0,0,0,1.844,6.319,31.859,31.859,0,0,0,4.1,6.4c1.315,1.658,3.271,2.65,4.975,3.881a16.2,16.2,0,0,0,3.6,1.692,8.814,8.814,0,0,0,3.944.861c.774-.065.918,1.052,1.631.59.385,1.358.022,2.524.51,3.808a6.492,6.492,0,0,0,5.606,4.253q6.974-.005,13.948,0c1.319,1.026.809,2.687,1.216,4.005.4,1.3,1.009,2.47,1.466,3.719a18.448,18.448,0,0,0,3.838,5.75,23.239,23.239,0,0,0,8.778,5.688,16.862,16.862,0,0,0,4.606,1.092,18.143,18.143,0,0,0,5.561-.019c4.024-.86,7.993-2.005,11.113-4.984,3.188-3.044,3.838-3.278,6.633-8.625a15.185,15.185,0,0,0,1.177-4.069,16.469,16.469,0,0,1,.788-2.557c3.007,0,6.042.03,9.075-.011,1.882-.026,3.813.387,5.629-.49l2.654-2.64c1.122-2.8.577-5.487.678-8.127.062-1.595.011-3.195.011-4.881Z" transform="translate(0 -21.403)"/>
    <path id="Trazado_588550" data-name="Trazado 588550" d="M99.143,54.8h3.994V23.749l1.316-1.366H117.16c.4.786.979,1.543.732,2.479-.2.756.363,1.239.569,1.808,1.719,4.738,4.414,8.741,9.038,11.124a24.745,24.745,0,0,0,4.485,2.043,23.912,23.912,0,0,0,3.471.726,17.393,17.393,0,0,0,8.686-.959c4.883-1.942,8.865-4.85,11.383-9.776a21.989,21.989,0,0,0,2.414-11.673,15.642,15.642,0,0,0-1.024-4.637,28.055,28.055,0,0,0-2.471-4.554C151.8,4.728,147.778,2.291,143.179.794a10.993,10.993,0,0,0-4.513-.736c-1.452.153-3-.469-4.354.5-3.286.012-5.825,1.8-8.474,3.433a16.256,16.256,0,0,0-5.344,5.639,27.076,27.076,0,0,0-2.357,5.106c-.395,1.139.243,2.512-1.141,3.584-3.664,0-7.62.072-11.572-.026-2.65-.065-4.154,1.637-5.745,3.3.087,1.072-.587,1.96-.579,3.076.075,9.979.044,19.957.044,30.139" transform="translate(-32.098 0)"/>
    <path id="Trazado_588551" data-name="Trazado 588551" d="M29.434,48.12l2.311-2.312c1.1-2.231.828-4.311.834-6.361.014-4.295,0-8.588,0-12.941H53.738l1.182,1.879V54.758h4.038v-9.38c0-4.735.028-9.471-.015-14.206-.016-1.8.444-3.654-.548-5.313l-2.971-2.97c-2.09-.866-4.515-.469-6.9-.489-5.236-.043-10.473-.014-15.746-.014a4.557,4.557,0,0,1-.183-2.213c-.022-3.721,0-7.441-.014-11.162,0-1.888.224-3.8-.725-5.869L29.414.761C27.368-.223,25.2.069,23.077.062Q16.1.039,9.132.061c-1.887,0-3.8-.231-5.937.761L.627,3.587c-.746,1.549-.5,3.625-.5,5.668Q.115,24.35.126,39.443c0,2.05-.258,4.129.8,6.331l2.349,2.351c2.266.962,4.518.623,6.735.64q6.338.05,12.678,0c2.217-.018,4.47.325,6.744-.646" transform="translate(-0.028 -0.009)"/>
    <path id="Trazado_588552" data-name="Trazado 588552" d="M81.222,87.27v3.886h3.961c.13-1.195.015-2.5.066-3.886Z" transform="translate(-26.308 -28.267)"/>
    <path id="Trazado_588553" data-name="Trazado 588553" d="M99.227,99.275v3.892h3.932c.216-1.2-.009-2.508.122-3.892Z" transform="translate(-32.14 -32.155)"/>
    <path id="Trazado_588554" data-name="Trazado 588554" d="M81.285,103.164h3.887V99.2c-1.2-.13-2.5-.016-3.887-.066Z" transform="translate(-26.328 -32.11)"/>
    <path id="Trazado_588555" data-name="Trazado 588555" d="M99.294,91.152h3.881V87.19c-1.192-.131-2.495-.015-3.881-.066Z" transform="translate(-32.161 -28.22)"/>
    <path id="Trazado_588556" data-name="Trazado 588556" d="M160.692,73.311l-1.172-1.172H121.453L120.281,73.4V92.38h40.411Z" transform="translate(-38.959 -23.366)" fill="#69d5f3"/>
    <path id="Trazado_588557" data-name="Trazado 588557" d="M8.128,98.318c-.969.527-.865,1.56-1.149,2.414a9.635,9.635,0,0,0-.862,4.192c.179,1.449-.6,3.009.489,4.351-.074,2.345,1.34,4.168,2.2,6.181a4.919,4.919,0,0,0,1.4,1.96c1.538,1.245,2.579,3.046,4.449,3.938,1.13.54,2.166,1.3,3.327,1.745s2.5.367,3.6,1.1c2.03-.281,4.046.1,6.147-.377a38.648,38.648,0,0,0,6.156-2.31c1.5-.617,2.389-2,3.557-3.029a15.2,15.2,0,0,0,4.2-7.131c1.326-4.133,1.16-5.188.527-9.01A27.668,27.668,0,0,0,41.1,98.719c-.078-.258-.189-.458-.508-.4a.739.739,0,0,0-.7-.139c-.945.351-1.46,1.425-2.549,1.527-10.609-6.351-15.692-6.159-25.964,0-1.089-.1-1.6-1.175-2.55-1.531a.662.662,0,0,0-.7.143" transform="translate(-1.947 -30.776)" fill="#fee9a6"/>
    <path id="Trazado_588558" data-name="Trazado 588558" d="M78.174,132.08v-4.251a17.629,17.629,0,0,0-9.544,7.781c-2.2,3.673-3.436,7.9-2.491,12.081,2.184,9.659,8.144,14.076,16.127,15.5a16.1,16.1,0,0,0,8.406-1.066,19.487,19.487,0,0,0,8.3-6.242,19.1,19.1,0,0,0,3.01-6.092c1.319-3.977.661-8.977-1.452-13.111a18.327,18.327,0,0,0-10.058-8.9c-.168,1.395-.029,2.85-.089,4.481,3.905,1.575,6.236,4.758,7.545,8.544a13.594,13.594,0,0,1-.2,8.812,14.267,14.267,0,0,1-14.153,9.554,13.253,13.253,0,0,1-7.72-2.725,13.748,13.748,0,0,1-4.744-6.113c-1.244-3.547-1.637-7.156.07-10.547,2.235-4.44.93-3.416,7-7.71" transform="translate(-21.318 -41.389)" fill="#fe816d"/>
    <path id="Trazado_588559" data-name="Trazado 588559" d="M85.158,150.463,83,148.3c-1.2-2.419-.65-4.77-.88-7.2a10.073,10.073,0,0,0-3.943,6.924,9.733,9.733,0,0,0,2.5,8.054,10.183,10.183,0,0,0,14.661.535c4.028-3.813,4.527-10.72-.8-15.537-.469,2.376.322,4.806-1.046,7.289l-2.089,2.09a6.446,6.446,0,0,1-6.241,0" transform="translate(-25.291 -45.696)" fill="#f7f9fa"/>
    <path id="Trazado_588560" data-name="Trazado 588560" d="M159.517,112.162l1.26-1.261v-2.525c-2.093-.4-32.5-.54-40.485-.183v2.783l1.185,1.186h38.04" transform="translate(-38.963 -34.978)" fill="#cbd0d8"/>
    <path id="Trazado_588561" data-name="Trazado 588561" d="M41.095,94.759H41.6c-.068-.312.033-.607-.159-.952A18.412,18.412,0,0,0,29.11,84.535a14.544,14.544,0,0,0-5.879-.346c-3.68.636-7.242,1.836-9.966,4.666-1.473,1.53-3.173,2.864-3.974,4.952a5.451,5.451,0,0,0-.149.952h.508a6.6,6.6,0,0,0,2.812-1.635,21.744,21.744,0,0,1,25.822,0,6.588,6.588,0,0,0,2.812,1.635" transform="translate(-2.961 -27.216)" fill="#fde8a6"/>
    <path id="Trazado_588562" data-name="Trazado 588562" d="M94.219,115.422l-1.353-1.233H91.384L90.2,115.531a2.02,2.02,0,0,0-.036.336c0,7.081,0,14.162,0,21.444l1.436.8-.293.361h1.723l1.192-1.5Z" transform="translate(-29.204 -36.986)" fill="#fb6d51"/>
    <path id="Trazado_588563" data-name="Trazado 588563" d="M144.241,120.289v3.9h8.015c.131-1.2.018-2.51.067-3.9Z" transform="translate(-46.72 -38.962)" fill="#a9b1bc"/>
    <path id="Trazado_588564" data-name="Trazado 588564" d="M150.133,33.216c.137,1.345-.391,2.685,1.1,3.9h6.328c.9-1.087.8-2.447.642-3.9Z" transform="translate(-48.628 -10.759)" fill="#68d3f1"/>
    <path id="Trazado_588565" data-name="Trazado 588565" d="M157.545,21.089h-6.6c-.956,1.176-.784,2.548-.765,3.984h8a5.109,5.109,0,0,0-.633-3.984" transform="translate(-48.636 -6.831)" fill="#68d3f1"/>
    <path id="Trazado_588566" data-name="Trazado 588566" d="M133.656,37.114h6.9c.92-.766-.6-1.011-.333-1.747a7.533,7.533,0,0,0,.043-2.234c-1.281-.089-2.591-.024-3.893-.036-1.335-.014-2.671,0-4.261,0,1.026,1.242-.026,2.9,1.542,4.02" transform="translate(-42.792 -10.716)" fill="#68d4f2"/>
    <path id="Trazado_588567" data-name="Trazado 588567" d="M175.833,33.157h-7.96c-.28,1.26.293,2.648-.911,3.9h7.79c.939-1.012.328-2.581,1.081-3.9" transform="translate(-54.079 -10.74)" fill="#68d4f2"/>
    <path id="Trazado_588568" data-name="Trazado 588568" d="M140.26,25.117c.213-1.335-.332-2.674.946-3.913h-7.75c-1.084,1.005-.419,2.633-1.176,3.913Z" transform="translate(-42.846 -6.868)" fill="#68d4f2"/>
    <path id="Trazado_588569" data-name="Trazado 588569" d="M175.907,25.111c-.944-1.187.06-2.814-1.26-3.894H167.08c1.026,1.257.648,2.582.775,3.894Z" transform="translate(-54.118 -6.872)" fill="#68d4f2"/>
    <path id="Trazado_588570" data-name="Trazado 588570" d="M154.791,51.566a13.854,13.854,0,0,0,2.939-6.361h-5.738a13.3,13.3,0,0,0,2.8,6.361" transform="translate(-49.23 -14.642)" fill="#67d2ef"/>
    <path id="Trazado_588571" data-name="Trazado 588571" d="M157.655,11.916a13.855,13.855,0,0,0-2.807-6.336,12.974,12.974,0,0,0-2.921,6.336Z" transform="translate(-49.209 -1.807)" fill="#67d2ef"/>
    <path id="Trazado_588572" data-name="Trazado 588572" d="M144.243,49.9a21.132,21.132,0,0,0-1.285-4.693h-5.2c1.534,2.3,2.151,2.757,6.488,4.693" transform="translate(-44.619 -14.642)" fill="#66cfec"/>
    <path id="Trazado_588573" data-name="Trazado 588573" d="M171.813,45.271h-5.538a19.642,19.642,0,0,0-1.25,4.614,15.877,15.877,0,0,0,6.788-4.614" transform="translate(-53.452 -14.663)" fill="#66cfec"/>
    <path id="Trazado_588574" data-name="Trazado 588574" d="M137.331,12.756h5.511a14.806,14.806,0,0,0,1.148-4.631,14.95,14.95,0,0,0-6.659,4.631" transform="translate(-44.482 -2.632)" fill="#66cfec"/>
    <path id="Trazado_588575" data-name="Trazado 588575" d="M166.212,12.81h5.625A15.433,15.433,0,0,0,165.5,8.221c-.844.934.328,1.591.158,2.307-.227.959.748,1.429.552,2.283" transform="translate(-53.506 -2.663)" fill="#66cfec"/>
    <path id="Trazado_588576" data-name="Trazado 588576" d="M30.443,18.15H6.265V42.222c2.017.35,17.282.458,24.178.154Z" transform="translate(-2.029 -5.879)" fill="#b3dc7f"/>
    <path id="Trazado_588577" data-name="Trazado 588577" d="M30.433,7.259,29.26,6.087H7.425L6.252,7.32v2.769H30.433Z" transform="translate(-2.025 -1.972)" fill="#a9b1bc"/>
    <path id="Trazado_588578" data-name="Trazado 588578" d="M7.564,64.211H29.306l1.171-1.487V60.218H6.3v2.844l1.268,1.149" transform="translate(-2.039 -19.505)" fill="#a9b1bc"/>
    <path id="Trazado_588579" data-name="Trazado 588579" d="M41.338,96.7c-.771-1.551-2.373-2.125-3.675-3.012-1.218-.83-2.706-1.266-3.919-2.1-.919-.632-2.13-.1-2.9-.976-2.376-.175-4.728-.834-7.127-.492a28.7,28.7,0,0,0-5.384,1.054,17.6,17.6,0,0,0-5.19,2.667c-1.1.882-2.661,1.368-3.253,2.861.537,1.066,1.567,1.677,2.249,2.523h1.012C15.6,96.712,18.62,95.511,21.9,94.6a15.179,15.179,0,0,1,6.345-.339A21.155,21.155,0,0,1,35.2,96.876a7.639,7.639,0,0,1,2.262,1.811,1.61,1.61,0,0,0,1.62.542c.685-.85,1.716-1.462,2.253-2.527" transform="translate(-3.204 -29.159)" fill="#010101"/>
    <path id="Trazado_588580" data-name="Trazado 588580" d="M33.052,125.809l2.475-2.477a6.563,6.563,0,0,0,0-6.1L33.1,114.842a6.567,6.567,0,0,0-6.033.217c-3.368,2.587-3.358,4.736-2.431,7.809,1.143,1.116,1.939,2.438,3.675,3.1,1.76.675,3.145.018,4.736-.163" transform="translate(-7.809 -36.994)" fill="#010100"/>
    <path id="Trazado_588581" data-name="Trazado 588581" d="M36.19,108.732l2.006-2.009a1.472,1.472,0,0,0-.435-1.258,11.745,11.745,0,0,0-5.174-2.752,9.024,9.024,0,0,0-2.3-.589,19.036,19.036,0,0,0-3.026.037,16.37,16.37,0,0,0-4.973,1.4,11.611,11.611,0,0,0-3.3,2.5l2.83,2.587c1.2-.217,2.268-2.351,4.363-1.954,1.713-.986,3.4-.244,5.147-.091,1.99.173,2.984,2.237,4.863,2.128" transform="translate(-6.15 -33.062)" fill="#020201"/>
    <path id="Trazado_588582" data-name="Trazado 588582" d="M34.225,122.968v-1.535L32.933,120.2H31.378l-1.166,1.6v1.243l1.389,1.2h1.431c.23-.4.564-.98.9-1.56l.3.292" transform="translate(-9.786 -38.933)" fill="#f57d6a"/>
  </g>
</svg>
