<svg xmlns="http://www.w3.org/2000/svg" xmlns:xlink="http://www.w3.org/1999/xlink" width="133" height="133" viewBox="0 0 133 133">
  <defs>
    <clipPath id="clip-path">
      <rect id="Rect치ngulo_39240" data-name="Rect치ngulo 39240" width="80" height="68" transform="translate(0 0)" fill="none"/>
    </clipPath>
  </defs>
  <g id="Grupo_850460" data-name="Grupo 850460" transform="translate(6579 7605)">
    <circle id="Elipse_4777" data-name="Elipse 4777" cx="66.5" cy="66.5" r="66.5" transform="translate(-6579 -7605)" fill="#4acfd9"/>
    <g id="Grupo_850160" data-name="Grupo 850160" transform="translate(-6552 -7572)">
      <g id="Grupo_850159" data-name="Grupo 850159" transform="translate(0 0)" clip-path="url(#clip-path)">
        <path id="Trazado_586662" data-name="Trazado 586662" d="M36.18,0H18.112V12.526H10.36V25.134H2.608v12.5c-1.047.258-1.98.547-2.425,1.632a2.274,2.274,0,0,0-.175.87C0,41.29,0,42.443,0,43.435a2.736,2.736,0,0,0,2.58,1.922v1.367c0,3.252.044,6.505-.019,9.756-.034,1.641.983,2.6,2.056,3.582.677-.022,1.22.426,1.94.4,2.082-.078,4.171-.028,6.356-.028.625,2.037,1.335,4.026,3.094,5.383A9.559,9.559,0,0,0,22.016,68a9.525,9.525,0,0,0,5.84-2.187c1.765-1.35,2.472-3.343,3.063-5.278a2.528,2.528,0,0,1,.428-.1c7.569,0,15.14,0,22.851,0,.614,1.983,1.308,3.978,3.053,5.348A9.537,9.537,0,0,0,63.243,68,9.372,9.372,0,0,0,69.1,65.848a9.706,9.706,0,0,0,3.117-5.356c1.944-.228,3.867.259,5.747-.443.52-.508,1.09-1.065,1.519-1.483a8.193,8.193,0,0,0,.5-3.925c.008-3.252-.019-6.5.01-9.756a6.015,6.015,0,0,0-3.689-5.87c-.584-.283-1.136-.627-1.813-1.007a7.294,7.294,0,0,0-.381-3.243,23.918,23.918,0,0,0-.875-4.511,3.246,3.246,0,0,1-.02-1.249c.011-.365-.388-.55-.346-.974a3.721,3.721,0,0,0-.917-2.456,6.148,6.148,0,0,0-5.384-2.929q-6.847-.014-13.7,0A6.565,6.565,0,0,0,49.088,24c-.412.328-1.111.372-1.083,1.132h-4.13V12.574h-7.7Z" transform="translate(0 0)"/>
        <path id="Trazado_586663" data-name="Trazado 586663" d="M4.336,38.756v2.457h8.032c-.661,2.571-1.291,5.023-1.932,7.514H4.382V50.6l.88.667h6.794c.616-1.975,1.329-3.947,3.062-5.336a9.318,9.318,0,0,1,6-2.2,9.446,9.446,0,0,1,5.849,2.155,9.63,9.63,0,0,1,3.1,5.356H45.427a117.486,117.486,0,0,0,.1-12.493Z" transform="translate(0.862 6.614)" fill="#fe816e"/>
        <path id="Trazado_586664" data-name="Trazado 586664" d="M40.9,35.355V54.207c.82.09,1.651.019,2.535.05V25.812a4.02,4.02,0,0,0,.388-.563,2.4,2.4,0,0,1,2.293-1.239c4.083.02,8.167.008,12.1.008,1.931.5,2.083,2.046,2.317,3.432.132.787.315,1.584.438,2.371a5.093,5.093,0,0,0,.541,2.287c.174.255.028.716.028,1.084v16.1A10.255,10.255,0,0,1,64.022,54.2h4.494c.2-.2.43-.419.708-.692V49.968L64.147,47.5v-5.8h4.962a3.62,3.62,0,0,0-2.1-4.142c-.918-.485-1.865-.918-2.821-1.386-.181-1.288-.458-2.609-.643-3.926a9.06,9.06,0,0,1-.386-2.849c.1-.547-.493-.873-.36-1.45a2.178,2.178,0,0,0-.236-1.3,8.808,8.808,0,0,1-.32-2.058,3.439,3.439,0,0,0-2.01-2.649c-.26-.146-.643-.089-.786-.441-4.887,0-9.776.018-14.665-.021a14.228,14.228,0,0,0-1.792.4,1.2,1.2,0,0,0-.8.885,3.965,3.965,0,0,0-.519,2.4c0,2.646.019,5.293-.013,7.938-.01.818.05,1.687-.758,2.263" transform="translate(8.129 3.665)" fill="#fe816e"/>
        <path id="Trazado_586665" data-name="Trazado 586665" d="M45.247,51.318A9.108,9.108,0,0,1,50.156,45.1a8.617,8.617,0,0,1,7.89-.083V36.7c-1.308-.184-9.641-.235-12.8-.074Z" transform="translate(8.995 6.235)" fill="#fb6e51"/>
        <path id="Trazado_586666" data-name="Trazado 586666" d="M45.951,34.428H2.2v2.347c1.4.231,37.816.323,43.749.1Z" transform="translate(0.438 5.875)" fill="#fb6e51"/>
        <path id="Trazado_586667" data-name="Trazado 586667" d="M14.675,28.662H6.934V23.7c-.873-.095-1.7-.023-2.585-.055V33.7c2.068.046,4.192.015,6.316.02,2.14.006,4.278,0,6.476,0V23.681H14.675Z" transform="translate(0.865 4.035)" fill="#d29f6c"/>
        <path id="Trazado_586668" data-name="Trazado 586668" d="M30.061,23.673H27.582v4.933H19.839V23.72H17.258v9.927h12.8Z" transform="translate(3.431 4.04)" fill="#d29f6c"/>
        <path id="Trazado_586669" data-name="Trazado 586669" d="M13.333,17.864v-4.93h-2.5V22.9h12.7c-.024.019.023-.008.054-.048a.245.245,0,0,0,.059-.132c0-3.242,0-6.484,0-9.786H21.09c-.05.742-.011,1.562-.018,2.376-.007.831,0,1.664,0,2.549Z" transform="translate(2.153 2.207)" fill="#d29f6c"/>
        <path id="Trazado_586670" data-name="Trazado 586670" d="M26.24,17.868V12.931h-2.5v9.978h12.71c-.017.014.029-.016.059-.057a.252.252,0,0,0,.053-.135c0-3.242,0-6.483,0-9.78H34.025a21.168,21.168,0,0,0-.037,2.387c-.016.831,0,1.662,0,2.544Z" transform="translate(4.719 2.207)" fill="#d29f6c"/>
        <path id="Trazado_586671" data-name="Trazado 586671" d="M17.266,12.178H30.051V2.162H27.592V6.923a1.569,1.569,0,0,1-.163.184.253.253,0,0,1-.134.057c-2.462,0-4.923,0-7.444,0V2.177c-.874-.1-1.7-.023-2.585-.056Z" transform="translate(3.432 0.362)" fill="#d29f6c"/>
        <path id="Trazado_586672" data-name="Trazado 586672" d="M45.247,35.841h5.705a7.9,7.9,0,0,1-.58-1.624A2.778,2.778,0,0,1,52.46,30.8h5.368a44.444,44.444,0,0,0-1.071-4.978H45.247Z" transform="translate(8.995 4.408)" fill="#69d5f3"/>
        <path id="Trazado_586673" data-name="Trazado 586673" d="M19.425,57.763a6.3,6.3,0,1,0-.2-12.585,6.294,6.294,0,1,0,.2,12.585" transform="translate(2.569 7.71)" fill="#959ea9"/>
        <path id="Trazado_586674" data-name="Trazado 586674" d="M53.885,57.763a6.294,6.294,0,1,0-6.524-6.255,6.257,6.257,0,0,0,6.524,6.255" transform="translate(9.415 7.71)" fill="#959ea9"/>
        <path id="Trazado_586675" data-name="Trazado 586675" d="M32.761,23.673H30.177v9.945c-.017-.016.018.026.062.053a.279.279,0,0,0,.139.048c3.319,0,6.639,0,10.012,0V28.735c-2.483-.132-5.031.006-7.629-.075Z" transform="translate(5.998 4.04)" fill="#d29f6c"/>
        <path id="Trazado_586676" data-name="Trazado 586676" d="M40.9,35.168H42.13c.125-2.108.04-4.226.055-6.34.016-2.085,0-4.171,0-6.256a1.205,1.205,0,0,0-.905.784,12.705,12.705,0,0,0-.408,1.747c.048,3.355.023,6.71.023,10.065" transform="translate(8.126 3.852)" fill="#d29f6b"/>
        <path id="Trazado_586677" data-name="Trazado 586677" d="M39.574,26.1v-2.41H34.5c-.149.738.008,1.551-.085,2.41Z" transform="translate(6.841 4.044)" fill="#b17846"/>
        <path id="Trazado_586678" data-name="Trazado 586678" d="M53.456,34.728h3.318V32.311H51.66c-.046,1.268.738,1.914,1.8,2.417" transform="translate(10.269 5.514)" fill="#a8b0bb"/>
        <path id="Trazado_586679" data-name="Trazado 586679" d="M9.4,43.052H4.373v2.424H8.357c.587-.592.255-1.57,1.044-2.424" transform="translate(0.869 7.347)" fill="#fad56f"/>
        <path id="Trazado_586680" data-name="Trazado 586680" d="M8.658,26.141h2.468V23.683c-.758-.082-1.586-.009-2.468-.041Z" transform="translate(1.721 4.035)" fill="#b17946"/>
        <path id="Trazado_586681" data-name="Trazado 586681" d="M24.079,26.107V23.692H21.56c-.082.746-.011,1.555-.042,2.415Z" transform="translate(4.278 4.043)" fill="#b17946"/>
        <path id="Trazado_586682" data-name="Trazado 586682" d="M17.623,15.346V12.933H15.1c-.082.743-.01,1.552-.041,2.413Z" transform="translate(2.994 2.207)" fill="#b17946"/>
        <path id="Trazado_586683" data-name="Trazado 586683" d="M30.514,12.888H28.023c-.09.794-.014,1.6-.048,2.464H30.51a11.913,11.913,0,0,0,0-2.464" transform="translate(5.561 2.2)" fill="#b17946"/>
        <rect id="Rect치ngulo_39239" data-name="Rect치ngulo 39239" width="2.476" height="2.413" transform="translate(25.855 2.57)" fill="#b17946"/>
        <path id="Trazado_586684" data-name="Trazado 586684" d="M64.95,43.84V40.927H62.463v1.681L64.95,43.84" transform="translate(12.417 6.985)" fill="#f9d56f"/>
        <path id="Trazado_586685" data-name="Trazado 586685" d="M22.094,48.992c-.275-.267-.806-.787-1.337-1.305-.638.087-1.13-.38-1.779-.4-.665-.023-1.152.523-1.787.331l-1.658,1.646a3.889,3.889,0,0,0-.02,3.624c.5.471,1.108,1.051,1.738,1.652a4.084,4.084,0,0,0,3.761-.262c.316-.308.886-.864,1.363-1.331a3.909,3.909,0,0,0-.281-3.952" transform="translate(2.997 8.069)"/>
        <path id="Trazado_586686" data-name="Trazado 586686" d="M51.529,54.532c.675-.105,1.165.383,1.82.383s1.151-.514,1.777-.33L56.748,53a3.986,3.986,0,0,0,0-3.791L55.1,47.682a4.09,4.09,0,0,0-3.824.268c-.264.258-.8.776-1.327,1.3a4.867,4.867,0,0,0-.349,2.766c.3,1.082,1.175,1.647,1.928,2.519" transform="translate(9.841 8.077)"/>
        <path id="Trazado_586687" data-name="Trazado 586687" d="M18.678,49.472h-.665c-.18.251-.418.586-.792,1.11v.629l.818.768h.993c.189-.222.424-.5.743-.871V50.2l-1.1-.728" transform="translate(3.423 8.443)" fill="#c4c9d0"/>
        <path id="Trazado_586688" data-name="Trazado 586688" d="M51.657,50.364v.85l.852.776h.937l.789-1.056v-.678c-.261-.252-.526-.506-.8-.775h-1c-.2.228-.441.5-.776.883" transform="translate(10.269 8.444)" fill="#c4c9d0"/>
      </g>
    </g>
  </g>
</svg>
