<svg xmlns="http://www.w3.org/2000/svg" xmlns:xlink="http://www.w3.org/1999/xlink" width="133" height="133" viewBox="0 0 133 133">
  <defs>
    <clipPath id="clip-path">
      <rect id="Rectángulo_39234" data-name="Rectángulo 39234" width="70.253" height="70.319" fill="none"/>
    </clipPath>
  </defs>
  <g id="Grupo_850459" data-name="Grupo 850459" transform="translate(-1081 -4095)">
    <circle id="Elipse_4776" data-name="Elipse 4776" cx="66.5" cy="66.5" r="66.5" transform="translate(1081 4095)" fill="#4acfd9"/>
    <g id="Grupo_850151" data-name="Grupo 850151" transform="translate(1112.996 4126)">
      <g id="Grupo_850150" data-name="Grupo 850150" transform="translate(0 0)" clip-path="url(#clip-path)">
        <path id="Trazado_586638" data-name="Trazado 586638" d="M19,45.179c1.634.341,2.724-.925,4.113-1.35.353-.172.543.225.814.324A1.561,1.561,0,0,1,25.05,45.41c.121.624.453,1.284.631,1.909a2.669,2.669,0,0,0,.762,1.171h6.842l.572-.574c.341-1.068.675-2.117,1.031-3.236.415-.525,1.209-.444,1.783-.855a18.18,18.18,0,0,1,1.914.962,2.8,2.8,0,0,0,2.058.381,19.166,19.166,0,0,0,4.549-4.6c.319-1.461-.909-2.563-1.4-4.028.243-.491.525-1.059.771-1.555,1.34-.646,2.864-.621,3.922-1.655V26.4c-1.033-1.064-2.567-1.012-3.906-1.674-.36-.366-.377-1.028-.79-1.411.343-1.506,1.7-2.566,1.38-4.222a19.25,19.25,0,0,0-4.547-4.554H39.374l-2.824,1.414c-.563-.29-1.09-.559-1.565-.8-.68-1.3-.613-2.844-1.643-3.917H26.422c-1.183.955-.933,2.573-1.642,3.778a7.56,7.56,0,0,1-1.656.941L20.3,14.507H19.134a19.31,19.31,0,0,0-4.621,4.622v1.165c.506,1,.964,1.905,1.439,2.844a10.774,10.774,0,0,1-.909,1.679c-1.283.51-2.71.59-3.8,1.511v6.991c.946,1.09,2.508.961,3.885,1.661l.816,1.581c-.466.936-.918,1.845-1.428,2.869v1.233c.743.746,1.312,1.656,2.07,2.424s1.7,1.311,2.41,2.093" transform="translate(5.299 5.291)"/>
        <path id="Trazado_586639" data-name="Trazado 586639" d="M10.124.026A10.181,10.181,0,0,0,3.142,3.145,10.3,10.3,0,0,0,.057,11.036a10.391,10.391,0,0,0,3.133,7.042,10.157,10.157,0,0,0,7.472,3.048,10.223,10.223,0,0,0,7.426-3.142,10.293,10.293,0,0,0,3.041-7.473,10.21,10.21,0,0,0-3.06-7.335A10.747,10.747,0,0,0,10.124.026" transform="translate(0.023 0.013)"/>
        <path id="Trazado_586640" data-name="Trazado 586640" d="M43.469,54.563a10.98,10.98,0,0,0,7.981-3.2,10.549,10.549,0,0,0,3.058-7.776,9.3,9.3,0,0,0-.691-3.282,11.283,11.283,0,0,0-2.391-3.8,10.791,10.791,0,0,0-3.9-2.471,9.078,9.078,0,0,0-3.57-.628A10.611,10.611,0,0,0,33.4,43.971a9.024,9.024,0,0,0,.627,3.572,11.136,11.136,0,0,0,2.473,3.9,11.285,11.285,0,0,0,3.8,2.389,7.268,7.268,0,0,0,3.167.727" transform="translate(15.733 15.733)"/>
        <path id="Trazado_586641" data-name="Trazado 586641" d="M.022,43.468a11,11,0,0,0,3.192,7.989A10.307,10.307,0,0,0,10.983,54.5a10.4,10.4,0,0,0,7.064-3.079,10.667,10.667,0,0,0,3.125-7.454A12.288,12.288,0,0,0,19.794,38.8a10.879,10.879,0,0,0-4-4.012,11.088,11.088,0,0,0-5.172-1.38,9.014,9.014,0,0,0-3.57.625,10.786,10.786,0,0,0-3.9,2.471A11.333,11.333,0,0,0,.752,40.3a7.407,7.407,0,0,0-.73,3.167" transform="translate(0 15.733)"/>
        <path id="Trazado_586642" data-name="Trazado 586642" d="M43.518.025a7.037,7.037,0,0,0-3.188.683,11.07,11.07,0,0,0-3.9,2.482,11.1,11.1,0,0,0-2.383,3.8,9.574,9.574,0,0,0-.652,3.7,10.7,10.7,0,0,0,3.086,7.326,10.333,10.333,0,0,0,7.436,3.122,10.623,10.623,0,0,0,5.617-1.617,9.39,9.39,0,0,0,3.3-3.308,10.34,10.34,0,0,0,1.653-6.162,10.556,10.556,0,0,0-3.208-7.021A10.816,10.816,0,0,0,43.518.025" transform="translate(15.731 0)"/>
        <path id="Trazado_586643" data-name="Trazado 586643" d="M18.947,51.65l1.584-1.586c-.378-.35-.84-.78-1.489-1.383a9.555,9.555,0,0,0,7.388-2.945,9.243,9.243,0,0,0,2.666-7.45H26.968a11.024,11.024,0,0,1-.865,3.991,8.247,8.247,0,0,1-2.207,2.63,4.416,4.416,0,0,1-2.242,1.146A5.657,5.657,0,0,1,19,46.319l1.656-1.448-1.474-1.23.209-.212h-.547l-3.689,3.7v.724l3.8,3.8" transform="translate(7.138 18.037)"/>
        <path id="Trazado_586644" data-name="Trazado 586644" d="M46.362,33.1c-.5-.527-.934-.986-1.246-1.317-.572.552-1.109,1.069-1.583,1.524,1.2,1.2,2.445,2.446,3.826,3.828h.447c1.3-1.3,2.549-2.549,3.888-3.891-.466-.518-1.027-1.031-1.559-1.584-.444.458-.886.912-1.409,1.453-.227-.964-.084-1.873-.322-2.763a11.389,11.389,0,0,0-.909-2.36,8.62,8.62,0,0,0-1.783-2.143A9.885,9.885,0,0,0,43.52,24.2a16.854,16.854,0,0,0-2.4-.822c-.958-.337-1.865-.034-2.841-.257V25.3a11.265,11.265,0,0,1,4,.869A8.325,8.325,0,0,1,44.9,28.379a4.407,4.407,0,0,1,1.145,2.243c.1.794.562,1.559.315,2.476" transform="translate(18.034 10.891)"/>
        <path id="Trazado_586645" data-name="Trazado 586645" d="M8.606,18.964l-3.8-3.8H4.3L.514,18.948l1.425,1.406,1.468-1.47A9.375,9.375,0,0,0,7.149,27.2a8.68,8.68,0,0,0,6.617,1.858V26.977c-1.787-.154-3.654-.352-5.138-1.584a7.862,7.862,0,0,1-2.333-2.849,27.711,27.711,0,0,1-.84-3.382l1.44,1.515,1.712-1.712" transform="translate(0.242 7.142)"/>
        <path id="Trazado_586646" data-name="Trazado 586646" d="M33.227,8.589l3.894-3.9V4.258L33.355.491c-.475.493-1,1.036-1.527,1.58l1.321,1.321a8.866,8.866,0,0,0-4.062.583,8.749,8.749,0,0,0-3.27,2.348,9.766,9.766,0,0,0-2.149,3.356,10.228,10.228,0,0,0-.5,4.072h2.107c.28-3.164.756-4.494,2.794-6.377a7.974,7.974,0,0,1,4.7-1.786L31.449,6.9l1.779,1.687" transform="translate(10.905 0.232)"/>
        <path id="Trazado_586647" data-name="Trazado 586647" d="M42.054,19.211A8.984,8.984,0,0,0,39.1,16.246c-.834.39-1.665.716-2.432,1.158a1.2,1.2,0,0,1-1.325.012,12.641,12.641,0,0,0-2.242-.861,1.28,1.28,0,0,1-.925-.852c-.332-.962-.609-1.942-.922-2.963h-4.21c-.3.98-.568,2.007-.918,3a1.806,1.806,0,0,1-1.411,1.049c-.644.154-1.139.563-2,.871-1.187.181-2.149-.983-3.526-1.4a8.443,8.443,0,0,0-2.947,2.954l1.4,2.785c0,.207.134.647-.025.915a25.4,25.4,0,0,0-1.084,2.433,2.71,2.71,0,0,1-.555.663L12.74,27.064v4.188c1.021.3,2.051.568,3.047.924a1.768,1.768,0,0,1,1,1.311,3.232,3.232,0,0,0,.412,1.061,2.592,2.592,0,0,1,.447,1.758c-.493.964-.937,1.83-1.4,2.741a8.225,8.225,0,0,0,3.017,3.014l2.738-1.4a2.609,2.609,0,0,1,1.764.452,2.833,2.833,0,0,0,.928.4,1.871,1.871,0,0,1,1.551,1.523c.184.809.513,1.609.793,2.495h4.215c.327-1.015.653-2.024,1.062-3.3.34-.61,1.4-.483,2.043-1.034.356-.3.822-.181,1.193-.455a.968.968,0,0,1,1,.044c.787.416,1.586.808,2.474,1.258a7.983,7.983,0,0,0,3.027-2.927,8.345,8.345,0,0,0-.864-1.845c-.775-.958-.462-1.795-.046-2.745.234-.534.722-1,.6-1.693,1.021-1.055,2.491-1.031,3.8-1.631V27.045c-.943-.291-1.949-.613-2.963-.908a1.161,1.161,0,0,1-.777-.693c-.212-.975-.822-1.771-1.09-2.705a1.259,1.259,0,0,1,.093-1.021c.437-.772.8-1.586,1.255-2.507" transform="translate(6.002 6.002)" fill="#fe6b6b"/>
        <path id="Trazado_586648" data-name="Trazado 586648" d="M3.932,15.635c0-.88.044-1.473-.009-2.057a3.67,3.67,0,0,1,1.355-3.172A3.4,3.4,0,0,0,5.07,8.9c-.253-.6.141-1.29.338-1.882a4.681,4.681,0,0,1,5.069-3.041A3.969,3.969,0,0,1,13.6,6.019a3.4,3.4,0,0,0,.741,1.074v3.269c1.183,1.215,1.222,1.343,1.448,4.86a6.47,6.47,0,0,0,2.073-4.028,8.047,8.047,0,0,0-1.214-5.9A8.271,8.271,0,0,0,5.365,2.931C3.4,4.137,1.7,6.9,1.752,8.789c.072,2.691-.694,2.468,2.18,6.846" transform="translate(0.806 0.783)" fill="#398dcb"/>
        <path id="Trazado_586649" data-name="Trazado 586649" d="M7.49,4.886C6.038,5.814,5.968,5.95,6,7.783c.353.278.25.893.789.968V9.994c-.19.153-.434.353-.843.684-.179.065-.719-.24-1.024.39v4.713a8.556,8.556,0,0,0,6.76-.069V11c-.216-.362-.628-.444-1.171-.293l-.662-.9V8.849a2.273,2.273,0,0,0,.724-1.1c.24-.609-.082-1.178-.221-1.761-.144-.608-.755-.8-1.295-1.1Z" transform="translate(2.318 2.302)" fill="#fe6a6a"/>
        <path id="Trazado_586650" data-name="Trazado 586650" d="M51.1,44.385H49.069c-.059-.788-.012-1.586-.032-2.429h2.186a7.472,7.472,0,0,0-2.215-4.527,7.654,7.654,0,0,0-4.568-2.339v2.12H41.961V35.138a8.281,8.281,0,0,0-6.852,6.739h2.086V44.4H35.072a8.316,8.316,0,0,0,6.8,6.854v-2.17H44.35v2.074c3.1-.006,7.145-4.123,6.746-6.777" transform="translate(16.522 16.531)" fill="#398dcb"/>
        <path id="Trazado_586651" data-name="Trazado 586651" d="M1.759,43.021a7.219,7.219,0,0,0,2.315,5.984A6.98,6.98,0,0,0,9.42,51.255a6.121,6.121,0,0,1,.958,0,6.436,6.436,0,0,0,3.981-1.286A8.757,8.757,0,0,0,17.54,45.99a5.471,5.471,0,0,0,.325-1.358,9.056,9.056,0,0,0-1.014-5.59,11.9,11.9,0,0,0-1.3-1.506,5.092,5.092,0,0,0-2.389-1.814,6.33,6.33,0,0,0-2.611-.644,12.394,12.394,0,0,0-2.772.24,12.183,12.183,0,0,0-2.969,1.442c-1.67,1.047-2.286,2.716-2.96,4.382a5.651,5.651,0,0,0-.094,1.88" transform="translate(0.808 16.516)" fill="#fee25b"/>
        <path id="Trazado_586652" data-name="Trazado 586652" d="M43.208,1.758A6.914,6.914,0,0,0,37.471,3.93a7.817,7.817,0,0,0-2.417,6.246,7.936,7.936,0,0,0,1.162,3.9,8.13,8.13,0,0,0,7.5,3.847,7.645,7.645,0,0,0,5.4-2.466,8.147,8.147,0,0,0,2.179-6.492,8.571,8.571,0,0,0-1.171-3.494,6.15,6.15,0,0,0-2.67-2.648c-1.367-.69-2.732-1.362-4.24-1.069" transform="translate(16.508 0.795)" fill="#fee25b"/>
        <path id="Trazado_586653" data-name="Trazado 586653" d="M27.1,16.819a8.554,8.554,0,0,0-4.757,1.1,10.2,10.2,0,0,0-4.778,5.125,4.006,4.006,0,0,0-.4,1.184c-.062.616-.463,1.143-.349,1.8a7.815,7.815,0,0,1,.015,1.639,9.181,9.181,0,0,0,1.755,5.57,9.841,9.841,0,0,0,5.316,3.95,6.467,6.467,0,0,0,2.132.469c.547-.009,1.094-.022,1.642,0A9.167,9.167,0,0,0,33.238,35.9a9.842,9.842,0,0,0,3.948-5.318,6.482,6.482,0,0,0,.468-2.133c-.009-.547-.022-1.1,0-1.642a9.192,9.192,0,0,0-1.756-5.57,9.883,9.883,0,0,0-5.314-3.956c-.116-.038-.162-.24-.332-.187-.472.146-.814-.282-1.255-.277-.593.007-1.186,0-1.9,0" transform="translate(7.91 7.913)"/>
        <path id="Trazado_586654" data-name="Trazado 586654" d="M47.285,38.736c-.071-1-.921-1.253-1.249-1.783l-2.972,2.973H41.227c-.569-.568-1.236-1.234-1.879-1.879L37.73,39.842c.347.588,1.187,1.094,1.824,1.927v1.043c.391.34.421.8.64,1.193.38.01.588.315.84.556,1.168.418,2.364-.128,3.183-1.461V41.8l3.067-3.066" transform="translate(17.774 17.408)" fill="#000101"/>
        <path id="Trazado_586655" data-name="Trazado 586655" d="M8.84,46.794h2.1V37.529c-.647-.074-1.352-.01-2.1-.037Z" transform="translate(4.164 17.662)"/>
        <path id="Trazado_586656" data-name="Trazado 586656" d="M8.795,39H6.419v7.074H8.455l.34-.34Z" transform="translate(3.024 18.373)" fill="#050502"/>
        <path id="Trazado_586657" data-name="Trazado 586657" d="M3.982,41.44v3.169c.688.671,1.549.2,2.377.39V41.44Z" transform="translate(1.876 19.522)" fill="#090803"/>
        <path id="Trazado_586658" data-name="Trazado 586658" d="M43.981,5.711V3.237H41.008A3.954,3.954,0,0,0,38.24,6.114a3.605,3.605,0,0,0,.883,3.007,4.81,4.81,0,0,0,3.167,1.252l.6.733v.766l-.822.643H39.4v2.442a10.324,10.324,0,0,0,3.358-.231A3.163,3.163,0,0,0,45.1,11.638c0-.456,0-.912,0-1.409a3.988,3.988,0,0,0-3.978-2.38,3.305,3.305,0,0,1-.69-1.1c.224-.315.271-.734.64-1.034Z" transform="translate(17.995 1.525)" fill="#010100"/>
        <path id="Trazado_586659" data-name="Trazado 586659" d="M26.594,18.294a8.2,8.2,0,0,0-5.831,14.052A8.191,8.191,0,1,0,32.3,20.714a7.911,7.911,0,0,0-5.7-2.42" transform="translate(8.622 8.618)" fill="#fee25b"/>
        <path id="Trazado_586660" data-name="Trazado 586660" d="M25.32,26.772V20.014H23.237c.016-.018-.021.012-.044.049a.242.242,0,0,0-.041.119c0,2.182,0,4.362,0,6.59Z" transform="translate(10.905 9.426)"/>
        <path id="Trazado_586661" data-name="Trazado 586661" d="M23.195,28.493H25.31c.078-.691.013-1.395.041-2.145H23.2a10.656,10.656,0,0,0,0,2.145" transform="translate(10.902 12.412)"/>
      </g>
    </g>
  </g>
</svg>
