<svg xmlns="http://www.w3.org/2000/svg" xmlns:xlink="http://www.w3.org/1999/xlink" width="133" height="133" viewBox="0 0 133 133">
  <defs>
    <clipPath id="clip-path">
      <rect id="Rectángulo_39245" data-name="Rectángulo 39245" width="73" height="67" transform="translate(0 0.217)" fill="none"/>
    </clipPath>
  </defs>
  <g id="Grupo_850462" data-name="Grupo 850462" transform="translate(5887 7605)">
    <circle id="Elipse_4779" data-name="Elipse 4779" cx="66.5" cy="66.5" r="66.5" transform="translate(-5887 -7605)" fill="#4acfd9"/>
    <g id="Grupo_850164" data-name="Grupo 850164" transform="translate(-5857 -7572.217)">
      <g id="Grupo_850163" data-name="Grupo 850163" clip-path="url(#clip-path)">
        <path id="Trazado_586705" data-name="Trazado 586705" d="M44.892,10.822V7.864H55.7v2.587c.3.279.553.51.809.746h3.926c.236,1.149.311,11.414.114,15.614-.322.175-.676.054-1.122.089V24.693H56.982v6.658h-3.6V24.7c-.824-.087-1.6-.022-2.437-.05v2.115a1.9,1.9,0,0,1-1.23.075V24.711h-2.44v6.622h-3.6V24.7h-2.44v2.168H40.059V24.7c-.824-.089-1.6-.023-2.481-.052V35.8H27.92V9.689L27.178,9H4.366c-.206.192-.456.423-.707.654V49.244a10.639,10.639,0,0,1-1.726.112l-.688.858V64.892c-.37.224-.729.083-1.165.138-.136.7,0,1.423-.08,2.187H69V65H67.43c.98-.906,1.832-1.688,2.674-2.477a2.477,2.477,0,0,0,.8-1.559l-1.444-1.206c-.124-.614-.179-1.062.348-1.43h2.177l.683-.992V52.223L72,51.6H69.876l-.49-.453V50.3l1.554-1.388c-.268-1.731-2.045-2.381-3.044-3.7V11.253h1.586l.8-.77V.669L69.484,0H56.529c-.329.3-.785.527-.856,1.083H32.349c-.321.3-.57.527-.821.759V7.125l.747.713H42.351v2.9l-4.1,3.794H33.468l-.7.915v4.061c.2.156.5.389.849.658H53.795l.736-.894v-4l-.775-.717H48.932l-4.04-3.739"/>
        <path id="Trazado_586706" data-name="Trazado 586706" d="M28.565,47.43l.8.748v5.343c-.237.2-.495.423-.832.713H25.774V62H39.031V35.209H12.461v11.08h12.4c.413.359.863.584.937,1.142Z" transform="translate(2.147 2.962)" fill="#edbd33"/>
        <path id="Trazado_586707" data-name="Trazado 586707" d="M22.592,30.517c.25.232.5.464.754.7v3.648c.348.248.736.12,1.165.1V10.482c-1.226-.223-13.146-.3-19.277-.107V48.42h5.939v-2.2H7.159l-.732-.678v-5.4c.2-.146.508-.37.914-.667h3.826v-2.2H7.16c-.22-.25-.468-.534-.761-.867v-5.2l.7-.647h5.85l.709.657v3.748c.77.079,1.551.015,2.382.043V31.265l.807-.748h5.745" transform="translate(0.902 0.864)" fill="#396794"/>
        <path id="Trazado_586708" data-name="Trazado 586708" d="M44.977,55.566v1.071l-1.138,1.014c.574.531,1.13,1.045,1.685,1.56.307-.283.7-.646,1.124-1.04.366,0,.845-.132,1.148.026a9.3,9.3,0,0,0,2.5.859c.294.06.517.421.748.622v1.791h2.379V59.687l.882-.429c.7-.343,1.537-.613,2.489-1.07h1.083l.993,1.023,1.714-1.586-.947-.762c-.464-1.461.818-2.385.795-3.606l.832-.726h1.86V50.372h-1.9c-.257-.348-.748-.48-.78-.879-.088-1.11-1.155-1.968-.876-3.273l1.265-.992-1.665-1.541-1.06.99H56.6c-.85-.772-2.338-.46-3.148-1.543v-1.74H51.1v1.7c-.343.3-.535.742-.926.763-1.25.069-2.217,1.114-3.561.833L45.439,43.6l-1.475,1.429,1.088,1.006A10.172,10.172,0,0,1,43.5,50.308H41.4v2.181h1.882l.784.974a6.216,6.216,0,0,0,.907,2.1" transform="translate(7.134 3.483)" fill="#89cbe6"/>
        <path id="Trazado_586709" data-name="Trazado 586709" d="M24.866,54.82H3.164v5.514H5.5V56.671c.308-.286.558-.517.81-.749h5.742c.25.231.5.463.751.7v3.635a113.626,113.626,0,0,0,12.065.107Z" transform="translate(0.545 4.612)" fill="#eddb99"/>
        <path id="Trazado_586710" data-name="Trazado 586710" d="M56.173,10.357H53.794V44.426c.115.105.257.237.4.374h.924l1.05-1Z" transform="translate(9.269 0.871)" fill="#e78504"/>
        <rect id="Rectángulo_39242" data-name="Rectángulo 39242" width="21.75" height="2.148" transform="translate(33.971 3.399)" fill="#e78504"/>
        <path id="Trazado_586711" data-name="Trazado 586711" d="M59.278,8.741V2.106H56.909V5.831L56,6.542H49.682v2.2Z" transform="translate(8.56 0.177)" fill="#396794"/>
        <path id="Trazado_586712" data-name="Trazado 586712" d="M24.948,47.58H3.248c-.254.314-.023.654-.162.954,1.366.212,16.779.282,21.749.1.2-.3.054-.627.114-1.058" transform="translate(0.532 4.003)" fill="#eddb99"/>
        <path id="Trazado_586713" data-name="Trazado 586713" d="M54.7,32.089V31.054H34.236c-.32.275.027.65-.17,1.035Z" transform="translate(5.87 2.613)" fill="#2f4054"/>
        <path id="Trazado_586714" data-name="Trazado 586714" d="M42.062,45.855c-.089-.482-1-.616-.5-1.345H37.252V50h2.354V48.549l.79-.732h1.666a1.448,1.448,0,0,0,0-1.962" transform="translate(6.419 3.745)" fill="#f7f9fa"/>
        <path id="Trazado_586715" data-name="Trazado 586715" d="M37.263,60.381H40.8V54.834c-.528-.011-1.113-.027-1.7-.033s-1.193,0-1.838,0Z" transform="translate(6.421 4.611)" fill="#f7f9fa"/>
        <path id="Trazado_586716" data-name="Trazado 586716" d="M40.8,34.139H37.264v5.55c.525.01,1.11.026,1.694.031s1.195,0,1.841,0Z" transform="translate(6.421 2.872)" fill="#f7f9fa"/>
        <path id="Trazado_586717" data-name="Trazado 586717" d="M49.134,34.117H45.506c-.038,1.833,0,3.67-.02,5.556H49.07c.125-1.818.013-3.687.064-5.556" transform="translate(7.837 2.871)" fill="#f7f9fa"/>
        <rect id="Rectángulo_39243" data-name="Rectángulo 39243" width="16.9" height="1.023" transform="translate(35.184 16.855)" fill="#395166"/>
        <path id="Trazado_586718" data-name="Trazado 586718" d="M54.41,2.078H49.666V4.264c.721.087,1.515.018,2.3.033s1.6,0,2.445,0Z" transform="translate(8.558 0.175)" fill="#89cbe6"/>
        <path id="Trazado_586719" data-name="Trazado 586719" d="M7.3,52.883h3.531V50.7c-.523-.01-1.107-.025-1.689-.03s-1.195,0-1.842,0Z" transform="translate(1.257 4.263)" fill="#89cbe6"/>
        <path id="Trazado_586720" data-name="Trazado 586720" d="M43.788,42.43l1.067-.987a30.6,30.6,0,0,0-3.709-.081c-1.252-.022-2.505-.005-3.778-.005-.261.318-.122.678-.108,1.073Z" transform="translate(6.411 3.479)" fill="#2f4054"/>
        <path id="Trazado_586721" data-name="Trazado 586721" d="M42.433,39.7H43.54V34.219c-.28-.278-.689.012-1.107-.156Z" transform="translate(7.311 2.866)" fill="#395166"/>
        <path id="Trazado_586722" data-name="Trazado 586722" d="M50.7,39.7h1.109V34.219c-.285-.274-.692.01-1.109-.154Z" transform="translate(8.736 2.866)" fill="#395166"/>
        <path id="Trazado_586723" data-name="Trazado 586723" d="M9.617,57.924H7.3v2.19c.714.072,1.492.009,2.32.036Z" transform="translate(1.257 4.874)" fill="#89cbe6"/>
        <path id="Trazado_586724" data-name="Trazado 586724" d="M8.33,41.507h2.322V39.318c-.716-.072-1.5-.009-2.322-.037Z" transform="translate(1.435 3.305)" fill="#89cbe6"/>
        <path id="Trazado_586725" data-name="Trazado 586725" d="M10.664,31.014H8.326c-.086.707-.014,1.427-.046,2.193h2.381a10.005,10.005,0,0,0,0-2.193" transform="translate(1.427 2.609)" fill="#89cbe6"/>
        <path id="Trazado_586726" data-name="Trazado 586726" d="M16.575,31.057v2.149h2.366c.076-.662.009-1.383.039-2.149Z" transform="translate(2.856 2.613)" fill="#89cbe6"/>
        <path id="Trazado_586727" data-name="Trazado 586727" d="M17.9,50.663H15.587c-.15.706,0,1.429-.089,2.194h2.4a10.016,10.016,0,0,0,0-2.194" transform="translate(2.67 4.263)" fill="#89cbe6"/>
        <path id="Trazado_586728" data-name="Trazado 586728" d="M19.676,50.706v2.149h2.366c.076-.662.009-1.383.039-2.149Z" transform="translate(3.39 4.266)" fill="#89cbe6"/>
        <path id="Trazado_586729" data-name="Trazado 586729" d="M5.486,50.686H3.162v2.173c.716.117,1.5,0,2.324.067Z" transform="translate(0.545 4.265)" fill="#89cbe6"/>
        <path id="Trazado_586730" data-name="Trazado 586730" d="M37.586,11.849l-1.823,1.687c1.076.077,2.241,0,3.429.043-.14-.192.059.05.076-.137,0-.03-.038-.07-.068-.1-.53-.493-1.064-.985-1.614-1.5" transform="translate(6.162 0.997)" fill="#edeff0"/>
        <path id="Trazado_586731" data-name="Trazado 586731" d="M35.274,26.9H34.166v2.122c.293.2.68.078,1.108.062Z" transform="translate(5.887 2.263)" fill="#395166"/>
        <path id="Trazado_586732" data-name="Trazado 586732" d="M42.431,29.1h1.114V26.973c-.3-.194-.687-.082-1.114-.055Z" transform="translate(7.311 2.26)" fill="#395166"/>
        <path id="Trazado_586733" data-name="Trazado 586733" d="M23.79,50.812h1.157V48.675c-.118-.172-.389-.056-.619-.077-.325-.028-.581-.015-.55.416.042.555.012,1.112.012,1.8" transform="translate(4.097 4.087)" fill="#e78504"/>
        <path id="Trazado_586734" data-name="Trazado 586734" d="M37.244,51.74v1.03h2.294c.21-.278.089-.634.061-1.03Z" transform="translate(6.417 4.353)" fill="#2f4054"/>
        <path id="Trazado_586735" data-name="Trazado 586735" d="M12.441,50.588v2.224c.343.191.7.062,1.149.114.083-.722.016-1.442.042-2.13-.369-.237-.73-.042-1.191-.207" transform="translate(2.144 4.256)" fill="#89cbe6"/>
        <path id="Trazado_586736" data-name="Trazado 586736" d="M51.822,26.878H50.694c-.082.707-.014,1.427-.041,2.115.365.242.727.041,1.155.2a10.56,10.56,0,0,0,.014-2.315" transform="translate(8.728 2.261)" fill="#395166"/>
        <path id="Trazado_586737" data-name="Trazado 586737" d="M46.489,42.192h.836c.288-.159.579-.32.531-.771H45.769c.143.31.467.485.72.771" transform="translate(7.886 3.485)" fill="#2b3a4c"/>
        <path id="Trazado_586738" data-name="Trazado 586738" d="M41.355,45.751v1.962c.4.094.638-.124.884-.4V46.47a2.186,2.186,0,0,0-.884-.719" transform="translate(7.126 3.849)" fill="#34495d"/>
        <path id="Trazado_586739" data-name="Trazado 586739" d="M54.214,59.195c-.162.206-.508.3-.46.637.057.069.111.193.169.2.63.013,1.259.009,1.933.009l-1.079-.841Z" transform="translate(9.261 4.981)" fill="#cd7603"/>
        <path id="Trazado_586740" data-name="Trazado 586740" d="M47.821,59.993c.072-.5-.274-.592-.436-.8H46.7l-.81.8Z" transform="translate(7.907 4.981)" fill="#e1e3e4"/>
        <path id="Trazado_586741" data-name="Trazado 586741" d="M43.828,60.024l-1.377-1.273a4.223,4.223,0,0,0-.06,1.273Z" transform="translate(7.301 4.943)" fill="#2f3f53"/>
        <path id="Trazado_586742" data-name="Trazado 586742" d="M35.141,47.185l-.712-.653H28.649c-.186.218-.4.474-.7.829v5.216c.238.222.453.42.7.647h5.852c.094-.164.257-.456.422-.749.074.054.149.11.225.164Z" transform="translate(4.815 3.915)"/>
        <path id="Trazado_586743" data-name="Trazado 586743" d="M19.764,37.22H14.208l-.75.7v5.352l.893.661h5.654c.135-.2.322-.479.685-1.018V37.883l-.926-.663" transform="translate(2.319 3.132)"/>
        <path id="Trazado_586744" data-name="Trazado 586744" d="M27.9,37.867l-.729-.639H21.408l-.7.9V43.3l.935.61h5.59l.669-.619Z" transform="translate(3.568 3.132)"/>
        <path id="Trazado_586745" data-name="Trazado 586745" d="M28.874,43.945H34.43l.75-.7V37.9l-.822-.662H28.633c-.135.2-.322.479-.685,1.018v5.028l.926.663" transform="translate(4.816 3.133)"/>
        <path id="Trazado_586746" data-name="Trazado 586746" d="M13.485,13.088l-.823-.678H6.937l-.7.8v5.25l.83.658h5.655l.758-.693Z" transform="translate(1.075 1.044)"/>
        <path id="Trazado_586747" data-name="Trazado 586747" d="M14.487,21.489v5.236l.851.451c-.055.064-.11.127-.166.19h5.837l.747-.66V21.366l-.771-.686H15.213c-.182.2-.406.452-.726.809" transform="translate(2.496 1.74)"/>
        <path id="Trazado_586748" data-name="Trazado 586748" d="M12.729,20.673H6.961l-.73.737v5.324l.873.641h5.665l.712-.785V21.369l-.751-.7" transform="translate(1.074 1.739)"/>
        <path id="Trazado_586749" data-name="Trazado 586749" d="M15.44,19.125H21l.75-.7V13.076l-.893-.661H15.2c-.135.2-.322.479-.685,1.018v5.028l.926.663" transform="translate(2.501 1.045)"/>
        <path id="Trazado_586750" data-name="Trazado 586750" d="M54.244,48.9c.254,1.3.766,2.386.124,3.5l-1.832,1.565h-.462c-.154-.093-.159-.23-.149-.4l-2-.953c-.359.687-.7,1.435-1.131,2.132a1.034,1.034,0,0,0,0,1.252c.417.671.735,1.4,1.11,2.127l1.975-.9c.124-.279-.093-.735.424-.92a5.2,5.2,0,0,0,4.151-2.9,5.577,5.577,0,0,0-.132-5.4c-.723.279-1.1,1-2.074.9" transform="translate(8.37 4.039)" fill="#010101"/>
        <path id="Trazado_586751" data-name="Trazado 586751" d="M48.251,49.652l1.606-1.486c.284.049.734-.274.783.3.033.384.461.233.68.4a6.548,6.548,0,0,0,1.34.618c.349-.688.668-1.41,1.074-2.089a1.106,1.106,0,0,0-.027-1.354,18.031,18.031,0,0,1-1.043-2.067l-2.006.925c-.124.115.036.362-.043.67-.735.528-1.8.493-2.637,1.114A6.978,6.978,0,0,0,46.1,48.8a4.957,4.957,0,0,0-.624,2.564,10.19,10.19,0,0,0,.674,2.64c.583.1.687-.477,1.043-.515s.529-.429.91-.344c.434-.649-.193-1.193-.227-1.8s.365-1.11.37-1.692" transform="translate(7.837 3.7)" fill="#010101"/>
        <path id="Trazado_586752" data-name="Trazado 586752" d="M30.01,48.64v2.144h2.345c.137-.656-.007-1.38.079-2.144Z" transform="translate(5.171 4.092)" fill="#e78504"/>
        <path id="Trazado_586753" data-name="Trazado 586753" d="M17.884,39.309H15.565V41.5c.713.073,1.491.009,2.319.037Z" transform="translate(2.682 3.307)" fill="#e78504"/>
        <path id="Trazado_586754" data-name="Trazado 586754" d="M25.117,39.31H22.8v2.169c.709.128,1.491-.007,2.318.073Z" transform="translate(3.928 3.307)" fill="#e78504"/>
        <path id="Trazado_586755" data-name="Trazado 586755" d="M32.352,39.309h-2.32V41.5c.714.072,1.492.009,2.32.036Z" transform="translate(5.175 3.307)" fill="#e78504"/>
        <path id="Trazado_586756" data-name="Trazado 586756" d="M8.329,16.688h2.324V14.515c-.716-.117-1.5,0-2.324-.067Z" transform="translate(1.435 1.216)" fill="#89cbe6"/>
        <rect id="Rectángulo_39244" data-name="Rectángulo 39244" width="2.325" height="2.148" transform="translate(19.456 24.724)" fill="#89cbe6"/>
        <path id="Trazado_586757" data-name="Trazado 586757" d="M10.686,24.933V22.785H8.32c-.077.661-.009,1.382-.04,2.148Z" transform="translate(1.427 1.917)" fill="#89cbe6"/>
        <path id="Trazado_586758" data-name="Trazado 586758" d="M16.575,14.511v2.147h2.366c.077-.66.009-1.38.039-2.147Z" transform="translate(2.856 1.221)" fill="#89cbe6"/>
      </g>
    </g>
  </g>
</svg>
