<svg xmlns="http://www.w3.org/2000/svg" xmlns:xlink="http://www.w3.org/1999/xlink" width="133" height="133" viewBox="0 0 133 133">
  <defs>
    <clipPath id="clip-path">
      <rect id="Rectángulo_39248" data-name="Rectángulo 39248" width="72" height="72" transform="translate(0 0)" fill="none"/>
    </clipPath>
  </defs>
  <g id="Grupo_850463" data-name="Grupo 850463" transform="translate(5541 7605)">
    <circle id="Elipse_4780" data-name="Elipse 4780" cx="66.5" cy="66.5" r="66.5" transform="translate(-5541 -7605)" fill="#4acfd9"/>
    <g id="Grupo_850166" data-name="Grupo 850166" transform="translate(-5510 -7574)">
      <g id="Grupo_850165" data-name="Grupo 850165" transform="translate(0 0)" clip-path="url(#clip-path)">
        <path id="Trazado_586759" data-name="Trazado 586759" d="M8,53.948l-.794.795A5.991,5.991,0,0,0,8.416,58.88a5.365,5.365,0,0,0,3.157,2.063,10.369,10.369,0,0,0,2.435.254q7.039.007,14.073,0c.1.562.53.835.855,1.186a6.324,6.324,0,0,0,3.654-.847q.953.955,1.909,1.909a7.2,7.2,0,0,0-.9,3.528,2.929,2.929,0,0,0,1.194.985c.818.454,1.6.975,2.39,1.474a2.288,2.288,0,0,0,1.908.4c.78-.779,1.589-1.588,2.214-2.214,1-.382,1.6.422,2.339.154a7.159,7.159,0,0,1,.738,2.432A1.877,1.877,0,0,0,46.524,72c1.247.008,2.494,0,3.437,0a2.057,2.057,0,0,0,1.676-1.982,5.285,5.285,0,0,1,.711-2.219c.7.261,1.335-.534,2.139-.261l2.333,2.333a2.937,2.937,0,0,0,2.155-.544,25.376,25.376,0,0,0,3.386-2.205c.274-1.394-.465-2.506-.756-3.776l1.8-1.8c1.176.418,2.268,1.037,3.622.824a2.845,2.845,0,0,0,.933-1.162c.455-.817.972-1.6,1.476-2.39a2.282,2.282,0,0,0,.412-1.9c-.785-.786-1.595-1.594-2.172-2.171-.45-1.057.4-1.654.092-2.382a6.834,6.834,0,0,1,2.445-.749c1.275-.28,1.779-.8,1.789-2.138.008-1.248,0-2.5,0-3.48a2.081,2.081,0,0,0-1.978-1.639,5.587,5.587,0,0,1-2.226-.7c.229-.707-.52-1.347-.261-2.151l2.33-2.33a2.891,2.891,0,0,0-.538-2.156,25.367,25.367,0,0,0-2.214-3.386c-1.345-.28-2.429.424-3.535.692-.627-.626-1.275-1.274-1.955-1.955a6.507,6.507,0,0,0,.744-3.423c-.547-.785-1.547-1.113-2.367-1.762V6.1A5.865,5.865,0,0,0,56.619.61a6.106,6.106,0,0,0-2.6-.6q-9.672.005-19.343,0Q20.5.008,6.334,0A6.292,6.292,0,0,0,2.341,1.219,5.513,5.513,0,0,0,.264,4.359,10.434,10.434,0,0,0,0,6.943Q0,22.012.008,37.081a5.864,5.864,0,0,0,3.207,5.493,5.386,5.386,0,0,0,2.733.634c3.749-.013,7.5-.006,11.247-.006h1.49c-1.332,3.653-2.623,7.194-3.919,10.746Z" transform="translate(0 0)" fill="#171526"/>
        <path id="Trazado_586760" data-name="Trazado 586760" d="M25.783,41.618a36.6,36.6,0,0,0-3.557,1.011v2.384a31.162,31.162,0,0,0,3.511,1.011,47.352,47.352,0,0,1,1.313,5.093c-.821.727-1.417,1.65-2.449,2.009-.151,1.2.875,1.721,1.137,2.577a4.81,4.81,0,0,0,1.848-.533,6.954,6.954,0,0,1,1.933-.252l3.123,3.121a3.626,3.626,0,0,1-.282,2.253,2.685,2.685,0,0,0-.25,1.7c.721.234,1.184,1.072,2.226,1.026A11.37,11.37,0,0,1,36.466,60.6c1.7.071,3.323.9,5.045,1.2.533,1.175.536,2.489,1.07,3.61H44.7c.988-.21.239-1.217.833-1.593-.1-.643.365-1.179.342-1.887a14.61,14.61,0,0,1,2.652-.724c.865-.2,1.654-.74,2.631-.549a10.422,10.422,0,0,1,2.033,2.376c1.121-.006,1.707-.885,2.521-1.246-.392-1.249-1.019-2.388-.816-3.732l3.084-3.083c1.325-.292,2.442.428,3.717.79a6.209,6.209,0,0,0,1.326-2.463,11.784,11.784,0,0,1-2.474-2.143c.074-1.719.9-3.343,1.214-5.151.656-.057,1.228-.486,1.927-.376.374-.647,1.357.108,1.67-.936v-2c-.988-.662-2.284-.537-3.539-1.1a15.3,15.3,0,0,1-.666-2.519c-.2-.866-.739-1.653-.55-2.631a10.486,10.486,0,0,1,2.379-2.032c-.008-1.121-.885-1.708-1.244-2.512-1.258.366-2.385,1.043-3.764.778l-3.032-3.032a3.305,3.305,0,0,1,.277-2.374,4.433,4.433,0,0,0,.261-1.594c-.758-.2-1.164-1.1-2.24-1.04-.821.575-1.145,1.789-2.3,2.438A49.5,49.5,0,0,1,45.965,25.8c-.32-1.21-.628-2.378-.934-3.537H42.557c-.457,1.086-.531,2.324-1.034,3.577l-4.94,1.3a9.752,9.752,0,0,1-2.2-2.5c-.968-.152-1.444.716-2.23.938a2.287,2.287,0,0,0,.213,1.78,3.61,3.61,0,0,1,.307,2.027c-1.1,1.1-2.153,2.152-3.339,3.34a6.788,6.788,0,0,1-3.469-.879,8.359,8.359,0,0,0-1.389,2.494,11.335,11.335,0,0,1,2.536,2.164c-.115,1.738-.91,3.371-1.227,5.11" transform="translate(4.226 4.177)" fill="#f72f45"/>
        <path id="Trazado_586761" data-name="Trazado 586761" d="M20.059,13.229v1.195c-1.973.011-3.95,0-5.928,0s-3.98,0-6.021,0V28.673c1.266.242,16.156.324,24.127.125.54-.447-.368-.6-.206-1.033a3.627,3.627,0,0,0,.026-1.189c.351-.327.755-.591,1.12-.881.676-.537,1.467-.849,2.161-1.342a2.593,2.593,0,0,1,2.318-.576l2.289,2.289c.8.316,1.442-.488,2.177-.219a6.583,6.583,0,0,0,.7-2.344,2.074,2.074,0,0,1,1.63-1.874c.846,0,1.989,0,3.13,0,1.479,0,1.6.063,2.473,1.2a3.318,3.318,0,0,0,0-3.6H48.876c-.04-2-.01-4-.019-6a2.9,2.9,0,0,0-2.841-.2c-.556.444-.023,1.042-.358,1.872a28.665,28.665,0,0,1-4.177,4.153c-1.064-.538-.733-1.087-.218-1.664.425-.477.971-.882,1.028-1.615-.37-.62-1.009-.561-1.586-.564-4.34-.027-8.681-.056-13.02,0a4.159,4.159,0,0,0-4.442,4.4c-.061,1.645.01,3.292-.03,4.938-.017.7-.013,1.489-1.1,1.272-.449-.333-.413-.8-.417-1.243-.014-1.745-.049-3.492.01-5.236A5.646,5.646,0,0,1,25.055,14.1c.358-.176,1.44-.1.783-1.1-1.942-.3-3.886-.634-5.779.232" transform="translate(1.542 2.378)" fill="#d4dada"/>
        <path id="Trazado_586762" data-name="Trazado 586762" d="M51.218,21.23v3.6a8.742,8.742,0,0,0,.681,3c.733-.179,1.386.436,2.349.258L56.6,25.733l.5-.023a1,1,0,0,0,.108-.289c0-6.547-.02-13.1.021-19.644.01-1.564-.939-2.469-1.929-3.407-.508.11-.863-.384-1.359-.343-.3.025-.6,0-.9,0q-22.493,0-44.989.007a9.854,9.854,0,0,0-4.2.4L2.445,3.894a8.243,8.243,0,0,0-.42,3.767q-.009,10.8,0,21.593V30.78H6.751V5.213l.938-.758H51.716l.672.9V21.145c-.383.189-.787.03-1.17.084" transform="translate(0.381 0.376)" fill="#ecfbfb"/>
        <path id="Trazado_586763" data-name="Trazado 586763" d="M20.058,14.482h6a2.138,2.138,0,0,0,1.689.425q6.362.018,12.726,0a2.228,2.228,0,0,0,1.769-.46c.161-1.368-2.053-1.819-1.367-3.507,1.465.365,2.023,1.534,2.932,2.251.637.5,1.022,1.41,2.051,1.292h3V6.24c-1.4-.249-33.547-.344-40.741-.119v7.112c1.911.107,3.887.033,5.861.046,1.992.013,3.985,0,5.983,0,.2.413.044.816.1,1.2" transform="translate(1.543 1.124)" fill="#fca12e"/>
        <path id="Trazado_586764" data-name="Trazado 586764" d="M2.393,33.6,3.758,34.97a7.079,7.079,0,0,0,3.61.511q9.129.007,18.26,0h1.508c-.145-.2.077.056.074-.144,0-.036-.056-.072-.089-.106l-1.376-1.376a2.986,2.986,0,0,1,.551-2.152,32.992,32.992,0,0,1,2.155-3.357H2c.14,1.722-.253,3.48.394,5.257" transform="translate(0.38 5.319)" fill="#4bbde4"/>
        <path id="Trazado_586765" data-name="Trazado 586765" d="M25.407,36.414H18.522c-1.415,3.407-2.541,7.023-3.93,10.542a77.856,77.856,0,0,0,11.188.091c-.208-.487-.518-.95-.321-1.467a4.146,4.146,0,0,0-2.241-.764,2.085,2.085,0,0,1-1.991-1.783c0-.878-.013-2.17,0-3.462.015-1.221.527-1.764,1.749-2.011.774-.157,1.534-.384,2.295-.6.149-.043.168-.224.133-.548" transform="translate(2.774 6.832)" fill="#3c7daf"/>
        <path id="Trazado_586766" data-name="Trazado 586766" d="M8.063,47.629,9.924,49.5a10.7,10.7,0,0,0,4.3.386c3.191.025,6.381.011,9.571,0a1.966,1.966,0,0,0,1.1-.129,2.09,2.09,0,0,1-.075-2.19c-2-.127-15.038-.1-16.764.064" transform="translate(1.533 8.91)" fill="#4bbde4"/>
        <path id="Trazado_586767" data-name="Trazado 586767" d="M25.5,28.339a16.3,16.3,0,0,1,2.485.868l.827-.868Z" transform="translate(4.847 5.317)" fill="#43a5c9"/>
        <path id="Trazado_586768" data-name="Trazado 586768" d="M51.491,42.4a9.688,9.688,0,0,0-9.9-10.094A10.4,10.4,0,0,0,35.1,35.092a9.642,9.642,0,0,0-2.847,7.2,9.607,9.607,0,0,0,16.368,6.477A8.862,8.862,0,0,0,51.491,42.4" transform="translate(6.131 6.062)" fill="#d12435"/>
        <path id="Trazado_586769" data-name="Trazado 586769" d="M38.354,31c.645.1,1.147-.558,1.87-.221V28.429c-.869-.564-1.67.422-2.781.077.464.939.376,1.811.912,2.5" transform="translate(7.118 5.301)" fill="#1e1627"/>
        <path id="Trazado_586770" data-name="Trazado 586770" d="M40.861,50.458v2.406c.922.448,1.686-.422,2.649-.138-.458-.835-.1-1.765-.73-2.445-.627-.153-1.138.556-1.92.177" transform="translate(7.768 9.43)" fill="#1d1627"/>
        <path id="Trazado_586771" data-name="Trazado 586771" d="M46.178,51.534a13.469,13.469,0,0,0,2.283-1.353c-.676-.455-.74-1.359-1.509-1.685-.8-.027-1.158.745-1.8.956.345.7.666,1.346,1.031,2.082" transform="translate(8.583 9.099)" fill="#1f1627"/>
        <path id="Trazado_586772" data-name="Trazado 586772" d="M29.742,46.153l1.993-.989c.08-.42-.236-.745-.432-.993-.25-.317.011-.7-.355-1-.646.387-1.552.1-2.255.787.44.7.367,1.632,1.048,2.2" transform="translate(5.455 8.1)" fill="#1e1627"/>
        <path id="Trazado_586773" data-name="Trazado 586773" d="M49.906,38.313c1.027-.487,1.9-.361,2.6-1-.514-.673-.415-1.581-1.108-2.163l-2,1.023c.144.682.793,1.129.509,2.137" transform="translate(9.391 6.596)" fill="#1e1627"/>
        <path id="Trazado_586774" data-name="Trazado 586774" d="M32.538,34.8c-.412-.758-1.22-.888-1.659-1.422-.826.454-.864,1.416-1.517,2.124l2.153,1.1a7.649,7.649,0,0,0,1.023-1.8" transform="translate(5.582 6.263)" fill="#1e1627"/>
        <path id="Trazado_586775" data-name="Trazado 586775" d="M32.694,31.1c.686.5.776,1.35,1.54,1.727.751.106,1.07-.773,1.863-.9-.381-.762-.716-1.433-1.075-2.152A22.661,22.661,0,0,0,32.694,31.1" transform="translate(6.216 5.586)" fill="#1e1627"/>
        <path id="Trazado_586776" data-name="Trazado 586776" d="M35.588,51.774c.575.635,1.494.5,2.234.954.666-.533.368-1.452.768-2.088-.587-.524-1.323-.537-1.98-.914-.33.66-.655,1.312-1.021,2.049" transform="translate(6.766 9.33)" fill="#1e1627"/>
        <path id="Trazado_586777" data-name="Trazado 586777" d="M50.354,47.923c.7-.454.9-1.316,1.365-2.15a14.434,14.434,0,0,0-2.243-.9c-.307.6-.559,1.084-.866,1.678a4.088,4.088,0,0,0,1.745,1.376" transform="translate(9.242 8.419)" fill="#1e1627"/>
        <path id="Trazado_586778" data-name="Trazado 586778" d="M50.167,42.377a2.413,2.413,0,0,0,2.66.107V40.472h-2.3c-.213.539.1,1.148-.171,1.688a1.23,1.23,0,0,1-.187.217" transform="translate(9.538 7.594)" fill="#1b1526"/>
        <path id="Trazado_586779" data-name="Trazado 586779" d="M33.1,50.254c.735-.362.83-1.22,1.446-1.666-.471-.438-.939-.873-1.453-1.349A3.411,3.411,0,0,0,31.347,48.5L33.1,50.254" transform="translate(5.96 8.864)" fill="#1c1527"/>
        <path id="Trazado_586780" data-name="Trazado 586780" d="M30.977,38.767c-.935-.043-1.792-.89-2.717.025v1.945h2.3c.213-.54-.1-1.15.171-1.689a1.945,1.945,0,0,1,.243-.281" transform="translate(5.373 7.199)" fill="#1b1526"/>
        <path id="Trazado_586781" data-name="Trazado 586781" d="M45.267,29.246l-2-.629c-.628.481-.3,1.406-.708,2.024.521.639,1.32.5,1.983.966.281-.783.969-1.374.725-2.36" transform="translate(8.091 5.369)" fill="#1d1627"/>
        <path id="Trazado_586782" data-name="Trazado 586782" d="M48.139,34.163c.537-.621,1.367-.768,1.7-1.349l-1.73-1.73c-.774.208-.83,1.183-1.476,1.631l1.509,1.449" transform="translate(8.865 5.832)" fill="#1b1526"/>
        <path id="Trazado_586783" data-name="Trazado 586783" d="M43.758,13.806a35.328,35.328,0,0,1-3.216-3.07c-.4-.369-.772-.767-1.126-1.121-.933-.141-1.14.7-1.774,1.1.443,1.346,1.748,1.9,2.437,2.92-.15.037.127-.065.006.094a.185.185,0,0,1-.115.076q-8.007.005-16.011,0c-.035.086-.06.239-.107.246a5.353,5.353,0,0,0-4.228,3.369,4.141,4.141,0,0,0-.444,1.752c-.046,2.584-.02,5.17-.02,7.792h2.4v-3.53c0-.748-.007-1.5,0-2.245a6.543,6.543,0,0,1,.375-3.037l1.45-1.506a7.936,7.936,0,0,1,3.639-.439c4.338-.008,8.675,0,13.237,0-.876.976-1.736,1.735-2.552,2.633.3.678.976,1.042,1.389,1.567a2.1,2.1,0,0,0,.225,0,.236.236,0,0,0,.129-.046c1.626-1.621,3.249-3.245,4.889-4.885v-.906c-.118-.276-.534-.38-.583-.76" transform="translate(3.641 1.801)" fill="#171526"/>
        <rect id="Rectángulo_39246" data-name="Rectángulo 39246" width="2.298" height="2.303" transform="translate(12.077 9.656)" fill="#171526"/>
        <rect id="Rectángulo_39247" data-name="Rectángulo 39247" width="2.303" height="2.298" transform="translate(16.85 9.633)" fill="#171526"/>
        <path id="Trazado_586784" data-name="Trazado 586784" d="M20.506,8.089H18.189c-.083.757-.013,1.526-.044,2.347H20.5a11.618,11.618,0,0,0,0-2.347" transform="translate(3.45 1.517)" fill="#171526"/>
        <path id="Trazado_586785" data-name="Trazado 586785" d="M50.075,41.15a8.357,8.357,0,0,0-2.5-5.386,8.422,8.422,0,0,0-11.9.109,8.065,8.065,0,0,0-2.386,6.057,7.974,7.974,0,0,0,2.658,5.943,8.274,8.274,0,0,0,5.957,2.26c4.553-.1,8.14-3.723,8.179-8.983" transform="translate(6.327 6.258)" fill="#171526"/>
        <path id="Trazado_586786" data-name="Trazado 586786" d="M47.287,41.285a6,6,0,1,0-5.958,6.068,5.893,5.893,0,0,0,5.958-6.068" transform="translate(6.711 6.637)" fill="#f7f9fa"/>
      </g>
    </g>
  </g>
</svg>
