<svg xmlns="http://www.w3.org/2000/svg" xmlns:xlink="http://www.w3.org/1999/xlink" width="133" height="133" viewBox="0 0 133 133">
  <defs>
    <clipPath id="clip-path">
      <rect id="Rectángulo_39241" data-name="Rectángulo 39241" width="72" height="72" transform="translate(0 0)" fill="none"/>
    </clipPath>
  </defs>
  <g id="Grupo_850461" data-name="Grupo 850461" transform="translate(6233 7605)">
    <circle id="Elipse_4778" data-name="Elipse 4778" cx="66.5" cy="66.5" r="66.5" transform="translate(-6233 -7605)" fill="#4acfd9"/>
    <g id="Grupo_850162" data-name="Grupo 850162" transform="translate(-6202 -7574)">
      <g id="Grupo_850161" data-name="Grupo 850161" transform="translate(0 0)" clip-path="url(#clip-path)">
        <path id="Trazado_586689" data-name="Trazado 586689" d="M33.531,12.466c-.607,0-1.217-.028-1.824,0A18.911,18.911,0,0,0,25.229,14.1a20.37,20.37,0,0,0-3.895,2.08,15.019,15.019,0,0,0-4.189,4.106c-.306.493-.787.838-1.114,1.358A24.064,24.064,0,0,0,13.5,26.779c-.336.991-.469,2.05-.76,3.059a17.185,17.185,0,0,0-.268,4.521,17.779,17.779,0,0,0,1.258,6.5,24.471,24.471,0,0,0,3.72,6.338,19.907,19.907,0,0,0,4.311,3.872,8.394,8.394,0,0,0,3.691,1.889c1.2.892,2.756.772,4.048,1.406.972-.2,1.855.382,2.83.3s1.99.128,2.938-.05a38.016,38.016,0,0,0,4.886-1.047,23.4,23.4,0,0,0,5.571-2.823,14.2,14.2,0,0,0,2.59-2.142,25.6,25.6,0,0,0,3.224-4.109,23.919,23.919,0,0,0,2.352-5.352c.237-.753.276-1.6.468-2.347a17.5,17.5,0,0,0,.209-3.972A17.935,17.935,0,0,0,53.289,26.2a21.79,21.79,0,0,0-3.264-5.818A22.169,22.169,0,0,0,45.7,16.3a20.7,20.7,0,0,0-6.4-3.193,13.731,13.731,0,0,0-5.769-.644" transform="translate(2.439 2.438)"/>
        <path id="Trazado_586690" data-name="Trazado 586690" d="M37.37,6.749c-.128.77.613.778.983,1.1a25.021,25.021,0,0,1,10.613,2.98l-.914,1.783v1.86l1.357,1.281c.917,0,1.953-.071,2.973.025.672.063,1.195-.361,1.852-.333.61.026,1.295.266,1.85-.253.025-.023.091-.007.138,0a19.661,19.661,0,0,0,4.171-.377,3.363,3.363,0,0,0,1.7-1.908,3.659,3.659,0,0,0-.567-2.25c-.9-1.971-1.728-3.97-2.676-5.919-.276-.568-.447-1.233-.755-1.789A6.347,6.347,0,0,0,56.914,1.72c-.414.084-.726-.249-1.113-.314-.421-.069-.69.5-1.141.278a9.2,9.2,0,0,0-1.9,2.531,34.495,34.495,0,0,0-6.317-2.629,10.6,10.6,0,0,1-1.511-.409A6.867,6.867,0,0,0,43.4.795C42.077.547,40.733.454,39.425.22,37.389-.142,35.374.145,33.357,0a5.894,5.894,0,0,1-2.126.3,17.767,17.767,0,0,0-1.978.309c-.765.209-1.564.224-2.31.505-.729.275-1.485.479-2.224.731s-1.458.552-2.2.786a31.4,31.4,0,0,0-3.068,1.4,28.823,28.823,0,0,0-4.36,2.687,20.538,20.538,0,0,0-3.249,2.671,49.156,49.156,0,0,0-4.455,4.762,31.642,31.642,0,0,0-2.008,2.962A36.3,36.3,0,0,0,3.3,21.033a37.287,37.287,0,0,0-1.923,5.4A26.748,26.748,0,0,1,.653,29.07c-.23.616.1,1.363-.343,1.966.179,1.247-.389,2.427-.3,3.68s.033,2.529.013,3.794c-.008.549.424.981.306,1.574a2.828,2.828,0,0,0,.233,1.577c.187.479-.146,1.1.31,1.559.071,1.923.92,3.649,1.45,5.448A6.822,6.822,0,0,0,3.386,50.9a5.47,5.47,0,0,0,2.125,1.447c1.34.644,2.316-.178,3.322-.646a2.676,2.676,0,0,0,1.287-2.225,16.829,16.829,0,0,0,.017-2.035A14.516,14.516,0,0,1,9.014,44.6c-.557-1.293-.643-2.717-1.122-4.032a.547.547,0,0,1,0-.14,31.175,31.175,0,0,1-.246-6.344c.3-2.13.346-4.335,1.317-6.331.079-1.58,1.226-2.787,1.488-4.3,1.241-1.666,2.094-3.574,3.433-5.2a31.3,31.3,0,0,1,3.539-3.7,30.252,30.252,0,0,1,6.989-4.442c1.416-.675,2.955-.986,4.379-1.631.468-.213,1.1.111,1.548-.326,1.093.025,2.134-.543,3.19-.237.387-.42,1.174-.39,1.034-1.169-.012-1.172-.512-1.583-1.876-1.427A31.64,31.64,0,0,0,25.069,7.16a32.637,32.637,0,0,0-10.2,6.315c-.471.437-.917.9-1.429,1.295C9.242,19.67,6.3,25.186,5.473,31.66A30.975,30.975,0,0,0,7.148,46.852a6.516,6.516,0,0,1,.476,1.465A1.246,1.246,0,0,1,6.95,49.73a1.233,1.233,0,0,1-1.592-.5,3.294,3.294,0,0,1-.462-.863,30.034,30.034,0,0,1-2.424-12.32C2.908,23.463,8.333,13.618,19.2,7a28.74,28.74,0,0,1,9.211-3.629,32.593,32.593,0,0,1,21.2,2.081c.086.037.167.085.252.124,2.678,1.23,3.25,2.221,6.009-1.2A75.369,75.369,0,0,1,59.392,12.3a79.828,79.828,0,0,1-8.5.983c-.207-.653.222-1.047.377-1.5a2.186,2.186,0,0,0-.888-2.94A25.714,25.714,0,0,0,38.825,5.313c-.836-.066-1.735.184-1.455,1.436" transform="translate(0 0)"/>
        <path id="Trazado_586691" data-name="Trazado 586691" d="M63.271,34.215c-.57.075-.485.712-.891,1.02.324,1.119-.17,2.218-.271,3.347a12.53,12.53,0,0,1-.819,3.163,31.6,31.6,0,0,1-3.6,7.223,29.321,29.321,0,0,1-5.007,5.485A26.234,26.234,0,0,1,48.113,57.6a53.518,53.518,0,0,1-5.234,2.288c-.542.223-1.106.254-1.644.421a13.775,13.775,0,0,1-1.68.4,15.04,15.04,0,0,0-1.986.258,6.53,6.53,0,0,1-2,.241c-.7.011-1.406.042-2.1-.01a5.1,5.1,0,0,1-2.15-.227c-.562-.278-1.358.15-1.968-.323a12.52,12.52,0,0,1-3.472-.764,19.69,19.69,0,0,1-3.823-1.61,1.839,1.839,0,0,1-.666-.326,4.58,4.58,0,0,0,.849-3.485c-.42-.42-.845-.843-1.413-1.409-.826,0-1.9.049-2.965-.019-.659-.042-1.184.382-1.852.332-.556-.043-1.208-.3-1.716.233-.045.048-.181.029-.27.014-1.34-.219-2.622.359-3.853.293a3.3,3.3,0,0,0-1.908,2.014,2.327,2.327,0,0,0,.534,2.036,46.4,46.4,0,0,0,2.778,6.156,4.857,4.857,0,0,0,1.913,3.014c.163,0,.4-.077.524.012.821.608,1.415,0,2.016-.384a4.076,4.076,0,0,0,.835-1.036c.28-.355.362-.843.762-1.1a32.625,32.625,0,0,0,8.1,3.082c.856.219,1.735.328,2.57.573.813.239,1.645.083,2.412.278,1.739.444,3.486.142,5.223.254a5.933,5.933,0,0,0,1.993-.267c.641-.178,1.314.087,2.008-.251a6.089,6.089,0,0,1,1.831-.278,24.481,24.481,0,0,0,3.806-1.015,30.9,30.9,0,0,0,6.3-2.73,35.463,35.463,0,0,0,4.723-3.2c1.355-1.065,2.488-2.337,3.734-3.5a30.613,30.613,0,0,0,4.643-5.943,35.756,35.756,0,0,0,3.843-8.523,8.337,8.337,0,0,0,.612-2.269c.019-.78.5-1.479.309-2.273.585-.975.2-2.1.5-3.158a10.6,10.6,0,0,0,.049-3.355,6.054,6.054,0,0,0-.2-2.444c-.33-.716.072-1.585-.3-2.4a12.066,12.066,0,0,1-.294-1.838,35.211,35.211,0,0,0-1.893-6.107,5.206,5.206,0,0,0-1.754-2.377c-.615-.424-1.272-.314-1.869-.614-.472-.238-1,.211-1.5.369a3.206,3.206,0,0,0-2.253,2.24,1.486,1.486,0,0,0-.024.27,8.167,8.167,0,0,0,.161,2.462c.3.72.537,1.464.8,2.2A27.1,27.1,0,0,1,62.2,27.865a24.352,24.352,0,0,1,.27,2.526A1.448,1.448,0,0,0,63.552,31.4c1.167-.01,1.582-.511,1.427-1.877a32.043,32.043,0,0,0-1.873-7.75A4.455,4.455,0,0,1,62.69,20.3a1.217,1.217,0,0,1,.715-1.257,1.2,1.2,0,0,1,1.4.364,2.842,2.842,0,0,1,.631,1.081A35.872,35.872,0,0,1,67.7,30.849c.552,10.254-3.066,18.824-10.118,26.09a16.614,16.614,0,0,1-1.812,1.544,30.344,30.344,0,0,1-11.851,6.439,32.681,32.681,0,0,1-24.385-2.149c-2.307-1.125-2.454-1.078-5.1,1.6a71.651,71.651,0,0,1-3.449-7.72,33.03,33.03,0,0,1,8.432-1.024c.275.456-.112.783-.255,1.144-.625,1.593-.341,2.587,1.152,3.428a26.322,26.322,0,0,0,11.346,3.327,29.987,29.987,0,0,0,7.412-.233,30.568,30.568,0,0,0,16.9-8.5A30.009,30.009,0,0,0,64.978,36.07c.164-1.477-.416-2.07-1.706-1.855" transform="translate(1.611 3.185)"/>
        <path id="Trazado_586692" data-name="Trazado 586692" d="M50.915,58.3a3.811,3.811,0,0,0,1.418-.99A35.844,35.844,0,0,0,55.8,53.545a45.63,45.63,0,0,0,4.122-6.72,26.59,26.59,0,0,0,1.56-3.844,27.945,27.945,0,0,0,.995-3.965,22.246,22.246,0,0,0,.5-4.834c-.032-.482.293-.817.329-1.287.061-.8-.383-1.49-.328-2.276a5.3,5.3,0,0,0-.051-2.36c-.314-.706-.044-1.412-.38-2.1a13.753,13.753,0,0,1-.413-2.076c-.464-1.535-1.007-3.047-1.507-4.573-.2-.6-.708-.933-1.1-1.4H58.108a.726.726,0,0,0-.178.122c-.978,1.069-1.12,1.547-.469,2.869a29.22,29.22,0,0,1,1.613,5.237c.185.667.141,1.356.3,1.985a7.563,7.563,0,0,1,.234,2c-.362.253-.525.821-1.119.7.482.643.206,1.387.292,2.063-.164.29-.514.406-.572.749h.7l.691.7a4.236,4.236,0,0,1-.24,1.851c-.255.541.206,1.281-.312,1.831.018,1.94-.882,3.65-1.441,5.433a21.648,21.648,0,0,1-1.736,3.619,22.326,22.326,0,0,1-3.348,4.784c-.556.594-.97,1.307-1.581,1.869A44.257,44.257,0,0,1,45.339,58.3a39.008,39.008,0,0,1-8.014,3.63c-.694-.13-1.269.439-1.974.32-.44-.074-.8.422-1.282.269.293.953,1.125.713,1.729.658,5.4-.5,10.581-1.686,15.117-4.876" transform="translate(6.669 3.565)" fill="#daecfe"/>
        <path id="Trazado_586693" data-name="Trazado 586693" d="M12.538,13.457a5.083,5.083,0,0,0,1.015-.589,26.669,26.669,0,0,1,7.933-5.123,22.75,22.75,0,0,1,4.921-1.616,10.536,10.536,0,0,1,3.262-.546c.56-.437,1.21-.255,1.832-.273.251.363.817.524.69,1.117.395.134.609-.334.99-.288a3.061,3.061,0,0,0,.964-.006c.372-.079.555.249.854.294-.124-.595.442-.758.74-1.186,4.634.536,9.164,1.451,13.016,4.264v1.316c-.275,1.048-1.12,1.6-1.125,2.664.678-.122,1.324.2,1.887-.3.053-.047.183-.016.275,0a25.421,25.421,0,0,0,4.508-.346c1.015-.057,2.057-.188,3.122-.225a3.412,3.412,0,0,0-.474-2.064c-.7-1.489-1.344-3-2.016-4.5-.407-.91-.821-1.814-1.263-2.786a2.049,2.049,0,0,0-1.013,1.038,3.1,3.1,0,0,1-2.063,1.875,15.681,15.681,0,0,1-2.1-.858,27.789,27.789,0,0,0-5.8-2.252,38.739,38.739,0,0,0-4.127-.9c-1.1-.219-2.223,0-3.244-.288a16.239,16.239,0,0,0-2.7-.231c-.6-.071-1.079.416-1.711.305a4.1,4.1,0,0,0-1.673,0c-1.032.263-2.088.355-3.12.589-.049.012-.068.152-.1.231-3.642.98-6.621,3.131-9.452,5.492a49.969,49.969,0,0,0-3.77,3.748c-.375.388-.867.766-.606,1.441a.236.236,0,0,0,.353,0" transform="translate(2.371 0.322)" fill="#fe5594"/>
        <path id="Trazado_586694" data-name="Trazado 586694" d="M27.475,17.849c.016.282-.27.409-.3.717a3.588,3.588,0,0,1-1.684,2.682c-.653.437-1.349.8-2,1.242a4.218,4.218,0,0,0-1.627,1.8c.255.725-.312,1.466-.28,2.276-.911,1.483-1.57,3.009-.842,4.78a4.67,4.67,0,0,1,2.588,2.16A3.993,3.993,0,0,0,25.2,35a4.375,4.375,0,0,1,1.232.76,2.384,2.384,0,0,1,.587,2.7c-.249.707-.6,1.342-.9,2.012a19.144,19.144,0,0,0-1.328,3.1c-.385,1.045.384,1.8.726,2.686a14.437,14.437,0,0,0,7.862,5.624,16.871,16.871,0,0,0,5.646-1.259,16.88,16.88,0,0,0,4.736-2.8c.265-.218.658-.278.841-.608a.412.412,0,0,0-.214-.474,6.343,6.343,0,0,1-2.727-3.9,4.149,4.149,0,0,1,.25-3.291,13.4,13.4,0,0,1,1.018-2.2,3.849,3.849,0,0,0-.384-2.313,19.458,19.458,0,0,1-5.076-.876,6.291,6.291,0,0,1-3.113-2.251c-.239-.333-.031-.823-.416-1.093V27.869c.477-.484.328-1.164.534-1.743a5.526,5.526,0,0,1,3.42-3.484,3.2,3.2,0,0,1,1.84-.286c.664.151,1.191-.381,1.85-.3a16.1,16.1,0,0,0,1.852.014V20.525a2.864,2.864,0,0,0-.958-1.261,6.713,6.713,0,0,0-3.141.838c-.888.339-1.764.71-2.655,1.039a7.48,7.48,0,0,1-1.754.095c-.356-.42-.911-.4-1.281-.724-.734-.689-.517-1.594-.554-2.429a1.144,1.144,0,0,1,.047-.134c.3-.625.839-1.148.8-1.929-.7-.227-1.135-1-1.966-.981-2.1-.022-3.366,1.281-4.492,2.812" transform="translate(3.998 2.959)" fill="#60b8fd"/>
        <path id="Trazado_586695" data-name="Trazado 586695" d="M40.734,32.165a5.97,5.97,0,0,1,1.617,2.058c0,.408-.036,1.014.008,1.613a5.625,5.625,0,0,1-.741,2.927,4.167,4.167,0,0,0-.68,2.423c.688,1.559,1.362,2.858,2.87,3.553a19.669,19.669,0,0,1,1.668-2.45,17.173,17.173,0,0,0,2.183-4.72,10.74,10.74,0,0,0,.6-3.27,12.675,12.675,0,0,0,.276-1.991,5.9,5.9,0,0,0-.248-1.727c-.206-.472.136-1.194-.088-1.643-.265-.533-.008-1.2-.514-1.616.126-1.36-.983-2.333-1.124-3.607-1.172-1.561-1.9-3.456-3.544-4.659a.7.7,0,0,0-.024.754,2.829,2.829,0,0,1-1.458,3.581,2.121,2.121,0,0,1-.786.127c-.934.016-1.874.062-2.8-.008a6.789,6.789,0,0,0-3.011.875c-.219.086-.34.367-.471.62a8.6,8.6,0,0,0-1.1,4.385c.584,1.675,1.981,1.9,3.223,2.244a3.587,3.587,0,0,0,1.132.332c.42-.02.842.01,1.262-.008.636-.026,1.153.67,1.753.207" transform="translate(6.529 3.751)" fill="#bbec6b"/>
        <path id="Trazado_586696" data-name="Trazado 586696" d="M21.979,33.845a7.953,7.953,0,0,0-2.437-1.368,2.823,2.823,0,0,1-1.774-1.793,2.768,2.768,0,0,1-.008-2.44c.063-.1.008-.275.008-.365.731-1.151,1.944-1.589,3.108-2.246-.2-.821.49-1.515.253-2.279.459-.59.567-1.29,1.111-1.748a7.479,7.479,0,0,1,1.419-.989,4.857,4.857,0,0,0,2.8-2.536V15.722l-.506-.519a21.627,21.627,0,0,1-2.389,1.372,21.468,21.468,0,0,0-2.383,1.652c-.757.618-1.392,1.385-2.1,2.064a13.382,13.382,0,0,0-1.714,2.231,11.1,11.1,0,0,0-1.5,2.47,10.807,10.807,0,0,0-.908,2.577c-.075.926-.578,1.764-.564,2.714.014,1-.368,1.947-.307,2.974.056.954.531,1.855.312,2.83.488.805.337,1.776.733,2.645.387.851.61,1.8,1.049,2.651a14.835,14.835,0,0,0,1.459,2.35,20.368,20.368,0,0,0,1.7,2.236,14.521,14.521,0,0,0,2.256,2c.786.5,1.516,1.083,2.333,1.674,1.083-.608.818-1.672.857-2.6l-.844-1.622c0-.677.041-1.474-.018-2.263-.028-.37.246-.565.3-.868-.813-2.794-1.664-5.579-2.246-8.436" transform="translate(2.756 2.992)" fill="#a1e72d"/>
        <path id="Trazado_586697" data-name="Trazado 586697" d="M32.631,46.743a8.114,8.114,0,0,0-2.3-1.291,17.6,17.6,0,0,1-3.757-2.66,11.273,11.273,0,0,0-1.8-1.672c0,.579.408,1.068.3,1.7a3.222,3.222,0,0,1-.708,1.935c-.249.244-.129.5-.12.767A20.611,20.611,0,0,0,27.6,46.5a29.021,29.021,0,0,0,5.035.245" transform="translate(4.738 8.092)" fill="#1ca7fd"/>
        <path id="Trazado_586698" data-name="Trazado 586698" d="M20.687,30.78a10.369,10.369,0,0,0,.161,2.573c.268.726.377,1.509.6,2.256a8.856,8.856,0,0,0,.843,2.293c.251.4.109,1.027.645,1.314.609-1.653,1.621-3.143,2.055-4.788a2.956,2.956,0,0,0-1.241-1.008A4.177,4.177,0,0,1,21.4,31.381a1.052,1.052,0,0,0-.711-.6" transform="translate(4.049 6.057)" fill="#baeb6a"/>
        <path id="Trazado_586699" data-name="Trazado 586699" d="M32.673,18.982c.142.273.645-.071.607.387A28.082,28.082,0,0,1,36.1,18.294c.485-.133.855-.422,1.3-.588a5.846,5.846,0,0,1,2.577-.267c-1.009-1.372-5.575-2.926-7.249-3.076-.069.286.21.354.335.489a1.426,1.426,0,0,0,.373.272c.517,1.908.148,2.057-.759,3.857" transform="translate(6.396 2.827)" fill="#b9ea6a"/>
        <path id="Trazado_586700" data-name="Trazado 586700" d="M26.369,18.044a21.381,21.381,0,0,1,3.972-2.731,1.751,1.751,0,0,1,.52-.081c-.148-.688-1.049-.522-1.245-1.182-1.165.219-2.293.432-3.538.664.127.686-.2,1.374.258,2.09.191.3.032.821.032,1.241" transform="translate(5.105 2.765)" fill="#1ca6fc"/>
        <path id="Trazado_586701" data-name="Trazado 586701" d="M21.052,29.452a18.294,18.294,0,0,1,.842-4.78c-.352.065-.514.373-.726.6a3.539,3.539,0,0,1-1.516,1.075c-.4.122-.5.539-.838.657v1.15c.5.852,1.456.926,2.238,1.3" transform="translate(3.683 4.855)" fill="#1ca5fb"/>
        <path id="Trazado_586702" data-name="Trazado 586702" d="M14.31,13.271a.743.743,0,0,1,.191-.627c1.565-1.543,3.037-3.189,4.69-4.632,1.258-1.1,2.747-1.926,4.113-2.9,1.215-.865,2.626-1.356,3.885-2.121.291-.177.817.183.878-.406a9.264,9.264,0,0,0-3.819.938c-1.712.7-3.575,1.16-5.022,2.433A13.455,13.455,0,0,0,14.9,8.674,29.2,29.2,0,0,0,9.89,13.557c-1.009,1.358-2,2.72-2.964,4.11A36.158,36.158,0,0,0,4.78,21.7a24.288,24.288,0,0,0-1.7,4.63c-.391,1.358-.627,2.747-.888,4.135a15.637,15.637,0,0,0-.218,3.262c.01.518-.3.912-.338,1.425-.059.805.337,1.5.324,2.274a8.748,8.748,0,0,0,.028,2.239c.346,1.373.417,2.8.823,4.148.385,1.285.937,2.523,1.276,3.819a4.025,4.025,0,0,0,1.369,2.16H6.833a.53.53,0,0,0,.165-.1c.986-1.064,1.15-1.568.5-2.865-.837-1.665-1.039-3.5-1.65-5.217-.343-.96-.149-1.929-.458-2.891a9.958,9.958,0,0,1-.061-2.93c0-.889-.042-1.781.014-2.666.036-.572-.187-1.141.225-1.738.3-.436-.231-1.188.322-1.681-.017-1.944.848-3.672,1.448-5.441a25.129,25.129,0,0,1,2.145-4.3,18.1,18.1,0,0,1,1.99-2.985,6.215,6.215,0,0,1,.782-.911c.358-.273.285-.817.684-.981.343-.141.073-.688.532-.692.218-.421.637-.693.842-1.125" transform="translate(0.319 0.508)" fill="#fe3580"/>
        <path id="Trazado_586703" data-name="Trazado 586703" d="M12.372,11.513c-.451.248-.885.507-.842,1.125a2.853,2.853,0,0,0,1.123-1.125Z" transform="translate(2.256 2.266)" fill="#fb5191"/>
        <path id="Trazado_586704" data-name="Trazado 586704" d="M55.6,52.3a5,5,0,0,0-2.134.923,24.493,24.493,0,0,1-4.91,2.012c-.96.269-1.94.541-2.913.78-1.328.326-2.693.382-4.019.738a9.949,9.949,0,0,1-2.771-.006c-.035,0-.066-.15-.1-.23-.831-.146-1.566.393-2.412.3a25.361,25.361,0,0,0-2.665-.022c-.842,0-1.685.029-2.527-.007-.977-.041-1.92-.364-2.879-.475a23.621,23.621,0,0,1-5.286-1.495,10.181,10.181,0,0,1-4.13-2.327V51.168c.2-.889,1.019-1.458,1.161-2.5-.677.086-1.3-.3-1.879.23-.053.049-.178.039-.265.026-1.433-.214-2.815.445-4.233.264-.631-.081-1.107.361-1.711.311-.557-.047-1.119-.011-1.7-.011-.33.758.105,1.386.372,2.008.649,1.512,1.376,2.991,2.045,4.5a25.713,25.713,0,0,0,1.34,2.854,2.225,2.225,0,0,0,.926-.974c.569-1.137.72-1.24,1.975-1.94a8,8,0,0,1,2.267.882,24.031,24.031,0,0,0,4.812,1.947A31.879,31.879,0,0,0,29.1,59.951c.959.153,1.922.039,2.834.254a21.568,21.568,0,0,0,2.7.27c.67.073,1.2-.372,1.852-.315a4.243,4.243,0,0,0,1.942-.037c.67-.3,1.333-.118,1.975-.315a10.84,10.84,0,0,1,1.906-.5,11.5,11.5,0,0,0,1.876-.539,8.825,8.825,0,0,0,1.861-.583c1.4-.8,2.989-1.15,4.336-2.118.905-.651,1.978-1.107,2.9-1.792A7.475,7.475,0,0,0,55.6,52.3" transform="translate(1.979 9.566)" fill="#b4dbfe"/>
      </g>
    </g>
  </g>
</svg>
